<?xml version="1.0" encoding="UTF-8"?><svg xmlns="http://www.w3.org/2000/svg" viewBox="0 0 111.61 76.97"><defs><style>.d{fill:#b3fc00;}.e{fill:#81aa02;}</style></defs><g id="a"/><g id="b"><g id="c"><g><path class="d" d="M67.63,65.24c.4,2.91,2.01,3.29,2.69,.78,.86-2.2,.63-4.31,.67-8.9,.16-2.82,.68-7.28,1.39-9.2s1.64-6.37,3.47-4.71c.97,1.01,.77,5.44,.77,11.79s.11,10.15,.66,12.47,2.54,4.91,3.55,3.2,.9-6.2,.8-8.72c-.14-2.9-.27-3.4-.28-7.29,.18-4.66,.35-7.57,.39-9.69s.44-5.68,1.75-6.58,2.8-1.53,4.21-.73,1.31,4.03,1.21,5.94-.4,6.75,.05,8.36,1.26,3.83,2.57,1.01,.91-6.35,.91-7.66,.4-5.54,1.91-4.03,1.21,3.02,1.31,6.55-.6,6.75,0,9.37,1.71,5.54,2.52,3.02,.91-5.44,1.01-6.95,0-3.27,0-6.27,.2-7.53,1.01-9.04,2.22-4.33,3.22-2.42,.71,1.51,.71,4.84,.19,6.75,.04,9.67-.07,4.5,.4,8.08c.6,2.12,2.1,4.68,2.8,.65,.56-1.72,.38-5.4,.18-7.52s-.11-6.15,.15-9.97,.36-8.97,1.46-7.96c1.03,1.1,2.21,1.98,2.41-.79,.11-.96-.05-3.13-.42-6.19-.32-1.64-1.01-9.01-2.09-10.39-.33-2.02-26.6-3.38-36.07-3.59S3.28,11.59,.97,17.28c-1.59,3.9-.87,12.58-.29,14.99s1.9,5.1,3.41,2.48,2.42-4.03,2.32-1.81-.09,6.04,0,9.17c0,3.55-.25,9.08,.65,10.8s2.52,3.31,3.13-1.22,0-6.56,.2-9.08,.44-5.39,1.45-4.2c.51,.84,.71,2.4,.81,4.31s.17,5.58,.77,6.59,2.04,.54,2.24-2.69,.21-7.43,1.12-9.14,2.42-2.22,3.73,.3,.87,6.72,.97,8.84,.65,5.45,1.16,6.66,2.62,2.54,3.03-1.19-.17-5.25,.03-7.47,.26-3.22,1.16-4.33,1.91-.91,2.42,.1,1.21,2.82,1.21,6.75-.03,10.54,.07,12.66,.49,6.68,1.39,7.89,2.15,2.26,2.86-1.56,.21-6.59,.21-8.3,.81-5.34,1.31-5.64,1.11,1.21,1.11,3.73,.03,6.8,.73,7.91,1.6,1.24,2.11-3.2,.04-6.63,.24-9.45,.25-4.43,1.35-5.44,2.52-.6,2.92,1.71,1.01,7.86,1.01,9.87c-.25,6.29,.05,9.35,.05,11.42,.14,1.39,.08,4.82,1.36,7.04,.6,1.31,1.73,2.24,2.38-1.09,.31-3.09,.12-6.22,.12-10.57,0-2.42,.06-4.65,1.07-7.07s3.3-6.08,3.9-3.06,.31,3.83,.6,6.25,.8,4.43,1.2,5.24,1.01,1.31,1.41-1.61,.1-6.75,0-9.97-.29-4.53,.31-7.35,2.31-4.74,2.81-2.82,.28,3.49,.38,5.31c.03,.57,0,1.59,.28,2.11,.57,1.05,1.68,1.22,2.02-.47,.5-2.52,.45-5.19,1.15-6.9s2.35-3.73,2.83-1.2c.26,1.81-.16,7.95-.31,9.36-.08,.68-.31,5.45-.25,8.43s.42,4.17,.51,4.88Z"/><ellipse class="e" cx="55.27" cy="18.25" rx="54.38" ry="18.25"/></g></g></g></svg>