<svg id="Layer_7" data-name="Layer 7" xmlns="http://www.w3.org/2000/svg" viewBox="0 0 1026.27 1037.43"><defs><style>.cls-1{fill:#8621fe;}.cls-2{fill:#6815c3;}.cls-3{fill:#4f0ca0;}</style></defs><path class="cls-1" d="M514.17,702.75c-2.67-.84-2.68-3.4-3.29-5.42-1.78-5.86-3.56-11.73-5-17.68-3.22-13.7-8.32-26.89-10.71-40.82-.7-4.09-.69-7.67,2.38-10.77,1.53-1.53,1.91-3.58,2.28-5.58,2.23-12,5.33-23.88,8.41-35.73.67-2.6.64-4.68-1.09-6.83-2-2.51-2.81-5.23-1.31-8.51,1.2-2.64.47-5.63.51-8.48.1-5.91,0-11.88,3.7-17a5.77,5.77,0,0,0,.85-4.68c-1.33-6.75.43-13,3.35-18.93a14.7,14.7,0,0,0,1.34-11.12c-2-7.33-2.58-14.84-.57-22.38a33.64,33.64,0,0,0,1.24-10.9,11.54,11.54,0,0,1,1.09-5.36,74.3,74.3,0,0,0,6.29-30.3,17.56,17.56,0,0,1,.81-4.8c3.07-10.43,7.94-20.07,13.14-29.54a18.76,18.76,0,0,1,7.93-7.48,8.08,8.08,0,0,0,4.68-7.26c.69-10.59,1.93-21.1,3.44-31.61.78-5.36-.37-11-.45-16.48-.12-8.55-.5-17.08.42-25.67a26.17,26.17,0,0,0-3.47-16.49c-6.51-10.8-9.95-22.79-12.71-34.94-1.77-7.77-1.14-15.44,3.09-22.5a8.47,8.47,0,0,0,1.43-5.21c-.6-6.91-.7-13.89-1.83-20.71a55.52,55.52,0,0,1,1.23-23.63A42.63,42.63,0,0,0,543.05,182a36.16,36.16,0,0,1,1.45-11.5c1.17-4.54,2.39-9.07,3.44-13.63,2.1-9.21,6.73-16.46,15.13-21.24a25,25,0,0,0,11.73-14.35c7.36-22.88,27.41-31.8,48.77-27,8.71,1.95,16.83,3.18,25.69,1.11,4.32-1,8.57-2.44,13-3.13,10.44-1.6,20.78-.4,31.1.64,6.68.68,13.44,1.06,19.94,3a5.47,5.47,0,0,0,6.43-2.29C730.82,78.54,745,66.42,758.06,53.28A27.43,27.43,0,0,0,762.22,48c12.43-21.08,40.91-28.11,60-23.6,15.71,3.72,29.56,10.44,40.07,23.07,2.44,2.93,5.5,4.36,9.21,5.45,11.14,3.27,22.11,7.08,33.12,10.78,6.17,2.07,12.59,3.54,18.16,7.16a8,8,0,0,0,4.7,1.11c9.83-.21,19.48,1.66,29.22,2.5,13,1.12,26,1.58,38.78,4.87,8.91,2.3,17.71,4.81,26.06,8.73a37.21,37.21,0,0,0,9.28,3,28.73,28.73,0,0,1,19,12.29c1.81,2.57,3.84,4.1,6.83,4.52,10.89,1.5,20.74,5.91,30.38,10.87a71.1,71.1,0,0,0,13,5.3c8.94,2.53,14.74,9.16,19.72,16.55,3.25,4.81,3.2,5,8.58,2.51a66,66,0,0,1,24.22-5.94c12-.63,24.06-1.37,35.7,3a54.19,54.19,0,0,1,11.55,5.51,20.53,20.53,0,0,0,8.29,3.73c3.23.52,5.5,2.61,7,5.39,5.17,9.27,10.23,18.58,15.41,27.83,1.86,3.34,2.06,7.08,2.41,10.67a30,30,0,0,0,6.75,16.13c5.72,7.19,10.15,14.82,9.8,24.41-.07,2,1.14,2.82,2.87,3.4a22.55,22.55,0,0,1,9.11,6c.83.85,1.92,1.88,3,2,5.68.66,9.69,4.25,13.59,7.77,5,4.56,10.79,8,16.39,11.74a24,24,0,0,0,13.27,4.12,51,51,0,0,1,18,3.16,9.43,9.43,0,0,0,9.78-1.45c8.76-6.95,18.29-6.55,27.63-2.09,7.89,3.77,15.35,8.5,20.12,16.38,10,16.46.42,36.09-18.71,38.38-6.06.72-8.82,5.06-6.47,10.83a49.85,49.85,0,0,1,3.92,22.09c-.26,4.39-1.09,8.83-4,12-4.66,5.2-3.87,10.87-2.64,16.67a83.53,83.53,0,0,0,5.17,15.66,84.46,84.46,0,0,1,4.12,12.8c1.82,7.27.42,13.8-4.4,19.44a12.41,12.41,0,0,0-3.17,8.34c-.09,8.36-.36,16.73-.32,25.1,0,7.41,2.33,14.46,4.13,21.57.53,2.08,2,3.45,3.66,4.74a26.69,26.69,0,0,1,9.79,15.11,25.9,25.9,0,0,0,2.8,6.76,47.22,47.22,0,0,1,5.29,12.34c2,8.19,7.08,15.16,9.15,23.31a5.28,5.28,0,0,0,2.15,2.88c7.91,5.94,14,13.66,20.08,21.29,2.22,2.77,3.9,4.95,8.49,3.65,4.27-1.2,9.4-1.14,13,3.08a6.08,6.08,0,0,0,3.23,1.63,28.22,28.22,0,0,1,13.84,8.59,12,12,0,0,0,5.52,3.57c4.89,1.56,6.82,5.06,5.09,10a69.16,69.16,0,0,0-3.43,16.07c-.53,5.16-2.88,9.76-5.55,14.14a47.52,47.52,0,0,1-3.7,5.63c-11.4,13.87-16.07,30.5-19.59,47.59-1,4.62-1.91,9.2-4.32,13.31a10.81,10.81,0,0,0-1.26,7.6c1.31,8.52,3.06,16.79,7.68,24.31,2.77,4.51,5,9.39,3.9,15.07-.41,2.18,1.17,3.39,2.92,4.15,6.48,2.83,11.34,7.94,16.89,12,6.86,5.08,10.92,12.07,10.66,21a8.53,8.53,0,0,0,2.88,7c6.49,6,9.84,13.44,9.17,22.39-.21,2.92,1.09,4.89,2.82,7.07,9.33,11.77,8.44,27.13-2.3,36.27-7.71,6.56-16.88,8.4-26.39,5.07a19.8,19.8,0,0,0-15.23.58c-10.18,4.25-21,6.42-31.56,9.7a72.52,72.52,0,0,0-18.14,8.7c-2.21,1.44-3.51,2.76-2.68,5.93,1.09,4.12-.43,6.45-4.31,8.32a25.84,25.84,0,0,1-5.22,1.67c-5.36,1.25-10.64,2.8-15.89,4.48a27.54,27.54,0,0,0-12.72,8.14c-2.57,3-5.75,5.13-8.77,7.54-8.92,7.12-17.92,14.19-26.35,21.88-13.75,12.53-29.46,21.76-46.32,29.31-9.54,4.27-18.87,4.77-28.1-.79a12.8,12.8,0,0,0-5.72-2c-7.31-.48-13.79-3.54-20.28-6.5-7.53-3.43-13.29-8.75-16.09-16.71-1.06-3-2.85-4.31-5.92-4a43.08,43.08,0,0,0-6.64.87c-9.25,2.46-18.34,5.13-26.56,10.49-7.86,5.13-16.85,8.19-25.4,12.05-18,8.13-36.34,15.66-53.17,26.23a19.22,19.22,0,0,0-6.94,6.67c-5.92,10.29-15,15.91-26.65,17.27a11.85,11.85,0,0,0-8.32,4.57c-4.65,5.89-10.8,9.07-18,10.62-5.76,1.22-9.54,5.22-12.5,10-4.1,6.7-10,10.39-17.75,11.71-7.35,1.26-13.75-.94-19.57-5-4.34-3-8.68-6.08-13.25-8.79a33.37,33.37,0,0,1-8.86-8.35c-5.19-6.55-11.38-10.7-20.31-10.42-6.58.2-12.87-2-18.72-5.09a116.4,116.4,0,0,0-36.39-12c-16.06-2.66-32.06-6-47.84-10.2a104.27,104.27,0,0,1-35.4-17.51c-18.32-13.57-31.78-31.54-45.72-49.09-7.74-9.74-15.15-19.74-22.66-29.66-4.7-6.19-11.46-9.7-17.76-13.81-1.6-1-3.55-.72-5.37-.85-8.64-.63-15.78-4.07-20.49-11.54a18.38,18.38,0,0,0-8.6-7.36,21.29,21.29,0,0,1-10.25-9.32,24,24,0,0,0-6.64-7.82,23.93,23.93,0,0,1-8.83-13.61,10.65,10.65,0,0,0-3.7-6.11,25.85,25.85,0,0,1-9.6-15.21,9.52,9.52,0,0,0-3.43-5.59c-2.18-1.84-4.52-3.67-5.72-6.31-2.88-6.3-7.51-11.1-12.62-15.54a2.71,2.71,0,0,1-1.17-2c2.39-.07,3.52,1.87,4.92,3.26,6.22,6.15,12.37,12.39,18.56,18.57,1.15,1.14,2.23,2.57,3.65,3.21,7.28,3.3,11.2,9.9,15.1,16.11,7.56,12.06,13.78,24.93,22.08,36.55,3,4.18,6.31,8,10.79,10.61,3.17,1.8,5.06.69,5.45-2.89a24.12,24.12,0,0,0-2.58-13.61,272,272,0,0,0-14.5-24.74c-6.73-10.65-14.22-20.82-19.62-32.31-4.4-9.37-9.23-18.45-17.93-25-5.18-3.89-8.72-9.68-13.36-14.2A569.11,569.11,0,0,1,577,710c-9.45-11.42-19.5-22.36-28.16-34.41-6.15-8.56-12.39-17.15-14.51-27.92-1.73-8.76-3-17.59-4-26.43-.89-7.81-2.74-15.69-.24-23.59a3.82,3.82,0,0,0-1-4c-2.15-2-3.24-4.56-4.67-7-3-5.09-8.76-5-11.8.12a13.86,13.86,0,0,0-2,7A148.16,148.16,0,0,1,508,617.87c-.69,4-1.43,8.44-6.95,10-3.83,1.09-5.14,5.39-4.32,9.58.78,4,1.34,8,2.42,11.93C504.08,667.2,509.15,685,514.17,702.75ZM925.45,995.59h-8.89c-.41,0-.82,0-1.22,0-4.53.19-8.7,3.45-9.28,7.25-.63,4.18,1.94,8.1,6.78,9.52a42.8,42.8,0,0,0,8.33,1.74,65.16,65.16,0,0,1,23.74,7.16,4.43,4.43,0,0,1,2.5,2.52c3.56,10.46,12.26,14.54,21.93,15.79,12.62,1.64,24.57-1.72,35.61-8.17,4.21-2.47,8.39-5.14,12.89-6.94a72.18,72.18,0,0,0,15.52-8.38c5.1-3.68,10.67-6.61,15.82-10.28,8.58-6.11,17.93-11.09,26.7-17,15.21-10.28,32-17.77,48.88-25,9.54-4.09,19.11-8.16,28.38-12.82,5.77-2.9,11.18-6.39,17.36-8.6,10-3.57,19.86-5.66,30.44-3.07,4.64,1.14,8.36,4.19,13,5.31s6.75,4,6.81,8.79,2.09,6.87,6.78,7.89c3,.65,6,1.08,8.92,1.89a17.84,17.84,0,0,0,10.18-.38c6.48-1.91,12.51-4.88,18.79-7.24,5.55-2.09,11-4.29,15-9,1.8-2.07,4.63-2.09,7.33-2.43,8.07-1,16.17-2.23,22.53-8.1,6.16-5.69,13.13-10.19,20.33-14.45,5.39-3.19,11.32-6.14,15-11.36,3.06-4.4,7.06-6.5,11.77-8.06a198,198,0,0,1,19.87-5.91c5-1.1,7.12-4.28,6.22-8.21s-3.71-5.17-9.06-4.36c-5.86.88-11.39,3-17.14,4.21-13.75,3-26.84,8.17-40.08,12.72-7.86,2.7-15.66,6-23.71,7.77-13.12,3-26.69,1.81-40.06,2.36-3.67.16-7.62-.8-11.48-.85-11.2-.16-22.27,1.53-33.39,2.26a313.94,313.94,0,0,0-39.71,5.63c-21.64,4.21-42.34,11.82-62,21.66a352.9,352.9,0,0,0-46,27.64c-16.94,12-35.81,19.89-55.49,26.38-17.64,5.81-35.38,6.85-53.51,4.36C942.92,996.63,934.1,995.3,925.45,995.59ZM1221.93,673.1c-.93,4.33,1.27,9,1.27,13.91,0,8,5.24,14.72,13,17.23,1.71.56,3.32,1.17,5.32.62,5.24-1.42,10.35-.57,15.57.9,6.81,1.92,13.11,5.64,20.4,5.87,1.8.06,2.92,1.39,4,2.6,5.16,5.91,11.65,10.07,18,14.45,4.47,3.06,9.25,4.51,14.4,3.59,5.74-1,11.34-2.82,17-4.29a2.44,2.44,0,0,0,1.09-.54c3.4-3.44,8.18-4.41,12.09-6.87,2.47-1.56,4.24-1.35,6.73-.39,5.47,2.1,10.84,4.71,16.89,4.89a3.57,3.57,0,0,1,2.76,1.12c2.43,3,5.79,2.43,9,2.53,2.41.08,4.65-.4,5.71-2.69,1.14-2.49-.72-4.32-2.3-5.79q-7.35-6.87-15-13.41c-6.47-5.55-13.23-10.77-19.53-16.49a187.25,187.25,0,0,1-21.67-24c-13.26-17-25.49-34.79-35-54.22-6.76-13.87-13.56-27.78-17.51-42.84a11.16,11.16,0,0,0-8.93-8.33c-4.76-1-8.32.7-10.59,5.12-1.22,2.38-3.32,3.06-6,3.43-19.67,2.72-26.28,18.28-25.2,34.8.47,7.21,2.32,14.25,1,21.66-1,5.94-2.49,12.09-1.11,18.15a37.41,37.41,0,0,1-.52,19.26A31.89,31.89,0,0,0,1221.93,673.1Zm154.62-361.26c-3.12-.94-5.69-1-5.27-4.18.83-6.14-1.91-12-1.36-18.21.16-1.73-.74-3.54-1.09-5.34-.2-1.07-.54-2.08-1.74-2.16s-1.76.8-1.94,1.92c-.49,3.14-2.08,3-4.26,1.5-2.66-1.87-5.28-3.84-8.09-5.47-6-3.49-12.25-7-19.55-5.24a12.84,12.84,0,0,1-7.09-.49c-6.64-2-13.31-3.74-20.32-3.56a17.71,17.71,0,0,1-9.33-2.57c-6-3.49-12.16-6.77-17.53-11.06-5.07-4-9.16-9.33-16.19-10.18a1.76,1.76,0,0,1-1-.7c-5.11-6.82-14.12-7.55-20.31-13-2.47-2.17-4.34-3.79-4.83-7-.56-3.6-1.27-7.18-1.9-10.78-1.54-8.75-5.34-17.12-4.31-26.34.27-2.42-.84-4.85-2.2-6.88-5.34-8-9.13-16.82-13.94-25.1-1.9-3.29-4.22-5.48-7.84-6.08a15,15,0,0,1-6.46-3c-7.29-5.17-15.83-7.29-24.38-9.24a2.84,2.84,0,0,0-3.52,1.71,3.53,3.53,0,0,0,.5,4,8.73,8.73,0,0,0,2.47,1.73c6.62,3.24,12.57,7.56,18.51,11.83,7.42,5.32,13.17,11.84,15.05,21.39,2.11,10.74,4.83,21.38,7.66,32,3.09,11.53,9.79,21.48,14.7,32.21,3.1,6.77,7.62,12.4,12.7,17.78,10.79,11.46,23.67,20.46,35.48,30.71a32.8,32.8,0,0,1,6,6.89c6.34,9.65,9.61,20.63,13.85,31.18s8.86,21,14.13,31.15c2.06,3.95,5,7.3,6.74,11.55a312,312,0,0,1,15.79,50.58,17.86,17.86,0,0,0,5.47,10c3.27,2.88,10.21,4.05,13.12,1.74,4.89-3.87,8.73-8.47,8.61-15.37-.11-6.47-2.14-12.46-4.56-18.24-3-7.2-4.78-14.69-6.31-22.25-.8-4-.12-7.72,3-10.73a14,14,0,0,0,3.92-8.8c.68-7.5,1.15-15.17-2.44-22.17-2.43-4.73-1.82-8.72.94-13.08,2.51-4,4.92-7.42,11.07-5.89a10,10,0,0,0-1.6-1.29,4,4,0,0,0-1.21-.13c-1.57-.08-3.06-.45-2.56-2.44s2.25-3,3.71-1.89C1369.83,315.22,1372.34,314.11,1376.55,311.84ZM855.9,809.37c.46-3.67-1-7.14-3.72-10.57-3.68-4.58-7.91-8.76-10.74-14-2.69-5-5.32-10-8.47-14.75-3.77-5.61-6-11.36-5.36-18.28.43-4.82-2.51-8.38-6-11.44-6.25-5.43-13.42-6.43-20.65-2.8a8.13,8.13,0,0,1-2.85.91A81.87,81.87,0,0,1,760.41,733c-1.72-.69-3.56-1.52-3.59-3.72-.09-6.42-4.67-8.24-9.67-9-3-.43-4.86-1.48-6-4.24-1.32-3.23-4.06-4.45-7.34-4.52-10-.2-17.93,5.51-26.4,9.59-1,.47-1.56,1.84-2.22,2.85-1,1.54-1.86,3.15-2.82,4.71-3.62,5.91-2.74,8.61,3.7,11.07,8.74,3.33,17.29,6.88,24.84,12.7A80.76,80.76,0,0,0,745.69,761c7.72,3.64,15.71,6.71,23.54,10.13,8.65,3.78,16.8,8.31,23,15.72a74.46,74.46,0,0,0,6.72,7c8.9,8.13,19,14.68,29.35,20.7,5.23,3,10.57,6.21,17.07,6C852.19,820.33,855.85,816.76,855.9,809.37Zm-152.84-499c-.19-4.17-.38-8-2.1-12-5-11.61-11.15-22.67-16.69-34a41.42,41.42,0,0,0-5.39-8.13c-3.26-3.91-6.72-7.7-11.77-9.45-5.49-1.91-10.17-.7-12.16,3.53a60.58,60.58,0,0,1-10.1,15.68,21.41,21.41,0,0,0-5.38,9.5,71.36,71.36,0,0,1-5.14,15,28.76,28.76,0,0,0-2.5,14.85,26.68,26.68,0,0,1-1.27,10.84c-1.65,4.76-1.12,9.67-1.22,14.54a5.68,5.68,0,0,0,1.94,4.93c3.68,2.88,3.23,6.65,2.56,10.58-1.09,6.39-2.15,12.78-3,19.19-.43,3.1,1.13,5.57,3.54,7.36,2.14,1.59,4.4.71,6.28-.56,3.76-2.55,8-3.81,12.21-5.4a41,41,0,0,0,4.93-2.32c7.77-4.24,14.06-10.33,20.6-16.1,3.81-3.37,7.08-7.37,11-10.65C697.91,330.45,702.05,321.19,703.06,310.33Zm703.82,377.13c-.8,3.69.88,7.63,1,11.66.24,10.64,2.49,20.91,4.83,31.22,2,8.95,8.31,14.76,14.6,20.55,2.31,2.13,5,1.25,6.55-1.56a9.66,9.66,0,0,0,0-9.38q-2.56-5.22-5.17-10.42c-5.93-11.9-6.24-24.68-5.91-37.57a5.7,5.7,0,0,1,1.43-3.29c6.17-8.29,8.27-18,9.46-28,.77-6.46,5-10.94,7.89-16.23a3.46,3.46,0,0,1,2-1.29c4.44-1.31,6-4.62,6-8.82a12.43,12.43,0,0,1,2.14-6.8c4.25-7,6.79-14.79,9.45-22.48,1.67-4.8-.17-7.57-5.15-8.91-2-.53-3.89-1.26-6-1-3.35.4-5.47-1.25-6.7-4.16a12.26,12.26,0,0,0-6.71-6.74,18.36,18.36,0,0,1-3.43-2.49c-3.92-3-8.16-3.69-12.48-1.19-2.63,1.52-3.8.52-5.52-1.49-7.36-8.67-14.34-17.75-23.56-24.65a6.44,6.44,0,0,1-2.21-3.52c-2.78-8.73-7.14-16.85-9.82-25.65a59.92,59.92,0,0,0-8-16.41c-1.29-1.88-2.9-2.1-4.78-1.65s-1.66,2.08-1.67,3.48a26.34,26.34,0,0,0,.21,3.66c2.18,16.06,8.58,30.88,13.71,46,4.44,13.1,11.24,25.25,17.7,37.41a116,116,0,0,1,9.59,25.61c1.67,6.44,3.92,12.75,4.43,19.57.41,5.52-1.12,10.85-.47,16.31.31,2.6-.35,5.22-.76,7.84C1408.54,673.76,1406.05,680.17,1406.88,687.46ZM827.55,473.92c-.81,0-1.63,0-2.44,0a5.4,5.4,0,0,0-5.73,3.67c-1,2.67-.26,6.31,2.16,7.67,6.47,3.66,11.75,9.31,19.47,11.05,2.78.62,6.83-.57,8.27,2.45,1.25,2.61,1.41,5.87,2.48,8.73a1.62,1.62,0,0,1,.18.58c-.26,6.08,4,8.41,8.64,10.45,4.32,1.92,9.13,2,13.54,3.43,4.9,1.62,9.19,1.31,12.89-2.57a6.85,6.85,0,0,1,3.24-1.58,10.5,10.5,0,0,0,7.24-7.6c1.67-5.63,5.92-9.15,10.6-12.1,3.95-2.48,8.19-4.51,12.23-6.87a55.38,55.38,0,0,1,18.83-6.49,73.83,73.83,0,0,1,13.33-.95c2.74,0,4.91-1,5.86-3.51,1-2.75,0-5.12-2.2-7.07s-4.69-2.36-7.26-2.88c-7.83-1.58-15.67-2.1-23.56-.27a4.94,4.94,0,0,1-3,0c-4.61-2.17-8.15-.11-11.76,2.48-9,6.42-19.38,9.36-30,11-5.12.8-10.54,1-15.68-1-7.41-2.89-15.2-4.45-23-5.84C837.08,475.8,832.52,473.71,827.55,473.92ZM792.2,205.53c-.06,7.51,7.26,15.29,15.52,16.08,4.71.45,8.34,1.81,11.15,6.12,3.45,5.3,7.59,6,13.71,3.27a13.16,13.16,0,0,1,5.38-.73,42.51,42.51,0,0,0,7.83-.89c7.73-1.62,15.58-2.65,23.34-4.13,7.56-1.45,15.22-2.65,22.55-4.89,10.08-3.08,20.51-5.3,29.84-10.58a20,20,0,0,1,6.82-2.56,9,9,0,0,0,6.77-4.67c2.49-4.16,4.7-8.5,7-12.78a4.39,4.39,0,0,0,.42-3.56c-.79-2.21-1.23-4.13.73-6.15a7.6,7.6,0,0,1,6.55-2.5c1.89.17,3.71-.13,5-1.73,4-5,5.15-11,5-17.17-.1-3-2.87-3.87-5.31-1.8a25.18,25.18,0,0,0-5.71,6.32c-1.26,2.13-2.91,4.17-5.34,4.83-5.52,1.51-9.2,5.59-12,9.85-4.36,6.56-10.11,11.67-15.31,17.38A25.75,25.75,0,0,1,902.5,203c-4.56,1.08-9,2.58-13.38,4-15.08,4.95-30.78,7.06-46.36,9.68-3.54.6-6.8.12-8.75-3.77-.88-1.74-2.82-2.92-4.14-4.47-3.13-3.66-6.46-7-7.68-12.12s-6.07-7.36-11-6.09c-3.34.85-6.65,1.87-9.92,3C795.38,195.19,792.25,199.52,792.2,205.53Zm341.65,212.92c-.43-3.24.82-7.23-1.42-10.8-.66-1.08-1.44-2-2.8-2.09-1.51,0-2.15,1.17-2.51,2.3a75.12,75.12,0,0,1-5,11.12c-1.93,3.84-3.92,7.91-4,12.08a112.72,112.72,0,0,1-2.58,23.51c-2.11,9.05-1.72,18.55-4.57,27.54-1,3.06-.37,6.44-1.41,9.61-.71,2.18.7,4,2.74,4.9s2.86-1.06,4-2.12a17.64,17.64,0,0,0,1.5-1.92c4.45-5.58,13.73-5.4,17,.77,4,7.42,10.15,10,18,10a9.37,9.37,0,0,1,3.6.44,7.2,7.2,0,0,0,9.21-2.62c2.16-3,1.69-6.46-.25-9.72-2.6-4.37-5.19-8.76-7.46-13.3-3.48-6.95-8.27-13.06-13-19.05a56.2,56.2,0,0,1-11.29-22.61c-.5-2.18-1.62-4.34-.81-6.56C1134.11,426.32,1133.67,422.65,1133.85,418.45ZM1025.12,782.84c2.18,5.85,2.18,5.88,7.9,5.85a30.23,30.23,0,0,0,5.47-.33c7.36-1.39,14.66-3.13,22-4.33,4.77-.77,9.75-1.58,14.47-1a99.26,99.26,0,0,0,12.74.73c6,0,9.2-5.38,6.19-10.56-1.48-2.55-3.48-5.18-7-5.28-2.57-.08-4.57-1.33-6.69-2.62a82.45,82.45,0,0,0-15.9-7.7c-3.78-1.29-7.14-1.21-10,2.1-.8.93-1.73,2.53-3.47,1,0-1.38,1.06-2.16,1.85-3.05,1.94-2.19,2-4.38,0-6.5s-4.53-2.33-6.93.2c-4.82,5.09-11.52,7.85-16.19,12.82-5.1,5.42-11.33,5.75-17.72,6.15-7,.44-13.12-2.39-19-5.78-1.66-1-3.19-1.78-5.11-1.53-3,.4-4.1,2.78-2.19,5.24a19.37,19.37,0,0,0,4.3,4.32,72.25,72.25,0,0,1,13.18,10.79,4.09,4.09,0,0,0,2.56,1.49C1012,784.58,1018.61,786.54,1025.12,782.84ZM985.59,943.62c0-8.59-3-13.3-10.68-17a74.3,74.3,0,0,0-7.94-3.12c-1.94-.68-4-1.25-5.34-2.81-3.15-3.59-7.33-4.87-11.75-6-10.23-2.53-19.61-6.89-27.08-14.5-3.13-3.19-7.09-3.85-11-4.8-2.64-.65-4.29.77-4.52,3.57-1.18,14.29,2.47,27,12.52,37.53,4.4,4.61,11.76,5.89,17.17,2.42,3.87-2.47,7.64-2.43,11.65-1.53a19,19,0,0,0,5.43.61,20.43,20.43,0,0,1,10.59,2.43c4,2,8.28,3.48,11.4,7,1.87,2.09,4.37,2.2,6.73,1A4.74,4.74,0,0,0,985.59,943.62ZM587.79,578c-1.52-10.76-4.77-20.85-12.51-29a16.52,16.52,0,0,0-1.78-1.67,5.1,5.1,0,0,0-6.26-.4c-2.29,1.59-1.67,3.94-.49,6a25.32,25.32,0,0,0,2.47,3.46c2.39,2.89,3.16,5.79,1.63,9.56-1.44,3.52-2.83,7.13-2.72,11.17.27,9.22-1.28,17.85-9.06,24.12-1.3,1.05-2.32,2.48-1.45,4.27a5.11,5.11,0,0,0,4.25,3.07,10,10,0,0,0,8.39-2.79,108.31,108.31,0,0,0,8.6-8.68C583.39,591.62,587,585.51,587.79,578Z" transform="translate(-478.65 -15)"/><path class="cls-2" d="M514.17,702.75c-5-17.78-10.09-35.55-15-53.36-1.08-3.9-1.64-7.94-2.42-11.93-.82-4.19.49-8.49,4.32-9.58,5.52-1.57,6.26-6,6.95-10a148.16,148.16,0,0,0,2.59-24.17,13.86,13.86,0,0,1,2-7c3-5.08,8.82-5.21,11.8-.12,1.43,2.45,2.52,5,4.67,7a3.82,3.82,0,0,1,1,4c-2.5,7.9-.65,15.78.24,23.59,1,8.84,2.3,17.67,4,26.43,2.12,10.77,8.36,19.36,14.51,27.92,8.66,12.05,18.71,23,28.16,34.41a569.11,569.11,0,0,0,40.69,44.64c4.64,4.52,8.18,10.31,13.36,14.2,8.7,6.51,13.53,15.59,17.93,25,5.4,11.49,12.89,21.66,19.62,32.31a272,272,0,0,1,14.5,24.74,24.12,24.12,0,0,1,2.58,13.61c-.39,3.58-2.28,4.69-5.45,2.89-4.48-2.56-7.81-6.43-10.79-10.61-8.3-11.62-14.52-24.49-22.08-36.55-3.9-6.21-7.82-12.81-15.1-16.11-1.42-.64-2.5-2.07-3.65-3.21-6.19-6.18-12.34-12.42-18.56-18.57-1.4-1.39-2.53-3.33-4.92-3.26l-1.54-1.21c-1.24-2.42-2.87-4.4-5.73-5a4.82,4.82,0,0,1-2.83-2.5c-2.21-3-4.37-6.1-8.2-7.32l-1.56-1.14c-1-3.16-4.26-4-6.46-5.91-3.16-2.71-4.91-6.7-8.53-8.92l-4.58-4.77c-2-3-4.73-4.87-8.43-5-5.28-.22-9.14-3-12.37-6.84-2.36-2.76-4.35-5.82-6.64-8.64-2.82-3.47-6-6.58-10.49-7.78l0,0c-1.94-5.78-6.54-8.24-12-9.64A2,2,0,0,1,514.17,702.75Z" transform="translate(-478.65 -15)"/><path class="cls-1" d="M527.79,714c4.53,1.2,7.67,4.31,10.49,7.78,2.29,2.82,4.28,5.88,6.64,8.64,3.23,3.79,7.09,6.62,12.37,6.84,3.7.15,6.39,2,8.43,5a124.18,124.18,0,0,1-19.26-6.75,26.6,26.6,0,0,1-11.8-11C532.54,720.89,530.17,717.46,527.79,714Z" transform="translate(-478.65 -15)"/><path class="cls-1" d="M570.3,747.05c3.62,2.22,5.37,6.21,8.53,8.92,2.2,1.89,5.42,2.75,6.46,5.91C578,759.25,572.83,754.49,570.3,747.05Z" transform="translate(-478.65 -15)"/><path class="cls-1" d="M515.73,704.31c5.47,1.4,10.07,3.86,12,9.64Z" transform="translate(-478.65 -15)"/><path class="cls-1" d="M586.85,763c3.83,1.22,6,4.3,8.2,7.32C591.11,769.25,588.75,766.39,586.85,763Z" transform="translate(-478.65 -15)"/><path class="cls-1" d="M597.88,772.84c2.86.56,4.49,2.54,5.73,5C600.55,777.48,598.93,775.49,597.88,772.84Z" transform="translate(-478.65 -15)"/><path class="cls-2" d="M925.45,995.59c8.65-.29,17.47,1,26.33,2.26,18.13,2.49,35.87,1.45,53.51-4.36,19.68-6.49,38.55-14.42,55.49-26.38a352.9,352.9,0,0,1,46-27.64c19.7-9.84,40.4-17.45,62-21.66a313.94,313.94,0,0,1,39.71-5.63c11.12-.73,22.19-2.42,33.39-2.26,3.86.05,7.81,1,11.48.85,13.37-.55,26.94.6,40.06-2.36,8-1.82,15.85-5.07,23.71-7.77,13.24-4.55,26.33-9.72,40.08-12.72,5.75-1.25,11.28-3.33,17.14-4.21,5.35-.81,8.14.3,9.06,4.36s-1.21,7.11-6.22,8.21a198,198,0,0,0-19.87,5.91c-4.71,1.56-8.71,3.66-11.77,8.06-3.63,5.22-9.56,8.17-15,11.36-7.2,4.26-14.17,8.76-20.33,14.45-6.36,5.87-14.46,7.08-22.53,8.1-2.7.34-5.53.36-7.33,2.43-4.08,4.67-9.49,6.87-15,9-6.28,2.36-12.31,5.33-18.79,7.24a17.84,17.84,0,0,1-10.18.38c-2.92-.81-6-1.24-8.92-1.89-4.69-1-6.71-3.12-6.78-7.89s-2.34-7.7-6.81-8.79-8.32-4.17-13-5.31c-10.58-2.59-20.47-.5-30.44,3.07-6.18,2.21-11.59,5.7-17.36,8.6-9.27,4.66-18.84,8.73-28.38,12.82-16.86,7.25-33.67,14.74-48.88,25-8.77,5.92-18.12,10.9-26.7,17-5.15,3.67-10.72,6.6-15.82,10.28a72.18,72.18,0,0,1-15.52,8.38c-4.5,1.8-8.68,4.47-12.89,6.94-11,6.45-23,9.81-35.61,8.17-9.67-1.25-18.37-5.33-21.93-15.79a4.43,4.43,0,0,0-2.5-2.52,65.16,65.16,0,0,0-23.74-7.16,42.8,42.8,0,0,1-8.33-1.74c-4.84-1.42-7.41-5.34-6.78-9.52.58-3.8,4.75-7.06,9.28-7.25.4,0,.81,0,1.22,0Z" transform="translate(-478.65 -15)"/><path class="cls-2" d="M1221.93,673.1a31.89,31.89,0,0,1,1-9.68,37.41,37.41,0,0,0,.52-19.26c-1.38-6.06.06-12.21,1.11-18.15,1.32-7.41-.53-14.45-1-21.66-1.08-16.52,5.53-32.08,25.2-34.8,2.67-.37,4.77-1,6-3.43,2.27-4.42,5.83-6.14,10.59-5.12a11.16,11.16,0,0,1,8.93,8.33c4,15.06,10.75,29,17.51,42.84,9.46,19.43,21.69,37.18,35,54.22a187.25,187.25,0,0,0,21.67,24c6.3,5.72,13.06,10.94,19.53,16.49q7.62,6.55,15,13.41c1.58,1.47,3.44,3.3,2.3,5.79-1.06,2.29-3.3,2.77-5.71,2.69-3.23-.1-6.59.51-9-2.53a3.57,3.57,0,0,0-2.76-1.12c-6-.18-11.42-2.79-16.89-4.89-2.49-1-4.26-1.17-6.73.39-3.91,2.46-8.69,3.43-12.09,6.87a2.44,2.44,0,0,1-1.09.54c-5.65,1.47-11.25,3.27-17,4.29-5.15.92-9.93-.53-14.4-3.59-6.4-4.38-12.89-8.54-18-14.45-1.06-1.21-2.18-2.54-4-2.6-7.29-.23-13.59-4-20.4-5.87-5.22-1.47-10.33-2.32-15.57-.9-2,.55-3.61-.06-5.32-.62-7.78-2.51-13-9.21-13-17.23C1223.2,682.1,1221,677.43,1221.93,673.1Z" transform="translate(-478.65 -15)"/><path class="cls-2" d="M1376.55,311.84c-4.21,2.27-6.72,3.38-9.79,1-1.46-1.14-3.24,0-3.71,1.89s1,2.36,2.56,2.44a4,4,0,0,1,1.21.13,10,10,0,0,1,1.6,1.29c-6.15-1.53-8.56,1.93-11.07,5.89-2.76,4.36-3.37,8.35-.94,13.08,3.59,7,3.12,14.67,2.44,22.17a14,14,0,0,1-3.92,8.8c-3.08,3-3.76,6.77-3,10.73,1.53,7.56,3.29,15.05,6.31,22.25,2.42,5.78,4.45,11.77,4.56,18.24.12,6.9-3.72,11.5-8.61,15.37-2.91,2.31-9.85,1.14-13.12-1.74a17.86,17.86,0,0,1-5.47-10,312,312,0,0,0-15.79-50.58c-1.72-4.25-4.68-7.6-6.74-11.55-5.27-10.13-9.87-20.55-14.13-31.15s-7.51-21.53-13.85-31.18a32.8,32.8,0,0,0-6-6.89c-11.81-10.25-24.69-19.25-35.48-30.71-5.08-5.38-9.6-11-12.7-17.78-4.91-10.73-11.61-20.68-14.7-32.21-2.83-10.58-5.55-21.22-7.66-32-1.88-9.55-7.63-16.07-15.05-21.39-5.94-4.27-11.89-8.59-18.51-11.83a8.73,8.73,0,0,1-2.47-1.73,3.53,3.53,0,0,1-.5-4,2.84,2.84,0,0,1,3.52-1.71c8.55,1.95,17.09,4.07,24.38,9.24a15,15,0,0,0,6.46,3c3.62.6,5.94,2.79,7.84,6.08,4.81,8.28,8.6,17.12,13.94,25.1,1.36,2,2.47,4.46,2.2,6.88-1,9.22,2.77,17.59,4.31,26.34.63,3.6,1.34,7.18,1.9,10.78.49,3.18,2.36,4.8,4.83,7,6.19,5.42,15.2,6.15,20.31,13a1.76,1.76,0,0,0,1,.7c7,.85,11.12,6.14,16.19,10.18,5.37,4.29,11.56,7.57,17.53,11.06a17.71,17.71,0,0,0,9.33,2.57c7-.18,13.68,1.6,20.32,3.56a12.84,12.84,0,0,0,7.09.49c7.3-1.74,13.52,1.75,19.55,5.24,2.81,1.63,5.43,3.6,8.09,5.47,2.18,1.52,3.77,1.64,4.26-1.5.18-1.12.75-2,1.94-1.92s1.54,1.09,1.74,2.16c.35,1.8,1.25,3.61,1.09,5.34-.55,6.18,2.19,12.07,1.36,18.21C1370.86,310.83,1373.43,310.9,1376.55,311.84Z" transform="translate(-478.65 -15)"/><path class="cls-2" d="M855.9,809.37c0,7.39-3.71,11-10.52,11.2-6.5.22-11.84-3-17.07-6-10.38-6-20.45-12.57-29.35-20.7a74.46,74.46,0,0,1-6.72-7c-6.21-7.41-14.36-11.94-23-15.72-7.83-3.42-15.82-6.49-23.54-10.13a80.76,80.76,0,0,1-14.77-8.54c-7.55-5.82-16.1-9.37-24.84-12.7-6.44-2.46-7.32-5.16-3.7-11.07,1-1.56,1.83-3.17,2.82-4.71.66-1,1.24-2.38,2.22-2.85,8.47-4.08,16.39-9.79,26.4-9.59,3.28.07,6,1.29,7.34,4.52,1.13,2.76,3,3.81,6,4.24,5,.71,9.58,2.53,9.67,9,0,2.2,1.87,3,3.59,3.72a81.87,81.87,0,0,0,37.67,5.46,8.13,8.13,0,0,0,2.85-.91c7.23-3.63,14.4-2.63,20.65,2.8,3.52,3.06,6.46,6.62,6,11.44C827,758.67,829.2,764.42,833,770c3.15,4.7,5.78,9.76,8.47,14.75,2.83,5.26,7.06,9.44,10.74,14C854.94,802.23,856.36,805.7,855.9,809.37Z" transform="translate(-478.65 -15)"/><path class="cls-2" d="M703.06,310.33c-1,10.86-5.15,20.12-13.72,27.33-3.89,3.28-7.16,7.28-11,10.65-6.54,5.77-12.83,11.86-20.6,16.1a41,41,0,0,1-4.93,2.32c-4.16,1.59-8.45,2.85-12.21,5.4-1.88,1.27-4.14,2.15-6.28.56-2.41-1.79-4-4.26-3.54-7.36.88-6.41,1.94-12.8,3-19.19.67-3.93,1.12-7.7-2.56-10.58a5.68,5.68,0,0,1-1.94-4.93c.1-4.87-.43-9.78,1.22-14.54a26.68,26.68,0,0,0,1.27-10.84,28.76,28.76,0,0,1,2.5-14.85,71.36,71.36,0,0,0,5.14-15,21.41,21.41,0,0,1,5.38-9.5A60.58,60.58,0,0,0,655,250.25c2-4.23,6.67-5.44,12.16-3.53,5,1.75,8.51,5.54,11.77,9.45a41.42,41.42,0,0,1,5.39,8.13c5.54,11.35,11.66,22.41,16.69,34C702.68,302.29,702.87,306.16,703.06,310.33Z" transform="translate(-478.65 -15)"/><path class="cls-2" d="M1406.88,687.46c-.83-7.29,1.66-13.7,2.71-20.3.41-2.62,1.07-5.24.76-7.84-.65-5.46.88-10.79.47-16.31-.51-6.82-2.76-13.13-4.43-19.57a116,116,0,0,0-9.59-25.61c-6.46-12.16-13.26-24.31-17.7-37.41-5.13-15.17-11.53-30-13.71-46a26.34,26.34,0,0,1-.21-3.66c0-1.4-.2-3,1.67-3.48s3.49-.23,4.78,1.65a59.92,59.92,0,0,1,8,16.41c2.68,8.8,7,16.92,9.82,25.65a6.44,6.44,0,0,0,2.21,3.52c9.22,6.9,16.2,16,23.56,24.65,1.72,2,2.89,3,5.52,1.49,4.32-2.5,8.56-1.81,12.48,1.19a18.36,18.36,0,0,0,3.43,2.49,12.26,12.26,0,0,1,6.71,6.74c1.23,2.91,3.35,4.56,6.7,4.16,2.09-.26,4,.47,6,1,5,1.34,6.82,4.11,5.15,8.91-2.66,7.69-5.2,15.48-9.45,22.48a12.43,12.43,0,0,0-2.14,6.8c0,4.2-1.61,7.51-6,8.82a3.46,3.46,0,0,0-2,1.29c-2.85,5.29-7.12,9.77-7.89,16.23-1.19,9.92-3.29,19.67-9.46,28a5.7,5.7,0,0,0-1.43,3.29c-.33,12.89,0,25.67,5.91,37.57q2.6,5.21,5.17,10.42a9.66,9.66,0,0,1,0,9.38c-1.54,2.81-4.24,3.69-6.55,1.56-6.29-5.79-12.56-11.6-14.6-20.55-2.34-10.31-4.59-20.58-4.83-31.22C1407.76,695.09,1406.08,691.15,1406.88,687.46Z" transform="translate(-478.65 -15)"/><path class="cls-2" d="M827.55,473.92c5-.21,9.53,1.88,14.31,2.74,7.77,1.39,15.56,2.95,23,5.84,5.14,2,10.56,1.84,15.68,1,10.67-1.66,21.07-4.6,30-11,3.61-2.59,7.15-4.65,11.76-2.48a4.94,4.94,0,0,0,3,0c7.89-1.83,15.73-1.31,23.56.27,2.57.52,5.15,1.05,7.26,2.88s3.22,4.32,2.2,7.07c-1,2.56-3.12,3.52-5.86,3.51a73.83,73.83,0,0,0-13.33.95,55.38,55.38,0,0,0-18.83,6.49c-4,2.36-8.28,4.39-12.23,6.87-4.68,2.95-8.93,6.47-10.6,12.1a10.5,10.5,0,0,1-7.24,7.6,6.85,6.85,0,0,0-3.24,1.58c-3.7,3.88-8,4.19-12.89,2.57-4.41-1.47-9.22-1.51-13.54-3.43-4.6-2-8.9-4.37-8.64-10.45a1.62,1.62,0,0,0-.18-.58c-1.07-2.86-1.23-6.12-2.48-8.73-1.44-3-5.49-1.83-8.27-2.45-7.72-1.74-13-7.39-19.47-11.05-2.42-1.36-3.2-5-2.16-7.67a5.4,5.4,0,0,1,5.73-3.67C825.92,474,826.74,473.92,827.55,473.92Z" transform="translate(-478.65 -15)"/><path class="cls-2" d="M792.2,205.53c0-6,3.18-10.34,9-12.29,3.27-1.09,6.58-2.11,9.92-3,5-1.27,9.84,1.07,11,6.09s4.55,8.46,7.68,12.12c1.32,1.55,3.26,2.73,4.14,4.47,2,3.89,5.21,4.37,8.75,3.77,15.58-2.62,31.28-4.73,46.36-9.68,4.43-1.46,8.82-3,13.38-4a25.75,25.75,0,0,0,13.56-7.77c5.2-5.71,11-10.82,15.31-17.38,2.83-4.26,6.51-8.34,12-9.85,2.43-.66,4.08-2.7,5.34-4.83a25.18,25.18,0,0,1,5.71-6.32c2.44-2.07,5.21-1.21,5.31,1.8.19,6.17-1,12.14-5,17.17-1.27,1.6-3.09,1.9-5,1.73a7.6,7.6,0,0,0-6.55,2.5c-2,2-1.52,3.94-.73,6.15a4.39,4.39,0,0,1-.42,3.56c-2.31,4.28-4.52,8.62-7,12.78a9,9,0,0,1-6.77,4.67,20,20,0,0,0-6.82,2.56c-9.33,5.28-19.76,7.5-29.84,10.58-7.33,2.24-15,3.44-22.55,4.89-7.76,1.48-15.61,2.51-23.34,4.13a42.51,42.51,0,0,1-7.83.89,13.16,13.16,0,0,0-5.38.73c-6.12,2.7-10.26,2-13.71-3.27-2.81-4.31-6.44-5.67-11.15-6.12C799.46,220.82,792.14,213,792.2,205.53Z" transform="translate(-478.65 -15)"/><path class="cls-2" d="M1133.85,418.45c-.18,4.2.26,7.87-1,11.45-.81,2.22.31,4.38.81,6.56a56.2,56.2,0,0,0,11.29,22.61c4.75,6,9.54,12.1,13,19.05,2.27,4.54,4.86,8.93,7.46,13.3,1.94,3.26,2.41,6.71.25,9.72a7.2,7.2,0,0,1-9.21,2.62,9.37,9.37,0,0,0-3.6-.44c-7.89.06-14-2.55-18-10-3.32-6.17-12.6-6.35-17-.77a17.64,17.64,0,0,1-1.5,1.92c-1.13,1.06-2.08,2.92-4,2.12s-3.45-2.72-2.74-4.9c1-3.17.44-6.55,1.41-9.61,2.85-9,2.46-18.49,4.57-27.54a112.72,112.72,0,0,0,2.58-23.51c.09-4.17,2.08-8.24,4-12.08a75.12,75.12,0,0,0,5-11.12c.36-1.13,1-2.34,2.51-2.3,1.36,0,2.14,1,2.8,2.09C1134.67,411.22,1133.42,415.21,1133.85,418.45Z" transform="translate(-478.65 -15)"/><path class="cls-2" d="M1025.12,782.84c-6.51,3.7-13.12,1.74-19.5,2a4.09,4.09,0,0,1-2.56-1.49,72.25,72.25,0,0,0-13.18-10.79,19.37,19.37,0,0,1-4.3-4.32c-1.91-2.46-.84-4.84,2.19-5.24,1.92-.25,3.45.56,5.11,1.53,5.85,3.39,12,6.22,19,5.78,6.39-.4,12.62-.73,17.72-6.15,4.67-5,11.37-7.73,16.19-12.82,2.4-2.53,4.88-2.35,6.93-.2s2,4.31,0,6.5c-.79.89-1.8,1.67-1.85,3.05,1.74,1.53,2.67-.07,3.47-1,2.83-3.31,6.19-3.39,10-2.1a82.45,82.45,0,0,1,15.9,7.7c2.12,1.29,4.12,2.54,6.69,2.62,3.54.1,5.54,2.73,7,5.28,3,5.18-.19,10.52-6.19,10.56A99.26,99.26,0,0,1,1075,783c-4.72-.57-9.7.24-14.47,1-7.39,1.2-14.69,2.94-22,4.33a30.23,30.23,0,0,1-5.47.33C1027.3,788.72,1027.3,788.69,1025.12,782.84Z" transform="translate(-478.65 -15)"/><path class="cls-2" d="M985.59,943.62a4.74,4.74,0,0,1-2.8,4.85c-2.36,1.17-4.86,1.06-6.73-1-3.12-3.48-7.42-5-11.4-7a20.43,20.43,0,0,0-10.59-2.43,19,19,0,0,1-5.43-.61c-4-.9-7.78-.94-11.65,1.53-5.41,3.47-12.77,2.19-17.17-2.42C909.77,926,906.12,913.31,907.3,899c.23-2.8,1.88-4.22,4.52-3.57,3.89.95,7.85,1.61,11,4.8,7.47,7.61,16.85,12,27.08,14.5,4.42,1.1,8.6,2.38,11.75,6,1.37,1.56,3.4,2.13,5.34,2.81a74.3,74.3,0,0,1,7.94,3.12C982.63,930.32,985.56,935,985.59,943.62Z" transform="translate(-478.65 -15)"/><path class="cls-2" d="M587.79,578c-.82,7.47-4.4,13.58-8.93,19.12a108.31,108.31,0,0,1-8.6,8.68,10,10,0,0,1-8.39,2.79,5.11,5.11,0,0,1-4.25-3.07c-.87-1.79.15-3.22,1.45-4.27,7.78-6.27,9.33-14.9,9.06-24.12-.11-4,1.28-7.65,2.72-11.17,1.53-3.77.76-6.67-1.63-9.56a25.32,25.32,0,0,1-2.47-3.46c-1.18-2.08-1.8-4.43.49-6a5.1,5.1,0,0,1,6.26.4,16.52,16.52,0,0,1,1.78,1.67C583,557.19,586.27,567.28,587.79,578Z" transform="translate(-478.65 -15)"/><path class="cls-3" d="M636.52,84.88c11.27.67,22.53,1.35,33.8,2,12.29.69,24.56,1.14,36.71-1.66,6.13-1.42,10.75-4.57,14.89-9.48C737.54,57.2,754,39.43,775,26.75a82.94,82.94,0,0,1,34.75-11.5c13.11-1.33,25.16,2.75,36.31,9.3a339.13,339.13,0,0,1,30,19.33,82,82,0,0,0,44.23,16c14.67,1,29.36,1.5,44,3.11,23.24,2.56,44.81,9.26,64.56,22.1,11.29,7.34,23.06,14,36,18.45,6.77,2.32,13.58,3.73,20.76,3a39.73,39.73,0,0,1,18.39,2.68c9.61,3.71,19.19,7.48,26.53,15.15a30.69,30.69,0,0,1,3.67,4c4.58,6.88,11.15,8.61,18.94,8,8.26-.64,16.34-2.41,24.53-3.47,10.42-1.36,20.91-2.21,31.25.36A48.85,48.85,0,0,1,1236.9,152c11.58,15.45,16.74,33.32,19.81,52,1.24,7.55,2.61,15.08,4,22.62.21,1.19.58,2.35.88,3.52,4,15.18,12,22,27.75,23.15,12.86.92,25.75,1.53,38.62,2.28a114.66,114.66,0,0,1,24.44,3.8c12.2,3.42,23.46,8.77,32.34,18A54.45,54.45,0,0,1,1399,305c1.68,8.51-1.16,15.71-7.94,20.87-6.45,4.92-10.64,11.34-14.66,18.17-6.23,10.57-8.3,22.18-9.48,34-2.53,25.62,1.53,50.6,7.55,75.39,3.61,14.88,6.23,30,10.59,44.68,2.91,9.85,5.62,19.75,9,29.46,5.39,15.28,16.11,25.69,29.28,34.21A74,74,0,0,0,1453,573.31a37,37,0,0,1,10.4,3.08c13.16,6.24,17.3,17.76,15.32,29.81a62.27,62.27,0,0,1-6.62,18.72c-6.15,11.82-10.81,24.3-15.31,36.81s-8.68,25.15-12.93,37.75a100,100,0,0,0-2.83,9.87c-2,9.08-.38,17.11,6.54,23.85,4.33,4.21,8.24,8.84,12.32,13.3a164.71,164.71,0,0,1,29.86,45.87c6,13.69,11.3,27.6,14.25,42.32a56.89,56.89,0,0,1,1,11.42c0,9.32-4.81,15.5-12.92,19.44a26.6,26.6,0,0,1-3.4,1.26c-37.87,12.64-74.89,27.41-111.39,43.56A307.86,307.86,0,0,0,1335.89,933c-17.13,11-34,22.37-51.28,33.11a140.78,140.78,0,0,1-38.74,16.66c-12,3.15-23.61,2.92-34.08-4.77-5.1-3.74-9-8.64-12.47-13.88q-2.67-4-5.29-8.09c-2.06-3.23-4.62-4.34-8.67-3.63A236.52,236.52,0,0,0,1136.21,967c-17,7-32.91,16.18-49.41,24.17-18.4,8.9-34,21.49-48.65,35.39a49.15,49.15,0,0,1-15.15,9.79c-11.37,4.66-22.71,9.46-34.53,12.89a100.81,100.81,0,0,1-11.78,2.66c-15.06,2.47-26.77-3.4-36.07-14.89-2.16-2.67-4.46-5.18-6.75-7.73-8.3-9.25-18.69-11.91-30.66-10.54-13.43,1.54-26.91,2.9-40.37.66-23.25-3.87-46.58-7.53-68.63-16.39-15.38-6.17-26.38-17.43-35-31.19-4.4-7-7-15-10.45-22.46-6.33-13.65-16.1-24.53-27-34.54-8.88-8.2-18-16.17-27.1-24.09-9.58-8.31-19.34-16.41-29-24.66-16.64-14.28-31.44-30.08-41.3-50-4.55-9.16-11.3-16.47-18.79-23.4-17.4-16.08-36.55-29.77-56.61-42.18a379.43,379.43,0,0,1-40.07-28c-5.69-4.63-10.33-10.16-14.85-15.82a22.82,22.82,0,0,1-4.67-10.4,152.79,152.79,0,0,0-6.68-24.46c-7.25-20.89-4.48-40.84,4.95-60.37,5.35-11.07,10.21-22.35,13.5-34.26A114.62,114.62,0,0,0,504.59,534c-1.69-15.61-1.32-30.91,2.38-46.2a219,219,0,0,0,5.64-40.66,214.14,214.14,0,0,1,3.73-28.75,39.44,39.44,0,0,1,11.83-21.32c13.34-13,10.14-7.37,10.94-25.4.77-17.18-.63-34.23-1.58-51.33a25.21,25.21,0,0,0-2.15-8.14c-4.42-10.72-6.48-21.87-7.38-33.45-1-13.69-1.5-27.36-1.19-41.07.61-27.27,5.38-53.79,15.9-79,6.51-15.58,13.17-31.21,24.5-44.24C583.32,95.94,603.71,86.51,628,85.2c2.82-.15,5.65,0,8.47,0ZM532.83,545.82c.43,16.52-2.58,32.48-7.66,48.15a279.36,279.36,0,0,1-12.79,32c-5.42,11.6-7,23.39-2.94,35.83,2.85,8.81,5.75,17.63,7.63,26.73.63,3,2.5,5.45,4.62,7.67A96.81,96.81,0,0,0,535,707.59c14.2,10.31,29.11,19.55,43.87,29a312.25,312.25,0,0,1,54.73,44.57c5.79,5.92,11,12.26,14.8,19.75a136.45,136.45,0,0,0,39.52,47.48c19.07,14.61,36,31.66,54.39,47,16,13.37,27.56,30.44,35.19,49.95,3.88,9.92,8.89,18.77,17.72,25.34,4.41,3.28,8.67,6.41,13.9,8.28,12.39,4.43,25.36,6.47,38.11,9.46a142,142,0,0,0,51.64,2.73,80.55,80.55,0,0,1,14.49-.43c18.89.91,34,9,45.2,24.31,8.32,11.41,9.21,11.76,22.58,8.06,10-2.75,19.08-7.68,28.94-10.62a32.84,32.84,0,0,0,13.82-8.29A201.32,201.32,0,0,1,1066,972c7.9-4.44,15.91-8.71,23.85-13.07,18.58-10.2,37.4-19.83,57.82-25.94a300.14,300.14,0,0,1,36.44-8.67c13.56-2.28,24.22,1.64,31.44,13.77,2.57,4.33,5.44,8.49,8.23,12.68,4.77,7.15,8.51,8.6,17,6.5,9.47-2.35,18.17-6.54,26.57-11.42a290,290,0,0,0,29.52-20,360.94,360.94,0,0,1,65.66-39.53c23.58-11,47.7-20.72,72.15-29.58,12.7-4.6,24.84-10.63,37.79-14.58,3.77-1.15,4.18-2.13,3.26-6.38-1.45-6.74-4.54-12.92-6.89-19.34-5.78-15.79-13.18-30.81-23.65-44-6.5-8.21-13.65-15.9-20.47-23.86a46.42,46.42,0,0,1-11.6-29.19,68.8,68.8,0,0,1,4.43-26.68c5.66-15.31,11.54-30.54,17.5-45.73,5-12.76,10.39-25.37,15.34-38.16,2.38-6.17,1.49-7.75-4.8-8.78-16.31-2.67-30.52-9.72-43.74-19.45-16-11.75-28.64-25.9-35.19-44.93q-2.16-6.28-4.13-12.64c-6.92-22.37-12-45.18-16.7-68.1-5.47-26.56-9.29-53.18-6.36-80.43,2.62-24.43,9.33-47,27.17-65,2.39-2.42,2.63-4.77,1-7.58a27.69,27.69,0,0,0-7.54-8.55,49.16,49.16,0,0,0-19.4-8c-9.33-1.87-18.81-2.18-28.27-2.7-9.25-.5-18.51-.78-27.72-2.08-24.66-3.49-40.69-17.09-48.35-40.71a124.69,124.69,0,0,1-4.5-19.43,242.59,242.59,0,0,0-6.09-27.73,73.1,73.1,0,0,0-10.47-23c-5-7.07-11.6-10.94-20.52-10.56a140.2,140.2,0,0,0-14.46,1.06c-10.15,1.5-20.23,3.52-30.59,3.56-15.32.05-27.84-5.35-37.35-17.59-7-9-16.49-13.42-27.67-14A94.09,94.09,0,0,1,1056.4,126a199.22,199.22,0,0,1-41.27-21.32,106.1,106.1,0,0,0-44.71-17.38,358.24,358.24,0,0,0-36.07-3.8c-27.38-1.2-52.94-7.36-75-25-8-6.39-17.16-11.29-26.25-16.13-7.51-4-15.35-6.15-23.87-4.37a70.07,70.07,0,0,0-25.09,10.17C767.27,59.6,753.28,74,743.08,91.8a28.38,28.38,0,0,1-4.37,5.71c-6.73,7-15.12,10.6-24.39,12.45-14,2.79-28.08,2-42.16.61-14.64-1.44-29.22-3.61-44-3.3a49.66,49.66,0,0,0-14.9,2.16c-15.58,5.23-28.53,14-37.31,28.21-2.22,3.6-4.38,7.25-6.32,11C549,188.46,543,230.72,548.59,274.9c1.74,13.8,5.48,26.85,13.58,38.38a23.41,23.41,0,0,1,3.74,11.38c1,9.82,2.18,19.63,1.88,29.55-.28,9.26-.57,18.56-.23,27.81.41,11.05-3.28,20-11.39,27.47-12.67,11.62-12.38,10.22-15.1,31.35-.13,1-.22,2-.28,3a329.9,329.9,0,0,1-7.95,56.2,71.28,71.28,0,0,0-1.14,25.26A178.08,178.08,0,0,1,532.83,545.82Z" transform="translate(-478.65 -15)"/><path class="cls-3" d="M961.26,484.32a19.91,19.91,0,0,1-13.75-2.23c-1.42-.76-2.91-1.42-4.27-2.28-5.14-3.25-9.69-2.76-14.22,1.45-5,4.65-10.37,8.94-15.58,13.38-6.22,5.31-10.62,12.06-15.06,18.8-1.54,2.33-1,3.66,1.61,4.36a9.72,9.72,0,0,1,2.26.84c3.09,1.72,3.42,4.5.7,6.78a12.14,12.14,0,0,1-3.7,2c-6.81,2.46-13.62,5-20.51,7.22-9.31,3-18.68,2.43-28-.27C844.57,532.52,841,528.5,840,522c-1.06-6.86-4.2-13-7.58-19A17.32,17.32,0,0,0,820,494.25a71.43,71.43,0,0,0-12-1,22.44,22.44,0,0,1-5.39-.44c-3.84-1-5.12-4.81-2.91-8.1a10.44,10.44,0,0,1,4.74-3.62c15.39-6.72,33.85-.2,41.27,10.8a58.05,58.05,0,0,1,9.07,21.56c1.17,6,1.72,6.41,7.82,6.95a36.11,36.11,0,0,0,11.39-.85c4.31-1,8.54-2.57,13-2.58,3.25,0,4.68-1.55,5.28-4.54a45.45,45.45,0,0,1,9-19.6,42.44,42.44,0,0,1,3.06-3.73c6-6,11.81-12.14,18-17.85,9.13-8.38,18.86-8.13,28,.34A62.86,62.86,0,0,1,961.26,484.32Z" transform="translate(-478.65 -15)"/><path class="cls-3" d="M1261.62,564a34.06,34.06,0,0,1-8.65,8.87c-6.06,4.67-12.27,9.17-17.65,14.66-2.29,2.34-4.63,4.81-4.84,8.16-.9,14-5,27.81-3.44,42,.56,5.2.49,10.44,1.46,15.62,1.06,5.65-.72,11.21-1.4,16.78-.46,3.81-.72,7.6-.82,11.43-.14,5.58,2.26,10.14,5.41,14.42a10.13,10.13,0,0,0,6.64,3.81c5.53,1.08,11,2.41,16.56,3.44a114.81,114.81,0,0,1,34.92,13.12c2.29,1.27,4.66,2.38,7,3.62,11.74,6.32,23.6,4.77,34.81-.73a29.15,29.15,0,0,1,20.36-2.58c7.29,1.66,14.49,3.5,21.14,7,1,.53,2.56,1,2.3,2.41-.32,1.77-2.06,1.6-3.45,1.66-3.07.13-6-.71-8.91-1.47-5.46-1.42-10.88-2.94-16.55-3.43a12.6,12.6,0,0,0-8.58,2c-9.76,6.53-20.78,7.11-32,6.44a19.2,19.2,0,0,1-6.34-1.84c-5.35-2.35-10.64-4.84-15.9-7.37-9.45-4.56-19.06-8.67-29.32-11.13-5.68-1.36-11.28-3-16.92-4.55-9.3-2.52-14.64-8.94-17-17.91a42.05,42.05,0,0,1-1.22-16.79,87.76,87.76,0,0,0,.38-24.11c-2.39-18.08,1-35.74,3.13-53.5a15.27,15.27,0,0,1,5-9.46c7-6.38,14.08-12.67,22.09-17.78C1253.25,564.67,1256.78,563,1261.62,564Z" transform="translate(-478.65 -15)"/><path class="cls-3" d="M805.74,739.18c-8.09,0-16,2-24,2.63-5.24.39-10.45.53-15.69.43-6.09-.11-10.84-2.56-14-8-4.47-7.61-11.16-13.14-17.82-18.7-3.46-2.89-7-2.78-10.59-.6-4.2,2.52-7.55,6-10.79,9.61-2,2.25-4,4.51-6.14,6.67a20.47,20.47,0,0,1-3.7,3.07c-2.94,1.83-5.86,1.87-7.21.09-1.87-2.46-.41-4.6,1-6.57,5.48-7.49,11.06-14.9,18.79-20.31A25.46,25.46,0,0,1,726,703a15.77,15.77,0,0,1,12.08,2.42,79.73,79.73,0,0,1,21.09,20.54c3,4.32,6.41,6.17,11.54,6.05,8.84-.21,17.68.34,26.54-.79a59.76,59.76,0,0,1,19.27.61,11.67,11.67,0,0,1,9.43,8.3c1.47,4.24,1.72,8.68,2.43,13a80.84,80.84,0,0,0,3.74,14.6,27.23,27.23,0,0,0,6.9,10.37,107.61,107.61,0,0,1,17.41,22.35c3.94,6.75,2.73,11.32-3.67,16.14a52.54,52.54,0,0,1-5.95,4.12c-1.9,1.07-3,.18-3-2.08,0-2.76,1.43-5,3-7.14,1.92-2.62,1.46-4.69-.52-7-5-5.82-9.41-12.15-14.8-17.52-7.35-7.32-10-16.31-11.25-26.07-.51-4.19-.45-8.46-1-12.65-1-8-2.24-9-10.48-9.08Z" transform="translate(-478.65 -15)"/><path class="cls-3" d="M1111.21,364.41a4.79,4.79,0,0,1,2.65-3.17c5.61-3.36,7.22-2.83,10.06,3.22,3.26,6.91,6.64,13.77,9.77,20.75a36.51,36.51,0,0,1,2.51,23c-2.4,11.91-1.14,24.08-.61,36.15.16,3.74,2,6.93,4.28,9.84,6.55,8.43,12.94,17,20.79,24.32a35.69,35.69,0,0,1,8.31,11.79c4,9.17.65,18.46-9.28,21.06-3.5.92-6.91,2.23-10.54,2.62a20.39,20.39,0,0,1-13.25-3.24,81.77,81.77,0,0,1-7-4.72c-4.63-3.63-9.51-6.09-15.61-4.4a5,5,0,0,1-1.81,0c-1.58-.17-3.46,0-4.25-1.72s.6-3,1.62-4.22c6.25-7.31,14.67-8.48,24-3.15a42.91,42.91,0,0,1,7.3,5.35c4.28,3.84,9,4.06,14.1,2.25,4.06-1.44,4.89-2.85,3.42-6.75-1.34-3.59-2.91-7.11-5.62-9.94-8.25-8.62-15-18.44-21.91-28.08a20.61,20.61,0,0,1-3.59-10.76c-1-13.89-1.7-27.76,1.27-41.54,1-4.49-.09-8.8-1.59-13-2.54-7.22-5.12-14.43-7.55-21.69C1117,363.32,1117.06,363.29,1111.21,364.41Z" transform="translate(-478.65 -15)"/><path class="cls-3" d="M629.37,367.26c-1.23-7.63-.61-15.25-.09-22.87a28.67,28.67,0,0,0-1.43-9.53A29.12,29.12,0,0,1,629,315.92,106.63,106.63,0,0,0,632.61,305c1.53-5.69,1.1-11.28-2.35-16.21-3.72-5.32-3.25-10.51-.31-15.89s6.37-10.27,7.95-16.22a6.47,6.47,0,0,1,5.18-4.6,42.92,42.92,0,0,1,18-.5c2.62.53,4.61,1.8,4.58,4.74,0,2.73-2.12,3.65-4.4,4.21a2.61,2.61,0,0,1-.59.13c-7.78-.6-11.62,3.88-13.83,10.59a11.51,11.51,0,0,1-2.08,3.67c-3.18,3.76-3.22,7.18-1.25,12,3.32,8.08,2.17,16.62-1,24.78a41.39,41.39,0,0,1-1.76,3.83c-3.16,6.21-4,12.32-1.13,19.11a29.31,29.31,0,0,1,1.66,19.51c-.71,2.65-.32,5.61-.33,8.42,0,5.46-2.69,9.61-6.46,13.17-2,1.93-4.08,1.34-5.08-1.31C628.56,372.09,629.15,369.66,629.37,367.26Z" transform="translate(-478.65 -15)"/><path class="cls-3" d="M830.9,241.5c-12.11-.06-20.87-11.19-18-21.42.92-3.21.83-5.88-1.4-8.42-1.08-1.23-2.22-2.56-.67-4.19,1.79-1.89,3.77-1.22,5.42.08a10,10,0,0,1,3.91,9.6,13.17,13.17,0,0,1-1,3.47c-1.18,2.77-3,5.58-.25,8.34,2.94,2.91,6.38,5.06,10.77,4.32a75.05,75.05,0,0,0,15.78-3.95,137.75,137.75,0,0,1,38.66-9c8.3-.79,16.15-3.35,24.16-5.23,5.71-1.33,11.5-1.94,17.22-3.08,4.72-.93,7.81-2.92,9-8.2,1.07-4.62,3.74-8.87,5.75-13.27a30.79,30.79,0,0,0,3-11.6A24.44,24.44,0,0,1,945.7,169c2.18-4.4,5.84-6.48,10.56-7,1-.11,2.08-.13,2.59,1,.6,1.31,0,2.34-1,3.16a5.91,5.91,0,0,1-1.54.93c-5,1.93-6.32,5.93-5.85,10.73.65,6.66-1.11,12.72-3.83,18.69-2,4.38-4.18,8.7-5.33,13.45a9.19,9.19,0,0,1-7.36,7.17,104.7,104.7,0,0,1-14.21,2.68c-6.84.62-13.39,2.76-20,4.67A90.92,90.92,0,0,1,888,227.18a191.38,191.38,0,0,0-40.83,10.55A59.41,59.41,0,0,1,830.9,241.5Z" transform="translate(-478.65 -15)"/><path class="cls-3" d="M979.66,758.65c5.52,5.14,11,10.32,16.61,15.45,5.83,5.38,12.85,8.24,20.57,9.49,3.59.58,4.16.07,4.84-3.49.38-2,.55-4,1.1-5.94,1.53-5.35,5-8.89,10.64-9.27,6-.4,10.11-3.12,13.26-8.13,3.94-6.27,7.22-7.11,14.3-4.48,9.19,3.42,17,9.17,24.78,14.9,2.92,2.15,5.64,4.57,8.43,6.89a13.42,13.42,0,0,1,2.16,2.1c1.47,1.94,2.11,4.1,0,5.92-1.91,1.66-3.82,1.53-5.85-.39-6.76-6.39-14.7-11.22-22.36-16.41a44.5,44.5,0,0,0-6.41-3.38c-5.76-2.67-6.27-2.58-9.94,2.42-3.09,4.21-6.93,7.44-12,8.67-4.88,1.19-6.51,4.24-6.34,8.83,0,.8,0,1.61,0,2.41-.46,7.62-4.72,11.81-12.46,11.74a41.35,41.35,0,0,1-25.64-9.39,68.29,68.29,0,0,1-12-12.74A18.47,18.47,0,0,1,979.66,758.65Z" transform="translate(-478.65 -15)"/><path class="cls-3" d="M934.06,946.23a5.33,5.33,0,0,1-1.8-.12c-7.19-3.06-15.1-5.61-20-11.73-7.09-8.83-12.09-19-13.41-30.61a14.39,14.39,0,0,1,.7-7.11c.81-2,2.2-3.5,4.53-3.28s3.53,1.81,4.07,3.91a9.41,9.41,0,0,1,.27,3c-.66,8.46,3.36,15.47,6.51,22.91,3.33,7.87,10.1,11.06,16.79,14.63,3.13,1.67,5.94.16,8.35-1.78,4.12-3.32,8.89-4.37,14-4.83a16,16,0,0,1,11.34,3.13c2.43,1.79,4.71,3.78,7,5.7,2.5,2.06,4.95,4.12,8.54,3.88a2.89,2.89,0,0,1,3.07,2.41c.29,1.33-.87,2.21-1.79,2.94-3.06,2.44-6.41,2.09-9.68.58a38.86,38.86,0,0,1-8.9-6.18c-8.1-7-10.81-7.13-19.56-1A17.86,17.86,0,0,1,934.06,946.23Z" transform="translate(-478.65 -15)"/><path class="cls-3" d="M558.54,605.33c0-2.74,2-4.25,3.85-5.61,5.21-3.9,6.47-8.77,4.69-14.9a30.14,30.14,0,0,1-.79-11.89,43.68,43.68,0,0,0-2-18.43c-.25-.76-.64-1.49-.82-2.26-.37-1.65-.45-3.36,1.58-4s2.79.52,3.51,2.28a56.34,56.34,0,0,1,3.9,23,41,41,0,0,0,.87,10.14c2.5,11.13.52,15.3-9.59,20.36a35.73,35.73,0,0,1-3.9,1.58C559.57,605.74,559.14,605.48,558.54,605.33Z" transform="translate(-478.65 -15)"/></svg>