<svg xmlns="http://www.w3.org/2000/svg" viewBox="0 0 1902.17 910.44"><defs><style>.cls-1{fill:#64533f;}.cls-2{fill:#4c3c29;}.cls-3{opacity:0.25;}.cls-4{fill:#7d4cb7;}.cls-5{fill:#645340;}.cls-6{fill:#4d3c2a;}.cls-7{fill:#7d4db7;}</style></defs><g id="Layer_3" data-name="Layer 3"><path class="cls-1" d="M1191.24,205.22c-.17,1.28-.65,2.57,1.28,3.12,7.82,2.24,14.81,6.78,22.41,9.15,8,2.49,16.29,5.3,25.32,2.26,8.64-2.91,17.6-1.47,26,1.9,9.71,3.86,19,8.59,27,15.42a21.87,21.87,0,0,0,6.48,3.72,167.65,167.65,0,0,1,30.31,15.53c6.25,4,11.79,8.72,15.32,15.41,1.28,2.42,3.32,3.59,5.81,4.37,7.9,2.45,15.6,5.54,24,6.48a67.17,67.17,0,0,1,15.13,3.7c2.44.87,4.28.77,6.35-.94,4.91-4.07,10.72-6.7,16.44-9.34,3.86-1.79,7.09-4.49,10.82-6.41.75,1.85.63,3.79.75,5.71.21,3.54,2.8,5.51,5.48,6.88s5.15-.09,7.09-2.32a39.31,39.31,0,0,0,4-4.89c5.7-9.12,11.92-17.87,19.49-25.58,4.19-4.26,8.76-8.18,12.56-12.76a150.66,150.66,0,0,1,35.47-31.74c7.65-4.83,15.65-9.12,24.64-10.74a158.82,158.82,0,0,1,18.25-1.8c8.8-.54,17.62.36,26.47-1a64.15,64.15,0,0,1,13.66-1c4,.26,4,.47,4.15-3.58.06-1.35.09-2.7.14-4,12.16,5.75,25.37,7.56,38.34,10.26a121.94,121.94,0,0,1,17.85,4.75c3.67,1.37,7.58,1.35,11.28,2.31,15.48,4,31.07,7.67,45,16.06,2.14,1.29,4.56,2.32,6.32,4,5,4.78,11,7.45,17.06,10.49,21.27,10.73,35.25,28.2,44.42,49.79a30.28,30.28,0,0,0,6,9.71,121,121,0,0,1,16.13,21.07c3.9,6.34,6.58,13.1,6.68,20.65A15.74,15.74,0,0,0,1807,339c9.08,17.49,15.4,36.15,22.75,54.37,3.09,7.66,4.33,15.6,2.56,23.78-.56,2.57.48,4.43,1.57,6.5,2.85,5.34,7.4,9.26,11.15,13.86-2.65,1.12-2.65,2.87-1.34,5.09,3.64,6.2,5.27,13.18,7.51,19.9,1,2.9,1.56,5.91,2.76,8.76,4.26,10.11,9.2,19.89,14.3,29.58,3.15,6,4,12.29,4.24,18.82a17.13,17.13,0,0,1-3.18,10.24c-3.15,4.9-8.14,7.53-12.7,10.58-10.58,7.08-18.42,16-21.58,28.65-2,8.19-4.16,16.36-4.12,24.82,0,7.34,2.3,9.18,9.15,8.54a1.46,1.46,0,0,1,.55.17c-1.37,1.76-2.86,3.21-2.25,6,3.55,16.08,1.72,32.06-3.18,47.42-7.75,24.34-11.29,49.58-17.15,74.32-3.66,15.46-9.12,30.27-14.8,45-3.56,9.27-5.2,18.94-7.57,28.46-1.86,7.51-3.89,14.93-8.28,21.46-5.93,8.8-13.7,15.15-24.15,17.67a10.71,10.71,0,0,0-7,5.36,102.26,102.26,0,0,1-14.41,18,29.88,29.88,0,0,1-6.11,5.27,205.52,205.52,0,0,0-22.42,15.17,29.48,29.48,0,0,1-19,5.84c-3.87-.11-6.87,2.32-9.6,4.73a31,31,0,0,0-6,7c-7.1,11.51-17.81,17.3-30.93,17.1a231.5,231.5,0,0,0-45.37,3.59c-12.72,2.31-25.71,2.23-38.65,1.5a30,30,0,0,1-9.62-1.8c-2-.8-4.07-1.73-4.86-3.84-1.16-3.09-3.5-3.59-6.36-3.93-9.57-1.15-19.14-2.28-28.6-4.18a45.64,45.64,0,0,1-14.67-5.14,5.24,5.24,0,0,0-5.4-.45c-4.79,2.25-9.94,3-15.15,3.48a16.91,16.91,0,0,0-9.11,3.26c-11.89,9-24.86,16.22-37.94,23.26a178.83,178.83,0,0,0-21.89,14c-1.4,1-3,2-3.48,3.74-1.05,4-4,5.92-7.54,7.35a18.39,18.39,0,0,0-2.62,1.22c-2.19,1.33-2.14,2.13.25,3.53,1,.57,2,1,3.35,1.6a48.47,48.47,0,0,1-20,7.4c-3.81.57-7.58,1.4-11.39,2a23.75,23.75,0,0,0-10.15,3.92A34.45,34.45,0,0,1,1335,988a11.19,11.19,0,0,0-6.17,1c-12.7,6.17-25.42,5.09-38.13.08a24.12,24.12,0,0,1-3.71-1.63,67.57,67.57,0,0,0-25.84-9.49,20.06,20.06,0,0,1-4.94-1.59c-3.16-1.31-5.33-3.64-4.44-7.17,1-3.88-1.22-4.62-4-5.37-7.74-2.05-14.59-6-21.33-10.16a19.88,19.88,0,0,1-7-6.83c-2.89-4.92-2.1-7.64,3.35-11.89,0-1.33-1.1-2-1.94-2.72-2.41-2.22-5.59-4-7-6.79-2.9-5.5-7.73-5.46-12.67-5.93-9.84-.94-19.28-3.78-28.77-6.34a73,73,0,0,0-22.3-2.51,66.83,66.83,0,0,1-10.4-.16c-7.47-.85-14.89-1.77-22.46-1a27.83,27.83,0,0,1-12.47-2.05c-10.63-4-20.09-9.87-27.06-19.07-9.44-12.45-19.13-24.73-27.94-37.6-11.22-16.39-21.78-33.23-32.38-50-5.16-8.16-8.86-17.13-12.61-26-4.81-11.38-5.33-22.84.73-34a8.69,8.69,0,0,0,.4-7.24,206.46,206.46,0,0,1-7.33-29.73c-.39-2.35-1.69-4.29-2.78-6.31C985.49,678.5,982,658.26,983.64,637a38.34,38.34,0,0,0,.07-6.34c-1.2-12.67-2.09-25.37-3.53-38-2.53-22.14-1.94-44.25-.27-66.39a314.78,314.78,0,0,1,4-32.12c1.94-10.81,6.65-20.11,15.63-26.83a10.14,10.14,0,0,0,3.91-6.84c1.64-10.27,5.78-19.16,14-25.81,2.06-1.67,2.37-3.78,2.28-6.2-.42-11.18-.88-22.34-3-33.38-2.8-14.7-2.45-29.56-2-44.41.21-7.89.24-15.81,1.91-23.61.75-3.5-.71-6.86-1.26-10.27a326.9,326.9,0,0,1-3.64-39.13,57.22,57.22,0,0,0-2.33-14.79,81.62,81.62,0,0,1-3.3-14.66c-1.54-13.31,2.25-25.2,9.78-36a88.46,88.46,0,0,1,17.5-18.38,44.21,44.21,0,0,1,20.41-9.07c2.59-.44,6.14-.23,6.17-4.49.91-.36,2-.82,2.78-.24,4.2,3,9,2.16,13.41,1.51a79.89,79.89,0,0,1,21.18,0c5.73.67,11.36,1.86,17,2.84a100.8,100.8,0,0,1,21.1,5.59c9.47,3.9,18.36,8.93,27.58,13.31,2.79,1.33,5.59,2.83,8.71,2.83,6.13,0,12.46,2.82,18.4-1C1190.35,204.93,1190.85,205.17,1191.24,205.22Zm260.09,153.61c-.73,8.57,3.43,15.52,7.5,22.51,1.66,2.85,3.32,5.27,7.26,3.42,1.53-.72,3,.53,4.32,1.2,3.78,1.87,7.47,3.93,11.29,5.7,14.92,6.9,29.41,14.41,40.36,27.2,1.24,1.45,2.68,2.63,3.34,4.61,4.66,13.91,15.36,21.58,28.2,27a21.72,21.72,0,0,0,7.34,1.24c4.08.22,8.2-1.66,12-1,8.48,1.58,17,2.72,25.54,3.8a169.78,169.78,0,0,0,20.62,1.6,13.59,13.59,0,0,0,13.81-14,20.71,20.71,0,0,1,2.74-11,43.2,43.2,0,0,0,5.55-23.24c-.27-9.16-4.32-16.56-10.5-22.36-5.17-4.85-10.28-9.77-15.41-14.66-5.55-5.29-11-10.8-19.15-12.09-.87-.14-1.62-.95-2.43-1.46a37,37,0,0,1-10.17-10.06c-1.59-2.22-2-4.21-.52-6.35,4.72-7.09,4.81-15.74,8-23.34a3.21,3.21,0,0,0-1-4.16c-1.64-1.1-3.18,0-4.13,1a20.67,20.67,0,0,0-5.06,8.27c-2.41,7.71-7.77,13.16-14,17.84-6.46,4.83-14,7.16-21.68,9.1q-16.71,4.24-33.69,7.38c-8.46,1.54-16.65,4.57-24.95,6.95-5.19,1.48-10.46,1.48-15.19-1-4.57-2.36-10.67-2.95-12.43-9.32-.32-1.15-1.62-2.16-2.67-3-2.1-1.6-4.32-.84-4.73,1.73A42,42,0,0,0,1451.33,358.83Zm-218.28,583a60,60,0,0,0-7.21-2.48c-1.87-.53-4-.82-5.33,1s-.53,3.65.35,5.44a11.55,11.55,0,0,0,3.75,4.34,60.34,60.34,0,0,0,9.24,5.68c6,2.78,11.8,6.5,18.77,6.78a5.12,5.12,0,0,1,2.1.94c1.53.89,2,1.86,1.09,3.76-2.16,4.72-1.39,6.33,3.69,7.88,3.84,1.17,7.94,1.58,11.69,3,11,4,22.47,4.71,34,4.91,6,.1,12-.15,17.93.06,10.45.37,20.67-1.1,30.82-3.31s20-5.41,30.35-6.36c2.42-.23,4.8-1.39,7.1-2.36,1.26-.53,2.31-1.33.63-2.95-2.62-2.54-2.52-3.14.33-4.81,2-1.16,4.1-2.15,6.19-3.14a11.3,11.3,0,0,0,5.31-5.11c1.82-3.48.57-6.23-3.37-6.64a23.37,23.37,0,0,0-9.19.39,383.35,383.35,0,0,1-38.57,9.34c-7,1.32-14.07,2.54-21.17,1.57-9.1-1.24-18.17-2.79-27.18-4.53a177,177,0,0,1-44.74-14.73c-8.82-4.34-17.63-8.71-26.38-13.2a42.35,42.35,0,0,0-10.81-4c-2.51-.52-5.23-2.1-8.81-.58C1220.09,929.66,1227.77,934.48,1233.05,941.8ZM1050.78,610.51c0,3.85,0,7.7,0,11.56a37.71,37.71,0,0,0,2.9,14.58c4.29,10,9.61,19.17,18,26.55,3.36,3,7.23,3.33,10.77.37,4.35-3.63,5-8.5,3.74-13.64a14.87,14.87,0,0,1,.93-10.61c2-4.16,3.55-8.51,5.21-12.81,3.87-10,2.32-20.52,2.3-30.85a9.67,9.67,0,0,0-2.91-6.19c-3-3.1-4.84-6.94-7.62-10.09-2.07-2.34-2.14-4.57-1.5-7.43,1.4-6.33,5-11.63,7.64-17.37a20.55,20.55,0,0,1,10.23-10.45c1.35-.62,2.35-1.4,2.27-3a3.26,3.26,0,0,0-2.51-2.87c-4.49-1.63-9.17-1.94-13.44.19-8.55,4.25-16.17,10-20.79,18.49C1056.9,573.63,1048.61,590.62,1050.78,610.51Zm526.11,314.64c7.86-.32,15.66-1.67,23.56-1.29a2.16,2.16,0,0,0,.57-.05c13.26-2.95,26.84-4.3,40-8.08,11.48-3.3,22.7-7.18,33.22-13a40,40,0,0,0,10.48-8c1.34-1.46,1.18-2.25-.34-3.68-3.17-3-6.37-3.62-10.5-2.18a99,99,0,0,1-21.18,5.24c-8,.92-15.89,2.25-23.8,3.61-13,2.24-26.08,4.24-39.34,4.24-9.83,0-19.65-.11-29.48,0-10,.12-19.8-1.76-29.66-3.11a135.37,135.37,0,0,0-18.31-1.41c-4.12,0-8.49.35-12.14,2.86-2.69,1.85-2.74,3.52-.14,5.41a24.55,24.55,0,0,0,7.84,3.56,138.89,138.89,0,0,0,34,5.25c4.27.11,7.38.86,9.34,4.93a7.31,7.31,0,0,0,7,4.34C1564.32,923.53,1570.51,925.63,1576.89,925.15Zm-313.61-93.8c3.48.29,7.39-.26,9.1-4s.89-7.55-2-10.74c-.64-.71-1.54-1.46-1.68-2.29-1.19-7.09-6-12.4-9.12-18.52-1.33-2.63-1.93-4.79-1-7.59.85-2.59,1.35-5.55-1.08-7.51-3-2.44-2.81-5.08-1.44-8.12a4.74,4.74,0,0,0,.61-2.2c-.26-2.71,1.64-6.57-1.73-7.76-2.79-1-4.49,2.49-5.91,4.6-2.77,4.13-5.41,8.34-8.52,12.26-5.66,7.14-12.77,12.3-21.5,14.65a69,69,0,0,1-22.78,2.55,30.24,30.24,0,0,0-4,.43c-8.4.56-16.51,3.15-25,3.14a24.3,24.3,0,0,0-18.56,7.83c-2.08,2.27-4.35,4.37-6.51,6.57-1.22,1.22-2.76,2.45-1.86,4.44a5.14,5.14,0,0,0,5.12,3,7.62,7.62,0,0,0,5.22-2c2.34-2,4.77-4.21,7.82-4.71a50.28,50.28,0,0,0,8.86-2.18c2.68-1,5.67-1.15,7.54,2.19,1.56,2.79,4.3,2.5,6.62,1.37,6.66-3.27,13.81-4.2,21-5.57a34.37,34.37,0,0,1,20.24,2.18c10,4.28,19.6,9.72,29.28,14.81C1255.44,830.07,1258.91,831.52,1263.28,831.35Zm4.36-488.57c1.75,0,3.68,0,5.61,0a4.8,4.8,0,0,0,3.74-1.19c1-1.06,2.78-1.88,2.48-3.63s-1.82-2.86-3.66-3.2c-2.26-.42-4.51-.84-6.78-1.21-13.51-2.18-26.65-5.57-39-11.67-10.51-5.19-21-10.49-31.44-15.74-1.21-.6-2.46-1.12-3.6-1.83-1.9-1.18-3.08-2.46-2.26-5.18,1.32-4.38-.79-8.36-4-10.77-10.06-7.58-21.43-10.67-34.1-8.62-4.54.74-8,3.56-12.11,5.08-5.47,2-7.57,6-5.15,11.17,3.28,7,8.41,11.81,16.32,13.22,4.71.84,9.38,1.92,14,3,10.57,2.35,20.25,7.16,30.23,11.11,10.17,4,20.41,7.86,31.12,10.18a86.13,86.13,0,0,1,13.24,3.78C1250.42,340.39,1258.59,343.24,1267.64,342.78ZM1737,620.84a9.47,9.47,0,0,0,0-2.87c-1.55-4.52-3-9.06-4.21-13.69a8.73,8.73,0,0,0-8-6.58c-3.73-.21-6.83,1.49-9,5.07-1.58,2.58-1.76,5.43-2.88,8-2.65,6.13-3.41,12.86-6.74,18.84-5.29,9.48-12.43,17.48-19.37,25.64a112.93,112.93,0,0,0-15.41,22.82,9.54,9.54,0,0,0-1.36,4.36c0,3,1.23,4.19,4.25,4.12a8.4,8.4,0,0,0,6.12-2.84,14,14,0,0,1,8.5-4.38c5.47-.89,10.89-2,16.3-3.22,7.78-1.66,12.37-6.2,13.54-14.35.57-3.94.21-8.36,2.37-11.73,3.6-5.63,6.26-11.93,11-16.76C1735.49,629.77,1736.78,625.56,1737,620.84Zm-9.3-310.79c.66-4.93-.62-9.28-2.71-13.51a85.36,85.36,0,0,0-8.12-13.92c-3.79-5-5-11.17-8.66-16.21-4.41-6.13-10.4-6.84-16.77-5-7,2-13.55,14.68-9.74,22.53a47.59,47.59,0,0,1,4.62,16.52,10.93,10.93,0,0,0,3,6.74,50.42,50.42,0,0,0,24.47,14.44,13.07,13.07,0,0,0,9.56-.87C1727.8,318.33,1728.37,314.36,1727.71,310.05ZM1476.54,591.13h.15c0,1.55,0,3.09,0,4.63,0,1,.06,2.28,1.11,2.41,2.69.33,4.37,2.27,6.49,3.51a3.13,3.13,0,0,0,3.81-.3c2-2.09,4.44-2.75,7.22-3a4.21,4.21,0,0,0,3.39-2.89c1-4.72,4.89-8.48,4.52-13.49-.28-3.69,1.15-6.26,3.82-8.51a23.23,23.23,0,0,0,3.59-3.76c1-1.36,2.11-2.9,1.65-4.76-1-4.17-2.64-8.31-6-10.91-5.33-4.06-10.76-8.18-17.19-10.44-3.6-1.26-7.12-3.27-11.1-2.79-10.55,1.26-12,4.41-9.89,12.79a36,36,0,0,0,5.15,10.93,25.51,25.51,0,0,1,3.86,20.89A40.28,40.28,0,0,0,1476.54,591.13Zm22.21,209.25c-.53-4.23-.64-8.31-1.61-12.17-1.83-7.27-3.61-14.81-12.42-17.15a6.22,6.22,0,0,1-1.88-1.31c-4.41-3.38-9.19-6.28-13.63-9.54-7.31-5.38-13.81-6.06-22.29-2.07A70.58,70.58,0,0,0,1427,771.42c-4.68,4.56-5.79,10.26-6.92,16.06-.59,3,.81,4.17,3.77,4.52,4,.48,6-1.94,7.36-5.15,2-4.66,4.88-8.16,10.36-8.94,2.39-.35,3.76-2.44,4.88-4.54,2.08-3.91,4-4.61,7.65-2.12a94.87,94.87,0,0,0,18.25,9.61c5.07,2,10.4,5,10,11.86-.32,5.63,1.38,11,1.3,16.61,0,3.42,3.47,7.61,6.27,8,2.47.36,5.71-2.35,7-5.88a3,3,0,0,0,.2-.54C1497.72,807.35,1498.25,803.76,1498.75,800.38Zm-206-318.66c-6,0-15.42,4.27-20.88,9.94a70.55,70.55,0,0,1-14.29,11.58,27,27,0,0,0-6.82,6.16c-1.62,2-2.94,4.44-1.4,6.91,2.81,4.52,3.09,9.38,2.91,14.45a16.8,16.8,0,0,0,.84,3.91c.89,4,4.27,6.75,8.44,6.07,3.34-.54,5.28-3,5.71-7.47.36-3.85.37-4.12,4.5-4,3.26.11,5.39-1.25,7.53-3.41a33.57,33.57,0,0,0,9.82-23.83c.08-4.2.93-7.51,4.3-10.06a16.81,16.81,0,0,0,3.86-5c1.93-3.21,1-4.91-2.78-5.28C1293.87,481.67,1293.28,481.72,1292.7,481.72Zm405.43,408.6c3.17.15,6-1,8.85-2.25,8.35-3.74,15-10.07,21.85-15.76a125.56,125.56,0,0,0,21.76-23.77c5.15-7.15,10.83-14,15.63-21.33,7.75-11.91,13.79-24.88,22.2-36.41a80.79,80.79,0,0,0,4.91-8.47,1.88,1.88,0,0,0-.4-2.6,2.13,2.13,0,0,0-2.66.31c-.74.62-1.42,1.3-2.12,2a86.4,86.4,0,0,0-13.92,16.84c-5.13,8.12-9.4,16.83-15,24.57-12.54,17.25-25.65,34.08-41.36,48.66-1.4,1.3-3,2.66-3.75,4.34-2.47,5.89-7.66,7.73-13,9.39-1.64.51-3.35.83-5,1.24-.79.2-1.43.62-1.46,1.52,0,1.21.81,1.63,1.84,1.75A14.24,14.24,0,0,0,1698.13,890.32Zm-385.76-15.74A21.39,21.39,0,0,0,1310,866c-4.38-9.78-12.35-16.58-20-23.61-1.9-1.76-4.68-2.64-7.17-3.65-1.8-.73-3.92-1-5.39.66s-1.35,3.92-.21,5.9a31.74,31.74,0,0,0,6.23,7.53,112,112,0,0,1,15.14,16.48c2.05,2.78,3.51,6,5.55,8.75,2.71,3.71,5.91,3.23,7.73-1A10,10,0,0,0,1312.37,874.58Z" transform="translate(-7.83 -105.71)"/><path class="cls-2" d="M1596,182.74c0,1.34-.08,2.69-.14,4-.17,4.05-.16,3.84-4.15,3.58a64.15,64.15,0,0,0-13.66,1c-8.85,1.33-17.67.43-26.47,1a158.82,158.82,0,0,0-18.25,1.8c-9,1.62-17,5.91-24.64,10.74a150.66,150.66,0,0,0-35.47,31.74c-3.8,4.58-8.37,8.5-12.56,12.76-7.57,7.71-13.79,16.46-19.49,25.58a39.31,39.31,0,0,1-4,4.89c-1.94,2.23-4.36,3.71-7.09,2.32s-5.27-3.34-5.48-6.88c-.12-1.92,0-3.86-.75-5.71,3.78-7.76,6.26-16.1,10.48-23.65a100.45,100.45,0,0,0,6.67-14.11,27.22,27.22,0,0,1,2.57-5.8c5.88-8.73,9.25-18.58,13-28.28a10.54,10.54,0,0,0,1-3.29c.07-5.36,3.16-8.87,6.9-12.15,4.66-4.08,9.37-8.07,15-10.81,5.39-2.63,9.94-6.54,15-9.69.94.07,2,.49,2.81.16a87.25,87.25,0,0,1,24.37-5.92c2.24-.25,6.23-.67,5.55-5.08a21.65,21.65,0,0,1,15.48-1.73,2.48,2.48,0,0,0,1.79,2.55c5.4,2.41,10.41,5.22,13.93,10.38,3,4.37,7.5,6.23,12.92,5.27,4.87,5.12,11.37,7.4,17.66,10C1591.84,178.61,1594.66,179.66,1596,182.74Z" transform="translate(-7.83 -105.71)"/><path class="cls-2" d="M1191.24,205.22c-.39-.05-.89-.29-1.13-.13-5.94,3.83-12.27,1-18.4,1-3.12,0-5.92-1.5-8.71-2.83-9.22-4.38-18.11-9.41-27.58-13.31a100.8,100.8,0,0,0-21.1-5.59c-5.63-1-11.26-2.17-17-2.84a79.89,79.89,0,0,0-21.18,0c-4.43.65-9.21,1.48-13.41-1.51-.83-.58-1.87-.12-2.78.24q-7.93-3.17-7.77-10.62c.08-3.28,1.18-6.24,4.4-7.47,6.76-2.59,13.39-5.64,20.65-6.68,2.21,2.87,3.13,2.82,4.8-.23a19.9,19.9,0,0,1,9.24,0c.07.95.34,1.84,1.42,2,1.31.19,2-.57,2.19-1.81,2.89-.4,5.69.24,8.52.58,2.65.32,5.44,1.1,7.93.56a14.93,14.93,0,0,1,12.4,2.71,22,22,0,0,0,10.67,3.75c1.87.19,3.84.18,5.51,1.3.51,3.67,4,3.64,6.34,4.94,4.17,2.35,4.22,2.15,7-2.16a9,9,0,0,1,2.19-1.76c2,1.43,2.83,3.63,3.69,5.72a17.4,17.4,0,0,0,8.48,9c6.76,3.6,13.46,7.34,20.13,11.11,5.44,3.07,7.12,7.23,5.07,12.41C1192.52,204.24,1191.76,204.68,1191.24,205.22Z" transform="translate(-7.83 -105.71)"/><path class="cls-2" d="M1840.61,602.69a1.46,1.46,0,0,0-.55-.17c-6.85.64-9.11-1.2-9.15-8.54,0-8.46,2.08-16.63,4.12-24.82,3.16-12.7,11-21.57,21.58-28.65,4.56-3,9.55-5.68,12.7-10.58a17.13,17.13,0,0,0,3.18-10.24c-.26-6.53-1.09-12.84-4.24-18.82-5.1-9.69-10-19.47-14.3-29.58-1.2-2.85-1.79-5.86-2.76-8.76-2.24-6.72-3.87-13.7-7.51-19.9-1.31-2.22-1.31-4,1.34-5.09,2.91,2,5.53,4.26,7,7.58-.43,2.24-.66,4.34,2.75,3.78,2.8,3.34,3.9,7.46,5.13,11.49,3.19,10.4,9.24,19.43,13.92,29.11,1.42,2.93,4.71,4.53,6.18,7.54-.61,1.61-1,3.36-.08,4.82,1.23,2,2.54,2.09,3.18-.55a18.09,18.09,0,0,1,7.1,23.92c-2.86,5.45-6.1,10.7-9.31,15.95a21.45,21.45,0,0,1-9.46,8.26c-16.53,7.58-23.75,21.67-27.26,38.42-.83,3.94-1.36,7.94-2,11.91-1.76.3-2.23,1.26-1.48,2.85Z" transform="translate(-7.83 -105.71)"/><path class="cls-1" d="M1571.33,167.44c-5.42,1-9.93-.9-12.92-5.27-3.52-5.16-8.53-8-13.93-10.38a2.48,2.48,0,0,1-1.79-2.55c5.41-.39,10.11,1.82,14.57,4.37C1563.11,157,1568.21,161.24,1571.33,167.44Z" transform="translate(-7.83 -105.71)"/><path class="cls-1" d="M1527.21,151c.68,4.41-3.31,4.83-5.55,5.08a87.25,87.25,0,0,0-24.37,5.92c-.77.33-1.87-.09-2.81-.16,4.35-4.5,10-6.4,15.9-7.43C1516,153.38,1521.75,152.85,1527.21,151Z" transform="translate(-7.83 -105.71)"/><path class="cls-1" d="M1155.4,165.38a9,9,0,0,0-2.19,1.76c-2.73,4.31-2.78,4.51-7,2.16-2.31-1.3-5.83-1.27-6.34-4.94,1.58-.53,3,.27,4.41.68,2.23.63,4.39,2.33,5.61-1.72C1150.57,161.26,1152.5,161.92,1155.4,165.38Z" transform="translate(-7.83 -105.71)"/><path class="cls-1" d="M1883.1,501.31c-.64,2.64-1.95,2.53-3.18.55-.9-1.46-.53-3.21.08-4.82A6,6,0,0,1,1883.1,501.31Z" transform="translate(-7.83 -105.71)"/><path class="cls-1" d="M1082,155.27c-1.67,3-2.59,3.1-4.8.23A4.55,4.55,0,0,1,1082,155.27Z" transform="translate(-7.83 -105.71)"/><path class="cls-1" d="M1094.89,155.46c-.21,1.24-.88,2-2.19,1.81-1.08-.16-1.35-1.05-1.42-2A2.81,2.81,0,0,1,1094.89,155.46Z" transform="translate(-7.83 -105.71)"/><path class="cls-1" d="M1854.77,448.9c-3.41.56-3.18-1.54-2.75-3.78A4.66,4.66,0,0,1,1854.77,448.9Z" transform="translate(-7.83 -105.71)"/><path class="cls-1" d="M1840.67,602.62c-.75-1.59-.28-2.55,1.48-2.85A2,2,0,0,1,1840.67,602.62Z" transform="translate(-7.83 -105.71)"/><path class="cls-2" d="M1451.33,358.83a42,42,0,0,1,.06-6.35c.41-2.57,2.63-3.33,4.73-1.73,1.05.8,2.35,1.81,2.67,3,1.76,6.37,7.86,7,12.43,9.32,4.73,2.45,10,2.45,15.19,1,8.3-2.38,16.49-5.41,24.95-6.95q17-3.1,33.69-7.38c7.64-1.94,15.22-4.27,21.68-9.1,6.26-4.68,11.62-10.13,14-17.84a20.67,20.67,0,0,1,5.06-8.27c1-1,2.49-2.12,4.13-1a3.21,3.21,0,0,1,1,4.16c-3.18,7.6-3.27,16.25-8,23.34-1.43,2.14-1.07,4.13.52,6.35a37,37,0,0,0,10.17,10.06c.81.51,1.56,1.32,2.43,1.46,8.13,1.29,13.6,6.8,19.15,12.09,5.13,4.89,10.24,9.81,15.41,14.66,6.18,5.8,10.23,13.2,10.5,22.36a43.2,43.2,0,0,1-5.55,23.24,20.71,20.71,0,0,0-2.74,11,13.59,13.59,0,0,1-13.81,14,169.78,169.78,0,0,1-20.62-1.6c-8.53-1.08-17.06-2.22-25.54-3.8-3.76-.7-7.88,1.18-12,1a21.72,21.72,0,0,1-7.34-1.24c-12.84-5.4-23.54-13.07-28.2-27-.66-2-2.1-3.16-3.34-4.61-11-12.79-25.44-20.3-40.36-27.2-3.82-1.77-7.51-3.83-11.29-5.7-1.36-.67-2.79-1.92-4.32-1.2-3.94,1.85-5.6-.57-7.26-3.42C1454.76,374.35,1450.6,367.4,1451.33,358.83Z" transform="translate(-7.83 -105.71)"/><path class="cls-2" d="M1233.05,941.8c-5.28-7.32-13-12.14-19.41-19.1,3.58-1.52,6.3.06,8.81.58a42.35,42.35,0,0,1,10.81,4c8.75,4.49,17.56,8.86,26.38,13.2a177,177,0,0,0,44.74,14.73c9,1.74,18.08,3.29,27.18,4.53,7.1,1,14.19-.25,21.17-1.57a383.35,383.35,0,0,0,38.57-9.34,23.37,23.37,0,0,1,9.19-.39c3.94.41,5.19,3.16,3.37,6.64a11.3,11.3,0,0,1-5.31,5.11c-2.09,1-4.19,2-6.19,3.14-2.85,1.67-2.95,2.27-.33,4.81,1.68,1.62.63,2.42-.63,2.95-2.3,1-4.68,2.13-7.1,2.36-10.38,1-20.26,4.15-30.35,6.36s-20.37,3.68-30.82,3.31c-6-.21-12,0-17.93-.06-11.54-.2-23-.88-34-4.91-3.75-1.38-7.85-1.79-11.69-3-5.08-1.55-5.85-3.16-3.69-7.88.87-1.9.44-2.87-1.09-3.76a5.12,5.12,0,0,0-2.1-.94c-7-.28-12.73-4-18.77-6.78a60.34,60.34,0,0,1-9.24-5.68,11.55,11.55,0,0,1-3.75-4.34c-.88-1.79-1.69-3.65-.35-5.44s3.46-1.53,5.33-1A60,60,0,0,1,1233.05,941.8Z" transform="translate(-7.83 -105.71)"/><path class="cls-2" d="M1050.78,610.51c-2.17-19.89,6.12-36.88,15.17-53.52,4.62-8.5,12.24-14.24,20.79-18.49,4.27-2.13,9-1.82,13.44-.19a3.26,3.26,0,0,1,2.51,2.87c.08,1.55-.92,2.33-2.27,3a20.55,20.55,0,0,0-10.23,10.45c-2.65,5.74-6.24,11-7.64,17.37-.64,2.86-.57,5.09,1.5,7.43,2.78,3.15,4.67,7,7.62,10.09a9.67,9.67,0,0,1,2.91,6.19c0,10.33,1.57,20.81-2.3,30.85-1.66,4.3-3.24,8.65-5.21,12.81a14.87,14.87,0,0,0-.93,10.61c1.29,5.14.61,10-3.74,13.64-3.54,3-7.41,2.6-10.77-.37-8.34-7.38-13.66-16.6-18-26.55a37.71,37.71,0,0,1-2.9-14.58C1050.74,618.21,1050.78,614.36,1050.78,610.51Z" transform="translate(-7.83 -105.71)"/><path class="cls-2" d="M1576.89,925.15c-6.38.48-12.57-1.62-19-1.31a7.31,7.31,0,0,1-7-4.34c-2-4.07-5.07-4.82-9.34-4.93a138.89,138.89,0,0,1-34-5.25,24.55,24.55,0,0,1-7.84-3.56c-2.6-1.89-2.55-3.56.14-5.41,3.65-2.51,8-2.86,12.14-2.86a135.37,135.37,0,0,1,18.31,1.41c9.86,1.35,19.64,3.23,29.66,3.11,9.83-.13,19.65,0,29.48,0,13.26,0,26.31-2,39.34-4.24,7.91-1.36,15.83-2.69,23.8-3.61a99,99,0,0,0,21.18-5.24c4.13-1.44,7.33-.82,10.5,2.18,1.52,1.43,1.68,2.22.34,3.68a40,40,0,0,1-10.48,8c-10.52,5.77-21.74,9.65-33.22,13-13.11,3.78-26.69,5.13-40,8.08a2.16,2.16,0,0,1-.57.05C1592.55,923.48,1584.75,924.83,1576.89,925.15Z" transform="translate(-7.83 -105.71)"/><path class="cls-2" d="M1263.28,831.35c-4.37.17-7.84-1.28-11.31-3.11-9.68-5.09-19.24-10.53-29.28-14.81a34.37,34.37,0,0,0-20.24-2.18c-7.17,1.37-14.32,2.3-21,5.57-2.32,1.13-5.06,1.42-6.62-1.37-1.87-3.34-4.86-3.15-7.54-2.19a50.28,50.28,0,0,1-8.86,2.18c-3,.5-5.48,2.75-7.82,4.71a7.62,7.62,0,0,1-5.22,2,5.14,5.14,0,0,1-5.12-3c-.9-2,.64-3.22,1.86-4.44,2.16-2.2,4.43-4.3,6.51-6.57a24.3,24.3,0,0,1,18.56-7.83c8.53,0,16.64-2.58,25-3.14a30.24,30.24,0,0,1,4-.43,69,69,0,0,0,22.78-2.55c8.73-2.35,15.84-7.51,21.5-14.65,3.11-3.92,5.75-8.13,8.52-12.26,1.42-2.11,3.12-5.58,5.91-4.6,3.37,1.19,1.47,5,1.73,7.76a4.74,4.74,0,0,1-.61,2.2c-1.37,3-1.58,5.68,1.44,8.12,2.43,2,1.93,4.92,1.08,7.51-.92,2.8-.32,5,1,7.59,3.12,6.12,7.93,11.43,9.12,18.52.14.83,1,1.58,1.68,2.29,2.87,3.19,3.64,7.08,2,10.74S1266.76,831.64,1263.28,831.35Z" transform="translate(-7.83 -105.71)"/><path class="cls-2" d="M1267.64,342.78c-9.05.46-17.22-2.39-25.27-5.55a86.13,86.13,0,0,0-13.24-3.78c-10.71-2.32-21-6.14-31.12-10.18-10-3.95-19.66-8.76-30.23-11.11-4.67-1-9.34-2.11-14-3-7.91-1.41-13-6.26-16.32-13.22-2.42-5.13-.32-9.13,5.15-11.17,4.09-1.52,7.57-4.34,12.11-5.08,12.67-2.05,24,1,34.1,8.62,3.19,2.41,5.3,6.39,4,10.77-.82,2.72.36,4,2.26,5.18,1.14.71,2.39,1.23,3.6,1.83,10.48,5.25,20.93,10.55,31.44,15.74,12.33,6.1,25.47,9.49,39,11.67,2.27.37,4.52.79,6.78,1.21,1.84.34,3.34,1.34,3.66,3.2s-1.43,2.57-2.48,3.63a4.8,4.8,0,0,1-3.74,1.19C1271.32,342.76,1269.39,342.78,1267.64,342.78Z" transform="translate(-7.83 -105.71)"/><path class="cls-2" d="M1737,620.84c-.23,4.72-1.52,8.93-5,12.47-4.73,4.83-7.39,11.13-11,16.76-2.16,3.37-1.8,7.79-2.37,11.73-1.17,8.15-5.76,12.69-13.54,14.35-5.41,1.17-10.83,2.33-16.3,3.22a14,14,0,0,0-8.5,4.38,8.4,8.4,0,0,1-6.12,2.84c-3,.07-4.22-1.15-4.25-4.12a9.54,9.54,0,0,1,1.36-4.36,112.93,112.93,0,0,1,15.41-22.82c6.94-8.16,14.08-16.16,19.37-25.64,3.33-6,4.09-12.71,6.74-18.84,1.12-2.61,1.3-5.46,2.88-8,2.2-3.58,5.3-5.28,9-5.07a8.73,8.73,0,0,1,8,6.58c1.23,4.63,2.66,9.17,4.21,13.69A9.47,9.47,0,0,1,1737,620.84Z" transform="translate(-7.83 -105.71)"/><path class="cls-2" d="M1727.71,310.05c.66,4.31.09,8.28-4.4,10.71a13.07,13.07,0,0,1-9.56.87,50.42,50.42,0,0,1-24.47-14.44,10.93,10.93,0,0,1-3-6.74,47.59,47.59,0,0,0-4.62-16.52c-3.81-7.85,2.73-20.53,9.74-22.53,6.37-1.83,12.36-1.12,16.77,5,3.62,5,4.87,11.25,8.66,16.21a85.36,85.36,0,0,1,8.12,13.92C1727.09,300.77,1728.37,305.12,1727.71,310.05Z" transform="translate(-7.83 -105.71)"/><path class="cls-2" d="M1476.54,591.13a40.28,40.28,0,0,1,.54-5.73,25.51,25.51,0,0,0-3.86-20.89,36,36,0,0,1-5.15-10.93c-2.11-8.38-.66-11.53,9.89-12.79,4-.48,7.5,1.53,11.1,2.79,6.43,2.26,11.86,6.38,17.19,10.44,3.41,2.6,5,6.74,6,10.91.46,1.86-.62,3.4-1.65,4.76a23.23,23.23,0,0,1-3.59,3.76c-2.67,2.25-4.1,4.82-3.82,8.51.37,5-3.55,8.77-4.52,13.49a4.21,4.21,0,0,1-3.39,2.89c-2.78.3-5.19,1-7.22,3a3.13,3.13,0,0,1-3.81.3c-2.12-1.24-3.8-3.18-6.49-3.51-1-.13-1.09-1.44-1.11-2.41,0-1.54,0-3.08,0-4.63Z" transform="translate(-7.83 -105.71)"/><path class="cls-2" d="M1498.75,800.38c-.5,3.38-1,7-1.57,10.56a3,3,0,0,1-.2.54c-1.32,3.53-4.56,6.24-7,5.88-2.8-.42-6.32-4.61-6.27-8,.08-5.58-1.62-11-1.3-16.61.4-6.86-4.93-9.81-10-11.86a94.87,94.87,0,0,1-18.25-9.61c-3.64-2.49-5.57-1.79-7.65,2.12-1.12,2.1-2.49,4.19-4.88,4.54-5.48.78-8.35,4.28-10.36,8.94-1.39,3.21-3.31,5.63-7.36,5.15-3-.35-4.36-1.54-3.77-4.52,1.13-5.8,2.24-11.5,6.92-16.06a70.58,70.58,0,0,1,19.89-13.28c8.48-4,15-3.31,22.29,2.07,4.44,3.26,9.22,6.16,13.63,9.54a6.22,6.22,0,0,0,1.88,1.31c8.81,2.34,10.59,9.88,12.42,17.15C1498.11,792.07,1498.22,796.15,1498.75,800.38Z" transform="translate(-7.83 -105.71)"/><path class="cls-2" d="M1292.7,481.72c.58,0,1.17-.05,1.74,0,3.79.37,4.71,2.07,2.78,5.28a16.81,16.81,0,0,1-3.86,5c-3.37,2.55-4.22,5.86-4.3,10.06a33.57,33.57,0,0,1-9.82,23.83c-2.14,2.16-4.27,3.52-7.53,3.41-4.13-.15-4.14.12-4.5,4-.43,4.43-2.37,6.93-5.71,7.47-4.17.68-7.55-2-8.44-6.07a16.8,16.8,0,0,1-.84-3.91c.18-5.07-.1-9.93-2.91-14.45-1.54-2.47-.22-5,1.4-6.91a27,27,0,0,1,6.82-6.16,70.55,70.55,0,0,0,14.29-11.58C1277.28,486,1286.75,481.7,1292.7,481.72Z" transform="translate(-7.83 -105.71)"/><path class="cls-2" d="M1698.13,890.32a14.24,14.24,0,0,1-1.73,0c-1-.12-1.87-.54-1.84-1.75,0-.9.67-1.32,1.46-1.52,1.68-.41,3.39-.73,5-1.24,5.39-1.66,10.58-3.5,13-9.39.71-1.68,2.35-3,3.75-4.34,15.71-14.58,28.82-31.41,41.36-48.66,5.62-7.74,9.89-16.45,15-24.57A86.4,86.4,0,0,1,1788.15,782c.7-.66,1.38-1.34,2.12-2a2.13,2.13,0,0,1,2.66-.31,1.88,1.88,0,0,1,.4,2.6,80.79,80.79,0,0,1-4.91,8.47c-8.41,11.53-14.45,24.5-22.2,36.41-4.8,7.37-10.48,14.18-15.63,21.33a125.56,125.56,0,0,1-21.76,23.77c-6.9,5.69-13.5,12-21.85,15.76C1704.16,889.33,1701.3,890.47,1698.13,890.32Z" transform="translate(-7.83 -105.71)"/><path class="cls-2" d="M1312.37,874.58a10,10,0,0,1-.47,2.47c-1.82,4.23-5,4.71-7.73,1-2-2.78-3.5-6-5.55-8.75a112,112,0,0,0-15.14-16.48,31.74,31.74,0,0,1-6.23-7.53c-1.14-2-1.37-4.13.21-5.9s3.59-1.39,5.39-.66c2.49,1,5.27,1.89,7.17,3.65,7.6,7,15.57,13.83,20,23.61A21.39,21.39,0,0,1,1312.37,874.58Z" transform="translate(-7.83 -105.71)"/><g class="cls-3"><path class="cls-4" d="M1631.92,913.24c-7-.11-14-.42-21.05,1-5,1-10.28.58-15.38-.07-9.63-1.23-19.23-2.7-28.82-4.21-5.27-.83-10.52-1.92-15.31-4.4a26.39,26.39,0,0,0-13.76-2.77c-12.87.56-25.43-1.73-37.85-4.74-3-.71-5.49-.79-8.18.75-4.77,2.71-10.18,3.08-15.46,3.66a19.12,19.12,0,0,0-9.91,3.91c-10.16,7.8-21.35,14-32.53,20.11a204.4,204.4,0,0,0-25.18,15.69A230.74,230.74,0,0,1,1374,963.38a139.67,139.67,0,0,0-16.87,9.58,33.7,33.7,0,0,1-22.23,5.77c-2.29-.16-4.52-.31-6.7.77-12.67,6.28-25.5,5.66-38.13.2-14.49-6.25-28.39-14.11-37.23-27.41-6.58-9.92-15-16.93-24.5-23.35-5.83-3.94-11.43-8.24-15.68-14-1.38-1.87-2.95-3.38-5.58-3.45-11.54-.34-22.53-3.62-33.56-6.56a76,76,0,0,0-23.14-2.68,85,85,0,0,1-18.22-1.14,26.84,26.84,0,0,0-6.82-.25c-19.49,1.85-34.59-6.38-46.07-21.23-7.91-10.23-16-20.32-23.66-30.79-9.76-13.42-17.84-27.93-27.24-41.57A225,225,0,0,1,1007,767.57c-4.79-11.24-5.49-22.5.46-33.6a9.24,9.24,0,0,0,.63-7.66,197,197,0,0,1-6.79-27.72A16.45,16.45,0,0,0,999,692.8c-6.89-11.68-10.24-24.44-12.07-37.8a105.78,105.78,0,0,1-.34-25.58c.4-3.89-.31-8-1-11.88-1.35-7.9-1.1-15.92-2.06-23.86-1.23-10.19-1.64-20.47-2.25-30.73a119.85,119.85,0,0,1,.53-22.24c1-8.31.3-16.75,1.46-25.08,1.29-9.23,1.87-18.56,3.9-27.69A41.31,41.31,0,0,1,1001.71,464a11.47,11.47,0,0,0,4.42-7.63c1.46-9.83,5.72-18.11,13.37-24.5a7.17,7.17,0,0,0,2.55-6.58c-.71-10.43-.91-20.91-2.92-31.22a118.62,118.62,0,0,1-2.37-24.95c.28-15-.85-30.1,2.18-45a9.69,9.69,0,0,0-.31-3.95c-3-13.45-3.83-27.14-4.38-40.83a68.94,68.94,0,0,0-2.66-17.42c-3.21-10.67-5.12-21.45-1.76-32.55A59.74,59.74,0,0,1,1022.12,207c6.54-7.46,13.16-14.85,22.6-18.86a13.7,13.7,0,0,1,2.61-1.16c9.8-1.91,18.59-6.57,27.8-10.1a33.09,33.09,0,0,1,11.12-2.38c5.16-.09,9.55-2.18,14.16-3.92,11.25-4.25,22.63-8,34.95-7.27,14.47.9,25.47,7.6,32.23,20.34a61.65,61.65,0,0,0,11.84,15.78c4.8,4.65,9.55,8.23,16.3,9.33a31.6,31.6,0,0,1,10.06,3.93c7.43,4.19,15.51,6,23.76,7.54a12.08,12.08,0,0,0,6.69-.22c10.79-4,21.39-2.79,31.67,1.74,9.24,4.08,18.31,8.56,26,15.25a17.54,17.54,0,0,0,5.46,3,153,153,0,0,1,32.26,17c5.37,3.7,10.12,8.11,13.31,13.91a7.93,7.93,0,0,0,4.72,3.77,153.42,153.42,0,0,0,27,7.24,21.27,21.27,0,0,0,10.69-.71,121,121,0,0,1,13.62-4.18,22.44,22.44,0,0,0,7.69-3.67c4.09-2.78,8.15-5.67,12.73-7.6a7.3,7.3,0,0,0,4.72-5.91,34.93,34.93,0,0,1,8.89-18.23,10.09,10.09,0,0,0,2.19-5.19,39.06,39.06,0,0,1,9.46-19.25,10.71,10.71,0,0,0,2.62-6.16c1.86-12.73,8.17-22.37,19.75-28.3a16.29,16.29,0,0,0,4.68-4.14,197,197,0,0,1,14.94-14.95,35.92,35.92,0,0,1,21-9.4,50.39,50.39,0,0,0,12.7-3c19.51-7.3,38.18,3,46.06,17.5,3.46,6.37,7.13,10.26,14.53,11.54,6.48,1.11,12.81,3.62,18.91,6.36,5.29,2.38,11,2.81,16.62,3.94,10.26,2.08,20.38,4.66,30.53,7.21,10.32,2.6,20.71,4.94,30.92,8,12.72,3.8,24.51,9.36,34.52,18.26a16.21,16.21,0,0,0,4.84,3c24.87,10,40.57,28.84,50.94,52.76a30.32,30.32,0,0,0,5.68,9.09,127.14,127.14,0,0,1,16.81,22.31c3.35,5.67,5.65,11.67,5.76,18.32a22,22,0,0,0,2.81,9.77c9.07,17.68,15.38,36.5,22.68,54.91,2.43,6.14,2.61,12.69,1.72,19.17a13.07,13.07,0,0,0,2.17,9.13c3.57,5.79,8.59,10.16,13.38,14.79a38.37,38.37,0,0,1,11.33,19.46,3.81,3.81,0,0,1,.26,1.1c-.88,7.82,3.72,13.37,7.32,19.62a58.35,58.35,0,0,0,10.33,13.25c18.47,17.84,11.49,48.63-12.83,57.17-4.5,1.58-8.89,3.17-12.94,5.84-6.82,4.5-10.46,10.93-12.09,18.63-1,4.84-1.3,9.83-2.39,14.65-1.44,6.41.36,12.46,1.39,18.62a91.61,91.61,0,0,1-.93,34.61c-2,9.14-4.5,18.12-7.22,27-4.73,15.53-6.62,31.66-10.06,47.46-4.16,19.07-10.37,37.41-17.56,55.47-3.33,8.37-4.74,17.23-6.73,25.94-2.59,11.34-6.48,21.89-15.4,30-4.9,4.43-10.24,8-16.77,9.32-3.31.67-5.32,2.49-7,5.22a105.29,105.29,0,0,1-16.32,19.78c-7.16,7-15.64,10.76-25.65,10.78-5.94,0-11.12,1.13-15,6.33-2.88,3.83-7.17,6.24-11.5,8.26a10.4,10.4,0,0,0-5.31,5.64c-6.12,14-17.36,20.64-32.19,21.73C1639.94,913.49,1635.92,913.24,1631.92,913.24Z" transform="translate(-7.83 -105.71)"/></g><path d="M961.54,597.43c-.53-17.16-1.29-34.32-1.51-51.49a262.11,262.11,0,0,1,1.09-28.3,105.58,105.58,0,0,1,17.35-49.17q6.22-9.39,12.86-18.54a46.43,46.43,0,0,0,9.18-25.79c.45-10.59,1-21.21.74-31.8-.63-24.68-1.43-49.37-2.72-74-1-19.84-2.93-39.63-4.36-59.44-.46-6.54-.88-13.1-.92-19.65-.14-20.69,7.52-37.9,23.26-51.48a150.15,150.15,0,0,1,31.37-20.58,249.9,249.9,0,0,1,70.73-22.93,84.79,84.79,0,0,1,25.35-.59c10.72,1.44,19.29,6.29,25.65,15.07,3.4,4.68,6.8,9.38,10.47,13.84a53.85,53.85,0,0,0,23.39,16.29c36.13,13.55,72.79,25.5,109.51,37.31,7.7,2.48,15.25,5.44,22.81,8.35a37.8,37.8,0,0,1,18.06,14.76,109.76,109.76,0,0,0,10.77,13.56c7.27,7.8,16.18,10.8,26.77,8,6.9-1.82,13.85-3.43,20.75-5.21,5.11-1.32,8.06-4.59,9.64-9.73,8.76-28.56,21.9-55.15,37.15-80.73a138.41,138.41,0,0,1,20.27-25.93,41.35,41.35,0,0,1,25.9-12.81,129.42,129.42,0,0,0,21.46-4.28c7.55-2.1,15.56-2.63,23.41-3.45,4.7-.49,8.66,1.74,11.75,5.2a49.74,49.74,0,0,1,5.58,7.37c6.66,11.06,17.16,17.12,28.71,21.22,8.5,3,17.5,4.66,26.33,6.65,12,2.71,24.17,5,36.21,7.74a265.67,265.67,0,0,1,92.26,40.2,156,156,0,0,1,32.44,30.25c19.18,23.33,32.92,49.74,45.5,77,9.36,20.26,17,40.89,20.33,63.09a131.69,131.69,0,0,0,20.82,53.51c7,10.64,13.89,21.34,20.51,32.22,4.3,7.07,8.22,14.4,12,21.79a71.94,71.94,0,0,1,7.21,23.11c1.69,12.7-1.79,23.78-11.15,32.6-4,3.8-8.74,6.93-13.29,10.17-3.77,2.68-7.78,5-11.63,7.58a23.19,23.19,0,0,0-10.72,17.1c-.93,7.84-1.57,15.73-2.08,23.61-.53,8.28-.53,16.59-1.18,24.85a163.91,163.91,0,0,1-9.66,44.55,386,386,0,0,0-15.8,55.61c-1.62,7.73-3.79,15.35-5.94,23A99.67,99.67,0,0,1,1813,788.72c-5.9,8.12-10,16.83-11,26.95a39.44,39.44,0,0,1-10.9,23.2,143.7,143.7,0,0,0-21.17,29.53,51.19,51.19,0,0,1-28.14,23.75c-7.23,2.61-14.74,4.47-22.16,6.55-6.86,1.92-13.8,3.59-20.64,5.57a18.29,18.29,0,0,0-10.81,8.25c-7.33,12.23-18.55,18.53-32,22a162,162,0,0,1-67.14,2.73c-16.55-2.71-33.1-5.61-49.46-9.24-20.09-4.46-39.32-3.31-58.21,5.25a364.28,364.28,0,0,0-41.81,22.35c-20.32,12.61-40.78,25-62.15,35.78-23.29,11.76-47.77,17.06-73.89,14.58-21.81-2.07-38.68-11.5-51.7-29.74-15.14-21.19-35.72-35.66-62-40.26a258.91,258.91,0,0,0-31.62-3c-14.83-.74-29.73-.37-44.39-3.15a161.05,161.05,0,0,1-19.6-4.94c-14.74-4.8-26.31-13.88-33.41-27.75-12.16-23.74-26.6-46.09-40.64-68.7a171.91,171.91,0,0,1-22.73-59.08c-1.12-5.87-2.33-11.73-3.36-17.62a110.84,110.84,0,0,0-13.79-37.24c-2.25-3.83-4.37-7.73-6.5-11.62a72.73,72.73,0,0,1-9.23-32q-1.71-36.71-3.35-73.41Zm26-1.65h-.25c.78,20.24,2,40.47,2.21,60.71a84.85,84.85,0,0,0,13.63,45.86c8.34,13.14,13.38,27.75,16.19,43.1,1.11,6.07,2.33,12.12,3.46,18.19a155.41,155.41,0,0,0,21.56,54.55c11.34,18.14,23.48,35.82,33.05,55,2,4,4.2,7.81,6.35,11.69A30.6,30.6,0,0,0,1101,899.57a86.64,86.64,0,0,0,16.16,4.3c9.34,1.27,18.78,2.09,28.2,2.45,15.42.58,30.84.8,46.12,3.35,35,5.86,61.93,24.62,82.55,52.79,7.1,9.71,16,15.42,27.64,17,16.92,2.33,33.56,1,49.51-5.27a186.78,186.78,0,0,0,23.56-11c18.28-10.35,36.32-21.15,54.39-31.88a399.73,399.73,0,0,1,44.08-23c23.19-10.11,46.9-11.19,71.38-5.91,16.57,3.57,33.3,6.49,50,9.24a134,134,0,0,0,54-2.17c8.1-2,14.45-5.76,18.9-13a37.67,37.67,0,0,1,20.63-16c7.29-2.48,14.78-4.36,22.2-6.41,6.14-1.69,12.35-3.07,18.45-4.86a32,32,0,0,0,20-16.37,125.31,125.31,0,0,1,21.2-29.5,20.44,20.44,0,0,0,6.17-12.19c1.46-14.27,7.48-26.57,15.77-38a73.92,73.92,0,0,0,11.12-23.42c1.74-6.12,3.6-12.23,4.88-18.45a437,437,0,0,1,17.91-63.42,137.59,137.59,0,0,0,7.84-38.44c.48-7.12.39-14.28.9-21.39.68-9.42,1.25-18.88,2.67-28.2,2-13.39,8.89-24.12,20-32,3.77-2.67,7.71-5.11,11.57-7.67,2.73-1.81,5.47-3.6,8.16-5.47,6-4.15,8-9.85,5.91-16.71a80,80,0,0,0-5.26-14c-4.18-8-8.8-15.85-13.53-23.57-6.55-10.69-13.39-21.19-20.09-31.8a145.45,145.45,0,0,1-19.65-51c-1-5.12-2.05-10.22-3-15.34a134.17,134.17,0,0,0-10.79-34.11c-6.71-14.32-13.26-28.73-20.27-42.9a209.58,209.58,0,0,0-36.32-51.31c-18.6-19.53-41.23-33.43-66.5-43-17.07-6.46-34.82-9.87-52.75-12.78-16.94-2.76-33.78-6.1-50.11-11.59-12.44-4.19-22.68-11.16-29.92-22.44-5.16-8-11.22-10.31-20.46-6.95a85.34,85.34,0,0,1-23.7,4.68,19.88,19.88,0,0,0-14.57,7.31c-4.53,5.51-9.42,10.82-13.18,16.82-15.32,24.44-28,50.22-36.35,77.88-4,13.33-12,22.24-25.35,26.09-8.14,2.36-16.4,4.33-24.65,6.31-19.31,4.62-35.92-.63-49.74-14.53a144.51,144.51,0,0,1-13.17-16.07,22.74,22.74,0,0,0-10.7-8.45c-5.8-2.09-11.56-4.31-17.44-6.19-37.66-12-75.21-24.36-112.23-38.27-10.54-4-20-9.29-27.47-17.58-5.43-6-10.52-12.3-15.33-18.79-3.52-4.75-7.82-7.36-13.67-7.23a102.6,102.6,0,0,0-13.83.77,220.2,220.2,0,0,0-62.57,20,131.17,131.17,0,0,0-26.23,16.84c-10.37,8.62-15.19,19.67-15,33,.05,4.24.25,8.49.61,12.71,2.47,28.63,5,57.25,5.69,86,.53,23.91,1.75,47.8,2.16,71.71.24,14.36-1.36,28.61-8.35,41.54-4.3,7.94-8.7,15.94-14,23.18-13.12,17.76-19.31,37.56-19.27,59.47,0,5.79,0,11.58.15,17.36C986.53,566.48,987.07,581.13,987.57,595.78Z" transform="translate(-7.83 -105.71)"/><path d="M1271.88,827.75a68.85,68.85,0,0,0-7.79-19.65,58.68,58.68,0,0,1-7.62-25.25,42.09,42.09,0,0,1-.07-6.92c.2-2.28.83-4.52,1.44-7.59a21,21,0,0,1,2.94,3.19,39.85,39.85,0,0,1,3.56,7.24c3.81,12,9.17,23.28,14.65,34.57,5.37,11.09,13.67,19.46,23,27.06a113.85,113.85,0,0,0,9.53,6.54,15.25,15.25,0,0,1,7,9.61,119.3,119.3,0,0,1,2.36,15.93c.16,2.33-.87,4.9-1.89,7.12a5.56,5.56,0,0,1-5.72,3.18,5.73,5.73,0,0,1-5.23-3.95,22.74,22.74,0,0,1-1.1-5.63c-.25-2.68-.24-5.39-.35-8.09-.16-4-2.09-6.64-5.21-9.12-10.08-8-22-12.6-33.08-18.82s-22.42-12-33.81-17.62a152,152,0,0,0-17.66-7.15,16.19,16.19,0,0,0-16.35,2.87c-6,5-12.88,6.67-20.42,6.7-9.06,0-18.12.14-27.17.22a19.92,19.92,0,0,1-2.32,0c-2.09-.25-4.54-.22-5.26-2.7a5,5,0,0,1,2.58-5.93,22.33,22.33,0,0,1,8.6-2.9,169.45,169.45,0,0,1,17.3.32c3.84.17,7.67.67,11.51,1a20.58,20.58,0,0,0,12.69-3,22.78,22.78,0,0,1,19.48-2.46c8.43,2.73,16.81,5.64,25,9,8.75,3.52,17.28,7.61,25.92,11.42A28.61,28.61,0,0,0,1271.88,827.75Z" transform="translate(-7.83 -105.71)"/><path d="M1277.35,339.61c-3.08-.91-6.86-1.71-10.4-3.13-8-3.23-16-6.49-24.73-7.7-3.59-.49-7.28-2.67-10.2-5a68.23,68.23,0,0,0-14.94-8.61,160.74,160.74,0,0,1-18.52-9.38,60,60,0,0,1-20.21-21.08c-2.95-5-3-5-8.7-2.89-3.8,1.38-7.63,2.71-11.5,3.87-4.1,1.23-7.8,2.79-10.9,6.08-3.67,3.9-8.56,2.38-10.26-2.73a10.18,10.18,0,0,1,3.69-11.35,32.57,32.57,0,0,1,8.21-4.06c6.53-2.33,13.16-4.34,19.74-6.52,9.65-3.2,14.91-1.45,19.93,7.22a61.48,61.48,0,0,0,28,25.8c8,3.66,15.2,8.13,21.3,14.58a16.61,16.61,0,0,0,8.52,4.34c7.09,1.36,13.63,3.95,20.21,6.77,5.27,2.26,10.86,3.76,16.25,5.77,1.48.55,3.64,1.46,3.93,2.6.6,2.38-1.46,3.82-3.59,4.48A44.52,44.52,0,0,1,1277.35,339.61Z" transform="translate(-7.83 -105.71)"/><path d="M1096.41,619.78c-1.07,9.29.27,18.55,2.59,27.8,3.11,12.38-1.84,18.24-13.75,24.67a7.79,7.79,0,0,1-10.93-4.48c-1.71-4.64.75-8.82,6.15-10.42,4.75-1.41,5.27-1.81,3.55-6.36-4.25-11.26-4.07-22.73-1.88-34.21a49,49,0,0,0-1.61-24.5,103,103,0,0,1-3.38-13.45c-2.56-14.83,2-27.39,12.77-37.74a27.78,27.78,0,0,1,14.81-7.34,17.13,17.13,0,0,1,5.15-.17,5.77,5.77,0,0,1,5.25,4.68,5.49,5.49,0,0,1-3,6.33,69.07,69.07,0,0,1-6.83,3.12c-14.45,6.1-20,17.67-15.69,32.71.48,1.67,1.08,3.31,1.5,5,1.47,5.79,3.3,11.53,4.22,17.41C1096.23,608.3,1096.09,614,1096.41,619.78Z" transform="translate(-7.83 -105.71)"/><path d="M1657.73,717.49c.49-2.17.6-4,1.27-5.48,4.09-9.35,8.17-18.7,12.5-27.93,5.54-11.85,16-16,28.09-17.41,12.67-1.43,12.71-1.31,15.94-13.25a61.75,61.75,0,0,1,11.72-23c.85-1,1.71-2.08,2.55-3.14,5.87-7.45,5.32-14.32-1.69-20.85-1-.92-2.36-1.56-3-2.65s-1.52-3.16-1-4.08a5.8,5.8,0,0,1,4-2.47,9.46,9.46,0,0,1,4.87,1.45c10.58,5.79,15,21.2,8,31.07-7.14,10.09-10.83,21.09-12.65,33.1-1.56,10.28-8.94,16.51-20.9,18.51-4.17.7-8.33,1.52-12.51,2.2a12.3,12.3,0,0,0-9.32,7c-1.68,3.26-3.18,6.63-5.11,9.73a126.6,126.6,0,0,1-9.09,13.32C1668.15,717.54,1663.69,719.15,1657.73,717.49Z" transform="translate(-7.83 -105.71)"/><path d="M1606.18,452.26c-3.67.87-7.31,1.94-11,2.58-5.5,1-11.06,1.57-16.59,2.39-13,1.9-25.38.47-36.87-6.31a27.88,27.88,0,0,1-12.89-15.76c-1.19-3.66-2.3-7.36-3.38-11.07-1.8-6.2-5.3-11.32-10.93-14.37a135.66,135.66,0,0,0-19.36-8.86c-6.15-2.15-12.74-3.06-19.1-4.62a108,108,0,0,1-11.68-3.27c-10.49-3.86-15.59-12.54-14.2-23.63.36-2.87.63-5.75,1-8.62.56-4.85.49-9.6-1.25-14.27-.39-1.05.2-2.47.34-3.71,1.4.24,3.25,0,4.1.82a12,12,0,0,1,3.33,5.26,85.29,85.29,0,0,1,2.16,11.9c.47,3.82.47,7.7.84,11.53a10.58,10.58,0,0,0,7.33,9.53c4,1.44,8,2.69,12.09,3.94,11.26,3.46,22.38,7.19,32.74,13s18,13.74,21.55,25.3c.17.55.48,1.07.61,1.63,2.82,11.35,10.87,17.21,21.65,19.05,8.3,1.42,16.84,1.49,25.29,1.93,4.81.26,9.64-.06,14.45.13a14.23,14.23,0,0,1,9.84,3.86C1606.19,451.14,1606.18,451.7,1606.18,452.26Z" transform="translate(-7.83 -105.71)"/><path d="M1497.17,593.43a12.66,12.66,0,0,0,.51-2.65c-.94-8.3,1.48-15.16,8.31-20.32a13.08,13.08,0,0,0,3.28-4c.5-.89.85-2.53.37-3.21-3.3-4.76-5.07-10.82-11.89-12.53-7.46-1.86-14.7-4.67-22.57-4.33-1.84.08-3.57-.09-4.23-2.14a3.69,3.69,0,0,1,2.23-4.77c2.44-1,5.27-2,7.72-1.64,8.35,1.25,16.66,2.92,24.89,4.81a16.78,16.78,0,0,1,10.09,7.29,54.41,54.41,0,0,0,4.62,5.14c4,4.43,4.88,9.23,1.77,14.31a37,37,0,0,1-8.2,9.54c-4.07,3.25-5.68,6.72-5,11.93,1.18,8.91-3.29,13.5-12.18,13.25-3.8-.1-7.61-.13-11.42-.29-2.76-.12-4-2.09-4.65-4.42-.68-2.53.17-4.91,2.56-5.79a22.66,22.66,0,0,1,7.28-1A50,50,0,0,1,1497.17,593.43Z" transform="translate(-7.83 -105.71)"/><path d="M1634.22,455.14c-1.73-2-2.79-3.29-4-4.49-2.81-2.79-3.22-6.09-1.9-9.6,1.22-3.24,2.8-6.35,4.14-9.55,5.5-13.06,6.12-26.1,0-39.21a46.09,46.09,0,0,0-12.88-16.12,135.34,135.34,0,0,0-12.29-8.62c-3.06-2-6.26-3.81-9.49-5.54-10.15-5.44-14.75-14-13.47-25.28.65-5.69,2.24-11.29,3.66-16.86a16.4,16.4,0,0,1,2.7-5.08c1.06-1.52,2.4-3.71,4.51-2.18.77.56.69,3.26.11,4.58a49,49,0,0,0-4.52,21.3c.18,7,2.87,12.2,8.91,15.77,8.13,4.8,16.26,9.57,23,16.38a114.06,114.06,0,0,1,16.55,20.69c7.76,12.65,7.9,25.92,4.46,39.62-1.69,6.7-3.88,13.29-6.1,19.84C1637.09,452.32,1635.54,453.5,1634.22,455.14Z" transform="translate(-7.83 -105.71)"/><path d="M1499.24,814.27c0-1.81,0-3.63,0-5.45.08-4.62.32-9.24.22-13.86a22.65,22.65,0,0,0-1.15-6.79c-1.1-3.17-3.53-4.4-6.37-2.69-6.68,4-11.94,1.59-17.46-2.45a92.67,92.67,0,0,0-13.75-8.3c-3.93-1.94-7.9-1.55-10.72,2.53a4.61,4.61,0,0,1-1.22,1.23c-6.41,4-13.33,7.48-17.24,14.54-.28.5-1.34.58-2.12.89-.43-.52-1.11-1-1.08-1.35.62-6.72,2.36-12.77,8.75-16.58a44.39,44.39,0,0,0,8.53-6.75,12.83,12.83,0,0,1,12.08-3.88c5.56,1,10.81,2.81,15.35,6.32,2.13,1.65,4.33,3.23,6.39,5a8.82,8.82,0,0,0,9,1.81c9.25-2.72,15.38,1.39,17.07,10.95,1.19,6.72,1.26,13.46-1,20-.69,2-2.11,3.73-3.19,5.58Z" transform="translate(-7.83 -105.71)"/><path d="M1264.87,538.21a9,9,0,0,0,2.68-8.66c-.72-3.08-.86-5.83,2.06-7.7s5.5-.71,7.81,1.45a5.86,5.86,0,0,0,1.47.76c8.82-4,13.07-11.86,11.46-21a50.66,50.66,0,0,1-1.1-8c-.08-5.49,2.26-8.38,8.75-10.81-.64,1.62-.8,2.94-1.53,3.7-2.76,2.86-3,6.1-1.93,9.66.22.74.37,1.5.55,2.25,3.13,12.84-.48,22.69-11.57,30-4.42,2.9-8.55,5.5-10.15,11.1-.6,2.08-3,4-5.09,5.23-4.19,2.56-8.48,1.35-10.78-3a33.17,33.17,0,0,1-2.45-7.65c-1.37-5.59-2.45-11.26-3.9-16.83-1.21-4.67-.8-7.37,1.68-8.07s4.53.87,5.83,5.19c1.59,5.32,2.56,10.82,3.73,16.26.43,2,.65,4,1,6Z" transform="translate(-7.83 -105.71)"/><path d="M1729.38,317c-1.38,1-2,1.84-2.84,2-11.72,2.41-23,1.7-33.06-5.53a12.13,12.13,0,0,1-5.45-9.11,73.55,73.55,0,0,0-6-23.91c-2.61-5.94.46-11.35,4.44-15.75a20.71,20.71,0,0,1,7.19-4.64c4.14-1.76,6.28-.41,8.13,4.92-2,1.18-4.13,2.38-6.2,3.68-4.51,2.8-6.3,6.65-5.36,11.67,1.36,7.35,2.9,14.68,4.15,22.06a9.1,9.1,0,0,0,5.22,7.09c5.72,2.86,11.52,5.18,18.18,4.63C1721.52,313.77,1725.47,313.56,1729.38,317Z" transform="translate(-7.83 -105.71)"/></g><g id="Layer_4" data-name="Layer 4"><path class="cls-5" d="M885.19,688.36a3.62,3.62,0,0,1-1.5,2.34c-12.29,10.39-22.13,23.19-33.85,34.14a74.31,74.31,0,0,0-7.6,8.54c-10.36,13.31-23.57,23.28-37.6,32.28-9.48,6.09-19,12.06-27.9,19a15.36,15.36,0,0,0-5.71,8.84c-3.28,12.56-7,25-12.66,36.75-4.42,9.26-11.52,15.64-21.79,17.8-5.2,1.1-8.43,3.68-9.59,9.14-1.24,5.85-4.17,11-7.73,15.84-1.17,1.59-3.15,3-2.36,5.49-.09,2.24-1.6,3.76-2.67,5.54-2.08,3.46-6,4.62-8.61,7.34-8.23,8.5-17.77,15.51-26.81,23.08-9.31,7.8-19.17,15-28.88,22.28-14,10.55-28.3,20.71-44.94,26.89-8.4,3.11-16.77,6.09-26,5.57-7.62-.43-15.28-.1-22.92-.09a61.55,61.55,0,0,0-27.52,6.39,156.63,156.63,0,0,1-32.12,11.79c-10.72,2.62-21.56,4.26-32.62,2.44a41.48,41.48,0,0,1-11.5-3.23c-5.14-2.48-10.15-5.24-15.35-7.57-7.89-3.51-15.23-8.88-24.59-7.74-.94-3.15-3.72-3.62-6.31-4.08-6.57-1.18-13.18-2.19-19.77-3.25a130.52,130.52,0,0,1-46.73-16.52,171.11,171.11,0,0,0-20.62-10c-13.43-5.75-25.56-13.6-36.95-22.66a7.41,7.41,0,0,1,5.59-.15,6.12,6.12,0,0,0,7.64-2.15c1.6-2.12.47-5-2.68-7.91-.28-.26-.54-.54-.83-.79-10-8.64-21.62-14-34.34-17.42-10-2.71-20.17-3.58-30.21-5.57-9.88-2-19.92-2.8-29.77-4.71-7.06-1.36-14.29-2-21.14-4.5-17.81-6.6-32.47-18.19-47.23-29.63-7.51-5.82-14.68-12.09-22.27-17.8-12.62-9.49-23.65-20.31-31.21-34.4C73,785,71,780.1,68.58,775.35c-.5-1-1-2.3-2.45-1.88s-.89,1.86-1,2.93c-.19,1.62,2.16,3.75-1,4.78a2.46,2.46,0,0,1-1.26-1.8c-2.51-11.57-5.28-23.1-5.8-35-.43-9.62,1.15-19.09,2.85-28.48,2.35-13,4.39-26,3.88-39.27-.53-13.78,5.22-25.74,11.49-37.38,5.19-9.63,10.34-19.12,11.83-30.21a58.38,58.38,0,0,1,3-10.47,85.53,85.53,0,0,0,3-41.27c-1.94-12.15-4.61-24-9.34-35.38-1.61-3.87-3.84-6.21-8.33-6.63a33.12,33.12,0,0,1-22-11.15A76.89,76.89,0,0,0,43,494.44c-9.45-7.15-13.41-17.12-14.8-28.66-1.27-10.62.57-20.95,1.72-31.37a38.6,38.6,0,0,0-.15-10.24c-1.44-9.52.27-18.66,4.09-27.43,1.84-4.2,3.61-8.45,5.73-12.51a103,103,0,0,0,9.59-26.3,50.67,50.67,0,0,1,3.61-10.26c10.47-23.2,22.2-45.74,36.9-66.57a114.75,114.75,0,0,1,38.91-34.93,59.45,59.45,0,0,0,6.34-3.89c2.3-1.68,4.51-3.54,5.24-6.53.75.08,1.72-.11,2.2.29,2.52,2.09,5.07,1.86,8,.9,5.59-1.84,11.46-2.92,16.94-5,17.32-6.67,35.57-7.52,53.71-8.83,13.51-1,27,.56,40.52,1.09,1.13,0,2.23.45,3.36.59,6.62.83,12.86,3.27,19.36,4.65a9.39,9.39,0,0,0,9.36-2.64c3.12-3.1,2.71-6.61-1.32-8.11a68.5,68.5,0,0,0-12-3.73c-8-1.41-16-3.11-24.05-4.4-8.61-1.37-17.25-3.12-25.92-3.4-11.2-.37-22.45-1-33.67.8-12,2-24,4-35.31,8.68-2,.85-4.13,2.15-6.56,1.25,1.13-2.07,3.34-2.48,5.25-3.18,19.35-7.14,39.28-11.38,60-11.06,9.77.15,19.4,2,29,3.59,16.39,2.69,33,4.23,49.1,8.63,4.1,1.12,5.05.47,7.07-3.72,3.31-6.89,6.39-13.91,10.51-20.39,3.6-5.67,7.59-11,13-15.18a36.06,36.06,0,0,0,9.83-12.5c6.76-13.26,16.11-24.13,29.71-30.84,6.28-3.1,12.84-5,19.9-4.51a44.15,44.15,0,0,0,15.28-1.15c.19,2.68-2,3.07-3.73,3.53-6.2,1.64-11.42,5.15-16.74,8.51-14.74,9.32-26.92,21.73-39.87,33.2-7.44,6.58-13.86,14.18-20.41,21.62a69.9,69.9,0,0,0-7.58,10.7c-2.17,3.7-1.38,9.35,1,11.15,2.56,1.92,8.1,1.44,11.15-1.43,5-4.72,10.14-9.39,14.52-14.66a234.14,234.14,0,0,1,31-30.4,167.71,167.71,0,0,1,38.64-24.18c11.93-5.33,24.06-9.48,37.43-8.77,7,.37,13.93-2.17,20.94,0,1,.3,2.25-.16,3.37-.36,2.85-.51,4.32-2.14,4-5.14,7.05-.38,14.09-.49,21.14-1.09A41.54,41.54,0,0,1,519,134.08c4.5,2,8.87,3,13.83,1.79,3.8-1,8,.27,11.64-2,.82,6.29,1.15,6.56,7,7.67,8.19,1.55,16.47,2.49,24.59,4.51,13.65,3.41,27.24,6.74,39.71,13.67a106,106,0,0,1,22.86,16.89c5.11,5,9.15,11.12,13.2,17.11,7.63,11.3,12.92,23.71,17.56,36.44A166.13,166.13,0,0,0,679.23,252a38.75,38.75,0,0,0,4.39,6c1.85,2.25,4.44,2.13,6.86,1.48,2.66-.72,2.23-3.16,2.35-5.24.1-1.8-.63-3.94,1.72-5,3.36,9.77,9.55,18.2,13.16,27.87,1.22,3.26,4.33,4.12,7.42,4.61,5.88.94,11.8,2.07,17,4.92,9.4,5.15,18.79,10.07,29.58,11.64a17.11,17.11,0,0,1,4.79,1.88A70.06,70.06,0,0,0,790,306.85c17.33,1.86,29.39,11.43,36,27.3,5.21,12.5,10,25.23,12.54,38.64a128.9,128.9,0,0,1,2,26.82,28.86,28.86,0,0,0,1.4,10.74c4.71,12.94,8.2,26.26,12.18,39.42,2.22,7.33,5.71,13.64,11.48,18.78A41.41,41.41,0,0,1,879,492.6,25.52,25.52,0,0,0,883.6,503a57,57,0,0,1,7.76,16.51c2.15,6.93,4.62,13.77,7.26,20.54a112,112,0,0,1,7.24,31.15c.21,2.46.71,4.9,1.07,7.35-4.8,0-6.7,3.18-7.33,7.23a33.62,33.62,0,0,0,0,11.41c2,10.28,1,20.49-.76,30.6A129.79,129.79,0,0,1,879,678.31a28.09,28.09,0,0,0-4.2,9.36c-.56,2.52.9,4,3.42,3.57a5.29,5.29,0,0,0,2.86-1.76C882.24,688.32,883.54,687.7,885.19,688.36ZM636.49,686c1.18-5-2.79-7.34-5.86-10.1-1.13-1-2.48-.57-3.65.39-2.08,1.7-2.24,3.89-1.58,6.23.36,1.28,1.27,2.64.3,3.81-4,4.83-6.79,10.82-12.05,14.42-5.06,3.46-8.27,8.3-11.91,12.94a9.48,9.48,0,0,0-1.64,8.64,89.32,89.32,0,0,0,3.44,9.69,9.11,9.11,0,0,0,4.57,4.86c4.79,2.61,9.62,4.19,15.25,3.9,6-.32,11.48,1.15,15.72,6.26,2.82,3.39,5.73,6.65,7.68,10.61,1.29,2.6,3.4,2.92,5.78,2.31s2.41-2.67,2.38-4.63c0-1.51.16-3.06-.82-4.42-1.9-2.63-2.36-6-4.54-8.55a6.29,6.29,0,0,1-1.22-6.49c1.06-2.55.56-4.81-.21-7.21-1.4-4.35-2.57-8.78-4.12-13.07-.83-2.3-1.7-4.86-3.93-6.21-6.72-4-6.52-10-4.94-16.52C635.67,690.68,636.89,688.61,636.49,686ZM807.3,644.18l.27,0c0,1.92-.13,3.84,0,5.74.2,2.33,2.79,5.55,4.4,5.39a4.9,4.9,0,0,0,4.34-4c.65-5.07,3.79-5.59,8-6.13,8.92-1.15,10.43-3,12-11.6a7.81,7.81,0,0,1,.44-1.66c4.66-11.08,3.25-22.48,1-33.66-2.29-11.57-9.75-20.37-17.32-29-2.87-3.27-6.23-3.35-9.88-2.93a4.43,4.43,0,0,0-4.08,4.16,13.08,13.08,0,0,0,.52,6.22c1,2.67,1.81,5.42,2.75,8.13,1.09,3.12,1.77,6.2.5,9.48a13.28,13.28,0,0,0-.35,6.82c1.06,7-.49,14-.12,21a26.87,26.87,0,0,1-.4,4.54C808.71,632.5,808,638.34,807.3,644.18ZM723.88,400.93c1.7,0,2.47,0,3.23,0,4.44-.15,9.31,1.24,12.27-3.92.65-1.13,2.53-.86,3.8-.63,8.3,1.5,13.46-4.15,19.21-8.38,1.94-1.43,2-3.72,1.18-5.77s-2.73-3.66-5-3c-4.45,1.34-9.12.42-13.53,1.8a62.5,62.5,0,0,1-18.55,2.72c-5.31,0-10.68-.75-15.93.94a4,4,0,0,1-4.31-.86c-3.13-3.68-7.45-4.07-11.78-4.91-3.89-.75-8-1.33-11.38-3.6-4.09-2.76-7-6.57-7.5-11.65-.39-3.84-2.92-5.7-6-6.92-2.59-1-3.52,1.7-5,3-1.9,1.59-3.51,3.53-5.42,5.11-3.86,3.18-4.22,3.8-.62,6.91,6.94,6,13.12,12.8,20,18.77,6.11,5.26,13.14,9.2,21.84,8.15a12.2,12.2,0,0,1,4,.25C711.16,400.34,717.92,401.27,723.88,400.93ZM424.24,245.41c0-2.32-.9-3.83-3.25-4-1.52-.11-3.23-.4-4.54.14-5.95,2.47-12.22,4.06-17.47,8.27-5.77,4.62-11.2,10.09-18.29,12.55-6.32,2.18-12.33,5-18.52,7.43A60.84,60.84,0,0,0,348,278.23c-5.71,4.31-5,9.14,1.49,12.21a17,17,0,0,0,4.93,1.36c4.14.56,8.41.51,12.42,1.52,3.44.87,5.81-.25,7.38-2.74,2-3.12,4.49-4.31,8-4.52,5.44-.32,10.4-1.86,13.83-6.64,2-2.72,5-4.13,7.9-5.51,2.59-1.22,4.54-2.89,4.27-6.1-.15-1.82.65-3.23,1.61-4.74,3.18-5.05,6.64-9.77,11.8-13C423.3,249,424.44,247.5,424.24,245.41ZM203.94,808.79c.19,5.5,6.09,11,11.71,11.07,3.86,0,7.62.18,11.2,1.76a5.14,5.14,0,0,0,5-.19c7-4.27,13.92-2.54,20.78.46,1.57.69,3.06,1.55,4.89,1.46,3.25-.17,4.84-2.76,3.16-5.53a9.68,9.68,0,0,0-2.76-2.87c-4.4-3-8.71-6-14.23-6.94s-10.64-2.89-15.94-4.46a11.84,11.84,0,0,1-4.78-3c-3.33-3.18-5.65-7.22-8.63-10.56-6.44-7.22-9.62-16.33-15.29-24-4.21-5.69-5.28-13-5.43-20.14-.05-2.63-1.31-4.47-3.87-5-2.71-.52-4.29,1.17-5.18,3.51a15.2,15.2,0,0,0-.71,10.07A135.94,135.94,0,0,0,202.64,794c2.74,3.91,5,7.76,1.81,12.54A5.66,5.66,0,0,0,203.94,808.79ZM119,450.78c.12-5.44-1.05-9.38-3.74-12.81a8.57,8.57,0,0,1-1.87-2.83c-2.91-9.69-4.93-19.54-4.65-29.7a64.78,64.78,0,0,1,2-12.9,6.65,6.65,0,0,0-2.57-7.12c-1.87-1.4-5.67-.61-7.83,1.43a12.34,12.34,0,0,0-3,3.44c-2.35,5.33-6.55,10-6,16.41a3.12,3.12,0,0,1-.66,2.13c-2.36,2.68-1.44,5.25,0,7.91a17,17,0,0,1,2,12,4,4,0,0,0,.56,3.31c2.35,3.14,3,6.92,4.15,10.52a9,9,0,0,0,3.85,4.75,89.5,89.5,0,0,1,11,8.2c2.61,2.4,5.54,1.51,6.5-1.85A10.12,10.12,0,0,0,119,450.78ZM599.4,323.5c-.23-.73-.46-1.46-.68-2.19a56.8,56.8,0,0,0-9.51-18.77c-5.44-7.08-10.83-14.21-16.6-21-3.56-4.2-7.33-8.32-11.93-11.48-1.41-1-3.14-1.77-4.65-.09a3.58,3.58,0,0,0-.14,4.74c1.19,1.75,2.57,3.44,2.57,5.64,0,3.06,1.61,5.44,3,7.93.54,1,1.44,1.78,1.59,3,1.05,8.45,6.21,13.58,13.69,16.75a10.31,10.31,0,0,1,4.25,3.69c1.13,1.53,2,3.28,3.12,4.79,3.3,4.3,7,8.07,12.84,8.56C598.08,325.15,599.3,325.17,599.4,323.5ZM187.87,612.12c.09,4.22,1.3,4.94,5,3.3a12.9,12.9,0,0,0,6.09-5.75c3.6-6.23,6-12.6,5.07-20-.47-4,.3-8.07-.16-12-1-8.43,2.6-15.71,5.67-23,1.34-3.19,2.05-6.5,3.23-9.69a1.78,1.78,0,0,0-.74-2.46,2,2,0,0,0-2.56.68c-2.79,4.05-6.34,7.48-8,12.4-2.91,8.68-4.23,17.79-7.58,26.33a35.48,35.48,0,0,0-2.59,16.23,14,14,0,0,1-1.93,8.79A8.18,8.18,0,0,0,187.87,612.12ZM430.1,813.05a4.82,4.82,0,0,0-5.26,2.62,5.16,5.16,0,0,0,1,6.33,29,29,0,0,1,2.79,2.87c3.59,4.82,8.47,8.67,9.88,15.07.72,3.27.58,6.44.67,9.65.07,2.13.13,4.2,1.29,6.07s2.51,3.49,5,3.18c2.12-.27,3.29-1.73,4-3.63a16.73,16.73,0,0,0,.78-10.65,9.91,9.91,0,0,1-.19-6.16c1.43-4.14.26-7.85-2-11.38A40.51,40.51,0,0,0,435,814.43,7.55,7.55,0,0,0,430.1,813.05ZM430,739.57a12.28,12.28,0,0,0-.36-2.72,42.79,42.79,0,0,0-9.35-16.77c-2.32-2.49-5-4.64-6.87-7.6-1.24-1.93-2.72-4.66-5.8-3.43s-3.05,4.06-2.85,6.82c.05.75.17,1.5.28,2.26,1.26,9,6.26,16.16,11.37,23.24a12.59,12.59,0,0,0,5.22,4.33C426.51,747.75,430,745.53,430,739.57Zm33.93-223.81c-1.7.88-4.45.75-7,1.52-6,1.84-10.79,9.19-9.55,15.11a55.09,55.09,0,0,1,1,9c.15,3.38,1.84,5.1,4.76,5.28,3.17.18,5.22-1.49,5.42-5.15a10.49,10.49,0,0,1,2.56-6.07,107.17,107.17,0,0,0,8.06-12.38C471.43,519.09,469.17,515.67,463.94,515.76Zm-16.77,49a4.73,4.73,0,0,0-2.9-5.06c-2-.94-3.63-.13-5.13,1.33a12.72,12.72,0,0,0-3.44,5.83c-.63,2.25-1.57,4.42-3.65,5.62-5.49,3.17-7.77,8.66-10.42,13.92-1.16,2.31-1.11,4.44,1,6.16s4.12,1.43,6.38.34C440.75,587.24,444,576.09,447.17,564.81Z" transform="translate(-7.83 -105.71)"/><path class="cls-6" d="M694.55,249.22c-2.35,1-1.62,3.18-1.72,5-.12,2.08.31,4.52-2.35,5.24-2.42.65-5,.77-6.86-1.48a38.75,38.75,0,0,1-4.39-6,166.13,166.13,0,0,1-9.86-21.85c-4.64-12.73-9.93-25.14-17.56-36.44-4-6-8.09-12.11-13.2-17.11a106,106,0,0,0-22.86-16.89C603.28,152.78,589.69,149.45,576,146c-8.12-2-16.4-3-24.59-4.51-5.88-1.11-6.21-1.38-7-7.67,4.16-3.14,9-4.81,13.92-6.17.22,1.62,1.3,2.07,2.76,2.31,6.89,1.15,13.87,1.54,20.76,2.53,3.11.45,5.1.27,6.52-2.56s3.62-3.61,6.57-3.47c2,.1,4.2.34,6-1,.78-.13,1.47-.88,2.35-.37-.07,1,.13,2,1.18,2.32,2.51.88,5,2.1,7.59,2.38,6.25.68,12.21,2.58,18.33,3.77a26.32,26.32,0,0,1,10.36,4.57c3.69,2.67,7.47,5.2,11.19,7.82,1.38,1,2.67,1.51,3.94-.1,3.32,2.63,6.95,5,8.13,9.47-1.18,3.76-.26,4.94,3.53,4.56a81.11,81.11,0,0,1,12.1,15.67c3.44,5.85,8.45,11.39,7.3,19.11-2.86-.73-4.4.44-4.49,3.32-.18,5.5,1.79,10.65,2.8,16,.18.93,1.52.87,2.48.69a3.21,3.21,0,0,1,0,3c-.32-.06-.72-.47-.86.21l.89-.13c2.65,7.71,5,15.52,5.7,23.66C693.78,244.08,694.88,246.56,694.55,249.22Z" transform="translate(-7.83 -105.71)"/><path class="cls-6" d="M412.33,971.23c9.36-1.14,16.7,4.23,24.59,7.74,5.2,2.33,10.21,5.09,15.35,7.57a41.48,41.48,0,0,0,11.5,3.23c11.06,1.82,21.9.18,32.62-2.44a156.63,156.63,0,0,0,32.12-11.79A61.55,61.55,0,0,1,556,969.15c7.64,0,15.3-.34,22.92.09,9.27.52,17.64-2.46,26-5.57,16.64-6.18,30.92-16.34,44.94-26.89,9.71-7.32,19.57-14.48,28.88-22.28,9-7.57,18.58-14.58,26.81-23.08,2.64-2.72,6.53-3.88,8.61-7.34,1.07-1.78,2.58-3.3,2.67-5.54A1.86,1.86,0,0,1,719,878c.77,1.67,1.62,1.82,2.54.11,4.34,2,4.58,2.48,4.26,8.25-2.76,1-3.44,3-2.57,5.66-2.69,5.55-7.32,9.27-12.08,12.86-4.21.43-4.72.87-5.14,4.44a6.75,6.75,0,0,1-4,3.62c-2.24,0-4.59-.16-4,3.28a3.72,3.72,0,0,1-2.84,2.47c-2-.19-3.66,0-3.33,2.69a6.24,6.24,0,0,1-3.6,3c-4.45.6-4.74.87-5.56,5.05a2.52,2.52,0,0,1-2.17,2c-2.09-.57-3.51.55-5.16,1.67-5,3.36-8.43,8.35-13.11,11.88-16.56,12.48-33.27,24.83-52.79,32.5-10.14,4-20.54,6.74-31.61,6.64-7-.07-14-.07-21-.23a51.56,51.56,0,0,0-22.65,4.92,208,208,0,0,1-32.73,11.76c-9.42,2.44-18.89,4.39-28.66,2.17a2.16,2.16,0,0,0-2.79,1.3,12.73,12.73,0,0,1-5.56-.91c-.61-1.85-1.39-2.24-2.45-.29a6.26,6.26,0,0,1-4.47-.54c-.69-2.53-1.85-2.85-3.53-.76a4.74,4.74,0,0,1-1.66-.13c-8.68-4.07-17.63-7.57-25.85-12.57-.64-3.26-2.71-3.75-5.51-2.85-4.14-1-7.07-3.68-9.51-6.9C409.22,976.08,409.52,974.55,412.33,971.23Z" transform="translate(-7.83 -105.71)"/><path class="cls-6" d="M64.16,781.18c3.12-1,.77-3.16,1-4.78.12-1.07-.43-2.51,1-2.93s2,.87,2.45,1.88C71,780.1,73,785,75.5,789.7c7.56,14.09,18.59,24.91,31.21,34.4,7.59,5.71,14.76,12,22.27,17.8,14.76,11.44,29.42,23,47.23,29.63,6.85,2.54,14.08,3.14,21.14,4.5,9.85,1.91,19.89,2.75,29.77,4.71,10,2,20.25,2.86,30.21,5.57,12.72,3.47,24.33,8.78,34.34,17.42.29.25.55.53.83.79,3.15,2.94,4.28,5.79,2.68,7.91a6.12,6.12,0,0,1-7.64,2.15,7.41,7.41,0,0,0-5.59.15,135.1,135.1,0,0,1-24.1-7.49c0-.77-.09-1.61-.86-1.87s-1.31.36-1.55,1.13a10.85,10.85,0,0,1-5.63-1.55c-1.08-2.79-1.4-2.86-3.54-.78a2.34,2.34,0,0,1-2.19-.41c-1.43-2.9-2-3-4.67-.87a2.17,2.17,0,0,1-2.19-.43c-2.39-3.23-4-3.63-7-1.77a2.17,2.17,0,0,1-2.15-.62c-.35-1.72-.92-2.71-2.39-.71a2.26,2.26,0,0,1-2.19-.53c-.41-1.73-1.05-2.56-2.4-.61a11.26,11.26,0,0,1-5.62-.75c-.29-.47-.51-1.28-.89-1.35a29.61,29.61,0,0,0-10.62-.08c-.83.12-1,1-1.17,1.76a28.68,28.68,0,0,1-13.75.06c-1.87-2.74-2.72-2.85-5.83-.72-4.55,0-8.91-.64-12.56-3.7a4.69,4.69,0,0,1,1.23-2.37c2.72-2.9,2.54-3.29-1.68-4.36-.62,0-.91-.25-.89-.87.15-2.31-.93-2.92-3-2.15a4.93,4.93,0,0,1-1.59-.49c-6-4.83-12.8-8.61-19.31-12.74-.11-2-1.27-2.46-3-1.94l-.45-.21a5.08,5.08,0,0,0-1.56-4.64c-2.37-2.39-5-4.55-6-8-.33-1.12-1.67-2-2.71-2.84a110.21,110.21,0,0,0-9.53-7.07c-4.1-2.54-7.82-5.75-12.5-7.31-14.94-13-29.31-26.53-39.57-43.75C67.5,790.43,65.05,786.13,64.16,781.18Z" transform="translate(-7.83 -105.71)"/><path class="cls-6" d="M477.17,131.32c.32,3-1.15,4.63-4,5.14-1.12.2-2.37.66-3.37.36-7-2.16-14,.38-20.94,0-13.37-.71-25.5,3.44-37.43,8.77a167.71,167.71,0,0,0-38.64,24.18,234.14,234.14,0,0,0-31,30.4c-4.38,5.27-9.52,9.94-14.52,14.66-3.05,2.87-8.59,3.35-11.15,1.43-2.4-1.8-3.19-7.45-1-11.15a69.9,69.9,0,0,1,7.58-10.7c6.55-7.44,13-15,20.41-21.62,12.95-11.47,25.13-23.88,39.87-33.2,5.32-3.36,10.54-6.87,16.74-8.51,1.75-.46,3.92-.85,3.73-3.53v0c2.38.58,4.41-.41,6.56-1.26,10.82-4.3,21.88-7.23,33.74-6.76,5.11.21,10.08,2.15,15.25,1.11a5.07,5.07,0,0,1,5.16,1.68C467.73,126.55,472.62,128.66,477.17,131.32Z" transform="translate(-7.83 -105.71)"/><path class="cls-5" d="M470,1004.05a2.16,2.16,0,0,1,2.79-1.3c9.77,2.22,19.24.27,28.66-2.17a208,208,0,0,0,32.73-11.76,51.56,51.56,0,0,1,22.65-4.92c7,.16,14,.16,21,.23,11.07.1,21.47-2.66,31.61-6.64,19.52-7.67,36.23-20,52.79-32.5,4.68-3.53,8.16-8.52,13.11-11.88,1.65-1.12,3.07-2.24,5.16-1.67-1.54,3.29-4.88,4.69-7.4,6.95a11.39,11.39,0,0,0-4.14,7.72c-1.66,13.9-9.33,23.6-22.13,29a183.84,183.84,0,0,1-38.23,11.91A138.1,138.1,0,0,0,592.47,991c-10.85,3.41-22.11,4.24-33.38,4.81a155.35,155.35,0,0,0-18.75,2.31,19.3,19.3,0,0,0-10.91,5.77A36.27,36.27,0,0,1,506.14,1015c-7,.64-13.72-.87-20.21-3.29A109.18,109.18,0,0,1,470,1004.05Z" transform="translate(-7.83 -105.71)"/><path class="cls-6" d="M154.84,217.87c2.43.9,4.53-.4,6.56-1.25,11.33-4.72,23.29-6.71,35.31-8.68,11.22-1.83,22.47-1.17,33.67-.8,8.67.28,17.31,2,25.92,3.4,8.05,1.29,16,3,24.05,4.4a68.5,68.5,0,0,1,12,3.73c4,1.5,4.44,5,1.32,8.11a9.39,9.39,0,0,1-9.36,2.64c-6.5-1.38-12.74-3.82-19.36-4.65-1.13-.14-2.23-.55-3.36-.59-13.5-.53-27-2.07-40.52-1.09-18.14,1.31-36.39,2.16-53.71,8.83-5.48,2.1-11.35,3.18-16.94,5-2.94,1-5.49,1.19-8-.9-.48-.4-1.45-.21-2.2-.29a8.37,8.37,0,0,1,2.29-9.29C146.08,222.87,149.88,219.52,154.84,217.87Z" transform="translate(-7.83 -105.71)"/><path class="cls-6" d="M885.19,688.36c-1.65-.66-3,0-4.12,1.12a5.29,5.29,0,0,1-2.86,1.76c-2.52.41-4-1-3.42-3.57a28.09,28.09,0,0,1,4.2-9.36,129.79,129.79,0,0,0,19.86-50.55c1.76-10.11,2.72-20.32.76-30.6a33.62,33.62,0,0,1,0-11.41c.63-4,2.53-7.22,7.33-7.23a.71.71,0,0,1,.79.77c-.48,2.84.72,4.14,3.59,3.94a23.34,23.34,0,0,1,4.55,11.56c-1.9.76-1,2-.7,3.3.77,3.12,2.49,6,2.54,9.29.11,6.63,0,13.23-1.31,19.8-2.88,13.94-6.61,27.54-14.35,39.72-.34.53,0,1.46,0,2.2a173.8,173.8,0,0,1-14.89,18.16A7.4,7.4,0,0,1,885.19,688.36Z" transform="translate(-7.83 -105.71)"/><path class="cls-5" d="M902,669.1c0-.74-.29-1.67,0-2.2,7.74-12.18,11.47-25.78,14.35-39.72,1.36-6.57,1.42-13.17,1.31-19.8-.05-3.31-1.77-6.17-2.54-9.29-.31-1.27-1.2-2.54.7-3.3,2.54,4.87,5.22,9.68,7.61,14.63,7,14.5,4.32,28.67-1.91,42.55A29.79,29.79,0,0,1,902,669.1Z" transform="translate(-7.83 -105.71)"/><path class="cls-5" d="M601,125.51c-1.85,1.33-4,1.09-6,1-3-.14-5.2.75-6.57,3.47s-3.41,3-6.52,2.56c-6.89-1-13.87-1.38-20.76-2.53-1.46-.24-2.54-.69-2.76-2.31,4.83-3.42,10.46-4.53,16.13-4.67,7.62-.18,15.25.27,22.88.53C598.79,123.59,600.52,123.49,601,125.51Z" transform="translate(-7.83 -105.71)"/><path class="cls-5" d="M655.94,145.9c-1.27,1.61-2.56,1.08-3.94.1-3.72-2.62-7.5-5.15-11.19-7.82a26.32,26.32,0,0,0-10.36-4.57c-6.12-1.19-12.08-3.09-18.33-3.77-2.59-.28-5.08-1.5-7.59-2.38-1-.36-1.25-1.31-1.18-2.32,10.25.17,20.63-.4,30.39,3.62C642.66,132.44,650.69,137.4,655.94,145.9Z" transform="translate(-7.83 -105.71)"/><path class="cls-5" d="M109.58,838.4c4.68,1.56,8.4,4.77,12.5,7.31a110.21,110.21,0,0,1,9.53,7.07c1,.81,2.38,1.72,2.71,2.84,1,3.5,3.67,5.66,6,8a5.08,5.08,0,0,1,1.56,4.64c-1.29.35-2.16-.47-3.07-1.12-10.53-7.54-20.3-15.9-28.19-26.27A3.34,3.34,0,0,1,109.58,838.4Z" transform="translate(-7.83 -105.71)"/><path class="cls-5" d="M459,120.67c-5.17,1-10.14-.9-15.25-1.11-11.86-.47-22.92,2.46-33.74,6.76-2.15.85-4.18,1.84-6.56,1.26.86-1.92,2.84-2.32,4.46-3.07a78.15,78.15,0,0,1,47.92-5.81C457.14,118.94,458.51,119.11,459,120.67Z" transform="translate(-7.83 -105.71)"/><path class="cls-5" d="M687.79,214.68c-1,.18-2.3.24-2.48-.69-1-5.31-3-10.46-2.8-16,.09-2.88,1.63-4.05,4.49-3.32,1.88,2,1.34,4.64,1.4,7C688.53,206.05,688.77,210.4,687.79,214.68Z" transform="translate(-7.83 -105.71)"/><path class="cls-5" d="M202.77,897.8c.15-.75.34-1.64,1.17-1.76a29.61,29.61,0,0,1,10.62.08c.38.07.6.88.89,1.35A45.66,45.66,0,0,1,202.77,897.8Z" transform="translate(-7.83 -105.71)"/><path class="cls-5" d="M170.18,886.71c4.22,1.07,4.4,1.46,1.68,4.36a4.69,4.69,0,0,0-1.23,2.37c-2.71-.75-3.92-1.92-1.19-4.21C170.23,888.56,169.9,887.54,170.18,886.71Z" transform="translate(-7.83 -105.71)"/><path class="cls-5" d="M230.2,900.69c3-1.86,4.63-1.46,7,1.77A7.85,7.85,0,0,1,230.2,900.69Z" transform="translate(-7.83 -105.71)"/><path class="cls-5" d="M682.69,929.47c.82-4.18,1.11-4.45,5.56-5.05A9.25,9.25,0,0,1,682.69,929.47Z" transform="translate(-7.83 -105.71)"/><path class="cls-5" d="M183.19,897.14c3.11-2.13,4-2,5.83.72A6.37,6.37,0,0,1,183.19,897.14Z" transform="translate(-7.83 -105.71)"/><path class="cls-5" d="M706.05,909.33c.42-3.57.93-4,5.14-4.44A7.81,7.81,0,0,1,706.05,909.33Z" transform="translate(-7.83 -105.71)"/><path class="cls-5" d="M723.27,892c-.87-2.67-.19-4.64,2.57-5.66C726.38,888.89,725.28,890.67,723.27,892Z" transform="translate(-7.83 -105.71)"/><path class="cls-5" d="M239.41,902.89c2.72-2.13,3.24-2,4.67.87C242.38,904.25,240.76,904.31,239.41,902.89Z" transform="translate(-7.83 -105.71)"/><path class="cls-5" d="M667.6,159.93c-3.79.38-4.71-.8-3.53-4.56A4.44,4.44,0,0,1,667.6,159.93Z" transform="translate(-7.83 -105.71)"/><path class="cls-5" d="M421,986c2.8-.9,4.87-.41,5.51,2.85A6.89,6.89,0,0,1,421,986Z" transform="translate(-7.83 -105.71)"/><path class="cls-5" d="M911.31,583.23c-2.87.2-4.07-1.1-3.59-3.94A4.39,4.39,0,0,1,911.31,583.23Z" transform="translate(-7.83 -105.71)"/><path class="cls-5" d="M246.27,904.17c2.14-2.08,2.46-2,3.54.78A2.91,2.91,0,0,1,246.27,904.17Z" transform="translate(-7.83 -105.71)"/><path class="cls-5" d="M698,916.23c-.56-3.44,1.79-3.29,4-3.28A4.94,4.94,0,0,1,698,916.23Z" transform="translate(-7.83 -105.71)"/><path class="cls-5" d="M454,1001.55c1.68-2.09,2.84-1.77,3.53.76A2.67,2.67,0,0,1,454,1001.55Z" transform="translate(-7.83 -105.71)"/><path class="cls-5" d="M691.85,921.39c-.33-2.68,1.34-2.88,3.33-2.69A3.71,3.71,0,0,1,691.85,921.39Z" transform="translate(-7.83 -105.71)"/><path class="cls-5" d="M142.37,868.52c1.75-.52,2.91-.1,3,1.94A2.47,2.47,0,0,1,142.37,868.52Z" transform="translate(-7.83 -105.71)"/><path class="cls-5" d="M721.58,878.12c-.92,1.71-1.77,1.56-2.54-.11C719.94,876.89,720.78,877,721.58,878.12Z" transform="translate(-7.83 -105.71)"/><path class="cls-5" d="M166.29,883.69c2.07-.77,3.15-.16,3,2.15A3.13,3.13,0,0,1,166.29,883.69Z" transform="translate(-7.83 -105.71)"/><path class="cls-5" d="M221.07,898.22c1.35-2,2-1.12,2.4.61A1.58,1.58,0,0,1,221.07,898.22Z" transform="translate(-7.83 -105.71)"/><path class="cls-5" d="M225.66,899.36c1.47-2,2-1,2.39.71A1.56,1.56,0,0,1,225.66,899.36Z" transform="translate(-7.83 -105.71)"/><path class="cls-5" d="M255.44,906.5c.24-.77.73-1.4,1.55-1.13s.87,1.1.86,1.87A1.72,1.72,0,0,1,255.44,906.5Z" transform="translate(-7.83 -105.71)"/><path class="cls-5" d="M462,1002.85c1.06-2,1.84-1.56,2.45.29A1.66,1.66,0,0,1,462,1002.85Z" transform="translate(-7.83 -105.71)"/><path class="cls-5" d="M687.85,217.8l-.89.13c.14-.68.54-.27.86-.21Z" transform="translate(-7.83 -105.71)"/><path class="cls-6" d="M636.49,686c.4,2.58-.82,4.65-1.35,6.86-1.58,6.48-1.78,12.47,4.94,16.52,2.23,1.35,3.1,3.91,3.93,6.21,1.55,4.29,2.72,8.72,4.12,13.07.77,2.4,1.27,4.66.21,7.21a6.29,6.29,0,0,0,1.22,6.49c2.18,2.55,2.64,5.92,4.54,8.55,1,1.36.8,2.91.82,4.42,0,2,0,4-2.38,4.63s-4.49.29-5.78-2.31c-2-4-4.86-7.22-7.68-10.61-4.24-5.11-9.72-6.58-15.72-6.26-5.63.29-10.46-1.29-15.25-3.9a9.11,9.11,0,0,1-4.57-4.86,89.32,89.32,0,0,1-3.44-9.69,9.48,9.48,0,0,1,1.64-8.64c3.64-4.64,6.85-9.48,11.91-12.94,5.26-3.6,8-9.59,12.05-14.42,1-1.17.06-2.53-.3-3.81-.66-2.34-.5-4.53,1.58-6.23,1.17-1,2.52-1.4,3.65-.39C633.7,678.69,637.67,681,636.49,686Z" transform="translate(-7.83 -105.71)"/><path class="cls-6" d="M807.3,644.18c.7-5.84,1.41-11.68,2.09-17.52a26.87,26.87,0,0,0,.4-4.54c-.37-7,1.18-14,.12-21a13.28,13.28,0,0,1,.35-6.82c1.27-3.28.59-6.36-.5-9.48-.94-2.71-1.74-5.46-2.75-8.13a13.08,13.08,0,0,1-.52-6.22,4.43,4.43,0,0,1,4.08-4.16c3.65-.42,7-.34,9.88,2.93,7.57,8.64,15,17.44,17.32,29,2.22,11.18,3.63,22.58-1,33.66a7.81,7.81,0,0,0-.44,1.66c-1.54,8.65-3,10.45-12,11.6-4.2.54-7.34,1.06-8,6.13a4.9,4.9,0,0,1-4.34,4c-1.61.16-4.2-3.06-4.4-5.39-.16-1.9,0-3.82,0-5.74Z" transform="translate(-7.83 -105.71)"/><path class="cls-6" d="M723.88,400.93c-6,.34-12.72-.59-19.44-2a12.2,12.2,0,0,0-4-.25c-8.7,1.05-15.73-2.89-21.84-8.15-6.92-6-13.1-12.77-20-18.77-3.6-3.11-3.24-3.73.62-6.91,1.91-1.58,3.52-3.52,5.42-5.11,1.49-1.26,2.42-4,5-3,3.08,1.22,5.61,3.08,6,6.92.51,5.08,3.41,8.89,7.5,11.65,3.37,2.27,7.49,2.85,11.38,3.6,4.33.84,8.65,1.23,11.78,4.91a4,4,0,0,0,4.31.86c5.25-1.69,10.62-.9,15.93-.94A62.5,62.5,0,0,0,745.07,381c4.41-1.38,9.08-.46,13.53-1.8,2.24-.67,4.14.85,5,3s.76,4.34-1.18,5.77c-5.75,4.23-10.91,9.88-19.21,8.38-1.27-.23-3.15-.5-3.8.63-3,5.16-7.83,3.77-12.27,3.92C726.35,401,725.58,400.93,723.88,400.93Z" transform="translate(-7.83 -105.71)"/><path class="cls-6" d="M424.24,245.41c.2,2.09-.94,3.58-2.64,4.65-5.16,3.24-8.62,8-11.8,13-1,1.51-1.76,2.92-1.61,4.74.27,3.21-1.68,4.88-4.27,6.1-2.95,1.38-5.95,2.79-7.9,5.51-3.43,4.78-8.39,6.32-13.83,6.64-3.52.21-6.05,1.4-8,4.52-1.57,2.49-3.94,3.61-7.38,2.74-4-1-8.28-1-12.42-1.52a17,17,0,0,1-4.93-1.36c-6.5-3.07-7.2-7.9-1.49-12.21a60.84,60.84,0,0,1,14.21-8.42c6.19-2.44,12.2-5.25,18.52-7.43,7.09-2.46,12.52-7.93,18.29-12.55,5.25-4.21,11.52-5.8,17.47-8.27,1.31-.54,3-.25,4.54-.14C423.34,241.58,424.26,243.09,424.24,245.41Z" transform="translate(-7.83 -105.71)"/><path class="cls-6" d="M203.94,808.79a5.66,5.66,0,0,1,.51-2.3c3.2-4.78.93-8.63-1.81-12.54a135.94,135.94,0,0,1-18.82-39.49,15.2,15.2,0,0,1,.71-10.07c.89-2.34,2.47-4,5.18-3.51,2.56.48,3.82,2.32,3.87,5,.15,7.17,1.22,14.45,5.43,20.14,5.67,7.65,8.85,16.76,15.29,24,3,3.34,5.3,7.38,8.63,10.56a11.84,11.84,0,0,0,4.78,3c5.3,1.57,10.53,3.48,15.94,4.46s9.83,4,14.23,6.94a9.68,9.68,0,0,1,2.76,2.87c1.68,2.77.09,5.36-3.16,5.53-1.83.09-3.32-.77-4.89-1.46-6.86-3-13.74-4.73-20.78-.46a5.14,5.14,0,0,1-5,.19c-3.58-1.58-7.34-1.73-11.2-1.76C210,819.82,204.13,814.29,203.94,808.79Z" transform="translate(-7.83 -105.71)"/><path class="cls-6" d="M119,450.78a10.12,10.12,0,0,1-.23,2.89c-1,3.36-3.89,4.25-6.5,1.85a89.5,89.5,0,0,0-11-8.2,9,9,0,0,1-3.85-4.75c-1.17-3.6-1.8-7.38-4.15-10.52a4,4,0,0,1-.56-3.31,17,17,0,0,0-2-12c-1.45-2.66-2.37-5.23,0-7.91a3.12,3.12,0,0,0,.66-2.13c-.52-6.41,3.68-11.08,6-16.41a12.34,12.34,0,0,1,3-3.44c2.16-2,6-2.83,7.83-1.43a6.65,6.65,0,0,1,2.57,7.12,64.78,64.78,0,0,0-2,12.9c-.28,10.16,1.74,20,4.65,29.7a8.57,8.57,0,0,0,1.87,2.83C118,441.4,119.13,445.34,119,450.78Z" transform="translate(-7.83 -105.71)"/><path class="cls-6" d="M599.4,323.5c-.1,1.67-1.32,1.65-2.48,1.56-5.84-.49-9.54-4.26-12.84-8.56-1.15-1.51-2-3.26-3.12-4.79a10.31,10.31,0,0,0-4.25-3.69c-7.48-3.17-12.64-8.3-13.69-16.75-.15-1.22-1-2-1.59-3-1.36-2.49-3-4.87-3-7.93,0-2.2-1.38-3.89-2.57-5.64A3.58,3.58,0,0,1,556,270c1.51-1.68,3.24-.89,4.65.09,4.6,3.16,8.37,7.28,11.93,11.48,5.77,6.8,11.16,13.93,16.6,21a56.8,56.8,0,0,1,9.51,18.77C598.94,322,599.17,322.77,599.4,323.5Z" transform="translate(-7.83 -105.71)"/><path class="cls-6" d="M187.87,612.12a8.18,8.18,0,0,1,1.49-5.21,14,14,0,0,0,1.93-8.79,35.48,35.48,0,0,1,2.59-16.23c3.35-8.54,4.67-17.65,7.58-26.33,1.66-4.92,5.21-8.35,8-12.4a2,2,0,0,1,2.56-.68,1.78,1.78,0,0,1,.74,2.46c-1.18,3.19-1.89,6.5-3.23,9.69-3.07,7.3-6.63,14.58-5.67,23,.46,4-.31,8.07.16,12,.88,7.4-1.47,13.77-5.07,20a12.9,12.9,0,0,1-6.09,5.75C189.17,617.06,188,616.34,187.87,612.12Z" transform="translate(-7.83 -105.71)"/><path class="cls-6" d="M430.1,813.05a7.55,7.55,0,0,1,4.9,1.38A40.51,40.51,0,0,1,448.07,827c2.22,3.53,3.39,7.24,2,11.38a9.91,9.91,0,0,0,.19,6.16,16.73,16.73,0,0,1-.78,10.65c-.74,1.9-1.91,3.36-4,3.63-2.47.31-3.83-1.32-5-3.18s-1.22-3.94-1.29-6.07c-.09-3.21.05-6.38-.67-9.65-1.41-6.4-6.29-10.25-9.88-15.07A29,29,0,0,0,425.8,822a5.16,5.16,0,0,1-1-6.33A4.82,4.82,0,0,1,430.1,813.05Z" transform="translate(-7.83 -105.71)"/><path class="cls-6" d="M430,739.57c-.06,6-3.5,8.18-8.36,6.13a12.59,12.59,0,0,1-5.22-4.33c-5.11-7.08-10.11-14.26-11.37-23.24-.11-.76-.23-1.51-.28-2.26-.2-2.76-.14-5.62,2.85-6.82s4.56,1.5,5.8,3.43c1.89,3,4.55,5.11,6.87,7.6a42.79,42.79,0,0,1,9.35,16.77A12.28,12.28,0,0,1,430,739.57Z" transform="translate(-7.83 -105.71)"/><path class="cls-6" d="M463.94,515.76c5.23-.09,7.49,3.33,5.28,7.33a107.17,107.17,0,0,1-8.06,12.38,10.49,10.49,0,0,0-2.56,6.07c-.2,3.66-2.25,5.33-5.42,5.15-2.92-.18-4.61-1.9-4.76-5.28a55.09,55.09,0,0,0-1-9c-1.24-5.92,3.53-13.27,9.55-15.11C459.49,516.51,462.24,516.64,463.94,515.76Z" transform="translate(-7.83 -105.71)"/><path class="cls-6" d="M447.17,564.81C444,576.09,440.75,587.24,429,593c-2.26,1.09-4.38,1.29-6.38-.34s-2.16-3.85-1-6.16c2.65-5.26,4.93-10.75,10.42-13.92,2.08-1.2,3-3.37,3.65-5.62a12.72,12.72,0,0,1,3.44-5.83c1.5-1.46,3.15-2.27,5.13-1.33A4.73,4.73,0,0,1,447.17,564.81Z" transform="translate(-7.83 -105.71)"/><g class="cls-3"><path class="cls-7" d="M695.79,240.5c.61,7.57-.62,16.15,1.23,24.59.36,1.66.76,3.32,1.09,5,1.23,6.14,4.79,10,10.81,11.95s12.15,2.85,18.31,3.88c16.76,2.79,32.27,9.59,48.11,15.34,7.29,2.64,14.72,5,21.51,8.89,9.17,5.22,17.32,11.61,23.28,20.44a30.45,30.45,0,0,1,3.93,7.54c4.74,14.95,11.4,29.36,13,45.22a14.66,14.66,0,0,0,1,4.41c5.77,13.15,7.34,27.36,10.45,41.18a98.6,98.6,0,0,0,15.7,35.64c6.34,9,12.52,18,18.66,27.15a46.42,46.42,0,0,1,7.27,18.38c3.21,19.41,10.44,37.55,17.32,55.79A164.12,164.12,0,0,0,920,591.38a66.37,66.37,0,0,1,9.12,28.44,45.49,45.49,0,0,0,1.32,6.67c2.31,9.65,2.23,19-2.41,28.2a65.65,65.65,0,0,1-21.67,24.38,79.28,79.28,0,0,0-14.22,13c-8.89,10.13-18.7,19.36-28.13,29-3.88,4-8.71,6.7-13.54,9.31A34,34,0,0,0,837,743a119.93,119.93,0,0,1-23.31,28.5A150.45,150.45,0,0,1,791.93,788c-14.4,8.67-23.5,21.44-31.3,35.82-7,12.85-13.08,26.09-19.07,39.39-7.13,15.84-16.92,30-27.06,44-19,26.22-43.81,45.51-72.46,59.89a476.52,476.52,0,0,1-56,23.66c-7.83,2.74-16,2.95-24.1,3.59-6.57.51-12.68,2-18.22,5.64-7,4.61-14.74,7.8-22.18,11.56a44.44,44.44,0,0,1-16.44,4.24c-15.53,1.33-30.25-.4-44.45-8.33-13.78-7.7-26.49-16.9-39.79-25.25-10.43-6.54-21.34-12.29-33.67-14.62-4.85-.92-9.8-.51-14.71-1.25-16.42-2.48-31.22-9.18-45.43-17.28-8.06-4.59-13.35-12.22-19-19.34-8.45-10.63-18.39-19-32.09-22.16-4.42-1-8.67-2.72-13-4.11-11.6-3.73-23.6-5.38-35.66-6.64a33.77,33.77,0,0,0-6.8.28c-23.27,2.26-44.41-2.77-62.63-18.06a306.1,306.1,0,0,1-23.55-21.41A149.68,149.68,0,0,0,103,833.21a60.94,60.94,0,0,1-18.27-16,378.39,378.39,0,0,1-35.48-58.79c-6.08-12.37-7.22-25.53-5-38.83,3.3-20.21,7.46-40.33,15.72-59.16,9.35-21.32,15.88-43.84,27.27-64.28,1.29-2.32,2.48-4.69,3.79-7,6.63-11.74,10.65-24.21,11.06-37.8.14-4.83-1.46-8.69-4.39-12.5C89.39,528.14,78.91,520.42,67,514.15S46.28,498.07,39.9,486.46A140.89,140.89,0,0,1,24,439.29c-1.05-7.07.34-14,.89-21,1.29-16.34,7.78-31.16,14.25-45.91a511.43,511.43,0,0,1,40.47-75c12.35-18.82,24.37-38,39.73-54.65,19.73-21.4,43.29-36,72.43-40.65,5.6-.9,11.16-2.1,16.71-3.28a38.15,38.15,0,0,1,10.14-1.16c4.58.27,9.05-.81,13.58-1.07,8.37-.48,16.66.48,25,1.12,4,.3,5.11,1.93,4.76,6-.84,9.64,2.39,17.75,10.55,22.95,11.13,7.1,23.4,9.93,36.35,5.8,11.94-3.82,18.86-17.7,15.4-29.81a15.29,15.29,0,0,0-1.31-3.75c-3-4.89-1.8-9.07,1.3-13.55C331,175.64,337,165.22,345.77,157a48.36,48.36,0,0,1,7.44-6.14c13.21-8.16,24.12-19.63,38.34-26.34a75.08,75.08,0,0,1,14.3-5.36c16.71-4.11,33.11-1.41,49.56,1.63a118.46,118.46,0,0,1,25.89,8.37c9.14,4,18.77,5.5,28.69,6.3,10.94.89,21.49-1.14,32.12-2.77,11.34-1.74,22.69-.86,34-.41,12,.48,23.69,2.56,35.41,4.83a13.77,13.77,0,0,0,4.53,0c14-2.18,25.8,3.08,36,11.92,14.28,12.41,25.28,27.68,35,43.8a60.41,60.41,0,0,1,8.75,33.09C695.71,230.46,695.79,235,695.79,240.5Z" transform="translate(-7.83 -105.71)"/></g><path d="M697.11,232.8c0,4.56-.08,9.12,0,13.68.28,13.62,6.66,24,17.54,31.66A22.83,22.83,0,0,0,725.22,282c12.82,1.19,24.93,5,37.1,8.85,9.4,3,19.06,5.21,28.63,7.68,4.6,1.19,9.31,2,13.87,3.28,9.88,2.82,17.32,8.8,21.43,18.27,3.11,7.14,6.19,14.39,8.17,21.89q6,22.89,10.8,46.11c3.81,18.68,7.9,37.23,15,55,4.94,12.28,11.17,23.72,20.43,33.37,4.69,4.88,7.63,10.93,9.79,17.26,2.26,6.66,4.64,13.36,6,20.23,4.93,24.82,14.4,48.07,23.87,71.34,2.87,7,6,14,8.61,21.15a117,117,0,0,1,4.83,17c3.75,19.1-1.24,35.86-14.51,50a142.81,142.81,0,0,1-13.42,12.36c-15.73,12.93-31.69,25.57-47.35,38.58-7.3,6.07-14.32,12.52-21.12,19.15C822.55,758,808.21,773,793.16,787.21c-17.47,16.55-32.08,35.09-42.23,57-5.84,12.6-11.59,25.25-17,38a140.55,140.55,0,0,1-27.46,41.73,342.13,342.13,0,0,1-34.77,32.14A189.08,189.08,0,0,1,638.32,978c-13.59,6.84-27.28,13.5-40.94,20.2a38.39,38.39,0,0,1-5.3,2.09c-4.67,1.47-9.17,1-12.84-2.36a9.69,9.69,0,0,0-9.47-2.41c-8.87,2.1-17.79,4.07-26.54,6.61-5.82,1.69-11.4,4.25-17.08,6.45-15.06,5.82-30.63,7.27-46.58,5.45a67.25,67.25,0,0,1-27.77-9.81c-7.62-4.67-15.14-9.52-22.76-14.19a143.3,143.3,0,0,0-45.35-18.13c-8.18-1.75-16.28-4-24.3-6.31a115.75,115.75,0,0,1-39.71-20.79c-3.87-3.08-7.8-6.09-11.59-9.27-18.52-15.58-40.2-23.52-63.92-26.56-3.4-.44-6.87-.56-10.17-1.39a37,37,0,0,1-10-3.74,23.49,23.49,0,0,0-15.26-3.42c-.38,0-.76,0-1.13.12-22.58,4-41.44-4.38-58.77-17.73-2.71-2.09-5.17-4.49-7.84-6.65-1.91-1.55-3.78-3.39-6-4.31-11.83-4.86-21.34-13.14-31.14-20.95-9.23-7.34-18.4-14.79-27.12-22.71-4.31-3.9-7.6-8.94-11.26-13.54-1.54-1.93-2.71-4.15-4.26-6.07-13.66-16.95-19.94-36.42-20.73-58.06C39.67,729,43.22,708.3,50,688.17,55.19,672.88,61.56,658,67.59,643c5-12.35,10.65-24.44,15.23-36.93,3.39-9.25,5.72-18.92,8.13-28.5.92-3.64.94-7.54,1.06-11.34.39-12.64-4-23.44-12.76-32.55a101.25,101.25,0,0,0-22.18-16.88c-4.93-2.88-9.93-5.64-14.75-8.7a65.15,65.15,0,0,1-24.77-28.43c-10.41-22.71-13.14-46-4.83-69.95,5.92-17.08,12-34.1,18.54-51A205.39,205.39,0,0,1,42.36,335a563.4,563.4,0,0,1,52.17-79.67A172.33,172.33,0,0,1,141,213.54a114.38,114.38,0,0,1,48.23-16.43c15.14-1.52,30.31-2.85,45.47-4.11,17.3-1.43,33.75,1.46,49,10.12a53.9,53.9,0,0,0,5.13,2.49c7.88,3.42,10.89,2.72,16.09-4.32a128,128,0,0,0,7.4-11.51c3.64-6.25,7.15-12.58,10.59-18.93,9.71-17.95,23.83-31.38,41.63-41.14,8.17-4.49,16.23-9.18,24.31-13.83,17.32-10,35.63-12.84,55-7.61,7.53,2,15,4.28,22.47,6.5,7.29,2.17,14.52,4.57,21.85,6.62,9.26,2.59,18.67,3,28.28,2.06,10.77-1,21.62-1.12,32.42-1.84a169.54,169.54,0,0,0,19.25-2.07c12.5-2.32,24.85-2.88,37.39-.13a42.61,42.61,0,0,0,14.16.56c12.08-1.49,22.29,2.17,32,9.11,25.32,18,37.63,43.69,43.85,73A90.78,90.78,0,0,1,697.11,232.8ZM223.82,217v.05c-8.92.61-17.84,1.28-26.76,1.83-20,1.22-37.75,8.25-53.73,20.15a151.28,151.28,0,0,0-28.53,27.82c-35.2,44.73-61.88,94-78.33,148.62a90.68,90.68,0,0,0-2.81,38.37c2.58,20.1,11.26,36,29.32,46.33C73.06,506,81.9,513.54,90.39,521.55c14.5,13.67,20.82,30.44,20.89,50.08A160.78,160.78,0,0,1,103,622.71C97,641.15,90.48,659.45,83.74,677.65a306.36,306.36,0,0,0-16.16,64.08c-2.07,14.77.34,28.38,8,41.14C81.47,792.65,87,802.64,93.1,812.3a71.55,71.55,0,0,0,10.17,13,203.15,203.15,0,0,0,34.57,27c6.94,4.33,13.95,8.54,20.81,13,7.17,4.66,14.32,9.4,21.26,14.39,8.13,5.83,16.72,8.43,26.83,6.44A30,30,0,0,1,227.3,889c5,2.77,10.25,3.6,15.83,4,26.83,1.94,51.37,10.22,72.68,27.09,3.28,2.6,6.7,5,9.94,7.67,15,12.32,32.24,20,51.1,24.24,3.15.71,6.28,1.58,9.45,2.19,19.32,3.68,37,11.37,53.87,21.31,6.88,4.07,13.67,8.28,20.49,12.44A54.52,54.52,0,0,0,490,995.87a80.93,80.93,0,0,0,30.66-5.67q6.08-2.49,12.22-4.8c17.62-6.59,35.61-10.89,54.65-9.66a17.22,17.22,0,0,0,8.16-2c7.69-3.75,15.15-8,22.78-11.84,27.58-13.94,50.62-33.58,71.17-56.39a121,121,0,0,0,22.11-35.07c4.72-11.43,9.73-22.75,14.79-34,11.77-26.29,28.84-48.65,50.11-68,11.55-10.49,23.27-20.87,34-32.21a439.24,439.24,0,0,1,46.32-42.28c10.71-8.54,21.23-17.32,31.82-26,2.94-2.42,5.81-4.91,8.67-7.42,12-10.53,15.8-23.39,10.69-38.61-2.54-7.57-5.49-15-8.13-22.54q-5.47-15.61-10.75-31.28c-1.45-4.33-2.87-8.68-4-13.1-2.3-9-4.39-18.09-6.56-27.14-2.62-10.9-5-21.86-7.94-32.69a31.32,31.32,0,0,0-4.76-9.66c-14.61-20.69-24.54-43.25-28.63-68.37-2.79-17.09-5.54-34.21-9.21-51.12-2.53-11.68-6.53-23-10-34.5s-11.06-17.88-22.79-19.64c-2.45-.37-4.87-.91-7.28-1.46-6.67-1.54-13.41-2.85-20-4.75-15-4.34-29.83-9.15-45.36-11.33a28,28,0,0,1-15-6.62,202.21,202.21,0,0,1-16.67-16.32,37,37,0,0,1-9.1-21.21,84.94,84.94,0,0,1-.26-16.49c2-22.34-3.13-43.07-13.33-62.78-6-11.62-14.86-20.59-25.55-27.91a36.89,36.89,0,0,0-20.34-6.51c-7.4-.2-14.78-1.2-22.18-1.53-6.25-.28-12.6-.75-18.77,0-20.2,2.45-40.34,5.34-60.49,8.2-11.44,1.62-22.8,1.51-34-1.38-7.17-1.85-14.22-4.19-21.3-6.41-8.16-2.57-16.23-5.44-24.44-7.86-11.54-3.41-22.93-2.48-34.12,1.87a133.78,133.78,0,0,0-32.7,18.45,88.43,88.43,0,0,0-23.27,26.37c-4.19,7.24-8.2,14.64-13,21.49a255.69,255.69,0,0,1-19.15,24.79c-9.86,11-20.35,12.92-34.11,7.46-4.24-1.69-8.37-3.66-12.48-5.65a62.83,62.83,0,0,0-31-6.13C235.6,216.41,229.71,216.73,223.82,217Z" transform="translate(-7.83 -105.71)"/><path d="M664.71,358.58c.19.81.34,1.07.27,1.16-4.06,5-2.82,9.09,1.65,13.17,1.9,1.73,3,4.32,4.36,6.63,5.22,9.22,12.91,14.79,23.49,16.17a52.89,52.89,0,0,0,20.4-1c9-2.36,17.93-2.66,27,.25,6.07,1.94,8.62.46,11.47-5.24,1-2,1.76-4.22,2.74-6.27s2.63-3.78,4.87-3.13a7.87,7.87,0,0,1,4.65,3.54,13.78,13.78,0,0,1,.81,7.19c-1.33,9.49-10.6,16.41-20.2,15.24a20.5,20.5,0,0,1-6.58-1.77c-7.35-3.66-15-3.84-22.87-2.61a70.91,70.91,0,0,1-24.4-.5c-11-2.09-19.75-7.49-25.87-17.09-1.23-1.92-3.52-3.27-5.55-4.52-3.22-2-6.81-3.41-9.93-5.54s-5-5.3-4-9.35,4.15-5.77,7.94-6.42A26.47,26.47,0,0,1,664.71,358.58Z" transform="translate(-7.83 -105.71)"/><path d="M188.94,736.81c-.24,2.2-.15,3.83-.63,5.27-1.91,5.67-.82,10.86,2.15,15.83,5.36,9,10.44,18.12,16.16,26.86,4.37,6.69,6.27,13.17,2.81,20.87-2,4.36-1,5.62,3.67,6.8,8.05,2,16.16,1.9,24.35.95,4.89-.58,9.84-.63,14.77-.88a15.07,15.07,0,0,1,2.84.19c4,.57,6,2.31,5.76,5-.27,3.06-4.57,6.71-7.52,5.37-8.81-4-18-.74-26.89-2-5.43-.78-11-.53-16.47-1.14-8.51-1-11.09-6.09-7.1-13.59a2.64,2.64,0,0,1,.29-.49c5.75-6.61,3.84-12.22-1.09-18.69-5.26-6.89-9.09-14.87-13.46-22.42-2-3.46-4-6.93-5.63-10.56C180.26,748.18,182.51,741.28,188.94,736.81Z" transform="translate(-7.83 -105.71)"/><path d="M189.68,616.09a16.71,16.71,0,0,1,2.07-3.39,64.71,64.71,0,0,1,6.41-5.63c4-3,5.43-6.54,3.78-11.42-2.07-6.15-1.34-12.29.15-18.53,1.76-7.37,3-14.87,4.35-22.33,3.18-17.24,7.08-34.27,15.7-49.74,2.29-4.1,5.41-7.77,8.39-11.44a9.64,9.64,0,0,1,5.52-3.1,24.12,24.12,0,0,1-1.28,3.35c-6,10.86-9.89,22.52-14,34.18-6.14,17.3-8.75,35.38-13.52,53a24.06,24.06,0,0,0,.2,13.51c2.18,7.18-.07,12.62-6.06,16.82-2,1.42-3.84,3.11-5.83,4.56C194,617,192.37,618.16,189.68,616.09Z" transform="translate(-7.83 -105.71)"/><path d="M810,653.17c-2.35-2.79-1.49-5.06.22-6.55a51.32,51.32,0,0,1,8.81-6.08,71.82,71.82,0,0,1,9-3.65c3.07-1.18,4.25-3.31,4.24-6.62a142.43,142.43,0,0,1,.76-14.75,31.23,31.23,0,0,0-2.27-15.61Q825.77,588,821.26,576c-1.91-5.1-4.68-8.45-10.75-8.36-4,.06-5.76-2.11-4.83-5.91a118.09,118.09,0,0,1,5.9-19c1.61-3.66,4.91-6.69,7.85-9.61,1.4-1.4,3.72-1.89,5.62-2.8l1,1.23a80.18,80.18,0,0,1-4.92,6.6,35.17,35.17,0,0,0-8.91,18.8,22.11,22.11,0,0,0,0,3.36,11.75,11.75,0,0,0,2.2,1,13.93,13.93,0,0,1,11.1,11.11c2.1,10,6.67,19,10.65,28.24a35.45,35.45,0,0,1,2.52,16.76c-.28,4.16-.38,8.34-.25,12.51.22,7-1.36,9.69-7.83,12.18-2.31.89-4.69,1.59-7,2.43-4.16,1.49-8.11,3.29-11,6.83A12.38,12.38,0,0,1,810,653.17Z" transform="translate(-7.83 -105.71)"/><path d="M425.64,818.33c1.51.82,2.68,1.14,3.37,1.89,6.22,6.74,12,13.78,13.17,23.36a29.29,29.29,0,0,0,8.6,17.52c3.7,3.8,7.34,7.68,10.8,11.7a18.52,18.52,0,0,1,3.32,5.82c.31.88-.51,2.58-1.35,3.3-.59.5-2.23.27-3.11-.19a18.84,18.84,0,0,1-3.5-2.85c-5-4.41-10-8.72-14.81-13.3s-7.92-9.88-8.36-16.38c-.49-7.41-3.2-14-6.37-20.48C426,825.75,424,822.74,425.64,818.33Z" transform="translate(-7.83 -105.71)"/><path d="M647.68,757.81c-2.18-1.19-4.6-1.9-6.18-3.46-9.24-9.1-20.39-14.39-32.9-17.16-6.28-1.39-9.94-5.22-10.75-11.68-.64-5-2.37-9.94-.43-15.16,1.6-4.29,3.7-7.92,8-9.81,3.61-1.58,6.14-4.24,8.46-7.37,2-2.7,4.72-4.85,7-7.35,1.57-1.73,2.93-3.65,4.61-5.77,1.79,2.3,1,4.57-.9,6.2-4.16,3.52-6.81,8.08-9.8,12.48-1.43,2.1-3.86,3.53-5.91,5.18s-4.5,2.91-6.26,4.82c-5.18,5.61-5.57,9.75-2.09,16.55,1.65,3.25,4.06,5.34,7.86,5.82,4.9.62,9.8,1.31,14.63,2.32,12.64,2.66,20.48,10.83,25.11,22.5C648.27,756.19,648,756.61,647.68,757.81Z" transform="translate(-7.83 -105.71)"/><path d="M689,532.53a13,13,0,0,1,3,.89c13.63,8.12,25.45,18,32,33,2.17,5,3.8,10,3.4,15.43-.18,2.61.14,4.87,2.76,6.34,1.61.9,2.77,2.69,1.56,4.26a7.45,7.45,0,0,1-4.61,2.58c-3.19.38-6.16-2.13-7.07-5.5a11,11,0,0,1-.34-4.51c1.83-10.39-2.86-18.55-9.07-26a87.74,87.74,0,0,0-10.2-9.92c-5.1-4.42-8.51-10-12.35-15.36Z" transform="translate(-7.83 -105.71)"/><path d="M105,385.45c-1.36,1.77-2.62,3.63-4.1,5.29-7.94,8.93-10.07,18.8-5.47,30.07,1.64,4,2.43,8.39,4,12.46A84.73,84.73,0,0,0,105,445.64c2,3.37,5.14,5,9.24,3.25,1.88-.81,3.78-1,5,1.06,1.33,2.32.59,4.41-1.21,6.16-2.87,2.81-8,3.05-12.2.46a21.56,21.56,0,0,1-8.48-10.45C96,442.8,94.75,439.39,93.7,436c-1.82-6-3.62-12-5.12-18.08-2.85-11.46-.8-21.48,9.16-28.95,2.06-1.55,4.08-3.17,6.12-4.75Z" transform="translate(-7.83 -105.71)"/><path d="M426.86,589.87a26,26,0,0,1,3.5-2.91c5.28-3,9-6.87,8.62-13.59-.1-1.77.93-3.65,1.66-5.39a27,27,0,0,1,2.66-5c5.34-7.66,6.93-15.8,4.18-24.89a30.32,30.32,0,0,1-.85-9.62c.16-5,2.8-8.45,7.36-10.69.1.61.31,1.11.18,1.23-5,4.59-5,9.91-2.41,15.65.62,1.39,1.24,2.78,1.82,4.18,3.14,7.51,3.07,14.81-1.38,21.84-1.62,2.57-3.42,5.05-4.83,7.74a27,27,0,0,0-3.12,7.82,13.81,13.81,0,0,1-7.63,10.68c-2.92,1.54-5.93,2.91-8.89,4.35Z" transform="translate(-7.83 -105.71)"/><path d="M594.43,324.25c-.85.09-1.32.3-1.55.15-8.16-5.51-16.49-10.81-24.37-16.7-4.31-3.22-6.87-8.08-8.62-13.22-2.45-7.19-4.91-14.39-7.25-21.62a26.49,26.49,0,0,1-.66-4.63c3-.9,3.85.86,4.5,2.32,2.1,4.67,4.58,9.29,5.84,14.19,3.12,12.12,10.1,21,20.56,27.59C590.16,316.94,591.81,319.14,594.43,324.25Z" transform="translate(-7.83 -105.71)"/><path d="M347.58,290.24c2.14-2,3.84-.66,5.41.15a15.68,15.68,0,0,0,15.84-.37,117.3,117.3,0,0,1,19.65-8.93,26.41,26.41,0,0,0,13.13-10.47c3.46-5.22,6.88-10.48,10.41-15.66,1.31-1.93,2.88-3.69,4.33-5.52l1,.78c-5.74,9.3-11.37,18.68-17.29,27.88-2.79,4.33-7.71,6-12.09,8.28-5.57,2.84-11.26,5.46-16.85,8.27a22.35,22.35,0,0,1-13.84,2.2C353.15,296.19,349.55,294.4,347.58,290.24Z" transform="translate(-7.83 -105.71)"/><path d="M426.26,739.89c-1.56,3.41-4,3.42-6.48,2.83-9.75-2.28-16.42-17.67-11.44-26.39.15-.28.61-.39,1.6-1,.47,1.36,1.32,2.64,1.25,3.87-.52,9.73,4.43,15.62,13,19.12A11.79,11.79,0,0,1,426.26,739.89Z" transform="translate(-7.83 -105.71)"/><path d="M631.63,690.41q5.28,12.08,10.55,24.16l-1.41.61c-4.34-7.78-12.36-13.93-11.19-24.13Z" transform="translate(-7.83 -105.71)"/></g></svg>