<svg id="Layer_2" data-name="Layer 2" xmlns="http://www.w3.org/2000/svg" viewBox="0 0 1031.23 1055.63"><defs><style>.cls-1{fill:#64533f;}.cls-2{fill:#4c3c29;}.cls-3{opacity:0.25;}.cls-4{fill:#7d4cb7;}.cls-5{fill:#a786cd;}</style></defs><path class="cls-1" d="M1425,444.05c.76,7.61.34,15.24,0,22.83-.49,9.7,1.75,18.9,4.11,28.14.74,2.89,2.76,4.6,4.79,6.5,3.71,3.45,7.44,7,7.91,12.51-7.91.8-8.73,2-7,10.05,0,.21.18.4.21.61,1.61,11.2,5.46,21.76,9,32.44a257.76,257.76,0,0,0,15.78,37.65c4.92,9.45,9.76,19,12.64,29.28,1.25,4.5,2.25,9.07,3.65,13.52,4.66,14.82,4.08,29.72,1.18,44.74-1.08,5.61-2.53,11.25-1.89,17,1.2,10.73,2.22,21.48,3.56,32.19,1.55,12.32,7.32,21.92,15.45,30.63,1.8,1.93,4,2.68,6.35,1.75s2.6-3.14,2.78-5.33a17.17,17.17,0,0,0-2.27-10.43,62.3,62.3,0,0,1-8.78-27.61c-.61-8.85-2.29-17.84,4.52-25.41.93-1,1.15-2.72,1.62-4.13,3.81-11.56,6.3-23.33,6.24-35.58,0-3.82,1-4.65,4-3s5.63,1.21,8.49.27a3.31,3.31,0,0,1-.28,1.22c-9.49,13.14-13.67,28.35-16.88,43.89-1.12,5.46-2.17,10.89-5,15.78a7.89,7.89,0,0,0-1.11,5.53c1.6,8.58,2.64,17.24,7.56,24.93,3.07,4.8,5.59,10.14,4.46,16.3-.36,2,1.15,3,2.57,4,5,3.62,9.95,7.35,15,10.93,8.34,5.95,13.36,13.68,13.15,24.23,0,2.61,1.11,4.39,2.93,6.07,6.32,5.83,9.56,13.06,8.94,21.7-.24,3.31,1.07,5.53,3.07,8,8.1,10,8.59,23.63,1.08,33.21-7,9-16.79,12.31-27.41,9.18-7.76-2.29-14.27-1.33-21.49,1.32-9.39,3.46-19.16,5.88-28.77,8.77a71.13,71.13,0,0,0-18.34,9c-2,1.29-2.85,2.51-2.3,5.2,1,4.89-.82,7.7-5.4,9.42a32.68,32.68,0,0,1-6.19,1.58c-6.62,1.09-12.5,4.28-18.63,6.69A20.7,20.7,0,0,0,1418,924c-12.89,12.15-27.28,22.52-40.41,34.35-12.89,11.61-27.88,19.56-43.43,26.76-9.77,4.53-19.33,4.8-28.72-1a12.14,12.14,0,0,0-5.37-1.88c-8.73-.74-16.44-4.43-24-8.53a26.05,26.05,0,0,1-12.36-14.14c-1.82-4.86-2.58-5.33-7.6-4.66-10.66,1.42-20.81,4.53-30,10.24-6.37,4-13.3,6.78-20.07,9.9-8.91,4.12-18,7.82-26.91,12-12.4,5.74-24.11,12.78-36,19.45a14.71,14.71,0,0,0-5.59,6c-5.57,10.18-14.59,15.37-25.69,17a14.23,14.23,0,0,0-9.74,5.22,29.07,29.07,0,0,1-17.91,10.33c-5.76,1-9.06,5.28-12.19,9.62-2.12,2.93-4.08,5.83-7.2,8-9.3,6.46-18.68,6.69-28.16.88-6.54-4-12.84-8.4-19.16-12.75a21.76,21.76,0,0,1-5.2-5.61c-5.27-7.48-12.25-11.63-21.67-11.29a32.48,32.48,0,0,1-16.56-4.28c-12.75-6.81-26.29-10.63-40.56-13.11-15.51-2.7-31.05-5.68-46.27-9.93a100.82,100.82,0,0,1-35.57-18.22c-17.39-13.62-30.86-30.6-44.37-47.67-8.34-10.55-16.45-21.26-24-32.37-4.62-6.76-12.09-10-18.51-14.52-1.8-1.26-4.16-.62-6.27-.85-7.71-.85-14.43-3.42-18.3-10.81a37.16,37.16,0,0,1,4.48.06c2.9.37,4-1.07,5-3.62,1.33-3.48-.28-6.3-1.34-9.21-4.57-12.5-12-23.52-19.21-34.49-8.19-12.49-15.13-25.66-22.72-38.46a60.46,60.46,0,0,0-10.94-13.18c-1.07-1-2.54-1.63-3.5-2.73-8.81-10.1-17.68-20.16-27.3-29.51-7.65-7.43-13.69-16.26-21-24-5.7-6-10.21-13-15.79-19.15A215.34,215.34,0,0,1,606.57,680c-4.81-7.33-9.6-14.9-11-23.61-2.31-14.65-5.37-29.36-4-44.29.58-6.34-2.14-11.05-5-15.86s-7.86-5-11.6-.62c-1.42,1.66-2.77,3.55-2.6,5.7.5,6.45-1.54,12.67-1.41,19.06.08,4.12-1.21,7.93-2.46,11.78-1.32,4.05-3.6,6.6-8.17,6.35q3.68-15.88,7.37-31.77a113.09,113.09,0,0,1,2.9-11.14c1-2.76.39-4.78-1.1-7.15-6.89-10.93-6.64-20.49,1-30.89a11.44,11.44,0,0,0,2.58-8.81,30.91,30.91,0,0,1,3.56-18.59,14,14,0,0,0,1.3-11c-2-7.27-2.65-14.66-.78-22.15a36.2,36.2,0,0,0,1.37-11.4c-.18-2.44.85-4.58,1.86-6.72,3.89-8.27,5.13-17.12,5.5-26.12.12-3,.08-6,1-8.89a145.28,145.28,0,0,1,13-29.14,18.85,18.85,0,0,1,8.31-7.78,7.14,7.14,0,0,0,4.41-6.47c.8-11.5,2.25-22.92,3.61-34.37.83-6.91-.36-14.05-.56-21.09a194.2,194.2,0,0,1,.45-20.46,29.9,29.9,0,0,0-3.72-17.88c-6.76-11.57-10.38-24.3-13-37.33a26.62,26.62,0,0,1,3.25-19.16,12.74,12.74,0,0,0,1.64-7.87c-.65-8.94-1.27-17.86-2.55-26.75-.9-6.22,1-12.3,2.47-18.32a37.13,37.13,0,0,0,1.22-11.39,34.09,34.09,0,0,1,1-10.17c1.48-6.45,3-12.88,4.66-19.28,2-7.77,6.29-14,13.34-18,6.75-3.9,11.08-9.48,13.71-17,7.25-20.64,24.92-29.53,47.63-25.89a14.19,14.19,0,0,1,4.34,1.08c6.35,3.33,12.77,1.94,19.32.84,5.47-.91,10.74-2.74,16.2-3.5,9.78-1.36,19.6-.71,29.37.41,7.21.82,14.46,1.47,21.5,3.3,3.11.8,5.35-.17,7.27-2.61,3.95-5,7.67-10.29,12.06-14.91,6.61-7,13.61-13.55,20.63-20.11,3.61-3.37,7.25-6.73,9.75-11,12.94-22,41.59-29.26,63.42-23.37,14.37,3.88,27,10.47,36.7,22.07a16.46,16.46,0,0,0,10.15,6c8.83,1.66,16.82,6,25.46,8.48,9,2.57,18.22,4.7,26.3,9.82a9.12,9.12,0,0,0,5,1,205.19,205.19,0,0,1,28,2.41c7.64,1.07,15.32.82,23,1.83a156.22,156.22,0,0,1,41.09,11.65,78,78,0,0,0,10.23,3.68,22.34,22.34,0,0,1,14.62,11.51,6.66,6.66,0,0,0,5.32,4c2.1.31,4.14,1.06,6.24,1.38a94.84,94.84,0,0,1,23.8,7.32c8,3.54,15.63,7.71,24,10.55,7.69,2.63,13.21,8.76,16.92,15.89,2.44,4.69,3.84,4.68,8,2.57,15.74-8.07,32.64-7.19,49.52-6.56.36,0,.7.44,1,.68-.79,1.69-2.4,1.37-3.83,1.69-2.86.63-3.36,2.28-1.33,4.39a14,14,0,0,0,3.08,2.22c3.49,2,7.17,3.78,10.5,6,11.45,7.76,21.38,16.46,24,31.37a245.32,245.32,0,0,0,8.41,33.28c3.17,9.75,8.26,18.61,12.78,27.74,3.83,7.74,9.15,14.26,14.88,20.58,8.91,9.82,19.85,17.31,30,25.62a53.39,53.39,0,0,1,16.41,23c6.67,17.5,13.51,34.91,22.2,51.52,8.13,15.54,13.19,32.17,17.88,49,1.76,6.31,2.48,13,5.76,18.83,3.11,5.55,7.26,9.42,14.24,8.81A43.63,43.63,0,0,1,1425,444.05ZM991.74,1011.56c-4.14,0-7.56,0-11,0a10.43,10.43,0,0,0-7.47,3.11c-4.7,4.38-3.52,11.08,2.42,13.36a30,30,0,0,0,5.53,1.46c5.22.92,10.5,1.49,15.66,2.62,7.19,1.58,13.21,4.56,17.44,11.42a28.78,28.78,0,0,0,25.06,14c10.94.09,21.25-3.4,30.86-8.68,2.42-1.33,4.77-2.79,7.15-4.21,8.69-5.17,19-7.55,26.17-15.38a2.29,2.29,0,0,1,1.07-.67c5.83-1.35,9.93-5.61,14.75-8.67,5-3.2,10.74-5.54,15.14-9.42a86.07,86.07,0,0,1,15-10.67c2.78-1.56,5.78-2.83,8.33-4.72,8.5-6.31,18.42-9.79,27.91-14,11.85-5.31,24-10,35.38-16.26a175.08,175.08,0,0,1,19.72-8.93c9.61-3.84,19.36-4.72,29.23-.9,3.76,1.46,7.48,3,11.25,4.49,4.49,1.72,8,3.92,7,9.75-.59,3.42,1.36,5.64,4.72,6.56,8.69,2.38,17.38,4.19,26.21.48,6.67-2.8,13.43-5.36,20.07-8.21,2.49-1.07,5.37-1.45,7.23-3.85,2.81-3.63,6.76-4.71,11.18-5.23,9-1,17.28-3.74,24-10.53a47.34,47.34,0,0,1,11.25-8.3,90,90,0,0,0,23.8-18,19.26,19.26,0,0,1,4.57-3.41,72.8,72.8,0,0,1,23.26-8.36,11.41,11.41,0,0,0,6.18-3.06c2.24-2.26,1.18-4.6.41-7.12s-2.39-2.53-4.41-2.66c-4.12-.27-8,.89-11.91,1.86-14.43,3.59-28.62,8-42.69,12.85a102.7,102.7,0,0,0-12.87,5.44c-4.69,2.33-10.14,3.08-15.17,4.8a59.86,59.86,0,0,1-20,3.16c-10.83-.11-21.68.84-32.53-1-5.37-.91-11,.54-16.47.85-10.19.58-20.28,1.63-30.42,2.66-9.93,1-19.78,2.64-29.49,4.58-21.57,4.3-42,12.21-61.82,21.73-14.39,6.93-27.79,15.67-41.24,24.26-8.22,5.26-16,11.24-24.48,16.07-11.69,6.67-24.49,10.88-37.3,14.89a140.23,140.23,0,0,1-25.42,5.68c-8.94,1.08-17.82-.86-26.7-1.54C1009.17,1013.1,1000.18,1011.29,991.74,1011.56Zm297.94-328c-1,4.67,1.24,9.11,1.25,13.83,0,11.05,7.53,18.55,18.56,18a54.49,54.49,0,0,1,24.23,4.42,47.89,47.89,0,0,0,9.69,3,11.16,11.16,0,0,1,6.48,3.63c5.86,6.33,13,11,20.49,15,5.57,3,11.72,3.75,17.68.5a8.09,8.09,0,0,1,4.31-.87,11.43,11.43,0,0,0,6.69-1.85c3.9-2.63,8.27-4.32,12.22-6.75,2.65-1.64,5-2.08,7.79-1a86.56,86.56,0,0,0,17.58,5.48,10.72,10.72,0,0,1,3.49,1.48,13.27,13.27,0,0,0,10.92,1.34c4.06-1.22,4.9-3.28,1.9-6.27-4.2-4.2-8.32-8.47-13-12.3-5.88-4.87-12-9.5-17.61-14.67-15.06-13.89-27.74-29.83-39.57-46.55a309.15,309.15,0,0,1-31.73-57.45c-3.42-8-7-16-8.93-24.52-1.17-5.33-5-7.22-9.31-8.49-4.58-1.33-7.83,1-10,4.93-1.48,2.71-3.69,3.48-6.72,4-13,2-22.12,11-24.19,24.29-1.16,7.5.9,14.74.31,22.11-.16,2,1.69,4,.84,6.21-1.75,4.45-.83,9.24-2,13.83a22.58,22.58,0,0,0,.15,10.8,32.85,32.85,0,0,1-.32,17C1290,676.28,1289.08,679.81,1289.68,683.59Zm-493,39.5c-3.66.35-6.34-.5-8.54,1.39a16.48,16.48,0,0,1-7.53,3.35c-8.16,1.76-12.49,7.43-15.52,14.54-1.74,4.06-.94,6.27,3,8.34a29.72,29.72,0,0,0,4.68,2A67.89,67.89,0,0,1,796,765.58a41.63,41.63,0,0,0,7.53,4.76c9.6,5.08,19.68,9.14,29.75,13.15a64.67,64.67,0,0,1,26.06,18.94,60.43,60.43,0,0,0,11.17,10.26c8.61,6.2,17.2,12.5,26.82,17.14,4.6,2.22,9.22,4.28,14.6,3.67,4.44-.51,8.37-4.18,8.77-8.55.57-6.09-1-11.43-5.59-15.62a46.78,46.78,0,0,1-6.44-7.88c-5.54-7.82-9.07-16.8-14.42-24.73-1.91-2.84-1.81-6-1.76-9.26,0-3,0-5.85-1.35-8.72-2.92-6-8.09-9-14-11.35-3.2-1.28-6.43-1.68-9.21.19-4.64,3.11-9.71,2.65-14.76,2.53-4.44-.1-8.93.7-13.34-.64-5.08-1.55-10.16-3.09-15.3-4.39-2.12-.54-3.63-1.33-3.72-3.64-.23-5.78-4.08-8.08-9-9.18-3.06-.69-5.43-1.88-7.09-4.78C802.79,724.05,799.62,722.45,796.7,723.09ZM767.09,314.25a53.9,53.9,0,0,0-4.65-16.49c-4.17-8.85-9.45-17.14-13.16-26.21-3.18-7.76-9.15-13.37-15.26-18.63-7.51-6.46-13.2-4.65-17.41,4.32-2.15,4.57-4.44,9.24-8.34,12.73a14.2,14.2,0,0,0-3.94,5.75c-3.11,8.57-6.18,17.16-9.09,25.8-1,3-1.83,6-.32,9.3.76,1.66.34,3.75-.13,5.66-1,3.91-1.6,7.9-2.73,11.76a13.87,13.87,0,0,0,2.56,13.17c.94,1.2,1.94,2.32,1.84,3.94-.25,4.44.36,8.86-.73,13.34-1,4.07-2.2,8.22-1.82,12.56.52,6,5.2,8.91,10.19,5.93A47.16,47.16,0,0,1,714,373a42.36,42.36,0,0,0,11.68-6.36c7.93-5.76,14.84-12.69,22.11-19.22a67,67,0,0,0,15.31-19.18A40.86,40.86,0,0,0,767.09,314.25ZM943,530.84c2.4.26,3.76.18,4.77-.63,4-3.13,9.08-4.58,12.42-8.59.82-1,2-1.85,2.35-3,2.72-8,8.81-12.79,15.58-17,2.22-1.38,4.47-2.86,5.14-5.42.85-3.27,3-3.89,5.77-3.63,9.17.84,18.17-1.75,27.33-1.33,3.68.17,7.69-2.6,7.78-5.22.11-3.53-2.7-5.2-5.37-6.43a26,26,0,0,0-11.1-2.43c-7.46,0-14.92.12-22.38,0a14.92,14.92,0,0,0-9.49,3,59.1,59.1,0,0,1-11.7,6.39c-5.56,2.37-11.45,3.12-17.17,4.52-5,1.22-10.37,2-15.55-.19-6.28-2.69-13-3.68-19.63-5.28-6.37-1.54-12.88-2.45-19.21-4.24-3.69-1.05-7.83.89-8.8,3.49-1.28,3.44.16,6.86,3.83,9.11,1.45.88,3.23,1.47,4.31,2.68,3.92,4.4,9.36,5.64,14.53,7.49,2.77,1,6.61.23,8.27,2.4s1.43,5.59,2,8.48a4.18,4.18,0,0,1,.08,1.27c-.54,4.63,2.51,7.42,5.86,9.07C929.32,528.62,936.93,529.07,943,530.84Zm-86.4-323.12c-1.53,7.71,8.75,16.68,14.75,16.69s9.85,2.51,13.07,7a31.44,31.44,0,0,0,2.69,2.73c2.39,2.54,5.26,3.06,8,1.16,2.15-1.47,4.33-1.55,6.67-1.58,1.7,0,3.56.22,5.07-.37,7.62-3,15.78-3.12,23.64-4.74,8.29-1.71,16.77-2.76,24.86-5.14,10-2.94,20.14-5.35,29.57-10,2.77-1.38,5.68-2.82,9-3.14a6.92,6.92,0,0,0,4.84-2.91c4.23-6.1,8.66-12.15,9-20,.23-5.84,1.35-7.29,7.07-7.35,3.76,0,5.8-1.7,7.52-4.79,1.62-2.89,1.85-6.05,2.65-9.11.71-2.75,1.84-5.76-1.25-7.43s-4.5,1.54-6.23,3.2c-3.85,3.7-5.84,9.66-12.43,10-.5,0-1,.77-1.43,1.24-2.72,3-5.79,5.56-8.07,9-4.73,7.15-11.22,12.78-17.22,18.82a10.87,10.87,0,0,1-4.28,2.74c-8.64,2.87-17.33,5.65-26.07,8.15-12.59,3.6-25.6,5.65-38.57,7.6-2.81.42-6.1,1.17-8.58-1.19-5.84-5.56-11.71-11.11-14.58-19-2-5.53-5.87-7.55-11.49-6-2.87.77-5.76,1.5-8.58,2.43C860,197.78,856.69,202,856.59,207.72Zm344.5,218.07c.24-5.08.36-8.93-2.56-12.05-1.88-2-3.3-2-4.22.6a102.74,102.74,0,0,1-5.89,12.73,33.32,33.32,0,0,0-3.9,16.54,49.27,49.27,0,0,1-1,12.66c-.76,3.23-1.12,6.71-1.75,10-1.08,5.65-.9,11.37-2.08,17-1.11,5.35-3.49,10.56-2.81,16.23.19,1.61-.54,3.63,1.66,4.37s3.68-.42,5-2c.41-.49.68-1.09,1.09-1.58,4.67-5.66,14.26-5.25,17.72,1.16,3.58,6.62,8.91,9.3,16.09,9.09a20.66,20.66,0,0,1,5.62.93c2.24.57,4.61.82,6.79-.59,4-2.62,4.87-6.46,2.12-11.11-3.68-6.2-8.05-12-10.24-19a4.33,4.33,0,0,0-1.05-1.58c-5.43-5.71-9.47-12.44-13.87-18.91-1.19-1.75-2.71-3.26-3.53-5.27-3.4-8.36-6.09-16.78-3.18-26A8.08,8.08,0,0,0,1201.09,425.79Zm-52,370.47a51.38,51.38,0,0,0,6.06,0c4.8-.67,7.92-6.18,5.54-10-1.34-2.14-3.07-4.49-5.57-5.06-4.82-1.08-8.91-3.61-13.24-5.67-3.64-1.73-7.17-3.67-10.86-5.26s-7-1.63-9.9,1.65a8.08,8.08,0,0,1-1.89,1.71,2.13,2.13,0,0,1-1.7.2c-.73-.3-.57-1.11-.2-1.63.61-.87,1.45-1.57,2-2.46,1.68-2.64,1.36-4.93-.89-6.77s-4.56-1.93-6.29.15c-4.72,5.65-11.51,8.76-16.57,13.91-5.78,5.87-13.17,6.78-20.56,6.16a33.77,33.77,0,0,1-16.1-5.66,7.66,7.66,0,0,0-4-1.74c-3-.13-4.52,1.81-3.19,4.41a10,10,0,0,0,2.42,2.92c3.71,3.17,7.35,6.45,11.31,9.28,2.24,1.6,3.71,4.86,6.51,4.89,5.83.08,11.88,1.88,17.48-1.28,1.46-.82,2.56-.53,2.71,1.17.34,3.73,2.71,4.43,5.82,4.26,1.91-.1,4,.28,5.72-.27,11.41-3.58,23.34-4,35-6a7.67,7.67,0,0,1,4.4.32C1145.38,796.5,1147.74,796.21,1149.11,796.26Zm-97.95,161c-1.08-6.43-3.12-13-11.43-15.71-4-1.29-8.52-2.22-11.5-5.27-4.18-4.26-9.52-5.19-14.74-6.86-8.09-2.58-16-5.53-22.29-11.72-3.58-3.5-7.57-6.85-12.82-8-3.48-.75-5.87.58-6.37,4.09a11.38,11.38,0,0,0,.12,5.07c1,3.12,1,6.27,1.06,9.45a12.1,12.1,0,0,0,.67,3.73c2.43,6.56,5.11,12.93,9.68,18.45,4.2,5.06,8,6.43,14.47,5.28,3.24-.58,5.61-3,8.88-3.15,9.61-.26,19.1-.11,27.79,5a41,41,0,0,1,7.17,5.22c1.93,1.79,4.36,1.74,6.56.59C1050.41,962.43,1051.51,960.61,1051.16,957.25ZM626,618.34a6.68,6.68,0,0,0,5.21-2.11c5.34-5.49,11.21-10.49,15-17.39,2.15-4,4.33-8.05,3.93-12.55-.82-9-4.54-17.21-9-25a17.2,17.2,0,0,0-4.85-5,4.86,4.86,0,0,0-6.47.25c-1.83,1.73-1.31,3.82,0,5.79s2.81,4.26,4.17,6.42a4.11,4.11,0,0,1,.16,4.77c-2.59,4.11-2.9,8.73-3,13.46-.19,8.7-1.88,16.9-9,23a8.52,8.52,0,0,0-1.69,1.91c-1.49,2.43-.81,4.58,1.85,5.65A22.24,22.24,0,0,0,626,618.34Z" transform="translate(-536.46 -12.37)"/><path class="cls-2" d="M1425,444.05a43.63,43.63,0,0,0-5.11-.11c-7,.61-11.13-3.26-14.24-8.81-3.28-5.85-4-12.52-5.76-18.83-4.69-16.8-9.75-33.43-17.88-49-8.69-16.61-15.53-34-22.2-51.52a53.39,53.39,0,0,0-16.41-23c-10.17-8.31-21.11-15.8-30-25.62-5.73-6.32-11-12.84-14.88-20.58-4.52-9.13-9.61-18-12.78-27.74a245.32,245.32,0,0,1-8.41-33.28c-2.6-14.91-12.53-23.61-24-31.37-3.33-2.26-7-4-10.5-6a14,14,0,0,1-3.08-2.22c-2-2.11-1.53-3.76,1.33-4.39,1.43-.32,3,0,3.83-1.69a33.25,33.25,0,0,1,12.61,3.48c.29.54.45,1.4.9,1.59,5.65,2.44,10.38,6.63,16.36,8.47a10.87,10.87,0,0,1,6.45,5.79c3.69,6.93,7.67,13.72,11.47,20.59,3.52,6.38,6.77,12.83,5.92,20.5a11.89,11.89,0,0,0,.53,3.75c1.66,7.22,3.75,14.37,4.93,21.67,1,5.91,2,11.07,8.76,12.94,1.81.5,2,3.61,4,3.84,4.39.51,7.1,3.49,10.25,6,1.6,1.27,3.21,3,5.45,3.15,4,.29,6.64,2.64,9.09,5.36,5.25,5.83,12.65,8.41,19,12.61.45.3,1.25.07,1.89.09l6.46,2.92c.16,1.62.57,2.8,2.43,1.33,3.48-1.29,6.92-.67,10.36.19.64,2,1.49,2.39,2.7.4a9.13,9.13,0,0,1,6.19,1c3.73,2.28,7.72,1.74,11.69,1.81,1,1.55,2.58,1.36,4,1.25a16.76,16.76,0,0,1,8.63,1.94c10.5,5.16,19.84,11.6,24.31,23.19,1.11,2.85,2.55,5.7.37,8.41-2.41,3-5.15,5.83-9.74,4.11-2.21-.83-3.24.37-3.22,2.51,0,3.18-.45,6.4.56,9.52a18.58,18.58,0,0,0,.57,16.34,11,11,0,0,1,.54,3.05c-2.39,1.5-1.45,2.24.62,2.72,2.18,8.88,1.58,17.32-4.25,24.77a10.5,10.5,0,0,0-2,6.5c-.33,7.63,1.71,14.75,4.42,21.72,1.93,5,3.79,9.94,5.22,15.06,2.22,8,1.13,15.17-4.71,21.33A13,13,0,0,0,1425,444.05Z" transform="translate(-536.46 -12.37)"/><path class="cls-2" d="M560.31,638.5c4.57.25,6.85-2.3,8.17-6.35,1.25-3.85,2.54-7.66,2.46-11.78-.13-6.39,1.91-12.61,1.41-19.06-.17-2.15,1.18-4,2.6-5.7,3.74-4.38,8.64-4.3,11.6.62s5.62,9.52,5,15.86c-1.36,14.93,1.7,29.64,4,44.29,1.37,8.71,6.16,16.28,11,23.61a215.34,215.34,0,0,0,21.21,27.87C633.36,714,637.87,721,643.57,727c7.36,7.7,13.4,16.53,21,24,9.62,9.35,18.49,19.41,27.3,29.51,1,1.1,2.43,1.72,3.5,2.73a60.46,60.46,0,0,1,10.94,13.18c7.59,12.8,14.53,26,22.72,38.46,7.2,11,14.64,22,19.21,34.49,1.06,2.91,2.67,5.73,1.34,9.21-1,2.55-2.12,4-5,3.62a37.16,37.16,0,0,0-4.48-.06c-2.68-2-3.6-5.61-6.71-7.18,1.11-3.57-1.88-5.32-3.41-7.73-7-11.06-13.45-22.45-19.58-34-2.9-5.48-6.73-10.69-11.58-14.06-5.29-3.69-9.75-8-14.36-12.37-1.37-1.29-2.53-3-4.76-2.75a82.58,82.58,0,0,0-13.12-12.84c-3.87-3-7.4-6.35-11.06-9.57-1.91-1.67-3.57-3.73-5.7-5a51.67,51.67,0,0,1-18.48-18.78c-1.74-3.07-5.18-4.22-8-6.12,0-.84,0-1.8-.81-2.18s-1.51.23-1.83,1.09c-4.1-.58-8.13-1.35-11.52-4,0-.63.14-1.42-.18-1.85-2.94-4.06-5.72-8.3-9.09-12-1.66-1.82-3.36-4.45-6.61-4.08-4.34-2.76-7.73-6.52-11-10.45-.23-1.68-.4-3.47-2.55-1.27a5.8,5.8,0,0,1-5.19-5.19c2-1.74.89-2.34-1-2.62a12.81,12.81,0,0,1-1.74-6.3c2.22-1.62,1.1-2.26-.79-2.68a12.3,12.3,0,0,1-1.7-6.31c2.06-1.54,1.22-2.26-.74-2.67a19.52,19.52,0,0,1-1.81-7.59c2.05-1.52,1.21-2.25-.74-2.66a2.83,2.83,0,0,1-.59-2.45c2.09-1.53,1.26-2.26-.73-2.67-2.8-7-5.53-14-5.82-21.63,2.26-1.48,1.38-2.22-.62-2.72a5.15,5.15,0,0,1-.74-3.67c2.32-1.76,2.32-3.55.06-5.37A3.92,3.92,0,0,1,560.31,638.5Z" transform="translate(-536.46 -12.37)"/><path class="cls-2" d="M1517.36,652.73c-2.86.94-5.48,1.39-8.49-.27s-4.06-.85-4,3c.06,12.25-2.43,24-6.24,35.58-.47,1.41-.69,3.09-1.62,4.13-6.81,7.57-5.13,16.56-4.52,25.41a62.3,62.3,0,0,0,8.78,27.61,17.17,17.17,0,0,1,2.27,10.43c-.18,2.19-.54,4.45-2.78,5.33s-4.55.18-6.35-1.75c-8.13-8.71-13.9-18.31-15.45-30.63-1.34-10.71-2.36-21.46-3.56-32.19-.64-5.78.81-11.42,1.89-17,2.9-15,3.48-29.92-1.18-44.74-1.4-4.45-2.4-9-3.65-13.52-2.88-10.33-7.72-19.83-12.64-29.28A257.76,257.76,0,0,1,1444,557.13c-3.56-10.68-7.41-21.24-9-32.44,0-.21-.16-.4-.21-.61-1.76-8.08-.94-9.25,7-10.05,3.56,8.37,8,16.34,10.3,25.26,1.89,7.17,6.49,13.37,8.45,20.6.41,1.52,1.84,2.24,3,3.2a127.1,127.1,0,0,1,22.31,25.13c-.15,1-.42,2.22.94,2.52.94.2,1.34-.66,1.46-1.54,2.25-1.93,4.68-2.93,7.6-1.52,1.83,2.92,2.38,3,5.26.67l9,5a32.46,32.46,0,0,0,6.69,12.73c2.38,2.76,4.4,5.86,4.12,8.94-.6,6.77.54,13.39.54,20.07,0,1.36-1.07,2.29-1.51,3.44-1.23,3.17-2.38,6.44.8,9.27A8.45,8.45,0,0,1,1517.36,652.73Z" transform="translate(-536.46 -12.37)"/><path class="cls-1" d="M1427.25,328.28c-1-3.12-.53-6.34-.56-9.52,0-2.14,1-3.34,3.22-2.51,4.59,1.72,7.33-1.12,9.74-4.11,2.18-2.71.74-5.56-.37-8.41-4.47-11.59-13.81-18-24.31-23.19a16.76,16.76,0,0,0-8.63-1.94c-1.45.11-3,.3-4-1.25,3.84-1.69,7.59-3.61,11.53-5a22.76,22.76,0,0,1,17.41.59A42.89,42.89,0,0,1,1448,286c6,7.76,4.22,23.29-2.27,30.23C1440.46,321.9,1434.1,325.34,1427.25,328.28Z" transform="translate(-536.46 -12.37)"/><path class="cls-1" d="M1362.48,269.68c-.64,0-1.44.21-1.89-.09-6.32-4.2-13.72-6.78-19-12.61-2.45-2.72-5.14-5.07-9.09-5.36-2.24-.17-3.85-1.88-5.45-3.15-3.15-2.51-5.86-5.49-10.25-6-2-.23-2.22-3.34-4-3.84-6.72-1.87-7.81-7-8.76-12.94-1.18-7.3-3.27-14.45-4.93-21.67a11.89,11.89,0,0,1-.53-3.75c.85-7.67-2.4-14.12-5.92-20.5-3.8-6.87-7.78-13.66-11.47-20.59a10.87,10.87,0,0,0-6.45-5.79c-6-1.84-10.71-6-16.36-8.47-.45-.19-.61-1-.9-1.59,2.33-.46,4.1,1,5.92,1.95,4.47,2.43,8.54,5.56,13.78,6.54,2.83.53,4.56,3,5.87,5.57,4.53,8.71,8.87,17.51,14.08,25.85a19.89,19.89,0,0,1,3,9.69c.38,8.21,3.57,15.22,8.78,21.53s8.51,13.31,8.22,21.67c-.09,2.68.69,4.61,3.63,5.06a1.23,1.23,0,0,1,.6.2c7.87,6.8,18.49,9.25,26.06,16.64,3,2.94,6.87,5,10.26,7.61C1359.38,266.89,1361.63,267.47,1362.48,269.68Z" transform="translate(-536.46 -12.37)"/><path class="cls-1" d="M679.73,804c2.23-.21,3.39,1.46,4.76,2.75,4.61,4.33,9.07,8.68,14.36,12.37,4.85,3.37,8.68,8.58,11.58,14.06,6.13,11.57,12.57,23,19.58,34,1.53,2.41,4.52,4.16,3.41,7.73-6.24-1-10.12-5.19-13.2-10.14a29.93,29.93,0,0,0-7-8.13,23.27,23.27,0,0,1-8.63-13.84,11.41,11.41,0,0,0-4.24-6.82,24.1,24.1,0,0,1-8.92-14.38,11.36,11.36,0,0,0-4.28-6.83C683.73,811.89,680.56,808.71,679.73,804Z" transform="translate(-536.46 -12.37)"/><path class="cls-1" d="M1520.68,647.82c-3.18-2.83-2-6.1-.8-9.27.44-1.15,1.51-2.08,1.51-3.44,0-6.68-1.14-13.3-.54-20.07.28-3.08-1.74-6.18-4.12-8.94a32.46,32.46,0,0,1-6.69-12.73c6.84,1.29,11.17,5.91,14.6,11.44C1532.42,617.34,1530.58,636.38,1520.68,647.82Z" transform="translate(-536.46 -12.37)"/><path class="cls-1" d="M593.38,728.66c3.25-.37,5,2.26,6.61,4.08,3.37,3.68,6.15,7.92,9.09,12,.32.43.13,1.22.18,1.85-5.34-1.32-8.51-5.32-11.5-9.46A27,27,0,0,1,593.38,728.66Z" transform="translate(-536.46 -12.37)"/><path class="cls-1" d="M1501,588.35c-2.88,2.32-3.43,2.25-5.26-.67C1497.64,587.08,1499.48,586.6,1501,588.35Z" transform="translate(-536.46 -12.37)"/><path class="cls-1" d="M557.74,642.41c2.26,1.82,2.26,3.61-.06,5.37C556.32,646,556.19,644.18,557.74,642.41Z" transform="translate(-536.46 -12.37)"/><path class="cls-1" d="M1429,350.39c-2.07-.48-3-1.22-.62-2.72A1.83,1.83,0,0,1,1429,350.39Z" transform="translate(-536.46 -12.37)"/><path class="cls-1" d="M1488.18,589.2c-.12.88-.52,1.74-1.46,1.54-1.36-.3-1.09-1.5-.94-2.52A3.39,3.39,0,0,1,1488.18,589.2Z" transform="translate(-536.46 -12.37)"/><path class="cls-1" d="M1384.43,274.52c-1.21,2-2.06,1.56-2.7-.4A1.79,1.79,0,0,1,1384.43,274.52Z" transform="translate(-536.46 -12.37)"/><path class="cls-1" d="M558.42,651.45c2,.5,2.88,1.24.62,2.72A2,2,0,0,1,558.42,651.45Z" transform="translate(-536.46 -12.37)"/><path class="cls-1" d="M564.86,675.8c2,.41,2.82,1.14.73,2.67A1.93,1.93,0,0,1,564.86,675.8Z" transform="translate(-536.46 -12.37)"/><path class="cls-1" d="M566.18,680.92c2,.41,2.79,1.14.74,2.66A1.87,1.87,0,0,1,566.18,680.92Z" transform="translate(-536.46 -12.37)"/><path class="cls-1" d="M568.73,691.17c2,.41,2.8,1.13.74,2.67A1.9,1.9,0,0,1,568.73,691.17Z" transform="translate(-536.46 -12.37)"/><path class="cls-1" d="M571.17,700.15c1.89.42,3,1.06.79,2.68A2,2,0,0,1,571.17,700.15Z" transform="translate(-536.46 -12.37)"/><path class="cls-1" d="M573.7,709.13c1.88.28,3,.88,1,2.62A1.88,1.88,0,0,1,573.7,709.13Z" transform="translate(-536.46 -12.37)"/><path class="cls-1" d="M579.88,716.94c2.15-2.2,2.32-.41,2.55,1.27A2.11,2.11,0,0,1,579.88,716.94Z" transform="translate(-536.46 -12.37)"/><path class="cls-1" d="M1371.37,273.93c-1.86,1.47-2.27.29-2.43-1.33C1370.13,272.34,1371.36,272,1371.37,273.93Z" transform="translate(-536.46 -12.37)"/><path class="cls-1" d="M620.78,750.56c.32-.86.93-1.51,1.83-1.09s.84,1.34.81,2.18A2.1,2.1,0,0,1,620.78,750.56Z" transform="translate(-536.46 -12.37)"/><path class="cls-2" d="M991.74,1011.56c8.44-.27,17.43,1.54,26.51,2.23,8.88.68,17.76,2.62,26.7,1.54a140.23,140.23,0,0,0,25.42-5.68c12.81-4,25.61-8.22,37.3-14.89,8.46-4.83,16.26-10.81,24.48-16.07,13.45-8.59,26.85-17.33,41.24-24.26,19.77-9.52,40.25-17.43,61.82-21.73,9.71-1.94,19.56-3.56,29.49-4.58,10.14-1,20.23-2.08,30.42-2.66,5.48-.31,11.1-1.76,16.47-.85,10.85,1.83,21.7.88,32.53,1a59.86,59.86,0,0,0,20-3.16c5-1.72,10.48-2.47,15.17-4.8a102.7,102.7,0,0,1,12.87-5.44c14.07-4.8,28.26-9.26,42.69-12.85,3.86-1,7.79-2.13,11.91-1.86,2,.13,3.67.19,4.41,2.66s1.83,4.86-.41,7.12a11.41,11.41,0,0,1-6.18,3.06,72.8,72.8,0,0,0-23.26,8.36,19.26,19.26,0,0,0-4.57,3.41,90,90,0,0,1-23.8,18,47.34,47.34,0,0,0-11.25,8.3c-6.68,6.79-15,9.49-24,10.53-4.42.52-8.37,1.6-11.18,5.23-1.86,2.4-4.74,2.78-7.23,3.85-6.64,2.85-13.4,5.41-20.07,8.21-8.83,3.71-17.52,1.9-26.21-.48-3.36-.92-5.31-3.14-4.72-6.56,1-5.83-2.47-8-7-9.75-3.77-1.44-7.49-3-11.25-4.49-9.87-3.82-19.62-2.94-29.23.9a175.08,175.08,0,0,0-19.72,8.93c-11.36,6.26-23.53,11-35.38,16.26-9.49,4.25-19.41,7.73-27.91,14-2.55,1.89-5.55,3.16-8.33,4.72a86.07,86.07,0,0,0-15,10.67c-4.4,3.88-10.11,6.22-15.14,9.42-4.82,3.06-8.92,7.32-14.75,8.67a2.29,2.29,0,0,0-1.07.67c-7.14,7.83-17.48,10.21-26.17,15.38-2.38,1.42-4.73,2.88-7.15,4.21-9.61,5.28-19.92,8.77-30.86,8.68a28.78,28.78,0,0,1-25.06-14c-4.23-6.86-10.25-9.84-17.44-11.42-5.16-1.13-10.44-1.7-15.66-2.62a30,30,0,0,1-5.53-1.46c-5.94-2.28-7.12-9-2.42-13.36a10.43,10.43,0,0,1,7.47-3.11C984.18,1011.59,987.6,1011.56,991.74,1011.56Z" transform="translate(-536.46 -12.37)"/><path class="cls-2" d="M1289.68,683.59c-.6-3.78.29-7.31,1.25-10.79a32.85,32.85,0,0,0,.32-17,22.58,22.58,0,0,1-.15-10.8c1.19-4.59.27-9.38,2-13.83.85-2.16-1-4.16-.84-6.21.59-7.37-1.47-14.61-.31-22.11,2.07-13.29,11.17-22.28,24.19-24.29,3-.47,5.24-1.24,6.72-4,2.15-4,5.4-6.26,10-4.93,4.34,1.27,8.14,3.16,9.31,8.49,1.88,8.53,5.51,16.53,8.93,24.52a309.15,309.15,0,0,0,31.73,57.45c11.83,16.72,24.51,32.66,39.57,46.55,5.61,5.17,11.73,9.8,17.61,14.67,4.63,3.83,8.75,8.1,13,12.3,3,3,2.16,5.05-1.9,6.27a13.27,13.27,0,0,1-10.92-1.34,10.72,10.72,0,0,0-3.49-1.48,86.56,86.56,0,0,1-17.58-5.48c-2.77-1.12-5.14-.68-7.79,1-4,2.43-8.32,4.12-12.22,6.75a11.43,11.43,0,0,1-6.69,1.85,8.09,8.09,0,0,0-4.31.87c-6,3.25-12.11,2.47-17.68-.5-7.5-4-14.63-8.69-20.49-15a11.16,11.16,0,0,0-6.48-3.63,47.89,47.89,0,0,1-9.69-3,54.49,54.49,0,0,0-24.23-4.42c-11,.51-18.54-7-18.56-18C1290.92,692.7,1288.67,688.26,1289.68,683.59Z" transform="translate(-536.46 -12.37)"/><path class="cls-2" d="M796.7,723.09c2.92-.64,6.09,1,8,4.39,1.66,2.9,4,4.09,7.09,4.78,4.88,1.1,8.73,3.4,9,9.18.09,2.31,1.6,3.1,3.72,3.64,5.14,1.3,10.22,2.84,15.3,4.39,4.41,1.34,8.9.54,13.34.64,5.05.12,10.12.58,14.76-2.53,2.78-1.87,6-1.47,9.21-.19,5.87,2.34,11,5.3,14,11.35,1.39,2.87,1.4,5.75,1.35,8.72-.05,3.22-.15,6.42,1.76,9.26,5.35,7.93,8.88,16.91,14.42,24.73a46.78,46.78,0,0,0,6.44,7.88c4.6,4.19,6.16,9.53,5.59,15.62-.4,4.37-4.33,8-8.77,8.55-5.38.61-10-1.45-14.6-3.67-9.62-4.64-18.21-10.94-26.82-17.14a60.43,60.43,0,0,1-11.17-10.26,64.67,64.67,0,0,0-26.06-18.94c-10.07-4-20.15-8.07-29.75-13.15a41.63,41.63,0,0,1-7.53-4.76,67.89,67.89,0,0,0-23.19-12.86,29.72,29.72,0,0,1-4.68-2c-3.91-2.07-4.71-4.28-3-8.34,3-7.11,7.36-12.78,15.52-14.54a16.48,16.48,0,0,0,7.53-3.35C790.36,722.59,793,723.44,796.7,723.09Z" transform="translate(-536.46 -12.37)"/><path class="cls-2" d="M767.09,314.25a40.86,40.86,0,0,1-4,13.94,67,67,0,0,1-15.31,19.18c-7.27,6.53-14.18,13.46-22.11,19.22A42.36,42.36,0,0,1,714,373a47.16,47.16,0,0,0-9.91,4.23c-5,3-9.67,0-10.19-5.93-.38-4.34.83-8.49,1.82-12.56,1.09-4.48.48-8.9.73-13.34.1-1.62-.9-2.74-1.84-3.94a13.87,13.87,0,0,1-2.56-13.17c1.13-3.86,1.77-7.85,2.73-11.76.47-1.91.89-4,.13-5.66-1.51-3.28-.68-6.32.32-9.3,2.91-8.64,6-17.23,9.09-25.8a14.2,14.2,0,0,1,3.94-5.75c3.9-3.49,6.19-8.16,8.34-12.73,4.21-9,9.9-10.78,17.41-4.32,6.11,5.26,12.08,10.87,15.26,18.63,3.71,9.07,9,17.36,13.16,26.21A53.9,53.9,0,0,1,767.09,314.25Z" transform="translate(-536.46 -12.37)"/><path class="cls-2" d="M943,530.84c-6.06-1.77-13.67-2.22-20.36-5.5-3.35-1.65-6.4-4.44-5.86-9.07a4.18,4.18,0,0,0-.08-1.27c-.59-2.89-.4-6.38-2-8.48s-5.5-1.41-8.27-2.4c-5.17-1.85-10.61-3.09-14.53-7.49-1.08-1.21-2.86-1.8-4.31-2.68-3.67-2.25-5.11-5.67-3.83-9.11,1-2.6,5.11-4.54,8.8-3.49,6.33,1.79,12.84,2.7,19.21,4.24,6.59,1.6,13.35,2.59,19.63,5.28,5.18,2.22,10.52,1.41,15.55.19,5.72-1.4,11.61-2.15,17.17-4.52a59.1,59.1,0,0,0,11.7-6.39,14.92,14.92,0,0,1,9.49-3c7.46.16,14.92.08,22.38,0a26,26,0,0,1,11.1,2.43c2.67,1.23,5.48,2.9,5.37,6.43-.09,2.62-4.1,5.39-7.78,5.22-9.16-.42-18.16,2.17-27.33,1.33-2.79-.26-4.92.36-5.77,3.63-.67,2.56-2.92,4-5.14,5.42-6.77,4.19-12.86,9-15.58,17-.38,1.13-1.53,2-2.35,3-3.34,4-8.46,5.46-12.42,8.59C946.75,531,945.39,531.1,943,530.84Z" transform="translate(-536.46 -12.37)"/><path class="cls-2" d="M856.59,207.72c.1-5.72,3.42-9.94,9.61-12,2.82-.93,5.71-1.66,8.58-2.43,5.62-1.51,9.48.51,11.49,6,2.87,7.86,8.74,13.41,14.58,19,2.48,2.36,5.77,1.61,8.58,1.19,13-1.95,26-4,38.57-7.6,8.74-2.5,17.43-5.28,26.07-8.15a10.87,10.87,0,0,0,4.28-2.74c6-6,12.49-11.67,17.22-18.82,2.28-3.46,5.35-6,8.07-9,.43-.47.93-1.21,1.43-1.24,6.59-.37,8.58-6.33,12.43-10,1.73-1.66,3.21-4.83,6.23-3.2s2,4.68,1.25,7.43c-.8,3.06-1,6.22-2.65,9.11-1.72,3.09-3.76,4.75-7.52,4.79-5.72.06-6.84,1.51-7.07,7.35-.3,7.87-4.73,13.92-9,20a6.92,6.92,0,0,1-4.84,2.91c-3.31.32-6.22,1.76-9,3.14-9.43,4.67-19.61,7.08-29.57,10-8.09,2.38-16.57,3.43-24.86,5.14-7.86,1.62-16,1.79-23.64,4.74-1.51.59-3.37.35-5.07.37-2.34,0-4.52.11-6.67,1.58-2.78,1.9-5.65,1.38-8-1.16a31.44,31.44,0,0,1-2.69-2.73c-3.22-4.5-6.93-7-13.07-7S855.06,215.43,856.59,207.72Z" transform="translate(-536.46 -12.37)"/><path class="cls-2" d="M1201.09,425.79A8.08,8.08,0,0,1,1201,429c-2.91,9.17-.22,17.59,3.18,26,.82,2,2.34,3.52,3.53,5.27,4.4,6.47,8.44,13.2,13.87,18.91a4.33,4.33,0,0,1,1.05,1.58c2.19,7,6.56,12.83,10.24,19,2.75,4.65,1.92,8.49-2.12,11.11-2.18,1.41-4.55,1.16-6.79.59a20.66,20.66,0,0,0-5.62-.93c-7.18.21-12.51-2.47-16.09-9.09-3.46-6.41-13-6.82-17.72-1.16-.41.49-.68,1.09-1.09,1.58-1.29,1.56-2.84,2.71-5,2s-1.47-2.76-1.66-4.37c-.68-5.67,1.7-10.88,2.81-16.23,1.18-5.64,1-11.36,2.08-17,.63-3.26,1-6.74,1.75-10a49.27,49.27,0,0,0,1-12.66,33.32,33.32,0,0,1,3.9-16.54,102.74,102.74,0,0,0,5.89-12.73c.92-2.57,2.34-2.6,4.22-.6C1201.45,416.86,1201.33,420.71,1201.09,425.79Z" transform="translate(-536.46 -12.37)"/><path class="cls-2" d="M1149.11,796.26c-1.37,0-3.73.24-6-.75a7.67,7.67,0,0,0-4.4-.32c-11.66,2-23.59,2.39-35,6-1.76.55-3.81.17-5.72.27-3.11.17-5.48-.53-5.82-4.26-.15-1.7-1.25-2-2.71-1.17-5.6,3.16-11.65,1.36-17.48,1.28-2.8,0-4.27-3.29-6.51-4.89-4-2.83-7.6-6.11-11.31-9.28a10,10,0,0,1-2.42-2.92c-1.33-2.6.2-4.54,3.19-4.41a7.66,7.66,0,0,1,4,1.74,33.77,33.77,0,0,0,16.1,5.66c7.39.62,14.78-.29,20.56-6.16,5.06-5.15,11.85-8.26,16.57-13.91,1.73-2.08,4.16-1.89,6.29-.15s2.57,4.13.89,6.77c-.57.89-1.41,1.59-2,2.46-.37.52-.53,1.33.2,1.63a2.13,2.13,0,0,0,1.7-.2,8.08,8.08,0,0,0,1.89-1.71c2.86-3.28,6.35-3.18,9.9-1.65s7.22,3.53,10.86,5.26c4.33,2.06,8.42,4.59,13.24,5.67,2.5.57,4.23,2.92,5.57,5.06,2.38,3.8-.74,9.31-5.54,10A51.38,51.38,0,0,1,1149.11,796.26Z" transform="translate(-536.46 -12.37)"/><path class="cls-2" d="M1051.16,957.25c.35,3.36-.75,5.18-2.75,6.23-2.2,1.15-4.63,1.2-6.56-.59a41,41,0,0,0-7.17-5.22c-8.69-5.15-18.18-5.3-27.79-5-3.27.1-5.64,2.57-8.88,3.15-6.5,1.15-10.27-.22-14.47-5.28-4.57-5.52-7.25-11.89-9.68-18.45a12.1,12.1,0,0,1-.67-3.73c-.08-3.18,0-6.33-1.06-9.45a11.38,11.38,0,0,1-.12-5.07c.5-3.51,2.89-4.84,6.37-4.09,5.25,1.13,9.24,4.48,12.82,8,6.34,6.19,14.2,9.14,22.29,11.72,5.22,1.67,10.56,2.6,14.74,6.86,3,3.05,7.52,4,11.5,5.27C1048,944.23,1050.08,950.82,1051.16,957.25Z" transform="translate(-536.46 -12.37)"/><path class="cls-2" d="M626,618.34a22.24,22.24,0,0,1-3.69-.84c-2.66-1.07-3.34-3.22-1.85-5.65a8.52,8.52,0,0,1,1.69-1.91c7.09-6.06,8.78-14.26,9-23,.11-4.73.42-9.35,3-13.46a4.11,4.11,0,0,0-.16-4.77c-1.36-2.16-2.72-4.32-4.17-6.42s-1.88-4.06,0-5.79a4.86,4.86,0,0,1,6.47-.25,17.2,17.2,0,0,1,4.85,5c4.48,7.76,8.2,15.94,9,25,.4,4.5-1.78,8.59-3.93,12.55-3.74,6.9-9.61,11.9-15,17.39A6.68,6.68,0,0,1,626,618.34Z" transform="translate(-536.46 -12.37)"/><g class="cls-3"><path class="cls-4" d="M821.34,951.58a1.71,1.71,0,0,1-.55-.82c.14-3.21-1.78-4.7-4.56-5.48-.57-.71-1.15-1.41-1.73-2.12-.13-3.76-2.69-5.47-5.73-6.76a1.93,1.93,0,0,1-.55-.86c.24-2.43-1-3.7-3.26-4.19a1.82,1.82,0,0,1-.53-.87c.26-2.43-1-3.68-3.24-4.18a1.8,1.8,0,0,1-.55-.86c.09-3.1-1.8-4.61-4.45-5.48a1.87,1.87,0,0,1-.59-.85c-.15-.8-.05-1.77-.48-2.36-3.89-5.33-7.85-10.61-11.83-15.87a5.17,5.17,0,0,0-3.48-2.4L777,895.72c-1.41-4-5.75-4.61-8.37-7.19-2.88-2.85-6.26-3.72-10.27-3.89-8.55-.36-15.34-4.33-19.62-11.79a13.42,13.42,0,0,0-6.85-6.06c-4.15-1.72-8.21-4-10.24-8-2.26-4.5-5.66-7.83-9.24-11A21.91,21.91,0,0,1,705,834.91a7,7,0,0,0-3.39-4.93c-5.05-3.55-7.9-8.69-9.28-14.55A15,15,0,0,0,688,808c-2.09-2.05-4.58-3.83-5.86-6.55-2.94-6.28-6.16-12.47-8.44-19-1.14-3.24-2.14-4.85-5.75-5.25-5.45-.6-10.63-2.31-14.78-6.34a14.34,14.34,0,0,0-4.37-2.48,25.78,25.78,0,0,1-14.11-13.7c-1.2-2.77-3-5.26-6-6.12-4.24-1.21-8.08-3.45-12.48-4.29-4.62-.89-8.56-3.39-12.12-6.43-1.11-.95-2.05-2.14-3.67-2.24a1.73,1.73,0,0,1-.55-.85,12.81,12.81,0,0,0-5.61-9.3l-2.84-2.77a13.53,13.53,0,0,0-7.38-7.31,1.86,1.86,0,0,1-.57-.84c-.15-.81,0-1.84-.5-2.39-7-8.46-9.13-18.24-8.27-28.92.3-3.66-1.48-6.36-3.85-9a31,31,0,0,1-7.43-13c-2.16-8.17-.83-16.31.4-24.33,2.14-14.08,5.67-27.9,9.25-41.69a12,12,0,0,0-1.38-9.64c-5.37-9.17-4.43-18.17,1.37-26.65A15.09,15.09,0,0,0,576,548.32a30.31,30.31,0,0,1,3.49-17.66,14.34,14.34,0,0,0,1-11c-1.85-7-2.89-14-.61-21.09,1.44-4.5,1.41-9.13,1.18-13.74a29,29,0,0,1,3.24-14.58,37.39,37.39,0,0,0,4.36-18.19,23.45,23.45,0,0,1,1.22-7.42c2-6.73,5.83-12.59,8.41-19a27.66,27.66,0,0,1,10.87-13.46c4.32-2.76,6-6.52,6.1-11.64.07-7.53,1.28-15,2.13-22.47.44-3.92,1.95-7.67,1.27-11.82-1.87-11.48-1.1-23.08-.59-34.61.27-6.17.23-12.11-2.79-17.56a127.78,127.78,0,0,1-12.6-32.84c-.3-1.29-.54-2.46-1.9-3-.11-.79-.23-1.59-.34-2.39,1.44-1.6.89-3.58.83-5.38a18.61,18.61,0,0,1,2.57-10.77c3.8-6,2.34-12.45,2.27-18.81,0-.9-.83-1.38-1.56-1.79,0-1.24-.07-2.49-.11-3.73.91-2.33,1.59-4.64-1-6.4-.09-.81-.19-1.61-.29-2.42,1.48-5.44.41-11.18,2.06-16.64,1.09-3.58,2.53-7.35,2.33-11-.54-9.42,2.26-18.13,4.14-27.12,2.29-10.93,7.61-19.19,17.36-24.78a21.53,21.53,0,0,0,9.84-12.6A48.1,48.1,0,0,1,644.56,122a4.13,4.13,0,0,0,.8-2.93,21,21,0,0,1,4.91-5.08,3.87,3.87,0,0,0,3-.73c7.34-5,15.43-7,24.31-6.78,5.55.15,10.67,1.71,15.9,3.13,3.5,1,7.24,2.31,10.37-1.08l2.41-.26c2.06,1.37,3.87,1.44,5.17-1L715,107c1,1.14,2.28,1,3.46.41,4.54-2.1,9.37-1.93,14.21-2.1,13.72-.49,27.17,1.52,40.58,3.94,2.59.46,5.27,2.13,7.48-.79,1.71-2.26,4.93-3.51,4.72-7a1.82,1.82,0,0,1,.56-.85c3-1.29,5.6-3,5.73-6.76a1.84,1.84,0,0,1,.58-.82A47.9,47.9,0,0,0,807.3,78l3.37-3.08c1.94.37,3.05-.93,4.28-2.06,8-7.31,13.42-16.73,20.17-25.06a1.9,1.9,0,0,1,.9-.59c2.28.15,4-1.21,5.69-2.36a47,47,0,0,1,23.11-7.49c20.94-1.39,39.34,5,54.18,20.18,4.65,4.74,9.19,9.13,16.26,9.64,1.41.1,2.78.92,4.16,1.42,3.93,1.43,7.82,3,11.77,4.33,10.66,3.7,22.13,5.21,31.83,11.57a5.46,5.46,0,0,0,2.37.71c9,.85,17.94,1.43,26.85,2.55,7.31.91,14.7.53,21.92,1.47,17.07,2.21,33.71,6.18,49.54,13.42,6.43,2.94,10.53,7.16,12.74,13.55.63,1.83,1.64,3.06,3.53,3,3.82-.12,7.4,1.27,11.19,1.5a57.21,57.21,0,0,1,14.78,2.7,194.92,194.92,0,0,1,22.11,9.1c7.11,3.41,14.48,6.29,21.73,9.4a22.42,22.42,0,0,1,5,5c.64,4.11,3.7,6.89,5.72,10.23,1,1.68,2.89,1.33,4.52.46,13.19-7,27.5-8.07,42-7.9,1.44,0,3,.3,4.22-.74l2.45.18a2.73,2.73,0,0,0,2.39,1.68c5,.32,9.45,2.73,14.2,4,3.15.85,5.62,3.52,9.12,3.46a2.11,2.11,0,0,1,.92.43c.57,2.65,3.14,3.22,4.9,4.58,6,4.68,11.6,9.78,14.38,17.13,1.94,5.13,4.53,9.94,6.85,14.88,1.07,2.27,2.34,4.62,2.64,7.05,1.1,8.9,5.27,16.2,10.87,22.95,5.74,6.93,7.4,15.07,5.38,23.69-.88,3.72.7,5,3.46,6.15,4.67,1.88,9.51,3.41,14,5.63,5.18,2.56,9.55,6.39,10.8,12.32,1,4.84,3.67,6.84,8.28,8.08,8.09,2.18,16.57,2.64,24.45,5.75a7.93,7.93,0,0,0,5,0c3.93-1.22,7.91-.81,11.88-.95,3.16-.1,6.39.28,9.44-.31,8.18-1.59,16.22-1.17,24.35.25,9.93,1.73,17.89,13.88,16,24.19-1.7,9.19-6.59,15.64-14.28,20.41-1.74,1.08-3.55,2-4.24,4.37-2.61,9.1-7,17.51-10.34,26.36-1.46,3.94-1.65,7.44,1.31,11.15a23.78,23.78,0,0,1,4.56,21.38c-.75,3-1,6.25-2,9.2-1.15,3.36-.49,6,1.5,8.78,4.51,6.31,5.62,13.57,4.58,21a72.2,72.2,0,0,0-.78,9.37c-.06,8.42.16,16.84-.16,25.25a91.66,91.66,0,0,0,3.63,28.57,11.62,11.62,0,0,0,3.7,6.34c8.3,6.73,11.32,15.73,11.82,26.06.32,6.81,1.89,13.24,7.9,17.7a17.61,17.61,0,0,1,6.46,10.62c2.17,10.81,8.75,18.89,15.23,27.14,1.17,1.49,2.4,3,4.66,2.59a1.76,1.76,0,0,1,.84.52c3.88,5.93,8.1,7.59,14.63,6.42,16.13-2.89,26,2.45,31.65,17a33.84,33.84,0,0,1-5.46,34.56c-10.57,13.08-16.73,28.07-20.3,44.17-2.15,9.69-4,19.26-11,26.91-1.59,1.72-1.34,4-1,6.5.84,6.86,3.3,13.47,3.09,20.48a7.27,7.27,0,0,0,2,5.18c4.6,4.89,8.84,10.28,14.86,13.51,5.41,2.91,10,6.9,14.91,10.46,6,4.35,10.61,10.29,10.8,17.75.16,6.1,2.67,10.34,6.44,14.34a18.39,18.39,0,0,1,5.22,13.75c-.21,5.12,1.44,9,4.74,13.08,11.34,14.1,3.41,31.9-7.66,36.45a29.77,29.77,0,0,1-20.23,1c-3.9-1.11-7.6-2.08-11.63-.34-8.11,3.5-16.71,5.53-25.16,8s-17,4.79-24.62,9.47c-5.19,3.18-10.54,6.12-15.51,9.61-3.49,2.46-8.14,3.64-10,8.18a1.81,1.81,0,0,1-.86.54,23.85,23.85,0,0,0-13,9.61,1.76,1.76,0,0,1-.84.52c-3.13-.13-4.64,1.74-5.51,4.42a2,2,0,0,1-.86.59c-3.71.25-5.51,2.7-6.67,5.87l-3.43,3c-4.63,1.05-7.15,4.44-9.22,8.33a1.9,1.9,0,0,1-.82.57c-5.39,2.36-10.25,5.38-13,10.86l-2.16,1.72a3.37,3.37,0,0,0-2.92.84c-11.69,10.94-25.72,18-40.23,24.25-8.91,3.81-17.83,4.41-26.48-1.1-1.92-1.22-4-2.59-6.36-2.58-7.67,0-14.3-3.2-20.78-6.67-7.18-3.84-12.18-9.43-13.44-17.9-.87-5.86-5.48-8.66-11.32-7.75-8.88,1.39-17.63,4.24-26.76,3.18-6.93-.81-12.61,1.68-18.31,5.22-13.54,8.42-26.5,17.8-40.54,25.4-6.45,3.49-12.36,8.14-19.58,10-4.46,1.17-6.61,3.6-7.13,8.26-1.33,11.84-14.65,25.73-28.24,26.77a13.3,13.3,0,0,0-10.18,5.36c-3.75,4.82-8.8,8.44-14.52,9.39-5.46.9-9.25,3.85-13.1,6.92-2.93,2.34-5.91,4.69-8.68,7.25-8,7.4-19,8.16-28.53,2.87a86.6,86.6,0,0,1-12.7-9.23,217.86,217.86,0,0,1-17.51-16.32c-2.46-2.52-5.14-4.31-9-2.66-1.09.47-2.48.23-3.73.37-6.81.74-12.74-1.73-18.65-4.71-8.06-4.07-16.25-7.76-25.27-9.42-14.61-2.7-29.21-5.54-43.72-8.72s-29-6.83-41.75-15.22c-1.51-1-2.8-2.69-5-2.27a1.87,1.87,0,0,1-.88-.54c-.87-2.66-2.37-4.54-5.46-4.49a2,2,0,0,1-.86-.57c-.85-2.67-2.37-4.53-5.47-4.47a69.48,69.48,0,0,1-11.33-11.28C827.89,955.28,824.82,953.25,821.34,951.58Z" transform="translate(-536.46 -12.37)"/><path class="cls-5" d="M1466.58,586.42c-2.26.42-3.49-1.1-4.66-2.59-6.48-8.25-13.06-16.33-15.23-27.14a17.61,17.61,0,0,0-6.46-10.62c-6-4.46-7.58-10.89-7.9-17.7-.5-10.33-3.52-19.33-11.82-26.06a11.62,11.62,0,0,1-3.7-6.34,91.66,91.66,0,0,1-3.63-28.57c.32-8.41.1-16.83.16-25.25a72.2,72.2,0,0,1,.78-9.37c1-7.44-.07-14.7-4.58-21-2-2.78-2.65-5.42-1.5-8.78,1-2.95,1.22-6.16,2-9.2a23.78,23.78,0,0,0-4.56-21.38c-3-3.71-2.77-7.21-1.31-11.15,3.31-8.85,7.73-17.26,10.34-26.36.69-2.38,2.5-3.29,4.24-4.37,7.69-4.77,12.58-11.22,14.28-20.41,1.91-10.31-6-22.46-16-24.19-8.13-1.42-16.17-1.84-24.35-.25-3.05.59-6.28.21-9.44.31-4,.14-8-.27-11.88.95a7.93,7.93,0,0,1-5,0c-7.88-3.11-16.36-3.57-24.45-5.75-4.61-1.24-7.27-3.24-8.28-8.08-1.25-5.93-5.62-9.76-10.8-12.32-4.5-2.22-9.34-3.75-14-5.63-2.76-1.11-4.34-2.43-3.46-6.15,2-8.62.36-16.76-5.38-23.69-5.6-6.75-9.77-14.05-10.87-22.95-.3-2.43-1.57-4.78-2.64-7.05-2.32-4.94-4.91-9.75-6.85-14.88-2.78-7.35-8.33-12.45-14.38-17.13-1.76-1.36-4.33-1.93-4.9-4.58,9.63,3.45,16.22,10.35,20.59,19.24,2.41,4.89,4.59,9.92,7,14.84a37.32,37.32,0,0,1,3.62,10.74,36.39,36.39,0,0,0,8.31,18.11c6.14,7.47,9.68,15.75,8.32,25.6-.49,3.48.67,5.38,4.1,6.62,4.55,1.65,9,3.63,13.72,4.66,10.06,2.21,17.12,7.73,19.9,17.94.85,3.13,2.8,4.5,5.85,4.75a11,11,0,0,1,3.73.52c9.27,4.36,19,2.23,28.53,2a12.57,12.57,0,0,0,8.07-2.94c8.35-6.8,17.66-7.36,27.23-3.2a58.46,58.46,0,0,1,19.5,13.66c7.57,8.09,8.92,17.54,5.31,27.51s-11.67,14.75-21.68,15.87c-4,.44-6,1.71-7.37,5.29-2.7,7.07-5.61,14.06-8.64,21a9.19,9.19,0,0,0,1.14,10,26.06,26.06,0,0,1,4.56,22.11c-.41,1.84-.6,3.74-1.08,5.56-1.31,5-1.33,9.36,1.78,14.22,3.92,6.11,4.28,13.51,3.58,20.79-1.49,15.32-1.14,30.68-.89,46,.09,5.68,2.22,11.11,3.6,16.62a8.12,8.12,0,0,0,3.16,4.58c8.21,6.23,10.83,15.15,12.07,24.77a53.35,53.35,0,0,1,.83,6.24c.07,5,2.2,8.52,6.33,11.56a18.77,18.77,0,0,1,6.73,11.17c2.57,11.77,9.4,20.95,17.11,29.69A11.41,11.41,0,0,1,1466.58,586.42Z" transform="translate(-536.46 -12.37)"/><path class="cls-5" d="M852.39,980.93c2.2-.42,3.49,1.27,5,2.27,12.72,8.39,27.18,12,41.75,15.22s29.11,6,43.72,8.72c9,1.66,17.21,5.35,25.27,9.42,5.91,3,11.84,5.45,18.65,4.71,1.25-.14,2.64.1,3.73-.37,3.82-1.65,6.5.14,9,2.66a217.86,217.86,0,0,0,17.51,16.32,86.6,86.6,0,0,0,12.7,9.23c9.56,5.29,20.5,4.53,28.53-2.87,2.77-2.56,5.75-4.91,8.68-7.25,3.85-3.07,7.64-6,13.1-6.92,5.72-1,10.77-4.57,14.52-9.39a13.3,13.3,0,0,1,10.18-5.36c13.59-1,26.91-14.93,28.24-26.77.52-4.66,2.67-7.09,7.13-8.26,7.22-1.88,13.13-6.53,19.58-10,14-7.6,27-17,40.54-25.4,5.7-3.54,11.38-6,18.31-5.22,9.13,1.06,17.88-1.79,26.76-3.18,5.84-.91,10.45,1.89,11.32,7.75,1.26,8.47,6.26,14.06,13.44,17.9,6.48,3.47,13.11,6.69,20.78,6.67,2.39,0,4.44,1.36,6.36,2.58,8.65,5.51,17.57,4.91,26.48,1.1,14.51-6.22,28.54-13.31,40.23-24.25a3.37,3.37,0,0,1,2.92-.84c-3.67,6.24-10,9.48-15.66,13.29-8.9,6-18.67,10.53-28.6,14.61-8.4,3.45-16.78,3.42-24.9-1a24,24,0,0,0-7.72-2.5c-8.16-1.38-15.7-4.63-23-8.51s-11.49-10.22-13.61-18.07c-1.6-5.94-3.47-7.19-9.33-6.16-6.2,1.1-12.41,2.14-18.59,3.35-3.36.66-6.74,1-10,0-3.82-1.17-6.92-.05-10.09,1.95q-20,12.63-40.09,25.07a122.11,122.11,0,0,1-14.82,8.34c-8.63,3.79-14,10.08-17.34,18.76-4.87,12.45-14.52,19.28-27.62,21-3.79.51-6.51,1.68-8.94,4.88-4.2,5.54-10.28,8.76-17,10.09a17.45,17.45,0,0,0-12.57,9.58c-5.85,11.23-22.61,17.71-36.6,8.45a162.41,162.41,0,0,1-29.93-25c-3.2-3.47-6.37-4.75-11.08-3.81-7.35,1.48-14-1.58-20.59-4.39-4.05-1.73-8-3.78-12-5.71C948.31,1009.63,939,1009,930,1007c-18.82-4.25-38.09-6.65-56.32-13.38a85.89,85.89,0,0,1-18-9.08C854.3,983.57,852.81,982.77,852.39,980.93Z" transform="translate(-536.46 -12.37)"/><path class="cls-5" d="M1423.21,903.38c1.82-4.54,6.47-5.72,10-8.18,5-3.49,10.32-6.43,15.51-9.61,7.62-4.68,16.18-7,24.62-9.47s17-4.52,25.16-8c4-1.74,7.73-.77,11.63.34a29.77,29.77,0,0,0,20.23-1c11.07-4.55,19-22.35,7.66-36.45-3.3-4.1-5-8-4.74-13.08A18.39,18.39,0,0,0,1528,804.2c-3.77-4-6.28-8.24-6.44-14.34-.19-7.46-4.83-13.4-10.8-17.75-4.9-3.56-9.5-7.55-14.91-10.46-6-3.23-10.26-8.62-14.86-13.51a7.27,7.27,0,0,1-2-5.18c.21-7-2.25-13.62-3.09-20.48-.3-2.49-.55-4.78,1-6.5,7-7.65,8.86-17.22,11-26.91,3.57-16.1,9.73-31.09,20.3-44.17a33.84,33.84,0,0,0,5.46-34.56c-5.6-14.53-15.52-19.87-31.65-17-6.53,1.17-10.75-.49-14.63-6.42,6.3,4.51,12.79,4.32,20.42,3.17,10.29-1.55,20.81,4.63,26.05,15.32,6.31,12.89,5.39,25.67-2,37.93a93.64,93.64,0,0,1-5.49,7.7c-9.9,13.12-14.21,28.49-17.5,44.19-1.58,7.51-3.35,14.77-8.87,20.49a6.37,6.37,0,0,0-1.53,4.64c-.18,8.06,2.73,15.71,3.15,23.7a4.73,4.73,0,0,0,1.45,2.74c5.05,5,9.38,10.58,16,14a72.62,72.62,0,0,1,20.52,16.52,23.41,23.41,0,0,1,5.54,15.1c.11,3.15.83,5.59,3.19,7.81,6.14,5.8,9.16,13,8.48,21.51a8.29,8.29,0,0,0,1.86,6.4c8.5,10.38,9.68,22.33,3.41,32a27,27,0,0,1-31,10.9,22.64,22.64,0,0,0-16.38.74c-10,4-20.52,6.15-30.75,9.35a72.64,72.64,0,0,0-17,8.15c-7.11,4.47-14.21,9-21.34,13.42A8.93,8.93,0,0,1,1423.21,903.38Z" transform="translate(-536.46 -12.37)"/><path class="cls-5" d="M600.75,278.25c1.36.54,1.6,1.71,1.9,3a127.78,127.78,0,0,0,12.6,32.84c3,5.45,3.06,11.39,2.79,17.56-.51,11.53-1.28,23.13.59,34.61.68,4.15-.83,7.9-1.27,11.82-.85,7.48-2.06,14.94-2.13,22.47-.05,5.12-1.78,8.88-6.1,11.64a27.66,27.66,0,0,0-10.87,13.46c-2.58,6.43-6.45,12.29-8.41,19a23.45,23.45,0,0,0-1.22,7.42,37.39,37.39,0,0,1-4.36,18.19A29,29,0,0,0,581,484.86c.23,4.61.26,9.24-1.18,13.74-2.28,7.09-1.24,14.14.61,21.09a14.34,14.34,0,0,1-1,11A30.31,30.31,0,0,0,576,548.32a15.09,15.09,0,0,1-2.94,10.61c-5.8,8.48-6.74,17.48-1.37,26.65a12,12,0,0,1,1.38,9.64c-3.58,13.79-7.11,27.61-9.25,41.69-1.23,8-2.56,16.16-.4,24.33a31,31,0,0,0,7.43,13c2.37,2.6,4.15,5.3,3.85,9-.86,10.68,1.3,20.46,8.27,28.92.46.55.35,1.58.5,2.39-5.72-3.11-7.16-9.09-9.33-14.42a31.07,31.07,0,0,1-1.79-14.29A13.11,13.11,0,0,0,568.65,675c-7.77-8.47-9.35-18.79-8.16-30,1.8-16.79,6.43-32.95,10.29-49.28.7-3,.42-5.4-1.37-7.66-6.78-8.55-6-24.38,2.27-32.55,1.44-1.42,2.38-3,1.93-5-1.62-7.21.67-13.7,3.72-20,1.45-3,2.14-5.85,1.12-9.09-2.73-8.66-2.39-17.4-.32-26.12a18.36,18.36,0,0,0,.73-6.22c-.91-8,1.13-15.42,4.66-22.51a24.7,24.7,0,0,0,2.78-12.79c-.33-5.2,1.38-10,3.33-14.63,2.27-5.43,4.94-10.68,7.27-16.08a31.13,31.13,0,0,1,11.68-13.74,8.56,8.56,0,0,0,4.2-7.22c.57-10.28,1.33-20.52,3.55-30.62.44-2-.15-4.16-.25-6.25-.58-11.54-1-23.06-.14-34.63.45-5.79.06-11.56-3.27-16.93-6.38-10.31-9.59-21.88-12.22-33.61A5.08,5.08,0,0,1,600.75,278.25Z" transform="translate(-536.46 -12.37)"/><path class="cls-5" d="M1169.78,141.86c-7.25-3.11-14.62-6-21.73-9.4a194.92,194.92,0,0,0-22.11-9.1,57.21,57.21,0,0,0-14.78-2.7c-3.79-.23-7.37-1.62-11.19-1.5-1.89.06-2.9-1.17-3.53-3-2.21-6.39-6.31-10.61-12.74-13.55-15.83-7.24-32.47-11.21-49.54-13.42-7.22-.94-14.61-.56-21.92-1.47-8.91-1.12-17.9-1.7-26.85-2.55a5.46,5.46,0,0,1-2.37-.71c-9.7-6.36-21.17-7.87-31.83-11.57-4-1.38-7.84-2.9-11.77-4.33-1.38-.5-2.75-1.32-4.16-1.42-7.07-.51-11.61-4.9-16.26-9.64-14.84-15.18-33.24-21.57-54.18-20.18a47,47,0,0,0-23.11,7.49C840,46,838.3,47.32,836,47.17c5.61-6.65,13.53-9.09,21.47-10.73,24.63-5.09,45.48,2.76,63.42,19.64,1.83,1.72,3.48,3.64,5.25,5.44a6.21,6.21,0,0,0,3.69,2.28c6.39.63,12,3.71,17.95,5.68,7.58,2.51,15.22,4.83,22.83,7.24,1.6.5,3.41.71,4.76,1.6,8.35,5.51,18,4.65,27.26,5.93,19.08,2.64,38.6,1.94,57.3,7.48,2.61.78,5.27,1.4,7.86,2.24,9.77,3.15,19,7.62,29.16,10a21.44,21.44,0,0,1,14.47,11.34,7.14,7.14,0,0,0,6,3.94c10.18,1.36,19.27,5.7,28.35,10.1,4.9,2.37,9.67,5,15.08,6.24C1164.52,136.41,1168,138.12,1169.78,141.86Z" transform="translate(-536.46 -12.37)"/><path class="cls-5" d="M600.41,735.57c1.62.1,2.56,1.29,3.67,2.24,3.56,3,7.5,5.54,12.12,6.43,4.4.84,8.24,3.08,12.48,4.29,3,.86,4.78,3.35,6,6.12a25.78,25.78,0,0,0,14.11,13.7,14.34,14.34,0,0,1,4.37,2.48c4.15,4,9.33,5.74,14.78,6.34,3.61.4,4.61,2,5.75,5.25,2.28,6.51,5.5,12.7,8.44,19,1.28,2.72,3.77,4.5,5.86,6.55a15,15,0,0,1,4.34,7.48c1.38,5.86,4.23,11,9.28,14.55a7,7,0,0,1,3.39,4.93,21.91,21.91,0,0,0,7.45,12.81c3.58,3.22,7,6.55,9.24,11,2,4.05,6.09,6.3,10.24,8a13.42,13.42,0,0,1,6.85,6.06c4.28,7.46,11.07,11.43,19.62,11.79,4,.17,7.39,1,10.27,3.89,2.62,2.58,7,3.18,8.37,7.19-4.24-.93-7.3-4-10.67-6.32a12.84,12.84,0,0,0-7.53-2.55c-10.08-.25-17.59-5.07-22.7-13.6a9,9,0,0,0-5.07-4.31,21.71,21.71,0,0,1-11.87-9.87,33.69,33.69,0,0,0-7.29-8.59c-4.41-3.75-7.71-8.28-8.83-14.16a6.81,6.81,0,0,0-2.88-4.68c-5.47-3.76-8.6-9.17-10-15.52a8.78,8.78,0,0,0-4-6.07c-3.32-2.1-5.31-5.4-6.9-8.82-2.74-5.89-5.33-11.87-7.66-17.94-.94-2.45-2-3.66-4.81-4a25.63,25.63,0,0,1-15.75-7.2c-1.44-1.41-3.55-2.22-5.46-3.08-4.76-2.14-9-5.21-11-10-3.23-7.93-10.12-10.14-17.13-12.26-4.89-1.48-9.56-3.21-13.6-6.38C602.29,739.15,600.33,738.09,600.41,735.57Z" transform="translate(-536.46 -12.37)"/><path class="cls-5" d="M645.36,119.09a4.13,4.13,0,0,1-.8,2.93,48.1,48.1,0,0,0-5.75,12.44,21.53,21.53,0,0,1-9.84,12.6c-9.75,5.59-15.07,13.85-17.36,24.78-1.88,9-4.68,17.7-4.14,27.12.2,3.61-1.24,7.38-2.33,11-1.65,5.46-.58,11.2-2.06,16.64-2.73-3.14-1.43-6.79-1-10.18a87.92,87.92,0,0,1,2.46-12.33,28.7,28.7,0,0,0,.89-9.34,43,43,0,0,1,1.87-14.28c1.23-4.44,2.4-8.89,3.32-13.42a27.59,27.59,0,0,1,12.77-18.68c7-4.32,12.22-9.77,14.67-18C639.28,126.13,640.77,121.41,645.36,119.09Z" transform="translate(-536.46 -12.37)"/><path class="cls-5" d="M785.48,101.36c.21,3.54-3,4.79-4.72,7-2.21,2.92-4.89,1.25-7.48.79-13.41-2.42-26.86-4.43-40.58-3.94-4.84.17-9.67,0-14.21,2.1-1.18.55-2.42.73-3.46-.41,3.77-3.21,8.44-3.48,13-3.78a168.8,168.8,0,0,1,35.72,1.9c3.92.58,8,.25,11.8,1.67,1.91.71,3.65,0,5.16-1.44S783.25,101.89,785.48,101.36Z" transform="translate(-536.46 -12.37)"/><path class="cls-5" d="M1231.29,148.92c-1.26,1-2.78.75-4.22.74-14.55-.17-28.86.9-42,7.9-1.63.87-3.5,1.22-4.52-.46-2-3.34-5.08-6.12-5.72-10.23,2.9.88,4.15,3.36,5.36,5.77,1.3,2.58,3.27,3,5.74,2.13a22,22,0,0,0,2.32-.93c12.69-5.78,26.18-6.41,39.8-6.25C1229.26,147.6,1230.52,147.66,1231.29,148.92Z" transform="translate(-536.46 -12.37)"/><path class="cls-5" d="M703.8,108.55c-3.13,3.39-6.87,2-10.37,1.08-5.23-1.42-10.35-3-15.9-3.13-8.88-.22-17,1.78-24.31,6.78a3.87,3.87,0,0,1-3,.73c2.07-4.1,6.09-5.58,10-7a46.74,46.74,0,0,1,29.56-.92C694.41,107.48,699,108.61,703.8,108.55Z" transform="translate(-536.46 -12.37)"/><path class="cls-5" d="M604.52,239.11c.73.41,1.55.89,1.56,1.79.07,6.36,1.53,12.8-2.27,18.81a18.61,18.61,0,0,0-2.57,10.77c.06,1.8.61,3.78-.83,5.38-2.67-4.15-1.89-8.71-.13-12.56a42.18,42.18,0,0,0,3.78-22.39A5.56,5.56,0,0,1,604.52,239.11Z" transform="translate(-536.46 -12.37)"/><path class="cls-5" d="M835.12,47.76C828.37,56.09,823,65.51,815,72.82c-1.23,1.13-2.34,2.43-4.28,2.06Q821,62.24,831.42,49.59C832.33,48.49,833.42,47.42,835.12,47.76Z" transform="translate(-536.46 -12.37)"/><path class="cls-5" d="M1259.45,158.26c-3.5.06-6-2.61-9.12-3.46-4.75-1.29-9.18-3.7-14.2-4a2.73,2.73,0,0,1-2.39-1.68c7.25-1.06,13.38,2.49,19.71,5C1255.67,155,1258.34,155.6,1259.45,158.26Z" transform="translate(-536.46 -12.37)"/><path class="cls-5" d="M779.81,898.48a5.17,5.17,0,0,1,3.48,2.4c4,5.26,7.94,10.54,11.83,15.87.43.59.33,1.56.48,2.36-3.29-1-4.53-4.1-6.23-6.56C786.14,907.89,781.61,904.1,779.81,898.48Z" transform="translate(-536.46 -12.37)"/><path class="cls-5" d="M807.3,78a47.9,47.9,0,0,1-14.95,15c-.23-2,1.17-3.1,2.41-4.13C799,85.28,801.65,79.86,807.3,78Z" transform="translate(-536.46 -12.37)"/><path class="cls-5" d="M1368.94,947.66c2.8-5.48,7.66-8.5,13-10.86C1378.73,941.72,1374.17,945.09,1368.94,947.66Z" transform="translate(-536.46 -12.37)"/><path class="cls-5" d="M1409.34,913.53a23.85,23.85,0,0,1,13-9.61A30,30,0,0,1,1409.34,913.53Z" transform="translate(-536.46 -12.37)"/><path class="cls-5" d="M1382.81,936.23c2.07-3.89,4.59-7.28,9.22-8.33C1389.8,931.61,1387.2,934.91,1382.81,936.23Z" transform="translate(-536.46 -12.37)"/><path class="cls-5" d="M584,715.34a13.53,13.53,0,0,1,7.38,7.31A9.89,9.89,0,0,1,584,715.34Z" transform="translate(-536.46 -12.37)"/><path class="cls-5" d="M821.34,951.58c3.48,1.67,6.55,3.7,7,8C825.13,957.71,822.36,955.42,821.34,951.58Z" transform="translate(-536.46 -12.37)"/><path class="cls-5" d="M594.25,725.42a12.81,12.81,0,0,1,5.61,9.3C596,732.82,595,729.22,594.25,725.42Z" transform="translate(-536.46 -12.37)"/><path class="cls-5" d="M791.77,93.75c-.13,3.77-2.69,5.47-5.73,6.76C786.59,97.1,788.91,95.2,791.77,93.75Z" transform="translate(-536.46 -12.37)"/><path class="cls-5" d="M1395.46,924.93c1.16-3.17,3-5.62,6.67-5.87C1400.72,921.93,1398.76,924.2,1395.46,924.93Z" transform="translate(-536.46 -12.37)"/><path class="cls-5" d="M808.77,936.4c3,1.29,5.6,3,5.73,6.76C811.69,941.67,809.29,939.83,808.77,936.4Z" transform="translate(-536.46 -12.37)"/><path class="cls-5" d="M603.37,229c2.63,1.76,2,4.07,1,6.4C602.27,233.54,602.68,231.28,603.37,229Z" transform="translate(-536.46 -12.37)"/><path class="cls-5" d="M1403,918.47c.87-2.68,2.38-4.55,5.51-4.42C1407.4,916.45,1405.87,918.31,1403,918.47Z" transform="translate(-536.46 -12.37)"/><path class="cls-5" d="M796.19,920c2.65.87,4.54,2.38,4.45,5.48C798.23,924.37,796.34,922.87,796.19,920Z" transform="translate(-536.46 -12.37)"/><path class="cls-5" d="M816.23,945.28c2.78.78,4.7,2.27,4.56,5.48C818.38,949.67,816.56,948.1,816.23,945.28Z" transform="translate(-536.46 -12.37)"/><path class="cls-5" d="M839.72,970.86c3.1-.06,4.62,1.8,5.47,4.47C842.27,975.19,840.77,973.31,839.72,970.86Z" transform="translate(-536.46 -12.37)"/><path class="cls-5" d="M846.05,975.9c3.09,0,4.59,1.83,5.46,4.49C848.55,980.27,847.08,978.35,846.05,975.9Z" transform="translate(-536.46 -12.37)"/><path class="cls-5" d="M711.38,107.26c-1.3,2.47-3.11,2.4-5.17,1C707.67,106.63,709.47,106.65,711.38,107.26Z" transform="translate(-536.46 -12.37)"/><path class="cls-5" d="M801.19,926.3c2.23.5,3.5,1.75,3.24,4.18C802.45,929.79,801.1,928.6,801.19,926.3Z" transform="translate(-536.46 -12.37)"/><path class="cls-5" d="M805,931.35c2.25.49,3.5,1.76,3.26,4.19C806.22,934.86,804.87,933.67,805,931.35Z" transform="translate(-536.46 -12.37)"/></g><path d="M718.21,85.27c12.54,0,25.09.09,37.63-.06a53.54,53.54,0,0,0,8.83-1.27,26.66,26.66,0,0,0,16.47-10c11.89-14.5,24.6-28.25,39.23-40.1a104,104,0,0,1,33.46-18.18c17.69-5.79,34.5-4,50.35,5.57,10.57,6.37,20.84,13.23,31.23,19.9,2.32,1.49,4.57,3.11,6.86,4.67A64.3,64.3,0,0,0,972.5,57c9.94,1,20,1.39,29.9,2.31,11.23,1,22.46,2.1,33.63,3.6,18.21,2.45,34.89,9.14,50.46,18.86,8.11,5.06,16.38,9.93,24.82,14.43a134.39,134.39,0,0,0,15.88,6.66,40,40,0,0,0,18.18,2.56,42.87,42.87,0,0,1,20.61,3.24q6.81,2.74,13.42,6c5.63,2.73,10.7,6.39,14.19,11.61,5.55,8.32,13.24,10.83,22.68,9.43,8.42-1.25,16.82-2.73,25.27-3.69a129.46,129.46,0,0,1,17.82-.85c15.4.39,27.85,6.91,37.46,18.93a91.52,91.52,0,0,1,16.73,33.48c2.19,8,3.62,16.19,5.24,24.33,1.34,6.67,2.36,13.42,3.73,20.09a59.8,59.8,0,0,0,2.68,9.17c3.51,9.32,10.1,15.36,20,16.71,8.83,1.19,17.79,1.51,26.69,2.24,10.81.89,21.67,1.39,32.41,2.82A73.47,73.47,0,0,1,1441,274.21c10.42,8.28,16.7,19.16,19.8,32,2,8.37.14,15.94-6.64,21.34-15.61,12.44-21.79,29.5-24.32,48.33a167.5,167.5,0,0,0,.6,50.28c5.17,30.67,11.24,61.15,20.22,91,1.9,6.32,4,12.59,6.3,18.76a54.48,54.48,0,0,0,17.78,24.5c3.7,2.86,7.41,5.72,11.19,8.47a59.91,59.91,0,0,0,24.46,10.45,94,94,0,0,1,11.78,2.83c12.54,4.1,19.43,13.84,19.07,27.06a49,49,0,0,1-1.69,10.67,51.43,51.43,0,0,1-3.49,9.59c-12.18,25.42-20.41,52.34-29.67,78.85a97.41,97.41,0,0,0-3.56,13.57,20.79,20.79,0,0,0,5.27,18.93c5.18,5.64,10.39,11.26,15.42,17,21.71,25,34.68,54.38,42.62,86.19a57.48,57.48,0,0,1,1.52,13.91c0,9.19-4.6,15.72-12.89,19.6-1.92.9-4,1.54-6,2.25-7.62,2.69-15.33,5.12-22.85,8.08-23.36,9.2-46.72,18.44-70,28a381,381,0,0,0-68.43,37c-13.06,8.79-26.16,17.56-39.41,26.06a142.71,142.71,0,0,1-37,17,80.05,80.05,0,0,1-11.18,2.57c-13.49,1.93-24.86-2.32-33.62-12.73a117.89,117.89,0,0,1-10.31-14.57c-2.73-4.45-5.91-5.83-11.15-4.78-19.51,3.9-38.42,9.65-56.3,18.37-16.06,7.84-31.89,16.17-47.68,24.54a136.09,136.09,0,0,0-33.48,24.3c-10.67,10.8-22.83,19-37.44,23.47-9.55,2.93-18.87,6.64-28.49,9.33-16.61,4.64-30.1-.81-40.85-13.88-1.76-2.14-3.4-4.38-5.13-6.53-6.86-8.48-15.65-13-26.66-12.56-5.52.22-11,.63-16.55,1.24a126.31,126.31,0,0,1-38.76-1.71q-21-4.15-41.78-9.16c-6.38-1.54-12.56-4-18.76-6.23a41.67,41.67,0,0,1-14.51-9.11c-1.54-1.46-3.07-3-4.75-4.26-9.4-7.22-15.49-16.84-20.07-27.57-1.09-2.54-2.19-5.08-3.23-7.65-7-17.14-18.08-31.19-31.93-43.26-18.61-16.23-36.95-32.76-55.75-48.77a164.86,164.86,0,0,1-39.7-49.5A84.1,84.1,0,0,0,665.47,805a343,343,0,0,0-51.42-39.81c-15.65-9.89-31.27-19.87-45.57-31.72a80.35,80.35,0,0,1-15-15.59,41.49,41.49,0,0,1-6.54-15.12c-1.23-5.6-2.89-11.11-4.37-16.66-1.43-5.34-3-10.66-4.28-16a61,61,0,0,1,1.49-34.64c2.52-7.45,5.65-14.7,8.8-21.9a204.86,204.86,0,0,0,11.51-33.82c3.47-14.24,3.52-28.72,2-43.18-1.37-12.82-1.28-25.53,1.77-38.08,4.4-18.08,6.1-36.51,7.6-55,.49-5.93,1.61-11.81,2.41-17.71a41.37,41.37,0,0,1,14.34-26.33c11-9.58,9-9,9.15-20.77,0-2.34,0-4.68.15-7a199,199,0,0,0-1.19-38.88,35.43,35.43,0,0,1-.36-5.73,34.31,34.31,0,0,0-3-14.23,86.17,86.17,0,0,1-6.43-29.15c-.25-5.73-1-11.45-1.37-17.18-2.67-45.77,5-89.51,25.81-130.64,4.45-8.78,9.58-17.11,16.32-24.32C643.41,94.19,663.13,84.35,687,83.79c10.4-.25,20.83.34,31.25.55ZM700.63,106.8c-33.7-1.57-53.37,10.44-67.42,32.73-1.92,3.06-3.64,6.26-5.29,9.48-20.76,40.55-26.81,83.5-21,128.43,1.79,13.73,5.79,26.54,13.45,38.2a22.42,22.42,0,0,1,3.56,9.44c1.15,9.93,2.1,19.91,2.4,29.89.34,11-.18,22.13-.22,33.2,0,9.43-3.2,17.48-10,24.06-2.45,2.37-4.83,4.82-7.42,7a20.35,20.35,0,0,0-7.2,13.78c-.84,7.41-2.14,14.78-2.57,22.2A278.65,278.65,0,0,1,592.22,502a91.81,91.81,0,0,0-1.73,31.7A152.41,152.41,0,0,1,582,605.92c-3.52,9.35-7.19,18.68-11.36,27.75-5.8,12.6-6.94,25.23-2.55,38.48,2.68,8.07,4.73,16.35,7,24.56a18,18,0,0,0,5.6,9.12c5.64,4.85,11.15,9.92,17.23,14.18,12,8.42,24.3,16.49,36.65,24.43a358.94,358.94,0,0,1,51,40.31,109,109,0,0,1,22.61,29.06c7.25,13.85,16.22,26.49,28.1,36.88,18.75,16.39,37.2,33.13,56.19,49.23,20.52,17.39,36.94,37.61,46.43,63,.22.6.49,1.18.75,1.76,6.27,14.48,16.8,24.33,31.84,29.23,3.64,1.18,7.32,2.29,11,3.15,10,2.29,20,4.39,29.92,6.63a128.34,128.34,0,0,0,43.17,2,125.71,125.71,0,0,1,14.64-.86c20.15,0,36.09,8.48,48.17,24.47,1.29,1.7,2.53,3.42,3.77,5.16,3.33,4.69,7.74,6.54,13.34,4.88,5.09-1.51,10.19-3,15.19-4.83,6-2.15,11.82-4.91,17.9-6.8a37.75,37.75,0,0,0,16.28-9.63c1.79-1.82,3.77-3.45,5.57-5.26a155.29,155.29,0,0,1,34-25.69q21.68-12.25,43.63-24c23.46-12.62,48.49-20.71,74.66-25.35a69.27,69.27,0,0,1,11.42-.93,22.43,22.43,0,0,1,17.07,7.42,75.47,75.47,0,0,1,6.68,8.52c3,4.38,5.82,8.91,8.71,13.38,3.18,4.92,7.7,6.48,13.26,5.13a49.7,49.7,0,0,0,9.17-2.71c7.71-3.57,15.6-6.92,22.78-11.39,9.74-6.06,19-12.92,28.25-19.74,22.7-16.74,46.62-31.39,72.53-42.59q25.77-11.15,51.87-21.56c16.59-6.66,33.33-12.92,50-19.39,3.34-1.29,3.79-2.21,3.16-5.86a16.83,16.83,0,0,0-.46-1.86c-7.77-27.38-19.49-52.65-39-73.85a205.8,205.8,0,0,1-13.48-16.17c-7.57-10.14-10.56-21.66-9.5-34.29a91.28,91.28,0,0,1,5.74-24.16c5.92-16,11.89-31.92,18-47.8,4.07-10.52,8.59-20.87,12.71-31.37,3.26-8.3,2.61-9.49-5.93-11.14-11-2.12-21.44-5.65-30.76-11.9-6.89-4.62-13.59-9.54-20.11-14.67a74.68,74.68,0,0,1-23.89-32.57c-3.4-8.94-6.37-18.06-9.14-27.22-7.71-25.52-12.63-51.68-17.77-77.8a227.17,227.17,0,0,1-3.59-61c1.18-16,4-31.68,11.15-46.27,4.25-8.65,9.24-16.76,16.18-23.58,3.57-3.5,3.56-4.69,1.06-8.89a28,28,0,0,0-9.44-9.34,46.4,46.4,0,0,0-19.73-6.94c-10.56-1.16-21.17-2-31.79-2.6-9.78-.57-19.55-1.05-29.12-3.35-18-4.33-30.74-14.92-38.46-31.69-3.78-8.2-5.76-16.9-7.41-25.7s-3-17.64-4.92-26.37a78.31,78.31,0,0,0-11.21-27c-5.14-7.72-12.1-11.93-21.45-11.34-6.78.43-13.54,1.3-20.29,2.09-7,.81-13.9,2.15-20.89,2.58-16.54,1-30.49-4.12-41-17.61-7-9-16.6-13.85-28-14.54a98,98,0,0,1-28-6.08,176.75,176.75,0,0,1-33.16-16.35c-4.86-3.06-9.72-6.13-14.61-9.14-11.58-7.1-24-12-37.53-13.67-15.41-1.94-30.85-3.71-46.32-4.9-23-1.78-44.2-8-62.92-22.12-8.47-6.38-17.86-11.55-26.9-17.17A64.61,64.61,0,0,0,888,38.2a32,32,0,0,0-21.84-1.63c-7.65,2.06-15.08,4.75-21.64,9.24-17.26,11.8-31.7,26.4-42.22,44.59a34.13,34.13,0,0,1-14,13.56,58.44,58.44,0,0,1-25.77,6.64,276,276,0,0,1-28-.55C721,109.08,707.42,107.47,700.63,106.8Z" transform="translate(-536.46 -12.37)"/><path d="M925.94,543.48c-5.1-.75-9.34-1.16-13.49-2-7.65-1.59-12.38-6.05-13.49-14.13A50.56,50.56,0,0,0,892.74,510c-3.2-5.84-8-9.32-14.6-10.1-3.16-.37-6.36-.5-9.54-.7-1.69-.11-3.41,0-5.09-.22-2.72-.3-5-1.42-5.66-4.33s.76-5,3-6.5a23.9,23.9,0,0,1,5.72-2.74c14.67-4.66,32,.12,40.79,15.44a62.5,62.5,0,0,1,7.11,19c1.08,5.48,1.39,6,7,6.32a59.06,59.06,0,0,0,12-.67c4.62-.63,9.16-1.85,13.78-2.61,2.16-.36,3.52-1.24,4-3.43.21-1,.6-2,.83-3.08a44.74,44.74,0,0,1,11.33-21.15c6.27-6.66,12.71-13.18,19.5-19.3,8.43-7.61,17.91-7.47,26.37.07a118.91,118.91,0,0,1,9.63,10.18c.74.83.86,2.22,1.27,3.35-1.21.27-2.5.95-3.61.72a59.92,59.92,0,0,1-9.12-2.56c-2.58-1-4.94-2.49-7.44-3.67a7.25,7.25,0,0,0-8.34,1.05c-11.8,10-24.62,19.07-32.5,33-2.33,4.12-2.56,4,1.68,6a13.66,13.66,0,0,1,1.72.83c2.41,1.66,2.73,4.55.5,6.51a14.46,14.46,0,0,1-4.41,2.46c-6.36,2.41-12.69,5-19.2,6.93C934.88,542.23,930,542.72,925.94,543.48Z" transform="translate(-536.46 -12.37)"/><path d="M865,749.11c-7,.85-13.9,1.89-20.88,2.48-6.13.52-12.31.63-18.47.74-6.47.11-11.36-2.65-14.83-8.26-4.41-7.12-10.33-13-16.76-18.25-4.28-3.53-7.06-3.93-11.51-.75a95.57,95.57,0,0,0-10.43,9.32c-2.6,2.51-4.8,5.44-7.49,7.83a15.23,15.23,0,0,1-6,3.37c-3.42.89-5.78-2.06-4.65-5.39a9.27,9.27,0,0,1,1.19-2.24c5.06-7.14,10.41-14,17.28-19.54a28.83,28.83,0,0,1,12.43-6.22,15.76,15.76,0,0,1,13.79,3.19c7.62,6.18,14.93,12.72,20.47,20.89,2.57,3.79,5.71,5.44,10.13,5.28,8.92-.31,17.83-.69,26.75-.75,6.57,0,13.16.18,19.71.69,5.49.42,8.94,3.85,10.27,9.08,1,4.1,1.52,8.36,2.4,12.51.92,4.36,1.89,8.73,3.1,13,1.46,5.2,4.36,9.48,8,13.54,5.28,5.81,9.92,12.21,14.67,18.48a23.9,23.9,0,0,1,3.3,6.16c1.86,5.11.77,9.1-3.44,12.53a65.12,65.12,0,0,1-7.86,5.4,1.9,1.9,0,0,1-2.9-2,21.8,21.8,0,0,1,2.59-7.05c2-3.07,1.52-5.35-.72-8-5.91-7-11.72-14-17.35-21.25a33.46,33.46,0,0,1-4.66-8.26,57.48,57.48,0,0,1-3.85-19.31,72.22,72.22,0,0,0-1.15-10.77c-.85-4.73-2-5.68-6.75-6-2.12-.17-4.26,0-6.38,0Z" transform="translate(-536.46 -12.37)"/><path d="M1280.26,684.82c.18-2.11.53-4.43.57-6.77.13-7.22.59-14.48.11-21.66-.89-13-1.32-25.91,1.23-38.8.91-4.58,1.17-9.29,1.62-14a20.29,20.29,0,0,1,5.93-12.42,113.22,113.22,0,0,1,22.33-18c2.43-1.49,5.49-2.06,8.34-2.69a1.49,1.49,0,0,1,1.3,2.56,51,51,0,0,1-5.85,5.82q-7.36,6.12-15,12c-6.91,5.28-10.57,12-10.12,20.88a22.79,22.79,0,0,1-.33,5.72c-2.69,13.32-1.87,26.72-.88,40.1.58,7.92-.09,15.71-.86,23.56a58.85,58.85,0,0,0,.09,14.59c1.19,7.55,5.25,12.88,13.61,13.8,3.37.37,6.67,1.4,10,2a115.37,115.37,0,0,1,39.88,14.78c1.65,1,3.42,1.74,5.1,2.66,12.1,6.59,24.33,5.65,36.08-.39,6.5-3.34,12.79-4.35,19.65-2.54,6,1.56,11.87,3.28,17.77,5.07a17.12,17.12,0,0,1,4.55,2.26c.76.52,1.12,1.64,1.66,2.48-1,.6-2,1.74-3,1.7a49.3,49.3,0,0,1-8.17-1.15c-4-.85-7.85-2-11.78-2.87a22.92,22.92,0,0,0-17,2.48c-12.76,6.9-26.29,8-39.88,1.75-1.74-.8-3.56-1.45-5.23-2.38-15.34-8.63-31.86-14-48.88-18.23-15-3.72-21-11.52-22.52-27C1280.4,688.46,1280.36,686.76,1280.26,684.82Z" transform="translate(-536.46 -12.37)"/><path d="M1198.25,404.2c-.21,1.47-.33,3-.63,4.42-2.79,13.07-1.33,26.28-1.31,39.44a16.5,16.5,0,0,0,4.15,10.51c6.64,8,13.48,15.87,20.13,23.89,3.1,3.74,6.13,7.59,8.85,11.61a16.23,16.23,0,0,1,2.54,10.38c-.4,5.56-2.93,9.75-8.22,11.88-2.75,1.12-5.63,1.93-8.47,2.82-7.69,2.41-14.7.92-21.09-3.85-1.7-1.27-3.38-2.58-5.07-3.87-4.2-3.22-8.67-5.25-14.21-4-2.47.56-5.76.82-6.93-1.68-1.25-2.66,1.52-4.52,3.4-6.21,6.08-5.47,12.87-6.36,20-2.56a51.28,51.28,0,0,1,9.45,6.46c4.63,4,9.55,4.14,14.89,2.12,3.29-1.24,4-2.58,2.94-5.87a37.87,37.87,0,0,0-7-12c-6-7.19-11.66-14.62-17.38-22-5-6.46-7.08-13.8-7.26-22-.26-12.56-.57-25.06,1.74-37.53.62-3.36-.16-7.24-1.18-10.61-2.67-8.74-5.89-17.31-8.76-26-.81-2.46-2.18-2.81-4.37-2-.46.17-1.13-.23-1.7-.37.22-.55.28-1.34.69-1.62a23,23,0,0,1,4.39-2.5c2.92-1.14,4.31-.69,5.91,1.93a43.1,43.1,0,0,1,2.48,5.17c2.85,6.41,5.92,12.75,8.43,19.29,1.8,4.72,2.85,9.72,4.23,14.6Z" transform="translate(-536.46 -12.37)"/><path d="M687.37,369.82c.17-7.21.55-14.42.43-21.62a53.27,53.27,0,0,0-1.6-11.34,29.28,29.28,0,0,1,1.12-17.54c1.34-3.59,2.7-7.18,3.72-10.86,1.71-6.19,1.45-12.24-2.31-17.76-3.35-4.93-3.07-10-.56-15.13l8.67-17.72c1.31-2.68,3.49-4.56,6.38-4.75,5.28-.36,10.58-.33,15.88-.26a6.9,6.9,0,0,1,3.51,1.35c2.84,2,2.72,5.83-.42,7.23a24.26,24.26,0,0,1-7.39,1.69c-3.58.34-5.67,1.93-7,5.38a85,85,0,0,1-5.71,10.68,7.63,7.63,0,0,0-.7,7.26c3.83,9.12,3.08,18.31,0,27.46-1.07,3.23-2.32,6.4-3.54,9.58a14,14,0,0,0-.12,10.58,45.45,45.45,0,0,1,2.66,23.82,80.24,80.24,0,0,0-.36,8.92c-.19,5.26-2.85,9.29-6.5,12.74-2.09,2-4.75,1.33-5.39-1.47-.6-2.65-.45-5.46-.63-8.2Z" transform="translate(-536.46 -12.37)"/><path d="M891.72,242.92c-8.7,0-18.55-7.13-20-13.41A15.43,15.43,0,0,1,872,222c1-3.5,1.36-6.6-1.16-9.58-1.12-1.33-2.21-3.2-.22-4.35a6,6,0,0,1,4.69-.1c3.27,1.41,5.3,6.37,4.53,10.41a33.68,33.68,0,0,1-1.64,4.81c-1.59,4.38-1.1,6,2.67,8.64,2.91,2,6.05,3.16,9.62,2.24,4.72-1.22,9.61-2,14.1-3.86,11.36-4.56,23.25-7,35.21-8.66,9.1-1.24,17.95-3.3,26.85-5.29,5-1.12,10-1.94,15-3,2.49-.5,5-1.1,7.44-1.71,2.74-.68,4.11-2.52,5-5.2,1.75-5.22,4.07-10.26,5.82-15.48,1.34-4,2.19-8.15,3.2-12.25.76-3.08,1.06-6.32,2.2-9.24,1.86-4.83,5.92-7.08,10.91-7.58a3,3,0,0,1,2.52,1.25c.31.72-.19,2-.69,2.8a4.53,4.53,0,0,1-2,1.46c-4.36,1.9-5.89,5.54-5.47,9.86.83,8.44-2,15.89-5.44,23.28a54.74,54.74,0,0,0-3.37,8.91c-1.38,5-4.46,8.08-9.52,9.19-2.91.63-5.79,1.6-8.72,1.83-8.77.68-17.09,3.24-25.48,5.59a71.9,71.9,0,0,1-8,1.92,237.11,237.11,0,0,0-45,11.62C900.1,241.43,894.77,242.18,891.72,242.92Z" transform="translate(-536.46 -12.37)"/><path d="M1079.24,807.14a45.19,45.19,0,0,1-25.49-10.91c-4.87-4.22-9.2-9-11.79-14.89-1.32-3-1.59-6.51-2.21-9.81a1.73,1.73,0,0,1,.88-1.46,2,2,0,0,1,1.59.6c5.07,4.83,10,9.82,15.17,14.56,5.32,4.89,11.83,7.44,18.86,8.69,4.47.79,5.2.21,6-4.15.27-1.46.43-2.95.78-4.39,1.38-5.76,4.92-9.62,10.83-10.2,6.11-.61,10.11-3.61,13.3-8.6,3.81-5.94,7.08-7.23,13.46-4.5a113.37,113.37,0,0,1,17.92,9.59c5.82,3.85,11,8.61,16.5,13a11.59,11.59,0,0,1,2.57,2.8c1.1,1.75,1.23,3.63-.34,5.26a4.24,4.24,0,0,1-5.78.26c-4-3.16-7.7-6.71-11.89-9.58a214.29,214.29,0,0,0-18.37-11.39c-4.75-2.6-5.15-2.28-8.3,2.07-3.48,4.83-7.86,8.37-13.64,9.92-3.65,1-5.33,3.2-5.24,6.91,0,1.28,0,2.56-.09,3.83C1093.48,803.45,1089.22,807.33,1079.24,807.14Z" transform="translate(-536.46 -12.37)"/><path d="M1037.12,965.1c-2-.85-4.36-1.44-6.26-2.69-3.35-2.22-6.46-4.82-9.64-7.3-4.91-3.81-9.46-4-14.66-.69a64.25,64.25,0,0,1-7.65,4.52,11.39,11.39,0,0,1-11-.73c-3.66-2.16-7.47-4.05-11.12-6.22a14.37,14.37,0,0,1-4.47-3.5c-6.51-9-12-18.64-13.58-29.89a27.23,27.23,0,0,1,.12-8.21c.47-2.89,2.47-4.4,4.71-4.4s4,1.63,4.6,4.5a11.3,11.3,0,0,1,.3,3.17c-.52,7.78,2.56,14.54,6,21.19,1,1.89,2.2,3.65,3.1,5.57a12.19,12.19,0,0,0,6.19,6.14,34.36,34.36,0,0,1,5.58,3.07c3.67,2.6,7.16,2.32,10.54-.36,4-3.18,8.55-4.41,13.57-4.85a18,18,0,0,1,13.12,3.76c2.35,1.83,4.61,3.78,6.93,5.63s4.29,3.51,7.32,3.49c1.61,0,3,.67,3.26,2.42a3.71,3.71,0,0,1-2.44,4.06A32.62,32.62,0,0,1,1037.12,965.1Z" transform="translate(-536.46 -12.37)"/><path d="M630.53,581.45c.62,3.73,1.12,7.49,1.87,11.2s1.09,7.62-.78,11.2c-2.79,5.32-8,7.34-13.17,9.36a1.2,1.2,0,0,1-1.1-.36c-.24-.52-.5-1.37-.25-1.7a21.15,21.15,0,0,1,3.73-4.25c4.86-3.67,6.2-8.3,4.6-14.07-1.2-4.32-1.09-8.72-1-13.22.1-6.07-1.19-12.17-1.94-18.26-.17-1.45-.81-2.9-.71-4.32a3,3,0,0,1,1.88-2.14,3,3,0,0,1,2.66,1.06,27.08,27.08,0,0,1,2.73,7.1c1.11,6,1.84,12.14,2.72,18.21Z" transform="translate(-536.46 -12.37)"/></svg>