<svg id="Layer_4" data-name="Layer 4" xmlns="http://www.w3.org/2000/svg" viewBox="0 0 1076.75 1057.32"><defs><style>.cls-1{fill:#645340;}.cls-2{fill:#4d3c2a;}.cls-3{opacity:0.25;}.cls-4{fill:#7d4db7;}</style></defs><path class="cls-1" d="M1440.74,686.48a4.21,4.21,0,0,1-1.75,2.72c-14.27,12.06-25.7,26.93-39.31,39.65a85,85,0,0,0-8.83,9.92c-12,15.45-27.37,27-43.66,37.49-11,7.06-22.09,14-32.41,22.08a17.87,17.87,0,0,0-6.62,10.26c-3.82,14.59-8.2,29-14.71,42.69-5.13,10.75-13.37,18.16-25.3,20.67-6.05,1.27-9.79,4.27-11.14,10.61-1.44,6.79-4.84,12.8-9,18.4-1.36,1.84-3.65,3.47-2.74,6.37-.1,2.6-1.85,4.36-3.1,6.44-2.41,4-6.94,5.36-10,8.52-9.56,9.88-20.64,18-31.13,26.8-10.81,9.06-22.26,17.38-33.54,25.87-16.29,12.25-32.87,24.06-52.19,31.23-9.76,3.62-19.48,7.08-30.25,6.47-8.84-.5-17.74-.12-26.61-.1a71.46,71.46,0,0,0-32,7.42,182.34,182.34,0,0,1-37.3,13.69c-12.45,3-25,5-37.89,2.84a48.8,48.8,0,0,1-13.35-3.75c-6-2.88-11.78-6.1-17.83-8.79-9.16-4.08-17.68-10.32-28.55-9-1.09-3.65-4.32-4.2-7.33-4.74-7.63-1.37-15.3-2.54-23-3.77-19.26-3.1-37.44-9.14-54.27-19.18-7.62-4.55-15.79-8.11-23.95-11.61-15.59-6.67-29.68-15.79-42.91-26.31a8.58,8.58,0,0,1,6.49-.17,7.12,7.12,0,0,0,8.87-2.5c1.86-2.46.56-5.78-3.1-9.19-.33-.3-.63-.63-1-.92-11.62-10-25.1-16.2-39.88-20.22-11.56-3.15-23.42-4.16-35.08-6.47-11.47-2.28-23.13-3.25-34.58-5.47-8.2-1.59-16.59-2.28-24.54-5.23-20.69-7.67-37.72-21.13-54.85-34.41-8.72-6.77-17-14-25.87-20.67-14.66-11-27.46-23.59-36.24-40-2.92-5.46-5.29-11.15-8-16.67-.58-1.17-1.22-2.67-2.85-2.19s-1,2.17-1.17,3.42c-.22,1.87,2.51,4.35-1.11,5.54a2.86,2.86,0,0,1-1.47-2.09c-2.91-13.43-6.13-26.82-6.74-40.64-.49-11.18,1.34-22.17,3.32-33.07,2.73-15.11,5.1-30.2,4.51-45.62-.62-16,6.06-29.89,13.34-43.4,6-11.19,12-22.21,13.74-35.08.56-4.14,2.1-8.17,3.43-12.16,5.24-15.69,6.16-31.57,3.54-47.94-2.25-14.11-5.35-27.86-10.84-41.08-1.87-4.5-4.47-7.22-9.67-7.71a38.43,38.43,0,0,1-25.51-12.94,88.19,88.19,0,0,0-12.21-11.26c-11-8.3-15.58-19.89-17.19-33.29-1.48-12.34.66-24.33,2-36.43a45.18,45.18,0,0,0-.18-11.9c-1.68-11.05.31-21.66,4.75-31.85,2.13-4.88,4.19-9.81,6.65-14.53a119.38,119.38,0,0,0,11.14-30.54,59.37,59.37,0,0,1,4.19-11.91c12.17-26.94,25.78-53.12,42.85-77.32A133.5,133.5,0,0,1,562.09,173a68.15,68.15,0,0,0,7.37-4.51c2.67-1.95,5.24-4.12,6.08-7.59.87.09,2-.13,2.56.33,2.93,2.43,5.89,2.17,9.3,1,6.5-2.13,13.31-3.38,19.67-5.83,20.12-7.74,41.31-8.73,62.38-10.25,15.69-1.14,31.38.65,47.06,1.26,1.3.05,2.58.53,3.89.69,7.69,1,14.94,3.8,22.49,5.4,4.43.94,7.84,0,10.88-3.06,3.61-3.61,3.14-7.68-1.54-9.43a79.52,79.52,0,0,0-13.91-4.32c-9.32-1.65-18.59-3.62-27.93-5.11-10-1.6-20-3.63-30.11-4-13-.42-26.06-1.19-39.1.94-14,2.28-27.85,4.59-41,10.08-2.36,1-4.8,2.49-7.62,1.44,1.32-2.4,3.89-2.87,6.1-3.69,22.48-8.28,45.62-13.21,69.67-12.84,11.34.17,22.53,2.33,33.68,4.16,19,3.14,38.32,4.92,57,10,4.76,1.3,5.87.54,8.21-4.32,3.85-8,7.43-16.15,12.21-23.67,4.18-6.6,8.81-12.77,15.06-17.63a42,42,0,0,0,11.42-14.53c7.85-15.4,18.7-28,34.5-35.82,7.29-3.59,14.91-5.83,23.11-5.23a51.39,51.39,0,0,0,17.74-1.33c.22,3.11-2.3,3.56-4.33,4.1-7.2,1.91-13.26,6-19.43,9.88C840.38,60,826.24,74.42,811.2,87.74c-8.64,7.65-16.1,16.48-23.7,25.12a80,80,0,0,0-8.8,12.41c-2.53,4.3-1.61,10.87,1.17,13,3,2.23,9.41,1.67,13-1.67,5.81-5.47,11.77-10.89,16.86-17a270.93,270.93,0,0,1,36-35.31,195,195,0,0,1,44.87-28.09C904.39,50,918.48,45.15,934,46c8.08.43,16.18-2.52,24.32,0,1.16.35,2.61-.19,3.91-.42,3.31-.59,5-2.48,4.65-6,8.18-.45,16.36-.57,24.54-1.27a48.25,48.25,0,0,1,24,4.47c5.23,2.35,10.31,3.54,16.07,2.08,4.41-1.12,9.32.31,13.52-2.33,1,7.29,1.33,7.61,8.16,8.91,9.51,1.79,19.12,2.88,28.56,5.23,15.85,3.95,31.64,7.83,46.12,15.87a123.62,123.62,0,0,1,26.55,19.61C1160.31,98,1165,105.07,1169.7,112c8.86,13.12,15,27.53,20.39,42.31a192.23,192.23,0,0,0,11.46,25.38,45.45,45.45,0,0,0,5.09,6.92c2.15,2.61,5.16,2.48,8,1.72,3.08-.83,2.58-3.67,2.72-6.08.12-2.09-.73-4.58,2-5.79,3.89,11.35,11.08,21.14,15.28,32.37,1.42,3.79,5,4.79,8.61,5.36,6.83,1.08,13.71,2.4,19.74,5.7,10.91,6,21.82,11.71,34.35,13.53a19.73,19.73,0,0,1,5.56,2.18,81.19,81.19,0,0,0,27.32,7.79c20.12,2.16,34.13,13.28,41.8,31.71,6,14.51,11.63,29.29,14.56,44.87a150.39,150.39,0,0,1,2.27,31.14,33.91,33.91,0,0,0,1.62,12.48c5.47,15,9.53,30.49,14.15,45.78,2.58,8.51,6.63,15.84,13.33,21.81a48,48,0,0,1,15.64,27.93,29.66,29.66,0,0,0,5.32,12,66.2,66.2,0,0,1,9,19.18c2.49,8.05,5.37,16,8.42,23.84a129.55,129.55,0,0,1,8.41,36.18c.25,2.86.83,5.69,1.25,8.53-5.58,0-7.78,3.7-8.51,8.41a39,39,0,0,0,0,13.25c2.27,11.94,1.16,23.79-.88,35.53a150.84,150.84,0,0,1-23.07,58.71,32.46,32.46,0,0,0-4.87,10.87c-.65,2.92,1,4.62,4,4.14a6.13,6.13,0,0,0,3.33-2C1437.31,686.43,1438.81,685.71,1440.74,686.48Zm-288.84-2.71c1.38-5.82-3.23-8.52-6.8-11.73-1.3-1.17-2.88-.66-4.23.45-2.42,2-2.6,4.53-1.84,7.25.42,1.48,1.48,3.06.34,4.42-4.65,5.61-7.87,12.57-14,16.74-5.88,4-9.61,9.64-13.84,15a11,11,0,0,0-1.9,10,103.2,103.2,0,0,0,4,11.25,10.55,10.55,0,0,0,5.31,5.64c5.55,3,11.17,4.87,17.7,4.53,7-.37,13.33,1.34,18.26,7.27,3.27,3.94,6.65,7.72,8.92,12.32,1.49,3,3.94,3.39,6.71,2.69s2.8-3.1,2.77-5.38c0-1.76.18-3.56-1-5.13-2.21-3.06-2.74-7-5.27-9.93a7.3,7.3,0,0,1-1.42-7.54c1.23-3,.65-5.58-.24-8.37-1.63-5.06-3-10.2-4.79-15.19-1-2.67-2-5.64-4.56-7.21-7.8-4.7-7.57-11.66-5.74-19.18C1151,689.18,1152.38,686.77,1151.9,683.77Zm198.37-48.6.32,0c0,2.22-.15,4.45,0,6.66.23,2.71,3.23,6.45,5.1,6.26a5.7,5.7,0,0,0,5-4.66c.75-5.89,4.4-6.49,9.28-7.12,10.35-1.33,12.11-3.42,13.89-13.47a9.53,9.53,0,0,1,.51-1.92c5.42-12.88,3.78-26.11,1.2-39.1-2.66-13.43-11.33-23.65-20.12-33.69-3.32-3.79-7.23-3.88-11.47-3.39a5.12,5.12,0,0,0-4.73,4.82,15.07,15.07,0,0,0,.6,7.22c1.18,3.11,2.1,6.31,3.2,9.45,1.26,3.62,2,7.2.57,11a15.52,15.52,0,0,0-.41,7.91c1.24,8.15-.56,16.25-.13,24.37a31.36,31.36,0,0,1-.46,5.27Q1351.51,625,1350.27,635.17Zm-96.87-282.5c2,0,2.87,0,3.75,0,5.16-.18,10.81,1.44,14.25-4.56.75-1.31,2.94-1,4.41-.73,9.64,1.75,15.64-4.81,22.31-9.72,2.26-1.67,2.28-4.33,1.37-6.71s-3.17-4.25-5.77-3.47c-5.16,1.56-10.59.48-15.71,2.09a72.9,72.9,0,0,1-21.54,3.16c-6.17,0-12.41-.87-18.51,1.09-1.65.53-3.74.48-5-1-3.64-4.27-8.65-4.73-13.68-5.7-4.52-.87-9.3-1.54-13.22-4.18-4.75-3.2-8.11-7.63-8.71-13.54-.45-4.46-3.39-6.61-7-8-3-1.19-4.09,2-5.83,3.44-2.2,1.85-4.07,4.1-6.29,5.93-4.48,3.69-4.9,4.41-.72,8,8.06,7,15.24,14.86,23.28,21.79,7.09,6.11,15.26,10.69,25.36,9.47a14.45,14.45,0,0,1,4.63.29C1238.63,352,1246.48,353.07,1253.4,352.67Zm-348-180.6c0-2.69-1-4.45-3.77-4.64-1.77-.12-3.76-.46-5.28.17-6.9,2.87-14.19,4.71-20.29,9.6-6.69,5.37-13,11.72-21.24,14.57-7.34,2.54-14.32,5.8-21.5,8.64a70.63,70.63,0,0,0-16.51,9.77c-6.62,5-5.81,10.61,1.73,14.18a19.83,19.83,0,0,0,5.73,1.58c4.8.66,9.76.59,14.42,1.77,4,1,6.75-.3,8.57-3.19,2.28-3.61,5.21-5,9.31-5.24,6.32-.38,12.07-2.17,16-7.71,2.27-3.16,5.75-4.8,9.18-6.41,3-1.41,5.27-3.35,5-7.08-.18-2.11.76-3.75,1.86-5.5,3.7-5.86,7.72-11.35,13.71-15.11C904.32,176.23,905.65,174.49,905.42,172.07ZM649.58,826.33c.22,6.39,7.07,12.82,13.6,12.87,4.48,0,8.85.21,13,2a6,6,0,0,0,5.75-.22c8.18-5,16.17-3,24.14.54,1.82.79,3.55,1.8,5.67,1.69,3.79-.2,5.62-3.21,3.67-6.42a11.08,11.08,0,0,0-3.2-3.34c-5.11-3.47-10.12-6.91-16.53-8.06s-12.36-3.35-18.5-5.17a13.81,13.81,0,0,1-5.56-3.54c-3.86-3.7-6.56-8.38-10-12.26-7.48-8.38-11.18-19-17.76-27.85-4.89-6.61-6.13-15.06-6.3-23.39-.06-3.05-1.52-5.19-4.5-5.75-3.15-.6-5,1.36-6,4.08a17.66,17.66,0,0,0-.82,11.7,157.61,157.61,0,0,0,21.86,45.85c3.18,4.55,5.82,9,2.1,14.57A6.44,6.44,0,0,0,649.58,826.33ZM551,410.57c.14-6.31-1.22-10.89-4.35-14.88a10,10,0,0,1-2.17-3.28c-3.38-11.25-5.72-22.69-5.4-34.49a75.15,75.15,0,0,1,2.38-15,7.69,7.69,0,0,0-3-8.27c-2.17-1.63-6.58-.71-9.09,1.66-1.27,1.21-2.76,2.45-3.45,4-2.73,6.18-7.61,11.61-7,19.05a3.62,3.62,0,0,1-.76,2.47c-2.75,3.12-1.67,6.1,0,9.19A19.83,19.83,0,0,1,520.48,385a4.67,4.67,0,0,0,.64,3.84c2.74,3.64,3.46,8,4.82,12.21a10.42,10.42,0,0,0,4.48,5.52,103.75,103.75,0,0,1,12.71,9.53c3,2.78,6.44,1.74,7.55-2.16A11.93,11.93,0,0,0,551,410.57Zm557.88-147.82c-.26-.84-.53-1.69-.78-2.54a66.21,66.21,0,0,0-11-21.8c-6.32-8.22-12.58-16.5-19.29-24.4-4.13-4.87-8.51-9.66-13.85-13.33-1.64-1.13-3.65-2.05-5.4-.1-1.55,1.72-1.4,3.69-.17,5.5,1.38,2,3,4,3,6.55,0,3.55,1.87,6.32,3.45,9.22.63,1.15,1.67,2.06,1.85,3.47,1.21,9.82,7.2,15.78,15.9,19.46a12,12,0,0,1,4.94,4.29c1.3,1.78,2.27,3.8,3.61,5.55,3.83,5,8.13,9.38,14.92,9.94C1107.31,264.68,1108.72,264.69,1108.83,262.75ZM630.91,597.94c.1,4.9,1.51,5.74,5.8,3.83a15.09,15.09,0,0,0,7.08-6.67c4.17-7.25,6.9-14.63,5.88-23.24-.54-4.6.34-9.36-.18-14-1.12-9.79,3-18.23,6.58-26.71,1.56-3.71,2.38-7.55,3.75-11.26.39-1.06.4-2.25-.86-2.85a2.29,2.29,0,0,0-3,.79c-3.24,4.7-7.37,8.68-9.29,14.4-3.38,10.08-4.92,20.66-8.8,30.57a41.2,41.2,0,0,0-3,18.85,16.3,16.3,0,0,1-2.25,10.21A9.54,9.54,0,0,0,630.91,597.94ZM912.22,831.29c-2.66-.31-4.91.62-6.1,3a6,6,0,0,0,1.11,7.34,35.26,35.26,0,0,1,3.25,3.34c4.16,5.6,9.82,10.08,11.46,17.51.84,3.79.68,7.47.79,11.2.07,2.48.14,4.88,1.49,7s2.91,4.05,5.78,3.69c2.46-.31,3.83-2,4.68-4.21a19.44,19.44,0,0,0,.91-12.38c-.67-2.42-1.07-4.71-.23-7.15,1.67-4.8.31-9.11-2.27-13.21a47,47,0,0,0-15.18-14.62A8.7,8.7,0,0,0,912.22,831.29Zm-.1-85.34a14.42,14.42,0,0,0-.41-3.16,49.79,49.79,0,0,0-10.87-19.48c-2.7-2.89-5.78-5.39-8-8.81-1.43-2.25-3.16-5.43-6.73-4s-3.55,4.72-3.32,7.93c.07.87.21,1.75.33,2.62,1.47,10.43,7.27,18.77,13.21,27a14.53,14.53,0,0,0,6.07,5C908.05,755.46,912.05,752.87,912.12,746ZM951.52,486c-2,1-5.16.87-8.09,1.77-7,2.14-12.54,10.67-11.09,17.55a63.91,63.91,0,0,1,1.16,10.47c.17,3.93,2.13,5.93,5.53,6.13,3.68.22,6.06-1.73,6.29-6,.16-2.86,1.3-4.83,3-7a124.26,124.26,0,0,0,9.36-14.38C960.23,489.9,957.6,485.93,951.52,486Zm-19.47,57a5.5,5.5,0,0,0-3.37-5.88c-2.3-1.09-4.22-.14-6,1.55a14.78,14.78,0,0,0-4,6.76c-.73,2.61-1.83,5.14-4.24,6.53-6.38,3.68-9,10.06-12.1,16.17-1.35,2.68-1.29,5.15,1.16,7.15s4.78,1.67,7.41.39C924.6,569,928.39,556.09,932.05,543Z" transform="translate(-421.83 -9.83)"/><path class="cls-2" d="M1219.34,176.49c-2.73,1.21-1.88,3.7-2,5.79-.14,2.41.36,5.25-2.72,6.08-2.82.76-5.83.89-8-1.72a45.45,45.45,0,0,1-5.09-6.92,192.23,192.23,0,0,1-11.46-25.38c-5.39-14.78-11.53-29.19-20.39-42.31-4.7-7-9.39-14.07-15.32-19.88a123.62,123.62,0,0,0-26.55-19.61c-14.48-8-30.27-11.92-46.12-15.87-9.44-2.35-19-3.44-28.56-5.23-6.83-1.3-7.21-1.62-8.16-8.91,4.83-3.65,10.42-5.59,16.16-7.17.26,1.88,1.52,2.4,3.21,2.68,8,1.33,16.1,1.79,24.1,2.94,3.62.52,5.93.32,7.58-3s4.21-4.19,7.63-4c2.38.11,4.88.39,7-1.16.91-.15,1.7-1,2.72-.43-.07,1.18.16,2.28,1.38,2.71,2.91,1,5.8,2.43,8.81,2.76,7.25.78,14.18,3,21.29,4.38a30.42,30.42,0,0,1,12,5.31c4.28,3.09,8.68,6,13,9.08,1.61,1.13,3.1,1.75,4.58-.13,3.86,3.06,8.06,5.82,9.44,11-1.37,4.35-.3,5.74,4.1,5.29a94.59,94.59,0,0,1,14,18.19c4,6.8,9.82,13.24,8.48,22.19-3.32-.84-5.11.52-5.22,3.87-.21,6.39,2.09,12.37,3.26,18.53.2,1.08,1.76,1,2.87.81a3.71,3.71,0,0,1,0,3.53c-.37-.08-.84-.56-1,.24l1-.15c3.08,9,5.82,18,6.63,27.47C1218.44,170.52,1219.72,173.4,1219.34,176.49Z" transform="translate(-421.83 -9.83)"/><path class="cls-2" d="M891.59,1015c10.87-1.32,19.39,4.92,28.55,9,6.05,2.69,11.86,5.91,17.83,8.79a48.8,48.8,0,0,0,13.35,3.75c12.85,2.11,25.44.2,37.89-2.84a182.34,182.34,0,0,0,37.3-13.69,71.46,71.46,0,0,1,32-7.42c8.87,0,17.77-.4,26.61.1,10.77.61,20.49-2.85,30.25-6.47,19.32-7.17,35.9-19,52.19-31.23,11.28-8.49,22.73-16.81,33.54-25.87,10.49-8.79,21.57-16.92,31.13-26.8,3.06-3.16,7.59-4.51,10-8.52,1.25-2.08,3-3.84,3.1-6.44a2.15,2.15,0,0,1,2.48-.62c.9,1.95,1.88,2.12,3,.14,5,2.35,5.31,2.87,5,9.58-3.21,1.18-4,3.47-3,6.57-3.12,6.44-8.5,10.77-14,14.94-4.89.49-5.48,1-6,5.15a7.92,7.92,0,0,1-4.65,4.21c-2.6,0-5.34-.19-4.68,3.81a4.33,4.33,0,0,1-3.3,2.86c-2.31-.22-4.25,0-3.87,3.12a7.18,7.18,0,0,1-4.18,3.52c-5.16.7-5.51,1-6.46,5.86a2.91,2.91,0,0,1-2.52,2.3c-2.43-.66-4.07.63-6,1.93-5.75,3.91-9.79,9.71-15.22,13.8-19.24,14.5-38.64,28.84-61.32,37.74-11.77,4.62-23.85,7.83-36.7,7.71-8.12-.07-16.27-.08-24.38-.26a59.84,59.84,0,0,0-26.3,5.71,241.19,241.19,0,0,1-38,13.65c-10.94,2.85-21.93,5.11-33.29,2.53a2.49,2.49,0,0,0-3.23,1.51,14.71,14.71,0,0,1-6.46-1.06c-.71-2.15-1.61-2.6-2.85-.34a7.26,7.26,0,0,1-5.19-.62c-.8-2.94-2.15-3.31-4.1-.88a5.81,5.81,0,0,1-1.93-.15c-10.07-4.73-20.47-8.8-30-14.6-.74-3.79-3.14-4.36-6.39-3.31-4.81-1.11-8.22-4.27-11-8C888,1020.62,888.32,1018.84,891.59,1015Z" transform="translate(-421.83 -9.83)"/><path class="cls-2" d="M487.25,794.27c3.62-1.19.89-3.67,1.11-5.54.14-1.25-.49-2.92,1.17-3.42s2.27,1,2.85,2.19c2.75,5.52,5.12,11.21,8,16.67,8.78,16.36,21.58,28.92,36.24,40,8.82,6.63,17.15,13.9,25.87,20.67,17.13,13.28,34.16,26.74,54.85,34.41,8,2.95,16.34,3.64,24.54,5.23,11.45,2.22,23.11,3.19,34.58,5.47,11.66,2.31,23.52,3.32,35.08,6.47,14.78,4,28.26,10.18,39.88,20.22.34.29.64.62,1,.92,3.66,3.41,5,6.73,3.1,9.19a7.12,7.12,0,0,1-8.87,2.5,8.58,8.58,0,0,0-6.49.17,157.53,157.53,0,0,1-28-8.7c0-.89-.1-1.87-1-2.17s-1.53.42-1.81,1.31a12.45,12.45,0,0,1-6.53-1.8c-1.25-3.24-1.63-3.32-4.12-.9a2.69,2.69,0,0,1-2.53-.49c-1.67-3.36-2.27-3.47-5.43-1a2.49,2.49,0,0,1-2.54-.5c-2.78-3.75-4.63-4.21-8.15-2a2.53,2.53,0,0,1-2.5-.72c-.41-2-1.07-3.16-2.77-.83a2.63,2.63,0,0,1-2.55-.62c-.48-2-1.22-3-2.78-.71a13.11,13.11,0,0,1-6.53-.86c-.34-.55-.6-1.49-1-1.58a34.63,34.63,0,0,0-12.35-.09c-1,.15-1.18,1.17-1.35,2.05a33.44,33.44,0,0,1-16,.07c-2.17-3.19-3.16-3.31-6.77-.84-5.28,0-10.35-.74-14.59-4.3a5.63,5.63,0,0,1,1.43-2.75c3.16-3.36,2.95-3.82-2-5.06-.72,0-1.06-.29-1-1,.17-2.68-1.08-3.39-3.48-2.5a5.57,5.57,0,0,1-1.85-.57c-7-5.61-14.86-10-22.42-14.79-.13-2.38-1.48-2.86-3.52-2.26l-.52-.24a5.87,5.87,0,0,0-1.81-5.38c-2.76-2.79-5.81-5.29-7-9.36-.39-1.3-2-2.35-3.15-3.29a131,131,0,0,0-11.07-8.22c-4.76-2.94-9.08-6.67-14.51-8.48-17.36-15.1-34-30.82-46-50.82C491.12,805,488.29,800,487.25,794.27Z" transform="translate(-421.83 -9.83)"/><path class="cls-2" d="M966.89,39.58c.37,3.48-1.34,5.37-4.65,6-1.3.23-2.75.77-3.91.42-8.14-2.5-16.24.45-24.32,0-15.53-.83-29.62,4-43.47,10.17a195,195,0,0,0-44.87,28.09,270.93,270.93,0,0,0-36,35.31c-5.09,6.12-11.05,11.54-16.86,17-3.55,3.34-10,3.9-13,1.67-2.78-2.09-3.7-8.66-1.17-13a80,80,0,0,1,8.8-12.41c7.6-8.64,15.06-17.47,23.7-25.12,15-13.32,29.18-27.72,46.31-38.55,6.17-3.9,12.23-8,19.43-9.88,2-.54,4.55-1,4.33-4.1v0c2.77.67,5.13-.48,7.62-1.47,12.57-5,25.41-8.39,39.18-7.84,5.94.24,11.71,2.49,17.72,1.29a5.87,5.87,0,0,1,6,1.95C955.92,34,961.6,36.48,966.89,39.58Z" transform="translate(-421.83 -9.83)"/><path class="cls-1" d="M958.6,1053.1a2.49,2.49,0,0,1,3.23-1.51c11.36,2.58,22.35.32,33.29-2.53a241.19,241.19,0,0,0,38-13.65,59.84,59.84,0,0,1,26.3-5.71c8.11.18,16.26.19,24.38.26,12.85.12,24.93-3.09,36.7-7.71,22.68-8.9,42.08-23.24,61.32-37.74,5.43-4.09,9.47-9.89,15.22-13.8,1.92-1.3,3.56-2.59,6-1.93-1.79,3.82-5.66,5.44-8.59,8.06a13.29,13.29,0,0,0-4.81,9c-1.92,16.14-10.83,27.41-25.7,33.74a213.87,213.87,0,0,1-44.4,13.83,159.47,159.47,0,0,0-18.75,4.54c-12.6,4-25.68,4.93-38.76,5.59a178.9,178.9,0,0,0-21.78,2.67,22.47,22.47,0,0,0-12.67,6.71,42.14,42.14,0,0,1-27,12.94c-8.1.74-15.93-1-23.47-3.82A127.47,127.47,0,0,1,958.6,1053.1Z" transform="translate(-421.83 -9.83)"/><path class="cls-2" d="M592.55,140.08c2.82,1,5.26-.46,7.62-1.44,13.16-5.49,27.05-7.8,41-10.08,13-2.13,26.1-1.36,39.1-.94,10.07.33,20.11,2.36,30.11,4,9.34,1.49,18.61,3.46,27.93,5.11A79.52,79.52,0,0,1,752.23,141c4.68,1.75,5.15,5.82,1.54,9.43-3,3-6.45,4-10.88,3.06-7.55-1.6-14.8-4.43-22.49-5.4-1.31-.16-2.59-.64-3.89-.69-15.68-.61-31.37-2.4-47.06-1.26-21.07,1.52-42.26,2.51-62.38,10.25-6.36,2.45-13.17,3.7-19.67,5.83-3.41,1.12-6.37,1.38-9.3-1-.56-.46-1.69-.24-2.56-.33-1.48-4.18-.35-7.8,2.66-10.79C582.38,145.9,586.79,142,592.55,140.08Z" transform="translate(-421.83 -9.83)"/><path class="cls-2" d="M1440.74,686.48c-1.93-.77-3.43-.05-4.79,1.3a6.13,6.13,0,0,1-3.33,2c-2.92.48-4.61-1.22-4-4.14a32.46,32.46,0,0,1,4.87-10.87,150.84,150.84,0,0,0,23.07-58.71c2-11.74,3.15-23.59.88-35.53a39,39,0,0,1,0-13.25c.73-4.71,2.93-8.39,8.51-8.41a.82.82,0,0,1,.91.9c-.55,3.3.85,4.82,4.17,4.57,3.14,3.94,4.58,8.54,5.29,13.43-2.21.88-1.17,2.36-.81,3.84.89,3.62,2.89,6.94,3,10.78.12,7.71,0,15.38-1.52,23-3.35,16.19-7.68,32-16.67,46.13-.39.61-.06,1.69-.06,2.55A201.92,201.92,0,0,1,1443,685.2,8.71,8.71,0,0,1,1440.74,686.48Z" transform="translate(-421.83 -9.83)"/><path class="cls-1" d="M1460.24,664.11c0-.86-.33-1.94.06-2.55,9-14.15,13.32-29.94,16.67-46.13,1.57-7.62,1.64-15.29,1.52-23-.06-3.84-2.06-7.16-3-10.78-.36-1.48-1.4-3,.81-3.84,3,5.66,6.06,11.25,8.83,17,8.12,16.83,5,33.29-2.21,49.41A34.59,34.59,0,0,1,1460.24,664.11Z" transform="translate(-421.83 -9.83)"/><path class="cls-1" d="M1110.7,32.82c-2.15,1.55-4.65,1.27-7,1.16-3.42-.16-6,.87-7.63,4s-4,3.49-7.58,3c-8-1.15-16.1-1.61-24.1-2.94-1.69-.28-2.95-.8-3.21-2.68,5.62-4,12.14-5.26,18.74-5.42,8.84-.21,17.71.3,26.56.6C1108.13,30.6,1110.14,30.49,1110.7,32.82Z" transform="translate(-421.83 -9.83)"/><path class="cls-1" d="M1174.5,56.5c-1.48,1.88-3,1.26-4.58.13-4.31-3.05-8.71-6-13-9.08a30.42,30.42,0,0,0-12-5.31c-7.11-1.39-14-3.6-21.29-4.38-3-.33-5.9-1.75-8.81-2.76-1.22-.43-1.45-1.53-1.38-2.71,11.91.21,24-.46,35.29,4.21C1159.07,40.88,1168.4,46.63,1174.5,56.5Z" transform="translate(-421.83 -9.83)"/><path class="cls-1" d="M540,860.73c5.43,1.81,9.75,5.54,14.51,8.48a131,131,0,0,1,11.07,8.22c1.2.94,2.76,2,3.15,3.29,1.2,4.07,4.25,6.57,7,9.36a5.87,5.87,0,0,1,1.81,5.38c-1.49.4-2.51-.54-3.56-1.3-12.23-8.76-23.58-18.46-32.74-30.51C540.58,862.78,539.83,862,540,860.73Z" transform="translate(-421.83 -9.83)"/><path class="cls-1" d="M945.79,27.21c-6,1.2-11.78-1.05-17.72-1.29-13.77-.55-26.61,2.85-39.18,7.84-2.49,1-4.85,2.14-7.62,1.47,1-2.23,3.31-2.7,5.18-3.56,17.81-8.22,36.4-10.27,55.65-6.75C943.62,25.2,945.21,25.39,945.79,27.21Z" transform="translate(-421.83 -9.83)"/><path class="cls-1" d="M1211.48,136.39c-1.11.21-2.67.27-2.87-.81-1.17-6.16-3.47-12.14-3.26-18.53.11-3.35,1.9-4.71,5.22-3.87,2.18,2.39,1.55,5.4,1.63,8.16C1212.34,126.36,1212.63,131.42,1211.48,136.39Z" transform="translate(-421.83 -9.83)"/><path class="cls-1" d="M648.22,929.71c.17-.88.39-1.9,1.35-2.05a34.63,34.63,0,0,1,12.35.09c.43.09.69,1,1,1.58A53.46,53.46,0,0,1,648.22,929.71Z" transform="translate(-421.83 -9.83)"/><path class="cls-1" d="M610.37,916.83c4.9,1.24,5.11,1.7,2,5.06a5.63,5.63,0,0,0-1.43,2.75c-3.14-.87-4.54-2.22-1.38-4.89C610.43,919,610.05,917.79,610.37,916.83Z" transform="translate(-421.83 -9.83)"/><path class="cls-1" d="M680.08,933.07c3.52-2.16,5.37-1.7,8.15,2A9.13,9.13,0,0,1,680.08,933.07Z" transform="translate(-421.83 -9.83)"/><path class="cls-1" d="M1205.56,966.48c1-4.85,1.3-5.16,6.46-5.86A10.73,10.73,0,0,1,1205.56,966.48Z" transform="translate(-421.83 -9.83)"/><path class="cls-1" d="M625.48,928.94c3.61-2.47,4.6-2.35,6.77.84A7.39,7.39,0,0,1,625.48,928.94Z" transform="translate(-421.83 -9.83)"/><path class="cls-1" d="M1232.7,943.1c.48-4.15,1.07-4.66,6-5.15A9.06,9.06,0,0,1,1232.7,943.1Z" transform="translate(-421.83 -9.83)"/><path class="cls-1" d="M1252.69,923c-1-3.1-.22-5.39,3-6.57C1256.3,919.36,1255,921.43,1252.69,923Z" transform="translate(-421.83 -9.83)"/><path class="cls-1" d="M690.77,935.62c3.16-2.47,3.76-2.36,5.43,1C694.22,937.2,692.33,937.27,690.77,935.62Z" transform="translate(-421.83 -9.83)"/><path class="cls-1" d="M1188,72.8c-4.4.45-5.47-.94-4.1-5.29A5.15,5.15,0,0,1,1188,72.8Z" transform="translate(-421.83 -9.83)"/><path class="cls-1" d="M901.66,1032.14c3.25-1.05,5.65-.48,6.39,3.31A8,8,0,0,1,901.66,1032.14Z" transform="translate(-421.83 -9.83)"/><path class="cls-1" d="M1471.06,564.38c-3.32.25-4.72-1.27-4.17-4.57A5.11,5.11,0,0,1,1471.06,564.38Z" transform="translate(-421.83 -9.83)"/><path class="cls-1" d="M698.73,937.11c2.49-2.42,2.87-2.34,4.12.9A3.4,3.4,0,0,1,698.73,937.11Z" transform="translate(-421.83 -9.83)"/><path class="cls-1" d="M1223.37,951.12c-.66-4,2.08-3.83,4.68-3.81A5.76,5.76,0,0,1,1223.37,951.12Z" transform="translate(-421.83 -9.83)"/><path class="cls-1" d="M940,1050.2c2-2.43,3.3-2.06,4.1.88A3.11,3.11,0,0,1,940,1050.2Z" transform="translate(-421.83 -9.83)"/><path class="cls-1" d="M1216.2,957.1c-.38-3.11,1.56-3.34,3.87-3.12A4.31,4.31,0,0,1,1216.2,957.1Z" transform="translate(-421.83 -9.83)"/><path class="cls-1" d="M578.07,895.7c2-.6,3.39-.12,3.52,2.26A2.89,2.89,0,0,1,578.07,895.7Z" transform="translate(-421.83 -9.83)"/><path class="cls-1" d="M1250.73,906.86c-1.08,2-2.06,1.81-3-.14C1248.82,905.42,1249.8,905.56,1250.73,906.86Z" transform="translate(-421.83 -9.83)"/><path class="cls-1" d="M605.86,913.32c2.4-.89,3.65-.18,3.48,2.5A3.64,3.64,0,0,1,605.86,913.32Z" transform="translate(-421.83 -9.83)"/><path class="cls-1" d="M669.48,930.19c1.56-2.25,2.3-1.29,2.78.71A1.82,1.82,0,0,1,669.48,930.19Z" transform="translate(-421.83 -9.83)"/><path class="cls-1" d="M674.81,931.52c1.7-2.33,2.36-1.17,2.77.83A1.81,1.81,0,0,1,674.81,931.52Z" transform="translate(-421.83 -9.83)"/><path class="cls-1" d="M709.38,939.81c.28-.89.86-1.63,1.81-1.31s1,1.28,1,2.17A2,2,0,0,1,709.38,939.81Z" transform="translate(-421.83 -9.83)"/><path class="cls-1" d="M949.29,1051.7c1.24-2.26,2.14-1.81,2.85.34A1.92,1.92,0,0,1,949.29,1051.7Z" transform="translate(-421.83 -9.83)"/><path class="cls-1" d="M1211.55,140l-1,.15c.15-.8.62-.32,1-.24Z" transform="translate(-421.83 -9.83)"/><path class="cls-2" d="M1151.9,683.77c.48,3-.94,5.41-1.56,8-1.83,7.52-2.06,14.48,5.74,19.18,2.59,1.57,3.59,4.54,4.56,7.21,1.8,5,3.16,10.13,4.79,15.19.89,2.79,1.47,5.41.24,8.37a7.3,7.3,0,0,0,1.42,7.54c2.53,3,3.06,6.87,5.27,9.93,1.14,1.57.93,3.37,1,5.13,0,2.28,0,4.67-2.77,5.38s-5.22.33-6.71-2.69c-2.27-4.6-5.65-8.38-8.92-12.32-4.93-5.93-11.29-7.64-18.26-7.27-6.53.34-12.15-1.49-17.7-4.53a10.55,10.55,0,0,1-5.31-5.64,103.2,103.2,0,0,1-4-11.25,11,11,0,0,1,1.9-10c4.23-5.39,8-11,13.84-15,6.11-4.17,9.33-11.13,14-16.74,1.14-1.36.08-2.94-.34-4.42-.76-2.72-.58-5.27,1.84-7.25,1.35-1.11,2.93-1.62,4.23-.45C1148.67,675.25,1153.28,678,1151.9,683.77Z" transform="translate(-421.83 -9.83)"/><path class="cls-2" d="M1350.27,635.17q1.23-10.17,2.44-20.35a31.36,31.36,0,0,0,.46-5.27c-.43-8.12,1.37-16.22.13-24.37a15.52,15.52,0,0,1,.41-7.91c1.48-3.81.69-7.39-.57-11-1.1-3.14-2-6.34-3.2-9.45a15.07,15.07,0,0,1-.6-7.22,5.12,5.12,0,0,1,4.73-4.82c4.24-.49,8.15-.4,11.47,3.39,8.79,10,17.46,20.26,20.12,33.69,2.58,13,4.22,26.22-1.2,39.1a9.53,9.53,0,0,0-.51,1.92c-1.78,10-3.54,12.14-13.89,13.47-4.88.63-8.53,1.23-9.28,7.12a5.7,5.7,0,0,1-5,4.66c-1.87.19-4.87-3.55-5.1-6.26-.19-2.21,0-4.44,0-6.66Z" transform="translate(-421.83 -9.83)"/><path class="cls-2" d="M1253.4,352.67c-6.92.4-14.77-.67-22.58-2.35a14.45,14.45,0,0,0-4.63-.29c-10.1,1.22-18.27-3.36-25.36-9.47-8-6.93-15.22-14.82-23.28-21.79-4.18-3.62-3.76-4.34.72-8,2.22-1.83,4.09-4.08,6.29-5.93,1.74-1.47,2.82-4.63,5.83-3.44,3.57,1.42,6.51,3.57,7,8,.6,5.91,4,10.34,8.71,13.54,3.92,2.64,8.7,3.31,13.22,4.18,5,1,10,1.43,13.68,5.7,1.26,1.48,3.35,1.53,5,1,6.1-2,12.34-1.05,18.51-1.09a72.9,72.9,0,0,0,21.54-3.16c5.12-1.61,10.55-.53,15.71-2.09,2.6-.78,4.81,1,5.77,3.47s.89,5-1.37,6.71c-6.67,4.91-12.67,11.47-22.31,9.72-1.47-.26-3.66-.58-4.41.73-3.44,6-9.09,4.38-14.25,4.56C1256.27,352.7,1255.38,352.67,1253.4,352.67Z" transform="translate(-421.83 -9.83)"/><path class="cls-2" d="M905.42,172.07c.23,2.42-1.1,4.16-3.07,5.4-6,3.76-10,9.25-13.71,15.11-1.1,1.75-2,3.39-1.86,5.5.31,3.73-1.95,5.67-5,7.08-3.43,1.61-6.91,3.25-9.18,6.41-4,5.54-9.73,7.33-16,7.71-4.1.24-7,1.63-9.31,5.24-1.82,2.89-4.57,4.2-8.57,3.19-4.66-1.18-9.62-1.11-14.42-1.77a19.83,19.83,0,0,1-5.73-1.58c-7.54-3.57-8.35-9.17-1.73-14.18a70.63,70.63,0,0,1,16.51-9.77c7.18-2.84,14.16-6.1,21.5-8.64,8.24-2.85,14.55-9.2,21.24-14.57,6.1-4.89,13.39-6.73,20.29-9.6,1.52-.63,3.51-.29,5.28-.17C904.38,167.62,905.45,169.38,905.42,172.07Z" transform="translate(-421.83 -9.83)"/><path class="cls-2" d="M649.58,826.33a6.44,6.44,0,0,1,.59-2.66c3.72-5.55,1.08-10-2.1-14.57a157.61,157.61,0,0,1-21.86-45.85,17.66,17.66,0,0,1,.82-11.7c1-2.72,2.87-4.68,6-4.08,3,.56,4.44,2.7,4.5,5.75.17,8.33,1.41,16.78,6.3,23.39,6.58,8.89,10.28,19.47,17.76,27.85,3.46,3.88,6.16,8.56,10,12.26a13.81,13.81,0,0,0,5.56,3.54c6.14,1.82,12.22,4,18.5,5.17s11.42,4.59,16.53,8.06a11.08,11.08,0,0,1,3.2,3.34c2,3.21.12,6.22-3.67,6.42-2.12.11-3.85-.9-5.67-1.69-8-3.5-16-5.5-24.14-.54a6,6,0,0,1-5.75.22c-4.16-1.83-8.53-2-13-2C656.65,839.15,649.8,832.72,649.58,826.33Z" transform="translate(-421.83 -9.83)"/><path class="cls-2" d="M551,410.57a11.93,11.93,0,0,1-.27,3.35c-1.11,3.9-4.52,4.94-7.55,2.16a103.75,103.75,0,0,0-12.71-9.53,10.42,10.42,0,0,1-4.48-5.52c-1.36-4.17-2.08-8.57-4.82-12.21a4.67,4.67,0,0,1-.64-3.84A19.83,19.83,0,0,0,518.13,371c-1.68-3.09-2.76-6.07,0-9.19a3.62,3.62,0,0,0,.76-2.47c-.61-7.44,4.27-12.87,7-19.05.69-1.55,2.18-2.79,3.45-4,2.51-2.37,6.92-3.29,9.09-1.66a7.69,7.69,0,0,1,3,8.27,75.15,75.15,0,0,0-2.38,15c-.32,11.8,2,23.24,5.4,34.49a10,10,0,0,0,2.17,3.28C549.73,399.68,551.09,404.26,551,410.57Z" transform="translate(-421.83 -9.83)"/><path class="cls-2" d="M1108.83,262.75c-.11,1.94-1.52,1.93-2.87,1.81-6.79-.56-11.09-4.94-14.92-9.94-1.34-1.75-2.31-3.77-3.61-5.55a12,12,0,0,0-4.94-4.29c-8.7-3.68-14.69-9.64-15.9-19.46-.18-1.41-1.22-2.32-1.85-3.47-1.58-2.9-3.45-5.67-3.45-9.22,0-2.55-1.61-4.52-3-6.55-1.23-1.81-1.38-3.78.17-5.5,1.75-2,3.76-1,5.4.1,5.34,3.67,9.72,8.46,13.85,13.33,6.71,7.9,13,16.18,19.29,24.4a66.21,66.21,0,0,1,11,21.8C1108.3,261.06,1108.57,261.91,1108.83,262.75Z" transform="translate(-421.83 -9.83)"/><path class="cls-2" d="M630.91,597.94a9.54,9.54,0,0,1,1.73-6.05,16.3,16.3,0,0,0,2.25-10.21,41.2,41.2,0,0,1,3-18.85c3.88-9.91,5.42-20.49,8.8-30.57,1.92-5.72,6-9.7,9.29-14.4a2.29,2.29,0,0,1,3-.79c1.26.6,1.25,1.79.86,2.85-1.37,3.71-2.19,7.55-3.75,11.26-3.56,8.48-7.7,16.92-6.58,26.71.52,4.61-.36,9.37.18,14,1,8.61-1.71,16-5.88,23.24a15.09,15.09,0,0,1-7.08,6.67C632.42,603.68,631,602.84,630.91,597.94Z" transform="translate(-421.83 -9.83)"/><path class="cls-2" d="M912.22,831.29a8.7,8.7,0,0,1,5.69,1.6,47,47,0,0,1,15.18,14.62c2.58,4.1,3.94,8.41,2.27,13.21-.84,2.44-.44,4.73.23,7.15a19.44,19.44,0,0,1-.91,12.38c-.85,2.21-2.22,3.9-4.68,4.21-2.87.36-4.44-1.53-5.78-3.69s-1.42-4.57-1.49-7c-.11-3.73,0-7.41-.79-11.2-1.64-7.43-7.3-11.91-11.46-17.51a35.26,35.26,0,0,0-3.25-3.34,6,6,0,0,1-1.11-7.34C907.31,831.91,909.56,831,912.22,831.29Z" transform="translate(-421.83 -9.83)"/><path class="cls-2" d="M912.12,746c-.07,6.92-4.07,9.51-9.7,7.12a14.53,14.53,0,0,1-6.07-5c-5.94-8.23-11.74-16.57-13.21-27-.12-.87-.26-1.75-.33-2.62-.23-3.21-.16-6.53,3.32-7.93s5.3,1.75,6.73,4c2.2,3.42,5.28,5.92,8,8.81a49.79,49.79,0,0,1,10.87,19.48A14.42,14.42,0,0,1,912.12,746Z" transform="translate(-421.83 -9.83)"/><path class="cls-2" d="M951.52,486c6.08-.1,8.71,3.87,6.13,8.52a124.26,124.26,0,0,1-9.36,14.38c-1.67,2.21-2.81,4.18-3,7-.23,4.25-2.61,6.2-6.29,6-3.4-.2-5.36-2.2-5.53-6.13a63.91,63.91,0,0,0-1.16-10.47c-1.45-6.88,4.1-15.41,11.09-17.55C946.36,486.9,949.55,487.06,951.52,486Z" transform="translate(-421.83 -9.83)"/><path class="cls-2" d="M932.05,543c-3.66,13.09-7.45,26-21.09,32.67-2.63,1.28-5.09,1.51-7.41-.39s-2.51-4.47-1.16-7.15c3.08-6.11,5.72-12.49,12.1-16.17,2.41-1.39,3.51-3.92,4.24-6.53a14.78,14.78,0,0,1,4-6.76c1.74-1.69,3.66-2.64,6-1.55A5.5,5.5,0,0,1,932.05,543Z" transform="translate(-421.83 -9.83)"/><g class="cls-3"><path class="cls-4" d="M1220.78,166.36c.71,8.8-.73,18.76,1.42,28.56.43,1.93.88,3.86,1.27,5.79,1.43,7.14,5.56,11.61,12.56,13.88s14.1,3.31,21.26,4.51c19.47,3.25,37.48,11.15,55.87,17.81,8.47,3.08,17.09,5.83,25,10.33,10.64,6.06,20.11,13.48,27,23.74a35.19,35.19,0,0,1,4.57,8.76c5.5,17.36,13.24,34.09,15,52.52a17.11,17.11,0,0,0,1.21,5.11c6.71,15.28,8.53,31.77,12.15,47.83a114.36,114.36,0,0,0,18.23,41.39c7.36,10.4,14.54,20.94,21.66,31.52a53.93,53.93,0,0,1,8.45,21.35c3.73,22.54,12.13,43.61,20.12,64.79a190.61,190.61,0,0,0,14.54,29.6,77.07,77.07,0,0,1,10.6,33,53.38,53.38,0,0,0,1.53,7.75c2.69,11.2,2.59,22.08-2.79,32.74-5.93,11.74-14.59,20.94-25.17,28.32a92,92,0,0,0-16.51,15.11c-10.33,11.76-21.72,22.48-32.68,33.63-4.5,4.58-10.11,7.78-15.73,10.81A39.71,39.71,0,0,0,1384.73,750a139.46,139.46,0,0,1-27.06,33.09,173.39,173.39,0,0,1-25.25,19.08c-16.72,10.07-27.28,24.91-36.34,41.6-8.11,14.93-15.19,30.31-22.15,45.76-8.28,18.39-19.65,34.84-31.42,51.08-22.07,30.44-50.88,52.85-84.16,69.55a551.13,551.13,0,0,1-65,27.47c-9.09,3.19-18.59,3.43-28,4.17-7.63.6-14.72,2.3-21.16,6.56-8.12,5.35-17.12,9.05-25.76,13.42a51.6,51.6,0,0,1-19.08,4.92c-18,1.55-35.14-.45-51.62-9.67-16-9-30.77-19.63-46.22-29.32-12.11-7.6-24.78-14.28-39.09-17-5.65-1.07-11.39-.59-17.09-1.45-19.08-2.89-36.26-10.66-52.76-20.07-9.37-5.34-15.51-14.19-22.08-22.46-9.81-12.35-21.35-22.12-37.27-25.73-5.12-1.17-10.06-3.16-15.09-4.78-13.47-4.33-27.41-6.25-41.41-7.71a39.51,39.51,0,0,0-7.9.33c-27,2.62-51.58-3.22-72.74-21A359.73,359.73,0,0,1,568.71,883a173.4,173.4,0,0,0-36.35-28.29,70.86,70.86,0,0,1-21.21-18.56,439,439,0,0,1-41.21-68.28c-7.05-14.36-8.38-29.64-5.86-45.09,3.83-23.47,8.66-46.83,18.25-68.71,10.87-24.76,18.45-50.9,31.68-74.65,1.49-2.69,2.88-5.44,4.39-8.12,7.71-13.63,12.38-28.12,12.85-43.9.16-5.61-1.7-10.1-5.1-14.51-9.61-12.47-21.77-21.43-35.63-28.71s-24-18.67-31.44-32.17a163,163,0,0,1-18.44-54.77c-1.22-8.21.38-16.25,1-24.33,1.51-19,9-36.19,16.56-53.31a594.29,594.29,0,0,1,47-87.07c14.35-21.86,28.3-44.11,46.14-63.47,22.91-24.85,50.27-41.79,84.12-47.21,6.5-1,13-2.44,19.41-3.8a44.15,44.15,0,0,1,11.77-1.35c5.32.31,10.51-.94,15.77-1.25,9.72-.56,19.35.57,29,1.3,4.66.36,5.93,2.24,5.52,7-1,11.19,2.78,20.61,12.25,26.65,12.94,8.25,27.18,11.54,42.22,6.73,13.87-4.43,21.9-20.55,17.88-34.61a17.71,17.71,0,0,0-1.51-4.36c-3.47-5.68-2.1-10.53,1.5-15.73,7.88-11.39,14.76-23.49,25-33.1a57,57,0,0,1,8.64-7.13c15.34-9.46,28-22.79,44.53-30.59a88.92,88.92,0,0,1,16.6-6.22c19.4-4.77,38.45-1.63,57.56,1.89C952.1,29.21,962,32.78,971.68,37c10.61,4.63,21.8,6.39,33.32,7.32,12.71,1,25-1.33,37.31-3.22,13.17-2,26.35-1,39.54-.48,13.89.56,27.51,3,41.12,5.61a15.48,15.48,0,0,0,5.26,0c16.3-2.52,30,3.58,41.78,13.84,16.59,14.42,29.36,32.15,40.63,50.87a70.23,70.23,0,0,1,10.16,38.44C1220.68,154.71,1220.78,160,1220.78,166.36Z" transform="translate(-421.83 -9.83)"/></g><path d="M1222.31,157.42c0,5.3-.09,10.6,0,15.89.32,15.82,7.74,27.92,20.38,36.77a26.46,26.46,0,0,0,12.24,4.43c14.9,1.39,29,5.78,43.09,10.28,10.92,3.49,22.13,6.05,33.25,8.92,5.34,1.38,10.81,2.31,16.11,3.82,11.47,3.27,20.11,10.21,24.89,21.21,3.6,8.29,7.18,16.71,9.48,25.42q7,26.58,12.54,53.55c4.42,21.69,9.18,43.24,17.46,63.86,5.73,14.27,13,27.54,23.73,38.75,5.44,5.67,8.86,12.7,11.36,20.05,2.63,7.73,5.4,15.51,7,23.49,5.73,28.83,16.73,55.83,27.73,82.86,3.33,8.18,7,16.24,10,24.55a137,137,0,0,1,5.6,19.74c4.36,22.17-1.44,41.64-16.85,58.08a164.22,164.22,0,0,1-15.59,14.35c-18.26,15-36.8,29.71-55,44.81-8.48,7-16.63,14.54-24.53,22.24-17.23,16.82-33.89,34.23-51.36,50.79-20.3,19.22-37.26,40.74-49,66.16-6.79,14.63-13.47,29.32-19.79,44.16a163.13,163.13,0,0,1-31.89,48.47,394.73,394.73,0,0,1-40.37,37.31A219.93,219.93,0,0,1,1154,1022.8c-15.79,7.94-31.68,15.68-47.55,23.45a43.6,43.6,0,0,1-6.16,2.44c-5.42,1.7-10.65,1.2-14.9-2.74a11.3,11.3,0,0,0-11-2.81c-10.3,2.44-20.65,4.73-30.81,7.68-6.77,2-13.24,4.94-19.84,7.49-17.49,6.76-35.57,8.45-54.1,6.33a77.91,77.91,0,0,1-32.24-11.39c-8.86-5.42-17.58-11-26.44-16.48a166.48,166.48,0,0,0-52.67-21.06c-9.49-2-18.9-4.58-28.22-7.32A134.8,134.8,0,0,1,784,984.25c-4.5-3.58-9.06-7.08-13.45-10.77-21.52-18.09-46.69-27.32-74.24-30.85-3.95-.5-8-.65-11.81-1.61a43.05,43.05,0,0,1-11.66-4.35,27.27,27.27,0,0,0-17.72-4c-.44,0-.89.06-1.32.14-26.21,4.63-48.12-5.09-68.25-20.59-3.15-2.42-6-5.22-9.1-7.72-2.22-1.8-4.39-3.94-7-5-13.74-5.65-24.78-15.27-36.17-24.33-10.71-8.53-21.36-17.18-31.49-26.38-5-4.53-8.83-10.38-13.08-15.72-1.78-2.24-3.15-4.82-4.94-7.05-15.86-19.69-23.16-42.29-24.08-67.43-.91-24.9,3.22-49,11.12-72.36,6-17.76,13.39-35.06,20.4-52.48,5.77-14.35,12.37-28.38,17.69-42.89,3.94-10.75,6.64-22,9.44-33.09,1.06-4.23,1.09-8.77,1.23-13.17C520,530,515,517.4,504.78,506.83,497.19,499,488.4,492.71,479,487.22c-5.72-3.34-11.53-6.55-17.12-10.1a75.68,75.68,0,0,1-28.77-33c-12.09-26.37-15.27-53.44-5.62-81.24,6.89-19.83,14-39.59,21.54-59.18a238.74,238.74,0,0,1,12.89-27.61,653.34,653.34,0,0,1,60.59-92.52c15.1-19.3,32.91-35.74,54-48.49a132.73,132.73,0,0,1,56-19.08c17.59-1.77,35.2-3.32,52.81-4.78,20.09-1.66,39.2,1.7,56.9,11.76a61.85,61.85,0,0,0,6,2.88c9.14,4,12.63,3.16,18.67-5a143.9,143.9,0,0,0,8.6-13.36c4.23-7.26,8.3-14.61,12.3-22C799,64.64,815.41,49,836.08,37.7c9.49-5.21,18.84-10.66,28.23-16.06,20.11-11.56,41.37-14.9,63.89-8.84,8.74,2.36,17.42,5,26.1,7.56,8.47,2.52,16.86,5.3,25.37,7.68,10.76,3,21.68,3.44,32.84,2.39,12.51-1.17,25.11-1.29,37.66-2.14a194.23,194.23,0,0,0,22.35-2.4c14.52-2.69,28.86-3.34,43.43-.15a49.8,49.8,0,0,0,16.43.66c14-1.74,25.89,2.52,37.22,10.58,29.4,20.92,43.7,50.73,50.92,84.83A105.69,105.69,0,0,1,1222.31,157.42ZM672.66,139.11v.06c-10.36.71-20.72,1.49-31.08,2.12-23.21,1.42-43.85,9.59-62.4,23.4A175.19,175.19,0,0,0,546.06,197c-40.88,51.94-71.87,109.11-91,172.58a105.62,105.62,0,0,0-3.27,44.57c3,23.35,13.08,41.77,34.06,53.81,11.7,6.72,22,15.48,31.83,24.79,16.84,15.88,24.18,35.35,24.26,58.16a187,187,0,0,1-9.6,59.32c-7,21.41-14.56,42.67-22.39,63.8a356.72,356.72,0,0,0-18.76,74.42c-2.41,17.15.4,32.95,9.3,47.77,6.83,11.37,13.28,23,20.34,34.18a81.84,81.84,0,0,0,11.8,15.07,235,235,0,0,0,40.16,31.35c8,5,16.2,9.92,24.16,15.09,8.33,5.42,16.63,10.91,24.7,16.71,9.43,6.77,19.4,9.79,31.15,7.48a34.87,34.87,0,0,1,23.87,3.38c5.82,3.21,11.91,4.18,18.39,4.65,31.16,2.25,59.66,11.86,84.4,31.45,3.81,3,7.79,5.84,11.55,8.92,17.45,14.3,37.44,23.22,59.34,28.15,3.67.82,7.29,1.83,11,2.53,22.43,4.27,43,13.21,62.56,24.76,8,4.72,15.88,9.61,23.8,14.44a63.26,63.26,0,0,0,34.09,9.21c12.29,0,24.19-1.92,35.61-6.59q7.05-2.88,14.19-5.56c20.46-7.66,41.36-12.65,63.46-11.23a20,20,0,0,0,9.48-2.33c8.93-4.36,17.59-9.26,26.46-13.75,32-16.19,58.78-39,82.65-65.49a140.56,140.56,0,0,0,25.67-40.73c5.49-13.27,11.31-26.41,17.18-39.52,13.67-30.53,33.49-56.5,58.2-78.94,13.41-12.18,27-24.24,39.42-37.4a511.13,511.13,0,0,1,53.79-49.1c12.45-9.92,24.66-20.11,36.95-30.22,3.42-2.8,6.76-5.7,10.08-8.62,13.94-12.22,18.34-27.16,12.41-44.83-2.95-8.8-6.37-17.43-9.44-26.18q-6.36-18.14-12.48-36.33c-1.69-5-3.34-10.08-4.65-15.22-2.67-10.47-5.1-21-7.62-31.51-3-12.66-5.85-25.39-9.22-38a36.54,36.54,0,0,0-5.53-11.21c-17-24-28.5-50.23-33.25-79.4-3.24-19.85-6.43-39.73-10.69-59.37-2.94-13.56-7.59-26.75-11.63-40.06-4-13.14-12.84-20.77-26.47-22.81-2.83-.43-5.65-1.06-8.44-1.7-7.75-1.79-15.58-3.31-23.21-5.52-17.4-5-34.64-10.62-52.68-13.15a32.6,32.6,0,0,1-17.38-7.69,237.17,237.17,0,0,1-19.36-18.95,43.1,43.1,0,0,1-10.56-24.63,99.65,99.65,0,0,1-.31-19.15c2.34-25.95-3.62-50-15.47-72.91-7-13.5-17.26-23.92-29.68-32.42a42.74,42.74,0,0,0-23.61-7.55c-8.6-.24-17.17-1.39-25.77-1.78-7.26-.32-14.63-.88-21.79,0-23.46,2.84-46.85,6.2-70.25,9.52-13.29,1.88-26.48,1.75-39.48-1.61-8.33-2.14-16.52-4.86-24.74-7.44-9.48-3-18.85-6.31-28.38-9.13-13.41-4-26.64-2.87-39.63,2.17a155.78,155.78,0,0,0-38,21.43,102.83,102.83,0,0,0-27,30.62c-4.86,8.42-9.53,17-15.08,25a297.54,297.54,0,0,1-22.24,28.8c-11.46,12.74-23.64,15-39.62,8.65-4.92-2-9.71-4.25-14.48-6.56a73.21,73.21,0,0,0-36-7.12Z" transform="translate(-421.83 -9.83)"/><path d="M1184.69,303.5c.22.94.38,1.24.3,1.34-4.7,5.79-3.27,10.56,1.92,15.3,2.2,2,3.55,5,5.06,7.7,6.07,10.7,15,17.18,27.29,18.78a61.56,61.56,0,0,0,23.69-1.15c10.49-2.75,20.81-3.09,31.33.28,7,2.26,10,.54,13.32-6.08,1.19-2.37,2.05-4.89,3.19-7.28s3-4.39,5.65-3.63c2.08.6,4.56,2.26,5.39,4.11a15.82,15.82,0,0,1,.94,8.34c-1.54,11-12.3,19.07-23.46,17.7a23.76,23.76,0,0,1-7.64-2.05c-8.53-4.25-17.47-4.46-26.55-3a82.24,82.24,0,0,1-28.34-.58c-12.8-2.43-22.93-8.7-30-19.85-1.42-2.23-4.08-3.8-6.43-5.24-3.75-2.31-7.92-4-11.54-6.44s-5.84-6.16-4.6-10.86,4.82-6.7,9.23-7.45A30.82,30.82,0,0,1,1184.69,303.5Z" transform="translate(-421.83 -9.83)"/><path d="M632.16,742.75c-.29,2.55-.18,4.44-.74,6.11-2.21,6.59-.95,12.62,2.5,18.39,6.23,10.42,12.13,21,18.77,31.19,5.08,7.77,7.28,15.3,3.26,24.24-2.28,5.06-1.19,6.53,4.27,7.89,9.34,2.33,18.77,2.22,28.28,1.11,5.68-.67,11.42-.74,17.14-1a17.39,17.39,0,0,1,3.3.22c4.67.66,7,2.68,6.7,5.8-.32,3.54-5.31,7.79-8.73,6.23-10.24-4.67-20.89-.85-31.23-2.35-6.31-.92-12.79-.62-19.14-1.34-9.88-1.1-12.87-7.06-8.23-15.78a3.25,3.25,0,0,1,.33-.57c6.67-7.67,4.46-14.19-1.27-21.7-6.11-8-10.56-17.27-15.63-26a138.58,138.58,0,0,1-6.54-12.26C622.08,756,624.69,747.93,632.16,742.75Z" transform="translate(-421.83 -9.83)"/><path d="M633,602.55c.88-1.49,1.4-3,2.4-3.94a74.55,74.55,0,0,1,7.45-6.53c4.61-3.46,6.3-7.61,4.39-13.27-2.41-7.14-1.56-14.27.16-21.52,2.05-8.56,3.47-17.27,5.07-25.93,3.69-20,8.22-39.79,18.23-57.76,2.65-4.77,6.28-9,9.73-13.29a11.2,11.2,0,0,1,6.42-3.6,29.73,29.73,0,0,1-1.48,3.89c-7,12.61-11.49,26.15-16.3,39.7-7.14,20.09-10.16,41.08-15.7,61.49a27.91,27.91,0,0,0,.23,15.69c2.53,8.34-.08,14.65-7,19.54-2.35,1.64-4.47,3.61-6.78,5.29C638,603.6,636.14,605,633,602.55Z" transform="translate(-421.83 -9.83)"/><path d="M1353.36,645.62c-2.73-3.25-1.73-5.89.25-7.61a58.61,58.61,0,0,1,10.24-7.06,83.3,83.3,0,0,1,10.42-4.25c3.57-1.36,4.93-3.84,4.93-7.68a160.69,160.69,0,0,1,.88-17.13,36.33,36.33,0,0,0-2.64-18.14q-5.71-13.75-11-27.71c-2.22-5.92-5.44-9.81-12.48-9.71-4.64.07-6.7-2.45-5.61-6.87,1.84-7.48,3.78-15.06,6.85-22.08,1.86-4.25,5.7-7.77,9.11-11.16,1.63-1.63,4.32-2.2,6.53-3.25l1.19,1.42a90.21,90.21,0,0,1-5.72,7.66A41,41,0,0,0,1356,533.89a26.67,26.67,0,0,0,0,3.9,13.76,13.76,0,0,0,2.56,1.21c7,1.6,11.5,6.29,12.88,12.89,2.44,11.64,7.75,22.06,12.37,32.8a41.11,41.11,0,0,1,2.93,19.46c-.32,4.83-.44,9.69-.29,14.53.25,8.16-1.58,11.26-9.09,14.15-2.68,1-5.44,1.85-8.15,2.82-4.82,1.73-9.41,3.82-12.8,7.93C1355.76,644.36,1354.66,644.77,1353.36,645.62Z" transform="translate(-421.83 -9.83)"/><path d="M907.05,837.42c1.75,1,3.1,1.32,3.91,2.19,7.22,7.83,14,16,15.29,27.13a34.07,34.07,0,0,0,10,20.35c4.31,4.41,8.54,8.91,12.55,13.59a21.39,21.39,0,0,1,3.86,6.75c.36,1-.6,3-1.57,3.83-.68.59-2.59.32-3.61-.21a22,22,0,0,1-4.07-3.32c-5.76-5.12-11.63-10.12-17.19-15.44-5.4-5.16-9.2-11.47-9.71-19-.58-8.61-3.72-16.22-7.41-23.79C907.4,846,905.14,842.54,907.05,837.42Z" transform="translate(-421.83 -9.83)"/><path d="M1164.91,767.13c-2.54-1.37-5.34-2.2-7.18-4-10.74-10.58-23.69-16.71-38.21-19.93-7.29-1.62-11.54-6.06-12.49-13.57-.73-5.85-2.75-11.55-.49-17.6,1.85-5,4.29-9.2,9.32-11.4,4.19-1.84,7.13-4.92,9.83-8.56,2.32-3.13,5.48-5.62,8.13-8.53,1.82-2,3.4-4.24,5.35-6.7,2.08,2.67,1.2,5.3-1.05,7.2-4.83,4.08-7.91,9.38-11.38,14.49-1.65,2.44-4.48,4.11-6.86,6s-5.22,3.38-7.26,5.6c-6,6.52-6.48,11.32-2.44,19.22,1.92,3.76,4.72,6.2,9.13,6.76,5.69.72,11.39,1.51,17,2.69,14.68,3.09,23.79,12.58,29.17,26.13C1165.59,765.25,1165.28,765.74,1164.91,767.13Z" transform="translate(-421.83 -9.83)"/><path d="M1212.88,505.51a14.39,14.39,0,0,1,3.54,1c15.83,9.43,29.55,20.89,37.21,38.31,2.52,5.74,4.41,11.55,3.95,17.92-.22,3,.16,5.66,3.2,7.35,1.87,1,3.23,3.13,1.81,5a8.67,8.67,0,0,1-5.35,3c-3.7.44-7.16-2.47-8.2-6.39a12.55,12.55,0,0,1-.4-5.23c2.12-12.07-3.32-21.55-10.53-30.22a101.59,101.59,0,0,0-11.85-11.52c-5.93-5.13-9.88-11.66-14.34-17.84Z" transform="translate(-421.83 -9.83)"/><path d="M534.66,334.7c-1.58,2.06-3,4.22-4.77,6.15-9.22,10.36-11.7,21.83-6.35,34.92,1.9,4.67,2.82,9.74,4.63,14.47a97.9,97.9,0,0,0,6.54,14.36c2.28,3.92,6,5.84,10.73,3.78,2.18-.94,4.39-1.22,5.79,1.22,1.54,2.7.68,5.12-1.41,7.17-3.33,3.26-9.29,3.54-14.17.53a25,25,0,0,1-9.84-12.14c-1.61-3.86-3-7.81-4.25-11.82-2.12-6.95-4.21-13.93-6-21-3.3-13.31-.92-24.95,10.64-33.63,2.4-1.8,4.74-3.68,7.11-5.52C533.78,333.71,534.22,334.21,534.66,334.7Z" transform="translate(-421.83 -9.83)"/><path d="M908.46,572.1a29.55,29.55,0,0,1,4.07-3.38c6.12-3.53,10.44-8,10-15.78-.11-2.05,1.07-4.24,1.92-6.26a31.81,31.81,0,0,1,3.09-5.86c6.21-8.89,8.05-18.35,4.86-28.9a35.33,35.33,0,0,1-1-11.17c.18-5.76,3.25-9.82,8.55-12.42.12.71.36,1.29.21,1.43-5.76,5.33-5.81,11.51-2.8,18.18q1.08,2.42,2.12,4.86c3.64,8.71,3.56,17.19-1.61,25.35-1.89,3-4,5.87-5.61,9-1.5,2.89-3.11,5.94-3.62,9.09a16.06,16.06,0,0,1-8.86,12.4c-3.39,1.78-6.89,3.38-10.33,5Z" transform="translate(-421.83 -9.83)"/><path d="M1103.06,263.63c-1,.11-1.53.35-1.79.17-9.48-6.4-19.15-12.56-28.31-19.4-5-3.73-8-9.37-10-15.34-2.84-8.36-5.7-16.71-8.41-25.11a30.33,30.33,0,0,1-.77-5.38c3.46-1,4.46,1,5.23,2.7,2.43,5.42,5.31,10.78,6.78,16.48,3.62,14.07,11.72,24.33,23.88,32C1098.11,255.14,1100,257.7,1103.06,263.63Z" transform="translate(-421.83 -9.83)"/><path d="M816.39,224.13c2.48-2.33,4.46-.77,6.29.17a18.16,18.16,0,0,0,18.38-.43c7.26-4.35,15-7.43,22.83-10.36a30.71,30.71,0,0,0,15.25-12.16c4-6.07,8-12.17,12.08-18.19,1.53-2.24,3.35-4.28,5-6.41l1.22.9c-6.67,10.81-13.21,21.7-20.08,32.38-3.25,5-8.95,7-14,9.62-6.47,3.3-13.08,6.34-19.57,9.61a26,26,0,0,1-16.08,2.55C822.86,231,818.68,229,816.39,224.13Z" transform="translate(-421.83 -9.83)"/><path d="M907.76,746.33c-1.81,3.95-4.61,4-7.52,3.28C888.91,747,881.17,729.09,887,719c.18-.32.71-.45,1.87-1.13.53,1.58,1.52,3.06,1.45,4.48-.61,11.31,5.13,18.15,15.1,22.21A13.57,13.57,0,0,1,907.76,746.33Z" transform="translate(-421.83 -9.83)"/><path d="M1146.27,688.86l12.25,28-1.64.71c-5-9-14.35-16.17-13-28Z" transform="translate(-421.83 -9.83)"/></svg>