<svg id="Layer_1" data-name="Layer 1" xmlns="http://www.w3.org/2000/svg" viewBox="0 0 900.51 1014.69"><defs><style>.cls-1{fill:#645340;}.cls-2{fill:#4c3c29;}.cls-3{opacity:0.25;}.cls-4{fill:#7d4cb7;}</style></defs><path class="cls-1" d="M1400.09,628.69c-7,3-7.31,2.77-6.73-4.61q1-12,1.9-24.08c.88-11.38,1.28-22.84,5.09-33.76,2.79-8,2.82-16.17,2.11-24.41a52.45,52.45,0,0,1,0-9c.64-7.49,1.21-15.1-.74-22.36-2-7.63-2.77-15.31-3.64-23.1-1.54-13.62-5.72-26.7-11.12-39.32-4.8-11.22-11.25-21.57-17.45-32a20.14,20.14,0,0,1-2.69-6.68,190.16,190.16,0,0,0-4.76-20.22,115.55,115.55,0,0,0-17.69-34.27c-7.24-9.87-15.13-19.17-27.26-23.42a5,5,0,0,1-3.12-3.7c-2.17-7.16-4.82-14.21-6.47-21.49-4-17.53-8.08-35-13.39-52.19a287.33,287.33,0,0,1-9.3-41.61,81.39,81.39,0,0,0-9.07-27,108.18,108.18,0,0,1-5.15-11.21,84.93,84.93,0,0,0-5.66-12.2,66.1,66.1,0,0,1-7.91-20.9,88.7,88.7,0,0,0-7.26-20,62.51,62.51,0,0,1-3.23-7.14c-1.77-5.38-3.8-10.57-7.6-14.9-1.15-1.32-1.81-2.82-.83-4.62,2-3.7.29-6.41-2.4-8.89-1.5-1.39-3.31-2.67-4.27-4.4-2.45-4.43-6.37-6.7-10.85-8.36a75.58,75.58,0,0,0-23-4.51c-1.49-.07-3.33-.42-4.42.27-4.14,2.66-8.88,2.68-13.4,3.71a6.88,6.88,0,0,0-5.54,5.66c-.8,3.63-.91,3.71-4.11,3.85-12.71.57-25.38,1.92-38.14,1.44-8.6-.33-17.23-.14-25.84-.14a70.19,70.19,0,0,0-13.43,1,14,14,0,0,1-7.17-.62c-5.37-1.75-10.94-2.86-16.58-2.25a19.93,19.93,0,0,1-12.36-2.66c-2.28-1.29-4.66-2.42-6.87-3.82a136.56,136.56,0,0,0-36.19-16.42,46.19,46.19,0,0,0-12.66-2.18,14.64,14.64,0,0,1-7-1.62c-12.29-6.45-25.35-7.4-38.8-5.23A233.39,233.39,0,0,0,927.59,55a88.22,88.22,0,0,1-10.45,2.09c-11.47,1.79-22.9,3.69-34.08,6.91-13,3.75-25.54,8.56-36.5,16.81A46.16,46.16,0,0,1,841,84.66a169.22,169.22,0,0,0-37.15,26.93,34,34,0,0,1-10.73,7,37.67,37.67,0,0,0-11.4,7.07c-7.43,6.85-14.92,13.64-22.33,20.51a48.52,48.52,0,0,0-8.74,10.22,22.64,22.64,0,0,1-8.38,8.08,41.44,41.44,0,0,0-14.67,13.62c-3.57,5.57-7.3,7.12-13.84,5.44a63.16,63.16,0,0,0-18.37-1.66c-3.37.13-6.74.23-10.11.23a55.53,55.53,0,0,1-18.22-2.65c-11.16-3.77-21.44-1.25-30.61,5.82a15.34,15.34,0,0,1-7.54,3.38c-13.34,1.74-22.58,9.27-28.93,20.73-1.71,3.11-3,6.44-4.48,9.68-.45,1-.65,2.5-2,2.38h0c1.12.32,1.1,1.46,1,2.73,0,.7-.57,2-1.23,1.85-1.45-.36-1.37-1.86-1.23-3.14a1.89,1.89,0,0,1,.86-1.43c-1.94.14-2.49,1.81-3.43,3.15a47.26,47.26,0,0,0-6.69,14.76c-.54,2-1,4-2.79,5.37-2.82,2.25-3.87,5.49-4.4,8.86a104.31,104.31,0,0,0-1.22,10.59,60,60,0,0,1-2.73,15.44,54,54,0,0,0-2.71,12.6c-.52,6.34-1.6,12.84.16,19,1.15,4,.42,7.2-1.13,10.74-3.83,8.74-7.85,17.46-9.37,27a36.07,36.07,0,0,1-6,15,132.89,132.89,0,0,0-11.06,20.16,56.11,56.11,0,0,0-5,25.71,181,181,0,0,0,5.07,35.52c1.85,7.64,3.78,15.27,5.27,23a84,84,0,0,0,11.53,29.05q1.79,2.86,3.51,5.76a36.9,36.9,0,0,1,4.76,12.5c1.43,8.11,2.87,16.22,5,24.19a56.66,56.66,0,0,1,1.68,17.8c-.67,14.42-2.66,28.71-4,43a9.54,9.54,0,0,1-4.76,7.71c-10.16,6.48-15,16.17-16.42,28-1.23,10.14-.51,20.23.53,30.25A34,34,0,0,0,562.15,691a15.11,15.11,0,0,1,4.5,6.32,97.4,97.4,0,0,0,8.56,15.78,93.28,93.28,0,0,1,10.41,20.47,56.94,56.94,0,0,0,10.83,17.59c4.81,5.52,9.94,10.71,15.16,15.81A165.55,165.55,0,0,1,629,787.51c7.53,10.27,14.71,20.77,22.67,30.73,9.24,11.56,19.94,21.33,33.12,28.17A58.67,58.67,0,0,1,702,859.77a110.61,110.61,0,0,0,18.24,16.61c2.88,2.07,5.85,4.15,8,7,9.88,12.92,21.09,24.77,29.83,38.64a165.54,165.54,0,0,0,32.23,37.28c8.8,7.57,17.48,15.28,26.92,22.07,1.38,1,2.78,2,3.18,3.76,1.37,6.15,5.79,10,10.55,13.35a69.13,69.13,0,0,0,22.27,10.42,43.51,43.51,0,0,1,10.95,4.23,78.75,78.75,0,0,0,24.65,9.09c1.83.37,3.91.6,5.33,1.63,6.33,4.64,14.22,6.83,19.77,12.66a4.32,4.32,0,0,0,1.37,1c5.17,2.2,10.32,4.17,16.15,4.1a64.84,64.84,0,0,0,24-5.09c12.18-5,20.94-19.4,17.2-31.74-.78-2.57.08-4.72,2-6.62a34.32,34.32,0,0,0,3.92-4.76,33.7,33.7,0,0,0,5.83-20.17,25,25,0,0,1,8.21-19.53,42.31,42.31,0,0,1,6.94-5.68c6.69-4.09,12.78-9.34,20.31-11.83,7.81-2.59,15.83-4.54,23.74-6.81,1.9-.54,3.27-.46,3.67,1.92.24,1.38,1.53,1.47,2.66,1.49a19,19,0,0,0,6-1.11,87.7,87.7,0,0,1,11.44-2.84c10.14-1.71,20.28-3.51,30.42-5.26,5.75-1,11.46-1.7,17.12.59a15.41,15.41,0,0,0,3.88.59c7.08.87,14.2.82,21.31.91,10.53.14,20.89-1.47,31.14-3.66a45.77,45.77,0,0,0,23.43-12.58,34.93,34.93,0,0,1,5.72-4.51,49.22,49.22,0,0,0,8.69-7.07,14.05,14.05,0,0,1,5-3.56c8.59-3.41,14.59-9.68,18.85-17.67,2.64-5,5-10.09,7.32-15.18,7.81-16.81,15-33.91,23.84-50.24,7.05-13,14.09-26,19.41-39.87,1.07-2.79,2.64-5.38,3.9-8.1a7.28,7.28,0,0,1,5.41-4.36,37.3,37.3,0,0,0,10.4-4.11c7.25-4.14,12.1-10.49,16.55-17.26,3.19-4.84,6.4-9.69,9.47-14.61A7.65,7.65,0,0,1,1335,719c9.08-1.3,16.46-5.86,22.77-12.35a122.62,122.62,0,0,0,9.69-11.65c9.75-12.89,19-26.05,23.08-42.06a11.12,11.12,0,0,1,3.38-5.07c6-5.94,10.33-12.81,12.17-21.83C1403.85,627,1402,627.89,1400.09,628.69ZM633.66,222.38c-6.81,5.19-13.87,10.13-19.6,16.57A70.57,70.57,0,0,0,605,251.67c-7,12.68-11.55,26.24-14.66,40.34a57.38,57.38,0,0,1-2.59,9.69c-2,4.66-2,9.44-1.93,14.31,0,3.93-.1,7.87,0,11.8.25,7.31-1.25,14.42-2.07,21.62a53.55,53.55,0,0,1-6.86,21.1A57.4,57.4,0,0,0,571,385a177.05,177.05,0,0,0-3.34,17.47c-1.28,8.21-.3,16.45-1.15,24.58-.54,5.21-1.39,10.44-.81,15.59.85,7.63.43,15.31,1.25,22.87.46,4.19.63,8.49,1.7,12.69.84,3.32,1.15,7.12-2.4,9.72-2.33,1.7-3.73,1.58-5.63-.67s-3.28-5-2.9-8.21-1.43-5.8-1.29-8.83a2.32,2.32,0,0,0-.74-1.47c-4.38-4.36-3.94-10.11-4.82-15.59-1.21-7.44-.93-14.89-1-21.05,0-3.35,0-5.41,0-7.47-.11-8.4,1-16.68,2.14-25a202.84,202.84,0,0,1,9-38.49c1.25-3.7,2.95-7.25,4.4-10.88a9.18,9.18,0,0,1,2.71-3.53c3.26-2.78,4.31-6.39,4.26-10.5a32.07,32.07,0,0,1,.93-9.43c1.07-3.72-.44-7.46-1.29-11-1.41-5.89-2.8-11.61-.84-17.59a1.31,1.31,0,0,0,0-.56c-.67-7.79,1.26-15.17,3.52-22.51,1.61-5.21,1.33-10.68,2.07-16s1-10.45,5.46-14.18c1.25-1,1.32-2.62,1.87-4,1.25-3.11,1.82-6.49,3.58-9.41.37-.61.61-1.48,1.48-1.47s.89,1,1.16,1.61c.92,2.24,1.86,2.43,3.32.66a13.8,13.8,0,0,0,3.32-8.75c0-4.11,1.58-6.73,4.6-9.55,7.1-6.63,15-12.35,22-19,4.28-4.06,8.55-4.49,13.22-3.32a13.26,13.26,0,0,0,9.2-.88,92.76,92.76,0,0,1,18.65-5.77c5.71-1.28,11.55-.53,17.32-.41,2.38.05,3.59,2.52,5.44,3.73.75.5.34,1.37-.17,2a27.31,27.31,0,0,1-9.22,7.14c-8.09,3.82-16.15,7.74-24,12.05A162.77,162.77,0,0,0,633.66,222.38Zm25.31,75a4.42,4.42,0,0,1-2.34-4.74c-.48-3.35,1.71-5.2,4.12-6.68a14.17,14.17,0,0,1,7.9-2.43c2.56.1,4.21-1.06,5.81-2.75a29.52,29.52,0,0,1,9.64-6.54c4.09-1.79,7.25-1.13,8.93,2.79,1.26,2.9,3.23,4.91,5.24,7.06,2.84,3,2.43,6.1-1.06,8.26a3,3,0,0,1-1,.47c-6.66.86-9.33,6.11-12.19,11.12-2.77,4.85-6.22,9.24-9.44,13.78a7.43,7.43,0,0,1-1.17,1.21c-1.35,1.19-2.37,3.1-4.64,2.49-2-.52-4.14-3.59-4.24-6-.1-2.24,0-4.48,0-6.72C664.46,304,663.76,299.75,659,297.34Zm23.66,412.55a3.92,3.92,0,0,0-1.3,3.56c.2,3-.31,5.92.71,8.89.79,2.29-.32,3.63-2.64,3.89s-4.36.06-6.16-1.83c-6.68-7-10.58-14.83-7.9-24.81.34-1.25.21-2.62.51-3.89,1.28-5.44,3.84-7.48,9.42-7.62.75,0,1.5,0,2.25,0,5,0,7.49.93,8.63,3.85a16.56,16.56,0,0,1,.85,5.31C687.17,702.09,686.85,706.6,682.63,709.89Zm86.52-251.25c-2.28,1.28-4.65,2.39-7,3.52-6.48,3.09-10,8.73-12.91,14.9a4.9,4.9,0,0,0-.43,2.17c.14,5.42-2.06,10.18-4.3,14.88-1.35,2.84-2.07,5.88-4.08,8.52-6.09,8-14,12.57-24,13.5a29.44,29.44,0,0,0-3.24.8c-3.81.82-7.6,2-11.33,1.33-4.2.24-8.11.28-11.57-2.15a4.65,4.65,0,0,0-3.69-.59c-2.07.37-3.19-.83-2.94-2.84a17.05,17.05,0,0,1,1.31-4.82c3.81-8.56,8.29-16.68,15-23.42a60.48,60.48,0,0,0,6.1-7.25c7.52-10.38,17.59-17.53,28.81-23.34,5.23-2.7,10.91-4,16.52-4.9,4.79-.8,9.28-2.69,14.11-3.1.73-.06,1.44-.46,2.17-.49,3.6-.11,5.9,2.27,5.77,5.91A8.23,8.23,0,0,1,769.15,458.64Zm470.35,58c.37-1.18.41-2.83,2.29-2.59s2.37,1.6,2.46,3.22c0,.75,0,1.5,0,2.25.16,4.82-.11,9.62.93,14.47.89,4.17.61,8.6-3.1,11.91a4.54,4.54,0,0,0-.91,5.23c1,2.56.84,5.14.83,7.74,0,5,1.42,9.91,1.24,15a27.53,27.53,0,0,1-4,12.65,12.26,12.26,0,0,1-2.25,2.49,4.85,4.85,0,0,1-5.72.81,4.78,4.78,0,0,1-2.82-4.47c-.23-3.79,1.08-7.35,1.54-11a65,65,0,0,0,.73-7.36,28,28,0,0,0-.51-5.92c-1.41-5.09-1-10.07,2.25-14.4a6.8,6.8,0,0,0,1.15-6.79c-1.23-3.64-.42-7.42-.64-11.13a3.48,3.48,0,0,1,1.18-3C1237.12,523.31,1238.43,520.05,1239.5,516.63ZM1176.78,76.21a8.06,8.06,0,0,1,6.42-2.91,24.14,24.14,0,0,0,9.29-1.69,19.13,19.13,0,0,1,11.07-.34c7,1.87,14.23,3.44,20.32,7.6,4,2.72,7.43,6.16,11.12,9.28,1.12.95,1,1.85,0,2.82a11.45,11.45,0,0,0-1.77,2.16,2.13,2.13,0,0,1-3.29.88c-9.77-5.76-20.66-8.23-31.6-10.38-3.42-.67-7.08-.1-10.62-.1v-.2c-2.62,0-5.24,0-7.86,0-1.41,0-2.53-.29-3-1.9S1175.14,78,1176.78,76.21Zm-65.73,142.13c1.55-6.74,5.3-12.14,9.44-17.5A52.2,52.2,0,0,1,1133.65,189a10.33,10.33,0,0,1,2.41-1.41c7.46-2.28,14.18-6.32,21.45-9,3.48-1.3,7.1-2.28,9.43-2,12.33.2,20.3,5.07,25.59,14.51,1.52,2.7,1.48,5.77,2.06,8.64.52,2.52,1.08,4.7,3.14,6.23a7.1,7.1,0,0,1,2.59,8c-1.58,5.74-1,11.52-.89,17.27,0,3.79-.91,7.38-1.29,11.07a2.43,2.43,0,0,1-.52,1.55c-3.35,2.61-2.86,6.28-2.75,9.8a10.51,10.51,0,0,1-2.63,7.16c-2.64,3.32-2.57,3.74.08,7.19a51.77,51.77,0,0,1,6,10.07c1.41,3.09,2.53,6.26,2.12,9.72a14.71,14.71,0,0,0,2.22,9.08,63.76,63.76,0,0,0,10,14.07c3.61,3.63,6.31,7.73,5.83,13.36-.43,5.12-2.58,7.36-7.52,6.18a41.08,41.08,0,0,1-13-5.11,286.66,286.66,0,0,1-31.77-23.61c-4.84-4.15-9.26-8.67-13.88-13-4.9-4.6-9.71-9.27-14.66-13.82a109.45,109.45,0,0,1-23.24-29.83,31.74,31.74,0,0,1-3.91-16.13C1110.74,225.41,1110.23,221.88,1111.05,218.34Zm6.29,508.38c-.17-1.57.77-2.86,1.11-4.31.18-.8.65-1.43,1.49-1.29.48.07,1.2.55,1.28,1,.79,4,2.64,7.73,3.86,11.63a7.9,7.9,0,0,1,0,2.23h0a5.54,5.54,0,0,1,0,1.68c-2.1,6-.62,11.75.91,17.53a11.32,11.32,0,0,1,.25,3.34,5.07,5.07,0,0,1-3.3,4.72,6.36,6.36,0,0,1-6.58-1.72c-2.46-3-3.21-6.7-4.43-10.19-.8-2.28-1.26-4.67-1.92-7-1.42-5-.5-8.28,3.82-11.16C1116.31,731.51,1117.65,729.67,1117.34,726.72Zm-20.41-44.5c3.74-4.11,3.84-9.55,5.57-14.39a4.7,4.7,0,0,0-.3-3.28,16.27,16.27,0,0,1-.4-9.4c1.24-5,.62-10,.93-14.36,0-4-.1-7.39,0-10.75.12-2.95,1.39-4.81,2.91-4.77s3.39,1.88,3.57,4.48c.31,4.45,1.58,8.75,1.4,13.29a42.1,42.1,0,0,0,7.44,25.26,15,15,0,0,1-2.13,19.38,4.8,4.8,0,0,1-3.48,1.51c-3.52.06-7-.21-10.52,1a4.38,4.38,0,0,1-5.29-2.2C1095.55,686.07,1095.42,683.89,1096.93,682.22ZM810.51,905.36c-7.56-2.52-11.36-8.73-13.23-16.13a4.32,4.32,0,0,1,5.19-5.38c5.37,1.19,11,1,16.06,4a19.12,19.12,0,0,1,5.56,4.44c2,2.64,3.34,5.76,5.82,8.14,1.46,1.41,1.16,3.48.39,5.27s-2.53,2.63-5,2.63C820.63,907.45,815.38,907,810.51,905.36Zm-6-509.89c1.31-5.06,4.56-8.89,7.56-12.9.78-1,1.77-1.9,1.85-3.34.44-7.64,4.74-13.66,8.9-19.52,2.77-3.9,6.6-7.12,10.22-10.34a26.34,26.34,0,0,1,15.3-6.16c7.19-.67,14.57-1.07,21.37,2.38,1.6.8,3.29.55,4.9,1,2,.5,2.57,2.28,1,3.76-5.22,5-10.8,9.67-17.35,12.91a85.32,85.32,0,0,0-30.49,24.7c-3.28,4.28-6.69,8.43-9.67,12.94-1.57,2.38-3.48,4.49-6.58,4C805.8,404.86,803.07,400.91,804.48,395.47ZM986.94,954.24a14.27,14.27,0,0,1-.66,2.69c-1.29,4.45-3.6,8.49-4.55,13.14-.64,3.17-3.08,6-5.67,8.17-2.75,2.34-4.29,5-3.75,8.78.26,1.84.2,3.75-1.22,5.3-1.27,1.39-1.06,3.16-1,4.82a5.45,5.45,0,0,1-2.13,4.93c-4.2,3.21-5,7.57-4.66,12.51.48,6.94-2.17,12.54-7.14,17.44-4.06,4-9,4.92-14.14,5.65a10.09,10.09,0,0,1-7-1.83c-4.42-2.89-9.45-3-14.42-3.16-1.15,0-2.16-.44-3.21-.46-3.87-.09-5.74-2.48-6.71-5.72a53.5,53.5,0,0,0-2.92-6.66,4.4,4.4,0,0,0-3.33-2.55c-5-1.3-10.21-2.12-14.7-5-1.3-.84-2.94-.52-4.41-.43-6.93.41-13.77-.56-20.63-1.19a5.28,5.28,0,0,1-1.65-.26c-6.46-3-13.49-4.38-20-7.16a55.61,55.61,0,0,1-16.76-11c-2.45-2.35-3.3-5.36-4.29-8.36a1.66,1.66,0,0,1,1.62-2.34,13.38,13.38,0,0,1,5.56.32c7,2.5,14.46,3.33,21.68,5A5.91,5.91,0,0,0,852,987c10.8.45,21.61,2.09,32.41,1.06s21.61-2.52,32.17-6c19-6.33,36.07-15.92,52-27.72,2.4-1.77,4.9-3.42,7.42-5a9.38,9.38,0,0,1,4.14-1.59C984.93,947.27,987.37,949.57,986.94,954.24Zm18.65-86.41c-3,3.2-6,5.6-10.91,5.94-4.73.33-9.44,2-14,3.59A82.81,82.81,0,0,1,966.1,881c-5.47.82-10.28,3.2-15.34,5-4.18,1.52-8.22,3.65-13,3.27a20.77,20.77,0,0,1-2.08,0c-3.26-.3-5.56-1.61-6.4-5.15a21.48,21.48,0,0,1-.69-5c0-4.55,1.23-6.32,5.44-8,3.33-1.31,6.63-2.52,10.12-.54,1.48.84,2.8.37,4.25-.27,8.91-4,18.45-5.47,28-7.11,4.39-.75,8.93-.41,13.21-1.92a5.31,5.31,0,0,1,3.32-.06c3.45,1.29,7,.94,10.53,1,1.6,0,3,.41,3.55,2.11C1007.45,865.89,1006.5,866.85,1005.59,867.83Zm25.19-271.94a26.37,26.37,0,0,1-8.29,1.4l-17.1-2.21a12.16,12.16,0,0,0-1.66-.26c-8.22.14-16.27-1.49-24.41-2.17a144.66,144.66,0,0,1-20.84-3.42,86.17,86.17,0,0,1-32.17-15.07,50.57,50.57,0,0,0-11.77-6.39,108.46,108.46,0,0,1-27.24-16.29c-2.15-1.7-3.73-4.13-5.5-6.29-3.71-4.54-9-6.52-14.14-8.77-6.65-2.92-13.39-5.63-20-8.57-6.3-2.79-12.63-5.4-19.18-7.6-4-1.36-7.89-3.13-12.2-3.63a7.51,7.51,0,0,1-6-4.45,51.77,51.77,0,0,0-3.44-5.1,3.07,3.07,0,0,1-.21-3.67c.8-1.12,2-.61,3.05-.18a2.31,2.31,0,0,0,1,.34c6.36-.85,11.44,2.81,17,4.77,2.64.92,5.28,1.85,7.89,2.83a5.09,5.09,0,0,0,3.84.26c2.9-1.42,5.42-.2,8.06.64,8.15,2.59,16.21,5.41,24.49,7.59,5.62,1.47,10.39,5,15.1,8.34,4.86,3.44,9.55,7.12,14.46,10.49a79.76,79.76,0,0,0,8.7,4.92c11.13,5.7,22.17,11.63,34.33,15,3,.83,6.08,1.72,8.68,3.7,1,.77,2.37,1.58,3.66,1.09,3.33-1.25,7-.68,10.31-2.23,8.21-3.83,17.08-4,25.79-3,4.83.55,10,1.87,12.48,7.28.83,1.81,2.69,2.41,4.56,2.92a35.4,35.4,0,0,1,11.44,5.75c1.51,1.09,3.57,2.33,3.47,4.17-.2,3.69,2.13,5.21,4.52,7a18.77,18.77,0,0,1,3.9,4C1035.35,591.91,1034.11,595,1030.78,595.89ZM931.22,203.18c2.9,4,5.48,8,5.29,13.2-.07,1.87,1.41,3,2.9,3.85a14.93,14.93,0,0,1,3.84,3.22,2.64,2.64,0,0,1,.38,3.57,3.17,3.17,0,0,1-3.5,1.17,6.36,6.36,0,0,1-2-1c-4.53-2.91-9.27-5.47-13.65-8.68-9.13-6.68-13.42-15.71-13.89-26.72-.24-5.42.11-10.86-.12-16.28a33.62,33.62,0,0,1,1.61-10.44c1.32-4.81,5.09-8.63,11.59-5,6.12,3.37,6.24,3.4,12.58,3,5.8-.39,10,1.41,13.14,6.53,2.28,3.66,5.26,6.8,5,11.71,0,7.6-8.24,14.22-16,12.63-3.46-.7-8.21,2.7-8.35,6.19A5.42,5.42,0,0,0,931.22,203.18ZM1047.07,89.71A298,298,0,0,1,1016.52,79c-7.31-2.89-14.78-5-22.8-4.72-7.63.25-15.15-1.22-22.73-2-4.79-.47-9.73-1-14.47.43-2.94.86-5.91.25-8.88.93-6.78,1.55-13.08,4.32-19.39,7.06-11.52,5-23.69,7.69-35.84,10.33a103.78,103.78,0,0,0-28.65,10.77c-2,1.09-4,1.85-6,2.84-8.86,4.4-17.32,9.58-26.15,14-8.63,4.3-17.57,8.42-27.73,7.39-1.05-.11-2.48.34-2.88-1-.35-1.24.81-2,1.61-2.73a29.4,29.4,0,0,1,7.45-4.9c3-1.37,6.08-2.71,9.13-4.05a29.05,29.05,0,0,0,8.23-5.7,60.82,60.82,0,0,1,18.7-12c6.38-2.61,12.69-5.4,19-8.12C876.21,82.76,886.93,77,898.8,74.25a5.62,5.62,0,0,0,2-.93c8.6-6.2,18.27-9.9,28.44-12.62,6.28-1.67,12.61-3.11,18.89-4.76,4.13-1.09,8.19-.21,12.55-.91,14.47.68,28.84,3,42.76,8.29,8,3,16.37,5,24.49,7.67,10.26,3.39,20.64,6.44,30.52,10.92a15.07,15.07,0,0,0,7.61,1.46c5.24-.46,10.4.41,15.54,1.2,1.72.26,3.86.27,4.71,2.21.42,1-2.38,1.7-5.48.63-3.62-1.23-6.93-.72-10.37.45-3.17,1.08-6.4,2-9.63,2.87C1056.14,92,1051.58,90.94,1047.07,89.71Zm352.44,547.34c-2.13,4.26-6.08,7.12-8.6,11s-4.78,7.89-8.17,11.25c-8.22,8.16-16.53,16.17-26.08,22.82-2.39,1.67-4.62,3.71-4.77,7.22a7,7,0,0,1-2.12,3.85c-3.07,3.28-6,6.77-9.58,9.46a102.78,102.78,0,0,0-9.91,9.06c-7.06,7-14.34,13.76-21,21.13-6.24,6.92-13.11,13.28-18.77,20.73a11,11,0,0,1-2.85,2.67c-5,3.07-8,7.69-10.79,12.61-3.54,6.16-6.23,12.73-9.37,19.08-1.68,3.39-4,6.28-6.11,9.34-1,1.43-2.26,2.64-4.05.68-.67-.73-1.46-.19-1.7.58-.61,2-1,4-1.62,5.92-2.09,7-5.16,13.55-6.71,20.72-.71,3.29-3.59,6-4.56,9.52a2.42,2.42,0,0,1-1.54,1.49c-3.21.5-3.94,3-4.87,5.49-2.07,5.6-5.58,10.58-7,16.49a3.57,3.57,0,0,1-1.73,2.11c-4.21,1.88-5.81,6.24-8.93,9.12a4.76,4.76,0,0,0-1.4,4.1,8.1,8.1,0,0,1-2.24,6.16c-3.27,3.58-5.94,7.68-9.65,10.88-9.47,8.19-19.16,16-30.69,21.26-2.63,1.18-5,1.81-7-.78-2.51-3.23-5.87-3-9.19-2.25a102.61,102.61,0,0,0-11.76,3.54c-10.36,3.8-21.25,5.46-31.85,8.3a11.89,11.89,0,0,1-3.91.15c-8.49-.71-16.66,1.48-24.92,2.78-8.79,1.39-17.61,2.72-26.27,4.91a1.67,1.67,0,0,1-1.45-.52,1.73,1.73,0,0,1,.16-1.52c2-2.93,5.11-4.39,8.3-5.46,5.12-1.7,10.28-3.4,15.53-4.59,14.13-3.2,28.35-6,42.46-9.24,6.88-1.59,13.63-3.78,20.36-6,7.43-2.4,14.8-5,22.16-7.67a79.81,79.81,0,0,0,27.83-17.32,158.1,158.1,0,0,0,25.13-30.65A156.48,156.48,0,0,0,1234,817.38c2.88-7.48,6.17-14.84,8.43-22.51a151.78,151.78,0,0,1,10.9-26.91,236.48,236.48,0,0,1,19.44-32c4.41-6,8.89-12,14.31-17.16,2.28-2.18,3.9-5,6.22-7.16,7.3-6.64,14.45-13.41,22.64-19.08,14.54-10,28.82-20.51,42.94-31.14,6.39-4.8,12-10.56,18.23-15.66a141.57,141.57,0,0,0,11.21-10.12c.39-.4.84-1,1.31-1,3.44-.4,6.29-2.26,9.37-3.57a1.72,1.72,0,0,1,2.45,1.62A11.33,11.33,0,0,1,1401,634C1400.55,635.06,1400,636.05,1399.51,637.05Z" transform="translate(-525.08 -33)"/><path class="cls-1" d="M593.3,221.42a.71.71,0,0,0-.4.07,4.23,4.23,0,0,1,.62,0A1.41,1.41,0,0,0,593.3,221.42Z" transform="translate(-525.08 -33)"/><path class="cls-2" d="M1110.59,228.94a31.74,31.74,0,0,0,3.91,16.13,109.45,109.45,0,0,0,23.24,29.83c5,4.55,9.76,9.22,14.66,13.82,4.62,4.33,9,8.85,13.88,13a286.66,286.66,0,0,0,31.77,23.61,41.08,41.08,0,0,0,13,5.11c4.94,1.18,7.09-1.06,7.52-6.18.48-5.63-2.22-9.73-5.83-13.36a63.76,63.76,0,0,1-10-14.07,14.71,14.71,0,0,1-2.22-9.08c.41-3.46-.71-6.63-2.12-9.72a51.77,51.77,0,0,0-6-10.07c-2.65-3.45-2.72-3.87-.08-7.19a10.51,10.51,0,0,0,2.63-7.16c-.11-3.52-.6-7.19,2.75-9.8a2.43,2.43,0,0,0,.52-1.55c.38-3.69,1.33-7.28,1.29-11.07-.06-5.75-.69-11.53.89-17.27a7.1,7.1,0,0,0-2.59-8c-2.06-1.53-2.62-3.71-3.14-6.23-.58-2.87-.54-5.94-2.06-8.64-5.29-9.44-13.26-14.31-25.59-14.51-2.33-.26-6,.72-9.43,2-7.27,2.71-14,6.75-21.45,9a10.33,10.33,0,0,0-2.41,1.41,52.2,52.2,0,0,0-13.16,11.88c-4.14,5.36-7.89,10.76-9.44,17.5C1110.23,221.88,1110.74,225.41,1110.59,228.94Z" transform="translate(-525.08 -33)"/><path class="cls-2" d="M1399,631c-3.08,1.31-5.93,3.17-9.37,3.57-.47,0-.92.61-1.31,1a141.57,141.57,0,0,1-11.21,10.12c-6.18,5.1-11.84,10.86-18.23,15.66-14.12,10.63-28.4,21.09-42.94,31.14-8.19,5.67-15.34,12.44-22.64,19.08-2.32,2.11-3.94,5-6.22,7.16-5.42,5.19-9.9,11.2-14.31,17.16a236.48,236.48,0,0,0-19.44,32,151.78,151.78,0,0,0-10.9,26.91c-2.26,7.67-5.55,15-8.43,22.51a156.48,156.48,0,0,1-13.75,28.09,158.1,158.1,0,0,1-25.13,30.65,79.81,79.81,0,0,1-27.83,17.32c-7.36,2.64-14.73,5.27-22.16,7.67-6.73,2.18-13.48,4.37-20.36,6-14.11,3.27-28.33,6-42.46,9.24-5.25,1.19-10.41,2.89-15.53,4.59-3.19,1.07-6.28,2.53-8.3,5.46a1.73,1.73,0,0,0-.16,1.52,1.67,1.67,0,0,0,1.45.52c8.66-2.19,17.48-3.52,26.27-4.91,8.26-1.3,16.43-3.49,24.92-2.78a11.89,11.89,0,0,0,3.91-.15c10.6-2.84,21.49-4.5,31.85-8.3a102.61,102.61,0,0,1,11.76-3.54c3.32-.79,6.68-1,9.19,2.25,2,2.59,4.42,2,7,.78,11.53-5.22,21.22-13.07,30.69-21.26,3.71-3.2,6.38-7.3,9.65-10.88a8.1,8.1,0,0,0,2.24-6.16,4.76,4.76,0,0,1,1.4-4.1c3.12-2.88,4.72-7.24,8.93-9.12a3.57,3.57,0,0,0,1.73-2.11c1.4-5.91,4.91-10.89,7-16.49.93-2.51,1.66-5,4.87-5.49a2.42,2.42,0,0,0,1.54-1.49c1-3.48,3.85-6.23,4.56-9.52,1.55-7.17,4.62-13.77,6.71-20.72.6-1.95,1-4,1.62-5.92.24-.77,1-1.31,1.7-.58,1.79,2,3.06.75,4.05-.68,2.11-3.06,4.43-6,6.11-9.34,3.14-6.35,5.83-12.92,9.37-19.08,2.82-4.92,5.83-9.54,10.79-12.61a11,11,0,0,0,2.85-2.67c5.66-7.45,12.53-13.81,18.77-20.73,6.64-7.37,13.92-14.15,21-21.13a102.78,102.78,0,0,1,9.91-9.06c3.55-2.69,6.51-6.18,9.58-9.46a7,7,0,0,0,2.12-3.85c.15-3.51,2.38-5.55,4.77-7.22,9.55-6.65,17.86-14.66,26.08-22.82,3.39-3.36,5.61-7.35,8.17-11.25s6.47-6.7,8.6-11c.5-1,1-2,1.51-3a11.33,11.33,0,0,0,.45-1.38A1.72,1.72,0,0,0,1399,631Z" transform="translate(-525.08 -33)"/><path class="cls-2" d="M687.18,190.33c.51-.59.92-1.46.17-2-1.85-1.21-3.06-3.68-5.44-3.73-5.77-.12-11.61-.87-17.32.41a92.76,92.76,0,0,0-18.65,5.77,13.26,13.26,0,0,1-9.2.88c-4.67-1.17-8.94-.74-13.22,3.32-7,6.64-14.87,12.36-22,19-3,2.82-4.59,5.44-4.6,9.55a13.8,13.8,0,0,1-3.32,8.75c-1.46,1.77-2.4,1.58-3.32-.66-.27-.66-.18-1.6-1.16-1.61s-1.11.86-1.48,1.47c-1.76,2.92-2.33,6.3-3.58,9.41-.55,1.37-.62,2.94-1.87,4-4.44,3.73-4.72,8.94-5.46,14.18s-.46,10.8-2.07,16c-2.26,7.34-4.19,14.72-3.52,22.51a1.31,1.31,0,0,1,0,.56c-2,6-.57,11.7.84,17.59.85,3.54,2.36,7.28,1.29,11a32.07,32.07,0,0,0-.93,9.43c0,4.11-1,7.72-4.26,10.5a9.18,9.18,0,0,0-2.71,3.53c-1.45,3.63-3.15,7.18-4.4,10.88a202.84,202.84,0,0,0-9,38.49c-1.13,8.31-2.25,16.59-2.14,25,0,2.06,0,4.12,0,7.47.1,6.16-.18,13.61,1,21.05.88,5.48.44,11.23,4.82,15.59a2.32,2.32,0,0,1,.74,1.47c-.14,3,1.65,5.76,1.29,8.83s.89,5.82,2.9,8.21,3.3,2.37,5.63.67c3.55-2.6,3.24-6.4,2.4-9.72-1.07-4.2-1.24-8.5-1.7-12.69-.82-7.56-.4-15.24-1.25-22.87-.58-5.15.27-10.38.81-15.59.85-8.13-.13-16.37,1.15-24.58A177.05,177.05,0,0,1,571,385a57.4,57.4,0,0,1,5.9-14.42,53.55,53.55,0,0,0,6.86-21.1c.82-7.2,2.32-14.31,2.07-21.62-.14-3.93,0-7.87,0-11.8-.06-4.87,0-9.65,1.93-14.31a57.38,57.38,0,0,0,2.59-9.69c3.11-14.1,7.63-27.66,14.66-40.34A70.57,70.57,0,0,1,614.06,239c5.73-6.44,12.79-11.38,19.6-16.57A162.77,162.77,0,0,1,654,209.52c7.84-4.31,15.9-8.23,24-12.05A27.31,27.31,0,0,0,687.18,190.33Z" transform="translate(-525.08 -33)"/><path class="cls-2" d="M980.23,947.71a9.38,9.38,0,0,0-4.14,1.59c-2.52,1.59-5,3.24-7.42,5-16,11.8-33,21.39-52,27.72-10.56,3.52-21.3,5-32.17,6S862.84,987.46,852,987a5.91,5.91,0,0,1-1.11-.14c-7.22-1.7-14.65-2.53-21.68-5a13.38,13.38,0,0,0-5.56-.32,1.66,1.66,0,0,0-1.62,2.34c1,3,1.84,6,4.29,8.36a55.61,55.61,0,0,0,16.76,11c6.51,2.78,13.54,4.18,20,7.16a5.28,5.28,0,0,0,1.65.26c6.86.63,13.7,1.6,20.63,1.19,1.47-.09,3.11-.41,4.41.43,4.49,2.92,9.69,3.74,14.7,5a4.4,4.4,0,0,1,3.33,2.55,53.5,53.5,0,0,1,2.92,6.66c1,3.24,2.84,5.63,6.71,5.72,1,0,2.06.42,3.21.46,5,.16,10,.27,14.42,3.16a10.09,10.09,0,0,0,7,1.83c5.15-.73,10.08-1.65,14.14-5.65,5-4.9,7.62-10.5,7.14-17.44-.35-4.94.46-9.3,4.66-12.51a5.45,5.45,0,0,0,2.13-4.93c-.1-1.66-.31-3.43,1-4.82,1.42-1.55,1.48-3.46,1.22-5.3-.54-3.76,1-6.44,3.75-8.78,2.59-2.21,5-5,5.67-8.17.95-4.65,3.26-8.69,4.55-13.14a14.27,14.27,0,0,0,.66-2.69C987.37,949.57,984.93,947.27,980.23,947.71Z" transform="translate(-525.08 -33)"/><path class="cls-2" d="M1029.44,585.08c-2.39-1.83-4.72-3.35-4.52-7,.1-1.84-2-3.08-3.47-4.17a35.4,35.4,0,0,0-11.44-5.75c-1.87-.51-3.73-1.11-4.56-2.92-2.46-5.41-7.65-6.73-12.48-7.28-8.71-1-17.58-.81-25.79,3-3.33,1.55-7,1-10.31,2.23-1.29.49-2.65-.32-3.66-1.09-2.6-2-5.64-2.87-8.68-3.7-12.16-3.35-23.2-9.28-34.33-15a79.76,79.76,0,0,1-8.7-4.92c-4.91-3.37-9.6-7.05-14.46-10.49-4.71-3.35-9.48-6.87-15.1-8.34-8.28-2.18-16.34-5-24.49-7.59-2.64-.84-5.16-2.06-8.06-.64a5.09,5.09,0,0,1-3.84-.26c-2.61-1-5.25-1.91-7.89-2.83-5.56-2-10.64-5.62-17-4.77a2.31,2.31,0,0,1-1-.34c-1.06-.43-2.25-.94-3.05.18a3.07,3.07,0,0,0,.21,3.67,51.77,51.77,0,0,1,3.44,5.1,7.51,7.51,0,0,0,6,4.45c4.31.5,8.16,2.27,12.2,3.63,6.55,2.2,12.88,4.81,19.18,7.6,6.65,2.94,13.39,5.65,20,8.57,5.12,2.25,10.43,4.23,14.14,8.77,1.77,2.16,3.35,4.59,5.5,6.29a108.46,108.46,0,0,0,27.24,16.29,50.57,50.57,0,0,1,11.77,6.39,86.17,86.17,0,0,0,32.17,15.07,144.66,144.66,0,0,0,20.84,3.42c8.14.68,16.19,2.31,24.41,2.17a12.16,12.16,0,0,1,1.66.26l17.1,2.21a26.37,26.37,0,0,0,8.29-1.4c3.33-.9,4.57-4,2.56-6.8A18.77,18.77,0,0,0,1029.44,585.08Z" transform="translate(-525.08 -33)"/><path class="cls-2" d="M1070.46,87.86c3.44-1.17,6.75-1.68,10.37-.45,3.1,1.07,5.9.33,5.48-.63-.85-1.94-3-2-4.71-2.21-5.14-.79-10.3-1.66-15.54-1.2a15.07,15.07,0,0,1-7.61-1.46c-9.88-4.48-20.26-7.53-30.52-10.92-8.12-2.68-16.51-4.63-24.49-7.67C989.52,58,975.15,55.71,960.68,55c-4.36.7-8.42-.18-12.55.91-6.28,1.65-12.61,3.09-18.89,4.76-10.17,2.72-19.84,6.42-28.44,12.62a5.62,5.62,0,0,1-2,.93c-11.87,2.79-22.59,8.51-33.68,13.27-6.34,2.72-12.65,5.51-19,8.12a60.82,60.82,0,0,0-18.7,12,29.05,29.05,0,0,1-8.23,5.7c-3,1.34-6.1,2.68-9.13,4.05a29.4,29.4,0,0,0-7.45,4.9c-.8.72-2,1.49-1.61,2.73.4,1.39,1.83.94,2.88,1,10.16,1,19.1-3.09,27.73-7.39,8.83-4.4,17.29-9.58,26.15-14,2-1,4.06-1.75,6-2.84a103.78,103.78,0,0,1,28.65-10.77c12.15-2.64,24.32-5.33,35.84-10.33,6.31-2.74,12.61-5.51,19.39-7.06,3-.68,5.94-.07,8.88-.93,4.74-1.39,9.68-.9,14.47-.43,7.58.74,15.1,2.21,22.73,2,8-.25,15.49,1.83,22.8,4.72a298,298,0,0,0,30.55,10.71c4.51,1.23,9.07,2.28,13.76,1C1064.06,89.86,1067.29,88.94,1070.46,87.86Z" transform="translate(-525.08 -33)"/><path class="cls-2" d="M767.69,445.36c-.73,0-1.44.43-2.17.49-4.83.41-9.32,2.3-14.11,3.1-5.61.93-11.29,2.2-16.52,4.9-11.22,5.81-21.29,13-28.81,23.34a60.48,60.48,0,0,1-6.1,7.25c-6.7,6.74-11.18,14.86-15,23.42a17.05,17.05,0,0,0-1.31,4.82c-.25,2,.87,3.21,2.94,2.84a4.65,4.65,0,0,1,3.69.59c3.46,2.43,7.37,2.39,11.57,2.15,3.73.64,7.52-.51,11.33-1.33a29.44,29.44,0,0,1,3.24-.8c10-.93,17.88-5.47,24-13.5,2-2.64,2.73-5.68,4.08-8.52,2.24-4.7,4.44-9.46,4.3-14.88a4.9,4.9,0,0,1,.43-2.17c2.9-6.17,6.43-11.81,12.91-14.9,2.36-1.13,4.73-2.24,7-3.52a8.23,8.23,0,0,0,4.31-7.37C773.59,447.63,771.29,445.25,767.69,445.36Z" transform="translate(-525.08 -33)"/><path class="cls-2" d="M938.38,193.93c7.77,1.59,16-5,16-12.63.28-4.91-2.7-8.05-5-11.71-3.19-5.12-7.34-6.92-13.14-6.53-6.34.41-6.46.38-12.58-3-6.5-3.59-10.27.23-11.59,5a33.62,33.62,0,0,0-1.61,10.44c.23,5.42-.12,10.86.12,16.28.47,11,4.76,20,13.89,26.72,4.38,3.21,9.12,5.77,13.65,8.68a6.36,6.36,0,0,0,2,1,3.17,3.17,0,0,0,3.5-1.17,2.64,2.64,0,0,0-.38-3.57,14.93,14.93,0,0,0-3.84-3.22c-1.49-.81-3-2-2.9-3.85.19-5.23-2.39-9.24-5.29-13.2a5.42,5.42,0,0,1-1.19-3.06C930.17,196.63,934.92,193.23,938.38,193.93Z" transform="translate(-525.08 -33)"/><path class="cls-2" d="M818.09,400.85c3-4.51,6.39-8.66,9.67-12.94a85.32,85.32,0,0,1,30.49-24.7c6.55-3.24,12.13-7.87,17.35-12.91,1.55-1.48,1-3.26-1-3.76-1.61-.4-3.3-.15-4.9-1-6.8-3.45-14.18-3-21.37-2.38a26.34,26.34,0,0,0-15.3,6.16c-3.62,3.22-7.45,6.44-10.22,10.34-4.16,5.86-8.46,11.88-8.9,19.52-.08,1.44-1.07,2.3-1.85,3.34-3,4-6.25,7.84-7.56,12.9-1.41,5.44,1.32,9.39,7,9.34C814.61,405.34,816.52,403.23,818.09,400.85Z" transform="translate(-525.08 -33)"/><path class="cls-2" d="M1003.4,862.28c-3.53-.06-7.08.29-10.53-1a5.31,5.31,0,0,0-3.32.06c-4.28,1.51-8.82,1.17-13.21,1.92-9.54,1.64-19.08,3.1-28,7.11-1.45.64-2.77,1.11-4.25.27-3.49-2-6.79-.77-10.12.54-4.21,1.65-5.46,3.42-5.44,8a21.48,21.48,0,0,0,.69,5c.84,3.54,3.14,4.85,6.4,5.15a20.77,20.77,0,0,0,2.08,0c4.83.38,8.87-1.75,13-3.27,5.06-1.83,9.87-4.21,15.34-5a82.81,82.81,0,0,0,14.58-3.6c4.56-1.56,9.27-3.26,14-3.59,4.88-.34,8-2.74,10.91-5.94.91-1,1.86-1.94,1.36-3.44C1006.39,862.69,1005,862.31,1003.4,862.28Z" transform="translate(-525.08 -33)"/><path class="cls-2" d="M664.52,315.36c.1,2.43,2.27,5.5,4.24,6,2.27.61,3.29-1.3,4.64-2.49a7.43,7.43,0,0,0,1.17-1.21c3.22-4.54,6.67-8.93,9.44-13.78,2.86-5,5.53-10.26,12.19-11.12a3,3,0,0,0,1-.47c3.49-2.16,3.9-5.23,1.06-8.26-2-2.15-4-4.16-5.24-7.06-1.68-3.92-4.84-4.58-8.93-2.79a29.52,29.52,0,0,0-9.64,6.54c-1.6,1.69-3.25,2.85-5.81,2.75a14.17,14.17,0,0,0-7.9,2.43c-2.41,1.48-4.6,3.33-4.12,6.68a4.42,4.42,0,0,0,2.34,4.74c4.79,2.41,5.49,6.66,5.52,11.3C664.5,310.88,664.42,313.12,664.52,315.36Z" transform="translate(-525.08 -33)"/><path class="cls-2" d="M1234.23,525.68a3.48,3.48,0,0,0-1.18,3c.22,3.71-.59,7.49.64,11.13a6.8,6.8,0,0,1-1.15,6.79c-3.24,4.33-3.66,9.31-2.25,14.4a28,28,0,0,1,.51,5.92,65,65,0,0,1-.73,7.36c-.46,3.68-1.77,7.24-1.54,11a4.78,4.78,0,0,0,2.82,4.47,4.85,4.85,0,0,0,5.72-.81,12.26,12.26,0,0,0,2.25-2.49,27.53,27.53,0,0,0,4-12.65c.18-5.09-1.25-10-1.24-15,0-2.6.15-5.18-.83-7.74a4.54,4.54,0,0,1,.91-5.23c3.71-3.31,4-7.74,3.1-11.91-1-4.85-.77-9.65-.93-14.47,0-.75,0-1.5,0-2.25-.09-1.62-.65-3-2.46-3.22s-1.92,1.41-2.29,2.59C1238.43,520.05,1237.12,523.31,1234.23,525.68Z" transform="translate(-525.08 -33)"/><path class="cls-2" d="M1102,690.17c3.48-1.19,7-.92,10.52-1a4.8,4.8,0,0,0,3.48-1.51,15,15,0,0,0,2.13-19.38,42.1,42.1,0,0,1-7.44-25.26c.18-4.54-1.09-8.84-1.4-13.29-.18-2.6-2-4.45-3.57-4.48s-2.79,1.82-2.91,4.77c-.13,3.36,0,6.73,0,10.75-.31,4.34.31,9.33-.93,14.36a16.27,16.27,0,0,0,.4,9.4,4.7,4.7,0,0,1,.3,3.28c-1.73,4.84-1.83,10.28-5.57,14.39-1.51,1.67-1.38,3.85-.27,5.75A4.38,4.38,0,0,0,1102,690.17Z" transform="translate(-525.08 -33)"/><path class="cls-2" d="M1179.82,83.33c2.62,0,5.24,0,7.86,0v.2c3.54,0,7.2-.57,10.62.1,10.94,2.15,21.83,4.62,31.6,10.38a2.13,2.13,0,0,0,3.29-.88A11.45,11.45,0,0,1,1235,91c1-1,1.16-1.87,0-2.82-3.69-3.12-7.16-6.56-11.12-9.28-6.09-4.16-13.34-5.73-20.32-7.6a19.13,19.13,0,0,0-11.07.34,24.14,24.14,0,0,1-9.29,1.69,8.06,8.06,0,0,0-6.42,2.91c-1.64,1.78-.41,3.47.07,5.22S1178.41,83.34,1179.82,83.33Z" transform="translate(-525.08 -33)"/><path class="cls-2" d="M686.15,691.93c-1.14-2.92-3.62-3.86-8.63-3.85-.75,0-1.5,0-2.25,0-5.58.14-8.14,2.18-9.42,7.62-.3,1.27-.17,2.64-.51,3.89-2.68,10,1.22,17.8,7.9,24.81,1.8,1.89,3.89,2.09,6.16,1.83s3.43-1.6,2.64-3.89c-1-3-.51-5.93-.71-8.89a3.92,3.92,0,0,1,1.3-3.56c4.22-3.29,4.54-7.8,4.37-12.65A16.56,16.56,0,0,0,686.15,691.93Z" transform="translate(-525.08 -33)"/><path class="cls-2" d="M830.3,905.71c.77-1.79,1.07-3.86-.39-5.27-2.48-2.38-3.8-5.5-5.82-8.14a19.12,19.12,0,0,0-5.56-4.44c-5-3-10.69-2.82-16.06-4a4.32,4.32,0,0,0-5.19,5.38c1.87,7.4,5.67,13.61,13.23,16.13,4.87,1.62,10.12,2.09,14.75,3C827.77,908.34,829.56,907.4,830.3,905.71Z" transform="translate(-525.08 -33)"/><path class="cls-2" d="M1113.86,733.15c-4.32,2.88-5.24,6.16-3.82,11.16.66,2.32,1.12,4.71,1.92,7,1.22,3.49,2,7.21,4.43,10.19a6.36,6.36,0,0,0,6.58,1.72,5.07,5.07,0,0,0,3.3-4.72,11.32,11.32,0,0,0-.25-3.34c-1.53-5.78-3-11.55-.91-17.53a5.54,5.54,0,0,0,0-1.68h0a7.9,7.9,0,0,0,0-2.23c-1.22-3.9-3.07-7.58-3.86-11.63-.08-.41-.8-.89-1.28-1-.84-.14-1.31.49-1.49,1.29-.34,1.45-1.28,2.74-1.11,4.31C1117.65,729.67,1116.31,731.51,1113.86,733.15Z" transform="translate(-525.08 -33)"/><g id="highlight" class="cls-3"><path class="cls-4" d="M1400.55,494.34q-3.9-27-8.75-53.85c-5-27.67-14.92-53-35.51-73.22a143.37,143.37,0,0,1-22.46-28.79c-8.1-13.53-15.72-27.33-23.75-40.89-14.85-25.07-24.51-51.75-26.52-81.06a120.07,120.07,0,0,0-3.82-23.24,167.33,167.33,0,0,1-4.47-19.55c-2.37-15.94-6-31.68-9-47.54a27.9,27.9,0,0,0-9.36-16.84,7.48,7.48,0,0,1-2.48-4.68c-.61-10.84-6.39-18.1-15.4-23.32q-7.77-4.5-15.54-9c-7.81-4.55-16-7-25.23-5.74a124,124,0,0,1-19,1.28c-12-.16-23.52,1.45-34.57,6.29a12.48,12.48,0,0,1-5.51.48,48.52,48.52,0,0,0-19.9,2.93c-8.44,3.13-16.93,6.13-25.36,9.3-2.65,1-4.73.67-7.35-.67a48.33,48.33,0,0,0-12.6-4.33,15.84,15.84,0,0,1-8.42-4c-3-2.85-6.08-5.57-9.16-8.32-11-9.77-23.1-16.75-38.53-15.36-2.72.25-3.93-1.09-4.89-3.54-4.52-11.5-14.73-15-23.9-13.75a289.06,289.06,0,0,0-28.64,5.74c-6.88,1.67-13.41,4.47-20.79,4.13C936.45,46.61,933,48,930,49.37c-12.94,6-25.91,12-38.58,18.48A218.28,218.28,0,0,0,866.73,82.5c-23.11,16.07-46.92,31-70.94,45.66-17.38,10.58-32.92,23.6-48.58,36.45-7.8,6.4-14.71,14-24.37,17.92-5,2.06-5,2.42-8.81-1.25s-8.49-5.21-13.77-5.46c-5.7-.27-10.67,1.81-15.51,4.36A39.4,39.4,0,0,1,672,184.32c-10,1.5-19.94,3.42-29.84,5.52-3.81.81-7.18,1.12-10.87-.68-5.2-2.55-10.52-1.84-15.77.48-5.43,2.39-9.13,6.52-12,11.46-10.61,18.16-20.88,36.53-28.59,56.14a196.47,196.47,0,0,0-7.81,24.61c-1.37,5.58-1.44,11.49-1.91,17.27a19,19,0,0,0,4.39,14.17c2.27,2.72,2.26,5.14,1,8.2-3.87,9.16-7.81,18.31-11.18,27.66-2.65,7.38-4.54,15.05-6.66,22.62-.86,3-1.1,6.27-2.18,9.22-4.52,12.33-9.21,24.6-11.62,37.58-1.83,9.88-1.7,19.43,4.29,28.13a16.44,16.44,0,0,1,1.55,4.18c1.48,4.4,2.73,8.9,4.46,13.2,2.17,5.39,5.32,10.44,7,15.95,4.25,14,7.92,28.15,11.78,42.25,1.5,5.44,2.81,11,7.3,14.92a11.64,11.64,0,0,1,3.9,7.74,24.09,24.09,0,0,0,8.26,15.55c3.28,2.79,3.17,3,1.5,7.16-2.81,7-5.44,14-8.35,20.91a49.52,49.52,0,0,1-4.07,7.28c-3.61,5.68-7.65,11.12-10.89,17-2,3.64-3.81,7.2-7,10s-5.2,6.73-6.23,11.08c-1.8,7.65-.23,15,2.17,22.11,3.91,11.53,8.21,22.93,12.61,34.29,1.41,3.64,3.6,7,5.54,10.42a25.58,25.58,0,0,0,14,11.63,8.93,8.93,0,0,1,4.26,3.28,82.22,82.22,0,0,0,23.14,24.29,7.67,7.67,0,0,1,3.14,5,104.71,104.71,0,0,0,4.09,13.41c5,13.17,13.52,24.13,22.38,34.9,4.53,5.5,9.89,9.21,16.93,10.09,2.93.36,4.56,1.73,6.16,4.1,3.43,5.11,6.79,10.43,11.07,14.78,10.21,10.34,18.6,22.09,27.41,33.53a13.23,13.23,0,0,1,2.31,4.47c2.46,9.08,7.58,16.71,13.06,24.1A188.78,188.78,0,0,0,744.7,911c15.56,14.26,28.3,31,41.32,47.52,8.82,11.15,18.53,21.2,31,28.23q19.13,10.77,38.37,21.32c6.73,3.69,13.28,8.09,20.48,10.48a365.14,365.14,0,0,0,36.91,9.79c23.88,5.22,45.25-11.56,52.8-26.28a63.26,63.26,0,0,0,6.12-20.39,32.38,32.38,0,0,1,5.58-14.56c5.43-7.65,10.81-15.34,16.21-23,2.12-3,4.48-4.32,8.58-3.29,15.16,3.8,30.19,2.61,44.8-2.77,7.2-2.66,14.11-6.11,21.27-8.9,3.07-1.2,6.53-2.57,9.65-2.25a121.19,121.19,0,0,0,29.18-.34c11.31-1.61,22.85-2.44,33.84-5.31,23-6,44.82-14.93,64.92-27.78,12.54-8,23.33-17.67,29.84-31.42a19,19,0,0,1,2.8-4.21c7.49-8.79,13.22-18.67,18.13-29.05,3.69-7.8,6.69-16,10.93-23.45,9-15.83,18.43-31.39,27.9-46.93,4.2-6.88,8.86-13.49,13.41-20.16,2.59-3.78,5.62-6.52,10.76-7.1,4-.44,7.94-2.34,11.45-4.39,12.31-7.18,21.52-17.56,28.18-30,7.18-13.38,13.76-27.1,20.5-40.73a131.44,131.44,0,0,0,11.24-33.52c2.92-15.1,6-30.18,8.43-45.36,2-12.38,3.23-24.9,4.8-37.35C1404.5,524.46,1402.72,509.36,1400.55,494.34Z" transform="translate(-525.08 -33)"/></g><path d="M1425.55,552.11c-.55-11-.88-22-1.71-32.93-.7-9.1-1.75-18.18-3.07-27.21a303.56,303.56,0,0,0-11.06-46.79,252.35,252.35,0,0,0-19.91-46.77,424.52,424.52,0,0,0-37.34-55.73,205.79,205.79,0,0,1-29.33-51.33c-5.84-14.8-9.09-30.35-12.26-45.9-6.25-30.71-11.49-61.65-20.24-91.8-5.05-17.39-10.07-34.79-18.72-50.86-6-11.08-13-21.16-22.81-29.37-15.5-13-33.4-18.6-53.31-17.94a147.51,147.51,0,0,0-22.73,2.71c-15,2.88-30,6.13-44.88,9.5a93.1,93.1,0,0,1-32.79,1.61c-15.47-2-30-7.36-44.13-13.87-11.85-5.46-23.73-10.89-35.87-15.66a102.24,102.24,0,0,0-42.26-6.65,285.59,285.59,0,0,0-31.64,3.52c-37.06,5.82-70.9,19.88-102.38,40.14-24.22,15.59-46.2,34.05-68.31,52.36-12.35,10.22-24.63,20.53-38.17,29.22a117.18,117.18,0,0,1-62.32,19c-7.27.13-14.56-.24-21.82.12-10.41.5-20.85,1.13-30.94,4.17A54.86,54.86,0,0,0,600,190.12c-10.6,8-17.44,18.82-23.09,30.45-6.55,13.48-10.68,27.83-14.07,42.42a245.28,245.28,0,0,0-6.31,44.8c-.35,8.16-1.42,15.85-4.62,23.35-1.46,3.41-3.32,6.16-6.63,7.95a20.52,20.52,0,0,0-10.63,14.35c-1,4.73-2.22,9.44-3.47,14.12a175.26,175.26,0,0,0-6.14,44.2,119.94,119.94,0,0,0,1,12.24c.55,5.56.91,11.15,1.79,16.66,2.49,15.61,7.82,30.31,14.89,44.4,4.52,9,9.09,18,13.53,27A74.26,74.26,0,0,1,564,540a138.25,138.25,0,0,1-8.05,57.76c-3.19,8.62-7.07,16.85-13.31,23.78a66.7,66.7,0,0,0-4.86,6.13,39.57,39.57,0,0,0-7.35,21.9c-.46,11.75,3.92,22,9,32a305.46,305.46,0,0,0,29.28,46.29c15.22,20.06,30.34,40.19,45.7,60.14q16.2,21,32.93,41.68c8,9.84,16.32,19.39,24.51,29.05q10.31,12.15,20.65,24.27c7.13,8.37,14.28,16.71,21.39,25.1,11.32,13.36,22.2,27.12,34,40A400.63,400.63,0,0,0,802,997.38a293.15,293.15,0,0,0,35.7,23c19.19,10.57,39.1,19.41,60.56,24.27,20.07,4.55,40,4.08,59.58-2.56a64.09,64.09,0,0,0,17.35-8.91c9.2-6.72,15.21-15.75,18.8-26.45,2.5-7.42,4.93-14.87,7.13-22.38,3.37-11.53,9.74-20,22-23,9.23-2.28,18.33-5.21,27.66-7,17.58-3.27,35.23-6.33,53-8.67,15.86-2.09,31.87-3.12,47.81-4.58a241.93,241.93,0,0,0,41.76-7.61,75.07,75.07,0,0,0,42-28.84,234.26,234.26,0,0,0,24.35-42.08c7.42-16.49,14-33.36,21-50a131.47,131.47,0,0,1,29.94-44.17c7.77-7.48,16.21-14.29,24.56-21.15a447,447,0,0,0,33.51-30.43,172.16,172.16,0,0,0,35.36-50.6c7.06-15.58,11.72-31.89,15.06-48.54C1423.46,596.11,1426,574.26,1425.55,552.11Zm-40.79,69.22a176.55,176.55,0,0,1-14.34,39.35,115.91,115.91,0,0,1-18.14,25.43c-7.85,8.44-16,16.63-24.5,24.45-7.93,7.33-16.3,14.2-24.73,21-19.9,16-36.1,34.87-47.54,57.86-7,14.08-12.43,28.76-18.45,43.22a312,312,0,0,1-24.53,47.72c-8.19,12.88-19.73,20.54-34.52,23.57a338.42,338.42,0,0,1-41.48,5.93c-29.36,2.31-58.66,5.28-87.51,11.43-14.94,3.18-30,6-44.24,11.91-14.63,6.1-25.48,16.08-31,31.18-3.19,8.76-6.37,17.56-8.76,26.56-3.71,14-13.23,20.36-26.69,22.8-14.73,2.68-29,.82-43.05-3.54-19-5.89-36.7-14.64-53.53-25.14a246,246,0,0,1-35.9-26.62c-7.43-6.78-15.33-13.09-22.27-20.34C773,927,763,915.45,753,904c-7.72-8.84-15.17-17.91-22.73-26.89-11.15-13.26-22.25-26.57-33.44-39.79-7.59-9-15.4-17.73-22.9-26.76-7.74-9.31-15.42-18.69-22.8-28.3q-28.79-37.5-57.28-75.23a256.45,256.45,0,0,1-26.17-42.28c-1.07-2.17-1.83-4.49-2.87-6.68-2.73-5.79-1.46-10.77,2.69-15.42,2.61-2.92,4.88-6.12,7.28-9.21,4.65-6,7.47-12.93,10.17-19.87,6-15.55,10.38-31.64,11.43-48.3,1.09-17.13,1.43-34.45-4.38-51a218.71,218.71,0,0,0-12.17-28.18c-7.56-14.62-15-29.22-18.71-45.39-2.78-11.94-2.9-23.94-1.85-36.12a89,89,0,0,1,10.67-35,33.59,33.59,0,0,1,7.27-9.82c4.07-3.52,5.8-8.09,6-13.37.37-9.87.67-19.74,1.22-29.6,1.53-27.54,6.16-54.46,16.94-80a162.87,162.87,0,0,1,7.39-15.07c6.15-11.25,16.28-16.78,28.53-18.28A318,318,0,0,1,669,201c30.69-.66,59.29-8.16,85.53-24.39,18.11-11.21,35.18-23.86,52.27-36.52,13.18-9.77,26.31-19.63,39.81-28.94,19.57-13.47,40-25.52,62.77-32.8,12.57-4,25.58-6.79,38.54-9.44,10.59-2.16,21.41-2.62,32.27-2.55,12,.07,23.22,3.13,34,8,9.85,4.46,19.56,9.23,29.48,13.54a217.82,217.82,0,0,0,35,11.65c19.84,4.87,39.46,4.27,59.2-.41,12.87-3.06,25.87-5.62,38.82-8.38a109,109,0,0,1,29.5-1.78c8.92.54,16.4,4.75,22.92,10.63,8.21,7.39,13.62,16.71,17.87,26.77,9.19,21.77,14.79,44.63,19.91,67.57,6.06,27.12,11,54.49,17.19,81.59a209.48,209.48,0,0,0,25.18,62c9.65,16,21.7,30.33,32.28,45.67,6.55,9.5,12.62,19.37,18.44,29.35,15.55,26.65,23.85,55.81,28.71,86,1.38,8.63,2,17.4,2.69,26.12.7,8.91,1.07,17.85,1.58,26.78C1392.77,575.08,1390.45,598.41,1384.76,621.33Z" transform="translate(-525.08 -33)"/><path d="M827.22,371c4.61-11.6,14-17,26.19-17.7,4.06-.22,8.16.66,12.25.69,4.43,0,8.88-.21,13.3-.6.76-.07,1.41-1.44,2.11-2.21-.65-.59-1.2-1.48-2-1.72-7.45-2.34-14.82-5.14-22.44-6.73-13.86-2.87-24.8,2.65-33.29,13.46-5.4,6.88-8.08,15.06-10.58,23.3-1.9,6.24-3.51,12.6-5.87,18.66-7.8,20-19.32,37.83-32.79,54.42-2.8,3.44-5.78,6.9-10.4,8.16-7.88,2.16-12.7,7.48-15.28,15-1.82,5.29-3.21,10.75-5.35,15.9-4.35,10.5-11,18.77-23.18,20.27-8.69,1.08-17.43,1.66-26.14,2.59a20.66,20.66,0,0,0-6.45,1.5,3.21,3.21,0,0,0-.29,5.84,11.19,11.19,0,0,0,4.72,1.46c2.4.23,4.84.06,7.27.06l0,.31c5.75-.48,11.49-1.1,17.25-1.4,19.52-1,34.46-12.25,39.32-31.45,1-3.8,2.06-7.56,3.22-11.3a13.49,13.49,0,0,1,9.44-9.47,25.23,25.23,0,0,0,12.5-9c3.69-4.68,7.57-9.22,11.21-13.94A169.24,169.24,0,0,0,819.15,396C821.87,387.64,824,379.09,827.22,371Z" transform="translate(-525.08 -33)"/><path d="M1017.41,566.21c-8.27-7.41-17.55-11.72-28.81-11.55-6.64.1-12.89,1.78-19.08,3.88-6.53,2.22-13,4.78-19.62,6.53a29.15,29.15,0,0,1-23.67-3.49c-2.35-1.49-4.47-3.35-6.79-4.91-3.85-2.59-7.77-5.07-11.67-7.58-2.5-1.61-5.31-2.86-7.46-4.83-8-7.32-16-14.56-23.44-22.39-11.47-12.12-26.74-13.77-41.79-16.32a2.78,2.78,0,0,0-1.11.07c-6,1.58-11.41-.31-16.83-2.44-1.91-.74-3.85-1.39-6.26-2.26-.85.52-2.23.94-2.76,1.85-.32.56.48,2,1.08,2.81a8.56,8.56,0,0,0,2.23,1.65c5.49,3.77,11.54,6.4,18.15,6.75,8.51.46,16.45,3.2,24.52,5.34a32.17,32.17,0,0,1,11.95,5.74c8.62,7.1,16.78,14.76,24.91,22.43a61.31,61.31,0,0,0,12.61,9.14,93.32,93.32,0,0,1,12.57,8.22c11.85,9.27,24.63,12.86,39.22,7.45,5.94-2.2,11.89-4.41,17.93-6.31,13.92-4.38,26.9-2.9,38.36,6.77,7.26,6.12,14.43,12.35,21.65,18.52a32.65,32.65,0,0,0,3.48,2.73c.18.12,1.36-.66,1.38-1.07a3.7,3.7,0,0,0-.8-2C1031.43,582.12,1025.44,573.39,1017.41,566.21Z" transform="translate(-525.08 -33)"/><path d="M1204.84,284.51a31.08,31.08,0,0,1-3.79-14.42,88.81,88.81,0,0,1,2.2-18.79c2.14-10.18,3.57-20.51,5.3-30.77A20.72,20.72,0,0,0,1205,209.9a57.48,57.48,0,0,1-5.09-9.9c-1.57-3.78-2.64-7.76-4-11.61-1.61-4.5-4.52-7.54-9.42-8.63a59.64,59.64,0,0,1-8.45-2.87,25.83,25.83,0,0,0-15.91-.79,41.9,41.9,0,0,0-15.53,7.36c-2.37,1.78-5,3.21-7.37,5-1,.81-2.46,2.26-2.32,3.21a4.41,4.41,0,0,0,2.91,2.82,10.13,10.13,0,0,0,5.36-.47,57.51,57.51,0,0,0,7.52-3.69c9-4.83,17.88-5.45,27.26-.8a13.32,13.32,0,0,1,7.26,7.79c2,5.37,4.2,10.83,7.26,15.64,2.35,3.7,3.71,7.18,3.24,11.46a71.82,71.82,0,0,1-.7,7.21c-1.51,7.09-3.1,14.17-4.88,21.2-2.92,11.52-3.15,22.82,1.87,33.89,4.4,9.66,8.55,19.45,13.14,29,2,4.17,4.79,8,7.36,11.85.38.58,1.54.64,2.34.93a6.39,6.39,0,0,0,.51-2c-.37-3.7-.61-7.44-1.34-11.08A118.75,118.75,0,0,0,1204.84,284.51Z" transform="translate(-525.08 -33)"/><path d="M1128.44,720.81c.1-5.38-1.56-10.32-3.1-15.27-1.6-5.17-2-10.21-.17-15.35a14.8,14.8,0,0,0,.46-1.61,5.42,5.42,0,0,0-1.51-5.64c-1.92-1.77-4.14-1.54-6.27-.54a41.43,41.43,0,0,0-3.71,2.43c-2.55,1.52-5.07,3.12-7.74,4.4a3.56,3.56,0,0,1-3-.41c-.44-.29-.36-1.74-.12-2.54a15,15,0,0,1,1.55-3,41.92,41.92,0,0,0,5.7-18c.59-8.36,1-16.72,1.49-25.08l-.43,0c0-3.17.13-6.35,0-9.51q-.48-9.48-1.25-18.94c-.06-.74-.88-1.43-1.35-2.14-.55.65-1.11,1.28-1.65,2a1.11,1.11,0,0,0-.11.54c-.45,5.19-1.12,10.37-1.28,15.58-.23,7.45-.08,14.91-.11,22.37-.06,11.94-2.11,23.3-8.56,33.68-3.87,6.24-.47,12.32,7,13.06a36,36,0,0,0,5.56-.27c3.09-.19,3.52.17,3.86,3.25.5,4.44.61,9,1.55,13.3,1.67,7.63.57,14.3-4.69,20.35-3.84,4.42-4.37,9.83-2.68,15.32A37.63,37.63,0,0,0,1120.26,767c3.42,2.81,5.53,3.26,6.81,1.61,2.16-2.79-.22-4.86-1.53-7-1.87-3-4.06-5.81-5.83-8.87-3.81-6.6-3.47-9.55,1.8-14.81C1126.28,733.15,1128.32,727.49,1128.44,720.81Z" transform="translate(-525.08 -33)"/><path d="M1009.83,864a10.5,10.5,0,0,0-2.66-.82c-4.58-.81-9.16-1.67-13.76-2.29-7.38-1-14.77-2.54-22.16-2.54-7.76,0-15.52,1.52-23.27,2.47-4.43.54-8.89,1.05-13.25,2-5.26,1.14-9.82,3.5-12.12,8.87-2.69,6.27-.07,17.27,5.21,21.61,4,3.32,9.26,1.41,10.06-3.81a17.91,17.91,0,0,0-.27-5c-.71-5.2-.49-5.36,4.63-6.93,6.57-2,13.1-4.21,19.59-6.51,5.51-2,11.07-3.2,17-2.52,4.44.52,8.89.83,14,1.29,3.87-.41,8.31-.77,12.71-1.41a12.28,12.28,0,0,0,4.62-1.82C1011.2,865.88,1011.24,864.65,1009.83,864Z" transform="translate(-525.08 -33)"/><path d="M918.87,173.15a6.27,6.27,0,0,0,1.89-2c1-1.61,1.68-1.45,3-.19,5.88,5.78,7.67,6,14.66,2.48.67-.33,1.32-.93,2-1,1.23,0,2.87-.17,3.63.53,2.31,2.12,4.76,4.34,6.29,7,3.07,5.38.62,10.53-5.32,12.07a30.74,30.74,0,0,1-5,.88c-3.79.35-6.2,2.6-7.54,5.86a38.23,38.23,0,0,0-1.52,6.65c1.26,12.33,7.26,21,17.53,26.78,2.55,1.44,4,.35,3.71-2.51a21,21,0,0,0-5.1-11.54,41.81,41.81,0,0,1-6.25-10.42c-1.57-3.82,0-5.9,4.13-6.75a55.09,55.09,0,0,0,5.46-1.15c7.75-2.49,11.78-9.35,10.48-17.42s-6-13.92-11.92-19c-2.82-2.41-6.4-3.69-9.86-1.56-4.63,2.85-7.81,2.83-11.6-1.91s-10.4-3.49-13.12,1.63c-1.66,3.13-1.38,6.56-.51,9.83C914.53,173.74,916.9,174.44,918.87,173.15Z" transform="translate(-525.08 -33)"/><path d="M702.29,739.53c-1.63-.75-3.56-1.61-4.48-3-3-4.5-5.55-9.26-8.25-13.94-1.25-2.17-.56-3.85,1.32-5.33a16.19,16.19,0,0,0,5.62-8.15c1.73-5.73.35-11.13-1.82-16.32-2-4.88-5.69-7.81-11.48-7.59a61.55,61.55,0,0,0-8.06,2,5.47,5.47,0,0,0-3.28,6.87c.7,2.35,2.21,2.9,6,2.15,1.46-.28,2.9-.71,4.37-.93,2.67-.39,3.64,1.35,4.11,3.54.54,2.49,1.8,5.11-.71,7.25a3.51,3.51,0,0,1-2.11.42c-.73,0-1.46-.32-2.2-.36a7.25,7.25,0,0,0-7.68,9.47,30.29,30.29,0,0,0,3,6.61c2.7,4.68,5.58,9.25,8.37,13.87,1.74,2.88,3.3,5.86,5.19,8.62,2.85,4.15,7.43,5.57,11.76,3.91,2.19-.84,4.11-2,4.11-4.7C706,741.48,704.28,740.45,702.29,739.53Z" transform="translate(-525.08 -33)"/><path d="M1242.68,547.33a11.23,11.23,0,0,1-3.18-6.25c-.54-7.19-1.65-14.64,3.85-20.78a2.44,2.44,0,0,0,.72-1.48c0-1.21,0-2.66-.58-3.52-.41-.55-2.28-.66-3-.21-4.28,2.59-8.82,4.94-10.94,9.94-3.54,8.33-3.13,16.78-.48,25.15.62,2,2.56,3.53,4,5.22s3.26,2.82,3.85,4.58c1.59,4.74,2.6,9.67,3.49,13.12-.65,7.5-.85,13.52-6.91,17.18a9.24,9.24,0,0,0-3,3.9,2.81,2.81,0,0,0,1.17,2.47c5.73,1.54,13-2.38,15-8,.68-1.93,1-4,1.48-6,2.15-8.36.41-16.68-.36-25A16.87,16.87,0,0,0,1242.68,547.33Z" transform="translate(-525.08 -33)"/><path d="M673.55,323.27a6.47,6.47,0,0,0,.38-2.73c.48-7.24-.51-14.11-4.95-20.15A14.21,14.21,0,0,1,667.6,298c-1.4-3-1-4.36,2.06-4.87,4.86-.81,8.49-3.5,12.1-6.5a35.94,35.94,0,0,1,5.63-3.61c3.22-1.76,3.54-1.62,6.3.83a16.34,16.34,0,0,0,4,2.86,3.66,3.66,0,0,0,3-.56,2.7,2.7,0,0,0,.31-2.5c-1.17-2.52-2.26-5.19-4-7.27-1.29-1.55-3.57-2.27-5-3.12a33.57,33.57,0,0,0-5.11,1.31c-3.37,1.56-7,2.85-9.9,5.09a24.7,24.7,0,0,1-15.48,5.24c-6.68.12-9.23,4.45-6.51,10.67a50.76,50.76,0,0,0,5,8.69,34.75,34.75,0,0,1,6.09,14.83,11.9,11.9,0,0,0,1.46,4.74,4.93,4.93,0,0,0,3.49,2C671.88,325.78,672.94,324.3,673.55,323.27Z" transform="translate(-525.08 -33)"/><path d="M831,888.64c-3.22-3.95-7.24-6.47-12.64-5.29a13.84,13.84,0,0,1-8.73-.8,5.93,5.93,0,0,0-3.2-.75c-1.51.31-3.51.84-4.18,2a5.22,5.22,0,0,0,.22,4.6,9.69,9.69,0,0,0,4.6,3.78,39.35,39.35,0,0,0,9.75,1.84c3,.21,5.26,1.09,7.16,3.53,2.73,3.52,5.76,6.81,8.72,10.13.45.5,1.51,1.11,1.83.92a4.1,4.1,0,0,0,1.46-2,10.18,10.18,0,0,0,.16-2.6C835.69,898.67,834.72,893.16,831,888.64Z" transform="translate(-525.08 -33)"/></svg>