<svg id="Layer_3" data-name="Layer 3" xmlns="http://www.w3.org/2000/svg" viewBox="0 0 1118.68 1033.82"><defs><style>.cls-1{fill:#64533f;}.cls-2{fill:#4c3c29;}.cls-3{opacity:0.25;}.cls-4{fill:#7d4cb7;}</style></defs><path class="cls-1" d="M767.55,114.93c-.2,1.51-.76,3,1.51,3.68,9.21,2.64,17.44,8,26.39,10.77,9.38,2.93,19.18,6.24,29.82,2.66,10.17-3.43,20.72-1.72,30.66,2.24,11.43,4.55,22.33,10.11,31.79,18.16a25.78,25.78,0,0,0,7.62,4.38A196.39,196.39,0,0,1,931,175.11c7.36,4.71,13.89,10.27,18,18.14,1.51,2.86,3.91,4.24,6.84,5.14,9.31,2.89,18.37,6.53,28.2,7.64a79.06,79.06,0,0,1,17.82,4.36c2.87,1,5,.91,7.48-1.11,5.78-4.8,12.62-7.89,19.36-11,4.54-2.1,8.35-5.29,12.74-7.54.88,2.17.75,4.45.88,6.71.25,4.18,3.3,6.49,6.46,8.11s6.07-.11,8.35-2.73a46,46,0,0,0,4.69-5.76c6.71-10.74,14-21,22.94-30.12,4.93-5,10.32-9.64,14.8-15,12.09-14.55,25.74-27.27,41.76-37.38,9-5.69,18.43-10.74,29-12.64a185.49,185.49,0,0,1,21.49-2.13c10.36-.63,20.74.43,31.16-1.14a75.75,75.75,0,0,1,16.09-1.19c4.7.3,4.69.55,4.89-4.23.07-1.58.11-3.17.16-4.75,14.32,6.77,29.88,8.9,45.15,12.08a144.67,144.67,0,0,1,21,5.6c4.32,1.61,8.92,1.59,13.29,2.71,18.23,4.69,36.58,9,53,18.92,2.53,1.52,5.37,2.73,7.44,4.73,5.83,5.64,13,8.78,20.09,12.35,25,12.64,41.51,33.21,52.31,58.63a35.87,35.87,0,0,0,7.08,11.44,141.89,141.89,0,0,1,19,24.82c4.59,7.46,7.75,15.41,7.86,24.31a18.55,18.55,0,0,0,2.24,8.45c10.69,20.6,18.13,42.57,26.78,64,3.64,9,5.1,18.38,3,28-.65,3,.57,5.22,1.86,7.65,3.35,6.29,8.72,10.91,13.12,16.33-3.11,1.31-3.12,3.38-1.58,6,4.29,7.29,6.21,15.51,8.86,23.43,1.14,3.41,1.83,7,3.24,10.32,5,11.9,10.84,23.41,16.84,34.82,3.71,7.05,4.69,14.48,5,22.18.18,4.46-1.33,8.3-3.75,12-3.71,5.77-9.59,8.87-15,12.47-12.45,8.34-21.68,18.78-25.4,33.74-2.41,9.64-4.91,19.26-4.86,29.22,0,8.65,2.71,10.81,10.78,10a1.61,1.61,0,0,1,.64.21c-1.61,2.07-3.37,3.78-2.64,7.07,4.18,18.93,2,37.74-3.75,55.83-9.12,28.67-13.29,58.39-20.19,87.52-4.31,18.2-10.75,35.64-17.43,53-4.2,10.91-6.13,22.3-8.91,33.51-2.2,8.85-4.59,17.58-9.76,25.27-7,10.37-16.13,17.85-28.43,20.82a12.58,12.58,0,0,0-8.31,6.3,120.16,120.16,0,0,1-17,21.26c-2.22,2.26-4.5,4.66-7.21,6.2a243.46,243.46,0,0,0-26.39,17.87,34.72,34.72,0,0,1-22.37,6.87c-4.55-.13-8.09,2.73-11.3,5.57a36.87,36.87,0,0,0-7,8.31c-8.36,13.55-21,20.37-36.42,20.13a273.21,273.21,0,0,0-53.42,4.23c-15,2.72-30.28,2.63-45.52,1.77a35.14,35.14,0,0,1-11.32-2.12c-2.35-.94-4.8-2-5.73-4.53-1.37-3.63-4.12-4.22-7.49-4.63-11.26-1.35-22.54-2.68-33.68-4.91-6-1.21-11.94-2.89-17.27-6.06-2.16-1.28-4-1.61-6.36-.52-5.63,2.64-11.7,3.58-17.83,4.09a19.89,19.89,0,0,0-10.74,3.84c-14,10.58-29.27,19.1-44.67,27.39a210.51,210.51,0,0,0-25.78,16.52c-1.65,1.22-3.54,2.31-4.09,4.4-1.25,4.72-4.75,7-8.89,8.66a21.08,21.08,0,0,0-3.08,1.44c-2.58,1.56-2.52,2.51.29,4.15,1.15.67,2.4,1.15,4,1.89a57.17,57.17,0,0,1-23.54,8.71c-4.49.67-8.93,1.65-13.42,2.32a27.89,27.89,0,0,0-11.94,4.62,40.59,40.59,0,0,1-27.82,6.93,13.1,13.1,0,0,0-7.27,1.21c-14.94,7.26-29.92,6-44.9.09a27.86,27.86,0,0,1-4.36-1.92,79.46,79.46,0,0,0-30.43-11.17A24.53,24.53,0,0,1,844,1023c-3.72-1.55-6.27-4.3-5.23-8.45,1.16-4.58-1.43-5.44-4.77-6.33-9.11-2.41-17.17-7.08-25.12-12a23.64,23.64,0,0,1-8.19-8c-3.41-5.79-2.47-9,3.95-14-.07-1.56-1.3-2.29-2.29-3.2-2.83-2.62-6.58-4.76-8.28-8-3.42-6.48-9.11-6.43-14.92-7-11.59-1.11-22.7-4.46-33.87-7.47a86,86,0,0,0-26.27-3,78.12,78.12,0,0,1-12.24-.18c-8.8-1-17.54-2.08-26.45-1.23a32.82,32.82,0,0,1-14.69-2.41c-12.51-4.77-23.66-11.63-31.87-22.46-11.1-14.66-22.52-29.12-32.9-44.28-13.2-19.3-25.63-39.13-38.12-58.9-6.07-9.62-10.43-20.18-14.85-30.63-5.66-13.41-6.28-26.9.85-40.1,1.54-2.84,1.43-5.55.48-8.51a245.11,245.11,0,0,1-8.63-35c-.46-2.78-2-5.06-3.28-7.44-12.05-22.24-16.12-46.07-14.24-71.09a44.47,44.47,0,0,0,.09-7.48c-1.41-14.91-2.46-29.86-4.16-44.75-3-26.06-2.28-52.1-.31-78.17a372.52,372.52,0,0,1,4.69-37.83c2.29-12.72,7.84-23.67,18.41-31.59a11.87,11.87,0,0,0,4.6-8c1.94-12.1,6.81-22.57,16.51-30.41,2.43-2,2.79-4.45,2.69-7.29-.5-13.17-1-26.31-3.51-39.31-3.3-17.31-2.89-34.82-2.41-52.3.26-9.29.29-18.62,2.26-27.8.88-4.12-.84-8.07-1.48-12.09a382.75,382.75,0,0,1-4.29-46.09,67.52,67.52,0,0,0-2.75-17.41,96.86,96.86,0,0,1-3.88-17.26c-1.82-15.67,2.65-29.68,11.52-42.42a104.21,104.21,0,0,1,20.61-21.64,51.89,51.89,0,0,1,24-10.67c3-.53,7.23-.28,7.27-5.29,1.07-.43,2.3-1,3.27-.28,5,3.51,10.58,2.54,15.8,1.77A93.81,93.81,0,0,1,657,87c6.75.79,13.37,2.18,20,3.35,8.41,1.47,16.81,3.27,24.84,6.58,11.15,4.58,21.62,10.51,32.47,15.67,3.29,1.56,6.59,3.33,10.26,3.33,7.23,0,14.67,3.32,21.67-1.19C766.51,114.59,767.1,114.87,767.55,114.93Zm306.27,180.89c-.85,10.09,4,18.27,8.83,26.51,2,3.35,3.92,6.2,8.56,4,1.8-.84,3.48.63,5.08,1.42,4.45,2.2,8.79,4.63,13.3,6.71,17.57,8.12,34.63,17,47.53,32,1.45,1.7,3.14,3.09,3.92,5.42,5.49,16.39,18.09,25.42,33.21,31.78,2.76,1.16,5.67,1.29,8.64,1.45,4.82.27,9.66-2,14.09-1.12,10,1.86,20,3.2,30.08,4.47a199.52,199.52,0,0,0,24.27,1.88A16,16,0,0,0,1287.59,394a24.42,24.42,0,0,1,3.23-13,50.67,50.67,0,0,0,6.53-27.37c-.3-10.79-5.07-19.49-12.36-26.33-6.08-5.71-12.1-11.5-18.14-17.26-6.54-6.23-13-12.71-22.55-14.24-1-.16-1.91-1.12-2.86-1.72a43.31,43.31,0,0,1-12-11.85c-1.87-2.61-2.3-4.94-.61-7.47,5.55-8.34,5.66-18.53,9.41-27.48a3.82,3.82,0,0,0-1.2-4.91c-1.94-1.29-3.74,0-4.87,1.21a24.35,24.35,0,0,0-6,9.74c-2.84,9.08-9.15,15.5-16.53,21-7.61,5.69-16.53,8.43-25.53,10.72q-19.68,5-39.67,8.68c-10,1.82-19.6,5.39-29.38,8.19-6.11,1.74-12.32,1.74-17.89-1.14-5.38-2.79-12.56-3.48-14.64-11-.37-1.35-1.89-2.54-3.13-3.48-2.47-1.89-5.1-1-5.57,2A47.82,47.82,0,0,0,1073.82,295.82Zm-257,686.48a70.23,70.23,0,0,0-8.49-2.92c-2.19-.62-4.66-1-6.27,1.18s-.63,4.3.41,6.41a13.61,13.61,0,0,0,4.42,5.1,70.54,70.54,0,0,0,10.88,6.7c7.11,3.27,13.89,7.64,22.1,8a5.91,5.91,0,0,1,2.47,1.1c1.81,1,2.31,2.19,1.28,4.43-2.54,5.56-1.63,7.45,4.35,9.28,4.52,1.38,9.35,1.86,13.77,3.48,13,4.76,26.46,5.56,40,5.78,7,.12,14.08-.17,21.12.08,12.29.43,24.33-1.29,36.28-3.9s23.52-6.36,35.74-7.49c2.86-.27,5.66-1.63,8.36-2.77,1.49-.63,2.73-1.58.75-3.49-3.1-3-3-3.68.39-5.65,2.34-1.37,4.82-2.53,7.28-3.7a13.34,13.34,0,0,0,6.26-6c2.14-4.1.66-7.34-4-7.82-3.57-.37-7.26-.61-10.82.46a451.64,451.64,0,0,1-45.42,11c-8.23,1.55-16.57,3-24.94,1.85-10.71-1.46-21.38-3.29-32-5.34a208,208,0,0,1-52.68-17.35c-10.39-5.11-20.76-10.25-31.06-15.54a50.52,50.52,0,0,0-12.73-4.65c-3-.61-6.17-2.46-10.39-.68C801.53,968,810.57,973.68,816.78,982.3ZM602.15,592.18c0,4.54,0,9.08,0,13.62A44.62,44.62,0,0,0,605.57,623c5,11.71,11.32,22.57,21.13,31.26,4,3.5,8.52,3.92,12.68.44,5.13-4.28,5.93-10,4.4-16.07a17.63,17.63,0,0,1,1.1-12.49c2.32-4.9,4.18-10,6.13-15.08,4.57-11.82,2.75-24.16,2.72-36.33,0-2.66-1.6-5.36-3.43-7.28-3.47-3.66-5.7-8.19-9-11.9-2.43-2.75-2.51-5.37-1.76-8.74,1.65-7.45,5.88-13.69,9-20.45a24.2,24.2,0,0,1,12-12.31c1.6-.73,2.77-1.65,2.68-3.47s-1.41-2.82-2.95-3.38c-5.3-1.92-10.81-2.28-15.83.22-10.07,5-19,11.77-24.49,21.77C609.35,548.76,599.6,568.77,602.15,592.18ZM1221.68,962.7c9.25-.38,18.44-2,27.74-1.52a2.61,2.61,0,0,0,.68-.06c15.61-3.48,31.6-5.07,47-9.52,13.52-3.89,26.74-8.46,39.12-15.25a47,47,0,0,0,12.35-9.44c1.58-1.72,1.38-2.65-.4-4.34-3.74-3.53-7.51-4.26-12.37-2.56a116.2,116.2,0,0,1-24.94,6.16c-9.38,1.1-18.72,2.66-28,4.26-15.34,2.64-30.7,5-46.32,5-11.57,0-23.14-.12-34.71,0-11.8.15-23.32-2.07-34.93-3.65a159.09,159.09,0,0,0-21.56-1.67c-4.86,0-10,.42-14.3,3.37-3.17,2.17-3.22,4.14-.16,6.37a28.61,28.61,0,0,0,9.23,4.19,163.57,163.57,0,0,0,40,6.18c5,.13,8.69,1,11,5.81a8.62,8.62,0,0,0,8.25,5.12C1206.88,960.79,1214.17,963.27,1221.68,962.7ZM852.38,852.24c4.1.34,8.7-.31,10.71-4.72s1-8.9-2.33-12.65c-.75-.83-1.81-1.71-2-2.7-1.4-8.35-7.07-14.6-10.74-21.81-1.57-3.1-2.28-5.64-1.19-8.93,1-3,1.59-6.53-1.27-8.85-3.55-2.87-3.31-6-1.7-9.56a5.54,5.54,0,0,0,.73-2.58c-.32-3.2,1.92-7.75-2-9.15-3.28-1.15-5.28,2.93-7,5.42-3.27,4.86-6.38,9.82-10,14.43-6.67,8.41-15,14.49-25.31,17.26a81.27,81.27,0,0,1-26.83,3,36.1,36.1,0,0,0-4.69.5c-9.89.66-19.44,3.72-29.48,3.7-8.32,0-16,2.82-21.86,9.23-2.45,2.67-5.12,5.14-7.67,7.73-1.43,1.44-3.25,2.89-2.19,5.23s3.22,3.57,6,3.57a8.91,8.91,0,0,0,6.14-2.31c2.76-2.31,5.61-5,9.21-5.55a59.15,59.15,0,0,0,10.44-2.56c3.15-1.13,6.67-1.35,8.87,2.58,1.84,3.28,5.07,2.94,7.8,1.61,7.84-3.85,16.26-5,24.71-6.56a40.52,40.52,0,0,1,23.83,2.57c11.82,5,23.07,11.45,34.48,17.44C843.15,850.73,847.24,852.44,852.38,852.24Zm5.14-575.32c2.06,0,4.33,0,6.6,0a5.66,5.66,0,0,0,4.4-1.4c1.24-1.26,3.28-2.21,2.92-4.28s-2.13-3.36-4.3-3.76c-2.66-.5-5.32-1-8-1.43-15.9-2.56-31.38-6.56-45.9-13.74-12.37-6.11-24.68-12.35-37-18.53-1.42-.71-2.9-1.33-4.24-2.17-2.24-1.38-3.62-2.89-2.66-6.09,1.56-5.16-.93-9.85-4.69-12.68-11.84-8.93-25.23-12.56-40.15-10.15-5.35.86-9.44,4.18-14.26,6-6.44,2.39-8.92,7.1-6.07,13.15,3.87,8.19,9.9,13.9,19.23,15.57,5.54,1,11,2.26,16.53,3.47,12.45,2.76,23.85,8.43,35.6,13.09,12,4.75,24,9.25,36.65,12a101.89,101.89,0,0,1,15.59,4.45C837.24,274.1,846.86,277.46,857.52,276.92Zm552.71,327.43a11.2,11.2,0,0,0,0-3.38c-1.83-5.32-3.51-10.66-5-16.12a10.29,10.29,0,0,0-9.43-7.75c-4.4-.25-8,1.75-10.64,6-1.86,3-2.07,6.4-3.4,9.46-3.11,7.22-4,15.16-7.93,22.19-6.23,11.17-14.63,20.59-22.81,30.2a132.43,132.43,0,0,0-18.14,26.88,11.17,11.17,0,0,0-1.61,5.13c0,3.49,1.46,4.93,5,4.85a9.88,9.88,0,0,0,7.2-3.35,16.62,16.62,0,0,1,10-5.16c6.43-1,12.81-2.42,19.19-3.78,9.15-2,14.56-7.31,16-16.9.67-4.65.24-9.85,2.78-13.82,4.24-6.63,7.37-14,12.94-19.73C1408.44,614.87,1410,609.91,1410.23,604.35Zm-11-366c.78-5.81-.72-10.93-3.19-15.92-2.82-5.68-5.73-11.35-9.56-16.38-4.46-5.85-5.94-13.16-10.2-19.09-5.19-7.22-12.24-8.06-19.74-5.91-8.25,2.37-16,17.3-11.48,26.54a55.69,55.69,0,0,1,5.44,19.46A12.89,12.89,0,0,0,1354,235a59.32,59.32,0,0,0,28.82,17,15.29,15.29,0,0,0,11.25-1C1399.39,248.13,1400.06,243.45,1399.27,238.38Zm-295.76,331h.18c0,1.82,0,3.63,0,5.45,0,1.14.07,2.69,1.31,2.84,3.16.39,5.14,2.68,7.64,4.13a3.69,3.69,0,0,0,4.49-.35c2.38-2.46,5.22-3.24,8.5-3.59a5,5,0,0,0,4-3.41c1.13-5.55,5.75-10,5.32-15.88-.32-4.35,1.36-7.37,4.5-10a27.21,27.21,0,0,0,4.22-4.43c1.21-1.6,2.49-3.41,1.95-5.6-1.22-4.91-3.11-9.79-7.12-12.85-6.28-4.79-12.68-9.64-20.25-12.29-4.23-1.49-8.38-3.86-13.07-3.3-12.42,1.49-14.13,5.2-11.64,15.06A42.4,42.4,0,0,0,1099.6,538c5,7.57,6.69,15.7,4.55,24.61A46.91,46.91,0,0,0,1103.51,569.37Zm26.15,246.4c-.62-5-.75-9.78-1.9-14.33-2.15-8.57-4.25-17.44-14.62-20.19a7.62,7.62,0,0,1-2.21-1.54c-5.19-4-10.82-7.4-16.06-11.25-8.6-6.32-16.26-7.13-26.25-2.43-8.79,4.14-16.49,8.9-23.42,15.64-5.5,5.36-6.81,12.08-8.15,18.9-.68,3.52,1,4.92,4.45,5.33,4.76.57,7-2.28,8.67-6.07,2.37-5.47,5.74-9.6,12.2-10.52,2.81-.41,4.42-2.88,5.74-5.35,2.46-4.6,4.73-5.42,9-2.49a111.3,111.3,0,0,0,21.49,11.32c6,2.41,12.25,5.88,11.78,14-.39,6.63,1.62,13,1.53,19.56-.06,4,4.08,9,7.38,9.45,2.91.43,6.72-2.76,8.28-6.92a3.28,3.28,0,0,0,.23-.64C1128.45,824,1129.07,819.74,1129.66,815.77ZM887,440.53c-7,0-18.16,5-24.59,11.71a82.71,82.71,0,0,1-16.83,13.62,32.05,32.05,0,0,0-8,7.26c-1.91,2.31-3.46,5.23-1.65,8.14,3.31,5.32,3.64,11.05,3.43,17-.05,1.52.65,3.06,1,4.6,1,4.75,5,7.95,9.94,7.15,3.93-.63,6.22-3.58,6.72-8.8.43-4.53.44-4.85,5.3-4.68,3.84.14,6.35-1.47,8.87-4,7.73-7.8,11.37-17.36,11.56-28.06.09-5,1.09-8.84,5.06-11.85,2-1.54,3.26-3.76,4.55-5.89,2.28-3.78,1.19-5.77-3.28-6.21C888.4,440.47,887.71,440.53,887,440.53Zm477.41,481.15c3.74.18,7.11-1.17,10.42-2.65,9.84-4.4,17.61-11.86,25.73-18.55a148.11,148.11,0,0,0,25.63-28c6.06-8.42,12.75-16.43,18.4-25.12,9.13-14,16.25-29.29,26.15-42.87a92.88,92.88,0,0,0,5.78-10,2.2,2.2,0,0,0-.47-3,2.5,2.5,0,0,0-3.13.36c-.87.73-1.68,1.53-2.5,2.31a102.11,102.11,0,0,0-16.4,19.82c-6,9.57-11.06,19.83-17.69,28.94-14.76,20.31-30.2,40.13-48.7,57.3-1.64,1.53-3.58,3.13-4.4,5.11-2.92,6.94-9,9.1-15.37,11.06-1.94.6-4,1-5.92,1.46-.94.23-1.7.72-1.73,1.78,0,1.43,1,1.92,2.16,2.07A17.34,17.34,0,0,0,1364.44,921.68ZM910.18,903.15c-.08-3.9-1.42-7-2.81-10.12-5.17-11.52-14.55-19.52-23.5-27.8-2.23-2.07-5.51-3.11-8.44-4.3-2.12-.86-4.62-1.16-6.35.78s-1.59,4.61-.24,6.94a37.17,37.17,0,0,0,7.33,8.87A131.67,131.67,0,0,1,894,896.93c2.41,3.27,4.14,7,6.53,10.3,3.19,4.37,7,3.81,9.11-1.17A11.63,11.63,0,0,0,910.18,903.15Z" transform="translate(-495.25 -24.74)"/><path class="cls-2" d="M1244.2,88.46c0,1.58-.09,3.17-.16,4.75-.2,4.78-.19,4.53-4.89,4.23a75.75,75.75,0,0,0-16.09,1.19c-10.42,1.57-20.8.51-31.16,1.14a185.49,185.49,0,0,0-21.49,2.13c-10.59,1.9-20,6.95-29,12.64-16,10.11-29.67,22.83-41.76,37.38-4.48,5.39-9.87,10-14.8,15-8.91,9.07-16.23,19.38-22.94,30.12a46,46,0,0,1-4.69,5.76c-2.28,2.62-5.13,4.37-8.35,2.73s-6.21-3.93-6.46-8.11c-.13-2.26,0-4.54-.88-6.71,4.45-9.14,7.37-19,12.34-27.85a117.79,117.79,0,0,0,7.85-16.62,31.88,31.88,0,0,1,3-6.84c6.91-10.28,10.89-21.87,15.27-33.3a12.31,12.31,0,0,0,1.21-3.87c.08-6.31,3.72-10.45,8.13-14.31,5.48-4.8,11-9.5,17.62-12.72,6.35-3.11,11.71-7.71,17.66-11.42,1.12.09,2.41.59,3.32.2,9.2-3.91,18.79-5.84,28.69-7,2.63-.31,7.34-.8,6.54-6a25.48,25.48,0,0,1,18.22-2,2.94,2.94,0,0,0,2.11,3c6.37,2.83,12.26,6.15,16.41,12.22,3.52,5.15,8.83,7.33,15.21,6.21,5.73,6,13.39,8.71,20.79,11.76C1239.28,83.6,1242.6,84.83,1244.2,88.46Z" transform="translate(-495.25 -24.74)"/><path class="cls-2" d="M767.55,114.93c-.45-.06-1-.34-1.33-.15-7,4.51-14.44,1.18-21.67,1.19-3.67,0-7-1.77-10.26-3.33C723.44,107.48,713,101.55,701.82,97c-8-3.31-16.43-5.11-24.84-6.58-6.64-1.17-13.26-2.56-20-3.35a93.81,93.81,0,0,0-24.94,0c-5.22.77-10.84,1.74-15.8-1.77-1-.69-2.2-.15-3.27.28-6.22-2.49-9.29-6.64-9.15-12.52.1-3.86,1.39-7.34,5.18-8.79,8-3,15.77-6.64,24.32-7.87,2.6,3.38,3.69,3.33,5.65-.26a23.53,23.53,0,0,1,10.88,0c.08,1.13.4,2.18,1.67,2.36,1.54.22,2.34-.68,2.59-2.13,3.39-.47,6.69.28,10,.68,3.11.38,6.41,1.29,9.34.66a17.58,17.58,0,0,1,14.6,3.2,25.94,25.94,0,0,0,12.57,4.41c2.19.22,4.51.21,6.48,1.53.6,4.32,4.75,4.29,7.46,5.82,4.91,2.76,5,2.53,8.19-2.55.56-.88,1.71-1.39,2.58-2.07,2.32,1.68,3.33,4.28,4.34,6.74a20.56,20.56,0,0,0,10,10.57c8,4.24,15.84,8.65,23.71,13.08,6.4,3.62,8.38,8.52,6,14.62C769.05,113.78,768.16,114.3,767.55,114.93Z" transform="translate(-495.25 -24.74)"/><path class="cls-2" d="M1532.22,583a1.61,1.61,0,0,0-.64-.21c-8.07.76-10.73-1.4-10.78-10,0-10,2.45-19.58,4.86-29.22,3.72-15,12.95-25.4,25.4-33.74,5.37-3.6,11.25-6.7,15-12.47,2.42-3.74,3.93-7.58,3.75-12-.31-7.7-1.29-15.13-5-22.18-6-11.41-11.83-22.92-16.84-34.82-1.41-3.36-2.1-6.91-3.24-10.32-2.65-7.92-4.57-16.14-8.86-23.43-1.54-2.61-1.53-4.68,1.58-6,3.43,2.34,6.51,5,8.25,8.92-.51,2.64-.78,5.11,3.24,4.45,3.3,3.94,4.59,8.79,6,13.53,3.76,12.25,10.88,22.88,16.39,34.28,1.67,3.45,5.55,5.33,7.28,8.88-.73,1.89-1.16,3.95-.09,5.68,1.44,2.33,3,2.45,3.73-.65a21.3,21.3,0,0,1,8.37,28.17c-3.37,6.41-7.19,12.59-11,18.78a25.24,25.24,0,0,1-11.15,9.72c-19.46,8.93-28,25.53-32.09,45.24-1,4.64-1.6,9.36-2.39,14-2.06.34-2.62,1.47-1.74,3.35Z" transform="translate(-495.25 -24.74)"/><path class="cls-1" d="M1215.13,70.45c-6.38,1.12-11.69-1.06-15.21-6.21-4.15-6.07-10-9.39-16.41-12.22a2.94,2.94,0,0,1-2.11-3c6.37-.46,11.91,2.15,17.16,5.15C1205.45,58.09,1211.45,63.14,1215.13,70.45Z" transform="translate(-495.25 -24.74)"/><path class="cls-1" d="M1163.18,51.05c.8,5.19-3.91,5.68-6.54,6-9.9,1.13-19.49,3.06-28.69,7-.91.39-2.2-.11-3.32-.2,5.13-5.3,11.84-7.53,18.73-8.75C1150,53.89,1156.74,53.27,1163.18,51.05Z" transform="translate(-495.25 -24.74)"/><path class="cls-1" d="M725.35,68c-.87.68-2,1.19-2.58,2.07-3.21,5.08-3.28,5.31-8.19,2.55-2.71-1.53-6.86-1.5-7.46-5.82,1.86-.63,3.5.31,5.19.79,2.63.75,5.17,2.76,6.61-2C719.65,63.17,721.93,64,725.35,68Z" transform="translate(-495.25 -24.74)"/><path class="cls-1" d="M1582.25,463.6c-.74,3.1-2.29,3-3.73.65-1.07-1.73-.64-3.79.09-5.68C1580.73,459.59,1581.69,461.45,1582.25,463.6Z" transform="translate(-495.25 -24.74)"/><path class="cls-1" d="M639,56.12c-2,3.59-3.05,3.64-5.65.26A5.32,5.32,0,0,1,639,56.12Z" transform="translate(-495.25 -24.74)"/><path class="cls-1" d="M654.1,56.34c-.25,1.45-1.05,2.35-2.59,2.13-1.27-.18-1.59-1.23-1.67-2.36A3.34,3.34,0,0,1,654.1,56.34Z" transform="translate(-495.25 -24.74)"/><path class="cls-1" d="M1548.9,401.88c-4,.66-3.75-1.81-3.24-4.45A5.5,5.5,0,0,1,1548.9,401.88Z" transform="translate(-495.25 -24.74)"/><path class="cls-1" d="M1532.29,582.9c-.88-1.88-.32-3,1.74-3.35A2.34,2.34,0,0,1,1532.29,582.9Z" transform="translate(-495.25 -24.74)"/><path class="cls-2" d="M1073.82,295.82a47.82,47.82,0,0,1,.08-7.48c.47-3,3.1-3.92,5.57-2,1.24.94,2.76,2.13,3.13,3.48,2.08,7.5,9.26,8.19,14.64,11,5.57,2.88,11.78,2.88,17.89,1.14,9.78-2.8,19.42-6.37,29.38-8.19q20-3.66,39.67-8.68c9-2.29,17.92-5,25.53-10.72,7.38-5.51,13.69-11.93,16.53-21a24.35,24.35,0,0,1,6-9.74c1.13-1.17,2.93-2.5,4.87-1.21a3.82,3.82,0,0,1,1.2,4.91c-3.75,9-3.86,19.14-9.41,27.48-1.69,2.53-1.26,4.86.61,7.47a43.31,43.31,0,0,0,12,11.85c1,.6,1.84,1.56,2.86,1.72,9.57,1.53,16,8,22.55,14.24,6,5.76,12.06,11.55,18.14,17.26,7.29,6.84,12.06,15.54,12.36,26.33a50.67,50.67,0,0,1-6.53,27.37,24.42,24.42,0,0,0-3.23,13,16,16,0,0,1-16.26,16.43,199.52,199.52,0,0,1-24.27-1.88c-10-1.27-20.1-2.61-30.08-4.47-4.43-.83-9.27,1.39-14.09,1.12-3-.16-5.88-.29-8.64-1.45-15.12-6.36-27.72-15.39-33.21-31.78-.78-2.33-2.47-3.72-3.92-5.42-12.9-15.06-30-23.91-47.53-32-4.51-2.08-8.85-4.51-13.3-6.71-1.6-.79-3.28-2.26-5.08-1.42-4.64,2.18-6.6-.67-8.56-4C1077.86,314.09,1073,305.91,1073.82,295.82Z" transform="translate(-495.25 -24.74)"/><path class="cls-2" d="M816.78,982.3c-6.21-8.62-15.25-14.29-22.86-22.49,4.22-1.78,7.42.07,10.39.68A50.52,50.52,0,0,1,817,965.14c10.3,5.29,20.67,10.43,31.06,15.54A208,208,0,0,0,900.78,998c10.62,2.05,21.29,3.88,32,5.34,8.37,1.14,16.71-.3,24.94-1.85a451.64,451.64,0,0,0,45.42-11c3.56-1.07,7.25-.83,10.82-.46,4.63.48,6.11,3.72,4,7.82a13.34,13.34,0,0,1-6.26,6c-2.46,1.17-4.94,2.33-7.28,3.7-3.36,2-3.49,2.67-.39,5.65,2,1.91.74,2.86-.75,3.49-2.7,1.14-5.5,2.5-8.36,2.77-12.22,1.13-23.85,4.89-35.74,7.49s-24,4.33-36.28,3.9c-7-.25-14.09,0-21.12-.08-13.59-.22-27.08-1-40-5.78-4.42-1.62-9.25-2.1-13.77-3.48-6-1.83-6.89-3.72-4.35-9.28,1-2.24.53-3.38-1.28-4.43a5.91,5.91,0,0,0-2.47-1.1c-8.21-.34-15-4.71-22.1-8a70.54,70.54,0,0,1-10.88-6.7,13.61,13.61,0,0,1-4.42-5.1c-1-2.11-2-4.3-.41-6.41s4.08-1.8,6.27-1.18A70.23,70.23,0,0,1,816.78,982.3Z" transform="translate(-495.25 -24.74)"/><path class="cls-2" d="M602.15,592.18c-2.55-23.41,7.2-43.42,17.86-63,5.44-10,14.42-16.76,24.49-21.77,5-2.5,10.53-2.14,15.83-.22,1.54.56,2.86,1.55,2.95,3.38s-1.08,2.74-2.68,3.47a24.2,24.2,0,0,0-12,12.31c-3.12,6.76-7.35,13-9,20.45-.75,3.37-.67,6,1.76,8.74,3.28,3.71,5.51,8.24,9,11.9,1.83,1.92,3.43,4.62,3.43,7.28,0,12.17,1.85,24.51-2.72,36.33-2,5.06-3.81,10.18-6.13,15.08a17.63,17.63,0,0,0-1.1,12.49c1.53,6.06.73,11.79-4.4,16.07-4.16,3.48-8.72,3.06-12.68-.44-9.81-8.69-16.08-19.55-21.13-31.26a44.62,44.62,0,0,1-3.42-17.17C602.11,601.26,602.15,596.72,602.15,592.18Z" transform="translate(-495.25 -24.74)"/><path class="cls-2" d="M1221.68,962.7c-7.51.57-14.8-1.91-22.32-1.54a8.62,8.62,0,0,1-8.25-5.12c-2.31-4.8-6-5.68-11-5.81a163.57,163.57,0,0,1-40-6.18,28.61,28.61,0,0,1-9.23-4.19c-3.06-2.23-3-4.2.16-6.37,4.29-3,9.44-3.37,14.3-3.37a159.09,159.09,0,0,1,21.56,1.67c11.61,1.58,23.13,3.8,34.93,3.65,11.57-.14,23.14,0,34.71,0,15.62,0,31-2.35,46.32-5,9.31-1.6,18.65-3.16,28-4.26a116.2,116.2,0,0,0,24.94-6.16c4.86-1.7,8.63-1,12.37,2.56,1.78,1.69,2,2.62.4,4.34a47,47,0,0,1-12.35,9.44c-12.38,6.79-25.6,11.36-39.12,15.25-15.43,4.45-31.42,6-47,9.52a2.61,2.61,0,0,1-.68.06C1240.12,960.73,1230.93,962.32,1221.68,962.7Z" transform="translate(-495.25 -24.74)"/><path class="cls-2" d="M852.38,852.24c-5.14.2-9.23-1.51-13.31-3.66-11.41-6-22.66-12.4-34.48-17.44a40.52,40.52,0,0,0-23.83-2.57c-8.45,1.61-16.87,2.71-24.71,6.56-2.73,1.33-6,1.67-7.8-1.61-2.2-3.93-5.72-3.71-8.87-2.58a59.15,59.15,0,0,1-10.44,2.56c-3.6.59-6.45,3.24-9.21,5.55a8.91,8.91,0,0,1-6.14,2.31c-2.82,0-4.91-1.1-6-3.57s.76-3.79,2.19-5.23c2.55-2.59,5.22-5.06,7.67-7.73,5.9-6.41,13.54-9.24,21.86-9.23,10,0,19.59-3,29.48-3.7a36.1,36.1,0,0,1,4.69-.5,81.27,81.27,0,0,0,26.83-3c10.27-2.77,18.64-8.85,25.31-17.26,3.66-4.61,6.77-9.57,10-14.43,1.67-2.49,3.67-6.57,7-5.42,4,1.4,1.73,6,2,9.15a5.54,5.54,0,0,1-.73,2.58c-1.61,3.59-1.85,6.69,1.7,9.56,2.86,2.32,2.27,5.8,1.27,8.85-1.09,3.29-.38,5.83,1.19,8.93,3.67,7.21,9.34,13.46,10.74,21.81.16,1,1.22,1.87,2,2.7,3.38,3.75,4.3,8.34,2.33,12.65S856.48,852.58,852.38,852.24Z" transform="translate(-495.25 -24.74)"/><path class="cls-2" d="M857.52,276.92c-10.66.54-20.28-2.82-29.76-6.54a101.89,101.89,0,0,0-15.59-4.45c-12.62-2.73-24.67-7.23-36.65-12-11.75-4.66-23.15-10.33-35.6-13.09-5.5-1.21-11-2.48-16.53-3.47-9.33-1.67-15.36-7.38-19.23-15.57-2.85-6-.37-10.76,6.07-13.15,4.82-1.8,8.91-5.12,14.26-6,14.92-2.41,28.31,1.22,40.15,10.15,3.76,2.83,6.25,7.52,4.69,12.68-1,3.2.42,4.71,2.66,6.09,1.34.84,2.82,1.46,4.24,2.17,12.34,6.18,24.65,12.42,37,18.53,14.52,7.18,30,11.18,45.9,13.74,2.67.43,5.33.93,8,1.43,2.17.4,3.93,1.57,4.3,3.76s-1.68,3-2.92,4.28a5.66,5.66,0,0,1-4.4,1.4C861.85,276.9,859.58,276.92,857.52,276.92Z" transform="translate(-495.25 -24.74)"/><path class="cls-2" d="M1410.23,604.35c-.27,5.56-1.79,10.52-5.87,14.69-5.57,5.68-8.7,13.1-12.94,19.73-2.54,4-2.11,9.17-2.78,13.82-1.39,9.59-6.8,14.93-16,16.9-6.38,1.36-12.76,2.73-19.19,3.78a16.62,16.62,0,0,0-10,5.16,9.88,9.88,0,0,1-7.2,3.35c-3.55.08-5-1.36-5-4.85a11.17,11.17,0,0,1,1.61-5.13A132.43,132.43,0,0,1,1351,644.92c8.18-9.61,16.58-19,22.81-30.2,3.93-7,4.82-15,7.93-22.19,1.33-3.06,1.54-6.42,3.4-9.46,2.59-4.22,6.24-6.22,10.64-6a10.29,10.29,0,0,1,9.43,7.75c1.44,5.46,3.12,10.8,5,16.12A11.2,11.2,0,0,1,1410.23,604.35Z" transform="translate(-495.25 -24.74)"/><path class="cls-2" d="M1399.27,238.38c.79,5.07.12,9.75-5.18,12.6a15.29,15.29,0,0,1-11.25,1A59.32,59.32,0,0,1,1354,235a12.89,12.89,0,0,1-3.48-7.92,55.69,55.69,0,0,0-5.44-19.46c-4.48-9.24,3.23-24.17,11.48-26.54,7.5-2.15,14.55-1.31,19.74,5.91,4.26,5.93,5.74,13.24,10.2,19.09,3.83,5,6.74,10.7,9.56,16.38C1398.55,227.45,1400.05,232.57,1399.27,238.38Z" transform="translate(-495.25 -24.74)"/><path class="cls-2" d="M1103.51,569.37a46.91,46.91,0,0,1,.64-6.75c2.14-8.91.45-17-4.55-24.61a42.4,42.4,0,0,1-6.06-12.87c-2.49-9.86-.78-13.57,11.64-15.06,4.69-.56,8.84,1.81,13.07,3.3,7.57,2.65,14,7.5,20.25,12.29,4,3.06,5.9,7.94,7.12,12.85.54,2.19-.74,4-1.95,5.6a27.21,27.21,0,0,1-4.22,4.43c-3.14,2.65-4.82,5.67-4.5,10,.43,5.89-4.19,10.33-5.32,15.88a5,5,0,0,1-4,3.41c-3.28.35-6.12,1.13-8.5,3.59a3.69,3.69,0,0,1-4.49.35c-2.5-1.45-4.48-3.74-7.64-4.13-1.24-.15-1.29-1.7-1.31-2.84,0-1.82,0-3.63,0-5.45Z" transform="translate(-495.25 -24.74)"/><path class="cls-2" d="M1129.66,815.77c-.59,4-1.21,8.2-1.85,12.43a3.28,3.28,0,0,1-.23.64c-1.56,4.16-5.37,7.35-8.28,6.92-3.3-.48-7.44-5.42-7.38-9.45.09-6.57-1.92-12.93-1.53-19.56.47-8.08-5.81-11.55-11.78-14a111.3,111.3,0,0,1-21.49-11.32c-4.28-2.93-6.55-2.11-9,2.49-1.32,2.47-2.93,4.94-5.74,5.35-6.46.92-9.83,5.05-12.2,10.52-1.64,3.79-3.91,6.64-8.67,6.07-3.49-.41-5.13-1.81-4.45-5.33,1.34-6.82,2.65-13.54,8.15-18.9,6.93-6.74,14.63-11.5,23.42-15.64,10-4.7,17.65-3.89,26.25,2.43,5.24,3.85,10.87,7.26,16.06,11.25a7.62,7.62,0,0,0,2.21,1.54c10.37,2.75,12.47,11.62,14.62,20.19C1128.91,806,1129,810.8,1129.66,815.77Z" transform="translate(-495.25 -24.74)"/><path class="cls-2" d="M887,440.53c.68,0,1.37-.06,2,0,4.47.44,5.56,2.43,3.28,6.21-1.29,2.13-2.52,4.35-4.55,5.89-4,3-5,6.9-5.06,11.85-.19,10.7-3.83,20.26-11.56,28.06-2.52,2.54-5,4.15-8.87,4-4.86-.17-4.87.15-5.3,4.68-.5,5.22-2.79,8.17-6.72,8.8-4.91.8-8.89-2.4-9.94-7.15-.34-1.54-1-3.08-1-4.6.21-6-.12-11.7-3.43-17-1.81-2.91-.26-5.83,1.65-8.14a32.05,32.05,0,0,1,8-7.26,82.71,82.71,0,0,0,16.83-13.62C868.87,445.56,880,440.5,887,440.53Z" transform="translate(-495.25 -24.74)"/><path class="cls-2" d="M1364.44,921.68a17.34,17.34,0,0,1-2,0c-1.2-.15-2.2-.64-2.16-2.07,0-1.06.79-1.55,1.73-1.78,2-.48,4-.86,5.92-1.46,6.34-2,12.45-4.12,15.37-11.06.82-2,2.76-3.58,4.4-5.11,18.5-17.17,33.94-37,48.7-57.3,6.63-9.11,11.66-19.37,17.69-28.94a102.11,102.11,0,0,1,16.4-19.82c.82-.78,1.63-1.58,2.5-2.31a2.5,2.5,0,0,1,3.13-.36,2.2,2.2,0,0,1,.47,3,92.88,92.88,0,0,1-5.78,10c-9.9,13.58-17,28.84-26.15,42.87-5.65,8.69-12.34,16.7-18.4,25.12a148.11,148.11,0,0,1-25.63,28c-8.12,6.69-15.89,14.15-25.73,18.55C1371.55,920.51,1368.18,921.86,1364.44,921.68Z" transform="translate(-495.25 -24.74)"/><path class="cls-2" d="M910.18,903.15a11.63,11.63,0,0,1-.54,2.91c-2.15,5-5.92,5.54-9.11,1.17-2.39-3.27-4.12-7-6.53-10.3a131.67,131.67,0,0,0-17.83-19.41,37.17,37.17,0,0,1-7.33-8.87c-1.35-2.33-1.62-4.85.24-6.94s4.23-1.64,6.35-.78c2.93,1.19,6.21,2.23,8.44,4.3,9,8.28,18.33,16.28,23.5,27.8C908.76,896.12,910.1,899.25,910.18,903.15Z" transform="translate(-495.25 -24.74)"/><g class="cls-3"><path class="cls-4" d="M1286.48,948.67c-8.28-.13-16.53-.5-24.78,1.22-5.93,1.23-12.12.69-18.12-.08-11.34-1.45-22.64-3.17-33.93-4.95-6.21-1-12.4-2.27-18-5.19a31.11,31.11,0,0,0-16.21-3.26c-15.15.66-29.94-2-44.57-5.58-3.48-.84-6.47-.93-9.64.88-5.6,3.2-12,3.63-18.2,4.31a22.56,22.56,0,0,0-11.67,4.61c-12,9.18-25.14,16.46-38.3,23.68-10.25,5.62-20.3,11.42-29.65,18.47a270.86,270.86,0,0,1-40.67,24.93c-6.8,3.46-13.59,6.91-19.88,11.28-7.86,5.46-16.69,7.46-26.17,6.8-2.69-.19-5.32-.36-7.89.91-14.91,7.39-30,6.66-44.9.24-17.06-7.37-33.43-16.63-43.84-32.29-7.75-11.67-17.67-19.93-28.85-27.49-6.87-4.65-13.46-9.71-18.46-16.5-1.63-2.21-3.47-4-6.57-4.07-13.59-.39-26.54-4.25-39.52-7.72a89.67,89.67,0,0,0-27.26-3.15,100.73,100.73,0,0,1-21.44-1.34,30.94,30.94,0,0,0-8-.3c-22.94,2.17-40.74-7.52-54.25-25-9.32-12.05-18.9-23.92-27.86-36.26-11.49-15.8-21-32.89-32.07-49-10.13-14.69-18.14-30.41-25.1-46.74-5.65-13.23-6.47-26.49.54-39.56a10.86,10.86,0,0,0,.74-9,231.73,231.73,0,0,1-8-32.65,19.37,19.37,0,0,0-2.72-6.81c-8.11-13.76-12.06-28.79-14.22-44.51a124.93,124.93,0,0,1-.4-30.12c.47-4.58-.37-9.39-1.16-14-1.6-9.3-1.3-18.74-2.43-28.09-1.45-12-1.93-24.11-2.65-36.18A141.69,141.69,0,0,1,521,510c1.23-9.78.34-19.72,1.72-29.53,1.52-10.87,2.2-21.86,4.58-32.6,2.52-11.34,8.09-20.94,17.12-28.21a13.51,13.51,0,0,0,5.2-9c1.72-11.57,6.74-21.33,15.75-28.85,2.55-2.14,3.21-4.69,3-7.75-.83-12.28-1.07-24.63-3.44-36.77a139.14,139.14,0,0,1-2.79-29.38c.33-17.69-1-35.44,2.57-53a11.72,11.72,0,0,0-.36-4.65c-3.52-15.84-4.52-31.95-5.17-48.08A81.28,81.28,0,0,0,556,181.69c-3.79-12.57-6-25.26-2.07-38.33A70.38,70.38,0,0,1,568.4,117c7.7-8.78,15.5-17.49,26.61-22.21a16.93,16.93,0,0,1,3.07-1.36c11.54-2.25,21.9-7.74,32.75-11.89a38.7,38.7,0,0,1,13.09-2.81c6.07-.11,11.24-2.56,16.68-4.62,13.25-5,26.65-9.45,41.15-8.55,17,1.05,30,8.94,38,23.94a72.57,72.57,0,0,0,13.94,18.59c5.66,5.48,11.25,9.69,19.19,11a36.92,36.92,0,0,1,11.86,4.62c8.75,4.94,18.26,7.1,28,8.88,2.73.5,5.21.73,7.88-.26,12.7-4.69,25.18-3.28,37.29,2,10.89,4.8,21.56,10.08,30.66,18a20.79,20.79,0,0,0,6.42,3.57,180.15,180.15,0,0,1,38,20c6.32,4.35,11.91,9.54,15.67,16.37a9.35,9.35,0,0,0,5.56,4.45,180.85,180.85,0,0,0,31.73,8.52,25,25,0,0,0,12.59-.83,141.51,141.51,0,0,1,16-4.93,26.36,26.36,0,0,0,9.06-4.32c4.81-3.27,9.59-6.68,15-8.95a8.59,8.59,0,0,0,5.55-7,41.2,41.2,0,0,1,10.47-21.46c1.61-1.71,2.13-3.9,2.58-6.12,1.74-8.53,5.19-16.25,11.13-22.66a12.7,12.7,0,0,0,3.1-7.26c2.18-15,9.61-26.33,23.25-33.32a19.2,19.2,0,0,0,5.51-4.87A230.26,230.26,0,0,1,1117.74,66,42.25,42.25,0,0,1,1142.49,55a59.7,59.7,0,0,0,15-3.52c23-8.6,45,3.48,54.25,20.6,4.06,7.5,8.38,12.08,17.1,13.59,7.63,1.32,15.09,4.27,22.27,7.5,6.22,2.8,13,3.3,19.57,4.63,12.08,2.45,24,5.49,35.95,8.5,12.15,3.06,24.39,5.81,36.41,9.4,15,4.48,28.86,11,40.65,21.51a19.12,19.12,0,0,0,5.7,3.48c29.28,11.73,47.77,34,60,62.13a35.69,35.69,0,0,0,6.68,10.7,149.28,149.28,0,0,1,19.79,26.28c4,6.68,6.66,13.74,6.79,21.57a26,26,0,0,0,3.31,11.51c10.68,20.81,18.11,43,26.7,64.65,2.87,7.23,3.08,14.94,2,22.57a15.43,15.43,0,0,0,2.56,10.76c4.19,6.81,10.11,12,15.75,17.41,6.61,6.39,11.31,13.87,13.34,22.91a4.61,4.61,0,0,1,.31,1.31c-1,9.2,4.38,15.74,8.61,23.09a69,69,0,0,0,12.17,15.61c21.76,21,13.54,57.27-15.11,67.32-5.3,1.86-10.46,3.74-15.23,6.88-8,5.3-12.32,12.87-14.24,21.94-1.2,5.69-1.53,11.57-2.81,17.24-1.7,7.56.42,14.68,1.64,21.94a107.88,107.88,0,0,1-1.11,40.75c-2.3,10.76-5.29,21.33-8.49,31.85-5.57,18.28-7.8,37.28-11.86,55.89-4.89,22.45-12.2,44-20.67,65.31-3.92,9.87-5.58,20.3-7.92,30.55-3,13.36-7.63,25.78-18.14,35.29-5.76,5.22-12.06,9.44-19.74,11-3.91.78-6.27,2.94-8.27,6.14a123.78,123.78,0,0,1-19.22,23.3c-8.43,8.19-18.41,12.67-30.21,12.69-7,0-13.08,1.34-17.68,7.45-3.39,4.51-8.44,7.35-13.54,9.74a12.17,12.17,0,0,0-6.25,6.64c-7.21,16.54-20.45,24.29-37.91,25.58C1295.92,949,1291.19,948.67,1286.48,948.67Z" transform="translate(-495.25 -24.74)"/></g><path d="M497.07,576.78c-.63-20.21-1.52-40.41-1.79-60.62a314.12,314.12,0,0,1,1.29-33.33A124.3,124.3,0,0,1,517,424.93q7.34-11.07,15.15-21.83A54.84,54.84,0,0,0,543,372.72c.53-12.47,1.18-25,.86-37.44-.73-29.07-1.68-58.14-3.19-87.17-1.22-23.36-3.46-46.66-5.13-70-.56-7.7-1-15.42-1.09-23.13-.16-24.37,8.85-44.64,27.38-60.63a177,177,0,0,1,36.94-24.23,294.1,294.1,0,0,1,83.29-27,99.94,99.94,0,0,1,29.86-.7c12.62,1.69,22.71,7.41,30.21,17.75,4,5.51,8,11.05,12.32,16.29,7.37,8.93,16.48,15,27.54,19.18,42.55,16,85.72,30,129,43.94,9.07,2.92,18,6.41,26.85,9.83s15.87,9.36,21.27,17.38a130,130,0,0,0,12.68,16c8.56,9.19,19.06,12.72,31.53,9.42,8.12-2.15,16.31-4,24.44-6.13,6-1.56,9.49-5.41,11.34-11.46,10.33-33.63,25.79-64.94,43.75-95.07A163.43,163.43,0,0,1,1106.64,49c8.4-8.59,18.5-13.84,30.5-15.09a152.25,152.25,0,0,0,25.28-5c8.88-2.47,18.32-3.1,27.56-4.06,5.53-.58,10.2,2,13.84,6.12a58.91,58.91,0,0,1,6.57,8.68c7.83,13,20.2,20.16,33.8,25,10,3.55,20.61,5.5,31,7.84,14.18,3.18,28.46,5.91,42.64,9.11a313,313,0,0,1,108.64,47.34c14.59,10,27,22,38.2,35.62,22.59,27.47,38.77,58.57,53.58,90.64,11,23.85,20.07,48.15,23.94,74.28,3.37,22.81,11.83,43.74,24.51,63,8.24,12.52,16.36,25.13,24.15,37.94,5.07,8.33,9.68,17,14.1,25.66a84.49,84.49,0,0,1,8.49,27.21c2,14.95-2.1,28-13.13,38.39-4.76,4.48-10.3,8.17-15.65,12-4.44,3.16-9.16,5.91-13.69,8.93-7.21,4.81-11.61,11.55-12.63,20.13-1.09,9.24-1.84,18.53-2.44,27.81-.63,9.75-.63,19.54-1.39,29.27a193.21,193.21,0,0,1-11.38,52.45,456.41,456.41,0,0,0-18.61,65.49c-1.91,9.1-4.46,18.08-7,27A117.11,117.11,0,0,1,1499.66,802c-6.94,9.56-11.71,19.82-13,31.74a46.45,46.45,0,0,1-12.83,27.32,169.54,169.54,0,0,0-24.94,34.76,60.28,60.28,0,0,1-33.12,28c-8.52,3.07-17.37,5.25-26.1,7.7-8.08,2.27-16.25,4.23-24.31,6.57a21.42,21.42,0,0,0-12.72,9.72c-8.64,14.39-21.85,21.82-37.66,25.88a190.56,190.56,0,0,1-79.07,3.22c-19.49-3.18-39-6.6-58.24-10.88-23.66-5.26-46.31-3.9-68.55,6.18a429.49,429.49,0,0,0-49.23,26.32c-23.93,14.85-48,29.42-73.19,42.13-27.42,13.86-56.25,20.1-87,17.17-25.69-2.44-45.55-13.54-60.89-35-17.82-25-42.06-42-72.94-47.41-12.25-2.15-24.79-3-37.24-3.58-17.46-.88-35-.44-52.27-3.72a188.68,188.68,0,0,1-23.08-5.81c-17.36-5.65-31-16.35-39.34-32.68-14.32-27.95-31.33-54.27-47.86-80.9a202.62,202.62,0,0,1-26.77-69.57c-1.32-6.91-2.73-13.81-3.95-20.75a130.49,130.49,0,0,0-16.25-43.85c-2.64-4.51-5.13-9.1-7.65-13.68a85.63,85.63,0,0,1-10.86-37.65q-2-43.22-3.95-86.44Zm30.65-1.94h-.3c.92,23.83,2.35,47.66,2.6,71.5a100,100,0,0,0,16.05,54c9.83,15.47,15.76,32.68,19.06,50.75,1.31,7.14,2.76,14.27,4.08,21.42a183.25,183.25,0,0,0,25.39,64.24c13.36,21.36,27.65,42.17,38.92,64.81,2.33,4.67,5,9.19,7.48,13.77a36,36,0,0,0,20.31,17.23c6.21,2.13,12.58,4.19,19,5.07,11,1.49,22.11,2.46,33.2,2.88,18.16.68,36.32.94,54.31,4,41.24,6.9,72.93,29,97.2,62.16,8.37,11.44,18.83,18.16,32.55,20,19.92,2.74,39.52,1.19,58.3-6.2a220,220,0,0,0,27.74-13c21.54-12.18,42.77-24.9,64.05-37.53a467.35,467.35,0,0,1,51.92-27c27.3-11.91,55.21-13.18,84-7,19.52,4.21,39.22,7.65,58.93,10.88a157.86,157.86,0,0,0,63.56-2.55c9.53-2.32,17-6.78,22.25-15.34,5.65-9.22,14.12-15.43,24.29-18.88,8.58-2.91,17.4-5.14,26.15-7.55,7.22-2,14.54-3.61,21.72-5.72a37.66,37.66,0,0,0,23.6-19.28,147.09,147.09,0,0,1,25-34.73c3.89-4,6.69-8.74,7.27-14.36,1.72-16.81,8.81-31.29,18.57-44.76a87.26,87.26,0,0,0,13.1-27.57c2-7.21,4.24-14.41,5.74-21.74a513.65,513.65,0,0,1,21.09-74.68,162,162,0,0,0,9.23-45.26c.57-8.38.46-16.81,1.07-25.19.8-11.09,1.47-22.23,3.14-33.2,2.39-15.77,10.46-28.4,23.55-37.64,4.45-3.14,9.09-6,13.63-9,3.22-2.13,6.45-4.24,9.62-6.45,7-4.88,9.35-11.6,6.95-19.67a92.77,92.77,0,0,0-6.2-16.53c-4.92-9.46-10.35-18.67-15.92-27.76-7.72-12.58-15.78-24.95-23.66-37.44-11.67-18.49-19-38.63-23.14-60-1.16-6-2.42-12-3.47-18.07A158.53,158.53,0,0,0,1497,283.24c-7.9-16.86-15.61-33.83-23.88-50.51a246.24,246.24,0,0,0-42.76-60.42c-21.9-23-48.55-39.37-78.31-50.64-20.1-7.61-41-11.63-62.11-15.06-20-3.23-39.78-7.17-59-13.64-14.66-4.93-26.72-13.14-35.24-26.43-6.08-9.46-13.21-12.13-24.1-8.17a100.9,100.9,0,0,1-27.9,5.51,23.38,23.38,0,0,0-17.16,8.61c-5.33,6.48-11.09,12.74-15.52,19.8-18,28.78-32.94,59.14-42.81,91.7-4.76,15.7-14.16,26.19-29.85,30.73-9.58,2.78-19.31,5.1-29,7.42-22.74,5.45-42.3-.73-58.57-17.1-5.73-5.76-10.66-12.37-15.51-18.92-3.37-4.56-7.29-8.05-12.6-10-6.84-2.46-13.62-5.08-20.54-7.29-44.34-14.17-88.56-28.68-132.16-45.06-12.41-4.67-23.5-10.94-32.35-20.7-6.39-7.05-12.38-14.5-18.05-22.14-4.15-5.59-9.21-8.66-16.1-8.5-5.43.12-10.94,0-16.28.89A259.22,259.22,0,0,0,613.48,97a154.94,154.94,0,0,0-30.89,19.82C570.39,127,564.71,140,564.9,155.69c.06,5,.3,10,.73,15,2.9,33.71,5.93,67.42,6.69,101.29.63,28.15,2.06,56.29,2.55,84.44.29,16.91-1.61,33.7-9.84,48.92-5,9.35-10.24,18.77-16.53,27.29-15.45,20.92-22.73,44.23-22.69,70,0,6.81,0,13.63.17,20.44C526.49,540.33,527.13,557.59,527.72,574.84Z" transform="translate(-495.25 -24.74)"/><path d="M862.51,848a80.9,80.9,0,0,0-9.17-23.14,69.12,69.12,0,0,1-9-29.73,50.43,50.43,0,0,1-.08-8.15c.24-2.68,1-5.32,1.69-8.94,1.57,1.66,2.79,2.55,3.47,3.75a46.51,46.51,0,0,1,4.19,8.53c4.49,14.12,10.8,27.41,17.25,40.71,6.33,13.06,16.1,22.91,27,31.87a134,134,0,0,0,11.22,7.7c4.15,2.76,7.19,6.47,8.2,11.31a141.7,141.7,0,0,1,2.78,18.76c.19,2.75-1,5.77-2.23,8.39a6.53,6.53,0,0,1-6.74,3.74,6.72,6.72,0,0,1-6.15-4.65,26.5,26.5,0,0,1-1.3-6.63c-.29-3.16-.29-6.35-.41-9.52-.18-4.65-2.46-7.83-6.14-10.75-11.86-9.41-25.94-14.83-38.95-22.15S831.8,845,818.38,838.35a177.45,177.45,0,0,0-20.78-8.42,19.09,19.09,0,0,0-19.27,3.37c-7,5.86-15.16,7.86-24,7.89-10.67,0-21.33.17-32,.26a20.55,20.55,0,0,1-2.72-.05c-2.46-.28-5.35-.26-6.2-3.17a5.93,5.93,0,0,1,3-7c3.13-1.65,6.67-3.21,10.12-3.41,6.76-.4,13.58.07,20.37.37,4.52.21,9,.79,13.56,1.14a24.12,24.12,0,0,0,14.94-3.55,26.81,26.81,0,0,1,22.94-2.89c9.92,3.21,19.79,6.64,29.45,10.53,10.31,4.15,20.35,9,30.53,13.46A36.52,36.52,0,0,0,862.51,848Z" transform="translate(-495.25 -24.74)"/><path d="M869,273.18a126.89,126.89,0,0,1-12.24-3.68c-9.48-3.8-18.83-7.65-29.13-9.06-4.22-.58-8.57-3.15-12-5.88-5.42-4.32-11.35-7.34-17.59-10.15a187.16,187.16,0,0,1-21.8-11,70.5,70.5,0,0,1-23.8-24.82c-3.48-5.9-3.57-5.83-10.25-3.4-4.48,1.63-9,3.19-13.54,4.55-4.84,1.45-9.19,3.29-12.84,7.16-4.32,4.59-10.08,2.8-12.08-3.22A12,12,0,0,1,708,200.28a38.41,38.41,0,0,1,9.67-4.78c7.69-2.74,15.5-5.11,23.25-7.67,11.37-3.77,17.56-1.71,23.46,8.49a72.49,72.49,0,0,0,33,30.39c9.37,4.31,17.89,9.57,25.08,17.16a19.5,19.5,0,0,0,10,5.12c8.35,1.59,16.06,4.65,23.8,8,6.21,2.66,12.79,4.43,19.14,6.79,1.75.65,4.29,1.72,4.63,3.06.7,2.81-1.73,4.5-4.22,5.28A51.83,51.83,0,0,1,869,273.18Z" transform="translate(-495.25 -24.74)"/><path d="M655.88,603.11c-1.26,10.93.32,21.84,3,32.73,3.67,14.57-2.16,21.48-16.19,29-5.1,2.74-11-.14-12.87-5.28-2-5.46.89-10.38,7.25-12.26,5.59-1.67,6.19-2.13,4.17-7.5-5-13.26-4.79-26.76-2.21-40.28a57.72,57.72,0,0,0-1.9-28.85,120.74,120.74,0,0,1-4-15.84c-3-17.46,2.34-32.25,15-44.44a32.84,32.84,0,0,1,17.44-8.65,20.6,20.6,0,0,1,6.07-.19,6.79,6.79,0,0,1,6.18,5.51,6.49,6.49,0,0,1-3.48,7.46,79.67,79.67,0,0,1-8,3.66c-17,7.19-23.57,20.81-18.48,38.53.56,2,1.26,3.89,1.77,5.86,1.73,6.82,3.88,13.58,4.95,20.5C655.67,589.59,655.51,596.24,655.88,603.11Z" transform="translate(-495.25 -24.74)"/><path d="M1316.88,718.16c.57-2.55.7-4.65,1.49-6.46,4.81-11,9.62-22,14.71-32.88,6.53-14,18.9-18.89,33.08-20.5,14.92-1.69,15-1.54,18.78-15.6a72.67,72.67,0,0,1,13.79-27.12c1-1.23,2-2.45,3-3.7,6.92-8.77,6.27-16.86-2-24.55-1.16-1.09-2.78-1.84-3.55-3.12s-1.78-3.73-1.18-4.8a6.79,6.79,0,0,1,4.71-2.91c1.86-.17,4,.75,5.74,1.71,12.46,6.81,17.64,25,9.42,36.57-8.4,11.89-12.75,24.84-14.89,39-1.84,12.11-10.53,19.45-24.62,21.8-4.91.83-9.8,1.79-14.72,2.6a14.45,14.45,0,0,0-11,8.23c-2,3.83-3.74,7.8-6,11.45a148,148,0,0,1-10.7,15.69C1329.14,718.22,1323.89,720.12,1316.88,718.16Z" transform="translate(-495.25 -24.74)"/><path d="M1256.16,405.83c-4.32,1-8.6,2.3-13,3.05-6.49,1.12-13,1.85-19.55,2.81-15.28,2.24-29.88.56-43.42-7.43a32.83,32.83,0,0,1-15.17-18.56c-1.41-4.31-2.71-8.67-4-13-2.12-7.31-6.24-13.33-12.87-16.93a159.39,159.39,0,0,0-22.8-10.43c-7.24-2.53-15-3.6-22.49-5.44a129.82,129.82,0,0,1-13.76-3.85c-12.35-4.55-18.35-14.77-16.72-27.82.43-3.38.75-6.78,1.14-10.16.65-5.7.58-11.3-1.48-16.8-.46-1.24.24-2.9.4-4.37,1.65.28,3.83,0,4.83,1a14.25,14.25,0,0,1,3.92,6.21,100.22,100.22,0,0,1,2.55,14c.55,4.5.54,9.07,1,13.58a12.45,12.45,0,0,0,8.63,11.22c4.69,1.7,9.46,3.17,14.23,4.64,13.26,4.07,26.36,8.47,38.56,15.27s21.23,16.18,25.38,29.79c.2.65.55,1.26.72,1.91,3.31,13.38,12.79,20.27,25.49,22.44,9.77,1.68,19.83,1.75,29.78,2.27,5.66.3,11.35-.06,17,.15,4.35.17,8.42,1.42,11.58,4.55C1256.18,404.52,1256.17,405.17,1256.16,405.83Z" transform="translate(-495.25 -24.74)"/><path d="M1127.8,572.08a15.47,15.47,0,0,0,.6-3.12c-1.11-9.78,1.75-17.86,9.79-23.93a15.57,15.57,0,0,0,3.86-4.69c.59-1.05,1-3,.44-3.78-3.88-5.61-6-12.75-14-14.75-8.78-2.2-17.31-5.51-26.57-5.11-2.16.1-4.21-.1-5-2.51a4.35,4.35,0,0,1,2.62-5.62c2.88-1.12,6.21-2.36,9.1-1.93,9.83,1.47,19.61,3.44,29.31,5.66,5,1.14,8.9,4.26,11.87,8.59,1.52,2.21,3.63,4,5.44,6.05,4.67,5.22,5.75,10.87,2.09,16.85a43.37,43.37,0,0,1-9.65,11.23c-4.8,3.83-6.69,7.92-5.88,14.06,1.38,10.48-3.88,15.89-14.34,15.6-4.48-.13-9-.16-13.45-.35-3.25-.14-4.73-2.45-5.47-5.21-.81-3,.19-5.78,3-6.81a26.57,26.57,0,0,1,8.57-1.11A55.31,55.31,0,0,1,1127.8,572.08Z" transform="translate(-495.25 -24.74)"/><path d="M1289.19,409.23c-2-2.31-3.29-3.88-4.7-5.29-3.31-3.29-3.8-7.17-2.24-11.3,1.44-3.82,3.29-7.48,4.88-11.24,6.47-15.39,7.2-30.74,0-46.19a54.38,54.38,0,0,0-15.17-19,164.55,164.55,0,0,0-14.47-10.15c-3.61-2.35-7.38-4.48-11.18-6.52-12-6.4-17.37-16.43-15.86-29.77.76-6.7,2.63-13.29,4.31-19.85a19.6,19.6,0,0,1,3.17-6c1.25-1.79,2.84-4.37,5.31-2.57.92.66.82,3.84.14,5.4a57.57,57.57,0,0,0-5.33,25.08c.21,8.24,3.38,14.36,10.5,18.56,9.57,5.66,19.14,11.27,27.09,19.3a134.85,134.85,0,0,1,19.48,24.36c9.13,14.89,9.3,30.52,5.25,46.66-2,7.89-4.57,15.64-7.18,23.36C1292.57,405.91,1290.74,407.3,1289.19,409.23Z" transform="translate(-495.25 -24.74)"/><path d="M1130.23,832.13c0-2.14,0-4.28,0-6.42.09-5.44.38-10.88.26-16.32a26.8,26.8,0,0,0-1.36-8c-1.29-3.73-4.16-5.18-7.49-3.16-7.87,4.76-14.07,1.87-20.57-2.89a109.9,109.9,0,0,0-16.18-9.77c-4.63-2.29-9.31-1.83-12.63,3a5.33,5.33,0,0,1-1.44,1.44c-7.55,4.77-15.69,8.81-20.29,17.12-.34.6-1.59.69-2.51,1-.5-.61-1.3-1.14-1.26-1.59.73-7.91,2.77-15,10.3-19.52a53,53,0,0,0,10-7.94c4.08-4.05,8.67-5.6,14.22-4.57,6.55,1.2,12.73,3.3,18.08,7.44,2.51,1.94,5.1,3.79,7.53,5.83,3.19,2.68,6.34,3.4,10.63,2.14,10.89-3.2,18.11,1.63,20.1,12.89,1.4,7.92,1.48,15.85-1.19,23.54-.81,2.34-2.48,4.39-3.75,6.57Z" transform="translate(-495.25 -24.74)"/><path d="M854.26,507.06c2.74-2.81,4.08-6.29,3.16-10.21-.86-3.62-1-6.86,2.42-9.07s6.47-.83,9.19,1.71a7.12,7.12,0,0,0,1.73.9c10.39-4.72,15.4-14,13.5-24.72a59.31,59.31,0,0,1-1.3-9.41c-.09-6.47,2.66-9.86,10.31-12.73-.76,1.91-.94,3.46-1.81,4.36-3.25,3.37-3.52,7.18-2.27,11.37.26.87.44,1.77.66,2.65,3.67,15.12-.57,26.72-13.63,35.3-5.21,3.43-10.08,6.48-12,13.07-.7,2.46-3.58,4.69-6,6.16-4.94,3-10,1.59-12.7-3.53a39.27,39.27,0,0,1-2.89-9c-1.61-6.59-2.89-13.26-4.59-19.82-1.43-5.5-1-8.68,2-9.5,2.75-.77,5.34,1,6.86,6.11,1.87,6.26,3,12.74,4.4,19.14.5,2.34.76,4.73,1.13,7.1Z" transform="translate(-495.25 -24.74)"/><path d="M1401.24,246.5c-1.62,1.18-2.4,2.17-3.35,2.37-13.79,2.83-27,2-38.92-6.52a14.24,14.24,0,0,1-6.42-10.72,86.81,86.81,0,0,0-7-28.15c-3.08-7,.53-13.37,5.22-18.56a24.3,24.3,0,0,1,8.47-5.45c4.87-2.08,7.39-.48,9.57,5.78-2.35,1.39-4.86,2.82-7.31,4.34-5.3,3.29-7.41,7.83-6.31,13.74,1.61,8.66,3.43,17.29,4.89,26a10.71,10.71,0,0,0,6.16,8.35c6.73,3.36,13.55,6.09,21.4,5.45C1392,242.76,1396.64,242.51,1401.24,246.5Z" transform="translate(-495.25 -24.74)"/></svg>