<svg xmlns="http://www.w3.org/2000/svg" viewBox="0 0 1896.92 1019.69"><defs><style>.cls-1{fill:#8621fe;}.cls-2{fill:#6714c2;}.cls-3{fill:#4f0b9f;}.cls-4{fill:#6814c5;}.cls-5{fill:#510ea1;}</style></defs><g id="Radar03"><path class="cls-1" d="M1731.81,731.85c-4.36,4.66-10.27,6.45-16.14,6.33-5-.1-8.26,2.09-11.57,4.82a31.27,31.27,0,0,0-5.9,7.08c-6.72,10.07-16.3,16-28.34,15.65-16.5-.49-32.61,1.63-48.81,4a136.62,136.62,0,0,1-35.4.67c-5-.57-9.79-1.38-12.27-6.65-.87-1.87-2.87-1.95-4.71-2.19-8.11-1.07-16.23-2.15-24.33-3.32a50.12,50.12,0,0,1-17.59-5.56,5.55,5.55,0,0,0-5.63-.3c-4,1.91-8.31,2.56-12.69,3-3.46.31-6.86.8-9.77,3-12.83,9.65-27,17.17-41,24.82a160.68,160.68,0,0,0-16.83,11.08c-1.18.85-2.54,1.69-3,3.08-1.52,4.66-5.11,6.83-9.43,8.28A14.24,14.24,0,0,0,1426,807c.78,2.78,3.65,2.24,5.29,3.92a46.69,46.69,0,0,1-18.82,7c-2.7.39-5.37,1-8.08,1.32a34.92,34.92,0,0,0-15.19,5.6c-5.83,3.9-12.49,4.82-19.35,4.38a15.27,15.27,0,0,0-7.93,1.31c-9.48,4.56-19.31,4.67-29.28,1.85a53.57,53.57,0,0,1-13.13-5.31,53.9,53.9,0,0,0-18.82-6.86c-3-.52-6.65-.31-8.71-3.51,12.48,2.94,24.81,6.91,37.7,7.39,13.26.49,26.55.12,39.83.11a12.28,12.28,0,0,0,2.17-.22c9.59-1.73,19.31-2.82,28.79-5.21,6.66-1.68,13.61-2,20.18-4.17,2.32-.77,4.8-1.33,6.41-3.62-.7-.52-1.12-.86-1.55-1.17-3-2.13-3-2.55,0-4.26.94-.54,2-1,2.92-1.46,2.28-1.12,4.64-2.08,6.32-4.14a6.28,6.28,0,0,0,.82-6.64c-.8-2-2.63-2.9-4.86-2.77a27.06,27.06,0,0,0-4.87.33c-6.86,1.67-13.67,3.52-20.51,5.26-8.23,2.08-16.49,4.18-24.93,5.11-3.58.4-7.29,1.37-10.76.92-6.61-.85-13.24-1.65-19.84-2.75-20.52-3.4-40.32-8.79-58.82-18.48q-10.59-5.53-21.42-10.61c-4.42-2.08-9-4-14.06-3.76-1.59.07-2.9.29-3.21,2.14-4.81-4.09-4.8-4.12-12.39-4.87-9.3-.91-18.21-3.6-27.18-5.95a71.32,71.32,0,0,0-21.6-2.46,86.56,86.56,0,0,1-18-1.08,24.55,24.55,0,0,0-6.51-.31c-18.71,2.12-33.41-5.8-44.36-19.68-12.68-16.07-25.78-31.9-36.53-49.44-6.44-10.51-13.47-20.67-20-31.12a173.27,173.27,0,0,1-15.22-31.25c-3.73-10-3.44-19.89,1.49-29.46a9.69,9.69,0,0,0,.47-7.83,188.13,188.13,0,0,1-6.48-26.36c-.41-2.6-1.79-4.73-3-7a101.09,101.09,0,0,1-11.29-59.36c.43-4-.61-7.93-1.09-11.84-1-8.1-1-16.24-2-24.34-1.11-9-1.22-18.05-2-27.07a113.86,113.86,0,0,1,.15-21.13c1.17-11.89.82-23.9,2.83-35.72.88-5.18,1.49-10.39,2.41-15.56,1.64-9.23,5.76-17.21,13.09-23.19,3.51-2.86,5.05-6.3,5.83-10.58,1.48-8.05,5-15.2,11.39-20.53,3-2.52,3.78-5.34,3.66-9a230.82,230.82,0,0,0-3.51-34c-2.59-14.19-1.72-28.52-1.28-42.81.18-6.14.34-12.31,1.71-18.37a12.61,12.61,0,0,0-.23-5.39c-2.93-13.51-3.74-27.25-4.31-41a61.75,61.75,0,0,0-2.26-14.43,98,98,0,0,1-3-12.68A44.77,44.77,0,0,1,1058.27,96c6.87-12.25,16-22.41,28.51-29.19a38.89,38.89,0,0,1,11.32-3.86c5.14-1,5.34-1.66,2-5.4a13.28,13.28,0,0,1-3.5-6.62c-.84-4.59.45-8,4.68-9.86,13-5.7,26.34-9.17,40.79-6.9,5.12.8,10.29,2.41,15.64.85,2-.59,4,.48,5.62,1.66,7.07,5.23,15.81,5.1,23.74,7.54a2.47,2.47,0,0,0,3.14-1.42c1.61-2.87,3.68-1.71,5.41-.27a17.91,17.91,0,0,1,4.83,7.16,16.5,16.5,0,0,0,8.09,8.45c6.27,3.3,12.41,6.85,18.64,10.25,6.79,3.7,8,6.59,5.38,14.07-.64,1.85-.14,2.71,1.54,3.26,6.93,2.31,13.34,5.84,20.08,8.49,5.15,2,11,2.46,16.51,3.4a8.18,8.18,0,0,0,3.68-.82c9.77-3.38,19.38-2.56,28.82,1.19s18.24,8.23,26,14.76a23.6,23.6,0,0,0,6.66,3.64,166,166,0,0,1,28.57,14.74c6.17,4,11.75,8.58,15.24,15.22a6.63,6.63,0,0,0,4.22,3.19c8.31,2.64,16.49,5.62,25.23,6.89,5.56.81,10.38-1.11,15.49-2.2,10.37-2.2,19.1-7.75,27.85-13.28,3.09-2,4.6-5,6-8.19,6.27-13.66,12.49-27.33,19.64-40.58A80,80,0,0,0,1486,69.79a13.15,13.15,0,0,1,3.7-6.5,73.67,73.67,0,0,1,21.4-15.73,40.23,40.23,0,0,0,7.68-5.14,41.86,41.86,0,0,1,24.46-9.65,18.27,18.27,0,0,0,6.86-1.57c14.22-6.73,32.29-2.69,43.09,11.24,5,6.47,11.23,10,18.33,12.79a33.52,33.52,0,0,1,7.83,4.65c5.28,3.92,11.61,5.9,18.08,7.09,12.35,2.29,24.72,4.43,36.65,8.44,3.68,1.23,7.57,1.15,11.24,2.17,14.36,4,29,7.26,41.93,15.1,2,1.23,4.37,2.13,6,3.74,4.64,4.57,10.34,7.18,16.1,10a76,76,0,0,1,28.4,23.26c6.3,8.46,12.67,16.84,15.68,27.17.63,2.15,2.18,3.71,3.67,5.32a138,138,0,0,1,16.31,21c4,6.45,6.71,13.26,6.75,20.93a14.3,14.3,0,0,0,2,6.69c8.88,16.7,14.75,34.67,21.9,52.1a37.09,37.09,0,0,1,2.33,20.8,10.9,10.9,0,0,0,1.88,8.19,52.18,52.18,0,0,0,10.43,11.79,44.08,44.08,0,0,1,14.72,24.2,28.13,28.13,0,0,0,2.93,7,85.26,85.26,0,0,1,4.58,8.65c3.59,9,10,15.81,16.55,22.63a5.4,5.4,0,0,1,.7,1.4c-4.28.75-6.88-1.14-8.43-5.05a34.76,34.76,0,0,0-3-5.75c-5.22-8.27-10.15-16.8-13.62-25.86-3-7.76-7.66-14.28-12-21.11-1.2-1.87-2.57-3.7-4.89-4.51-.79,1.89-.1,3.19.58,4.47a65.77,65.77,0,0,1,5.67,14,85.52,85.52,0,0,0,3.18,10.34,297.08,297.08,0,0,0,13.12,28,44,44,0,0,1,5.26,15.21c1.06,8.55-.92,15.65-8.76,20.57-5.2,3.27-10.11,7-15,10.69a17.18,17.18,0,0,0-4.13,4.29c-8.61,13.36-12.06,28.07-11.17,43.85a8.29,8.29,0,0,0,1,3.06c.72,1.47,1.63,3.2,3.44,3.06a5.83,5.83,0,0,0,5-3.62,9.21,9.21,0,0,0,.35-2.13c1-5.31,1.64-10.7,3.28-15.87,1.39-4.4,2.33-9,5.62-12.61.43,1.58-.62,2.79-1.17,4.07a80.29,80.29,0,0,0-6.14,24.11c-.24,2.44-.67,4.66-2.82,6.16-1.78,1.25-1.83,3-1.47,4.87,2.92,15.3,1.34,30.39-3.23,45.05-5.89,18.89-9.61,38.23-13.42,57.57a292.73,292.73,0,0,1-16.89,54.91c-3.54,8.6-5.22,17.68-7.34,26.65-2,8.48-4.29,16.82-9.71,24-5.67,7.5-12.78,12.85-22,15-2.95.67-4.67,2.35-6.26,4.73-5.54,8.32-11.54,16.33-19.68,22.34-3.25,2.4-6.4,5.42-11,5.06,17.12-14.87,30.26-33.06,42.92-51.59,3-4.47,5.24-9.5,8.08-14.13,4.34-7.08,8.9-14,13.38-21.05.88-1.37,1.83-2.71,1.86-4.43s-1.29-2.63-2.9-1.73a8.81,8.81,0,0,0-1.66,1.4,95.84,95.84,0,0,0-16.21,20.28c-5.39,9.21-10.8,18.35-17.38,26.81-10.44,13.41-20.58,27.05-33,38.74-2.26,2.11-4.39,4.34-6.57,6.53-3.64,3.65-7.69,6.43-13,7.13a7.91,7.91,0,0,0-4.94,2.08c-1.26,1.34-1.49,2.42.44,3.35a8.14,8.14,0,0,0,5.83.19C1723.56,735.55,1727.51,733.26,1731.81,731.85ZM1479.72,227.71c.06,9,3.7,16.79,8.69,24,1.36,2,3.17,3.58,6,2.13,1.49-.77,2.91.07,4.09.86,5.45,3.67,11.54,6.13,17.36,9.1,8.56,4.37,17.52,8.05,24.49,15,4,3.93,9.2,7,11.14,12.42,3.14,8.82,9.1,15.16,16.64,20.13,7.95,5.25,16.56,8.3,26.31,5.41a8.6,8.6,0,0,1,4.29.24c6.19,1.35,12.55,1.78,18.73,3,5.94,1.16,11.91.49,17.84,1.68,6.22,1.24,12.27.39,16.73-5.22,2.67-3.35,3.21-7.23,3.52-11.15.2-2.57.37-5,1.77-7.26,4.17-6.7,5.14-14,5-21.83a28.83,28.83,0,0,0-10.09-22c-6-5.3-11.44-11.11-17.38-16.42-4.16-3.71-8.29-7.62-14.26-8.47a9.35,9.35,0,0,1-3.4-1.66,40.4,40.4,0,0,1-9.4-8.88c-2.44-3-2.52-5.18-.63-8.15a35.58,35.58,0,0,0,4.46-11.61,39.2,39.2,0,0,1,2.78-9.29c.79-1.62,1-3.18-.76-4.25-1.57-.93-2.69.08-3.86,1-3.25,2.64-4.79,6.37-6.31,10-2.89,7-8.14,12-14.26,15.89a66.5,66.5,0,0,1-21.71,8.52c-9.9,2.15-19.85,4.1-29.7,6.44-8.46,2-16.9,4.15-25.19,6.76-5.19,1.64-9.76.07-14.29-1.55s-9.38-3.33-11.18-8.69a5.55,5.55,0,0,0-1.31-1.71,3.63,3.63,0,0,0-4-1.13c-1.66.49-2.17,1.78-2.2,3.35C1479.71,225.54,1479.72,226.62,1479.72,227.71Zm-17.53-72c2.8,0,6.56-2.62,8.4-6.1,4.14-7.88,9.94-14.58,15.5-21.42,6.75-8.31,14.76-15.47,22.13-23.21,9.68-10.17,20.28-19.17,32.72-25.78,9-4.8,18.49-8.38,29-8.32,6.92,0,13.89.45,20.74-.26,7.56-.78,15.17-1,22.71-1.93,1.8-.22,4.2,1,5.05-1.81s0-5.87-2.2-7.31a49.66,49.66,0,0,0-5.87-2.84c-3.94-1.86-7.94-3.6-11.79-5.64-2.06-1.08-3.5-3.38-5.89-3.8-5-.88-8.41-4.08-11.53-7.65-4.23-4.84-9.88-7.19-15.71-9.35a9.57,9.57,0,0,0-10.14,2,15.69,15.69,0,0,1-9.3,3.87c-8.19.82-16.39,2.58-23.4,6.61-9.08,5.21-18.33,10.34-26.57,16.91-4.3,3.44-8,7.27-8.28,13.38a13.27,13.27,0,0,1-1.39,6.29c-3.57,6.09-6,12.74-9.38,18.94-5.65,10.29-10.48,21-15.43,31.69a160.62,160.62,0,0,0-6.47,16.08A7.35,7.35,0,0,0,1462.19,155.68ZM1094.94,467a39.73,39.73,0,0,1,1.1,10.29c-.36,9.31,2.82,17.5,7.06,25.72,3.33,6.47,8.47,11.11,12.92,16.46a7.25,7.25,0,0,0,8,2.1c4-1.84,8.2-9.27,6.47-13.25-2.43-5.58-.57-10.09,1.74-14.91a73,73,0,0,0,5.51-15.2c1.7-7.36.66-14.77.91-22.15a9,9,0,0,0-2.65-6.4c-3.18-3.29-5.16-7.43-8.24-10.7a5.8,5.8,0,0,1-1.38-6.82c2-5.46,4.87-10.46,7.38-15.65,2.2-4.55,5.19-8.25,9.8-10.51,1.34-.66,2.73-1.35,2.64-3.08-.1-2-1.77-2.77-3.33-3.15-4.7-1.16-9.57-1.29-13.78,1.19-10.06,5.93-18.06,13.93-22.72,24.79-1.07,2.49-2.07,5-3.34,7.4C1097.42,443.57,1096.34,455.08,1094.94,467Zm614.59,269.8a15.77,15.77,0,0,1-8.21-2.81c-2.24-1.62-4.75-1.16-7.26-.05a74.49,74.49,0,0,1-21,5.34c-11,1.37-21.79,3.38-32.73,4.81-10.59,1.38-21.16,3-31.85,2.91-10.16-.06-20.3.31-30.48-.8-8.81-1-17.57-2.19-26.37-3.17-6.29-.7-12.72-.32-19.08-.1a14.39,14.39,0,0,0-5.63,1.94c-2.88,1.47-3.05,3.16-.68,5.51,2.54,2.52,6,3.36,9.25,4.26,11,3,22.4,4.17,33.72,5.41,2.71.29,5.12.74,6.18,3.52,1.29,3.37,4.18,4.55,7.25,5a129.83,129.83,0,0,0,14.07,1.21c5.43.19,10.87-.58,16.27-.76,13-.44,25.51-3.26,38-6.18a206.66,206.66,0,0,0,44.58-15.57,16.58,16.58,0,0,0,4.24-2.4A67.28,67.28,0,0,1,1709.53,736.77ZM1299.12,679.6a19,19,0,0,1,2.05,0c4,.5,6.5-1.52,8.24-4.88s.16-5.9-2-8.3a8.87,8.87,0,0,1-2.54-4.7,18.33,18.33,0,0,0-3.5-7.84,73.71,73.71,0,0,1-5-8.36,8.24,8.24,0,0,1-.78-6.7c1-3.15,1.13-6.47-1.95-8.91a3.2,3.2,0,0,1-.86-4.72c1.7-2.82,1.26-6,1-9-.29-2.77-2.62-3.53-4.68-1.73a7.43,7.43,0,0,0-1.66,2.12c-2.54,4.82-5.87,9.11-9.07,13.47-4.65,6.32-11.16,10.5-18.22,13.29-4.94,1.95-10.48,2.49-16,2.73a150.83,150.83,0,0,0-19.41,1.84c-6.76,1.18-13.48,2.88-20.45,2.38-2.25-.16-4.26.85-6.3,1.55-5.79,2-9.17,7-13.33,10.93-2.43,2.32-3,5-1.63,6.71,1.81,2.21,4.27,1.43,6.57,1a2.85,2.85,0,0,0,1.47-.67c4.14-4.24,9.74-5.31,15.1-6.84,3.09-.88,6.23-2,9,1.2s3.88,3.13,7.4,1.08a25.22,25.22,0,0,1,5.52-2.16c4.36-1.33,8.85-1.76,13.3-2.51a33.85,33.85,0,0,1,20.64,2.63c9.49,4.53,18.86,9.33,28.24,14.06C1293.15,678.76,1296.08,680.16,1299.12,679.6ZM1220,83.86c1.94,0,4,.33,5.93-.09,2.5-.55,4.88-1.76,5.53-4.62a6.51,6.51,0,0,0-2.62-7.19,17,17,0,0,0-2.29-1.45c-4.63-2.51-9.22-5.08-13.92-7.45-6.8-3.43-12.72-7.69-15.52-15.14a6.36,6.36,0,0,0-.77-1.43c-.52-.74-1.06-1.55-2.16-1.23-.86.25-1,1.05-.93,1.75.11,3.57-1.71,3.2-4.21,2.3-4.26-1.54-8.19-4-12.69-4.88a38.31,38.31,0,0,1-13.86-6c-1.26-.84-2.62-1.74-4-1.23-4.52,1.65-8.92.25-13.41.06-4-.17-7.91-.92-11.88-1.25-10.3-.83-19.69,2.61-29.13,5.85a6.73,6.73,0,0,0-4.8,6c-.41,3.5.57,6.7,3.7,8.47,4.72,2.68,9.61,5.16,15.42,3.08a14.9,14.9,0,0,1,4.31-.42c17.83-1,35,2.29,51.78,8,8,2.71,15.08,7.2,22.68,10.67C1204.44,81,1211.64,84.53,1220,83.86Zm-17,69.86c-7.72-1.94-14.22,2.07-20.84,5.36-3.57,1.78-4.76,5.33-3.32,9.18,2.55,6.86,7.14,12,14.56,13.23,13.85,2.39,26.94,6.92,39.93,12.11,6.87,2.75,13.55,6,20.8,7.93,10.28,2.77,20.86,4.61,30.71,8.89,5.73,2.49,12,2.74,18,3.84,3.31.61,6.5-.45,9.64-1.25a3.69,3.69,0,0,0,3-3.47c0-2.06-1.53-3.17-3.4-3.71a15.35,15.35,0,0,0-2.16-.18c-12.44-1.68-24.39-5.17-36.19-9.31-6.41-2.25-11.94-6.09-18-9.06-6.68-3.3-13.31-6.68-20-9.9-2.22-1.06-3.48-2.4-3.18-5,.85-7.35-3.65-11.46-9.46-14.3C1217,155.06,1210.56,152.26,1203,153.72ZM1754,479.09c.84-5.44-2.21-9.89-3.25-14.8-1-4.58-3.63-7-7.5-7.47a9.94,9.94,0,0,0-9.89,5.39c-1.12,2.06-1.53,4.41-2.28,6.63-2.23,6.62-3.4,13.61-7.1,19.75-4.77,7.94-10.76,14.93-16.83,21.84-6.5,7.38-12.22,15.2-16.26,24.18-.89,2-2.18,3.95-.3,6,1.16,1.26,5.91,1.34,7.77.15a8.47,8.47,0,0,0,2-1.81c1.57-1.92,3.69-2.79,6-3.55,5.87-2,12-2.42,18-3.66,5.13-1,9-3.66,11.08-8.6a23.48,23.48,0,0,0,2.18-9.95c-.08-2.25.11-4.67,1.35-6.26,3.77-4.87,6-10.66,10.07-15.35C1752.11,488,1755,484.2,1754,479.09Zm-8.65-297.77c.75-4.71-1-9.76-3.75-14.57-1.51-2.66-3-5.31-4.68-7.91-2.57-4.14-5.52-8.12-7.15-12.7a19,19,0,0,0-5.26-7.39,13,13,0,0,0-19.86,1.61c-4.47,6.25-6,13-2.18,20.29a22.91,22.91,0,0,1,2.52,8.76c.62,7,3.25,12.83,10,16.22,2.08,1.05,3.9,2.62,5.92,3.81A29,29,0,0,0,1738,193.7a7.77,7.77,0,0,0,7.36-7.65C1745.35,184.78,1745.32,183.52,1745.32,181.32ZM1504.63,402c-1.94-.66-4.52,2.66-7.93,3.08-1.1.13-1.58,1.44-1.62,2.58a15.72,15.72,0,0,0,.55,5.89,62.37,62.37,0,0,0,6.2,12.62,24.75,24.75,0,0,1,3.2,8.48c1.33,6.39-.41,12.49-.79,18.7-.1,1.73-.62,3.6,1.31,4.06a15.39,15.39,0,0,1,6.17,3.14,2.67,2.67,0,0,0,3.11.24c2.44-2.06,5.28-2.79,8.26-3.59a5.43,5.43,0,0,0,3.5-3.93c1.14-4.45,4.47-8.33,3.45-13.37-.32-1.53.54-2.77,1.64-3.83,1.3-1.26,2.58-2.55,3.85-3.84,4-4.09,4.2-7.55,1.35-12.6-2.64-4.68-7-7.31-11.27-9.92A52.41,52.41,0,0,0,1504.63,402Zm20.89,248.34c.58-3.56-.31-7.29-1.07-11-1.52-7.33-3.24-14.64-11.78-17.3a3.94,3.94,0,0,1-1.4-.84c-3.81-3.37-8.27-5.84-12.43-8.72-7.07-4.91-13.66-7.39-22.64-2.91-7.1,3.53-13.69,7-19.31,12.67-4.3,4.3-5.37,9.77-6.51,15.14-.87,4.08,2.83,6.23,6.75,4.46a7.63,7.63,0,0,0,4.19-4.67c1.52-4,4-7.14,8.77-7.93,2.81-.46,4.52-2.67,5.88-5.23,2.08-3.88,3.59-4.09,7.21-1.32a44.93,44.93,0,0,0,14.37,7.56c3.19,1,5.83,2.9,8.58,4.61a7.37,7.37,0,0,1,3.24,4.79,28.55,28.55,0,0,1,.91,9.12c-.34,4.22.92,8.24,1.43,12.34a5.83,5.83,0,0,0,4.76,5.33c3,.55,4.79-1.26,6.36-3.34a12.9,12.9,0,0,0,1.45-2.9A21.35,21.35,0,0,0,1525.52,650.34Zm-217.3-257.9a5,5,0,0,0,4.31-1.48c6.46-5.25,11.17-11.89,11.53-20.1.32-7.34,1.86-13.36,7.89-17.94,1.76-1.33,1.71-3.56.77-5.48-.87-1.77-2.73-1.72-4.32-1.51-6.18.8-12.21,2.3-16.77,6.83a108.94,108.94,0,0,1-18.22,14.46,22.18,22.18,0,0,0-4.92,4.21c-2.33,2.69-3.21,5.78-1.25,9,2.1,3.42,2.48,7.07,2.27,10.92a25.53,25.53,0,0,0,.1,4.87c.54,3.82,2.87,6,6.3,6.24,4.89.28,7.36-1.87,7.8-6.81.32-3.6.32-3.6,4.4-3.2C1308.29,392.45,1308.47,392.48,1308.22,392.44Zm9.86,293.73c-4.61-.09-5.64,1-5.66,4.49a6.27,6.27,0,0,0,2.26,4.72q5.44,5.34,10.81,10.75A71.06,71.06,0,0,1,1338.07,723c1.25,2.38,2.74,3.87,5.52,3.22s3.49-3,3.73-5.39c.26-2.61-1-4.94-2-7.23-3.94-8.76-10.3-15.75-17.32-22A30.09,30.09,0,0,0,1318.08,686.17Z" transform="translate(-19.25 -8.31)"/><path class="cls-2" d="M1252.24,768.66c.31-1.85,1.62-2.07,3.21-2.14,5.1-.23,9.64,1.68,14.06,3.76q10.82,5.09,21.42,10.61c18.5,9.69,38.3,15.08,58.82,18.48,6.6,1.1,13.23,1.9,19.84,2.75,3.47.45,7.18-.52,10.76-.92,8.44-.93,16.7-3,24.93-5.11,6.84-1.74,13.65-3.59,20.51-5.26a27.06,27.06,0,0,1,4.87-.33c2.23-.13,4.06.75,4.86,2.77a6.28,6.28,0,0,1-.82,6.64c-1.68,2.06-4,3-6.32,4.14-1,.48-2,.92-2.92,1.46-3,1.71-3,2.13,0,4.26.43.31.85.65,1.55,1.17-1.61,2.29-4.09,2.85-6.41,3.62-6.57,2.17-13.52,2.49-20.18,4.17-9.48,2.39-19.2,3.48-28.79,5.21a12.28,12.28,0,0,1-2.17.22c-13.28,0-26.57.38-39.83-.11-12.89-.48-25.22-4.45-37.7-7.39a1.81,1.81,0,0,1-1.45-1.38,36.27,36.27,0,0,1,.29-4.31c.85-4.59.93-4.73-3.28-5.7-8.45-1.93-15.8-6-23-10.65-4.76-3-6.94-7.13-6.76-12.63l.24-.28c1.73-.06,3.35-1.2,5.22-.2.83.45,2.28.64,2.77-.66s-.66-2-1.48-2.59c-3.72-2.55-6.69-5.92-10.06-8.84-.48-.41-1.33-.4-2-.59Z" transform="translate(-19.25 -8.31)"/><path class="cls-2" d="M1863.56,428.61c-3.29,3.58-4.23,8.21-5.62,12.61-1.64,5.17-2.32,10.56-3.28,15.87a9.21,9.21,0,0,1-.35,2.13,5.83,5.83,0,0,1-5,3.62c-1.81.14-2.72-1.59-3.44-3.06a8.29,8.29,0,0,1-1-3.06c-.89-15.78,2.56-30.49,11.17-43.85a17.18,17.18,0,0,1,4.13-4.29c4.93-3.68,9.84-7.42,15-10.69,7.84-4.92,9.82-12,8.76-20.57a44,44,0,0,0-5.26-15.21,297.08,297.08,0,0,1-13.12-28,85.52,85.52,0,0,1-3.18-10.34,65.77,65.77,0,0,0-5.67-14c-.68-1.28-1.37-2.58-.58-4.47,2.32.81,3.69,2.64,4.89,4.51,4.36,6.83,9,13.35,12,21.11,3.47,9.06,8.4,17.59,13.62,25.86a34.76,34.76,0,0,1,3,5.75c1.55,3.91,4.15,5.8,8.43,5.05a1.83,1.83,0,0,1,1.3,1.49c.76,2.38,1.39,4.81,2.31,7.14a11.4,11.4,0,0,1-.81,10.31c-1,1.86-2.35,3.64-2.6,5.86l-.82,1.37a18.36,18.36,0,0,0-5.7,9.61l-1,1.27a5.65,5.65,0,0,0-3.43,3.25l-1.47,1.09c-1.6.32-3.16.73-4,2.37a7,7,0,0,1-3.7,2,1.5,1.5,0,0,0-1.75,1.05l-1.64,1.11a17.05,17.05,0,0,0-8.24,8.3l-1.06,1.54a1.48,1.48,0,0,0-1.12,1.76C1864.17,427.57,1863.87,428.09,1863.56,428.61Z" transform="translate(-19.25 -8.31)"/><path class="cls-2" d="M1731.81,731.85c-4.3,1.41-8.25,3.7-12.68,4.81a8.14,8.14,0,0,1-5.83-.19c-1.93-.93-1.7-2-.44-3.35a7.91,7.91,0,0,1,4.94-2.08c5.35-.7,9.4-3.48,13-7.13,2.18-2.19,4.31-4.42,6.57-6.53,12.47-11.69,22.61-25.33,33-38.74,6.58-8.46,12-17.6,17.38-26.81a95.84,95.84,0,0,1,16.21-20.28,8.81,8.81,0,0,1,1.66-1.4c1.61-.9,2.93-.09,2.9,1.73s-1,3.06-1.86,4.43c-4.48,7-9,14-13.38,21.05-2.84,4.63-5,9.66-8.08,14.13-12.66,18.53-25.8,36.72-42.92,51.59a19.66,19.66,0,0,1-6.16,5.49,2.82,2.82,0,0,0-2.87,2.22Z" transform="translate(-19.25 -8.31)"/><path class="cls-1" d="M1257.74,782c-.18,5.5,2,9.59,6.76,12.63,7.2,4.61,14.55,8.72,23,10.65,4.21,1,4.13,1.11,3.28,5.7a36.27,36.27,0,0,0-.29,4.31c-2.32-.75-2.37-2.59-1.78-4.35,1.1-3.25-.72-4-3.32-4.75a74.22,74.22,0,0,1-23.65-11.71,13,13,0,0,1-5-6.86C1256.14,785.71,1255.06,783.44,1257.74,782Z" transform="translate(-19.25 -8.31)"/><path class="cls-1" d="M1252.43,768.83c.67.19,1.52.18,2,.59,3.37,2.92,6.34,6.29,10.06,8.84.82.55,1.94,1.38,1.48,2.59s-1.94,1.11-2.77.66c-1.87-1-3.49.14-5.22.2a1.92,1.92,0,0,1,1.21-1.65c2.16-1.14,1.66-2.37.23-3.79C1257,773.87,1254,772,1252.43,768.83Z" transform="translate(-19.25 -8.31)"/><path class="cls-1" d="M1898.34,392.35c.25-2.22,1.58-4,2.6-5.86a11.4,11.4,0,0,0,.81-10.31c-.92-2.33-1.55-4.76-2.31-7.14C1906.42,377.09,1904.72,387.29,1898.34,392.35Z" transform="translate(-19.25 -8.31)"/><path class="cls-1" d="M1866.66,423.76a17.05,17.05,0,0,1,8.24-8.3A26.86,26.86,0,0,1,1866.66,423.76Z" transform="translate(-19.25 -8.31)"/><path class="cls-1" d="M1891.82,403.33a18.36,18.36,0,0,1,5.7-9.61A16.47,16.47,0,0,1,1891.82,403.33Z" transform="translate(-19.25 -8.31)"/><path class="cls-1" d="M1887.42,407.85a5.65,5.65,0,0,1,3.43-3.25C1890.66,406.68,1889.62,407.87,1887.42,407.85Z" transform="translate(-19.25 -8.31)"/><path class="cls-1" d="M1882,411.31c.8-1.64,2.36-2.05,4-2.37C1885.32,410.87,1883.92,411.53,1882,411.31Z" transform="translate(-19.25 -8.31)"/><path class="cls-1" d="M1733.34,730.79a2.82,2.82,0,0,1,2.87-2.22C1735.86,730.08,1735.07,731,1733.34,730.79Z" transform="translate(-19.25 -8.31)"/><path class="cls-1" d="M1876.54,414.35a1.5,1.5,0,0,1,1.75-1.05C1878.15,414.38,1877.67,414.9,1876.54,414.35Z" transform="translate(-19.25 -8.31)"/><path class="cls-1" d="M1864.48,427.06a1.48,1.48,0,0,1,1.12-1.76C1866.13,426.46,1865.6,426.94,1864.48,427.06Z" transform="translate(-19.25 -8.31)"/><path class="cls-2" d="M1479.72,227.71c0-1.09,0-2.17,0-3.26,0-1.57.54-2.86,2.2-3.35a3.63,3.63,0,0,1,4,1.13,5.55,5.55,0,0,1,1.31,1.71c1.8,5.36,6.63,7.06,11.18,8.69s9.1,3.19,14.29,1.55c8.29-2.61,16.73-4.75,25.19-6.76,9.85-2.34,19.8-4.29,29.7-6.44a66.5,66.5,0,0,0,21.71-8.52c6.12-3.89,11.37-8.89,14.26-15.89,1.52-3.66,3.06-7.39,6.31-10,1.17-.95,2.29-2,3.86-1,1.81,1.07,1.55,2.63.76,4.25a39.2,39.2,0,0,0-2.78,9.29,35.58,35.58,0,0,1-4.46,11.61c-1.89,3-1.81,5.18.63,8.15a40.4,40.4,0,0,0,9.4,8.88,9.35,9.35,0,0,0,3.4,1.66c6,.85,10.1,4.76,14.26,8.47,5.94,5.31,11.39,11.12,17.38,16.42a28.83,28.83,0,0,1,10.09,22c.09,7.79-.88,15.13-5,21.83-1.4,2.25-1.57,4.69-1.77,7.26-.31,3.92-.85,7.8-3.52,11.15-4.46,5.61-10.51,6.46-16.73,5.22-5.93-1.19-11.9-.52-17.84-1.68-6.18-1.21-12.54-1.64-18.73-3a8.6,8.6,0,0,0-4.29-.24c-9.75,2.89-18.36-.16-26.31-5.41-7.54-5-13.5-11.31-16.64-20.13-1.94-5.44-7.18-8.49-11.14-12.42-7-6.92-15.93-10.6-24.49-15-5.82-3-11.91-5.43-17.36-9.1-1.18-.79-2.6-1.63-4.09-.86-2.83,1.45-4.64-.16-6-2.13C1483.42,244.5,1479.78,236.73,1479.72,227.71Z" transform="translate(-19.25 -8.31)"/><path class="cls-2" d="M1462.19,155.68a7.35,7.35,0,0,1-7.12-9.66,160.62,160.62,0,0,1,6.47-16.08c5-10.66,9.78-21.4,15.43-31.69,3.41-6.2,5.81-12.85,9.38-18.94a13.27,13.27,0,0,0,1.39-6.29c.28-6.11,4-9.94,8.28-13.38,8.24-6.57,17.49-11.7,26.57-16.91,7-4,15.21-5.79,23.4-6.61a15.69,15.69,0,0,0,9.3-3.87,9.57,9.57,0,0,1,10.14-2c5.83,2.16,11.48,4.51,15.71,9.35,3.12,3.57,6.5,6.77,11.53,7.65,2.39.42,3.83,2.72,5.89,3.8,3.85,2,7.85,3.78,11.79,5.64a49.66,49.66,0,0,1,5.87,2.84c2.22,1.44,3,4.57,2.2,7.31s-3.25,1.59-5.05,1.81c-7.54,1-15.15,1.15-22.71,1.93-6.85.71-13.82.3-20.74.26-10.49-.06-20,3.52-29,8.32-12.44,6.61-23,15.61-32.72,25.78-7.37,7.74-15.38,14.9-22.13,23.21-5.56,6.84-11.36,13.54-15.5,21.42C1468.75,153.06,1465,155.68,1462.19,155.68Z" transform="translate(-19.25 -8.31)"/><path class="cls-2" d="M1094.94,467c1.4-11.89,2.48-23.4,8-33.87,1.27-2.39,2.27-4.91,3.34-7.4,4.66-10.86,12.66-18.86,22.72-24.79,4.21-2.48,9.08-2.35,13.78-1.19,1.56.38,3.23,1.17,3.33,3.15.09,1.73-1.3,2.42-2.64,3.08-4.61,2.26-7.6,6-9.8,10.51-2.51,5.19-5.38,10.19-7.38,15.65a5.8,5.8,0,0,0,1.38,6.82c3.08,3.27,5.06,7.41,8.24,10.7a9,9,0,0,1,2.65,6.4c-.25,7.38.79,14.79-.91,22.15a73,73,0,0,1-5.51,15.2c-2.31,4.82-4.17,9.33-1.74,14.91,1.73,4-2.42,11.41-6.47,13.25a7.25,7.25,0,0,1-8-2.1c-4.45-5.35-9.59-10-12.92-16.46-4.24-8.22-7.42-16.41-7.06-25.72A39.73,39.73,0,0,0,1094.94,467Z" transform="translate(-19.25 -8.31)"/><path class="cls-2" d="M1709.53,736.77a67.28,67.28,0,0,0-9.73,8.07,16.58,16.58,0,0,1-4.24,2.4A206.66,206.66,0,0,1,1651,762.81c-12.49,2.92-25,5.74-38,6.18-5.4.18-10.84,1-16.27.76a129.83,129.83,0,0,1-14.07-1.21c-3.07-.45-6-1.63-7.25-5-1.06-2.78-3.47-3.23-6.18-3.52-11.32-1.24-22.68-2.42-33.72-5.41-3.29-.9-6.71-1.74-9.25-4.26-2.37-2.35-2.2-4,.68-5.51a14.39,14.39,0,0,1,5.63-1.94c6.36-.22,12.79-.6,19.08.1,8.8,1,17.56,2.2,26.37,3.17,10.18,1.11,20.32.74,30.48.8,10.69.07,21.26-1.53,31.85-2.91,10.94-1.43,21.78-3.44,32.73-4.81a74.49,74.49,0,0,0,21-5.34c2.51-1.11,5-1.57,7.26.05A15.77,15.77,0,0,0,1709.53,736.77Z" transform="translate(-19.25 -8.31)"/><path class="cls-2" d="M1299.12,679.6c-3,.56-6-.84-8.93-2.33-9.38-4.73-18.75-9.53-28.24-14.06a33.85,33.85,0,0,0-20.64-2.63c-4.45.75-8.94,1.18-13.3,2.51a25.22,25.22,0,0,0-5.52,2.16c-3.52,2-4.79,1.94-7.4-1.08s-5.87-2.08-9-1.2c-5.36,1.53-11,2.6-15.1,6.84a2.85,2.85,0,0,1-1.47.67c-2.3.42-4.76,1.2-6.57-1-1.39-1.71-.8-4.39,1.63-6.71,4.16-4,7.54-8.94,13.33-10.93,2-.7,4-1.71,6.3-1.55,7,.5,13.69-1.2,20.45-2.38a150.83,150.83,0,0,1,19.41-1.84c5.5-.24,11-.78,16-2.73,7.06-2.79,13.57-7,18.22-13.29,3.2-4.36,6.53-8.65,9.07-13.47a7.43,7.43,0,0,1,1.66-2.12c2.06-1.8,4.39-1,4.68,1.73.31,3,.75,6.2-1,9a3.2,3.2,0,0,0,.86,4.72c3.08,2.44,3,5.76,1.95,8.91a8.24,8.24,0,0,0,.78,6.7,73.71,73.71,0,0,0,5,8.36,18.33,18.33,0,0,1,3.5,7.84,8.87,8.87,0,0,0,2.54,4.7c2.15,2.4,3.73,4.94,2,8.3s-4.21,5.38-8.24,4.88A19,19,0,0,0,1299.12,679.6Z" transform="translate(-19.25 -8.31)"/><path class="cls-2" d="M1220,83.86c-8.4.67-15.6-2.88-22.86-6.2-7.6-3.47-14.72-8-22.68-10.67-16.78-5.72-34-9-51.78-8a14.9,14.9,0,0,0-4.31.42c-5.81,2.08-10.7-.4-15.42-3.08-3.13-1.77-4.11-5-3.7-8.47a6.73,6.73,0,0,1,4.8-6c9.44-3.24,18.83-6.68,29.13-5.85,4,.33,7.87,1.08,11.88,1.25,4.49.19,8.89,1.59,13.41-.06,1.4-.51,2.76.39,4,1.23a38.31,38.31,0,0,0,13.86,6c4.5.89,8.43,3.34,12.69,4.88,2.5.9,4.32,1.27,4.21-2.3,0-.7.07-1.5.93-1.75,1.1-.32,1.64.49,2.16,1.23a6.36,6.36,0,0,1,.77,1.43c2.8,7.45,8.72,11.71,15.52,15.14,4.7,2.37,9.29,4.94,13.92,7.45a17,17,0,0,1,2.29,1.45,6.51,6.51,0,0,1,2.62,7.19c-.65,2.86-3,4.07-5.53,4.62C1224.06,84.19,1222,83.86,1220,83.86Z" transform="translate(-19.25 -8.31)"/><path class="cls-2" d="M1203,153.72c7.53-1.46,13.92,1.34,20.12,4.37,5.81,2.84,10.31,6.95,9.46,14.3-.3,2.59,1,3.93,3.18,5,6.72,3.22,13.35,6.6,20,9.9,6,3,11.54,6.81,18,9.06,11.8,4.14,23.75,7.63,36.19,9.31a15.35,15.35,0,0,1,2.16.18c1.87.54,3.39,1.65,3.4,3.71a3.69,3.69,0,0,1-3,3.47c-3.14.8-6.33,1.86-9.64,1.25-6-1.1-12.27-1.35-18-3.84-9.85-4.28-20.43-6.12-30.71-8.89-7.25-2-13.93-5.18-20.8-7.93-13-5.19-26.08-9.72-39.93-12.11-7.42-1.28-12-6.37-14.56-13.23-1.44-3.85-.25-7.4,3.32-9.18C1188.81,155.79,1195.31,151.78,1203,153.72Z" transform="translate(-19.25 -8.31)"/><path class="cls-2" d="M1754,479.09c1,5.11-1.86,8.89-5,12.49-4,4.69-6.3,10.48-10.07,15.35-1.24,1.59-1.43,4-1.35,6.26a23.48,23.48,0,0,1-2.18,9.95c-2,4.94-6,7.55-11.08,8.6-6,1.24-12.17,1.69-18,3.66-2.27.76-4.39,1.63-6,3.55a8.47,8.47,0,0,1-2,1.81c-1.86,1.19-6.61,1.11-7.77-.15-1.88-2.05-.59-4,.3-6,4-9,9.76-16.8,16.26-24.18,6.07-6.91,12.06-13.9,16.83-21.84,3.7-6.14,4.87-13.13,7.1-19.75.75-2.22,1.16-4.57,2.28-6.63a9.94,9.94,0,0,1,9.89-5.39c3.87.47,6.54,2.89,7.5,7.47C1751.76,469.2,1754.81,473.65,1754,479.09Z" transform="translate(-19.25 -8.31)"/><path class="cls-2" d="M1745.32,181.32c0,2.2,0,3.46,0,4.73a7.77,7.77,0,0,1-7.36,7.65,29,29,0,0,1-17.11-4.26c-2-1.19-3.84-2.76-5.92-3.81-6.72-3.39-9.35-9.26-10-16.22a22.91,22.91,0,0,0-2.52-8.76c-3.84-7.28-2.29-14,2.18-20.29a13,13,0,0,1,19.86-1.61,19,19,0,0,1,5.26,7.39c1.63,4.58,4.58,8.56,7.15,12.7,1.63,2.6,3.17,5.25,4.68,7.91C1744.31,171.56,1746.07,176.61,1745.32,181.32Z" transform="translate(-19.25 -8.31)"/><path class="cls-2" d="M1504.63,402a52.41,52.41,0,0,1,21,7.71c4.31,2.61,8.63,5.24,11.27,9.92,2.85,5.05,2.68,8.51-1.35,12.6-1.27,1.29-2.55,2.58-3.85,3.84-1.1,1.06-2,2.3-1.64,3.83,1,5-2.31,8.92-3.45,13.37a5.43,5.43,0,0,1-3.5,3.93c-3,.8-5.82,1.53-8.26,3.59a2.67,2.67,0,0,1-3.11-.24,15.39,15.39,0,0,0-6.17-3.14c-1.93-.46-1.41-2.33-1.31-4.06.38-6.21,2.12-12.31.79-18.7a24.75,24.75,0,0,0-3.2-8.48,62.37,62.37,0,0,1-6.2-12.62,15.72,15.72,0,0,1-.55-5.89c0-1.14.52-2.45,1.62-2.58C1500.11,404.66,1502.69,401.34,1504.63,402Z" transform="translate(-19.25 -8.31)"/><path class="cls-2" d="M1525.52,650.34a21.35,21.35,0,0,1-1.24,9.88,12.9,12.9,0,0,1-1.45,2.9c-1.57,2.08-3.37,3.89-6.36,3.34a5.83,5.83,0,0,1-4.76-5.33c-.51-4.1-1.77-8.12-1.43-12.34a28.55,28.55,0,0,0-.91-9.12,7.37,7.37,0,0,0-3.24-4.79c-2.75-1.71-5.39-3.65-8.58-4.61a44.93,44.93,0,0,1-14.37-7.56c-3.62-2.77-5.13-2.56-7.21,1.32-1.36,2.56-3.07,4.77-5.88,5.23-4.8.79-7.25,3.92-8.77,7.93a7.63,7.63,0,0,1-4.19,4.67c-3.92,1.77-7.62-.38-6.75-4.46,1.14-5.37,2.21-10.84,6.51-15.14,5.62-5.62,12.21-9.14,19.31-12.67,9-4.48,15.57-2,22.64,2.91,4.16,2.88,8.62,5.35,12.43,8.72a3.94,3.94,0,0,0,1.4.84c8.54,2.66,10.26,10,11.78,17.3C1525.21,643.05,1526.1,646.78,1525.52,650.34Z" transform="translate(-19.25 -8.31)"/><path class="cls-2" d="M1308.22,392.44c.25,0,.07,0-.11,0-4.08-.4-4.08-.4-4.4,3.2-.44,4.94-2.91,7.09-7.8,6.81-3.43-.2-5.76-2.42-6.3-6.24a25.53,25.53,0,0,1-.1-4.87c.21-3.85-.17-7.5-2.27-10.92-2-3.2-1.08-6.29,1.25-9a22.18,22.18,0,0,1,4.92-4.21,108.94,108.94,0,0,0,18.22-14.46c4.56-4.53,10.59-6,16.77-6.83,1.59-.21,3.45-.26,4.32,1.51.94,1.92,1,4.15-.77,5.48-6,4.58-7.57,10.6-7.89,17.94-.36,8.21-5.07,14.85-11.53,20.1A5,5,0,0,1,1308.22,392.44Z" transform="translate(-19.25 -8.31)"/><path class="cls-2" d="M1318.08,686.17a30.09,30.09,0,0,1,9.93,5.41c7,6.29,13.38,13.28,17.32,22,1,2.29,2.25,4.62,2,7.23-.24,2.4-.93,4.73-3.73,5.39s-4.27-.84-5.52-3.22a71.06,71.06,0,0,0-12.58-16.89q-5.35-5.42-10.81-10.75a6.27,6.27,0,0,1-2.26-4.72C1312.44,687.2,1313.47,686.08,1318.08,686.17Z" transform="translate(-19.25 -8.31)"/><path class="cls-3" d="M1005.38,409.92c-.71-9.74.09-23,2.18-36.12,3-18.59,10.87-35.14,22.52-49.64,10.57-13.15,15.11-27.7,15.15-44.37,0-19.47-1.08-38.89-1.69-58.34-.37-11.81-.7-23.62-1.2-35.43-.77-17.82-2.87-35.52-4.18-53.28-.85-11.61-1.73-23.23,1-34.75,3.86-16.46,13.9-28.51,27.18-38.28a167.92,167.92,0,0,1,36.55-20.45c18.07-7.31,36.53-13.33,55.92-16.13,9-1.3,18.06-1.55,27.09.27a33,33,0,0,1,20.57,13.27c5,6.72,9.59,13.7,15.75,19.47a38.71,38.71,0,0,0,13.24,8.44c21.53,7.82,43,15.92,64.72,23.07,17.27,5.67,34.61,11.13,51.89,16.75,3.8,1.23,7.5,2.76,11.24,4.18,8.72,3.31,16,8.32,20.91,16.6a57.54,57.54,0,0,0,10.26,12.7c6.68,6.21,14.25,9.18,23.46,6.91,7.23-1.79,14.58-3.07,21.66-5.47,4.1-1.39,7-3.94,8-8.19,2.54-10.49,6.87-20.28,11.25-30.09,7.11-16,14.52-31.74,23.67-46.66a160,160,0,0,1,19.9-25.9c8.29-8.82,18.87-12.66,30.73-13.34a34.61,34.61,0,0,0,12.16-2.66,29.36,29.36,0,0,1,8.45-2.05c4.69-.54,9.38-1.13,14-1.86,6.31-1,11.49.82,15.46,5.86a44.66,44.66,0,0,1,3.52,4.85c7.45,12.53,19.21,19,32.61,22.94,11.16,3.29,22.64,5.33,34,7.67,18.17,3.74,36.25,7.71,53.73,14.13A241.86,241.86,0,0,1,1778,104.17c8.49,7,14.77,16,21.61,24.46,15.19,18.87,26.18,40.14,36.15,62,4.45,9.77,9,19.47,13,29.44,5,12.43,7.2,25.55,9.46,38.6,3.17,18.25,10.28,34.75,20.29,50.2,8.21,12.65,16.72,25.13,24.11,38.3,5.71,10.18,10.8,20.59,12.87,32.26,2.94,16.54-3.2,29.19-16.36,38.79-5.13,3.75-10.57,7.09-16,10.4-7.73,4.71-11.71,11.49-12.71,20.46-1.13,10.14-1.6,20.31-1.81,30.48-.41,19.06-3.28,37.69-10,55.56-7.7,20.5-12.56,41.75-17.36,63-3.75,16.66-9.88,32.33-20.18,46.14a42.3,42.3,0,0,0-8.16,21.11,40.47,40.47,0,0,1-11.22,24.33,124.69,124.69,0,0,0-19.35,26.92c-6.62,12-16.8,19.82-29.53,24.54-7.87,2.92-16,4.67-24.2,6.5a117.35,117.35,0,0,0-14.71,4.06c-4.58,1.68-8.39,4.29-10.89,8.61-6.43,11.15-16.71,16.76-28.68,20.05-22.86,6.28-45.91,6.62-69.16,2.7-16-2.69-31.89-5.38-47.65-9.1-19.23-4.53-37.43-1.29-55.15,6.94-16.38,7.6-31.84,16.75-47.1,26.29-16.35,10.23-33.06,19.81-50.28,28.48-18.32,9.22-37.69,14.36-58.25,14.25a99,99,0,0,1-24.86-2.8,61.28,61.28,0,0,1-35.46-24.63c-17.68-24.92-41.64-39.31-72.38-42.22-15.24-1.44-30.53-.62-45.75-2-11.44-1.07-22.71-2.77-33.64-6.48-14-4.75-25.38-13-32.15-26.22-12.09-23.69-26.68-45.87-40.49-68.52-10.63-17.42-17.33-36.38-21-56.43-.88-4.83-1.85-9.64-2.68-14.48a108.49,108.49,0,0,0-15.5-39.91c-8.89-14.06-13-29.34-13.64-45.93-.86-21.44-1.73-42.88-2.17-64.33C1006.71,441.83,1006,427.66,1005.38,409.92Zm27.26,47.16c.24,19,.93,42.44,2.35,65.87a58,58,0,0,0,7.65,26.43,215.65,215.65,0,0,1,13.11,25.14c5.27,12.53,7.51,25.81,9.88,39.05,3.17,17.71,8.82,34.51,18,50,3.62,6.1,7.23,12.22,11.21,18.09A399,399,0,0,1,1122,728.35c5.7,11.49,14.51,18.3,26.82,21.09a153.76,153.76,0,0,0,19.89,3.23c10.7,1,21.44.66,32.16,1.16a238,238,0,0,1,32,3.56c20.3,3.7,37.28,13.9,53,26.71,8.23,6.71,15.67,14.13,21.33,23.17,6.39,10.24,16,14.88,27.6,16.33,20.88,2.6,40.5-1.41,59.14-10.94,14.75-7.53,29.23-15.51,43.28-24.28,17-10.59,34.1-20.87,52.14-29.63,25-12.16,50.81-15.51,77.94-8.78,15.71,3.9,31.72,6.41,47.74,8.72a130.2,130.2,0,0,0,50.87-2.43c7.43-1.86,13.27-5.35,17.36-12,4.71-7.73,11.79-12.73,20.23-15.85a145.51,145.51,0,0,1,18.31-5.38c6-1.36,12-2.81,18-4.4,9.78-2.6,17.32-8,22-17.27A108.05,108.05,0,0,1,1781.47,674a20.37,20.37,0,0,0,6.15-12.5c1.25-12.91,6.63-24.06,14.13-34.39a75.65,75.65,0,0,0,11.81-25c1.37-5.1,3-10.14,4-15.3a431.61,431.61,0,0,1,17.27-61.38c5.4-14.62,7.67-29.89,8.07-45.47.28-10.72.51-21.45,1.79-32.12,1-8.19,2.8-16.09,7-23.34,4.9-8.49,12.41-14.12,20.43-19.25,4.13-2.65,8.32-5.23,12.31-8.08q7.65-5.48,5.45-14.83a74.16,74.16,0,0,0-7-17.7c-6.86-13.06-15.06-25.32-23.28-37.54-14.45-21.46-24.19-44.68-27.93-70.38a143.19,143.19,0,0,0-11.79-39c-5.52-12.08-11.36-24-17-36A199.46,199.46,0,0,0,1766.29,129c-23.34-24.38-52.24-39.62-84.86-47.93-13.42-3.41-27.22-4.77-40.74-7.6-13.87-2.9-27.84-5.42-41.08-10.8-9.72-4-17.81-9.84-23.35-18.85-4.89-7.94-9.93-11.07-21.41-7.17a69.26,69.26,0,0,1-19.67,3.9c-7.21.28-12.63,3.45-17.36,8.85-11.54,13.14-20,28.17-27.33,43.83s-15,31.11-19.46,48c-2.73,10.33-9.79,17.13-19.8,21-9.72,3.76-19.89,5.79-30,7.81q-21.21,4.2-38.63-8.88c-7.54-5.65-13.44-12.75-18.66-20.45a22.83,22.83,0,0,0-11.81-9.18c-5.5-1.89-10.93-4-16.48-5.74-36.43-11.45-72.62-23.58-108.39-37a65.72,65.72,0,0,1-22.07-13.69,86.51,86.51,0,0,1-15.43-18.31c-4.3-7.12-10.38-9.74-18.29-9.18-1.82.12-3.64.16-5.44.37-19,2.22-36.89,8.12-54.42,15.34a139.51,139.51,0,0,0-33.33,19.48c-11,8.65-16,20-15.51,33.81.22,6.36.77,12.7,1.3,19,1.34,16.12,3.16,32.21,3.75,48.4q1.17,31.89,2.26,63.79c.3,9.08.65,18.16.76,27.25.14,10.82-.61,21.47-3.57,31.85-3.48,12.21-9.94,23-17.34,33.16-7.54,10.39-13.71,21.43-16.42,34.16a122.57,122.57,0,0,0-2.52,24.38C1030.8,416.64,1031.82,434.62,1032.64,457.08Z" transform="translate(-19.25 -8.31)"/><path class="cls-3" d="M1291.23,620.22c3.21,4.07,5.37,7.65,6.55,11.68,3.77,12.82,9.76,24.69,15.87,36.46,4.4,8.49,11.44,15,18.73,21,3.2,2.66,6.83,4.82,10.3,7.16a14.16,14.16,0,0,1,5.42,6,41.66,41.66,0,0,1,3.45,20.76,12.06,12.06,0,0,1-.41,2.14c-1.07,3.73-3.79,6-6.9,5.91s-5.06-2.23-6-6.11a32.08,32.08,0,0,1-.46-8.69c.12-5.15-1.87-8.68-6.14-11.89-9.1-6.85-19.58-11.09-29.4-16.54-11.1-6.17-23-10.89-33.84-17.61-5.08-3.14-10.84-5.11-16.61-6.82-5.61-1.66-10.9-1-15.45,2.73-5.79,4.77-12.4,6.55-19.75,6.51-8.9-.06-17.81.11-26.71.18a17.63,17.63,0,0,1-2.18-.05c-1.81-.22-3.84-.4-4.63-2.31-.87-2.08.28-3.89,1.62-5.44a10.74,10.74,0,0,1,6.68-3.37,58.33,58.33,0,0,1,15.22-.4c5.43.53,10.81,1.48,16.29,1.49a17.68,17.68,0,0,0,9.89-2.46,24.28,24.28,0,0,1,21.45-2.51c7.94,2.62,15.9,5.15,23.51,8.71,7.24,3.39,14.62,6.49,22,9.67,1.09.48,2.34,1.49,3.49.37s.27-2.39-.09-3.55a73.48,73.48,0,0,0-6.51-14.4c-4.14-7.25-6.1-15.11-7-23.34C1289.07,630.55,1289.81,625.8,1291.23,620.22Z" transform="translate(-19.25 -8.31)"/><path class="cls-3" d="M1625.76,317.74c-.66.61-.78.78-.93.84-9.74,3.88-36.11,6.63-46.2,4.84a46.5,46.5,0,0,1-14.78-5.35,27.87,27.87,0,0,1-13.57-16.37c-1.09-3.47-2.12-6.95-3.16-10.44a23.18,23.18,0,0,0-9.56-12.85,64.53,64.53,0,0,0-20.75-9.38c-5.46-1.37-11-2.52-16.48-3.73a69.54,69.54,0,0,1-13-3.83A20.2,20.2,0,0,1,1475,240.41c.35-3.44.84-6.86,1.14-10.3.39-4.36.45-8.71-1.35-12.87-.57-1.33-1.17-2.87.55-3.85,1.46-.82,2.83-.2,4,.72a10.3,10.3,0,0,1,3,4.45,32.5,32.5,0,0,1,2.3,11.15q.32,6,.82,12a10.37,10.37,0,0,0,6.65,9.2,83.07,83.07,0,0,0,9.8,3.32c12,3.53,23.94,7.4,34.86,13.84,9,5.28,15.66,12.31,18.89,22.37.38,1.21,1,2.34,1.36,3.56,2.52,9.49,9.29,14.37,18.25,16.89A58.08,58.08,0,0,0,1591,313c7.63,0,15.27-.13,22.9,0C1618.25,313.08,1622.44,314,1625.76,317.74Z" transform="translate(-19.25 -8.31)"/><path class="cls-3" d="M1310.43,210.7a29.82,29.82,0,0,1-10-2.48c-7.9-3.21-15.64-6.77-24.36-7.5-3.83-.32-7.25-2.49-10.09-5.1-4-3.65-8.65-5.93-13.58-7.87-8.14-3.2-16-7-22.84-12.53A61.79,61.79,0,0,1,1214.7,158c-2.51-4.34-2.63-4.3-7.29-2.67-4.29,1.5-8.58,3-12.91,4.32-3.35,1.05-6.49,2.29-8.76,5.17-1.57,2-3.65,3.06-6.23,2.23-2.94-.95-4.3-3.25-4.65-6.15a10.54,10.54,0,0,1,4.29-10,19.19,19.19,0,0,1,6.83-3.31c6.82-1.91,13.51-4.24,20.21-6.54,8.66-3,14-1.17,18.44,6.63a60.79,60.79,0,0,0,29,26.14,51,51,0,0,1,18.1,12.76,13.42,13.42,0,0,0,8.51,4.48c7.13,1,13.66,3.63,20,6.8a48.46,48.46,0,0,0,14.9,5c1.75.24,3.94.36,4.11,2.76s-1.67,3.48-3.54,4.35A11.75,11.75,0,0,1,1310.43,210.7Z" transform="translate(-19.25 -8.31)"/><path class="cls-3" d="M1136.46,478.9a82,82,0,0,0,2.68,26.43c3.12,12.52-1.59,18-13.65,24.47-4.14,2.22-9.11-.49-10.49-4.88a7.79,7.79,0,0,1,5.69-10.12c5.19-1.44,5.5-1.55,3.61-6.48-4.37-11.38-3.29-22.91-1.3-34.43a38.77,38.77,0,0,0-1-17.76,146.77,146.77,0,0,1-4.22-16.92c-2.36-14.64,2.54-26.84,13.52-36.61,4.18-3.73,9.33-5.56,14.81-6.45a8.43,8.43,0,0,1,4.81.48c4.76,2.1,5.45,7.44,1.15,10.35a39.39,39.39,0,0,1-6.87,3.27c-14.08,5.9-19.27,17-14.77,31.74C1134.13,454,1137.62,466.07,1136.46,478.9Z" transform="translate(-19.25 -8.31)"/><path class="cls-3" d="M1673.44,572.76c4.65-13.26,9-26.28,17.28-37.58a21.92,21.92,0,0,1,12.13-8.7c5.08-1.41,10.09-2.86,15.45-3,5.92-.14,8.66-2.39,9.94-8.13a66.81,66.81,0,0,1,14.51-28.91c6.16-7.3,5.39-14-1.72-20.43-.81-.73-1.71-1.36-2.51-2.09a3.66,3.66,0,0,1-1.22-4.39c.82-1.93,2.46-2.57,4.42-2.52a9.91,9.91,0,0,1,4.58,1.62c10.32,5.8,14.47,20.57,7.64,30.23a67.67,67.67,0,0,0-11.86,31.19c-1.3,10-8.38,16.15-20.89,18.2-4.12.67-8.21,1.38-12.29,2.3a10.25,10.25,0,0,0-7.19,5.31c-1.82,3.35-3.58,6.73-5.35,10.11-2.61,5-5.53,9.81-9.6,13.8C1683.07,573.4,1678.81,574.45,1673.44,572.76Z" transform="translate(-19.25 -8.31)"/><path class="cls-3" d="M1645.11,311.68c.07-3.52,1.53-6.28,2.88-9.05a54.89,54.89,0,0,0,5.55-17.59c2-16.25-4.17-29.13-16.35-39.46a82.52,82.52,0,0,0-14-9.43,82.3,82.3,0,0,1-12-7.57,17.84,17.84,0,0,1-7-11.33c-1.55-10-.36-19.6,4.49-28.57,1.16-2.14,2.56-5.54,5.39-4.27,3.41,1.53.65,4.45-.22,6.55a43.51,43.51,0,0,0-3.55,20.21c.39,5.48,2.55,9.77,7.24,12.7,2.31,1.45,4.61,2.91,7,4.3a90.85,90.85,0,0,1,32.85,33.39c6.49,11.17,6.6,22.81,4.07,34.84a62.6,62.6,0,0,1-3.12,9.29,35,35,0,0,0-2.67,9.41,8.49,8.49,0,0,1-1.59,4.58c-.84,1.06-2.47,2.08-3.24,1.09C1648.57,317.89,1644.84,315.79,1645.11,311.68Z" transform="translate(-19.25 -8.31)"/><path class="cls-3" d="M1501.62,408.79c-1.07.1-1.44.12-1.79.18-2.13.37-4.2.26-4.9-2.18s1-4.11,3-5.22a12.86,12.86,0,0,1,8-1.2,118.41,118.41,0,0,1,20.86,3.93c5,1.53,9.39,3.8,12.22,8.51.91,1.51,2.46,2.64,3.7,4,4.4,4.73,4.91,9.24,1.71,14.9a27.59,27.59,0,0,1-8,8.84c-3.85,2.77-5.06,6.1-4.36,10.8,1.26,8.54-3.08,13-11.67,13-3.76,0-7.38-1.43-11.32-.36-2.32.62-3.76-1.86-4.45-4a4.88,4.88,0,0,1,1.81-5.81,8.62,8.62,0,0,1,6.23-1.42c1.26.11,2.5.43,3.76.59,3.71.48,4.12.14,4.25-3.47.06-1.63.09-3.26.15-4.9a13.64,13.64,0,0,1,4.35-9.68,15.87,15.87,0,0,0,1.16-1.16c2.29-2.68,7.32-4.91,5.9-8.38-2-4.87-4.27-10.43-10.59-12.27-4.89-1.42-9.75-2.88-14.74-3.88C1504.9,409.16,1502.91,409,1501.62,408.79Z" transform="translate(-19.25 -8.31)"/><path class="cls-3" d="M1522.57,655.27c0-4.42.24-8.62-.62-12.75-1-5-3.25-6.31-7.64-4-4.82,2.53-9.07,1.88-13.24-1.2-2.49-1.83-5-3.65-7.45-5.51a29.21,29.21,0,0,0-7.15-3.9c-4.49-1.75-8.42-1.74-11.58,2.63a12.87,12.87,0,0,1-6.69,4.53,10.31,10.31,0,0,0-6.85,5.75,5.48,5.48,0,0,1-.58.92c-1.44,2.09-3.2,5.31-5.64,4.13-2.72-1.32-.38-4.47.12-6.77a15.35,15.35,0,0,1,9.18-11.44,17.74,17.74,0,0,0,6.26-5.17c3.41-4.08,7.74-5.06,12.78-4a34.22,34.22,0,0,1,14.37,6.27c1.72,1.34,3.56,2.55,5.18,4,2.79,2.5,5.5,3.24,9.4,2,8.26-2.55,14.27,1.42,16,10a39.7,39.7,0,0,1-.18,17.85,31.23,31.23,0,0,1-1.83,5.12c-.59,1.3-1.33,2.89-3.18,2.23-1.43-.51-1.36-2-1.28-3.29C1522.14,660.11,1522.38,657.57,1522.57,655.27Z" transform="translate(-19.25 -8.31)"/><path class="cls-3" d="M1322.5,370c-.36-2.12-1-5.14-1.36-8.2-.62-5.92,1.46-9.93,6.1-12.26.81-.41,1.73-1,2.49-.25,1.09,1.07.17,2.12-.6,2.78-3.77,3.26-3.41,7.17-2.32,11.48,3.44,13.61-.41,23.15-12.45,30.59-3.5,2.16-6.78,4.18-7.53,8.65a5.84,5.84,0,0,1-1.31,2.36c-2.32,3-5.2,5.39-9.17,4.93-4.14-.47-6-3.77-7.16-7.38a24.65,24.65,0,0,1-1-5.33,50.07,50.07,0,0,0-3.31-14.28,11.8,11.8,0,0,1-1-5.3,3.58,3.58,0,0,1,2.23-3.45,3.46,3.46,0,0,1,4.28,1.49,16.77,16.77,0,0,1,2,3.87c1.91,5.12,3.61,10.29,3.5,15.87a15.41,15.41,0,0,0,.39,3.23,1.43,1.43,0,0,0,1.51,1.26,2,2,0,0,0,1.26-.84c1.31-2.25,2.15-4.58,1.13-7.24a5.38,5.38,0,0,1,1.86-6.8c2.58-1.89,5.16-1.42,7.43.66,1.37,1.25,2.63,1.62,4.36.58C1318.45,383.58,1322.63,376.39,1322.5,370Z" transform="translate(-19.25 -8.31)"/><path class="cls-3" d="M1730.65,192.19c-8.6,1-16.05-2.09-23-6.78a10.38,10.38,0,0,1-4.57-7.76c-.82-8.17-2.38-16.05-5.95-23.61-2.4-5.1.43-9.95,3.39-14.2,2-2.9,5.18-4.54,8.44-5.77a5.4,5.4,0,0,1,6.07,1.13c2.16,2.13,1.93,3.93-.69,5.56-10.19,6.34-10.59,7.14-7.41,18.91a69.18,69.18,0,0,1,2.28,14c.26,4.32,2.43,7,6.26,8.74,5.35,2.37,10.69,4.49,16.78,3.76a18.43,18.43,0,0,1,8.59,1c.85.31,1.77.76,1.68,1.87a2.19,2.19,0,0,1-1.67,1.94,22.65,22.65,0,0,1-3.72.73C1735,191.91,1732.82,192,1730.65,192.19Z" transform="translate(-19.25 -8.31)"/></g><g id="Radar04"><path class="cls-1" d="M932.58,677.1a7.25,7.25,0,0,1-1.11,2c-10.69,9.8-19.53,21.37-30.05,31.32a88.62,88.62,0,0,0-11.25,12.73c-7.89,11-18.13,19.41-28.91,27.21-9,6.53-18.36,12.62-27.67,18.75s-16.74,12.63-18.51,24.71c-1.26,8.59-5.11,16.8-7.82,25.17-4.27,13.24-12.54,22.41-26.49,25.55-4.76,1.08-7.31,3.77-8.44,8.52a46.73,46.73,0,0,1-8.89,18.35c-1,1.25-2.72,2.53-1.5,4.62.1,2.55-2,3.73-3.44,5.18-6.38,6.33-12.8,12.61-19.48,18.65-6.38,5.77-13.09,11.11-19.65,16.62-10,8.4-20.66,16-30.76,24.24a176.51,176.51,0,0,1-46.73,27.56c-5,2-10.25,4-15.79,4.1-12.69.25-25.39-.35-38.06,1.15a51.5,51.5,0,0,0-15.8,3.93c-6.92,3.2-13.81,6.46-21,9.12-9.3,3.47-18.69,6.64-28.55,8.44-7.25,1.32-14.43.58-21.62.93a26.14,26.14,0,0,1-11.95-2.42c-8.39-3.72-16.85-7.33-25.05-11.45-6-3-12.08-5.48-18.94-5.31-2.37-3.92-6.59-4-10.31-4.47-9.53-1.11-18.92-2.86-28.33-4.63a121.6,121.6,0,0,1-38.69-14.81c-6.27-3.64-13-6.23-19.67-9.12-12.05-5.24-23.64-11.29-34.17-19.21-1.09-.82-2.31-1.53-2.63-3,1.84-.89,3.82-.72,5.76-1,5-.64,7-5.2,3.58-8.87a60.6,60.6,0,0,0-12.1-10.08c-9-5.69-19-8.88-29.22-11.63-7.95-2.13-16.15-2.51-24.16-3.9-14.76-2.57-29.62-4.32-44.41-6.61a90.52,90.52,0,0,1-25.1-7.58c-13.19-6.23-24.52-15.25-36.25-23.62C139,840.76,129,832.66,118.92,824.65c-8.27-6.57-16-13.67-22.41-22.22C91.1,795.16,87.28,787,83.25,779c-1-2-2-5.54-4.39-4.54s-1.11,4.46-.67,6.86a23.75,23.75,0,0,0,1.26,3.91,4.57,4.57,0,0,1,.07,3.43c-2-.76-2.28-2.67-2.71-4.29-4.31-16.1-8.74-32.23-7.39-49.11.74-9.36,2.09-18.69,3.71-27.94a127.43,127.43,0,0,0,2.08-23.94,132.69,132.69,0,0,1,.43-17c1.72-14.82,9-27.45,15.8-40.22a52.39,52.39,0,0,0,5.87-15.88,111.82,111.82,0,0,1,4.09-17.13c4.88-14.48,5.39-29.12,3-44.09a157.26,157.26,0,0,0-10.24-36.67c-1.82-4.3-4.23-6.57-9.08-6.82a30,30,0,0,1-19.65-8.31c-6.34-6.14-13.19-11.67-19.6-17.71a31.5,31.5,0,0,1-8.67-15.06,79.16,79.16,0,0,1-1.65-34.9,59.38,59.38,0,0,0,.08-19.86c-1.38-8.34.22-16.38,3-24.23,3.05-8.71,7.33-16.89,11-25.34A65,65,0,0,0,54,346.17a88.19,88.19,0,0,1,6.39-19.5,478.07,478.07,0,0,1,30.36-58.34c11.76-19.17,27.05-34.93,46.78-46.1a49.76,49.76,0,0,0,5.45-3.47c3.19-2.41,5.84-5,5.29-9.73-.31-2.68.41-5.48,3.4-6.83.22,1.64-.74,3-1,4.52-1,5.29.78,7.37,6.21,6.89a48.89,48.89,0,0,0,11.31-2.86c15.51-5.25,30.93-10.54,47.57-11.48,10.67-.61,21.34-1.62,32-2,7.81-.3,15.57.54,23.36,1s15.18,1,22.36,3.74c4,1.54,8.09,1.15,12.17,1.07,2.89-.06,4.65-2.12,5.67-4.48,1.14-2.62-.73-4.41-2.57-6a14.31,14.31,0,0,0-5.22-2.56,85.45,85.45,0,0,0-16-3.41c-1.47-.17-2.74-.37-3-2.15,6.71-.59,13.1,1.55,19.64,2.41,3.28.43,6.48,1.39,9.72,2.12,4.53,1,6,.46,7.76-3.74,2.53-5.93,5.24-11.76,8.27-17.46,4.36-8.18,9.54-15.64,17-21.36,3.63-2.78,6-6.64,8-10.68,4.47-8.74,9.68-16.9,16.93-23.72,11-10.39,23.57-16.54,39.1-15.19,2.13.19,4.27.32,6.41.48,0,1.7-1.31,2.25-2.53,2.9-16.5,8.86-30.41,21.15-44.07,33.7C364,140.24,357.4,147,351,153.84a216.72,216.72,0,0,0-16.53,19.72,14.65,14.65,0,0,0-2.89,9.86c.27,6.12,4,8.5,9.38,5.62a34.17,34.17,0,0,0,7.92-6c7.79-7.71,13.89-16.9,21.9-24.43s15.61-15.95,24.36-22.91a182.63,182.63,0,0,1,40-24.28c11.9-5.26,24.22-8.66,37.39-8.33,6.07.16,12.15,0,18.22,0a58.08,58.08,0,0,0,6.36-.71c3.91-.43,3.66-2.42,2.7-5.09,7.41-.23,14.79-.81,22.17-1.44a48.28,48.28,0,0,1,24,4.23,15.82,15.82,0,0,0,9.69,1.45c5.29-1.07,10.94-.17,15.9-3,.08,6.81.21,6.65,6.93,8.37,3.11.8,6.24.43,9.27,1.08,11.59,2.49,23.29,4.47,34.71,7.82,21.28,6.24,39.92,16.42,54.08,34a159.81,159.81,0,0,1,23.27,39.72c4.53,11,8.24,22.35,14.62,32.52a15.85,15.85,0,0,0,5,5.59c4.54,2.74,8.1.87,8.61-4.35.2-2-.9-4.36,1.15-6.06,3.63,10.38,10.61,19.1,14.44,29.38,1.06,2.83,3.57,4.1,6.44,4.49a74.63,74.63,0,0,1,31.67,11.69,17,17,0,0,0,7.09,2.7,82.92,82.92,0,0,1,23.45,7.31,37.81,37.81,0,0,0,13.63,3.21c13.85.9,25.82,5.81,35.05,16.64a40.44,40.44,0,0,1,6.81,10.92c5.92,14.49,12.16,28.9,14.71,44.51a130.71,130.71,0,0,1,2,25.13,35.25,35.25,0,0,0,2.6,14.35c4.21,10.58,7,21.6,10.48,32.42.83,2.61,1.57,5.26,2.54,7.82,2.09,5.54,4.72,10.74,9.36,14.71,2.22,1.91,4.17,4.13,6.25,6.22a40.15,40.15,0,0,1,11,21.63,24.4,24.4,0,0,0,4.48,10.7,46.15,46.15,0,0,1,7.52,15.19,151.72,151.72,0,0,0,6.77,18.78c6.21,14.15,9.28,29,10.66,44.34-5.56,1.19-6.85,2.83-7.21,8.08-.84,12.06,1.47,24,.24,36.17a159.31,159.31,0,0,1-3.27,19.54c-3.66,16-10.8,30.5-19.53,44.28a10.86,10.86,0,0,0-2.12,6.57c.2,3.51,1.24,4.29,4.86,3.58C930.28,677.41,931.44,677.27,932.58,677.1ZM675,675.63c0-5.28-2.51-8.51-6.65-10.58-2.84-1.42-5.52,0-6.13,3.12a5,5,0,0,0,.81,4.47c1.52,1.71,1.08,3.07-.37,4.56-.93,1-1.46,2.34-2.4,3.3-3.44,3.47-4.66,8.7-9.06,11.37-6.05,3.66-9.63,9.54-13.7,15a5.93,5.93,0,0,0-1,5.53,69.41,69.41,0,0,0,4.31,11.51c3.35,6.37,13,10.43,17.58,9.53,7.63-1.5,14.52-.58,19.8,6.1,2.16,2.74,4.93,5,6.46,8.26.71,1.53,2.17,2.73,3.36,4,1.65,1.78,3.64,2.38,5.78,1a4.52,4.52,0,0,0,1.86-6.11c-1-2.15-2-4.23-3.09-6.34-2.54-5.15-6.48-10-3.85-16.36.18-.42-.28-1.1-.4-1.67a95.2,95.2,0,0,0-5.2-16.14,12.85,12.85,0,0,0-5.54-6.63c-1.59-.88-3.09-1.91-3.52-3.72-1.14-4.75-2.33-9.5-.28-14.36C674.57,679.53,675.32,677.46,675,675.63Zm211.66-77.58c-.46-3.31-1.57-8.87-1.9-14.47-.3-4.9-2.19-9.06-4.44-13.17a98.75,98.75,0,0,0-13.49-18.33,11.65,11.65,0,0,0-4.05-3.32c-3.38-1.38-6.7-2-9.94.48s-3,5.31-1.53,8.37c4.09,8.82,3.85,18.18,3.61,27.55a12.45,12.45,0,0,0,.67,5.2,4.6,4.6,0,0,1,.19,3.45c-1.33,3.41-.71,7-.85,10.45-.17,4.09-.6,8.18-.82,12.21-.35,6.72-1.85,13.5-.39,20.28.72,3.3,2.27,5,4.72,5,2.9,0,3.41-2.08,3.68-4.37.07-.57.4-1.1.52-1.67.58-2.77,1.83-4.4,5.07-4.61,2.86-.18,5.66-1.33,8.49-2.07a8.46,8.46,0,0,0,6.34-6.35C884.21,615.29,886.75,608.05,886.69,598.05ZM763.48,377.42c3.8-1.23,8.77,0,12-2.89a11.91,11.91,0,0,1,10.13-3.19c3.61.44,6.51-.94,9.18-3,2.14-1.68,4.12-3.55,6.37-5.14,3.09-2.19,4-5.17,2.83-7.58-1-2.16-4.49-3.55-7.69-2.48-5.55,1.87-11.67,1.09-17,3.87-1,.49-2.32.13-3.49.22-9.13.66-18.26,1.28-27.37,2.06a6.29,6.29,0,0,1-4.43-1.13c-5.26-3.9-11.54-4.69-17.64-5.52-6.55-.89-14.57-8-14.94-14.52a7.83,7.83,0,0,0-.89-2.76c-2.71-5.6-7.25-6.25-11.37-1.64-1.77,2-2.94,4.35-5.92,5.34-2.43.8-2.11,3.62-1.27,5.64a11.08,11.08,0,0,0,3,3.55q9.83,8.77,19.74,17.43c6.09,5.35,12.43,10,21.3,8.14a7,7,0,0,1,2.84.53C746.81,376.21,755.11,375.59,763.48,377.42ZM386.19,269c2.88-.17,6.24.92,7.74-2,2.71-5.21,7.39-5.82,12.3-6.29a13.51,13.51,0,0,0,9.27-4.38,34.53,34.53,0,0,1,9.47-7.76c2.62-1.38,5.54-3.45,5.37-7.13-.14-2.85,1.45-4.62,2.89-6.75,3.18-4.74,6.3-9.41,11.36-12.43a4.15,4.15,0,0,0,2.07-5.05,4.86,4.86,0,0,0-4.85-3.54,18,18,0,0,0-6.3,1c-8.92,3-16.14,8.56-23.3,14.34-3.79,3.06-7.59,6.14-12.35,7.67a179.39,179.39,0,0,0-22.67,9.54,49.93,49.93,0,0,0-10.13,6.91c-5.43,4.51-4.75,9.62,1.54,13a11.48,11.48,0,0,0,3.88,1.3C377.11,268,381.76,268.48,386.19,269ZM285.67,822c.18-1.77-.85-3-2-4a35.73,35.73,0,0,0-15.53-9c-6.61-1.74-13.25-3.27-19.69-5.62-3.39-1.24-6.83-2.85-8.51-5.87-3.06-5.5-7.35-10.07-10.61-15.4-3.65-6-6.33-12.6-11.72-17.45a6.69,6.69,0,0,1-2.1-4.1c-.35-4.87-3.59-9.14-2.77-14.27.2-1.22-.67-2.61-1-3.93a3.46,3.46,0,0,0-3.34-2.79c-1.84-.13-3.68,0-4.55,1.9-1.56,3.34-3.4,6.65-2.2,10.62a144.54,144.54,0,0,0,21.54,44c2.68,3.68,3.66,7.24,1.63,11.43-.67,1.39-1.35,2.71-.87,4.45a12.82,12.82,0,0,0,12.91,9.84c3.76,0,7.41.09,10.92,1.58,2.48,1,4.68.73,7.24-.49,5.22-2.5,10.66-3.57,16.21-.26a41.84,41.84,0,0,0,8.1,3.38A4.65,4.65,0,0,0,285.67,822ZM130.55,438c0-6.59-.94-9.56-4.47-14.1a17.83,17.83,0,0,1-2.47-4.61c-3.21-8.27-3.8-17-4.71-25.7-.6-5.66.45-11.22,1.78-16.76,1.38-5.77-3.36-10.53-8.67-8.84-2.55.81-4,2.94-5.27,5.22-3.3,6-5.12,12.54-6.91,19.13-1,3.82-1.4,7.24.74,10.64a12.54,12.54,0,0,1,1.85,7.84c-.58,7.61,3.51,13.77,6.47,20.22a10.56,10.56,0,0,0,5,4.78,26.15,26.15,0,0,1,7.45,5.57,10.29,10.29,0,0,0,2.87,2c2.7,1.3,5.13.33,6-2.49A9.62,9.62,0,0,0,130.55,438ZM587.11,240.78c-3.13.07-4.44,2.18-3,4.92,3.38,6.35,5.1,13.34,7.83,19.94a29.52,29.52,0,0,0,12.22,14.5,31.6,31.6,0,0,1,10.35,9.71c3.41,4.9,7.93,8.6,14.23,9.39,2.22.27,3.15-.74,2.27-2.68-2.35-5.13-3.62-10.67-6.92-15.47-4.76-6.93-10-13.46-15.26-20a173.48,173.48,0,0,0-15.51-16.79C591.46,242.5,589.47,241,587.11,240.78ZM228.38,531.05a29.18,29.18,0,0,0-11,15.93c-3.35,11.57-6.47,23.22-9.77,34.81a17.11,17.11,0,0,0-.56,5.21c.17,5.48.15,10.89-2.47,16-.88,1.7-1.83,3.89.37,5.25s4.42.92,6.47-.79c5-4.18,8.54-9.75,9.35-15.81a109,109,0,0,0,0-24.55,23.64,23.64,0,0,1,1.17-10.16c1.89-5.53,4.14-10.94,6.11-16.44C229,537.75,230.17,535,228.38,531.05Zm253.77,305.3c1-4.59-.85-9.18-4.19-13.32-3.75-4.64-8.54-8-13.54-11.08-1.79-1.11-3.83-.85-5.73-.64-4,.44-5.52,3.48-4,7.25.94,2.26,2.92,3.64,4.35,5.47,3.9,5,9.1,9,10.6,15.81a40,40,0,0,1,.72,9.28,10.71,10.71,0,0,0,3.41,8.41c3,2.83,6.3,2.36,8-1.36,1.41-3.07,2.19-6.43,1.18-9.71C482.07,843.36,482.22,840.29,482.15,836.35Zm-22.29-102.5c-.27-2.81-2.48-6.72-4.23-10.81-3.26-7.59-10.48-11.91-15.07-18.44-2.16-3.07-6.8-1.59-7.53,2.23a17.92,17.92,0,0,0,.12,7c2,9.36,7,17.18,13.12,24.38a9.8,9.8,0,0,0,6.47,3.62C457.39,742.33,459.74,740.28,459.86,733.85ZM474,516a4.56,4.56,0,0,0,.39,1.81c1.91,3.19,1.88,6.67,1.95,10.22.08,3.77,2.05,5.62,5.32,5.57s5.08-1.84,5.11-5.76c0-3,1.17-5,3-7.29a116.16,116.16,0,0,0,7.93-12.26,5.65,5.65,0,0,0-.1-6.62c-1.81-2.45-4.27-2.37-6.88-1.6-2.24.67-4.52,1.22-6.74,1.93C479.57,503.34,474,511,474,516Zm1.07,34.65a4.62,4.62,0,0,0-3.05-4.78c-2.35-1.07-4.17.15-5.65,1.9a9.41,9.41,0,0,0-2,2.86c-1.81,5.61-5.79,9.53-9.71,13.66-3.2,3.37-5.95,7.3-6.56,12.19-.28,2.26.17,4.3,2.2,5.71s4.23.83,6-.42a86.36,86.36,0,0,0,8.27-6.51c7-6.28,7.57-15.47,10.45-23.61A4.63,4.63,0,0,0,475.1,550.6Z" transform="translate(-19.25 -8.31)"/><path class="cls-4" d="M445.17,976.74c6.86-.17,12.91,2.27,18.94,5.31,8.2,4.12,16.66,7.73,25.05,11.45a26.14,26.14,0,0,0,11.95,2.42c7.19-.35,14.37.39,21.62-.93,9.86-1.8,19.25-5,28.55-8.44,7.14-2.66,14-5.92,21-9.12A51.5,51.5,0,0,1,588,973.5c12.67-1.5,25.37-.9,38.06-1.15,5.54-.12,10.74-2.08,15.79-4.1a176.51,176.51,0,0,0,46.73-27.56c10.1-8.27,20.77-15.84,30.76-24.24,6.56-5.51,13.27-10.85,19.65-16.62,6.68-6,13.1-12.32,19.48-18.65,1.47-1.45,3.54-2.63,3.44-5.18,7.55-1.7,10.67,1.57,9,9.46-1.82.33-1.84,1.45-1.25,2.85-.5,2.81-2.38,4.87-4.21,6.77-4.39,4.56-8.49,9.47-14,12.88-1.59-.25-2.36.42-2.24,2a62.83,62.83,0,0,1-14.14,12.08c-1.64-.29-2.44.39-2.34,2.07-3.88,4.84-8.68,8.67-13.47,12.52-2.55,2.05-5,4.21-7.5,6.31a3.91,3.91,0,0,0-2.77.71c-4.82,3.64-9.79,7.1-14.44,10.93a174.36,174.36,0,0,1-46,27.37c-9.09,3.65-18.35,6.59-28.41,5.73-10.55-.89-21,1.4-31.56,1.18a23.38,23.38,0,0,0-3.41.68c-7.93,1.12-14.4,5.91-21.69,8.63-11.51,4.3-22.9,8.88-35.08,11.06-6.31,1.13-12.83.67-19,2.53-5.55-1-11.15-1.51-16.77-2a28.43,28.43,0,0,1-9.51-2.75q-14.81-7-29.64-14a34.29,34.29,0,0,1-8.23-5.52C441.37,984,441.33,980.87,445.17,976.74Z" transform="translate(-19.25 -8.31)"/><path class="cls-4" d="M729.19,217.27c-2.05,1.7-1,4-1.15,6.06-.51,5.22-4.07,7.09-8.61,4.35a15.85,15.85,0,0,1-5-5.59c-6.38-10.17-10.09-21.55-14.62-32.52a159.81,159.81,0,0,0-23.27-39.72c-14.16-17.55-32.8-27.73-54.08-34-11.42-3.35-23.12-5.33-34.71-7.82-3-.65-6.16-.28-9.27-1.08-6.72-1.72-6.85-1.56-6.93-8.37,2.46-2.81,5.93-3.31,9.28-4.08,1.53,2.25,3.88,1.43,5.89,1.41a132.65,132.65,0,0,1,23.62,2.2c2.74.46,4.75,0,6.32-2.72,2.17-3.71,5.38-6.07,10.09-5.36a2.36,2.36,0,0,0,2.45-1.23,2.66,2.66,0,0,1,2.3.42c.23.52.33,1.35.71,1.52,3.71,1.63,7.2,3.68,11.42,4.12,5.57.6,11.26,1.18,16.59,2.78,11.75,3.55,21.29,11,30.86,18.41,2.15,1.66,2.48,4.34,4,6.33,5.12,6.85,11.46,12.69,16.36,19.73a3,3,0,0,0,2.65,1,3,3,0,0,1,1.4,2.72c-.72,2.13.55,3.78,1.41,5.48,2,3.89,3.08,7.67-.61,11.24-.39.39-.91,1.16-.77,1.5,1.56,3.87-.3,8.3,2,12,1.67,2.72,2.27,5.79,3.1,8.78q2.63,9.56,5.06,19.17c.3,1.19.42,2.31,1.9,2.51a5.26,5.26,0,0,1,.6,3.76c-1.61,1.77-2.18,3.37.69,4.46A3.4,3.4,0,0,1,729.19,217.27Z" transform="translate(-19.25 -8.31)"/><path class="cls-4" d="M79.52,788.63a4.57,4.57,0,0,0-.07-3.43,23.75,23.75,0,0,1-1.26-3.91c-.44-2.4-1.81-5.85.67-6.86S82.25,777,83.25,779c4,8,7.85,16.19,13.26,23.46,6.36,8.55,14.14,15.65,22.41,22.22,10.07,8,20.09,16.11,30.55,23.58,11.73,8.37,23.06,17.39,36.25,23.62a90.52,90.52,0,0,0,25.1,7.58c14.79,2.29,29.65,4,44.41,6.61,8,1.39,16.21,1.77,24.16,3.9,10.22,2.75,20.24,5.94,29.22,11.63a60.6,60.6,0,0,1,12.1,10.08c3.39,3.67,1.42,8.23-3.58,8.87-1.94.25-3.92.08-5.76,1-7.88-2.2-15.8-4.23-23.6-6.65A181.47,181.47,0,0,0,264.45,909a127.77,127.77,0,0,1-14.85-3.42c-8.83-2.62-17.73-2.78-26.74-1.57-9.25,1.23-18.34,0-27.35-2a21.06,21.06,0,0,1-5.34-2.34c-1.9-1-3.29-2.22-.8-4.36,1.8-1.56.2-2.89-1-3.75-5.47-3.76-10.76-7.89-16.59-11-15.89-8.45-29.94-19.1-41.69-32.78-6.78-7.89-14.75-14.55-22.53-21.41-11.13-9.82-19.54-21.78-27-34.47A4.83,4.83,0,0,1,79.52,788.63Z" transform="translate(-19.25 -8.31)"/><path class="cls-4" d="M499.78,97.32c1,2.67,1.21,4.66-2.7,5.09a58.08,58.08,0,0,1-6.36.71c-6.07,0-12.15.15-18.22,0-13.17-.33-25.49,3.07-37.39,8.33a182.63,182.63,0,0,0-40,24.28c-8.75,7-16.24,15.27-24.36,22.91s-14.11,16.72-21.9,24.43a34.17,34.17,0,0,1-7.92,6c-5.37,2.88-9.11.5-9.38-5.62a14.65,14.65,0,0,1,2.89-9.86A216.72,216.72,0,0,1,351,153.84c6.42-6.87,13-13.6,19.95-20,13.66-12.55,27.57-24.84,44.07-33.7,1.22-.65,2.53-1.2,2.53-2.9,1.58-.87,3.13-1.83,5-1.84.76.07,1.66.43,2.26.16a128.46,128.46,0,0,1,17.35-6.91c.82-.25,1.08-1,1.18-1.86a2.93,2.93,0,0,1,2.33-.51c1.25,1.86,1.95,1.31,2.36-.53a4.93,4.93,0,0,1,3.58-.58c1.78,1.72,3.41,2.29,4.6-.59a32,32,0,0,1,13.14,0c1.79,2.51,2.7,2.62,5.65.67a7.8,7.8,0,0,1,4.91.73c.21,1.39,1.05,1.82,2.36,1.54,2-.6,3.24.95,4.73,1.78a2.92,2.92,0,0,0,3.25,3.05l1.44,1.53c.22,2,1.41,2.14,3,1.51A9.15,9.15,0,0,1,499.78,97.32Z" transform="translate(-19.25 -8.31)"/><path class="cls-4" d="M284.64,184.43c.22,1.78,1.49,2,3,2.15a85.45,85.45,0,0,1,16,3.41,14.31,14.31,0,0,1,5.22,2.56c1.84,1.58,3.71,3.37,2.57,6-1,2.36-2.78,4.42-5.67,4.48-4.08.08-8.17.47-12.17-1.07-7.18-2.75-14.71-3.32-22.36-3.74s-15.55-1.27-23.36-1c-10.7.41-21.37,1.42-32,2-16.64.94-32.06,6.23-47.57,11.48a48.89,48.89,0,0,1-11.31,2.86c-5.43.48-7.25-1.6-6.21-6.89.3-1.51,1.26-2.88,1-4.52a13.06,13.06,0,0,1,6.58-5.5c1.76.55,2.68-.06,2.67-1.94,4.75-2.84,9.28-6.25,15.21-6.15,3.44-.69,7.13-.79,9.58-3.91a3.41,3.41,0,0,1,2.57-.6c1.18,1.66,1.82,1.16,2.16-.54A3.39,3.39,0,0,1,193,183c1.58,1.76,2.71,1.57,3.31-.78a3.3,3.3,0,0,1,2.52-.5c1.59,1.9,2.74,1.7,3.39-.74a3.06,3.06,0,0,1,2.44-.46c1.88,1.72,3.56,2.19,4.67-.78a2.73,2.73,0,0,1,2.34-.29c.28.27.52.73.83.78,8,1.3,15.72-.87,23.58-1.54.14,0,.25-.28.38-.42a2.5,2.5,0,0,1,2.23.14c2.65,2.82,4.7,3,9.47.94a8,8,0,0,1,4.72.52c1.58,3,3.6,2.52,5.77.71a7.81,7.81,0,0,1,4.83.62c.84,2.28,2,2.33,3.42.49a5.46,5.46,0,0,1,3.66.49c1.11,2.92,2.77,2.34,4.58.71a5.24,5.24,0,0,1,3.62.53c.75,2.44,1.95,2.48,3.49.64A3,3,0,0,1,284.64,184.43Z" transform="translate(-19.25 -8.31)"/><path class="cls-1" d="M509.43,1011.81c6.21-1.86,12.73-1.4,19-2.53,12.18-2.18,23.57-6.76,35.08-11.06,7.29-2.72,13.76-7.51,21.69-8.63a23.38,23.38,0,0,1,3.41-.68c10.55.22,21-2.07,31.56-1.18,10.06.86,19.32-2.08,28.41-5.73a174.36,174.36,0,0,0,46-27.37c4.65-3.83,9.62-7.29,14.44-10.93a3.91,3.91,0,0,1,2.77-.71c1.14,15.19-5.56,26.18-18.63,33.12-14.09,7.48-29.32,11.95-44.84,15.4-4,.89-8.12,1.5-12,2.83-12.35,4.27-25.15,5.72-38,6.52a167.64,167.64,0,0,0-19.75,2.66,18.63,18.63,0,0,0-11.14,6,34.71,34.71,0,0,1-24.08,12.06C531,1022.44,519.45,1019.6,509.43,1011.81Z" transform="translate(-19.25 -8.31)"/><path class="cls-4" d="M932.58,677.1c-1.14.17-2.3.31-3.44.53-3.62.71-4.66-.07-4.86-3.58a10.86,10.86,0,0,1,2.12-6.57c8.73-13.78,15.87-28.29,19.53-44.28a159.31,159.31,0,0,0,3.27-19.54c1.23-12.12-1.08-24.11-.24-36.17.36-5.25,1.65-6.89,7.21-8.08A12.37,12.37,0,0,1,961,565.1c2.84,6.27,6,12.47,7.53,19.25-1,2.24-.77,4.61-.65,6.92.93,18.46-3.74,35.7-10.84,52.53-1.42,3.36-3.77,6.31-4.42,10-3.69,2.46-4.42,7.06-7.42,10.1C940.92,668.22,937.44,673.31,932.58,677.1Z" transform="translate(-19.25 -8.31)"/><path class="cls-1" d="M952.61,653.79c.65-3.68,3-6.63,4.42-10,7.1-16.83,11.77-34.07,10.84-52.53-.12-2.31-.32-4.68.65-6.92,2.14.62,2.82,2.57,3.8,4.22,5.95,10,7.44,20.84,5.1,32.18a61.21,61.21,0,0,1-6.34,18.19C966.87,646.29,961.27,652,952.61,653.79Z" transform="translate(-19.25 -8.31)"/><path class="cls-1" d="M714,143.11a3,3,0,0,1-2.65-1c-4.9-7-11.24-12.88-16.36-19.73-1.5-2-1.83-4.67-4-6.33-9.57-7.36-19.11-14.86-30.86-18.41-5.33-1.6-11-2.18-16.59-2.78-4.22-.44-7.71-2.49-11.42-4.12-.38-.17-.48-1-.71-1.52,16.21-1.11,31.95,0,45.76,10a85.87,85.87,0,0,1,16,15.36c6,7.36,12.54,14.41,17.77,22.42C712.21,138.87,714.18,140.49,714,143.11Z" transform="translate(-19.25 -8.31)"/><path class="cls-1" d="M629.17,88.83a2.36,2.36,0,0,1-2.45,1.23c-4.71-.71-7.92,1.65-10.09,5.36-1.57,2.71-3.58,3.18-6.32,2.72a132.65,132.65,0,0,0-23.62-2.2c-2,0-4.36.84-5.89-1.41,7.63-5.88,16.64-7.63,25.86-7.57,6.82,0,13.66.67,20.49.87A2.6,2.6,0,0,1,629.17,88.83Z" transform="translate(-19.25 -8.31)"/><path class="cls-1" d="M727.49,206.5c-1.48-.2-1.6-1.32-1.9-2.51q-2.45-9.62-5.06-19.17c-.83-3-1.43-6.06-3.1-8.78-2.26-3.69-.4-8.12-2-12-.14-.34.38-1.11.77-1.5,3.69-3.57,2.59-7.35.61-11.24-.86-1.7-2.13-3.35-1.41-5.48,3.7,2.8,4.55,7.06,5.61,11.18a53.29,53.29,0,0,1,1.57,17.42,52.78,52.78,0,0,0,2.4,19C726.25,197.68,728,201.9,727.49,206.5Z" transform="translate(-19.25 -8.31)"/><path class="cls-1" d="M236.5,178.3c-.13.14-.24.41-.38.42-7.86.67-15.61,2.84-23.58,1.54-.31,0-.55-.51-.83-.78C219.9,177.46,228.11,176,236.5,178.3Z" transform="translate(-19.25 -8.31)"/><path class="cls-1" d="M443.36,86.84c-.1.81-.36,1.61-1.18,1.86a128.46,128.46,0,0,0-17.35,6.91c-.6.27-1.5-.09-2.26-.16C428.57,90.35,435.72,88,443.36,86.84Z" transform="translate(-19.25 -8.31)"/><path class="cls-1" d="M248.2,179.38c-4.77,2.08-6.82,1.88-9.47-.94C242,177.94,245.19,177.6,248.2,179.38Z" transform="translate(-19.25 -8.31)"/><path class="cls-1" d="M185.74,184.7c-2.45,3.12-6.14,3.22-9.58,3.91C178.51,185.22,182.19,185.13,185.74,184.7Z" transform="translate(-19.25 -8.31)"/><path class="cls-1" d="M475,85.27c-2.95,2-3.86,1.84-5.65-.67C471.35,84,473.27,83.85,475,85.27Z" transform="translate(-19.25 -8.31)"/><path class="cls-1" d="M258.69,180.61c-2.17,1.81-4.19,2.31-5.77-.71C254.94,179.38,256.92,179.16,258.69,180.61Z" transform="translate(-19.25 -8.31)"/><path class="cls-1" d="M456.23,84.63c-1.19,2.88-2.82,2.31-4.6.59C453,83.86,454.6,84,456.23,84.63Z" transform="translate(-19.25 -8.31)"/><path class="cls-1" d="M275.18,182.92c-1.81,1.63-3.47,2.21-4.58-.71C272.25,181.68,273.83,181.57,275.18,182.92Z" transform="translate(-19.25 -8.31)"/><path class="cls-1" d="M728.78,214.72c-2.87-1.09-2.3-2.69-.69-4.46C729.44,211.58,729.31,213.12,728.78,214.72Z" transform="translate(-19.25 -8.31)"/><path class="cls-1" d="M209.37,179.77c-1.11,3-2.79,2.5-4.67.78C206.06,179.08,207.68,179.23,209.37,179.77Z" transform="translate(-19.25 -8.31)"/><path class="cls-1" d="M490.27,92.37A2.92,2.92,0,0,1,487,89.32C489.4,89,490.13,90.34,490.27,92.37Z" transform="translate(-19.25 -8.31)"/><path class="cls-1" d="M282.29,184.09c-1.54,1.84-2.74,1.8-3.49-.64C280.11,182.88,281.32,182.84,282.29,184.09Z" transform="translate(-19.25 -8.31)"/><path class="cls-1" d="M196.35,182.25c-.6,2.35-1.73,2.54-3.31.78C193.91,181.76,195.07,181.75,196.35,182.25Z" transform="translate(-19.25 -8.31)"/><path class="cls-1" d="M266.94,181.72c-1.43,1.84-2.58,1.79-3.42-.49A2.59,2.59,0,0,1,266.94,181.72Z" transform="translate(-19.25 -8.31)"/><path class="cls-1" d="M202.26,181c-.65,2.44-1.8,2.64-3.39.74C199.78,180.5,201,180.49,202.26,181Z" transform="translate(-19.25 -8.31)"/><path class="cls-1" d="M494.69,95.41c-1.57.63-2.76.51-3-1.51A2.74,2.74,0,0,1,494.69,95.41Z" transform="translate(-19.25 -8.31)"/><path class="cls-1" d="M161,194.76c0,1.88-.91,2.49-2.67,1.94C158.78,195.53,159.47,194.59,161,194.76Z" transform="translate(-19.25 -8.31)"/><path class="cls-1" d="M482.29,87.54c-1.31.28-2.15-.15-2.36-1.54C481.51,85.3,482.16,86,482.29,87.54Z" transform="translate(-19.25 -8.31)"/><path class="cls-1" d="M190.47,183.56c-.34,1.7-1,2.2-2.16.54A1.37,1.37,0,0,1,190.47,183.56Z" transform="translate(-19.25 -8.31)"/><path class="cls-1" d="M448.05,85.8c-.41,1.84-1.11,2.39-2.36.53A1.54,1.54,0,0,1,448.05,85.8Z" transform="translate(-19.25 -8.31)"/><path class="cls-1" d="M769.72,888.31c-.59-1.4-.57-2.52,1.25-2.85C771.51,886.83,770.79,887.65,769.72,888.31Z" transform="translate(-19.25 -8.31)"/><path class="cls-1" d="M749.32,910c-.12-1.63.65-2.3,2.24-2A2.13,2.13,0,0,1,749.32,910Z" transform="translate(-19.25 -8.31)"/><path class="cls-1" d="M732.84,924.16c-.1-1.68.7-2.36,2.34-2.07A2.28,2.28,0,0,1,732.84,924.16Z" transform="translate(-19.25 -8.31)"/><path class="cls-4" d="M675,675.63c.29,1.83-.46,3.9-1.28,5.86-2,4.86-.86,9.61.28,14.36.43,1.81,1.93,2.84,3.52,3.72a12.85,12.85,0,0,1,5.54,6.63,95.2,95.2,0,0,1,5.2,16.14c.12.57.58,1.25.4,1.67-2.63,6.4,1.31,11.21,3.85,16.36,1,2.11,2.14,4.19,3.09,6.34a4.52,4.52,0,0,1-1.86,6.11c-2.14,1.39-4.13.79-5.78-1-1.19-1.28-2.65-2.48-3.36-4-1.53-3.31-4.3-5.52-6.46-8.26-5.28-6.68-12.17-7.6-19.8-6.1-4.58.9-14.23-3.16-17.58-9.53a69.41,69.41,0,0,1-4.31-11.51,5.93,5.93,0,0,1,1-5.53c4.07-5.48,7.65-11.36,13.7-15,4.4-2.67,5.62-7.9,9.06-11.37.94-1,1.47-2.33,2.4-3.3,1.45-1.49,1.89-2.85.37-4.56a5,5,0,0,1-.81-4.47c.61-3.13,3.29-4.54,6.13-3.12C672.52,667.12,675.07,670.35,675,675.63Z" transform="translate(-19.25 -8.31)"/><path class="cls-4" d="M886.69,598.05c.06,10-2.48,17.24-4.12,24.61a8.46,8.46,0,0,1-6.34,6.35c-2.83.74-5.63,1.89-8.49,2.07-3.24.21-4.49,1.84-5.07,4.61-.12.57-.45,1.1-.52,1.67-.27,2.29-.78,4.33-3.68,4.37-2.45,0-4-1.68-4.72-5-1.46-6.78,0-13.56.39-20.28.22-4,.65-8.12.82-12.21.14-3.49-.48-7,.85-10.45a4.6,4.6,0,0,0-.19-3.45,12.45,12.45,0,0,1-.67-5.2c.24-9.37.48-18.73-3.61-27.55-1.42-3.06-1.63-6,1.53-8.37s6.56-1.86,9.94-.48a11.65,11.65,0,0,1,4.05,3.32,98.75,98.75,0,0,1,13.49,18.33c2.25,4.11,4.14,8.27,4.44,13.17C885.12,589.18,886.23,594.74,886.69,598.05Z" transform="translate(-19.25 -8.31)"/><path class="cls-4" d="M763.48,377.42c-8.37-1.83-16.67-1.21-24.68-3.1a7,7,0,0,0-2.84-.53c-8.87,1.85-15.21-2.79-21.3-8.14q-9.88-8.68-19.74-17.43a11.08,11.08,0,0,1-3-3.55c-.84-2-1.16-4.84,1.27-5.64,3-1,4.15-3.35,5.92-5.34,4.12-4.61,8.66-4,11.37,1.64a7.83,7.83,0,0,1,.89,2.76c.37,6.48,8.39,13.63,14.94,14.52,6.1.83,12.38,1.62,17.64,5.52a6.29,6.29,0,0,0,4.43,1.13c9.11-.78,18.24-1.4,27.37-2.06,1.17-.09,2.54.27,3.49-.22,5.35-2.78,11.47-2,17-3.87,3.2-1.07,6.65.32,7.69,2.48,1.16,2.41.26,5.39-2.83,7.58-2.25,1.59-4.23,3.46-6.37,5.14-2.67,2.09-5.57,3.47-9.18,3a11.91,11.91,0,0,0-10.13,3.19C772.25,377.4,767.28,376.19,763.48,377.42Z" transform="translate(-19.25 -8.31)"/><path class="cls-4" d="M386.19,269c-4.43-.5-9.08-1-13.71-1.57a11.48,11.48,0,0,1-3.88-1.3c-6.29-3.41-7-8.52-1.54-13a49.93,49.93,0,0,1,10.13-6.91,179.39,179.39,0,0,1,22.67-9.54c4.76-1.53,8.56-4.61,12.35-7.67,7.16-5.78,14.38-11.37,23.3-14.34a18,18,0,0,1,6.3-1,4.86,4.86,0,0,1,4.85,3.54,4.15,4.15,0,0,1-2.07,5.05c-5.06,3-8.18,7.69-11.36,12.43-1.44,2.13-3,3.9-2.89,6.75.17,3.68-2.75,5.75-5.37,7.13a34.53,34.53,0,0,0-9.47,7.76,13.51,13.51,0,0,1-9.27,4.38c-4.91.47-9.59,1.08-12.3,6.29C392.43,269.9,389.07,268.81,386.19,269Z" transform="translate(-19.25 -8.31)"/><path class="cls-4" d="M285.67,822a4.65,4.65,0,0,1-6.38,4,41.84,41.84,0,0,1-8.1-3.38c-5.55-3.31-11-2.24-16.21.26-2.56,1.22-4.76,1.54-7.24.49-3.51-1.49-7.16-1.63-10.92-1.58a12.82,12.82,0,0,1-12.91-9.84c-.48-1.74.2-3.06.87-4.45,2-4.19,1.05-7.75-1.63-11.43a144.54,144.54,0,0,1-21.54-44c-1.2-4,.64-7.28,2.2-10.62.87-1.87,2.71-2,4.55-1.9a3.46,3.46,0,0,1,3.34,2.79c.36,1.32,1.23,2.71,1,3.93-.82,5.13,2.42,9.4,2.77,14.27a6.69,6.69,0,0,0,2.1,4.1c5.39,4.85,8.07,11.48,11.72,17.45,3.26,5.33,7.55,9.9,10.61,15.4,1.68,3,5.12,4.63,8.51,5.87,6.44,2.35,13.08,3.88,19.69,5.62a35.73,35.73,0,0,1,15.53,9C284.82,819.06,285.85,820.24,285.67,822Z" transform="translate(-19.25 -8.31)"/><path class="cls-4" d="M130.55,438a9.62,9.62,0,0,1-.3,2.86c-.87,2.82-3.3,3.79-6,2.49a10.29,10.29,0,0,1-2.87-2,26.15,26.15,0,0,0-7.45-5.57,10.56,10.56,0,0,1-5-4.78c-3-6.45-7-12.61-6.47-20.22a12.54,12.54,0,0,0-1.85-7.84c-2.14-3.4-1.78-6.82-.74-10.64,1.79-6.59,3.61-13.11,6.91-19.13,1.25-2.28,2.72-4.41,5.27-5.22,5.31-1.69,10,3.07,8.67,8.84-1.33,5.54-2.38,11.1-1.78,16.76.91,8.67,1.5,17.43,4.71,25.7a17.83,17.83,0,0,0,2.47,4.61C129.61,428.41,130.58,431.38,130.55,438Z" transform="translate(-19.25 -8.31)"/><path class="cls-4" d="M587.11,240.78c2.36.22,4.35,1.72,6.23,3.52a173.48,173.48,0,0,1,15.51,16.79c5.24,6.54,10.5,13.07,15.26,20,3.3,4.8,4.57,10.34,6.92,15.47.88,1.94,0,2.95-2.27,2.68-6.3-.79-10.82-4.49-14.23-9.39a31.6,31.6,0,0,0-10.35-9.71A29.52,29.52,0,0,1,592,265.64c-2.73-6.6-4.45-13.59-7.83-19.94C582.67,243,584,240.85,587.11,240.78Z" transform="translate(-19.25 -8.31)"/><path class="cls-4" d="M228.38,531.05c1.79,3.92.63,6.7-.34,9.41-2,5.5-4.22,10.91-6.11,16.44a23.64,23.64,0,0,0-1.17,10.16,109,109,0,0,1,0,24.55c-.81,6.06-4.35,11.63-9.35,15.81-2.05,1.71-4.31,2.13-6.47.79s-1.25-3.55-.37-5.25c2.62-5.07,2.64-10.48,2.47-16a17.11,17.11,0,0,1,.56-5.21c3.3-11.59,6.42-23.24,9.77-34.81A29.18,29.18,0,0,1,228.38,531.05Z" transform="translate(-19.25 -8.31)"/><path class="cls-4" d="M482.15,836.35c.07,3.94-.08,7,.87,10.11,1,3.28.23,6.64-1.18,9.71-1.73,3.72-5,4.19-8,1.36a10.71,10.71,0,0,1-3.41-8.41,40,40,0,0,0-.72-9.28c-1.5-6.78-6.7-10.81-10.6-15.81-1.43-1.83-3.41-3.21-4.35-5.47-1.56-3.77,0-6.81,4-7.25,1.9-.21,3.94-.47,5.73.64,5,3.1,9.79,6.44,13.54,11.08C481.3,827.17,483.11,831.76,482.15,836.35Z" transform="translate(-19.25 -8.31)"/><path class="cls-4" d="M459.86,733.85c-.12,6.43-2.47,8.48-7.12,7.94a9.8,9.8,0,0,1-6.47-3.62c-6.08-7.2-11.1-15-13.12-24.38a17.92,17.92,0,0,1-.12-7c.73-3.82,5.37-5.3,7.53-2.23,4.59,6.53,11.81,10.85,15.07,18.44C457.38,727.13,459.59,731,459.86,733.85Z" transform="translate(-19.25 -8.31)"/><path class="cls-4" d="M474,516c-.06-4.94,5.54-12.61,9.94-14,2.22-.71,4.5-1.26,6.74-1.93,2.61-.77,5.07-.85,6.88,1.6a5.65,5.65,0,0,1,.1,6.62,116.16,116.16,0,0,1-7.93,12.26c-1.79,2.28-2.94,4.31-3,7.29,0,3.92-1.89,5.71-5.11,5.76s-5.24-1.8-5.32-5.57c-.07-3.55,0-7-1.95-10.22A4.56,4.56,0,0,1,474,516Z" transform="translate(-19.25 -8.31)"/><path class="cls-4" d="M475.1,550.6a4.63,4.63,0,0,1,0,1c-2.88,8.14-3.47,17.33-10.45,23.61a86.36,86.36,0,0,1-8.27,6.51c-1.8,1.25-3.9,1.9-6,.42s-2.48-3.45-2.2-5.71c.61-4.89,3.36-8.82,6.56-12.19,3.92-4.13,7.9-8,9.71-13.66a9.41,9.41,0,0,1,2-2.86c1.48-1.75,3.3-3,5.65-1.9A4.62,4.62,0,0,1,475.1,550.6Z" transform="translate(-19.25 -8.31)"/><path class="cls-5" d="M732.16,197.24c-1.37,7.48.88,16.93,4.17,26.32,2.3,6.54,6.08,11.3,12.67,13.5a26.54,26.54,0,0,1,3.24,1.27,149.87,149.87,0,0,0,46.26,14.52c4.15.58,8.2,2.2,12.22,3.59,6.59,2.26,13.27,4.14,20,5.93,11.08,3,21.69,7.34,30.79,14.52,8.72,6.88,15,15.71,17.88,26.8a115.7,115.7,0,0,0,5.19,14.38,82.69,82.69,0,0,1,5.31,20.44A148.15,148.15,0,0,0,894.21,358c3,11,3.36,22.5,5.43,33.69a87,87,0,0,0,7.74,23.38c7.8,15.58,14.65,31.64,23.6,46.64,6.18,10.34,9.36,22,11.84,33.75,4.71,22.24,13.32,43.06,21.67,64,5.31,13.27,12,26,16,39.8,2.63,9.28,4.32,18.64,3.14,28.47a60.16,60.16,0,0,1-15.4,33.6c-8.21,9.2-17.8,16.82-27.15,24.73-15.13,12.8-30.29,25.57-45.25,38.58-9,7.8-16.32,17.26-24.27,26.1-7.18,8-14.59,15.7-22.51,22.91-23.59,21.47-42.94,46.1-55.64,75.92-5.68,13.34-10.94,26.86-16.61,40.21a131,131,0,0,1-20.64,33.28c-17.94,21.26-37.93,40.35-61.18,55.45a431.27,431.27,0,0,1-59.91,32.06c-5.71,2.54-11.46,2.17-16.26-2.22-2.64-2.42-5.3-2.63-8.52-2.09a154.38,154.38,0,0,0-38.67,12,105.15,105.15,0,0,1-40.29,9.71,80.48,80.48,0,0,1-48.82-13.77c-7.89-5.3-16-10.22-24.29-14.91-14.12-8-29.35-12.87-45.21-15.91a207,207,0,0,1-29-8c-15.4-5.36-28.88-14.08-41.15-24.72-21.62-18.75-46.57-28.89-74.76-31.24-6.92-.57-13.84-1.31-19.72-5.87a13.21,13.21,0,0,0-8.8-2.42,61.6,61.6,0,0,0-9.23.6c-16.29,3.09-30.92-1.83-45-9.37-8.1-4.33-15-10.3-21.92-16.3-1.9-1.65-3.87-3.52-6.14-4.37-10.91-4.1-19.69-11.55-28.69-18.62-11-8.63-22.77-16.45-32.35-26.69-12.93-13.81-24.26-29-31.72-46.74-4.7-11.19-6.06-23.1-6.83-35.09-1.5-23.31,3.09-45.75,9.52-67.91,6-20.8,15-40.42,23.18-60.36,7.29-17.78,14.34-35.66,17.47-54.83,3.48-21.36-3-38.67-20-51.93a174.37,174.37,0,0,0-24-15.26A90,90,0,0,1,46.19,492c-13.72-12.51-20.27-28.91-24.51-46.54a88.9,88.9,0,0,1,2-48.27c7.27-23,14.54-46,24.1-68.21,7-16.25,15.89-31.46,25-46.52,11-18.23,22.41-36.27,35.63-53,16.15-20.4,34.77-37.82,58.18-49.46,14.27-7.09,29.37-10.67,45-12.29,13.43-1.39,26.84-2.93,40.29-4.17,16.46-1.51,32.34.67,47.28,8.32,2.93,1.51,5.86,3,8.86,4.37,7.74,3.44,10.89,2.52,15.76-4.38a135.11,135.11,0,0,0,9.88-16.63q5.73-11.26,12-22.22c8.58-15,20.66-26.32,35-35.29,9.86-6.16,19.86-12.11,29.88-18,18.24-10.73,37.52-13.5,58.05-8.18,13.85,3.58,27.37,8.25,41.12,12.14a80.34,80.34,0,0,0,36.08,2c6.46-1.11,13-2.11,19.57-1.83a134.74,134.74,0,0,0,35.06-3.23,76.64,76.64,0,0,1,33.33,0,43.33,43.33,0,0,0,16.7.5c12.1-2.07,22.26,2.09,32,8.87,26.86,18.69,40.28,45.79,47.13,77.1A117.34,117.34,0,0,1,732.16,197.24Zm-17-1.26c1.07-16.39-2.64-33.12-9.17-49.35C699.17,129.79,688.86,116,673.73,106c-6.52-4.31-13.42-6.74-21.25-6.53s-15.8-.68-23.67-1.59a57.68,57.68,0,0,0-16.75.06c-16.36,2.89-32.71,5.72-49.24,7.38-8.26.83-16.32,3.13-24.62,3.72-14.3,1-28-1.87-41.54-6.32-10.83-3.57-21.5-7.63-32.59-10.43-12.32-3.12-24.09-1.79-35.68,3.11a139.82,139.82,0,0,0-17.05,8.75c-15.74,9.41-29.19,21.23-38.31,37.63-3.52,6.33-7,12.7-10.62,18.95-7,12-14.72,23.55-24.42,33.56-8.19,8.45-17.87,11.16-29.15,8.11a73.47,73.47,0,0,1-14.48-5.94,68.56,68.56,0,0,0-36.46-7.38c-17,1-33.9,2.22-50.78,4.16a91.83,91.83,0,0,0-37.51,13.12c-16.16,9.82-29.47,22.83-40.94,37.82-16.89,22.08-31.16,45.9-44.45,70.36-14.87,27.35-24.81,56.7-34.13,86.31-6.14,19.49-4.64,38.8,1.23,58A49.5,49.5,0,0,0,70.23,485c3.62,2.62,7.39,5,11.14,7.44A157.91,157.91,0,0,1,111,516.83a63.82,63.82,0,0,1,16.62,31.83c3.29,16.7,2.08,33.29-.94,49.81-4.34,23.68-12.37,46.28-20.48,68.79-8.61,23.89-15.34,48.17-19,73.4-2.63,18.05-.74,34.76,9.39,50.25C102.34,799.74,107.42,809,113,818c3.08,5,6.19,10,10.49,14.05a231.46,231.46,0,0,0,36.83,28.48c7.42,4.59,14.93,9,22.27,13.76,8.32,5.34,16.52,10.9,24.75,16.39,6.69,4.45,13.72,7.13,21.89,5a44.14,44.14,0,0,1,6.32-.73c6.09-.62,12.19-.13,17.48,2.88,6,3.43,12.36,4.1,18.94,4.46a140.94,140.94,0,0,1,45.55,10.46c14,5.67,26.06,14.53,37.72,23.94A127.77,127.77,0,0,0,412.14,963c20,3.87,39.43,9.6,57.31,19.86,7.73,4.44,15.67,8.61,23,13.67,15.42,10.64,32.26,12.1,50,9.23,10.62-1.72,20.13-6.72,30-10.62,17.79-7,36.06-11.6,55.32-10.69a16.71,16.71,0,0,0,8.9-2.1c15.34-8.3,30.76-16.51,45.21-26.37,18.24-12.44,33.93-27.87,48.63-44.36a127.59,127.59,0,0,0,24.72-40.27q5.7-15.15,12.14-30c6.17-14.22,13-28.08,21.61-41,12.24-18.4,28-33.53,43.76-48.57,10-9.53,19.86-19.24,29-29.65a221.74,221.74,0,0,1,21.81-22c19.47-16.73,39-33.43,58.29-50.34,16-14,18.8-25.09,12.24-45.63-3.22-10.12-7.65-19.74-11.57-29.57-6.63-16.6-10.6-34.1-16.38-51a57,57,0,0,1-2.27-10.95c-1.73-12.91-5.1-25.4-9-37.79a44,44,0,0,0-6.36-12.49c-14.16-20-24.42-41.87-28.88-66.31q-4-21.75-8-43.48c-3.38-18.2-7.88-36.07-15-53.19A27.17,27.17,0,0,0,846,286.62a36.53,36.53,0,0,0-13.46-5.11c-10.45-1.91-20.89-3.87-31.08-7-14.23-4.39-28.59-8.28-43.39-10.19a33.12,33.12,0,0,1-17.22-7.82,107.43,107.43,0,0,1-16-16.24,49.25,49.25,0,0,1-10-25.36C714.19,209,714.85,203.12,715.11,196Z" transform="translate(-19.25 -8.31)"/><path class="cls-5" d="M702,332c-5.56,8.4-5.5,8.35.32,15.77a57.43,57.43,0,0,1,4.32,7c5.17,9.06,12.73,14.49,23,16.14a48.91,48.91,0,0,0,21.23-.94c9.87-2.74,19.64-3.49,29.62-.25,5.4,1.76,7.74.4,10.36-4.64,1.16-2.25,1.94-4.7,2.91-7,1-2.54,2.65-4.39,5.61-4.27s4.86,2,5.94,4.81c2.13,5.51-.43,14.22-5.6,18.67-6.09,5.24-13.21,7.3-20.47,3.83-9.89-4.72-19.76-4-30-2.42A57.74,57.74,0,0,1,719,375.06a33.48,33.48,0,0,1-17.41-14.84,10.39,10.39,0,0,0-6.16-4.92,29.19,29.19,0,0,1-11.93-7c-5.28-5.42-3.57-12.83,3.53-15.41a11.45,11.45,0,0,1,3.36-.85C694.05,331.91,697.68,332,702,332Z" transform="translate(-19.25 -8.31)"/><path class="cls-5" d="M212.34,736.47c.89,3.16.18,5.64-.66,8-1.92,5.46-.84,10.47,2,15.22,5.61,9.4,11,19,17.05,28,5.05,7.52,7.55,14.83,3.56,23.66-1.68,3.7-.58,5.17,3.62,6.17a59.38,59.38,0,0,0,22.42,1c5.92-.84,11.81-2,17.83-1.59a33.32,33.32,0,0,1,3.47.15c2.46.44,5.16.74,6.22,3.56,1,2.56-.26,4.61-2.13,6.25-2.25,2-4.8,3.9-7.77,1.87-3.17-2.17-6.31-1.82-9.88-1.57-11.56.78-23.15,0-34.67-1.06-7.67-.73-10.32-6.47-7-13.68a44.32,44.32,0,0,1,3.1-5.66c2.37-3.59,2.35-7.21-.38-10.32-8.88-10.09-14.07-22.49-20.83-33.9-.6-1-1.13-2.06-1.67-3.1C202.3,751.07,204.23,742.85,212.34,736.47Z" transform="translate(-19.25 -8.31)"/><path class="cls-5" d="M871.1,510A45,45,0,0,1,864,520.7a34.39,34.39,0,0,0-8.36,18.42c-.35,2.74.08,4.48,3.08,5.2,5.89,1.42,9.39,5.84,10.64,11.37,2.35,10.47,7,19.91,11.37,29.52a35.18,35.18,0,0,1,3,17.78,96.45,96.45,0,0,0-.07,14.12c.45,7.09-1.41,9.88-7.94,12.6-1.78.74-3.62,1.34-5.43,2-5.13,1.85-10.09,3.94-13.53,8.59-.79,1.07-1.85,2.33-3.36,1.56s-1.66-2.59-1.31-4.15c.66-3,2.66-5.09,5-6.93,3.76-2.94,8.27-4.17,12.5-6,7-3.08,7.56-3.58,6.47-10.87-.61-4,.09-7.86.76-11.68A27.75,27.75,0,0,0,874.39,585a204.48,204.48,0,0,1-10.31-25.57c-1.61-5-4.81-8.26-10.75-7.89-4.22.27-6.47-2.11-5.51-6.13,1.75-7.39,2.6-15.13,6.41-21.9C857.89,517,862.64,511.82,871.1,510Z" transform="translate(-19.25 -8.31)"/><path class="cls-5" d="M662.17,669.87c3.48,4.21,3.8,6.59.71,9.32a40.67,40.67,0,0,0-9.08,12.08,14.8,14.8,0,0,1-7,6.8,20.34,20.34,0,0,0-2.55,1.4c-7.3,4.73-9.45,11.58-6.18,19.64,1.67,4.11,4.22,6.73,9,7.06,5.17.36,10.31,1.41,15.45,2.21a21,21,0,0,1,7.11,2.38,42.15,42.15,0,0,1,19,21.46,6.51,6.51,0,0,1,.42,1.7,5.61,5.61,0,0,1-.24,1.37c-3.21-1.34-6.42-2.52-8.91-5.08-8.59-8.8-19.28-13.49-30.89-16.42-2-.52-4.12-1-6.11-1.77a10.58,10.58,0,0,1-5.11-3.71c-5.14-7-5.7-21.81-1.16-29.16a14.92,14.92,0,0,1,6.64-5.5,15.34,15.34,0,0,0,6.6-5.55c2.62-4.12,5.1-8.33,9.66-10.69C662.25,676,661.17,672.85,662.17,669.87Z" transform="translate(-19.25 -8.31)"/><path class="cls-5" d="M121.06,365.05c.49,3.91-1.44,6.12-3.43,8.31a37.25,37.25,0,0,0-8,12.84,23.12,23.12,0,0,0-.32,15c2.33,7.07,4.7,14.12,6.77,21.28a30.7,30.7,0,0,0,5.74,10.84c2.48,3,4.52,3.7,8.13,2.14,2.68-1.16,4.79-1.47,6.38,1.46a6,6,0,0,1-1.74,7.37c-3.57,2.76-7.54,2.73-11.51,1-5.52-2.36-8.74-7-10.94-12.38-4.17-10.17-6.85-20.87-9.6-31.47-3-11.58.08-21.73,9.87-29.22C115.31,370.06,118,367.59,121.06,365.05Z" transform="translate(-19.25 -8.31)"/><path class="cls-5" d="M457.19,818.77c9.57,8,16.85,16.34,18.81,28.28,1.12,6.8,3.62,12.72,8.47,17.64,4.09,4.15,7.93,8.56,11.91,12.83a15.17,15.17,0,0,1,3.64,5.24c.66,1.93,1,4-.69,5.48s-3.73.47-5.24-.78c-3.3-2.71-6.54-5.49-9.66-8.4-4-3.7-8.33-6.94-11.68-11.36-3.15-4.15-5.68-8.64-6-13.8-.45-8.13-3.74-15.13-7.15-22.18C456.83,825.92,456.79,825.51,457.19,818.77Z" transform="translate(-19.25 -8.31)"/><path class="cls-5" d="M724.17,515.19a7.71,7.71,0,0,1,6.62,1.33c9.78,6,19.21,12.5,26.07,22,6.33,8.81,11.71,18.07,11.06,29.62-.14,2.37.53,4.17,2.77,5.3,1.8.92,3.26,2.23,2.51,4.66a6,6,0,0,1-5.93,3.82,8.63,8.63,0,0,1-7.75-6.84,13.9,13.9,0,0,1-.19-4.68c1.66-10.75-3.29-19-9.7-26.66a93.79,93.79,0,0,0-11.75-11.31C732.34,527.81,729,521.3,724.17,515.19Z" transform="translate(-19.25 -8.31)"/><path class="cls-5" d="M257.08,478.29a9.73,9.73,0,0,1-.54,2.16c-10.24,17.46-13.9,37.39-20.25,56.31a54.83,54.83,0,0,0-2.15,9.76,206.34,206.34,0,0,1-5,25.4,28.09,28.09,0,0,0,0,16.27c2.44,7.61.15,13.41-6.14,17.92-2.52,1.8-4.79,4-7.3,5.78-1.26.91-2.93,1.57-4.11-.12-.95-1.37,0-2.65,1-3.63,2.65-2.56,5.29-5.16,8.09-7.56,3.35-2.88,4.4-6.18,2.9-10.48-2.43-6.91-2-13.88-.06-20.86a95.66,95.66,0,0,0,3.67-19.65c1-14.66,5.57-28.5,9.79-42.35,3-9.81,7.74-18.86,15-26.27C253.11,479.66,254.21,477.83,257.08,478.29Z" transform="translate(-19.25 -8.31)"/><path class="cls-5" d="M447.2,214.66a314,314,0,0,0-17.64,29.89c-4.8,9.31-12.5,14.71-21.71,18.34a57.09,57.09,0,0,0-9.78,5c-4.8,3.05-9.89,5-15.78,5-4.83-.07-8.41-2.44-12-5.08a2.58,2.58,0,0,1-1-3.1,2.3,2.3,0,0,1,2.93-1.26,13.37,13.37,0,0,1,3.77,1.39,14.2,14.2,0,0,0,15.43-.39c6.93-4.4,14.42-7.37,21.88-10.48,7.07-2.94,11-9,14.9-15.11,3-4.58,5.74-9.3,8.6-14C439.19,220.86,442.58,217.82,447.2,214.66Z" transform="translate(-19.25 -8.31)"/><path class="cls-5" d="M629.9,302c-7-4.48-13.75-9-20.68-13.18-10.55-6.36-18.16-14.91-21.5-27.2-1.43-5.28-3.58-10.35-5.39-15.52a34.84,34.84,0,0,1-1.23-3.92c-.37-1.7-1-3.77,1.18-4.58,1.83-.7,2.73,1.09,3.52,2.38a61.62,61.62,0,0,1,7.13,16.68c3.2,12.52,10.6,21.35,21.35,28C620.87,288.73,626.76,293.93,629.9,302Z" transform="translate(-19.25 -8.31)"/><path class="cls-5" d="M456.42,580.85c.25-2.83,2.59-3.45,4.28-4.49,5-3.05,7.91-6.93,7.85-13.3-.05-5.34,2.91-10,5.64-14.43,3.7-5.94,5.5-11.89,3.6-18.92A44.51,44.51,0,0,1,476,515.18c.16-2.41.17-5,3.3-6.94.4,4-.58,7.56,1,10.8a86.2,86.2,0,0,1,3.84,9.2c2.42,6.81,2.15,13.51-1.58,19.82-1.77,3-3.27,6.1-5.56,8.85-1.9,2.29-2.74,5.57-3,8.73-.46,6.15-3.74,10.24-9.13,12.44C462.18,579.17,459.89,581.92,456.42,580.85Z" transform="translate(-19.25 -8.31)"/><path class="cls-5" d="M440.84,710.88c1.62,2.61,1.59,5.18,1.53,7.71-.21,8.13,4.32,13,10.77,16.67.5.28,1.07.43,1.59.68,1.46.68,3.91.5,3.47,3.06-.39,2.23-2.46,2.9-4.38,3.26a6.7,6.7,0,0,1-2.81-.37c-9.62-2.58-17-17.15-13.49-26.55A8.21,8.21,0,0,1,440.84,710.88Z" transform="translate(-19.25 -8.31)"/><path class="cls-5" d="M678.23,705c-4.5-2.93-10.57-13-10.73-17.72a7.46,7.46,0,0,1,0-1.16c.13-1.17.27-2.49,1.7-2.63,1.13-.11,1.59,1,1.86,1.87a73.74,73.74,0,0,0,4.7,11.28c.83,1.73,1.57,3.5,2.44,5.21C678.78,702.89,679.25,703.89,678.23,705Z" transform="translate(-19.25 -8.31)"/><path class="cls-5" d="M679.48,706.44l-.19.4-.55-.42.38-.4Z" transform="translate(-19.25 -8.31)"/></g></svg>