<?xml version="1.0" encoding="utf-8"?>
<!-- Generator: Adobe Illustrator 26.0.3, SVG Export Plug-In . SVG Version: 6.00 Build 0)  -->
<svg version="1.1" id="Layer_6" xmlns="http://www.w3.org/2000/svg" xmlns:xlink="http://www.w3.org/1999/xlink" x="0px" y="0px"
	 viewBox="0 0 928.7 1047.2" style="enable-background:new 0 0 928.7 1047.2;" xml:space="preserve">
<style type="text/css">
	.st0{fill:#8621FE;}
	.st1{fill:#6814C4;}
	.st2{fill:#4F0B9F;}
</style>
<path class="st0" d="M894.3,643c-0.3,6.6-3.1,12.4-6.1,17.9c-8.2,15.1-18.1,29.2-30.5,41.2c-5.1,5.1-11.8,8.4-18.9,9.5
	c-3.6,0.5-6.7,2.6-8.4,5.8c-3.2,5.1-6.6,10.1-9.8,15.2c-6.7,10.4-15.2,18.2-27.7,20.8c-2.1,0.4-3.8,1.9-4.6,3.8
	c-1.5,3.1-3.2,6-4.4,9.2c-5.7,14.6-13.1,28.4-20.6,42.2c-8.7,16.1-15.7,33-23.5,49.6c-2.7,5.8-5.4,11.7-8.3,17.3
	c-4.2,8.1-10.3,14.3-18.8,18c-1.4,0.6-3,1.1-4,2.1c-4.8,5.5-11.3,8.7-16.5,13.7c-7.8,7.6-17.3,11.9-27.9,13.9
	c-16.3,3-33,3.8-49.5,2.3c-0.6,0-1.1-0.1-1.7-0.2c-10.8-4-21.6-1-32.3,0.6c-11.9,1.8-23.8,3.8-35.4,7.3c-2.7,0.8-5.6,1.7-7.1-2.2
	c-0.6-1.5-2.1-1.1-3.5-0.8c-18.6,4.1-36,10.6-50.7,23.4c-6.7,5.8-10.3,12.9-10.1,21.7c0.3,9.3-3,18.5-9.3,25.3
	c-2.5,2.7-3.3,5.4-2.5,8.7c3,13.3-6,27.1-18.5,32c-11.5,4.5-23.1,6.8-35.3,3.6c-3-0.6-5.7-2-7.9-4c-5.9-5.9-13.8-8.4-20.4-13.1
	c-1.7-1.2-4.3-1.4-6.5-1.8c-8.7-1.8-17-4.9-24.8-9.3c-2.8-1.6-5.8-2.8-8.9-3.6c-9.4-2.3-18.2-6.4-26-12.1c-4.4-3.3-8.5-7-9.8-12.7
	c-0.5-2.2-2.2-3.4-3.9-4.7c-9.8-7-18.8-15.1-27.9-23c-13.4-11.6-25-25.2-34.4-40.3c-8.5-13.5-19.5-24.9-29.1-37.5
	c-4.6-6-11.6-9.5-17.2-14.6c-3.1-2.7-6.1-5.6-8.8-8.7c-5-6.2-11.2-11.2-18.3-14.9c-17.9-8.8-30.9-23.2-42.5-39
	c-4.2-5.8-8.5-11.5-12.6-17.4c-8.2-11.8-17.4-22.7-27.7-32.7c-6.5-6.3-12.9-12.7-17.4-20.7c-0.3-0.5-0.6-0.9-0.9-1.5
	C58.5,719.4,49.9,707.1,43,694c-2.7-5.2-5.5-9.9-10.2-13.9c-5.6-4.9-9.2-11.7-10.2-19.1c-1.9-13.1-2.5-26.3-0.2-39.4
	c1.6-10,7.5-18.9,16.2-24.2c2.8-1.5,4.7-4.4,4.9-7.6c1.3-13.1,2.2-26.3,4.1-39.3S45.4,525,43,512.4c-0.4-2.2-0.9-4.4-1.2-6.7
	c-1-7-2.9-13.6-7-19.5c-8.5-12.3-13.2-26.1-15.9-40.8c-2.3-13-5.8-25.7-8-38.7c-3.6-22.1,1.1-41.9,13.6-60.1
	c4.2-6,7.1-12.9,8.4-20.1c1.6-9.2,5.6-17.6,9.3-26c1.7-3.6,2.1-7.6,1.2-11.4c-1.7-8.6-1.4-17.4,0.9-25.8c2.6-9.6,4.4-19.5,5.2-29.4
	c0.4-5.5,1.5-10.8,6.1-14.7c1.6-1.4,1.8-3.7,2.3-5.7c1.8-6.6,5.1-12.4,9.2-18.2c0.4,2.1-0.5,4.1,1.4,5.2c1.6-0.7,1.2-2.2,1.5-3.4
	c3-12.6,9.7-22.7,20.6-30c4.2-2.6,8.8-4.3,13.7-5c3.5-0.6,6.8-2.1,9.6-4.2c9-6.5,19.1-9.4,29.9-5.7c8.1,2.8,16.2,3.1,24.5,2.9
	c8.8-0.1,17.6-0.7,26.4,1.8c5.1,1.5,9.8-0.5,12.7-5.2c4.1-6.6,9.9-11.9,16.8-15.5c2.5-1.3,4.6-3.3,6.1-5.7c3.6-5.6,7.9-10.6,12.8-15
	c6.7-6.1,13.4-12.1,20.1-18.2c3.9-3.6,8.4-6.4,13.4-8.3c6.1-2.2,10.2-7,14.8-11.1c9.5-8.3,19.8-15.7,30.7-22
	c6.5-3.8,12.5-8.4,19-12.2c11.8-6.9,25-10.4,38.2-13.6c8.6-2.1,17.4-3,26.1-4.7c9-1.7,18-4.2,27-6.1c7.7-1.7,15.6-2.7,23.5-2.9
	c9.3-0.2,18.4,1.8,26.8,5.9c2,1,4,2.2,6.4,2.2c11.8,0,22.4,4.6,33.1,8.8c7.4,2.9,14.1,7.2,20.8,11.4c6.6,4,13.2,7,21.3,6
	c5.1-0.6,10.1,0.7,15,2.3c2.3,0.8,4.8,1,7.2,0.5c2.6-0.5,5.2-0.7,7.9-0.7c11.9-0.1,23.8-0.3,35.6,0s23.7-1.2,35.6-1.6
	c2.1-0.2,4.1-0.5,6.1-1c1.7,2.6,4.9,3.9,7.9,3c4.3-1,8.4-0.4,12.7-0.1c11.7,0.9,23.2,4.1,33.7,9.4c2.8,1.4,5.7,2.8,8.9,3.1
	c5,4.9,8.6,11,10.6,17.7c0.9,3.1,2.2,6,3.7,8.8c3.5,6.5,6.1,13.4,7.6,20.6c1.6,8.1,5,15.3,8.7,22.5c5.4,10.7,10.2,21.8,15.1,32.8
	c3.7,8.4,5,17.4,6.4,26.3c2.5,14.5,6,28.8,10.5,42.8c4.8,15.3,8,31,11.6,46.6c1.8,7.7,4.5,15.1,6.8,22.7c0.4,1.7,1.6,3.1,3.2,3.6
	c12.5,4.2,20.4,13.8,27.9,23.8c11.7,15.6,19.5,33.7,22.8,53c0.7,4,1.6,7.9,4,11.6c12.9,20.1,23.3,41.4,27.9,65
	c0.6,2.6,1,5.2,1.2,7.8c0.7,8.2,1.4,16.4,3.8,24.4c1.4,5.3,1.7,10.8,1,16.3c-0.4,3.7-0.6,7.5-0.4,11.3c0.6,14-0.5,27.8-4.8,41.3
	c-2.5,8-1.6,16.5-2.5,24.7c-0.9,9-1.3,18-2.1,27c-0.2,2.3,0.2,4.1,2.9,4.5c-0.3,1.6-1.7,2-2.9,2.4c-3.2,1.1-6.1,3-8.4,5.5
	c-6.1,5.9-12.8,11.1-19.2,16.6c-13,11.1-27.1,20.8-41.1,30.6c-7.5,5.3-15.5,10.2-22.2,16.4c-16.3,15.1-31.6,31.1-43,50.5
	c-9.1,15.4-17.7,31-23,48.3c-3.9,12.8-8.7,25.2-14.6,37.3c-8.1,17-19.3,32.3-32.9,45.3c-8.5,8.3-18.6,14.7-29.7,18.9
	c-24.3,9.1-49.3,16.1-74.8,20.9c-10.3,1.8-20.5,4.5-30.5,7.9c-4.8,1.6-9,4.5-12.2,8.4c3,0.5,5.1-0.5,7.1-1c8.5-2.2,17.2-3.9,25.9-5
	c8.8-1.1,17.6-2.8,26.6-2.9c8.8-0.2,17.7-2.8,26.3-5.6c7.2-2.3,14.3-4.6,21.5-6.7c3.6-1,7.4-2.2,9.9,2.3c0.8,1.5,2.5,1.5,4,1.5
	c2.6-0.1,5.2-0.9,7.4-2.4c8.7-5.2,17-11.1,24.8-17.6c4.5-3.9,7.7-8.7,12-12.6c1.3-1.2,3-3.2,2.9-4.7c-0.3-5.6,4-8.7,6.2-12.9
	c0.6-1.4,1.8-2.5,3.3-2.9c2.7-0.5,3.7-2.5,4.3-4.8c1.4-6.1,5.2-11.3,7.3-17.1c0.5-1.2,1.3-2.3,2.5-3c5.1-3.1,6.6-8.7,8.2-13.5
	c2.2-6.6,4.5-13.1,6.7-19.7c1.2-3.7,1.2-8.4,7-8.3c0.7,0,1.4-1.1,2.1-1.8c2.4-2.2,4.2-4.9,5.4-7.8c2.2-5.8,5.2-11.3,8-16.8
	c3.1-6.2,6.3-12.4,12.6-16.2c1.9-1.3,3.5-2.9,4.8-4.8c6.5-8.6,14.7-15.6,21.8-23.7c10.9-12.5,24.1-22.7,35.6-34.7
	c2.4-2.5,4.8-4.8,5.1-8.5c0.2-1.3,1-2.5,2.2-3.2c12.5-8.6,22.8-19.5,33.4-30.2C892.1,644.3,892.8,643.2,894.3,643z M665.1,149.5
	c-2.9,0.4-5.2,0-7.4,0.7c-10.1,3.1-19.4,8-28.9,12.3c-5.9,2.7-10.1,7.9-14.2,12.8c-5.9,7-10.6,14.7-9.2,24.5c0.1,0.6,0.1,1.1,0,1.7
	c-1.1,5.1,0.2,10,1.7,14.8c3.1,9.8,9.2,17.7,16,24.9c12.9,14,26.5,27.2,40.8,39.8c10.1,8.7,20.9,16.5,32.4,23.3
	c4,2.4,8.2,4.5,13,5.1c5.2,0.6,9.4-3.4,7.9-9.3c-0.9-3.3-2.5-6.3-4.8-8.8c-2.3-2.5-4.5-5.1-6.5-7.8c-4.2-6.2-8.6-12.4-7.7-20.6
	c0.3-2.5-0.9-4.8-1.9-7c-1.6-3.6-3.5-7.1-5.9-10.2c-3.2-4.3-3.2-4.5-0.6-8.9c0.8-1.5,2.2-3,2.2-4.5c0.1-5.9,2.9-11.1,3.8-16.7
	c1-6.4,1.9-13,1.4-19.6c-0.3-1.9-0.1-3.8,0.4-5.6c1.7-4.6,0.1-8.1-3.3-11.1c-2-1.5-3-4-2.8-6.4c0.4-4.1-1.5-7.7-3.5-11.1
	C682.6,152.6,673.9,150.2,665.1,149.5z M22.9,415.3c-0.6,4.3,0.7,9.9,1.2,15.5c0.4,4.7,0.7,9.4,1.4,14c0.3,2.4,1.1,4.8,3.2,6.5
	c1.6,1.1,2.5,3,2.2,4.9c-0.4,3.6,1.3,7,1.3,10.6c0.1,1.9,1,3.7,2.4,5c2.6,2.6,6.2,2,7.9-1.3c0.8-1.5,1.1-3.2,0.9-4.9
	c-0.4-4.5-0.8-9-1.3-13.4c-1.4-11.4-2-22.8-1.8-34.2c0.1-5.6,1-11.2,0.9-16.8c-0.2-8.8,0.6-17.6,2.4-26.3c1.6-8,3.2-16.2,8-23.3
	c2.2-3.3,3.9-6.9,4.9-10.8c2.8-11.3,4.8-22.7,5-34.4c0.1-5.2,0.7-10.5-0.9-15.7c-0.1-0.9,0-1.9,0.3-2.8c4.5-16.4,7.4-33.4,14.4-49.1
	c4.7-10.5,10.3-20.6,18.9-28.5c2.3-2.1,4.8-4.2,7.3-6.2c7.9-6.4,15.9-12.5,24.9-17.4c10.9-5.9,22-11.6,33.1-17.1
	c2.3-1.2,4.4-2.9,6.1-4.9c0.7-0.7,1.2-1.7,0.4-2.5c-1.7-2-3.1-4.5-6.1-4.6c-5.3-0.1-10.5-0.5-15.8,0.4c-8.4,1.4-16.2,4.5-24.1,7.6
	c-2,0.8-3.7,1.2-5.8,0c-4.6-2.5-8.8-1.9-12.8,1.7c-8,7.1-16.3,13.9-24.6,20.6c-2.8,2.2-4.2,4.9-4,8.2s-1.5,6.2-2.6,9.1
	c-0.9,2.4-2.6,2.6-4,0.5c-1.8-2.9-2.8-1.1-3.5,0.4c-1.1,2.4-1.8,4.9-2.7,7.4c-1,2.6-1.4,5.6-3.7,7.5c-3.7,3-4.5,7.4-4.8,11.7
	c-0.8,11.6-3.2,23-5.5,34.4c-1.7,8.7-2.7,17.4,0.4,26.1c1.3,3.6,2.3,7.7,1.4,11.6c-0.8,3.9-1.2,7.8-1,11.8c0.1,2.9-1,5.6-3.1,7.6
	c-1.6,1.6-3.3,3.1-4.2,5.3c-1.8,4.7-3.9,9.4-5.5,14.2C26.4,366.5,23.3,390,22.9,415.3z M427.6,1042.6c17.8-0.4,24.4-12.1,24.9-25.6
	c0.1-3.8,0.3-6.9,3.1-9.5c1.3-1.2,1.9-2.9,1.7-4.6c-0.2-2.3,0.3-4.6,1.5-6.5c1.5-2.2,2.1-4.9,1.8-7.5c-0.5-3.3,0.8-5.8,3.3-7.9
	c6.8-5.8,9.5-13.8,12.2-21.9c0.4-1.5,0.5-3,0.3-4.5c-0.2-3.2-1.9-4.5-5-5c-4-0.5-6.7,1.8-9.6,3.9c-14.4,10.2-29,20-45.5,26.9
	c-16.2,6.8-32.9,10-50.2,11.1c-9.2,0.6-18.3-1.6-27.6-1.2c-1.1,0-2.2-0.6-3.3-0.8c-8.2-1-16.3-2.8-24.1-5.4
	c-1.7-0.5-3.4-0.8-4.7,0.7s-0.8,3.1-0.2,4.8c1.2,3.2,3.3,5.9,6,8c7.9,6.1,17,10.5,26.6,13.2c1.8,0.4,3.6,1.1,5.3,1.9
	c5.1,2.8,11,4.1,16.8,3.7c8.6-0.4,17.3,1.2,25.2,4.5c2.9,1.2,5,2.6,5.5,5.8c1.1,7.1,6.4,9.3,12.4,10.2s11.9,1.1,17.1,4.6
	C423.2,1042.5,425.5,1042.9,427.6,1042.6z M512.5,585.4c3.4-0.1,6.8,0.2,10-1.2c3.9-1.7,4.6-4,2.2-7.5c-1.4-2-3.3-3.6-5.6-4.6
	c-1.9-0.8-3.2-2.1-3-4.3c0.4-4.1-2.2-6.1-5.4-7.8c-2.3-1.2-4.7-2.4-7.1-3.5c-3.6-1.6-7.4-2.8-9.2-6.8c-0.7-0.9-1.6-1.6-2.7-1.9
	c-4.2-1.6-8.3-3.2-13-3.2c-7,0-13.8,0.4-20.5,2.8c-7.4,2.7-15.2,4.5-22.5-1c-0.5-0.3-1-0.5-1.6-0.6c-12.8-3.4-24.5-9.6-36.2-15.5
	c-5.1-2.8-10.1-5.9-14.8-9.3c-9.5-6.5-18.2-14.3-30.2-16.9c-8-1.7-15.7-5-23.6-7.6c-1-0.3-2.4-0.8-3.3-0.4
	c-5.2,2.1-9.4-0.7-13.9-2.4c-5.4-2-10.4-5.7-16.4-5.5c-2.3,0.1-5-2.9-6.7,0s1.7,4.7,2.7,7c2.2,4.7,5.6,7.9,11.3,7.6
	c1.4-0.1,2.5,0.7,3.8,1.1c14.6,4.9,28.5,11.7,42.8,17.4c8.2,3.2,15.6,7.3,21.2,14.4c0.4,0.4,0.8,0.8,1.2,1.2
	c7.6,7.1,16.3,12.8,25.8,16.8c5.3,2.3,10.6,4.7,15.3,8.2c8.5,6.3,18,11.1,28.1,14c11.9,3.6,24.2,4.9,36.5,6.1
	c5.4,0.5,10.8,0.6,16.2,1.3C500.2,584.2,506.3,585.2,512.5,585.4z M290.8,97.6c2.6,0.4,5.5-0.4,8.4-1.4c4.3-1.4,8.5-3,12.6-5
	c10.7-5.5,21.4-10.9,32-16.5c9.5-5,19-10,29.5-12.4c15.7-3.6,31.7-6.7,46.3-13.7c10.3-4.9,21.1-6.2,32.1-7.6c1.5-0.1,3-0.1,4.5,0.2
	c7.8,1,15.6,2.2,23.5,2c10.2-0.3,19.7,2.2,29,5.9c9.7,4,19.7,7.4,29.8,10.4c5.8,1.7,11.4,2.3,17.6,0.2s12.9-4.4,19.8-1.8
	c0.9,0.2,1.9,0.2,2.8,0.1c0.9,0,2.1,0.2,2.3-1c0.3-1.4-0.9-1.9-1.9-2.3c-1.4-0.5-2.9-0.8-4.3-1.2c-4.6-1.2-9.3-1.6-14-1.1
	c-4.9,0.4-9.8-0.5-14.3-2.6c-5.8-2.6-11.8-4.8-18-6.7c-12.2-3.8-24.6-7-36.5-11.6c-14.6-5.6-29.8-7.8-45.1-8
	C433.2,23.4,420,28,407,32.3c-12.4,4.2-23.2,11.9-35.9,15.9c-11.4,3.6-22.2,9.2-33.2,14.1c-8.2,3.7-16.9,6.7-23.6,12.9
	c-6.2,5.8-13.6,10.2-21.5,13.1c-1.9,0.8-3.7,1.9-5.2,3.3c-1.5,1.2-4,2.4-3,4.8c0.9,2.1,3.4,0.9,5.1,1.2
	C290.1,97.6,290.5,97.6,290.8,97.6z M181.5,504c6.7,0.5,14.7-1.7,22.6-3.9s14.5-6.9,18.1-14.3c3.4-7.2,7.4-14.4,7.7-22.8
	c0.1-1.1,0.5-2.2,1-3.2c2.8-6.7,8-12.1,14.5-15.2c2.1-0.9,4.1-2,6-3.1c3.1-1.9,4.2-5.3,3.2-9.4c-0.9-3.7-4-2.6-6.4-2.9
	c-4.3-0.6-8,1.9-12.1,2.3c-9.9,0.9-19.5,4.1-28,9.3c-7.2,4.5-14.4,9.2-19.5,16c-4.5,6.1-9.5,11.6-14.3,17.3
	c-5.5,6.4-8.3,14.3-12,21.7c-0.2,0.5-0.3,1.1-0.2,1.7c-0.1,3,0.9,4,4,3.7c0.9-0.1,2-0.7,2.7,0.1C171.8,504.8,176,503.7,181.5,504z
	 M397.3,157.1c0,3-0.1,6,0,9c0.4,9,3.4,17,9.9,23.3c5.3,5.1,11.6,8.9,18.2,12.2c3.5,1.7,5.7,1.6,6.5-0.4c1.1-2.9-1.2-3.9-3.1-5.2
	s-4-2.6-4.2-5c-0.5-5.1-2.5-9.9-5.9-13.8c-1.6-1.9-1.4-3.8,0.3-5.6c2-2.3,4.1-4.4,7.7-3.8c5.9,1,10-1.9,13.7-6.1s4.4-8.1,1.8-12.9
	c-2-3.4-4.3-6.6-7-9.5c-3.1-3.7-7.2-5.2-11.6-4.1s-7.5,0.6-11.4-2.1c-6.3-4.6-12.3-1-13.7,6.7C397.3,145.5,397.4,151.3,397.3,157.1z
	 M287.6,378.8c-0.2,2.9-0.1,6,3.2,7c2.8,0.9,5.9,1,8.4-1.5c2.2-2.3,4.2-4.8,6-7.5c8-11.6,17.2-21.9,29.6-28.9
	c8.4-4.7,17-9,23.8-15.9c1.3-1.3,3.6-2,3.3-4.2c-0.3-2.6-3-1.8-4.6-2.3c-4.6-1.5-9-3.7-14-4c-11.1-0.5-21.1,2-29.7,9.7
	c-7.9,7.1-13.7,16.2-16.6,26.4c-0.8,2.8-2.1,5.5-3.9,7.8C290.2,369.4,287,373.3,287.6,378.8z M426.2,888.6c2.4,0.5,5.3-0.4,8.1-1.6
	c9.6-4.2,19.7-7.3,30-9.2c7.4-1.3,14.2-4.6,21.8-5.5c4.3-0.5,7.6-3.1,10.3-6.4c1-1.2,2-2.3,1.2-4c-0.6-1.2-2-1.9-3.4-1.6
	c-6.5,0.9-12.8-1.4-19.5-0.2c-11.8,2-23.7,3.3-35.1,7.5c-2.9,1.2-6.1,1.5-9.2,0.9c-4.5-1-9.2,0.3-12.5,3.4c-3.4,3-1.7,6.1-1.3,9.3
	C417.3,887.1,419.1,888.6,426.2,888.6z M133.8,269.8c-0.3,3.1,1.8,4.9,4.1,6.2c2.5,1.5,3.4,3.4,4,6.2c1,4.3,0.8,8.6,0.9,12.9
	c0,2.5,1.6,3.6,3.6,4.5s3.2-0.1,4.5-1.4c0.8-0.8,1.6-1.6,2.3-2.5c2.8-4.2,5.5-8.5,8.3-12.7c3.7-5.4,6-11.9,13.8-13.7
	c4.6-1.1,4.9-5.6,1.5-9.4c-1.2-1.4-2.9-2.4-3.5-4.4c-1.8-6-7.5-6.4-11.9-4.5c-3.6,1.5-6.9,3.8-9.7,6.6c-1.5,1.5-2.9,3-5.3,2.7
	c-4.2-0.6-7.1,1.9-10.2,4C134.4,265.6,133.4,267.7,133.8,269.8z M744.8,523.8c-1.8-6.8-1.2-13.8-1.4-20.7c0-0.4,0-0.8-0.1-1.1
	c-0.3-1.4-1.1-2.5-2.6-2.5c-1.4-0.1-2.6,0.9-2.7,2.2c0,0,0,0.1,0,0.1c-0.3,3.7-2.4,6.2-5,8.5c-1.5,1.4-1.9,3-2,5
	c-0.3,4.2,0.7,8.2,1.5,12.2c0.4,1.8,0,3.6-1.2,5c-1.7,2.3-3.8,4.7-3.2,8.1c1.4,9.1,1.2,18.3-0.5,27.4c-0.3,1.5-0.7,2.9-0.9,4.4
	c-0.5,2.3,0.7,4.6,2.8,5.6c2.2,1.1,5.9,0.6,7.2-1.4c2.8-4.2,5.8-8.3,5.7-13.8c-0.1-8-0.8-16.1-2.1-24c-0.4-2.7-0.3-5.2,1.8-7.3
	S744.8,526.8,744.8,523.8L744.8,523.8z M599.6,681.5L599.6,681.5c2.1,0,4.1,0,6.2,0c1.5,0,3-0.6,4.1-1.6c6.3-5.4,7.3-14.7,2.4-21.4
	c-1.1-1.5-2.4-2.9-3.1-4.7c-2.7-8-6-15.9-4.9-24.6c0.1-1.1,0.1-2.3,0-3.4c-0.4-3-0.8-6-1.4-8.9c-0.2-1.6-1.5-2.8-3.1-2.8
	c-1.6,0-1.9,1.5-2.4,2.7c-0.7,2.1-1.1,4.4-1,6.6c-0.2,7.9,0.7,15.8-1,23.6c-0.6,2.9-0.4,6,0.6,8.9c0.7,1.6,0.6,3.4-0.1,5
	c-2.1,4.5-2.2,9.8-5.5,14c-2.4,3.1-0.4,6.3,3.6,6.6C595.8,681.6,597.7,681.5,599.6,681.5z M155.3,680.4L155.3,680.4
	c-1.5,0-3-0.1-4.5,0c-3.1,0.3-5.5,1.7-6.4,4.8c-3.1,10.2-2.7,20.1,3.7,29.1c2,2.9,4.7,5.5,8.7,5.7c2.9,0.1,4.2-1.2,3.9-4.2
	c0-0.5-0.3-1.1-0.4-1.6c-0.8-5.2-1.3-10,3.1-14.6c3.9-4.1,2.4-10,1.5-15.1c-0.6-2.5-3-4.2-5.5-4L155.3,680.4z M288.1,883
	c-1.5-0.1-3-0.1-4.5,0c-2.3,0.3-4,2.3-3.7,4.7c0,0.1,0,0.1,0,0.2c1.5,7.1,4.9,13.2,11.6,16.3c5.6,2.6,11.8,3.8,18,3.6
	c1.9-0.1,4,0.2,4.8-2s0.9-4.5-0.7-6.4c-1.5-1.5-2.7-3.1-3.8-4.8C305.2,886,296.6,884.3,288.1,883z M620.2,729.2
	c-0.6-5-3.9-9.2-4.4-14.3c-0.1-0.8-0.8-1.3-1.6-1.1c0,0-0.1,0-0.1,0c-0.7,0.2-1.3,0.8-1.5,1.5c-0.2,0.7-0.3,1.5-0.3,2.2
	c0.3,4.2-1.4,7-4.9,9.3c-3.2,2-4.7,5.8-3.7,9.3c0.9,3.4,1.7,6.9,2.6,10.3c1,3.4,2.5,6.7,4.5,9.7c1.6,2.2,4.5,3,7.1,2
	c2.2-0.7,3.7-2.9,3.4-5.2c0.1-1.9-0.2-3.8-0.9-5.5c-1.8-4.1-1.4-8.5-1.3-12.8C619.1,732.8,620.4,731.1,620.2,729.2z"/>
<path class="st1" d="M894.3,643c-1.4,0.2-2.2,1.3-3.1,2.3c-10.6,10.7-21,21.6-33.4,30.2c-1.2,0.6-2,1.8-2.2,3.2
	c-0.2,3.7-2.7,6-5.1,8.5c-11.4,12-24.7,22.2-35.6,34.7c-7.1,8.1-15.3,15-21.8,23.7c-1.3,1.9-2.9,3.5-4.8,4.8
	c-6.3,3.8-9.5,10-12.6,16.2c-2.8,5.5-5.8,11-8,16.8c-1.2,3-3,5.7-5.4,7.8c-0.7,0.7-1.4,1.8-2.1,1.8c-5.8-0.1-5.8,4.6-7,8.3
	c-2.1,6.6-4.5,13.2-6.7,19.7c-1.6,4.8-3.1,10.4-8.2,13.5c-1.1,0.7-2,1.8-2.5,3c-2,5.9-5.8,11-7.3,17.1c-0.5,2.2-1.6,4.2-4.3,4.8
	c-1.5,0.4-2.7,1.5-3.3,2.9c-2.2,4.2-6.5,7.3-6.2,12.9c0.1,1.5-1.6,3.5-2.9,4.7c-4.3,3.9-7.5,8.7-12,12.6c-7.8,6.5-16,12.4-24.8,17.6
	c-2.2,1.4-4.8,2.3-7.4,2.4c-1.5,0-3.2,0-4-1.5c-2.5-4.5-6.3-3.4-9.9-2.3c-7.2,2.1-14.4,4.4-21.5,6.7c-8.6,2.8-17.5,5.4-26.3,5.6
	c-9.1,0.2-17.8,1.9-26.6,2.9c-8.7,1.1-17.4,2.8-25.9,5c-2.1,0.5-4.1,1.4-7.1,1c3.2-3.9,7.4-6.8,12.2-8.4c9.9-3.5,20.1-6.1,30.4-8
	c25.5-4.9,50.5-11.8,74.8-20.8c11.1-4.2,21.2-10.6,29.7-18.9c13.6-13,24.8-28.3,32.9-45.3c5.8-12,10.7-24.5,14.6-37.3
	c5.3-17.3,13.9-32.8,23-48.3c11.4-19.4,26.7-35.4,43-50.5c6.7-6.2,14.7-11.1,22.2-16.4c14-9.8,28.1-19.5,41.1-30.6
	c6.4-5.5,13.1-10.7,19.2-16.6c2.3-2.5,5.2-4.3,8.4-5.5c1.2-0.4,2.6-0.8,2.9-2.4c0.5-0.6,1.3-1,2.1-1c1.8,0.8,3.5-1.7,5.4-0.1
	c0.1,3-2.9,5.2-2.7,8.2l-0.8,1.3c-1.2,0.1-1.6,0.8-1.5,2c-0.6,1.5-1.6,2.8-3,3.7c-2.1,0.3-3.7,2-3.8,4.1L894.3,643z"/>
<path class="st1" d="M734.7,65.8c-3.2-0.3-6.1-1.7-8.9-3.1c-10.5-5.3-21.9-8.5-33.7-9.5c-4.3-0.3-8.4-0.9-12.7,0.1
	c-3,0.9-6.2-0.4-7.9-3c-0.7-5.5,0.8-7.8,5.8-8.9c4.4-0.9,8.9-1.1,12.9-3.6c0.8-0.4,1.8-0.6,2.7-0.4c10.1,0.7,20.1,1.9,29.3,6.7
	c1.9,0.8,3.6,2.1,4.8,3.8c2.4,3.1,5.1,6,8,8.6C738.8,60.1,738.6,61.8,734.7,65.8z"/>
<path class="st0" d="M905.4,628.3c-0.1-3.1,2.9-5.2,2.7-8.2c-1.9-1.6-3.6,0.8-5.4,0.1c2-2.7,5.4-2.6,8.8-5.1
	C909.4,620.3,909.4,625.2,905.4,628.3z"/>
<path class="st0" d="M896.2,639.3c0.2-2.1,1.8-3.8,3.8-4.1C899.8,637.5,898.3,638.7,896.2,639.3z"/>
<path class="st0" d="M903.1,631.5c-0.1-1.1,0.3-1.9,1.5-2C904.9,630.8,904.3,631.4,903.1,631.5z"/>
<path class="st1" d="M665.1,149.5c8.8,0.8,17.5,3.2,22.8,12c2,3.4,3.9,6.9,3.5,11.1c-0.3,2.5,0.8,4.9,2.8,6.4c3.4,3,5,6.4,3.3,11.1
	c-0.5,1.8-0.6,3.7-0.4,5.6c0.5,6.6-0.3,13.2-1.4,19.6c-0.9,5.6-3.7,10.8-3.8,16.7c0,1.5-1.3,3.1-2.2,4.5c-2.5,4.4-2.5,4.6,0.6,8.9
	c2.4,3.2,4.3,6.6,5.9,10.2c0.9,2.2,2.2,4.5,1.9,7c-0.9,8.2,3.6,14.4,7.7,20.6c2,2.7,4.2,5.3,6.5,7.8c2.3,2.5,3.9,5.5,4.8,8.8
	c1.5,5.9-2.7,9.9-7.9,9.3c-4.8-0.6-9-2.7-13-5.1c-11.5-6.8-22.3-14.6-32.4-23.3c-14.3-12.5-27.9-25.8-40.8-39.8
	c-6.8-7.2-12.9-15.1-16-24.9c-1.5-4.8-2.8-9.7-1.7-14.8c0.1-0.6,0.1-1.1,0-1.7c-1.4-9.8,3.2-17.6,9.2-24.5
	c4.1-4.8,8.3-10.1,14.2-12.8c9.5-4.4,18.8-9.2,28.9-12.3C659.9,149.5,662.2,149.8,665.1,149.5z"/>
<path class="st1" d="M22.9,415.3c0.4-25.3,3.5-48.8,11.1-71.6c1.6-4.8,3.6-9.5,5.5-14.2c0.8-2.2,2.5-3.7,4.2-5.3
	c2.1-2,3.2-4.7,3.1-7.6c-0.2-3.9,0.2-7.9,1-11.8c1-3.9-0.1-8-1.4-11.6c-3.1-8.8-2.2-17.5-0.4-26.1c2.3-11.4,4.7-22.7,5.5-34.4
	c0.3-4.2,1.1-8.6,4.8-11.7c2.3-1.9,2.7-4.9,3.7-7.5c0.9-2.5,1.6-5,2.7-7.4c0.7-1.5,1.7-3.3,3.5-0.4c1.4,2.2,3.1,1.9,4-0.5
	c1.1-2.9,2.9-5.7,2.6-9.1s1.2-6,4-8.2c8.3-6.7,16.5-13.6,24.6-20.6c4.1-3.6,8.3-4.2,12.8-1.7c2.1,1.1,3.8,0.8,5.8,0
	c7.9-3.1,15.7-6.2,24.1-7.6c5.3-0.8,10.5-0.5,15.8-0.4c3,0.1,4.4,2.6,6.1,4.6c0.7,0.9,0.2,1.8-0.4,2.5c-1.7,2-3.8,3.7-6.1,4.9
	c-11.2,5.4-22.2,11.1-33.1,17.1c-8.9,4.9-17,11-24.9,17.4c-2.5,2-4.9,4-7.3,6.2c-8.6,7.9-14.2,18-18.9,28.5
	c-7,15.7-9.9,32.6-14.4,49.1c-0.3,0.9-0.5,1.8-0.3,2.8c1.6,5.2,1,10.5,0.9,15.7c-0.2,11.7-2.2,23.1-5,34.4c-1,3.8-2.6,7.5-4.9,10.8
	c-4.8,7.1-6.4,15.2-8,23.3c-1.8,8.6-2.6,17.4-2.5,26.2c0.1,5.6-0.8,11.3-0.9,16.8c-0.1,11.4,0.5,22.9,1.9,34.2
	c0.5,4.5,0.9,8.9,1.3,13.4c0.2,1.7-0.1,3.4-0.9,4.9c-1.7,3.2-5.3,3.9-7.9,1.3c-1.4-1.3-2.3-3.1-2.4-5c0-3.6-1.7-7-1.3-10.6
	c0.2-1.9-0.6-3.8-2.2-4.9c-2.1-1.7-2.8-4.1-3.2-6.5c-0.7-4.6-1-9.3-1.4-14C23.6,425.2,22.2,419.7,22.9,415.3z"/>
<path class="st1" d="M427.6,1042.6c-2.2,0.3-4.4-0.1-6.2-1.3c-5.3-3.5-11.2-3.6-17.1-4.6s-11.3-3.1-12.4-10.2
	c-0.5-3.1-2.5-4.6-5.5-5.8c-8-3.4-16.6-4.9-25.2-4.5c-5.8,0.4-11.7-0.9-16.8-3.7c-1.7-0.8-3.5-1.5-5.3-1.9
	c-9.6-2.6-18.7-7.1-26.6-13.1c-2.7-2.1-4.8-4.8-6-8c-0.7-1.7-1.1-3.3,0.2-4.8s3-1.2,4.7-0.7c7.8,2.6,15.9,4.4,24.1,5.4
	c1.1,0.1,2.2,0.8,3.3,0.8c9.2-0.4,18.3,1.8,27.6,1.2c17.3-1.1,34.1-4.2,50.2-11.1c16.4-7,31.1-16.7,45.5-26.9
	c2.9-2.1,5.6-4.4,9.6-3.9c3.2,0.4,4.8,1.8,5,5c0.2,1.5,0.1,3-0.3,4.5c-2.8,8-5.5,16.1-12.2,21.9c-2.5,2.1-3.7,4.6-3.3,7.9
	c0.3,2.6-0.3,5.3-1.8,7.5c-1.2,1.9-1.8,4.2-1.5,6.5c0.2,1.7-0.4,3.4-1.7,4.6c-2.8,2.6-3,5.7-3.1,9.5
	C452,1030.5,445.4,1042.2,427.6,1042.6z"/>
<path class="st1" d="M512.5,585.4c-6.2-0.1-12.3-1.1-18.4-1.9c-5.4-0.7-10.8-0.8-16.2-1.3c-12.3-1.2-24.6-2.5-36.5-6.1
	c-10.1-3-19.6-7.8-28.1-14.1c-4.7-3.6-10-5.9-15.3-8.2c-9.5-4-18.3-9.7-25.8-16.8c-0.4-0.4-0.8-0.8-1.2-1.2
	c-5.5-7-13-11.1-21.2-14.4c-14.3-5.7-28.1-12.5-42.8-17.4c-1.2-0.4-2.4-1.2-3.8-1.1c-5.7,0.3-9.2-2.9-11.3-7.6c-1-2.3-4.3-4.2-2.7-7
	s4.4,0.1,6.7,0c6-0.2,11,3.4,16.4,5.5c4.5,1.7,8.7,4.5,13.9,2.4c0.9-0.4,2.2,0.1,3.3,0.4c7.8,2.5,15.5,5.9,23.6,7.6
	c11.9,2.6,20.7,10.4,30.2,16.9c4.7,3.4,9.7,6.5,14.8,9.2c11.8,6,23.4,12.1,36.2,15.5c0.6,0.1,1.1,0.3,1.6,0.6c7.2,5.5,15,3.7,22.5,1
	c6.7-2.5,13.5-2.8,20.5-2.8c4.7,0,8.8,1.7,13,3.2c1.1,0.3,2,1,2.7,1.9c1.9,4,5.7,5.2,9.2,6.8c2.4,1.1,4.7,2.3,7.1,3.5
	c3.1,1.6,5.8,3.7,5.4,7.8c-0.2,2.2,1.1,3.5,3,4.3c2.3,1,4.2,2.6,5.6,4.6c2.4,3.5,1.7,5.8-2.2,7.5
	C519.2,585.6,515.8,585.3,512.5,585.4z"/>
<path class="st1" d="M290.8,97.6c-0.3,0-0.7,0-1,0c-1.8-0.3-4.2,0.9-5.1-1.2c-1-2.4,1.5-3.6,3-4.8c1.5-1.4,3.3-2.5,5.2-3.3
	c8-2.9,15.3-7.3,21.5-13.1c6.6-6.3,15.3-9.3,23.5-12.9c11-5,21.8-10.5,33.2-14.1c12.7-4,23.5-11.7,35.9-15.9
	c13-4.4,26.1-8.9,39.9-8.7c15.3,0.2,30.5,2.4,45.1,8c11.9,4.6,24.3,7.7,36.5,11.6c6.1,1.9,12.1,4.1,17.9,6.7
	c4.5,2.1,9.4,2.9,14.3,2.6c4.7-0.5,9.4-0.1,14,1.1c1.4,0.4,2.9,0.7,4.3,1.2c1.1,0.3,2.3,0.8,1.9,2.3c-0.3,1.2-1.4,1-2.3,1
	c-0.9,0.1-1.9,0.1-2.8-0.1c-6.9-2.6-13.5-0.3-19.8,1.9s-11.8,1.4-17.6-0.2c-10.1-2.9-20-6.4-29.8-10.4c-9.3-3.7-18.8-6.2-29-5.9
	c-7.9,0.2-15.7-1-23.5-2c-1.5-0.2-3-0.3-4.5-0.2c-11,1.3-21.8,2.7-32.1,7.6c-14.6,7-30.6,10.1-46.3,13.7
	c-10.6,2.4-20.1,7.4-29.5,12.4c-10.6,5.6-21.4,10.9-32,16.5c-4.1,2-8.3,3.6-12.6,5C296.3,97.2,293.4,98,290.8,97.6z"/>
<path class="st1" d="M181.5,504c-5.6-0.2-9.7,0.9-12.8-2.7c-0.7-0.8-1.7-0.1-2.7-0.1c-3.1,0.2-4.1-0.8-4-3.7c0-0.6,0-1.1,0.2-1.7
	c3.7-7.4,6.5-15.3,12-21.7c4.9-5.7,9.9-11.3,14.3-17.3c5.1-6.9,12.3-11.5,19.5-16c8.5-5.3,18.1-8.4,28-9.3c4.1-0.4,7.8-2.8,12.1-2.3
	c2.5,0.3,5.5-0.8,6.4,2.9c1,4.2,0,7.5-3.2,9.4c-1.9,1.1-3.9,2.2-6,3.1c-6.5,3.1-11.7,8.4-14.5,15.1c-0.5,1-0.9,2.1-1,3.2
	c-0.3,8.4-4.3,15.6-7.7,22.8c-3.6,7.5-10.3,12.1-18.1,14.3S188.2,504.4,181.5,504z"/>
<path class="st1" d="M397.3,157.1c0-5.8,0-11.6,1-17.4c1.4-7.7,7.4-11.3,13.7-6.7c3.8,2.8,7,3.2,11.4,2.1s8.5,0.4,11.6,4.1
	c2.7,2.9,5,6.1,7,9.5c2.6,4.8,1.8,8.7-1.8,12.9s-7.7,7.2-13.7,6.1c-3.5-0.6-5.6,1.5-7.7,3.8c-1.6,1.8-1.8,3.8-0.3,5.6
	c3.3,3.9,5.4,8.7,5.9,13.8c0.3,2.4,2.4,3.7,4.2,5s4.2,2.4,3.1,5.2c-0.8,2-3,2.2-6.5,0.4c-6.6-3.3-12.9-7.1-18.2-12.2
	c-6.5-6.3-9.4-14.3-9.9-23.3C397.2,163.1,397.3,160.1,397.3,157.1z"/>
<path class="st1" d="M287.6,378.8c-0.6-5.5,2.7-9.4,5.6-13.2c1.8-2.3,3.1-5,3.9-7.8c2.9-10.2,8.7-19.4,16.6-26.4
	c8.5-7.7,18.5-10.2,29.7-9.7c5,0.2,9.4,2.5,14,4c1.6,0.5,4.3-0.3,4.6,2.3c0.2,2.1-2,2.9-3.3,4.2c-6.9,6.9-15.5,11.2-23.8,15.9
	c-12.4,7-21.6,17.3-29.6,28.9c-1.8,2.7-3.8,5.2-6,7.5c-2.6,2.5-5.6,2.4-8.4,1.5C287.5,384.8,287.4,381.7,287.6,378.8z"/>
<path class="st1" d="M426.2,888.6c-7.1,0-8.9-1.5-9.7-7.4c-0.4-3.2-2.2-6.3,1.3-9.3c3.4-3.1,8-4.4,12.5-3.4c3.1,0.6,6.3,0.3,9.2-0.9
	c11.3-4.1,23.3-5.4,35.1-7.5c6.7-1.2,13,1.1,19.5,0.2c1.4-0.3,2.7,0.4,3.4,1.6c0.9,1.6-0.1,2.8-1.2,4c-2.8,3.3-6.1,5.9-10.3,6.4
	c-7.5,0.8-14.4,4.1-21.8,5.5c-10.3,2-20.4,5.1-30,9.2C431.5,888.2,428.6,889.1,426.2,888.6z"/>
<path class="st1" d="M133.8,269.8c-0.4-2.1,0.6-4.2,2.5-5.3c3.1-2,6-4.6,10.2-4c2.4,0.3,3.8-1.2,5.3-2.7c2.8-2.8,6.1-5.1,9.7-6.6
	c4.4-1.9,10-1.6,11.9,4.5c0.6,1.9,2.2,3,3.5,4.4c3.4,3.8,3.1,8.3-1.5,9.4c-7.8,1.8-10.2,8.2-13.8,13.7c-2.8,4.2-5.5,8.5-8.3,12.7
	c-0.7,0.9-1.5,1.7-2.3,2.5c-1.2,1.3-2.6,2.2-4.5,1.4s-3.6-1.9-3.6-4.5c-0.1-4.3,0.1-8.6-0.9-12.9c-0.6-2.8-1.6-4.7-4-6.2
	C135.6,274.7,133.5,273,133.8,269.8z"/>
<path class="st1" d="M744.8,523.8c0.1,3-0.5,5.7-2.7,7.8s-2.3,4.5-1.8,7.3c1.3,7.9,2,16,2.1,24c0,5.5-3,9.6-5.7,13.8
	c-1.3,2-5,2.5-7.2,1.4c-2.2-1-3.3-3.3-2.8-5.6c0.2-1.5,0.7-2.9,0.9-4.4c1.7-9,1.9-18.3,0.5-27.4c-0.5-3.3,1.5-5.7,3.2-8.1
	c1.2-1.4,1.7-3.2,1.2-5c-0.8-4-1.8-8-1.5-12.2c0.2-2,0.5-3.7,2-5c2.6-2.3,4.7-4.8,5-8.5c0.1-1.4,1.2-2.4,2.6-2.4c0,0,0.1,0,0.1,0
	c1.5,0,2.3,1.1,2.6,2.5c0.1,0.4,0.1,0.7,0.1,1.1C743.6,510.1,742.9,517,744.8,523.8z"/>
<path class="st1" d="M599.6,681.5c-1.9,0-3.8,0.1-5.7,0c-4-0.3-6-3.5-3.6-6.6c3.3-4.2,3.4-9.4,5.5-14c0.7-1.6,0.8-3.4,0.1-5
	c-1-2.9-1.2-6-0.6-8.9c1.7-7.8,0.8-15.7,1-23.6c-0.1-2.3,0.3-4.5,1-6.6c0.5-1.2,0.7-2.8,2.4-2.7c1.6,0.1,2.9,1.3,3.1,2.8
	c0.7,2.9,1,5.9,1.4,8.9c0.1,1.1,0.1,2.3,0,3.4c-1.1,8.8,2.2,16.6,4.9,24.6c0.6,1.8,1.9,3.2,3.1,4.7c4.9,6.7,3.9,16-2.4,21.4
	c-1.1,1-2.6,1.6-4.1,1.6C603.8,681.4,601.7,681.4,599.6,681.5L599.6,681.5z"/>
<path class="st1" d="M155.3,680.4h4c2.6-0.1,4.9,1.5,5.5,4c0.9,5.1,2.4,11-1.5,15.1c-4.4,4.6-3.8,9.4-3.1,14.6
	c0.1,0.6,0.4,1.1,0.4,1.6c0.3,2.9-1,4.2-3.9,4.2c-4-0.1-6.6-2.8-8.7-5.7c-6.3-9-6.8-18.9-3.7-29.1c0.9-3,3.3-4.5,6.4-4.8
	C152.3,680.3,153.8,680.4,155.3,680.4L155.3,680.4z"/>
<path class="st1" d="M288.1,883c8.6,1.3,17.1,2.9,21.7,11.6c1.1,1.7,2.4,3.4,3.8,4.8c1.7,1.9,1.5,4.3,0.7,6.4s-3,1.9-4.8,2
	c-6.2,0.2-12.4-1-18-3.6c-6.7-3.1-10.2-9.2-11.6-16.3c-0.3-2.3,1.2-4.5,3.6-4.8c0.1,0,0.1,0,0.2,0C285.1,883,286.6,882.9,288.1,883z
	"/>
<path class="st1" d="M620.2,729.2c0.2,2-1.1,3.7-1.1,5.5c-0.1,4.3-0.5,8.7,1.3,12.8c0.7,1.8,1,3.6,0.9,5.5c0.2,2.3-1.2,4.5-3.4,5.2
	c-2.5,1-5.5,0.2-7.1-2c-2-3-3.5-6.2-4.5-9.7c-1-3.4-1.7-6.9-2.6-10.3c-1-3.6,0.5-7.4,3.7-9.3c3.6-2.3,5.2-5.2,4.9-9.3
	c0-0.8,0.1-1.5,0.3-2.2c0.2-0.8,0.7-1.4,1.5-1.5c0.7-0.2,1.5,0.3,1.7,1c0,0,0,0.1,0,0.1C616.3,719.9,619.6,724.1,620.2,729.2z"/>
<path class="st2" d="M40.2,534.8c0.9-16.5-3.1-31.9-10.6-46.5c-5.9-11.5-12.2-22.8-17.1-34.9c-13.8-34-15.9-68.8-7.3-104.4
	c1.5-6,2.9-12,4.4-18s4.4-11.1,10.2-14.1c3.2-1.7,5.6-4.5,6.6-8c0.8-2.5,1.8-5,2.9-7.3c1.9-4.5,3-9.3,3-14.2
	c0.9-29,6.5-57.6,16.8-84.7c3.6-9.5,8.4-18.5,14.3-26.7c10.2-14.3,24.1-22.2,41.3-24.8c10.3-1.6,20.6-1.3,30.9-1.5
	c9,0,18-0.5,27-1.5c22.9-2.9,43.2-12.2,61.7-25.8c16.1-11.8,31.2-24.6,46.5-37.4c28.4-23.9,58.2-45.5,92-61.2
	c24-11.2,49.3-17.9,75.5-21.3c7.4-1,14.9-1.8,22.4-2.2c20.7-1,40.2,3.6,59,12.1c11.8,5.4,23.2,11.5,35.4,16
	c15.5,5.9,31.4,10.4,48.2,10.1c10.6-0.2,20.8-2.8,31-5.2c15.3-3.5,30.7-7.3,46.4-8.9c14.8-1.6,29.6-1.8,43.9,3.8
	c18.5,7.1,31.8,20.1,42,36.7c9.8,16,15.4,33.8,20.7,51.6c9.3,31.4,15.3,63.4,21.6,95.5c2.7,14,5.6,28,9.8,41.6
	c7.4,24.4,19.5,46.3,35,66.4c15.6,20.3,30.1,41.2,41.9,63.9c14.3,27.4,22.9,56.6,28,87c3.8,22,5.6,44.4,5.3,66.7
	c-0.4,33.5-4.6,66.6-15.3,98.6c-8.5,25.2-22.6,48.1-41.2,67c-15.1,15.4-31.2,29.8-48.2,43.2c-21.1,16.7-36.5,37.5-46.9,62.2
	c-6.8,16.1-12.5,32.6-20.2,48.3c-7.6,15.5-15.6,30.8-26.1,44.6c-11.5,15.1-26.9,24.1-45.2,28.7c-16.2,4-32.8,6.6-49.4,7.8
	c-36.7,2.8-73.2,6.9-109,15.8c-7.1,1.8-14.2,3.6-20.9,6.5c-6,2.5-10.8,7.1-13.4,13c-2.8,6-4.5,12.3-6.4,18.6
	c-1.9,6.9-4.3,13.6-7.2,20.1c-5.7,12.7-16.1,22.6-29,27.7c-15.5,6.3-32.4,8.7-49.1,6.9c-28-2.8-53.2-13.9-77.6-27
	c-25.5-13.7-48-31.4-69.3-50.7c-15.1-13.7-28.3-29-41.5-44.4c-13.9-16.3-27.7-32.6-41.5-49c-10.5-12.5-21-25-31.5-37.5
	c-14.9-17.6-29.9-35.2-43.7-53.7c-10.8-14.4-21.6-28.8-32.6-43.1c-9.7-12.7-19.7-25.1-28.6-38.3c-9.6-14.3-18.9-29-25.3-45.1
	c-3.8-9.6-6-19.4-3.1-29.7c2.1-7.4,6.3-13.6,11.2-19.3c5.5-6.4,9.8-13.8,12.8-21.7C36.6,570.2,40.6,553,40.2,534.8z M899.2,534.3
	c-0.4-22.4-2.2-45.4-6.8-68.1c-5.4-26.6-13.9-52.2-27.4-76c-10.5-18.2-22.3-35.7-35.2-52.3c-17.2-22.4-30.8-46.7-39.2-73.7
	c-5.8-18.7-9.5-37.9-13.2-57c-6.1-31.8-12.5-63.4-22.5-94.1c-4.2-13.1-9-25.9-16.9-37.3c-8.9-12.8-20.6-21.2-36.5-22.6
	c-7.2-0.7-14.2,0.2-21.3,1.2c-14.9,1.9-29.6,5.3-44.1,9c-25.6,6.5-50.9,6.2-76.1-1.7c-14.3-4.6-28.2-10.3-41.7-17
	c-9.3-4.6-18.7-8.8-28.7-11.6c-14-4-28.2-3.4-42.5-1.8c-27.1,3.1-53,10-77.6,22.1c-23.3,11.5-44.5,26.4-65.3,41.8
	c-21.2,15.8-42.2,31.9-64.4,46.4C215.8,157,189.7,166.5,161,169c-11.6,1.1-23.3,0.8-34.9,1.7c-8.3,0.6-16.4,1.6-24.3,4.5
	c-5.7,2.1-10.7,5.6-14.5,10.2c-4.9,6-8.8,12.7-11.6,19.9c-11.4,27.3-17.7,56.4-18.4,86c-0.3,11.1-0.6,22.1-1.7,33.2
	c-0.3,3.5-1.2,6.9-4,9c-4.7,3.6-7,8.7-9.7,13.6c-11.3,20.4-12.8,42.5-10.6,65.1c1.2,12.2,5.6,23.7,10.5,34.9s11.2,21.7,16.4,32.7
	c7.5,15.6,11.5,32.7,11.7,50.1c0.4,17.7-1.9,35.3-6.9,52.3c-5,16.9-11.4,33-23.5,46.3c-0.9,1-1.5,2.1-2.3,3.2
	c-2.3,3.1-3,7.1-1.8,10.7c1.1,4,2.6,7.9,4.5,11.5c6.6,13.1,14.2,25.6,22.7,37.5c11,15.5,23.3,29.9,34.4,45.3
	c27.9,38.8,59,74.9,89.6,111.4c15.7,18.7,31.7,37.1,47.2,55.9c20.8,25.1,43.5,48.2,69.7,67.8c23.6,17.7,49.2,31.7,77.4,40.8
	c16.4,5.3,33,6.8,50,2.7c11.8-2.9,20.3-9.3,23.9-21.4c2.3-7.7,4.7-15.5,7.3-23.1c3.2-9.3,7.3-18,14.3-25.2
	c8.5-8.6,19-13.4,30.2-16.7c16.9-5,34.3-8.4,51.6-11.6c26.4-4.8,53.2-6.6,79.9-9.1c13.8-1.2,27.6-3.5,41.1-6.8
	c12.5-3.2,22.6-9.7,30-20.4c8.7-12.4,15.6-25.6,22.1-39.2c5.9-12.4,10.7-25.3,15.7-38c12.5-32,31.4-59.2,58.6-80.5
	c16.1-12.6,31.4-26.3,45.7-41c14.9-15.2,26.3-33.5,33.4-53.6C895.1,598.2,898.7,566.9,899.2,534.3z"/>
<path class="st2" d="M365.1,327.9c-4.2,1.5-8.8,1.8-13.2,1.1c-4.6-0.8-9.3-1.1-14-0.9c-13.6,0.7-23.5,6.9-29,19.7
	c-2.4,5.9-4.4,12-5.9,18.2c-5.7,21.8-15.9,41.2-29.4,59.1c-4,5.2-8.2,10.3-12.3,15.4c-3.2,4-7.1,7.3-12.2,8.7
	c-6.1,1.6-9.4,5.9-11.2,11.6c-1.5,5-2.8,10.1-4.4,15.1c-2.5,8.4-7.9,15.6-15.2,20.4c-4.8,3.3-10.4,5.3-16.2,6
	c-10.2,1.2-20.5,2.4-30.9,2c-1.3,0-2.6-0.2-3.9-0.4c-1.2-0.2-2.1-1.1-2.2-2.3c-0.1-1.2,0.7-2.3,1.9-2.4c1.1-0.4,2.2-0.6,3.3-0.7
	c8.2-0.8,16.4-1.8,24.7-2.3c15.9-0.9,25.4-9.8,30.7-24.1c1.8-4.9,3.2-10,4.9-15c2.6-7.7,7.7-12.9,15.5-14.9c4.1-1.1,6.9-3.7,9.4-6.8
	c13.9-17.2,25.8-35.5,34.7-55.8c2.1-5.2,3.9-10.6,5.3-16c2-7.2,4.1-14.5,7.3-21.3c5.8-12.3,14.8-20.6,28.7-22.7
	c4.2-0.6,8.2,0.2,12.3,1C351.2,322.1,358.3,324.5,365.1,327.9z"/>
<path class="st2" d="M714,302.7c-5.1-6.7-9.3-14-12.3-21.9c-2.5-6.1-5.2-12.1-8.3-17.9c-5.9-11.1-5.8-22.7-3.6-34.5
	c1.4-7.2,4.4-14,5.2-21.3c0.6-4.8,1-9.7,1.6-14.5c0.2-1.7,0.2-3.5-1-4.8c-5.8-6.3-8.2-14.2-11.1-22c-1.3-3.5-3-5.9-6.7-6.7
	c-1.1-0.3-2.1-0.7-3.1-1.3c-8.8-4.5-17.4-3.3-26,0.8c-2.4,1.1-4.6,2.6-6.9,3.8c-1.4,0.9-3.1,1.5-4.8,1.6c-1.7,0-3.8,0.1-4.4-1.8
	c-0.6-2.1,1.8-1.9,3-2.4c3.1-1.5,5.6-3.8,8.3-5.8c10.2-7.4,21.1-9.2,32.9-4.5c1.7,0.8,3.5,1.4,5.3,1.8c5.1,0.9,7.8,4,9.2,8.7
	c1,3.4,2.1,6.8,3.3,10.2c1.4,3.9,2.7,8,5.5,11c3.4,3.7,4,7.9,3.4,12.5c-1.3,10.8-2.4,21.6-5.2,32.2c-1,3.6-1.6,7.3-1.9,11.1
	c-0.7,8.6,1.1,17.3,5.2,24.9C708.6,274.5,711.2,284.2,714,302.7z"/>
<path class="st2" d="M519.3,568.6c-6.3-3.2-10.8-8.3-16.1-12.5c-8.6-6.8-18-10.8-29-10c-6.2,0.6-12.2,2-18,4.2
	c-5.1,1.9-10.2,3.8-15.4,5.5c-14,4.6-26.2,0.5-37.2-8.3c-4-3.4-8.4-6.2-13.2-8.5c-4.5-2-8.5-4.8-11.9-8.3
	c-8.1-8.3-17-15.9-25.8-23.5c-3.8-3.3-8.4-5.7-13.3-6.9c-10-2.4-19.9-5.3-30.2-6.3c-6.1-0.6-13.2-4.6-17.2-8.9
	c1.7-1.3,3.3-0.4,4.7,0.3c7.3,3.4,14.9,4,23,4.2c10.3,0.2,20.3,3.3,29.9,7.2c3.3,1.3,6,3.7,8.6,6.3c8,7.9,16.1,15.7,24.2,23.6
	c3.3,3.3,7.2,6,11.5,7.9c4.6,2.1,8.9,4.9,12.6,8.3c5.1,4.7,11.3,7.4,17.9,9c5.7,1.4,11.2,0.2,16.6-1.6c6.8-2.2,13.4-4.8,20.2-7
	c8.5-2.7,17.1-4.2,26-2.2c3.5,0.7,6.9,1.9,10,3.7c8.6,5.4,16.1,12.4,21.8,20.8C519.9,566.3,520,567.6,519.3,568.6z"/>
<path class="st2" d="M602.4,597.1c0.7,8.8,2.2,17.4,1.4,26.2c-0.7,8,0.4,16.1-0.3,24.2c-0.7,9-2.8,17.3-7.5,25c-1.2,1.9-3,4-1.1,6.1
	c2.1,2.4,4.8,1.3,7.2,0.1c2.7-1.3,5.3-2.9,7.6-4.7c0.8-0.8,1.7-1.4,2.7-2c1.5-0.9,3.4-0.8,4.8,0.3c1.4,1.1,1.9,3,1.1,4.6
	c-3.1,7.2-1.9,14.3,0.7,21.4c1.7,4.6,2.4,9.5,2.2,14.4c-0.2,4.9-1.7,9.2-5.3,12.6c-1,0.9-1.8,1.9-2.8,2.8c-4.1,3.8-4.7,8.3-2.3,13.3
	c1.8,3.7,4,7.2,6.4,10.5c1,1.1,1.8,2.4,2.6,3.7c0.6,1.2,2.1,2.6,0.5,3.9c-1.3,1-2.6-0.1-3.5-0.9c-6.1-5.2-11.1-11.2-13.6-18.9
	c-1.9-5.8-1.3-11.4,2.8-15.8c6.1-6.6,6.1-14.2,4.7-22.1c-0.9-4.8-2-9.5-1.8-14.5c0.2-4-0.7-4.5-4.8-3.6c-2.2,0.6-4.4,0.9-6.7,0.7
	c-6.6-0.9-9.4-5.7-5.8-11.2c7.7-11.6,9.1-24.4,9-37.7c-0.1-5.6,0-11.3,0.2-16.9c0.1-4.7,0.1-9.3,1.3-14
	C602.9,602.1,602.9,599.5,602.4,597.1z"/>
<path class="st2" d="M498.2,860c-3.6,2.3-7.8,3.4-12,3.1c-6.4-0.3-12.7-0.5-19.1-1c-5.2-0.6-10.5,0.1-15.5,2
	c-8.2,3.2-16.4,6.3-25.2,7.9c-3.8,0.7-4.2,1.6-3.5,5.5c0.3,1.8,0.9,3.7,1.1,5.5c0.3,2.6-0.3,5-2.9,6.2s-4.9-0.1-6.4-2.2
	c-3.5-5.1-5.5-10.7-4.4-17c0.9-5,4.2-8.3,9-9.9c4.8-1.5,9.8-2.4,14.9-2.6c4.1-0.2,8.2-0.7,12.2-1.7c7.7-1.9,15.7-2,23.4-0.5
	c8.1,1.4,16.3,2.5,24.4,3.8C495.7,859.3,496.9,859.7,498.2,860z"/>
<path class="st2" d="M438.7,203.1c-10.3-4.2-18.8-16.3-19-26.7c-0.1-7.5,3.1-11.2,10.5-11.8c4.3-0.4,8.4-0.9,10.1-5.6
	c1.7-4.3,0.8-9.2-2.5-12.5c-0.6-0.7-1.2-1.4-1.8-2.1c-4.1-4.5-5.1-6.9-11.5-2.3c-4.8,3.5-8.9,2.2-12.7-2.5c-0.5-0.8-1.1-1.5-1.8-2.2
	c-1.3-1.2-2.3-0.9-3.1,0.6c-0.3,0.7-0.5,1.4-0.8,2.1c-0.5,1.2-1,2.6-2.8,2.2c-1.3-0.3-1.6-1.5-1.8-2.6c-0.2-1.1-0.2-2.2-0.2-3.4
	c0-4.4,1.5-7,4.7-8.1c3.4-1.2,6.4,0,9.1,3.8c0.7,0.9,1.2,1.9,1.8,2.9c1.1,1.8,2.6,1.9,4.3,0.9l1.4-0.9c7.4-4.5,10.8-4.1,16.6,2.5
	c4.4,4.9,8.4,10.1,8.5,17.2c0.1,8.1-3.5,13-11.4,15.1c-1.3,0.4-2.6,0.6-3.9,0.6c-5.3-0.3-7.8,3.5-5.7,9.3c1.5,4.3,3.9,8.2,7,11.4
	C437.1,194.4,439.1,198.2,438.7,203.1z"/>
<path class="st2" d="M174.3,692.3c0.2,6.2-1.9,10.6-6.7,13.9c-3.5,2.4-3.4,2.5-1.4,6.1c2.7,4.7,5.4,9.4,8.1,14.2
	c1.4,2.5,3,4.8,6.3,4.9c1.6,0.1,3,0.8,3.2,2.6s-1.1,2.7-2.5,3.4c-4,2.2-8.3,1.1-11.3-3.1c-1.8-2.6-3.3-5.5-4.9-8.2
	c-3.2-5.3-6.5-10.6-9.6-15.9c-1.4-2.4-2.9-4.9-2.6-7.9c0.5-4.3,3.3-6.3,7.4-5.4c5.3,1.2,7.2-0.3,6.9-5.7c-0.1-1.5-0.4-3-0.8-4.4
	c-1.2-4-2.5-4.9-6.5-4.2c-2,0.3-4,1.1-6,1.5c-2.2,0.4-3.6-1-3.1-3.3c0.4-2.1,2-3.7,4.1-4.2c9.3-3,16.2-1.5,18.6,9.6
	C173.9,688.1,174.2,690.2,174.3,692.3z"/>
<path class="st2" d="M729.8,580.4c0.7-2.3,2.3-4.2,4.4-5.4c3.3-1.8,4.7-4.7,5.2-8.2c1-6.5,0.7-13.1-0.9-19.5
	c-1.1-4.1-2.6-7.8-6.6-10c-2-1.2-3.3-3.2-3.6-5.4c-1.5-6.2-1.7-12.7-0.6-19c1.4-7.8,7.1-11.7,13.6-15.2c1.5,2.2,0.3,3.4-0.6,4.4
	c-4.5,5.1-4.8,11.2-4.7,17.4c0.1,2.2,0.4,4.5,0.8,6.7c0.2,1.7,0.6,3.5,2.1,4.4c4.8,2.8,6,7.6,6.5,12.5c0.8,7.8,1.7,15.7,0.2,23.5
	c-0.3,1.8-0.7,3.7-1.2,5.5c-1.5,4.8-4.6,7.6-9.8,7.9C732.9,580,731.4,580.3,729.8,580.4z"/>
<path class="st2" d="M179.1,259.4c-3.5,0.3-4.7-1.7-6.1-3.4c-2.6-3.3-3-3.5-6.4-1.6c-3.1,1.8-6.3,3.3-8.9,5.9
	c-3.3,3.2-7.4,5.2-11.9,5.8c-4.8,0.8-5,1.4-2.6,5.7c1.2,2.1,2.5,4.2,3.8,6.3c3.7,5.9,3.8,12.4,3.7,19c0,1.4-0.3,2.8-2,2.9
	s-2-1.4-2.4-2.6c-0.2-0.7-0.4-1.5-0.5-2.2c-0.8-7.1-3.9-13.2-8-19c-2-2.5-3.5-5.4-4.5-8.4c-1.2-4.2,0.3-7,4.6-7.9
	c1.8-0.3,3.7-0.5,5.6-0.4c3.8,0.3,7.5-1,10.3-3.6c3.8-3.1,8.1-5.5,12.7-7c5-1.7,7.2-0.9,9.8,3.6
	C177.3,254.9,178.2,257.2,179.1,259.4z"/>
<path class="st2" d="M317.8,902.7c-2.9-3.9-6.3-7.1-9.5-10.6c-2.4-2.7-5.1-4.2-8.9-3.7c-3.4,0.3-6.8-0.4-9.8-2
	c-1.6-0.7-2.9-1.8-3.8-3.3c-0.7-1.1-0.7-2.6,0.2-3.7c0.9-1.1,2.2-1.8,3.5-1.1c4.5,2.7,9.1,2.5,14.1,2c5.2-0.5,10.2,3.7,12.5,9.6
	C317.8,894,318.4,898.4,317.8,902.7z"/>
</svg>
