<svg id="Layer_9" data-name="Layer 9" xmlns="http://www.w3.org/2000/svg" viewBox="0 0 1039.09 1033"><defs><style>.cls-1{fill:#8621fe;}.cls-2{fill:#6814c5;}.cls-3{fill:#510ea1;}</style></defs><path class="cls-1" d="M1429,679.06a7.86,7.86,0,0,1-1.2,2.13c-11.51,10.54-21,23-32.37,33.72a95.87,95.87,0,0,0-12.11,13.72c-8.5,11.84-19.53,20.91-31.14,29.31-9.72,7-19.78,13.59-29.8,20.19-9.87,6.49-18,13.6-19.94,26.62-1.35,9.25-5.5,18.09-8.42,27.1-4.6,14.26-13.5,24.14-28.53,27.52-5.13,1.16-7.87,4.07-9.1,9.18a50.19,50.19,0,0,1-9.56,19.76c-1.07,1.35-2.94,2.73-1.62,5,.11,2.74-2.12,4-3.7,5.58-6.88,6.81-13.79,13.57-21,20.08-6.87,6.21-14.1,12-21.17,17.91-10.76,9-22.25,17.19-33.12,26.1a190,190,0,0,1-50.33,29.69c-5.44,2.17-11,4.29-17,4.41-13.67.27-27.35-.38-41,1.24-5.89.69-11.69,1.77-17,4.23-7.45,3.45-14.88,7-22.56,9.83-10,3.74-20.13,7.15-30.76,9.08-7.8,1.43-15.53.63-23.29,1a28.16,28.16,0,0,1-12.86-2.59c-9-4-18.15-7.9-27-12.34-6.5-3.27-13-5.9-20.4-5.72-2.56-4.22-7.1-4.35-11.11-4.81-10.26-1.2-20.37-3.08-30.51-5A130.83,130.83,0,0,1,820.7,976c-6.76-3.92-14.05-6.71-21.19-9.82-13-5.65-25.46-12.16-36.8-20.7-1.17-.88-2.48-1.64-2.83-3.24,2-1,4.12-.77,6.2-1,5.39-.69,7.51-5.6,3.86-9.56a64.86,64.86,0,0,0-13-10.85c-9.68-6.13-20.47-9.57-31.47-12.53-8.57-2.3-17.4-2.7-26-4.2-15.91-2.76-31.91-4.65-47.84-7.11a97.81,97.81,0,0,1-27-8.17c-14.21-6.71-26.41-16.43-39-25.45-11.27-8-22-16.77-32.9-25.39-8.91-7.08-17.29-14.73-24.14-23.93-5.83-7.83-9.94-16.61-14.28-25.27-1.07-2.14-2.1-6-4.73-4.89s-1.19,4.81-.72,7.39a25.5,25.5,0,0,0,1.36,4.21,4.91,4.91,0,0,1,.07,3.69c-2.12-.81-2.45-2.87-2.92-4.62-4.63-17.33-9.41-34.71-8-52.89.8-10.08,2.26-20.13,4-30.09a138.67,138.67,0,0,0,2.23-25.79,142.26,142.26,0,0,1,.47-18.34c1.84-16,9.7-29.56,17-43.32a56.59,56.59,0,0,0,6.33-17.1,118.83,118.83,0,0,1,4.4-18.45c5.25-15.6,5.81-31.37,3.21-47.49a169.55,169.55,0,0,0-11-39.5c-2-4.62-4.56-7.08-9.78-7.34A32.34,32.34,0,0,1,495,485.3c-6.82-6.62-14.2-12.57-21.11-19.07A33.9,33.9,0,0,1,464.52,450a85.08,85.08,0,0,1-1.78-37.58,64.05,64.05,0,0,0,.08-21.4c-1.48-9,.24-17.64,3.2-26.09,3.29-9.38,7.9-18.19,11.82-27.29a69.48,69.48,0,0,0,4.87-15,94.94,94.94,0,0,1,6.88-21,515.68,515.68,0,0,1,32.7-62.84c12.67-20.64,29.14-37.62,50.39-49.65a54.46,54.46,0,0,0,5.87-3.74c3.43-2.6,6.28-5.42,5.69-10.47-.33-2.89.45-5.91,3.67-7.36.23,1.76-.8,3.24-1.12,4.87-1.12,5.7.83,7.94,6.69,7.42a52.74,52.74,0,0,0,12.18-3.09c16.7-5.64,33.3-11.34,51.23-12.36,11.5-.65,23-1.74,34.51-2.18,8.41-.32,16.77.58,25.16,1s16.34,1.07,24.08,4c4.31,1.66,8.72,1.24,13.11,1.15,3.11-.06,5-2.28,6.11-4.82,1.22-2.83-.79-4.76-2.77-6.45a15.15,15.15,0,0,0-5.62-2.76,91.88,91.88,0,0,0-17.19-3.68c-1.59-.18-2.95-.39-3.19-2.31,7.23-.64,14.11,1.66,21.15,2.59,3.53.47,7,1.5,10.47,2.29,4.88,1.1,6.42.49,8.36-4,2.73-6.38,5.64-12.67,8.91-18.8,4.69-8.81,10.27-16.85,18.32-23,3.91-3,6.44-7.14,8.67-11.5,4.81-9.4,10.43-18.2,18.23-25.54,11.89-11.19,25.39-17.82,42.12-16.36,2.29.2,4.6.35,6.89.52,0,1.83-1.41,2.42-2.71,3.12C853.73,67.24,838.75,80.48,824,94c-7.46,6.84-14.58,14.09-21.49,21.49a234.86,234.86,0,0,0-17.8,21.24,15.76,15.76,0,0,0-3.12,10.62c.3,6.6,4.33,9.16,10.11,6.06a37.43,37.43,0,0,0,8.53-6.45c8.39-8.3,15-18.2,23.59-26.31S840.66,103.46,850.09,96a196.28,196.28,0,0,1,43.07-26.16c12.81-5.66,26.08-9.33,40.27-9,6.53.17,13.08,0,19.62,0a62.39,62.39,0,0,0,6.85-.76c4.21-.47,3.94-2.61,2.91-5.49,8-.25,15.93-.86,23.88-1.54a52,52,0,0,1,25.83,4.55A17,17,0,0,0,1023,59.18c5.69-1.16,11.79-.19,17.13-3.19.08,7.34.22,7.17,7.46,9,3.35.86,6.72.47,10,1.17,12.49,2.68,25.09,4.8,37.39,8.42,22.92,6.72,43,17.68,58.24,36.59A171.69,171.69,0,0,1,1178.22,154c4.88,11.82,8.88,24.08,15.74,35,1.49,2.37,3,4.57,5.43,6,4.88,3,8.72.94,9.27-4.69.21-2.19-1-4.69,1.24-6.52,3.9,11.17,11.42,20.57,15.55,31.64,1.14,3.06,3.85,4.42,6.93,4.84a80.36,80.36,0,0,1,34.12,12.59,18.1,18.1,0,0,0,7.63,2.9,90,90,0,0,1,25.26,7.88,40.68,40.68,0,0,0,14.67,3.45c14.93,1,27.81,6.26,37.75,17.94a43.24,43.24,0,0,1,7.35,11.75c6.37,15.61,13.09,31.13,15.83,47.94a139.61,139.61,0,0,1,2.14,27.07,38.26,38.26,0,0,0,2.81,15.46c4.54,11.39,7.57,23.26,11.29,34.91.89,2.81,1.69,5.66,2.73,8.42,2.25,6,5.09,11.57,10.08,15.85,2.4,2.05,4.5,4.45,6.73,6.69a43.33,43.33,0,0,1,11.89,23.31A26.35,26.35,0,0,0,1427.5,468a49.69,49.69,0,0,1,8.09,16.36,164.1,164.1,0,0,0,7.3,20.22c6.68,15.25,10,31.28,11.48,47.76-6,1.28-7.38,3.05-7.77,8.7-.91,13,1.58,25.91.26,39a172.14,172.14,0,0,1-3.52,21c-3.95,17.22-11.63,32.85-21,47.69a11.69,11.69,0,0,0-2.28,7.07c.21,3.78,1.33,4.63,5.23,3.86C1426.48,679.39,1427.72,679.25,1429,679.06Zm-277.4-1.58c0-5.69-2.71-9.17-7.16-11.4-3.07-1.53-6,0-6.61,3.37-.32,1.66-.35,3.43.88,4.81,1.64,1.84,1.16,3.31-.39,4.91-1,1.05-1.58,2.52-2.6,3.55-3.7,3.74-5,9.37-9.76,12.25-6.51,3.94-10.37,10.28-14.75,16.17a6.39,6.39,0,0,0-1.13,6,74.11,74.11,0,0,0,4.64,12.4c3.61,6.86,14,11.23,18.94,10.26,8.21-1.61,15.64-.62,21.32,6.57,2.33,3,5.31,5.33,7,8.9.76,1.65,2.33,2.94,3.62,4.32,1.78,1.92,3.93,2.56,6.22,1.07a4.87,4.87,0,0,0,2-6.59c-1-2.31-2.21-4.55-3.33-6.82-2.73-5.55-7-10.73-4.15-17.62.19-.46-.3-1.19-.43-1.8a102.17,102.17,0,0,0-5.6-17.39,13.76,13.76,0,0,0-6-7.13c-1.71-1-3.33-2.07-3.79-4-1.22-5.11-2.5-10.22-.3-15.46C1151.07,681.68,1151.87,679.45,1151.56,677.48Zm228-83.56c-.5-3.57-1.69-9.55-2-15.59-.32-5.27-2.35-9.75-4.78-14.18a106.37,106.37,0,0,0-14.52-19.74,12.54,12.54,0,0,0-4.37-3.58c-3.64-1.48-7.21-2.09-10.71.52s-3.18,5.71-1.65,9c4.42,9.5,4.15,19.58,3.89,29.68a13.38,13.38,0,0,0,.73,5.6,4.94,4.94,0,0,1,.2,3.71c-1.44,3.68-.76,7.5-.92,11.26-.18,4.4-.64,8.81-.87,13.15-.39,7.24-2,14.54-.42,21.84.76,3.56,2.43,5.4,5.08,5.37,3.12,0,3.67-2.25,4-4.71.07-.61.43-1.19.56-1.8.63-3,2-4.74,5.46-5,3.08-.2,6.1-1.44,9.14-2.24a9.07,9.07,0,0,0,6.83-6.83C1376.86,612.49,1379.59,604.69,1379.53,593.92Zm-132.7-237.63c4.09-1.33,9.44,0,12.89-3.11a12.81,12.81,0,0,1,10.91-3.44c3.89.47,7-1,9.88-3.26,2.32-1.81,4.45-3.83,6.87-5.54,3.33-2.36,4.29-5.56,3-8.16-1.11-2.33-4.83-3.83-8.27-2.67-6,2-12.58,1.17-18.34,4.17-1,.53-2.5.14-3.76.23-9.83.71-19.66,1.38-29.48,2.22a6.83,6.83,0,0,1-4.77-1.21c-5.66-4.21-12.42-5.06-19-5.95-7-1-15.69-8.67-16.09-15.64a8.28,8.28,0,0,0-1-3c-2.91-6-7.8-6.73-12.24-1.77-1.91,2.14-3.17,4.68-6.38,5.75-2.62.87-2.27,3.9-1.36,6.08a11.79,11.79,0,0,0,3.22,3.82q10.58,9.45,21.26,18.78c6.55,5.75,13.39,10.75,22.94,8.76.94-.2,2,.33,3.06.57C1228.87,355,1237.81,354.31,1246.83,356.29ZM840.46,239.49c3.1-.18,6.72,1,8.34-2.14,2.92-5.61,8-6.27,13.25-6.78a14.56,14.56,0,0,0,10-4.71,37,37,0,0,1,10.2-8.36c2.83-1.49,6-3.72,5.78-7.67-.14-3.08,1.57-5,3.12-7.28,3.43-5.1,6.79-10.13,12.23-13.39a4.45,4.45,0,0,0,2.23-5.43,5.21,5.21,0,0,0-5.22-3.82,19.64,19.64,0,0,0-6.79,1c-9.6,3.2-17.38,9.23-25.09,15.45-4.09,3.29-8.18,6.62-13.3,8.26a193.5,193.5,0,0,0-24.42,10.28,53.35,53.35,0,0,0-10.91,7.44c-5.85,4.86-5.11,10.36,1.66,14a12.68,12.68,0,0,0,4.18,1.41C830.68,238.47,835.69,239,840.46,239.49ZM732.2,835.14c.2-1.91-.92-3.18-2.16-4.36a38.52,38.52,0,0,0-16.74-9.72c-7.11-1.87-14.27-3.53-21.2-6.06-3.65-1.33-7.35-3.06-9.17-6.32-3.29-5.92-7.91-10.85-11.42-16.59-3.93-6.42-6.82-13.56-12.63-18.78a7.26,7.26,0,0,1-2.26-4.42c-.37-5.25-3.87-9.84-3-15.37.21-1.32-.72-2.81-1.12-4.23a3.71,3.71,0,0,0-3.58-3c-2-.14-4,0-4.91,2.05-1.68,3.6-3.66,7.16-2.37,11.44a155.91,155.91,0,0,0,23.2,47.42c2.89,4,3.94,7.79,1.76,12.31-.73,1.5-1.46,2.92-.94,4.79a13.83,13.83,0,0,0,13.91,10.6c4-.06,8,.1,11.76,1.7,2.67,1.13,5,.79,7.79-.53,5.62-2.68,11.49-3.84,17.46-.27a45.85,45.85,0,0,0,8.72,3.64A5,5,0,0,0,732.2,835.14ZM565.13,421.51c0-7.1-1-10.3-4.81-15.19a19.19,19.19,0,0,1-2.67-5c-3.46-8.91-4.09-18.35-5.08-27.69-.64-6.1.5-12.09,1.92-18.05,1.49-6.22-3.62-11.34-9.33-9.52-2.75.88-4.33,3.17-5.67,5.62-3.56,6.49-5.53,13.51-7.46,20.61-1.11,4.11-1.49,7.79.81,11.46a13.6,13.6,0,0,1,2,8.45c-.62,8.19,3.77,14.82,7,21.77a11.28,11.28,0,0,0,5.43,5.14,28.36,28.36,0,0,1,8,6,11.36,11.36,0,0,0,3.09,2.11c2.91,1.4,5.52.36,6.46-2.68A10.85,10.85,0,0,0,565.13,421.51Zm491.73-212.39c-3.36.07-4.77,2.34-3.2,5.3,3.64,6.83,5.49,14.37,8.43,21.48a31.72,31.72,0,0,0,13.16,15.61A34.07,34.07,0,0,1,1086.39,262c3.68,5.28,8.55,9.27,15.34,10.11,2.39.3,3.39-.8,2.44-2.88-2.53-5.53-3.9-11.49-7.45-16.66-5.13-7.47-10.79-14.5-16.44-21.54a185.71,185.71,0,0,0-16.71-18.09C1061.55,211,1059.41,209.36,1056.86,209.12ZM670.49,521.76a31.45,31.45,0,0,0-11.82,17.15c-3.61,12.47-7,25-10.52,37.5a18.45,18.45,0,0,0-.61,5.61c.18,5.9.17,11.73-2.66,17.19-1,1.83-2,4.19.4,5.66s4.76,1,7-.86c5.39-4.5,9.2-10.5,10.07-17,1.17-8.67.8-17.68,0-26.44a25.31,25.31,0,0,1,1.26-10.94c2-6,4.46-11.78,6.58-17.71C671.17,529,672.42,526,670.49,521.76ZM943.82,850.58c1-4.94-.91-9.88-4.52-14.34-4-5-9.19-8.6-14.58-11.94-1.93-1.19-4.12-.91-6.17-.68-4.27.47-5.94,3.75-4.26,7.8,1,2.44,3.14,3.92,4.68,5.89,4.2,5.39,9.8,9.73,11.42,17a43.47,43.47,0,0,1,.77,10,11.55,11.55,0,0,0,3.67,9c3.27,3.05,6.8,2.55,8.65-1.46,1.52-3.3,2.36-6.93,1.28-10.46C943.74,858.13,943.9,854.82,943.82,850.58Zm-24-110.39c-.29-3-2.67-7.24-4.56-11.65-3.51-8.18-11.29-12.83-16.23-19.86-2.32-3.31-7.32-1.71-8.11,2.4a19.33,19.33,0,0,0,.14,7.5c2.17,10.08,7.58,18.5,14.12,26.26a10.52,10.52,0,0,0,7,3.89C917.15,749.31,919.68,747.11,919.81,740.19Zm15.26-234.7a5.29,5.29,0,0,0,.42,2c2.06,3.43,2,7.18,2.11,11,.08,4.06,2.2,6,5.73,6s5.46-2,5.5-6.21c0-3.2,1.25-5.39,3.19-7.85a122.89,122.89,0,0,0,8.53-13.2,6.08,6.08,0,0,0-.1-7.13c-2-2.64-4.6-2.55-7.41-1.72-2.42.71-4.87,1.32-7.27,2.07C941,491.91,935,500.17,935.07,505.49Zm1.15,37.32c.26-2.21-1-4.11-3.28-5.15-2.53-1.14-4.49.16-6.09,2.05a10.23,10.23,0,0,0-2.14,3.09c-2,6-6.24,10.26-10.46,14.71-3.45,3.63-6.41,7.86-7.06,13.13-.31,2.42.18,4.62,2.37,6.14s4.56.9,6.49-.45a91.1,91.1,0,0,0,8.9-7c7.53-6.76,8.16-16.66,11.26-25.43A4.69,4.69,0,0,0,936.22,542.81Z" transform="translate(-445.25 -24)"/><path class="cls-2" d="M904,1001.79c7.39-.18,13.9,2.45,20.4,5.72,8.83,4.44,17.94,8.32,27,12.34a28.16,28.16,0,0,0,12.86,2.59c7.76-.37,15.49.43,23.29-1,10.63-1.93,20.74-5.34,30.76-9.08,7.68-2.87,15.11-6.38,22.56-9.83,5.33-2.46,11.13-3.54,17-4.23,13.64-1.62,27.32-1,41-1.24,6-.12,11.57-2.24,17-4.41A190,190,0,0,0,1166.19,963c10.87-8.91,22.36-17.06,33.12-26.1,7.07-5.94,14.3-11.7,21.17-17.91,7.2-6.51,14.11-13.27,21-20.08,1.58-1.57,3.81-2.84,3.7-5.58,8.13-1.83,11.49,1.69,9.72,10.19-2,.35-2,1.56-1.34,3.06-.54,3-2.57,5.26-4.53,7.3-4.73,4.91-9.15,10.2-15,13.87-1.72-.27-2.54.45-2.41,2.21a67.93,67.93,0,0,1-15.23,13c-1.77-.31-2.63.42-2.53,2.23-4.17,5.21-9.34,9.34-14.51,13.49-2.74,2.2-5.38,4.52-8.08,6.79a4.14,4.14,0,0,0-3,.77c-5.19,3.91-10.53,7.64-15.55,11.77a187.75,187.75,0,0,1-49.59,29.48c-9.79,3.93-19.76,7.09-30.6,6.17-11.36-1-22.62,1.51-34,1.27-1.22,0-2.44.56-3.68.73-8.54,1.2-15.51,6.36-23.36,9.3-12.4,4.63-24.66,9.56-37.78,11.91-6.8,1.22-13.82.72-20.51,2.72-6-1.1-12-1.62-18.06-2.18a30.84,30.84,0,0,1-10.25-3q-15.95-7.58-31.91-15.1a37.07,37.07,0,0,1-8.88-5.94C899.89,1009.58,899.85,1006.24,904,1001.79Z" transform="translate(-445.25 -24)"/><path class="cls-2" d="M1209.9,183.8c-2.21,1.83-1,4.33-1.24,6.52-.55,5.63-4.39,7.64-9.27,4.69-2.4-1.44-3.94-3.64-5.43-6-6.86-11-10.86-23.22-15.74-35a171.69,171.69,0,0,0-25.07-42.77c-15.25-18.91-35.32-29.87-58.24-36.59-12.3-3.62-24.9-5.74-37.39-8.42-3.26-.7-6.63-.31-10-1.17-7.24-1.85-7.38-1.68-7.46-9,2.64-3,6.38-3.56,10-4.38,1.65,2.41,4.18,1.53,6.34,1.5a143.7,143.7,0,0,1,25.44,2.38c3,.49,5.12,0,6.82-2.93,2.33-4,5.79-6.53,10.86-5.77a2.57,2.57,0,0,0,2.64-1.32,2.86,2.86,0,0,1,2.47.44c.25.57.36,1.46.77,1.64,4,1.76,7.75,4,12.29,4.44,6,.64,12.14,1.27,17.88,3,12.65,3.81,22.93,11.89,33.23,19.82,2.33,1.79,2.68,4.68,4.29,6.82,5.52,7.38,12.35,13.67,17.63,21.25a3.23,3.23,0,0,0,2.85,1,3.23,3.23,0,0,1,1.5,2.93c-.77,2.3.59,4.08,1.53,5.91,2.12,4.19,3.31,8.26-.66,12.11-.43.41-1,1.24-.83,1.61,1.68,4.16-.33,8.94,2.11,12.91,1.8,2.94,2.45,6.24,3.33,9.46q2.84,10.29,5.45,20.64c.33,1.28.46,2.49,2,2.7a5.66,5.66,0,0,1,.65,4.06c-1.73,1.9-2.35,3.63.74,4.8A3.69,3.69,0,0,1,1209.9,183.8Z" transform="translate(-445.25 -24)"/><path class="cls-2" d="M510.16,799.18a4.91,4.91,0,0,0-.07-3.69,25.5,25.5,0,0,1-1.36-4.21c-.47-2.58-1.94-6.3.72-7.39s3.66,2.75,4.73,4.89c4.34,8.66,8.45,17.44,14.28,25.27,6.85,9.2,15.23,16.85,24.14,23.93,10.85,8.62,21.63,17.35,32.9,25.39,12.64,9,24.84,18.74,39,25.45a97.81,97.81,0,0,0,27,8.17c15.93,2.46,31.93,4.35,47.84,7.11,8.62,1.5,17.45,1.9,26,4.2,11,3,21.79,6.4,31.47,12.53a64.86,64.86,0,0,1,13,10.85c3.65,4,1.53,8.87-3.86,9.56-2.08.27-4.22.08-6.2,1-8.49-2.36-17-4.56-25.42-7.16a195.4,195.4,0,0,0-25.12-6.27,135.14,135.14,0,0,1-16-3.69c-9.51-2.81-19.09-3-28.8-1.69-10,1.34-19.75-.05-29.46-2.16a22.22,22.22,0,0,1-5.75-2.52c-2.05-1.12-3.54-2.39-.87-4.69,1.95-1.68.23-3.12-1.12-4-5.89-4-11.58-8.5-17.86-11.84-17.12-9.1-32.25-20.57-44.9-35.3-7.3-8.51-15.89-15.67-24.26-23.06-12-10.58-21.05-23.47-29.12-37.13A5.27,5.27,0,0,1,510.16,799.18Z" transform="translate(-445.25 -24)"/><path class="cls-2" d="M962.81,54.6c1,2.88,1.3,5-2.91,5.49a62.39,62.39,0,0,1-6.85.76c-6.54,0-13.09.16-19.62,0-14.19-.36-27.46,3.31-40.27,9A196.28,196.28,0,0,0,850.09,96c-9.43,7.49-17.49,16.45-26.24,24.67s-15.2,18-23.59,26.31a37.43,37.43,0,0,1-8.53,6.45c-5.78,3.1-9.81.54-10.11-6.06a15.76,15.76,0,0,1,3.12-10.62,234.86,234.86,0,0,1,17.8-21.24c6.91-7.4,14-14.65,21.49-21.49,14.72-13.51,29.7-26.75,47.47-36.29,1.3-.7,2.72-1.29,2.71-3.12,1.71-.95,3.38-2,5.43-2,.82.07,1.79.46,2.44.16a139.34,139.34,0,0,1,18.69-7.44c.89-.26,1.16-1.13,1.27-2a3.15,3.15,0,0,1,2.51-.55c1.34,2,2.1,1.41,2.54-.57a5.32,5.32,0,0,1,3.86-.63c1.91,1.86,3.67,2.47,5-.63a34.2,34.2,0,0,1,14.14,0c1.94,2.7,2.91,2.82,6.08.72a8.44,8.44,0,0,1,5.3.78c.22,1.5,1.13,2,2.54,1.67,2.18-.65,3.49,1,5.09,1.91a3.14,3.14,0,0,0,3.5,3.28l1.55,1.65c.25,2.18,1.53,2.31,3.22,1.63A9.94,9.94,0,0,1,962.81,54.6Z" transform="translate(-445.25 -24)"/><path class="cls-2" d="M731.09,148.43c.24,1.92,1.6,2.13,3.19,2.31a91.88,91.88,0,0,1,17.19,3.68,15.15,15.15,0,0,1,5.62,2.76c2,1.69,4,3.62,2.77,6.45-1.1,2.54-3,4.76-6.11,4.82-4.39.09-8.8.51-13.11-1.15-7.74-3-15.84-3.57-24.08-4s-16.75-1.36-25.16-1c-11.52.44-23,1.53-34.51,2.18-17.93,1-34.53,6.72-51.23,12.36a52.74,52.74,0,0,1-12.18,3.09c-5.86.52-7.81-1.72-6.69-7.42.32-1.63,1.35-3.11,1.12-4.87a14,14,0,0,1,7.08-5.92c1.89.58,2.89-.07,2.87-2.1,5.13-3.06,10-6.72,16.39-6.62,3.71-.75,7.67-.86,10.32-4.21a3.69,3.69,0,0,1,2.77-.65c1.26,1.79,1.95,1.25,2.32-.58a3.64,3.64,0,0,1,2.77-.57c1.71,1.89,2.91,1.69,3.57-.84a3.56,3.56,0,0,1,2.71-.54c1.72,2.05,2.95,1.83,3.65-.79a3.32,3.32,0,0,1,2.63-.51c2,1.86,3.84,2.37,5-.83a2.92,2.92,0,0,1,2.52-.31c.3.29.56.79.89.84,8.59,1.4,16.94-.94,25.4-1.66.15,0,.27-.3.41-.46a2.74,2.74,0,0,1,2.4.16c2.86,3,5.07,3.25,10.2,1a8.59,8.59,0,0,1,5.08.56c1.71,3.26,3.88,2.71,6.22.77a8.39,8.39,0,0,1,5.2.67c.9,2.44,2.15,2.5,3.68.52a5.93,5.93,0,0,1,4,.52c1.2,3.15,3,2.53,4.93.77a5.65,5.65,0,0,1,3.89.57c.82,2.63,2.11,2.67,3.77.69A3.21,3.21,0,0,1,731.09,148.43Z" transform="translate(-445.25 -24)"/><path class="cls-1" d="M973.2,1039.56c6.69-2,13.71-1.5,20.51-2.72,13.12-2.35,25.38-7.28,37.78-11.91,7.85-2.94,14.82-8.1,23.36-9.3,1.24-.17,2.46-.76,3.68-.73,11.36.24,22.62-2.23,34-1.27,10.84.92,20.81-2.24,30.6-6.17A187.75,187.75,0,0,0,1172.7,978c5-4.13,10.36-7.86,15.55-11.77a4.14,4.14,0,0,1,3-.77c1.24,16.36-6,28.2-20.06,35.68-15.17,8-31.57,12.86-48.29,16.58-4.32.95-8.75,1.61-12.91,3-13.29,4.6-27.09,6.16-41,7a183,183,0,0,0-21.27,2.86,20.22,20.22,0,0,0-12,6.44,37.4,37.4,0,0,1-25.94,13C996.45,1051,984,1048,973.2,1039.56Z" transform="translate(-445.25 -24)"/><path class="cls-2" d="M1429,679.06c-1.24.19-2.48.33-3.71.57-3.9.77-5-.08-5.23-3.86a11.69,11.69,0,0,1,2.28-7.07c9.41-14.84,17.09-30.47,21-47.69a172.14,172.14,0,0,0,3.52-21c1.32-13.05-1.17-26-.26-39,.39-5.65,1.77-7.42,7.77-8.7a13.33,13.33,0,0,1,5.18,6.13c3.06,6.76,6.41,13.43,8.11,20.74-1,2.41-.82,5-.7,7.45,1,19.88-4,38.45-11.67,56.57-1.53,3.62-4.06,6.8-4.76,10.77-4,2.64-4.76,7.6-8,10.88C1437.94,669.5,1434.19,675,1429,679.06Z" transform="translate(-445.25 -24)"/><path class="cls-1" d="M1450.53,654c.7-4,3.23-7.15,4.76-10.77,7.64-18.12,12.67-36.69,11.67-56.57-.12-2.49-.34-5,.7-7.45,2.31.66,3,2.76,4.1,4.54,6.41,10.82,8,22.44,5.49,34.66-1.41,6.82-3.35,13.5-6.83,19.59C1465.89,645.88,1459.86,652,1450.53,654Z" transform="translate(-445.25 -24)"/><path class="cls-1" d="M1193.58,103.92a3.23,3.23,0,0,1-2.85-1c-5.28-7.58-12.11-13.87-17.63-21.25-1.61-2.14-2-5-4.29-6.82-10.3-7.93-20.58-16-33.23-19.82-5.74-1.73-11.87-2.36-17.88-3-4.54-.48-8.3-2.68-12.29-4.44-.41-.18-.52-1.07-.77-1.64,17.47-1.19,34.41,0,49.29,10.72a92.74,92.74,0,0,1,17.21,16.54c6.51,7.94,13.51,15.52,19.14,24.15C1191.61,99.36,1193.73,101.1,1193.58,103.92Z" transform="translate(-445.25 -24)"/><path class="cls-1" d="M1102.17,45.47a2.57,2.57,0,0,1-2.64,1.32c-5.07-.76-8.53,1.77-10.86,5.77-1.7,2.91-3.87,3.42-6.82,2.93a143.7,143.7,0,0,0-25.44-2.38c-2.16,0-4.69.91-6.34-1.5,8.22-6.34,17.92-8.23,27.86-8.17,7.33.05,14.7.72,22.07,1A2.79,2.79,0,0,1,1102.17,45.47Z" transform="translate(-445.25 -24)"/><path class="cls-1" d="M1208.06,172.19c-1.59-.21-1.72-1.42-2-2.7q-2.62-10.35-5.45-20.64c-.88-3.22-1.53-6.52-3.33-9.46-2.44-4-.43-8.75-2.11-12.91-.16-.37.4-1.2.83-1.61,4-3.85,2.78-7.92.66-12.11-.94-1.83-2.3-3.61-1.53-5.91,4,3,4.91,7.61,6.05,12a57.36,57.36,0,0,1,1.69,18.76,56.91,56.91,0,0,0,2.58,20.49C1206.73,162.7,1208.6,167.25,1208.06,172.19Z" transform="translate(-445.25 -24)"/><path class="cls-1" d="M679.24,141.82c-.14.16-.26.45-.41.46-8.46.72-16.81,3.06-25.4,1.66-.33-.05-.59-.55-.89-.84C661.36,140.92,670.2,139.31,679.24,141.82Z" transform="translate(-445.25 -24)"/><path class="cls-1" d="M902,43.32c-.11.87-.38,1.74-1.27,2a139.34,139.34,0,0,0-18.69,7.44c-.65.3-1.62-.09-2.44-.16C886.11,47.1,893.81,44.57,902,43.32Z" transform="translate(-445.25 -24)"/><path class="cls-1" d="M691.84,143c-5.13,2.24-7.34,2-10.2-1C685.13,141.44,688.6,141.08,691.84,143Z" transform="translate(-445.25 -24)"/><path class="cls-1" d="M624.57,148.72c-2.65,3.35-6.61,3.46-10.32,4.21C616.78,149.28,620.75,149.18,624.57,148.72Z" transform="translate(-445.25 -24)"/><path class="cls-1" d="M936.13,41.63c-3.17,2.1-4.14,2-6.08-.72C932.18,40.28,934.26,40.1,936.13,41.63Z" transform="translate(-445.25 -24)"/><path class="cls-1" d="M703.14,144.32c-2.34,1.94-4.51,2.49-6.22-.77C699.1,143,701.23,142.76,703.14,144.32Z" transform="translate(-445.25 -24)"/><path class="cls-1" d="M915.91,40.94c-1.29,3.1-3,2.49-5,.63C912.44,40.11,914.14,40.28,915.91,40.94Z" transform="translate(-445.25 -24)"/><path class="cls-1" d="M720.9,146.8c-1.95,1.76-3.73,2.38-4.93-.77C717.74,145.47,719.45,145.35,720.9,146.8Z" transform="translate(-445.25 -24)"/><path class="cls-1" d="M1209.45,181.05c-3.09-1.17-2.47-2.9-.74-4.8C1210.17,177.67,1210,179.32,1209.45,181.05Z" transform="translate(-445.25 -24)"/><path class="cls-1" d="M650,143.41c-1.19,3.2-3,2.69-5,.83C646.45,142.67,648.2,142.83,650,143.41Z" transform="translate(-445.25 -24)"/><path class="cls-1" d="M952.56,49.27a3.14,3.14,0,0,1-3.5-3.28C951.62,45.6,952.41,47.09,952.56,49.27Z" transform="translate(-445.25 -24)"/><path class="cls-1" d="M728.56,148.06c-1.66,2-2.95,1.94-3.77-.69C726.21,146.76,727.51,146.72,728.56,148.06Z" transform="translate(-445.25 -24)"/><path class="cls-1" d="M636,146.08c-.66,2.53-1.86,2.73-3.57.84C633.37,145.56,634.62,145.54,636,146.08Z" transform="translate(-445.25 -24)"/><path class="cls-1" d="M712,145.51c-1.53,2-2.78,1.92-3.68-.52C709.69,144.33,711,144.29,712,145.51Z" transform="translate(-445.25 -24)"/><path class="cls-1" d="M642.36,144.75c-.7,2.62-1.93,2.84-3.65.79C639.69,144.2,641,144.19,642.36,144.75Z" transform="translate(-445.25 -24)"/><path class="cls-1" d="M957.33,52.55c-1.69.68-3,.55-3.22-1.63A3,3,0,0,1,957.33,52.55Z" transform="translate(-445.25 -24)"/><path class="cls-1" d="M597.86,159.55c0,2-1,2.68-2.87,2.1C595.53,160.38,596.27,159.38,597.86,159.55Z" transform="translate(-445.25 -24)"/><path class="cls-1" d="M944,44.08c-1.41.3-2.32-.17-2.54-1.67C943.13,41.66,943.83,42.45,944,44.08Z" transform="translate(-445.25 -24)"/><path class="cls-1" d="M629.66,147.49c-.37,1.83-1.06,2.37-2.32.58A1.48,1.48,0,0,1,629.66,147.49Z" transform="translate(-445.25 -24)"/><path class="cls-1" d="M907.09,42.2c-.44,2-1.2,2.57-2.54.57A1.66,1.66,0,0,1,907.09,42.2Z" transform="translate(-445.25 -24)"/><path class="cls-1" d="M1253.55,906.54c-.64-1.5-.62-2.71,1.34-3.06C1255.48,905,1254.7,905.83,1253.55,906.54Z" transform="translate(-445.25 -24)"/><path class="cls-1" d="M1231.58,929.92c-.13-1.76.69-2.48,2.41-2.21A2.29,2.29,0,0,1,1231.58,929.92Z" transform="translate(-445.25 -24)"/><path class="cls-1" d="M1213.82,945.16c-.1-1.81.76-2.54,2.53-2.23A2.46,2.46,0,0,1,1213.82,945.16Z" transform="translate(-445.25 -24)"/><path class="cls-2" d="M1151.56,677.48c.31,2-.49,4.2-1.38,6.31-2.2,5.24-.92,10.35.3,15.46.46,2,2.08,3.06,3.79,4a13.76,13.76,0,0,1,6,7.13,102.17,102.17,0,0,1,5.6,17.39c.13.61.62,1.34.43,1.8-2.83,6.89,1.42,12.07,4.15,17.62,1.12,2.27,2.3,4.51,3.33,6.82a4.87,4.87,0,0,1-2,6.59c-2.29,1.49-4.44.85-6.22-1.07-1.29-1.38-2.86-2.67-3.62-4.32-1.65-3.57-4.63-5.94-7-8.9-5.68-7.19-13.11-8.18-21.32-6.57-4.94,1-15.33-3.4-18.94-10.26a74.11,74.11,0,0,1-4.64-12.4,6.39,6.39,0,0,1,1.13-6c4.38-5.89,8.24-12.23,14.75-16.17,4.75-2.88,6.06-8.51,9.76-12.25,1-1,1.59-2.5,2.6-3.55,1.55-1.6,2-3.07.39-4.91-1.23-1.38-1.2-3.15-.88-4.81.66-3.38,3.54-4.9,6.61-3.37C1148.85,668.31,1151.6,671.79,1151.56,677.48Z" transform="translate(-445.25 -24)"/><path class="cls-2" d="M1379.53,593.92c.06,10.77-2.67,18.57-4.44,26.51a9.07,9.07,0,0,1-6.83,6.83c-3,.8-6.06,2-9.14,2.24-3.49.22-4.83,2-5.46,5-.13.61-.49,1.19-.56,1.8-.29,2.46-.84,4.67-4,4.71-2.65,0-4.32-1.81-5.08-5.37-1.58-7.3,0-14.6.42-21.84.23-4.34.69-8.75.87-13.15.16-3.76-.52-7.58.92-11.26a4.94,4.94,0,0,0-.2-3.71,13.38,13.38,0,0,1-.73-5.6c.26-10.1.53-20.18-3.89-29.68-1.53-3.3-1.74-6.47,1.65-9s7.07-2,10.71-.52a12.54,12.54,0,0,1,4.37,3.58,106.37,106.37,0,0,1,14.52,19.74c2.43,4.43,4.46,8.91,4.78,14.18C1377.84,584.37,1379,590.35,1379.53,593.92Z" transform="translate(-445.25 -24)"/><path class="cls-2" d="M1246.83,356.29c-9-2-18-1.3-26.58-3.34-1-.24-2.12-.77-3.06-.57-9.55,2-16.39-3-22.94-8.76q-10.66-9.36-21.26-18.78a11.79,11.79,0,0,1-3.22-3.82c-.91-2.18-1.26-5.21,1.36-6.08,3.21-1.07,4.47-3.61,6.38-5.75,4.44-5,9.33-4.26,12.24,1.77a8.28,8.28,0,0,1,1,3c.4,7,9,14.68,16.09,15.64,6.58.89,13.34,1.74,19,5.95a6.83,6.83,0,0,0,4.77,1.21c9.82-.84,19.65-1.51,29.48-2.22,1.26-.09,2.74.3,3.76-.23,5.76-3,12.35-2.16,18.34-4.17,3.44-1.16,7.16.34,8.27,2.67,1.25,2.6.29,5.8-3,8.16-2.42,1.71-4.55,3.73-6.87,5.54-2.87,2.25-6,3.73-9.88,3.26a12.81,12.81,0,0,0-10.91,3.44C1256.27,356.27,1250.92,355,1246.83,356.29Z" transform="translate(-445.25 -24)"/><path class="cls-2" d="M840.46,239.49c-4.77-.53-9.78-1-14.76-1.68a12.68,12.68,0,0,1-4.18-1.41c-6.77-3.67-7.51-9.17-1.66-14a53.35,53.35,0,0,1,10.91-7.44,193.5,193.5,0,0,1,24.42-10.28c5.12-1.64,9.21-5,13.3-8.26,7.71-6.22,15.49-12.25,25.09-15.45a19.64,19.64,0,0,1,6.79-1,5.21,5.21,0,0,1,5.22,3.82,4.45,4.45,0,0,1-2.23,5.43c-5.44,3.26-8.8,8.29-12.23,13.39-1.55,2.29-3.26,4.2-3.12,7.28.19,3.95-3,6.18-5.78,7.67a37,37,0,0,0-10.2,8.36,14.56,14.56,0,0,1-10,4.71c-5.29.51-10.33,1.17-13.25,6.78C847.18,240.48,843.56,239.31,840.46,239.49Z" transform="translate(-445.25 -24)"/><path class="cls-2" d="M732.2,835.14a5,5,0,0,1-6.88,4.29,45.85,45.85,0,0,1-8.72-3.64c-6-3.57-11.84-2.41-17.46.27-2.76,1.32-5.12,1.66-7.79.53-3.78-1.6-7.72-1.76-11.76-1.7a13.83,13.83,0,0,1-13.91-10.6c-.52-1.87.21-3.29.94-4.79,2.18-4.52,1.13-8.35-1.76-12.31a155.91,155.91,0,0,1-23.2-47.42c-1.29-4.28.69-7.84,2.37-11.44.93-2,2.92-2.19,4.91-2.05a3.71,3.71,0,0,1,3.58,3c.4,1.42,1.33,2.91,1.12,4.23-.89,5.53,2.61,10.12,3,15.37a7.26,7.26,0,0,0,2.26,4.42c5.81,5.22,8.7,12.36,12.63,18.78,3.51,5.74,8.13,10.67,11.42,16.59,1.82,3.26,5.52,5,9.17,6.32,6.93,2.53,14.09,4.19,21.2,6.06A38.52,38.52,0,0,1,730,830.78C731.28,832,732.4,833.23,732.2,835.14Z" transform="translate(-445.25 -24)"/><path class="cls-2" d="M565.13,421.51a10.85,10.85,0,0,1-.33,3.08c-.94,3-3.55,4.08-6.46,2.68a11.36,11.36,0,0,1-3.09-2.11,28.36,28.36,0,0,0-8-6A11.28,11.28,0,0,1,541.8,414c-3.2-6.95-7.59-13.58-7-21.77a13.6,13.6,0,0,0-2-8.45c-2.3-3.67-1.92-7.35-.81-11.46,1.93-7.1,3.9-14.12,7.46-20.61,1.34-2.45,2.92-4.74,5.67-5.62,5.71-1.82,10.82,3.3,9.33,9.52-1.42,6-2.56,11.95-1.92,18.05,1,9.34,1.62,18.78,5.08,27.69a19.19,19.19,0,0,0,2.67,5C564.11,411.21,565.16,414.41,565.13,421.51Z" transform="translate(-445.25 -24)"/><path class="cls-2" d="M1056.86,209.12c2.55.24,4.69,1.86,6.71,3.79A185.71,185.71,0,0,1,1080.28,231c5.65,7,11.31,14.07,16.44,21.54,3.55,5.17,4.92,11.13,7.45,16.66.95,2.08-.05,3.18-2.44,2.88-6.79-.84-11.66-4.83-15.34-10.11a34.07,34.07,0,0,0-11.14-10.46,31.72,31.72,0,0,1-13.16-15.61c-2.94-7.11-4.79-14.65-8.43-21.48C1052.09,211.46,1053.5,209.19,1056.86,209.12Z" transform="translate(-445.25 -24)"/><path class="cls-2" d="M670.49,521.76c1.93,4.22.68,7.21-.36,10.13-2.12,5.93-4.55,11.75-6.58,17.71a25.31,25.31,0,0,0-1.26,10.94c.83,8.76,1.2,17.77,0,26.44-.87,6.53-4.68,12.53-10.07,17-2.21,1.85-4.64,2.3-7,.86s-1.35-3.83-.4-5.66c2.83-5.46,2.84-11.29,2.66-17.19a18.45,18.45,0,0,1,.61-5.61c3.55-12.49,6.91-25,10.52-37.5A31.45,31.45,0,0,1,670.49,521.76Z" transform="translate(-445.25 -24)"/><path class="cls-2" d="M943.82,850.58c.08,4.24-.08,7.55.94,10.89,1.08,3.53.24,7.16-1.28,10.46-1.85,4-5.38,4.51-8.65,1.46a11.55,11.55,0,0,1-3.67-9,43.47,43.47,0,0,0-.77-10c-1.62-7.3-7.22-11.64-11.42-17-1.54-2-3.68-3.45-4.68-5.89-1.68-4,0-7.33,4.26-7.8,2.05-.23,4.24-.51,6.17.68,5.39,3.34,10.55,6.94,14.58,11.94C942.91,840.7,944.85,845.64,943.82,850.58Z" transform="translate(-445.25 -24)"/><path class="cls-2" d="M919.81,740.19c-.13,6.92-2.66,9.12-7.66,8.54a10.52,10.52,0,0,1-7-3.89c-6.54-7.76-11.95-16.18-14.12-26.26a19.33,19.33,0,0,1-.14-7.5c.79-4.11,5.79-5.71,8.11-2.4,4.94,7,12.72,11.68,16.23,19.86C917.14,733,919.52,737.16,919.81,740.19Z" transform="translate(-445.25 -24)"/><path class="cls-2" d="M935.07,505.49c-.06-5.32,6-13.58,10.7-15.08,2.4-.75,4.85-1.36,7.27-2.07,2.81-.83,5.46-.92,7.41,1.72a6.08,6.08,0,0,1,.1,7.13,122.89,122.89,0,0,1-8.53,13.2c-1.94,2.46-3.17,4.65-3.19,7.85,0,4.23-2,6.16-5.5,6.21s-5.65-1.94-5.73-6c-.08-3.82-.05-7.57-2.11-11A5.29,5.29,0,0,1,935.07,505.49Z" transform="translate(-445.25 -24)"/><path class="cls-2" d="M936.22,542.81a4.69,4.69,0,0,1,0,1.08c-3.1,8.77-3.73,18.67-11.26,25.43a91.1,91.1,0,0,1-8.9,7c-1.93,1.35-4.2,2-6.49.45s-2.68-3.72-2.37-6.14c.65-5.27,3.61-9.5,7.06-13.13,4.22-4.45,8.51-8.68,10.46-14.71a10.23,10.23,0,0,1,2.14-3.09c1.6-1.89,3.56-3.19,6.09-2.05C935.24,538.7,936.48,540.6,936.22,542.81Z" transform="translate(-445.25 -24)"/><path class="cls-3" d="M1213.1,162.22c-1.48,8.06.94,18.24,4.48,28.35,2.48,7.05,6.55,12.17,13.65,14.55a26,26,0,0,1,3.49,1.37,161.86,161.86,0,0,0,49.82,15.64c4.48.61,8.84,2.36,13.16,3.85,7.1,2.44,14.3,4.46,21.54,6.4,11.93,3.18,23.35,7.89,33.16,15.63,9.39,7.41,16.19,16.93,19.26,28.87a124.33,124.33,0,0,0,5.59,15.49,89.16,89.16,0,0,1,5.71,22,160.6,160.6,0,0,0,4.67,21c3.22,11.9,3.62,24.24,5.84,36.29a94.26,94.26,0,0,0,8.35,25.18c8.4,16.78,15.77,34.08,25.42,50.24,6.65,11.13,10.07,23.71,12.75,36.34,5.07,24,14.34,46.39,23.34,68.92,5.71,14.31,13,28,17.21,42.88,2.84,10,4.66,20.08,3.38,30.66a64.72,64.72,0,0,1-16.58,36.19c-8.84,9.9-19.17,18.12-29.24,26.64-16.3,13.78-32.62,27.54-48.73,41.55-9.67,8.4-17.59,18.59-26.15,28.11A344.1,344.1,0,0,1,1339,783.08c-25.41,23.13-46.25,49.66-59.93,81.77-6.12,14.37-11.78,28.93-17.88,43.31A141,141,0,0,1,1238.93,944c-19.32,22.91-40.85,43.46-65.9,59.73a464.16,464.16,0,0,1-64.52,34.53c-6.15,2.73-12.34,2.34-17.51-2.39-2.84-2.61-5.71-2.84-9.18-2.26a166.78,166.78,0,0,0-41.65,12.88,113.07,113.07,0,0,1-43.39,10.45,86.61,86.61,0,0,1-52.58-14.83c-8.5-5.7-17.27-11-26.16-16-15.21-8.64-31.62-13.86-48.7-17.14a222.73,222.73,0,0,1-31.28-8.56c-16.58-5.77-31.11-15.17-44.32-26.63-23.29-20.2-50.16-31.12-80.52-33.64-7.45-.62-14.91-1.42-21.23-6.32a14.31,14.31,0,0,0-9.48-2.62,67.07,67.07,0,0,0-10,.65c-17.54,3.33-33.3-2-48.5-10.09-8.72-4.66-16.17-11.09-23.61-17.56-2-1.78-4.16-3.79-6.6-4.7C582.09,895,572.63,887,562.94,879.4c-11.84-9.3-24.52-17.72-34.85-28.75-13.92-14.87-26.12-31.22-34.16-50.34-5.06-12.06-6.52-24.89-7.35-37.8-1.61-25.11,3.32-49.27,10.25-73.15,6.5-22.4,16.16-43.53,25-65,7.85-19.16,15.44-38.41,18.81-59.05,3.75-23-3.21-41.66-21.48-55.93a188,188,0,0,0-25.89-16.45,96.92,96.92,0,0,1-19-13.26c-14.78-13.47-21.83-31.14-26.4-50.13a95.72,95.72,0,0,1,2.16-52c7.82-24.78,15.65-49.57,26-73.46,7.54-17.51,17.11-33.89,26.9-50.1,11.87-19.65,24.14-39.07,38.38-57.06,17.4-22,37.45-40.73,62.66-53.26,15.37-7.64,31.63-11.49,48.5-13.24,14.46-1.49,28.91-3.16,43.39-4.49,17.73-1.63,34.84.73,50.93,9,3.16,1.61,6.31,3.26,9.54,4.7,8.34,3.7,11.73,2.71,17-4.72A145.37,145.37,0,0,0,783.9,117c4.11-8.09,8.39-16.07,12.91-23.93,9.25-16.12,22.25-28.35,37.71-38,10.62-6.64,21.39-13,32.18-19.4,19.65-11.55,40.41-14.54,62.52-8.81,14.92,3.86,29.49,8.88,44.3,13.08a86.66,86.66,0,0,0,38.85,2.2c7-1.19,14-2.27,21.08-2a145.4,145.4,0,0,0,37.76-3.49,82.4,82.4,0,0,1,35.91,0,46.77,46.77,0,0,0,18,.53c13-2.22,24,2.25,34.48,9.56,28.93,20.13,43.38,49.32,50.76,83A127,127,0,0,1,1213.1,162.22Zm-18.37-1.35c1.15-17.65-2.85-35.67-9.88-53.15-7.28-18.14-18.39-33-34.69-43.78-7-4.63-14.45-7.25-22.88-7s-17-.74-25.5-1.72a62,62,0,0,0-18,.07c-17.62,3.1-35.23,6.15-53,7.94-8.89.89-17.57,3.37-26.51,4-15.4,1.1-30.2-2-44.75-6.81-11.66-3.84-23.15-8.22-35.09-11.24-13.27-3.35-26-1.92-38.43,3.36A150.59,150.59,0,0,0,867.56,62c-17,10.13-31.45,22.86-41.27,40.53-3.79,6.82-7.51,13.68-11.44,20.41-7.56,13-15.85,25.37-26.3,36.15-8.82,9.09-19.25,12-31.4,8.73a78.88,78.88,0,0,1-15.59-6.4,73.93,73.93,0,0,0-39.27-8c-18.26,1.12-36.52,2.4-54.69,4.48A98.93,98.93,0,0,0,607.2,172c-17.41,10.57-31.74,24.59-44.1,40.74-18.19,23.77-33.56,49.43-47.88,75.78-16,29.45-26.72,61.06-36.76,93-6.61,21-5,41.79,1.33,62.47a53.33,53.33,0,0,0,20.37,28.12c3.89,2.82,8,5.4,12,8a170.11,170.11,0,0,1,31.92,26.32A68.69,68.69,0,0,1,562,540.72c3.55,18,2.25,35.86-1,53.65-4.67,25.51-13.31,49.85-22.05,74.09-9.27,25.74-16.52,51.88-20.48,79.06-2.84,19.44-.8,37.44,10.1,54.12,6.22,9.51,11.69,19.53,17.66,29.21,3.31,5.37,6.67,10.79,11.3,15.14a249.22,249.22,0,0,0,39.67,30.67c8,4.94,16.07,9.74,24,14.82,9,5.75,17.79,11.74,26.66,17.65,7.2,4.8,14.78,7.68,23.58,5.43a45.06,45.06,0,0,1,6.81-.78c6.55-.68,13.13-.14,18.82,3.1,6.49,3.69,13.31,4.41,20.4,4.79a151.88,151.88,0,0,1,49.06,11.27c15.06,6.12,28.07,15.66,40.63,25.79A137.49,137.49,0,0,0,868.41,987c21.57,4.17,42.47,10.34,61.72,21.4,8.33,4.78,16.88,9.26,24.78,14.71,16.61,11.47,34.75,13,53.82,9.95,11.44-1.85,21.68-7.25,32.33-11.44,19.17-7.55,38.84-12.49,59.59-11.52a17.94,17.94,0,0,0,9.58-2.26c16.53-8.94,33.13-17.78,48.7-28.4,19.65-13.4,36.54-30,52.38-47.78a137.43,137.43,0,0,0,26.62-43.37Q1244.07,872,1251,856c6.65-15.32,14-30.25,23.28-44.16,13.19-19.82,30.12-36.11,47.14-52.31,10.79-10.27,21.38-20.72,31.24-31.94a237.4,237.4,0,0,1,23.49-23.66c21-18,42-36,62.78-54.22,17.24-15.1,20.24-27,13.19-49.14-3.48-10.91-8.24-21.27-12.47-31.86-7.14-17.87-11.41-36.72-17.64-54.91a61.74,61.74,0,0,1-2.45-11.79c-1.86-13.91-5.49-27.37-9.64-40.71a48,48,0,0,0-6.85-13.45c-15.25-21.59-26.31-45.09-31.11-71.42q-4.26-23.43-8.63-46.83c-3.64-19.6-8.48-38.85-16.14-57.29a29.25,29.25,0,0,0-11.48-13.79,39,39,0,0,0-14.5-5.51c-11.25-2.06-22.5-4.17-33.47-7.54-15.34-4.72-30.8-8.92-46.74-11a35.61,35.61,0,0,1-18.55-8.42,116.45,116.45,0,0,1-17.18-17.49,53,53,0,0,1-10.81-27.32C1193.74,174.85,1194.45,168.56,1194.73,160.87Z" transform="translate(-445.25 -24)"/><path class="cls-3" d="M1180.59,307.35c-6,9-5.91,9,.36,17a61.71,61.71,0,0,1,4.64,7.5c5.58,9.76,13.72,15.6,24.73,17.38a52.69,52.69,0,0,0,22.87-1c10.64-2.95,21.15-3.76,31.91-.27,5.81,1.89,8.33.43,11.15-5,1.25-2.42,2.09-5.06,3.14-7.59,1.12-2.74,2.85-4.72,6-4.6s5.23,2.18,6.39,5.18c2.3,5.93-.45,15.32-6,20.11-6.57,5.65-14.23,7.86-22,4.13-10.65-5.09-21.29-4.34-32.33-2.61a62,62,0,0,1-32.46-3.81,36,36,0,0,1-18.75-16,11.18,11.18,0,0,0-6.64-5.3,31.33,31.33,0,0,1-12.84-7.55c-5.69-5.84-3.85-13.83,3.8-16.6a12.3,12.3,0,0,1,3.61-.92C1172.05,307.28,1176,307.35,1180.59,307.35Z" transform="translate(-445.25 -24)"/><path class="cls-3" d="M653.22,743c1,3.39.19,6.07-.71,8.63-2.07,5.89-.91,11.29,2.14,16.4,6,10.12,11.81,20.45,18.37,30.21,5.43,8.09,8.13,16,3.83,25.48-1.81,4-.63,5.57,3.89,6.65a64.17,64.17,0,0,0,24.15,1.06c6.38-.91,12.72-2.15,19.21-1.72,1.24.09,2.52-.05,3.73.16,2.66.48,5.56.8,6.71,3.84,1,2.75-.29,5-2.3,6.72-2.43,2.14-5.17,4.21-8.36,2-3.43-2.33-6.8-2-10.65-1.69-12.45.85-24.93.05-37.34-1.14-8.26-.79-11.12-7-7.5-14.73a48,48,0,0,1,3.34-6.1c2.56-3.86,2.54-7.77-.41-11.12-9.56-10.87-15.15-24.22-22.44-36.51-.64-1.08-1.21-2.22-1.79-3.34C642.41,758.74,644.48,749.88,653.22,743Z" transform="translate(-445.25 -24)"/><path class="cls-3" d="M1362.73,499.09a48.21,48.21,0,0,1-7.61,11.52,37,37,0,0,0-9,19.84c-.38,2.95.08,4.83,3.32,5.6,6.34,1.53,10.11,6.29,11.45,12.25,2.54,11.28,7.59,21.44,12.25,31.8a37.84,37.84,0,0,1,3.19,19.14,102.83,102.83,0,0,0-.07,15.2c.48,7.64-1.52,10.65-8.55,13.58-1.92.8-3.9,1.45-5.86,2.15-5.52,2-10.86,4.24-14.56,9.25-.86,1.16-2,2.52-3.63,1.69-1.78-.9-1.78-2.8-1.41-4.48.72-3.25,2.87-5.47,5.41-7.46,4-3.16,8.91-4.49,13.46-6.49,7.55-3.32,8.14-3.85,7-11.71-.65-4.34.1-8.47.82-12.58a29.91,29.91,0,0,0-2.61-18.51,221.86,221.86,0,0,1-11.12-27.53c-1.73-5.39-5.17-8.9-11.57-8.5-4.54.28-7-2.28-5.94-6.6,1.89-8,2.8-16.3,6.9-23.6C1348.51,506.64,1353.63,501,1362.73,499.09Z" transform="translate(-445.25 -24)"/><path class="cls-3" d="M1137.71,671.27c3.74,4.54,4.09,7.1.76,10a44.31,44.31,0,0,0-9.78,13,15.87,15.87,0,0,1-7.52,7.33,21.55,21.55,0,0,0-2.74,1.51c-7.86,5.09-10.18,12.47-6.65,21.15,1.79,4.42,4.54,7.24,9.68,7.6,5.58.39,11.11,1.52,16.65,2.39a22.78,22.78,0,0,1,7.66,2.55A45.38,45.38,0,0,1,1166.19,760a6.74,6.74,0,0,1,.46,1.83,6.28,6.28,0,0,1-.26,1.48c-3.46-1.44-6.91-2.72-9.6-5.47-9.25-9.48-20.76-14.54-33.26-17.69-2.22-.56-4.44-1.13-6.59-1.9a11.44,11.44,0,0,1-5.5-4c-5.53-7.51-6.14-23.49-1.25-31.41a16.07,16.07,0,0,1,7.15-5.92,16.47,16.47,0,0,0,7.11-6c2.83-4.44,5.49-9,10.41-11.52C1137.79,677.87,1136.64,674.48,1137.71,671.27Z" transform="translate(-445.25 -24)"/><path class="cls-3" d="M554.9,343c.53,4.21-1.55,6.58-3.69,8.95a40,40,0,0,0-8.62,13.82,24.83,24.83,0,0,0-.35,16.19c2.51,7.62,5.06,15.22,7.3,22.93a33,33,0,0,0,6.17,11.67c2.67,3.27,4.87,4,8.76,2.31,2.89-1.25,5.15-1.59,6.87,1.57a6.46,6.46,0,0,1-1.88,7.93c-3.84,3-8.12,2.94-12.39,1.11-6-2.54-9.41-7.57-11.78-13.33-4.5-10.95-7.38-22.48-10.34-33.89-3.24-12.48.08-23.41,10.63-31.48C548.71,348.36,551.64,345.7,554.9,343Z" transform="translate(-445.25 -24)"/><path class="cls-3" d="M916.93,831.64c10.31,8.6,18.15,17.61,20.27,30.47,1.2,7.32,3.89,13.7,9.11,19,4.41,4.47,8.55,9.22,12.83,13.81a16.28,16.28,0,0,1,3.92,5.65c.72,2.07,1.09,4.33-.73,5.9s-4,.5-5.65-.84c-3.55-2.91-7-5.92-10.41-9-4.27-4-9-7.48-12.58-12.23-3.39-4.47-6.11-9.31-6.42-14.87-.49-8.76-4-16.29-7.7-23.89C916.55,839.35,916.5,838.91,916.93,831.64Z" transform="translate(-445.25 -24)"/><path class="cls-3" d="M1204.48,504.68a8.28,8.28,0,0,1,7.13,1.43c10.54,6.46,20.7,13.46,28.09,23.74,6.82,9.48,12.61,19.46,11.91,31.9-.15,2.55.57,4.49,3,5.71,1.94,1,3.51,2.39,2.7,5a6.4,6.4,0,0,1-6.38,4.12,9.31,9.31,0,0,1-8.35-7.36,15.06,15.06,0,0,1-.2-5.05c1.78-11.58-3.55-20.5-10.45-28.71a101.38,101.38,0,0,0-12.66-12.19C1213.29,518.27,1209.68,511.26,1204.48,504.68Z" transform="translate(-445.25 -24)"/><path class="cls-3" d="M701.41,464.93a10.33,10.33,0,0,1-.59,2.32c-11,18.82-15,40.28-21.81,60.66a60.46,60.46,0,0,0-2.32,10.51,222.48,222.48,0,0,1-5.43,27.36,30.22,30.22,0,0,0,0,17.52c2.63,8.2.17,14.45-6.61,19.3-2.71,1.94-5.16,4.27-7.86,6.23-1.35,1-3.16,1.69-4.42-.13-1-1.48-.06-2.86,1-3.91,2.87-2.76,5.71-5.56,8.72-8.15,3.61-3.1,4.74-6.66,3.12-11.28-2.61-7.45-2.2-15-.06-22.47a102.67,102.67,0,0,0,4-21.17c1.08-15.78,6-30.69,10.55-45.61,3.21-10.56,8.33-20.31,16.13-28.29C697.13,466.41,698.32,464.44,701.41,464.93Z" transform="translate(-445.25 -24)"/><path class="cls-3" d="M906.17,181a340.32,340.32,0,0,0-19,32.19c-5.16,10-13.46,15.84-23.38,19.76a61.13,61.13,0,0,0-10.53,5.39c-5.17,3.28-10.65,5.41-17,5.33-5.21-.07-9.07-2.62-12.95-5.47a2.77,2.77,0,0,1-1.13-3.34c.54-1.43,1.91-1.63,3.15-1.35A14.25,14.25,0,0,1,829.4,235a15.31,15.31,0,0,0,16.62-.41c7.46-4.75,15.53-8,23.57-11.29,7.61-3.17,11.82-9.73,16-16.28,3.19-4.94,6.17-10,9.26-15C897.55,187.66,901.2,184.39,906.17,181Z" transform="translate(-445.25 -24)"/><path class="cls-3" d="M1103,275.1c-7.54-4.82-14.8-9.69-22.28-14.19-11.35-6.85-19.55-16.07-23.14-29.3-1.55-5.69-3.86-11.15-5.81-16.72a35,35,0,0,1-1.33-4.22c-.39-1.83-1-4.06,1.28-4.94,2-.74,2.94,1.19,3.78,2.58a66.13,66.13,0,0,1,7.69,17.95c3.45,13.49,11.41,23,23,30.13C1093.23,260.77,1099.57,266.37,1103,275.1Z" transform="translate(-445.25 -24)"/><path class="cls-3" d="M916.1,575.4c.27-3,2.8-3.72,4.62-4.84,5.35-3.29,8.52-7.46,8.45-14.32,0-5.76,3.13-10.83,6.07-15.55,4-6.4,5.93-12.8,3.88-20.37a47.78,47.78,0,0,1-2-15.66c.17-2.6.18-5.35,3.56-7.47.42,4.34-.63,8.14,1.09,11.63a92.34,92.34,0,0,1,4.12,9.91c2.61,7.34,2.33,14.55-1.69,21.34-1.91,3.22-3.53,6.58-6,9.54-2.05,2.47-3,6-3.2,9.4-.5,6.63-4,11-9.83,13.4C922.31,573.58,919.85,576.55,916.1,575.4Z" transform="translate(-445.25 -24)"/><path class="cls-3" d="M899.33,715.45c1.74,2.81,1.71,5.58,1.64,8.3-.22,8.75,4.66,14,11.6,18,.54.31,1.16.47,1.72.73,1.57.74,4.21.54,3.73,3.3-.42,2.4-2.65,3.12-4.71,3.51a7.32,7.32,0,0,1-3-.39c-10.35-2.79-18.29-18.47-14.52-28.6A8.82,8.82,0,0,1,899.33,715.45Z" transform="translate(-445.25 -24)"/><path class="cls-3" d="M1155,709.05c-4.85-3.15-11.39-13.94-11.55-19.08a7.46,7.46,0,0,1,0-1.25c.15-1.26.29-2.68,1.84-2.83,1.21-.12,1.71,1,2,2a80.18,80.18,0,0,0,5.07,12.14c.89,1.86,1.69,3.77,2.63,5.62C1155.6,706.84,1156.1,707.92,1155,709.05Z" transform="translate(-445.25 -24)"/><path class="cls-3" d="M1156.35,710.66l-.21.43-.58-.45.41-.42C1156.1,710.36,1156.22,710.51,1156.35,710.66Z" transform="translate(-445.25 -24)"/></svg>