<svg id="Layer_14" data-name="Layer 14" xmlns="http://www.w3.org/2000/svg" xmlns:xlink="http://www.w3.org/1999/xlink" viewBox="0 0 438.29 1000.48"><defs><style>.cls-1{fill:url(#New_Gradient_Swatch_4);}.cls-2{fill:url(#New_Gradient_Swatch_5);}.cls-3{fill:url(#New_Gradient_Swatch_5-2);}.cls-4{fill:url(#New_Gradient_Swatch_4-2);}.cls-5{fill:url(#New_Gradient_Swatch_5-3);}.cls-6{fill:url(#New_Gradient_Swatch_5-4);}.cls-7{fill:url(#New_Gradient_Swatch_4-3);}.cls-8,.cls-9{fill-rule:evenodd;}.cls-8{fill:url(#New_Gradient_Swatch_6);}.cls-9{fill:url(#New_Gradient_Swatch_6-2);}</style><linearGradient id="New_Gradient_Swatch_4" x1="674.21" y1="60.52" x2="674.21" y2="170.3" gradientUnits="userSpaceOnUse"><stop offset="0.09" stop-color="#8621fe"/><stop offset="0.1" stop-color="#8521fd"/><stop offset="0.59" stop-color="#2b2f9f"/><stop offset="0.81" stop-color="#08357a"/></linearGradient><linearGradient id="New_Gradient_Swatch_5" x1="909.13" y1="349.27" x2="800.7" y2="349.27" xlink:href="#New_Gradient_Swatch_4"/><linearGradient id="New_Gradient_Swatch_5-2" x1="909.13" y1="295.45" x2="800.7" y2="295.45" xlink:href="#New_Gradient_Swatch_4"/><linearGradient id="New_Gradient_Swatch_4-2" x1="674.21" y1="60.52" x2="674.21" y2="170.3" xlink:href="#New_Gradient_Swatch_4"/><linearGradient id="New_Gradient_Swatch_5-3" x1="909.13" y1="765.59" x2="800.7" y2="765.59" xlink:href="#New_Gradient_Swatch_4"/><linearGradient id="New_Gradient_Swatch_5-4" x1="909.13" y1="826.73" x2="800.7" y2="826.73" xlink:href="#New_Gradient_Swatch_4"/><linearGradient id="New_Gradient_Swatch_4-3" x1="674.21" y1="1061" x2="674.21" y2="951.22" xlink:href="#New_Gradient_Swatch_4"/><linearGradient id="New_Gradient_Swatch_6" x1="472.3" y1="568.45" x2="874.81" y2="568.45" gradientUnits="userSpaceOnUse"><stop offset="0" stop-color="#7d22f4"/><stop offset="0.43" stop-color="#08357a"/><stop offset="0.66" stop-color="#08357a"/><stop offset="1" stop-color="#8621fe"/></linearGradient><linearGradient id="New_Gradient_Swatch_6-2" x1="472.3" y1="543.7" x2="874.81" y2="543.7" xlink:href="#New_Gradient_Swatch_6"/></defs><g id="_3" data-name="3"><path class="cls-1" d="M858.39,111.19l-56.63,52.75a24.09,24.09,0,0,1-16.38,6.36H558.14a24,24,0,0,1-16.88-6.84l-41.17-40.73L476.74,97.54c-13.34-14.38-2.61-37,17.55-37H854.11c20.44,0,31.07,23.17,17.18,37.43Z" transform="translate(-470.83 -60.52)"/><path class="cls-2" d="M858.7,161.7l-49.44,17.18c-5.2,1.81-8.56,6-8.56,10.53V499.63c0,4.23,2.82,8.06,7.42,10.05,16.38,7.12,33.43,15.05,51,23.87q14.56,7.34,28,14.67c9.41,5.13,22-.28,22-9.48V159.82c0-8.52-11.06-14.06-20.45-10.25l-29.23,11.85C859.21,161.52,859,161.61,858.7,161.7Z" transform="translate(-470.83 -60.52)"/><path class="cls-3" d="M859.08,123.79,807,176.57a21.72,21.72,0,0,0-6.28,15.27V403.63a21.73,21.73,0,0,0,6.75,15.73l40.23,38.36q12.45,10.88,24.88,21.77c14.21,12.43,36.57,2.42,36.57-16.37V127.78c0-19-22.88-28.95-37-16Z" transform="translate(-470.83 -60.52)"/><path class="cls-4" d="M490,111.19l56.63,52.75A24,24,0,0,0,563,170.3H790.28a24,24,0,0,0,16.87-6.84l41.17-40.73,23.35-25.19c13.34-14.38,2.61-37-17.55-37H494.3c-20.44,0-31.07,23.17-17.18,37.43Z" transform="translate(-470.83 -60.52)"/><path class="cls-5" d="M858.7,953.16,809.26,936c-5.2-1.81-8.56-6-8.56-10.53V615.23c0-4.23,2.82-8.06,7.42-10.05,16.38-7.12,33.43-15,51-23.87q14.56-7.34,28-14.67c9.41-5.13,22,.28,22,9.48V955c0,8.52-11.06,14.06-20.45,10.25l-29.23-11.85C859.21,953.34,859,953.25,858.7,953.16Z" transform="translate(-470.83 -60.52)"/><path class="cls-6" d="M859.08,998.38,807,945.61a21.72,21.72,0,0,1-6.28-15.27V718.55a21.73,21.73,0,0,1,6.75-15.73l40.23-38.36,24.88-21.77c14.21-12.43,36.57-2.43,36.57,16.36V994.4c0,19.05-22.88,29-37,16Z" transform="translate(-470.83 -60.52)"/><path class="cls-7" d="M490,1010.33l56.63-52.75A24.09,24.09,0,0,1,563,951.22H790.28a24,24,0,0,1,16.87,6.84q20.58,20.37,41.17,40.73L871.67,1024c13.34,14.39,2.61,37-17.55,37H494.3c-20.44,0-31.07-23.16-17.18-37.42Z" transform="translate(-470.83 -60.52)"/><path class="cls-8" d="M861,550H486.16c-12.52,0-18.6,7.78-9.5,12.14L524.28,585a22.63,22.63,0,0,0,9.5,1.92H813.33a22.55,22.55,0,0,0,9.49-1.92l47.63-22.87C879.54,557.77,873.46,550,861,550Z" transform="translate(-470.83 -60.52)"/><path class="cls-9" d="M861,562.17H486.16c-12.52,0-18.6-7.78-9.5-12.15l47.62-22.86a22.63,22.63,0,0,1,9.5-1.92H813.33a22.55,22.55,0,0,1,9.49,1.92L870.45,550C879.54,554.39,873.46,562.17,861,562.17Z" transform="translate(-470.83 -60.52)"/></g></svg>