<svg id="Layer_14" data-name="Layer 14" xmlns="http://www.w3.org/2000/svg" xmlns:xlink="http://www.w3.org/1999/xlink" viewBox="0 0 424.35 898.36"><defs><style>.cls-1{fill:url(#New_Gradient_Swatch_4);}.cls-2{fill:url(#New_Gradient_Swatch_5);}.cls-3{fill:url(#New_Gradient_Swatch_5-2);}.cls-4{fill:url(#New_Gradient_Swatch_4-2);}.cls-5{fill:url(#New_Gradient_Swatch_5-3);}.cls-6{fill:url(#New_Gradient_Swatch_5-4);}.cls-7{fill:url(#New_Gradient_Swatch_4-3);}.cls-8,.cls-9{fill-rule:evenodd;}.cls-8{fill:url(#New_Gradient_Swatch_6);}.cls-9{fill:url(#New_Gradient_Swatch_6-2);}</style><linearGradient id="New_Gradient_Swatch_4" x1="264.08" y1="25" x2="264.08" y2="123.57" gradientUnits="userSpaceOnUse"><stop offset="0.09" stop-color="#8621fe"/><stop offset="0.1" stop-color="#8521fd"/><stop offset="0.59" stop-color="#2b2f9f"/><stop offset="0.81" stop-color="#08357a"/></linearGradient><linearGradient id="New_Gradient_Swatch_5" x1="50.68" y1="284.28" x2="149.31" y2="284.28" xlink:href="#New_Gradient_Swatch_4"/><linearGradient id="New_Gradient_Swatch_5-2" x1="50.68" y1="235.95" x2="149.31" y2="235.95" xlink:href="#New_Gradient_Swatch_4"/><linearGradient id="New_Gradient_Swatch_4-2" x1="264.08" y1="25" x2="264.08" y2="123.57" xlink:href="#New_Gradient_Swatch_4"/><linearGradient id="New_Gradient_Swatch_5-3" x1="475.03" y1="658.1" x2="377.66" y2="658.1" xlink:href="#New_Gradient_Swatch_4"/><linearGradient id="New_Gradient_Swatch_5-4" x1="475.03" y1="713" x2="377.66" y2="713" xlink:href="#New_Gradient_Swatch_4"/><linearGradient id="New_Gradient_Swatch_4-3" x1="264.08" y1="923.36" x2="264.08" y2="824.79" xlink:href="#New_Gradient_Swatch_4"/><linearGradient id="New_Gradient_Swatch_6" x1="82.78" y1="481.09" x2="444.21" y2="481.09" gradientUnits="userSpaceOnUse"><stop offset="0" stop-color="#7d22f4"/><stop offset="0.43" stop-color="#08357a"/><stop offset="0.66" stop-color="#08357a"/><stop offset="1" stop-color="#8621fe"/></linearGradient><linearGradient id="New_Gradient_Swatch_6-2" x1="82.78" y1="458.86" x2="444.21" y2="458.86" xlink:href="#New_Gradient_Swatch_6"/></defs><g id="_5" data-name="5"><path class="cls-1" d="M429.47,70.49l-50.85,47.37a21.6,21.6,0,0,1-14.71,5.71h-204a21.59,21.59,0,0,1-15.16-6.14l-37-36.57-21-22.62C74.79,45.32,84.43,25,102.53,25h323.1c18.35,0,27.89,20.8,15.42,33.6Z" transform="translate(-50.68 -25)"/><path class="cls-2" d="M96.55,115.85l45,15.43c4.72,1.62,7.79,5.34,7.79,9.45V419.29c0,3.8-2.57,7.24-6.75,9-14.9,6.39-30.41,13.5-46.36,21.43Q83,456.34,70.72,462.92c-8.56,4.6-20-.25-20-8.51V114.16c0-7.65,10-12.62,18.6-9.2L95.86,115.6Z" transform="translate(-50.68 -25)"/><path class="cls-3" d="M96.2,79.81l47.39,48a19.75,19.75,0,0,1,5.72,13.89V334.35a19.76,19.76,0,0,1-6.15,14.31l-36.59,34.89-22.63,19.8C71,414.66,50.68,405.56,50.68,388.47v-305c0-17.32,20.81-26.34,33.62-14.56Z" transform="translate(-50.68 -25)"/><path class="cls-4" d="M98.7,70.49l50.85,47.37a21.59,21.59,0,0,0,14.7,5.71H368.31a21.57,21.57,0,0,0,15.15-6.14l37-36.57,21-22.62c12-12.92,2.34-33.24-15.76-33.24H102.54c-18.35,0-27.9,20.8-15.42,33.6Z" transform="translate(-50.68 -25)"/><path class="cls-5" d="M429.75,826.53l-44.4-15.43c-4.66-1.62-7.69-5.34-7.69-9.45V523.09c0-3.8,2.54-7.24,6.67-9,14.7-6.39,30-13.5,45.76-21.43q13.08-6.57,25.15-13.17c8.45-4.6,19.79.26,19.79,8.51V828.22c0,7.65-9.93,12.62-18.37,9.2l-26.24-10.63Z" transform="translate(-50.68 -25)"/><path class="cls-6" d="M430.09,867.14,383.3,819.75A19.53,19.53,0,0,1,377.66,806V615.87a19.52,19.52,0,0,1,6.07-14.13l36.12-34.44,22.34-19.55C455,536.59,475,545.57,475,562.44V863.56c0,17.1-20.55,26-33.2,14.37Z" transform="translate(-50.68 -25)"/><path class="cls-7" d="M98.7,877.87l50.85-47.37a21.59,21.59,0,0,1,14.7-5.71H368.31a21.57,21.57,0,0,1,15.15,6.14l37,36.58,21,22.61c12,12.92,2.34,33.24-15.76,33.24H102.54c-18.35,0-27.9-20.79-15.42-33.6Z" transform="translate(-50.68 -25)"/><path class="cls-8" d="M431.77,464.51H95.23c-11.24,0-16.7,7-8.53,10.9L129.46,496a20.4,20.4,0,0,0,8.53,1.72H389a20.32,20.32,0,0,0,8.52-1.72l42.76-20.54C448.46,471.49,443,464.51,431.77,464.51Z" transform="translate(-50.68 -25)"/><path class="cls-9" d="M431.77,475.44H95.23c-11.24,0-16.7-7-8.53-10.9L129.46,444a20.24,20.24,0,0,1,8.53-1.72H389a20.16,20.16,0,0,1,8.52,1.72l42.76,20.53C448.46,468.46,443,475.44,431.77,475.44Z" transform="translate(-50.68 -25)"/></g></svg>