<svg id="Layer_14" data-name="Layer 14" xmlns="http://www.w3.org/2000/svg" xmlns:xlink="http://www.w3.org/1999/xlink" viewBox="0 0 423.41 896.36"><defs><style>.cls-1{fill:url(#New_Gradient_Swatch_4);}.cls-2{fill:url(#New_Gradient_Swatch_5);}.cls-3{fill:url(#New_Gradient_Swatch_5-2);}.cls-4{fill:url(#New_Gradient_Swatch_5-3);}.cls-5{fill:url(#New_Gradient_Swatch_5-4);}.cls-6{fill:url(#New_Gradient_Swatch_4-2);}.cls-7{fill:url(#New_Gradient_Swatch_5-5);}.cls-8{fill:url(#New_Gradient_Swatch_5-6);}.cls-9{fill:url(#New_Gradient_Swatch_5-7);}.cls-10{fill:url(#New_Gradient_Swatch_5-8);}.cls-11{fill:url(#New_Gradient_Swatch_4-3);}.cls-12,.cls-13{fill-rule:evenodd;}.cls-12{fill:url(#New_Gradient_Swatch_6);}.cls-13{fill:url(#New_Gradient_Swatch_6-2);}</style><linearGradient id="New_Gradient_Swatch_4" x1="906.61" y1="37" x2="906.61" y2="135.35" gradientUnits="userSpaceOnUse"><stop offset="0.09" stop-color="#8621fe"/><stop offset="0.1" stop-color="#8521fd"/><stop offset="0.59" stop-color="#2b2f9f"/><stop offset="0.81" stop-color="#08357a"/></linearGradient><linearGradient id="New_Gradient_Swatch_5" x1="1117.08" y1="295.7" x2="1019.93" y2="295.7" xlink:href="#New_Gradient_Swatch_4"/><linearGradient id="New_Gradient_Swatch_5-2" x1="693.68" y1="295.7" x2="792.09" y2="295.7" xlink:href="#New_Gradient_Swatch_4"/><linearGradient id="New_Gradient_Swatch_5-3" x1="1117.08" y1="247.48" x2="1019.93" y2="247.48" xlink:href="#New_Gradient_Swatch_4"/><linearGradient id="New_Gradient_Swatch_5-4" x1="693.68" y1="247.48" x2="792.09" y2="247.48" xlink:href="#New_Gradient_Swatch_4"/><linearGradient id="New_Gradient_Swatch_4-2" x1="906.61" x2="906.61" y2="135.35" xlink:href="#New_Gradient_Swatch_4"/><linearGradient id="New_Gradient_Swatch_5-5" x1="1117.08" y1="668.69" x2="1019.93" y2="668.69" xlink:href="#New_Gradient_Swatch_4"/><linearGradient id="New_Gradient_Swatch_5-6" x1="693.68" y1="668.69" x2="792.09" y2="668.69" xlink:href="#New_Gradient_Swatch_4"/><linearGradient id="New_Gradient_Swatch_5-7" x1="1117.08" y1="723.47" x2="1019.93" y2="723.47" xlink:href="#New_Gradient_Swatch_4"/><linearGradient id="New_Gradient_Swatch_5-8" x1="693.68" y1="723.47" x2="792.09" y2="723.47" xlink:href="#New_Gradient_Swatch_4"/><linearGradient id="New_Gradient_Swatch_4-3" x1="906.61" y1="933.36" x2="906.61" y2="835.01" xlink:href="#New_Gradient_Swatch_4"/><linearGradient id="New_Gradient_Swatch_6" x1="725.71" y1="492.07" x2="1086.34" y2="492.07" gradientUnits="userSpaceOnUse"><stop offset="0" stop-color="#7d22f4"/><stop offset="0.43" stop-color="#08357a"/><stop offset="0.66" stop-color="#08357a"/><stop offset="1" stop-color="#8621fe"/></linearGradient><linearGradient id="New_Gradient_Swatch_6-2" x1="725.71" y1="469.9" x2="1086.34" y2="469.9" xlink:href="#New_Gradient_Swatch_6"/></defs><g id="_8" data-name="8"><path class="cls-1" d="M1071.62,82.39l-50.73,47.26a21.51,21.51,0,0,1-14.68,5.7H802.62a21.54,21.54,0,0,1-15.13-6.12l-36.88-36.5L729.69,70.17C717.74,57.28,727.35,37,745.42,37h322.37c18.31,0,27.84,20.75,15.39,33.53Q1077.4,76.46,1071.62,82.39Z" transform="translate(-693.68 -37)"/><path class="cls-2" d="M1071.9,127.65,1027.61,143c-4.66,1.62-7.68,5.33-7.68,9.44V430.41c0,3.79,2.54,7.22,6.65,9,14.68,6.38,30,13.48,45.66,21.38q13,6.57,25.1,13.14c8.43,4.6,19.74-.25,19.74-8.49V126c0-7.63-9.9-12.59-18.32-9.18l-26.18,10.61Z" transform="translate(-693.68 -37)"/><path class="cls-3" d="M739.44,127.65,784.32,143c4.71,1.62,7.77,5.33,7.77,9.44V430.42c0,3.78-2.57,7.21-6.74,9C770.49,445.8,755,452.9,739.1,460.8q-13.22,6.57-25.42,13.14c-8.55,4.6-20-.25-20-8.49V126c0-7.63,10-12.59,18.56-9.18l26.52,10.61Z" transform="translate(-693.68 -37)"/><path class="cls-4" d="M1072.25,93.69,1025.56,141a19.48,19.48,0,0,0-5.63,13.68V344.4a19.45,19.45,0,0,0,6.06,14.09l36,34.37,22.29,19.5c12.73,11.14,32.76,2.18,32.76-14.66V97.26c0-17.07-20.5-25.94-33.12-14.34Z" transform="translate(-693.68 -37)"/><path class="cls-5" d="M739.1,91.68q23.64,24,47.29,47.9a19.76,19.76,0,0,1,5.7,13.86V345.66A19.72,19.72,0,0,1,786,359.94l-36.52,34.82-22.58,19.75c-12.89,11.29-33.18,2.21-33.18-14.85V95.3c0-17.29,20.76-26.28,33.55-14.53Z" transform="translate(-693.68 -37)"/><path class="cls-6" d="M741.59,82.39l50.74,47.26a21.51,21.51,0,0,0,14.67,5.7h203.6a21.52,21.52,0,0,0,15.12-6.12l36.88-36.5,20.92-22.56c12-12.89,2.34-33.17-15.72-33.17H745.42C727.11,37,717.59,57.75,730,70.53Q735.82,76.46,741.59,82.39Z" transform="translate(-693.68 -37)"/><path class="cls-7" d="M1071.9,836.75l-44.29-15.4c-4.66-1.61-7.68-5.33-7.68-9.43V534c0-3.79,2.54-7.22,6.65-9,14.68-6.37,30-13.47,45.66-21.38q13-6.55,25.1-13.14c8.43-4.59,19.74.25,19.74,8.49V838.43c0,7.64-9.9,12.6-18.32,9.19L1072.58,837Z" transform="translate(-693.68 -37)"/><path class="cls-8" d="M739.44,836.75l44.88-15.4c4.71-1.61,7.77-5.33,7.77-9.43V534c0-3.79-2.57-7.22-6.74-9C770.49,518.6,755,511.5,739.1,503.59q-13.22-6.55-25.42-13.14c-8.55-4.59-20,.25-20,8.49V838.43c0,7.64,10,12.6,18.56,9.19L738.76,837Z" transform="translate(-693.68 -37)"/><path class="cls-9" d="M1072.25,877.26,1025.56,830a19.45,19.45,0,0,1-5.63-13.68V626.55a19.46,19.46,0,0,1,6.06-14.09l36-34.37,22.29-19.5c12.73-11.14,32.76-2.18,32.76,14.66V873.7c0,17.06-20.5,25.93-33.12,14.33Z" transform="translate(-693.68 -37)"/><path class="cls-10" d="M739.1,567.68l47.29,47.9a19.72,19.72,0,0,1,5.7,13.85V821.65A19.72,19.72,0,0,1,786,835.93l-36.52,34.82L726.86,890.5c-12.89,11.29-33.18,2.21-33.18-14.85V571.29c0-17.28,20.76-26.28,33.55-14.53Z" transform="translate(-693.68 -37)"/><path class="cls-11" d="M741.59,888l50.74-47.26A21.56,21.56,0,0,1,807,835h203.6a21.49,21.49,0,0,1,15.12,6.13l36.88,36.49,20.92,22.57c12,12.89,2.34,33.16-15.72,33.16H745.42c-18.31,0-27.83-20.75-15.39-33.52Z" transform="translate(-693.68 -37)"/><path class="cls-12" d="M1073.92,475.53H738.13c-11.21,0-16.66,7-8.51,10.88l42.67,20.49a20.25,20.25,0,0,0,8.5,1.72h250.46a20.27,20.27,0,0,0,8.51-1.72l42.67-20.49C1090.58,482.5,1085.13,475.53,1073.92,475.53Z" transform="translate(-693.68 -37)"/><path class="cls-13" d="M1073.92,486.44H738.13c-11.21,0-16.66-7-8.51-10.88l42.67-20.48a20.1,20.1,0,0,1,8.5-1.72h250.46a20.11,20.11,0,0,1,8.51,1.72l42.67,20.48C1090.58,479.47,1085.13,486.44,1073.92,486.44Z" transform="translate(-693.68 -37)"/></g></svg>