<svg id="Layer_14" data-name="Layer 14" xmlns="http://www.w3.org/2000/svg" xmlns:xlink="http://www.w3.org/1999/xlink" viewBox="0 0 465.97 986.48"><defs><style>.cls-1{fill:url(#New_Gradient_Swatch_4);}.cls-2{fill:url(#New_Gradient_Swatch_5);}.cls-3{fill:url(#New_Gradient_Swatch_5-2);}.cls-4{fill:url(#New_Gradient_Swatch_4-2);}.cls-5{fill:url(#New_Gradient_Swatch_5-3);}.cls-6{fill:url(#New_Gradient_Swatch_5-4);}.cls-7{fill:url(#New_Gradient_Swatch_4-3);}.cls-8,.cls-9{fill-rule:evenodd;}.cls-8{fill:url(#New_Gradient_Swatch_6);}.cls-9{fill:url(#New_Gradient_Swatch_6-2);}</style><linearGradient id="New_Gradient_Swatch_4" x1="719.01" y1="53.52" x2="719.01" y2="161.76" gradientUnits="userSpaceOnUse"><stop offset="0.09" stop-color="#8621fe"/><stop offset="0.1" stop-color="#8521fd"/><stop offset="0.59" stop-color="#2b2f9f"/><stop offset="0.81" stop-color="#08357a"/></linearGradient><linearGradient id="New_Gradient_Swatch_5" x1="950.65" y1="338.23" x2="843.73" y2="338.23" xlink:href="#New_Gradient_Swatch_4"/><linearGradient id="New_Gradient_Swatch_5-2" x1="950.65" y1="285.16" x2="843.73" y2="285.16" xlink:href="#New_Gradient_Swatch_4"/><linearGradient id="New_Gradient_Swatch_4-2" x1="719.01" y1="53.52" x2="719.01" y2="161.76" xlink:href="#New_Gradient_Swatch_4"/><linearGradient id="New_Gradient_Swatch_5-3" x1="484.68" y1="748.72" x2="592.98" y2="748.72" xlink:href="#New_Gradient_Swatch_4"/><linearGradient id="New_Gradient_Swatch_5-4" x1="484.68" y1="809.01" x2="592.98" y2="809.01" xlink:href="#New_Gradient_Swatch_4"/><linearGradient id="New_Gradient_Swatch_4-3" x1="719.01" y1="1040" x2="719.01" y2="931.76" xlink:href="#New_Gradient_Swatch_4"/><linearGradient id="New_Gradient_Swatch_6" x1="519.93" y1="554.35" x2="916.81" y2="554.35" gradientUnits="userSpaceOnUse"><stop offset="0" stop-color="#7d22f4"/><stop offset="0.43" stop-color="#08357a"/><stop offset="0.66" stop-color="#08357a"/><stop offset="1" stop-color="#8621fe"/></linearGradient><linearGradient id="New_Gradient_Swatch_6-2" x1="519.93" y1="529.94" x2="916.81" y2="529.94" xlink:href="#New_Gradient_Swatch_6"/></defs><g id="_2" data-name="2"><path class="cls-1" d="M900.62,103.48l-55.84,52a23.69,23.69,0,0,1-16.15,6.27H604.57A23.65,23.65,0,0,1,587.93,155l-40.59-40.16L524.31,90c-13.15-14.18-2.57-36.5,17.31-36.5H896.4c20.15,0,30.63,22.84,16.94,36.9Z" transform="translate(-484.68 -53.52)"/><path class="cls-2" d="M900.93,153.28l-48.75,16.94c-5.12,1.78-8.45,5.87-8.45,10.39V486.49c0,4.16,2.79,7.94,7.32,9.91,16.15,7,33,14.83,50.25,23.53q14.37,7.23,27.62,14.46c9.28,5.06,21.73-.27,21.73-9.34V151.43c0-8.4-10.9-13.86-20.17-10.11L901.67,153C901.43,153.1,901.18,153.2,900.93,153.28Z" transform="translate(-484.68 -53.52)"/><path class="cls-3" d="M901.3,115.91l-51.37,52a21.42,21.42,0,0,0-6.2,15.05V391.82a21.43,21.43,0,0,0,6.66,15.51l39.67,37.83,24.53,21.46c14,12.26,36.06,2.4,36.06-16.13V119.84c0-18.78-22.56-28.55-36.45-15.79Z" transform="translate(-484.68 -53.52)"/><path class="cls-4" d="M537.41,103.48l55.83,52a23.73,23.73,0,0,0,16.15,6.27H833.46A23.65,23.65,0,0,0,850.1,155l40.59-40.16,23-24.84c13.15-14.18,2.57-36.5-17.31-36.5H541.62c-20.15,0-30.63,22.84-16.93,36.9Z" transform="translate(-484.68 -53.52)"/><path class="cls-5" d="M535,933.67l49.39-16.94c5.19-1.78,8.55-5.87,8.55-10.39V600.46c0-4.16-2.82-7.94-7.41-9.91-16.36-7-33.39-14.83-50.91-23.53q-14.53-7.21-28-14.46c-9.4-5.06-22,.28-22,9.35V935.53c0,8.39,11,13.86,20.42,10.1L534.29,934Z" transform="translate(-484.68 -53.52)"/><path class="cls-6" d="M534.66,637.55l52.05,52.71A21.72,21.72,0,0,1,593,705.51V917.06a21.7,21.7,0,0,1-6.74,15.71q-20.1,19.15-40.19,38.32L521.2,992.83c-14.19,12.42-36.52,2.43-36.52-16.34v-335c0-19,22.85-28.92,36.92-16Z" transform="translate(-484.68 -53.52)"/><path class="cls-7" d="M537.41,990l55.83-52a23.73,23.73,0,0,1,16.15-6.27H833.46a23.65,23.65,0,0,1,16.64,6.74l40.59,40.17,23,24.83c13.15,14.18,2.57,36.5-17.31,36.5H541.62c-20.15,0-30.63-22.84-16.93-36.9Z" transform="translate(-484.68 -53.52)"/><path class="cls-8" d="M903.15,536.14H533.6c-12.34,0-18.34,7.67-9.37,12l47,22.55a22.31,22.31,0,0,0,9.36,1.89H856.19a22.31,22.31,0,0,0,9.36-1.89l47-22.55C921.48,543.81,915.48,536.14,903.15,536.14Z" transform="translate(-484.68 -53.52)"/><path class="cls-9" d="M903.15,548.15H533.6c-12.34,0-18.34-7.67-9.37-12l47-22.54a22.16,22.16,0,0,1,9.36-1.89H856.19a22.16,22.16,0,0,1,9.36,1.89l47,22.54C921.48,540.48,915.48,548.15,903.15,548.15Z" transform="translate(-484.68 -53.52)"/></g></svg>