<svg id="Layer_14" data-name="Layer 14" xmlns="http://www.w3.org/2000/svg" xmlns:xlink="http://www.w3.org/1999/xlink" viewBox="0 0 421.05 891.36"><defs><style>.cls-1{fill:url(#New_Gradient_Swatch_4);}.cls-2{fill:url(#New_Gradient_Swatch_5);}.cls-3{fill:url(#New_Gradient_Swatch_5-2);}.cls-4{fill:url(#New_Gradient_Swatch_5-3);}.cls-5{fill:url(#New_Gradient_Swatch_5-4);}.cls-6{fill:url(#New_Gradient_Swatch_4-2);}.cls-7{fill:url(#New_Gradient_Swatch_5-5);}.cls-8{fill:url(#New_Gradient_Swatch_5-6);}.cls-9{fill:url(#New_Gradient_Swatch_4-3);}.cls-10,.cls-11{fill-rule:evenodd;}.cls-10{fill:url(#New_Gradient_Swatch_6);}.cls-11{fill:url(#New_Gradient_Swatch_6-2);}</style><linearGradient id="New_Gradient_Swatch_4" x1="1159.42" y1="43" x2="1159.42" y2="140.8" gradientUnits="userSpaceOnUse"><stop offset="0.09" stop-color="#8621fe"/><stop offset="0.1" stop-color="#8521fd"/><stop offset="0.59" stop-color="#2b2f9f"/><stop offset="0.81" stop-color="#08357a"/></linearGradient><linearGradient id="New_Gradient_Swatch_5" x1="1368.72" y1="300.26" x2="1272.11" y2="300.26" xlink:href="#New_Gradient_Swatch_4"/><linearGradient id="New_Gradient_Swatch_5-2" x1="947.68" y1="300.26" x2="1045.54" y2="300.26" xlink:href="#New_Gradient_Swatch_4"/><linearGradient id="New_Gradient_Swatch_5-3" x1="1368.72" y1="252.31" x2="1272.11" y2="252.31" xlink:href="#New_Gradient_Swatch_4"/><linearGradient id="New_Gradient_Swatch_5-4" x1="947.68" y1="252.31" x2="1045.54" y2="252.31" xlink:href="#New_Gradient_Swatch_4"/><linearGradient id="New_Gradient_Swatch_4-2" x1="1159.42" x2="1159.42" y2="140.8" xlink:href="#New_Gradient_Swatch_4"/><linearGradient id="New_Gradient_Swatch_5-5" x1="1368.72" y1="671.17" x2="1272.11" y2="671.17" xlink:href="#New_Gradient_Swatch_4"/><linearGradient id="New_Gradient_Swatch_5-6" x1="1368.72" y1="725.64" x2="1272.11" y2="725.64" xlink:href="#New_Gradient_Swatch_4"/><linearGradient id="New_Gradient_Swatch_4-3" x1="1159.42" y1="934.36" x2="1159.42" y2="836.56" xlink:href="#New_Gradient_Swatch_4"/><linearGradient id="New_Gradient_Swatch_6" x1="979.53" y1="495.54" x2="1338.14" y2="495.54" gradientUnits="userSpaceOnUse"><stop offset="0" stop-color="#7d22f4"/><stop offset="0.43" stop-color="#08357a"/><stop offset="0.66" stop-color="#08357a"/><stop offset="1" stop-color="#8621fe"/></linearGradient><linearGradient id="New_Gradient_Swatch_6-2" x1="979.53" y1="473.48" x2="1338.14" y2="473.48" xlink:href="#New_Gradient_Swatch_6"/></defs><g id="_9" data-name="9"><path class="cls-1" d="M1323.51,88.14l-50.45,47a21.43,21.43,0,0,1-14.59,5.66H1056a21.39,21.39,0,0,1-15-6.09L1004.3,98.42,983.49,76c-11.89-12.81-2.32-33,15.64-33h320.58c18.2,0,27.67,20.64,15.3,33.34Q1329.27,82.23,1323.51,88.14Z" transform="translate(-947.68 -43)"/><path class="cls-2" d="M1323.79,133.14l-44,15.31c-4.62,1.61-7.63,5.3-7.63,9.38V434.22c0,3.76,2.52,7.18,6.62,9,14.59,6.34,29.78,13.4,45.4,21.26q13,6.53,24.95,13.07c8.39,4.57,19.64-.25,19.64-8.45V131.46c0-7.58-9.85-12.52-18.22-9.13l-26,10.56Z" transform="translate(-947.68 -43)"/><path class="cls-3" d="M993.19,133.14l44.62,15.31c4.69,1.61,7.73,5.3,7.73,9.38V434.22c0,3.77-2.55,7.18-6.7,9-14.78,6.34-30.17,13.4-46,21.26Q979.7,471,967.57,477.51c-8.5,4.57-19.89-.25-19.89-8.45V131.46c0-7.58,10-12.52,18.45-9.13l26.38,10.56Z" transform="translate(-947.68 -43)"/><path class="cls-4" d="M1324.13,99.37l-46.42,47a19.37,19.37,0,0,0-5.6,13.6V348.68a19.4,19.4,0,0,0,6,14L1314,396.88l22.16,19.39c12.66,11.08,32.58,2.16,32.58-14.58V102.92c0-17-20.38-25.79-32.93-14.26Z" transform="translate(-947.68 -43)"/><path class="cls-5" d="M992.84,97.38l47,47.63a19.63,19.63,0,0,1,5.67,13.78V349.94a19.61,19.61,0,0,1-6.1,14.2l-36.31,34.62-22.45,19.65c-12.83,11.22-33,2.19-33-14.77V101c0-17.18,20.65-26.13,33.36-14.44Z" transform="translate(-947.68 -43)"/><path class="cls-6" d="M995.32,88.14l50.46,47a21.4,21.4,0,0,0,14.59,5.66h202.46a21.41,21.41,0,0,0,15-6.09l36.67-36.29L1335.35,76c11.89-12.81,2.32-33-15.64-33H999.13c-18.2,0-27.67,20.64-15.3,33.34Z" transform="translate(-947.68 -43)"/><path class="cls-7" d="M1323.79,838.29l-44-15.31c-4.62-1.61-7.63-5.3-7.63-9.38V537.21c0-3.77,2.52-7.18,6.62-9,14.59-6.34,29.78-13.4,45.4-21.26q13-6.53,24.95-13.07c8.39-4.57,19.64.25,19.64,8.45V840c0,7.59-9.85,12.53-18.22,9.13l-26-10.55C1324.24,838.45,1324,838.36,1323.79,838.29Z" transform="translate(-947.68 -43)"/><path class="cls-8" d="M1324.13,878.58q-23.2-23.52-46.42-47a19.37,19.37,0,0,1-5.6-13.6V629.26a19.4,19.4,0,0,1,6-14L1314,581.07l22.16-19.39c12.66-11.08,32.58-2.17,32.58,14.58V875c0,17-20.38,25.79-32.93,14.26Z" transform="translate(-947.68 -43)"/><path class="cls-9" d="M995.32,889.22l50.46-47a21.36,21.36,0,0,1,14.59-5.67h202.46a21.41,21.41,0,0,1,15,6.09l36.67,36.29,20.81,22.44c11.89,12.82,2.32,33-15.64,33H999.13c-18.2,0-27.67-20.63-15.3-33.34Z" transform="translate(-947.68 -43)"/><path class="cls-10" d="M1325.8,479.09H991.88c-11.15,0-16.57,6.92-8.46,10.81l42.43,20.38a20.22,20.22,0,0,0,8.46,1.71h249.06a20.22,20.22,0,0,0,8.46-1.71l42.43-20.38C1342.36,486,1337,479.09,1325.8,479.09Z" transform="translate(-947.68 -43)"/><path class="cls-11" d="M1325.8,489.93H991.88c-11.15,0-16.57-6.92-8.46-10.81l42.43-20.38a20.22,20.22,0,0,1,8.46-1.71h249.06a20.22,20.22,0,0,1,8.46,1.71l42.43,20.38C1342.36,483,1337,489.93,1325.8,489.93Z" transform="translate(-947.68 -43)"/></g></svg>