<svg id="Layer_14" data-name="Layer 14" xmlns="http://www.w3.org/2000/svg" xmlns:xlink="http://www.w3.org/1999/xlink" viewBox="0 0 117.98 990.47"><defs><style>.cls-1{fill:url(#New_Gradient_Swatch_5);}.cls-2{fill:url(#New_Gradient_Swatch_5-2);}.cls-3{fill:url(#New_Gradient_Swatch_5-3);}.cls-4{fill:url(#New_Gradient_Swatch_5-4);}</style><linearGradient id="New_Gradient_Swatch_5" x1="528.09" y1="332.3" x2="410.12" y2="332.3" gradientUnits="userSpaceOnUse"><stop offset="0.09" stop-color="#8621fe"/><stop offset="0.1" stop-color="#8521fd"/><stop offset="0.59" stop-color="#2b2f9f"/><stop offset="0.81" stop-color="#08357a"/></linearGradient><linearGradient id="New_Gradient_Swatch_5-2" x1="528.09" y1="273.75" x2="410.12" y2="273.75" xlink:href="#New_Gradient_Swatch_5"/><linearGradient id="New_Gradient_Swatch_5-3" x1="528.09" y1="785.26" x2="410.12" y2="785.26" xlink:href="#New_Gradient_Swatch_5"/><linearGradient id="New_Gradient_Swatch_5-4" x1="528.09" y1="851.78" x2="410.12" y2="851.78" xlink:href="#New_Gradient_Swatch_5"/></defs><g id="_1" data-name="1"><path class="cls-1" d="M473.23,128.22l-53.79,18.7c-5.66,2-9.32,6.47-9.32,11.45V495.9c0,4.6,3.07,8.76,8.07,10.93,17.82,7.75,36.38,16.37,55.45,26q15.86,8,30.47,16c10.25,5.58,24-.31,24-10.31V126.17c0-9.26-12-15.29-22.25-11.15l-31.79,12.9Z" transform="translate(-410.12 -67.53)"/><path class="cls-2" d="M473.64,87,417,144.4A23.64,23.64,0,0,0,410.12,161V391.44a23.64,23.64,0,0,0,7.35,17.12l43.77,41.73L488.31,474c15.46,13.53,39.78,2.64,39.78-17.8V91.32c0-20.72-24.89-31.5-40.22-17.42Z" transform="translate(-410.12 -67.53)"/><path class="cls-3" d="M473.23,989.34l-53.79-18.69c-5.66-2-9.32-6.47-9.32-11.46V621.67c0-4.6,3.07-8.77,8.07-10.94,17.82-7.74,36.38-16.37,55.45-26q15.86-8,30.47-16c10.25-5.58,24,.3,24,10.31V991.39c0,9.27-12,15.29-22.25,11.15l-31.79-12.89Z" transform="translate(-410.12 -67.53)"/><path class="cls-4" d="M473.64,1038.54,417,981.12a23.63,23.63,0,0,1-6.83-16.61V734.08A23.64,23.64,0,0,1,417.47,717l43.77-41.74,27.07-23.68c15.46-13.53,39.78-2.64,39.78,17.8v364.86c0,20.72-24.89,31.5-40.22,17.41Z" transform="translate(-410.12 -67.53)"/></g></svg>