<svg id="Layer_14" data-name="Layer 14" xmlns="http://www.w3.org/2000/svg" xmlns:xlink="http://www.w3.org/1999/xlink" viewBox="0 0 396.5 864.62"><defs><style>.cls-1{fill:url(#New_Gradient_Swatch_4);}.cls-2{fill:url(#New_Gradient_Swatch_5);}.cls-3{fill:url(#New_Gradient_Swatch_5-2);}.cls-4{fill:url(#New_Gradient_Swatch_4-2);}.cls-5{fill:url(#New_Gradient_Swatch_5-3);}.cls-6{fill:url(#New_Gradient_Swatch_5-4);}</style><linearGradient id="New_Gradient_Swatch_4" x1="668.26" y1="43" x2="668.26" y2="142.31" gradientUnits="userSpaceOnUse"><stop offset="0.09" stop-color="#8621fe"/><stop offset="0.1" stop-color="#8521fd"/><stop offset="0.59" stop-color="#2b2f9f"/><stop offset="0.81" stop-color="#08357a"/></linearGradient><linearGradient id="New_Gradient_Swatch_5" x1="880.78" y1="304.22" x2="782.69" y2="304.22" xlink:href="#New_Gradient_Swatch_4"/><linearGradient id="New_Gradient_Swatch_5-2" x1="880.78" y1="255.53" x2="782.69" y2="255.53" xlink:href="#New_Gradient_Swatch_4"/><linearGradient id="New_Gradient_Swatch_4-2" x1="668.26" x2="668.26" y2="142.31" xlink:href="#New_Gradient_Swatch_4"/><linearGradient id="New_Gradient_Swatch_5-3" x1="880.78" y1="680.84" x2="782.69" y2="680.84" xlink:href="#New_Gradient_Swatch_4"/><linearGradient id="New_Gradient_Swatch_5-4" x1="880.78" y1="736.15" x2="782.69" y2="736.15" xlink:href="#New_Gradient_Swatch_4"/></defs><g id="_7" data-name="7"><path class="cls-1" d="M834.88,88.83l-51.23,47.73a21.8,21.8,0,0,1-14.82,5.75H563.25A21.66,21.66,0,0,1,548,136.12L510.75,99.27q-10.58-11.38-21.13-22.78C477.55,63.48,487.26,43,505.5,43H831c18.49,0,28.11,21,15.54,33.86Z" transform="translate(-484.28 -43)"/><path class="cls-2" d="M835.16,134.53l-44.72,15.54c-4.7,1.64-7.75,5.38-7.75,9.53V440.24c0,3.83,2.56,7.29,6.71,9.1,14.82,6.44,30.25,13.6,46.11,21.59q13.17,6.63,25.33,13.27c8.52,4.64,19.94-.26,19.94-8.58V132.83c0-7.71-10-12.72-18.5-9.27l-26.44,10.71Z" transform="translate(-484.28 -43)"/><path class="cls-3" d="M835.51,100.24,788.37,148a19.67,19.67,0,0,0-5.68,13.81v191.6a19.63,19.63,0,0,0,6.11,14.23l36.4,34.71L847.7,422c12.86,11.25,33.08,2.2,33.08-14.8V103.84c0-17.23-20.7-26.19-33.44-14.48Z" transform="translate(-484.28 -43)"/><path class="cls-4" d="M501.64,88.84l51.22,47.72a21.8,21.8,0,0,0,14.82,5.75H773.26a21.69,21.69,0,0,0,15.27-6.19l37.24-36.85q10.56-11.38,21.13-22.78C859,63.48,849.26,43,831,43H505.5C487,43,477.4,64,490,76.86Z" transform="translate(-484.28 -43)"/><path class="cls-5" d="M835.16,850.53,790.44,835c-4.7-1.64-7.75-5.38-7.75-9.53V544.82c0-3.83,2.56-7.29,6.71-9.1,14.82-6.43,30.25-13.6,46.11-21.59q13.17-6.63,25.33-13.26c8.52-4.64,19.94.25,19.94,8.57v342.8c0,7.7-10,12.71-18.5,9.27l-26.44-10.72Z" transform="translate(-484.28 -43)"/><path class="cls-6" d="M835.51,891.44,788.37,843.7a19.67,19.67,0,0,1-5.68-13.81V638.29a19.63,19.63,0,0,1,6.11-14.23q18.19-17.35,36.4-34.7l22.5-19.7c12.86-11.24,33.08-2.19,33.08,14.81V887.84c0,17.23-20.7,26.19-33.44,14.48Z" transform="translate(-484.28 -43)"/></g></svg>