<svg id="Layer_14" data-name="Layer 14" xmlns="http://www.w3.org/2000/svg" xmlns:xlink="http://www.w3.org/1999/xlink" viewBox="0 0 505.01 975.45"><defs><style>.cls-1{fill:url(#New_Gradient_Swatch_5);}.cls-2{fill:url(#New_Gradient_Swatch_5-2);}.cls-3{fill:url(#New_Gradient_Swatch_5-3);}.cls-4{fill:url(#New_Gradient_Swatch_5-4);}.cls-5{fill:url(#New_Gradient_Swatch_5-5);}.cls-6{fill:url(#New_Gradient_Swatch_5-6);}.cls-7,.cls-8{fill-rule:evenodd;}.cls-7{fill:url(#New_Gradient_Swatch_6);}.cls-8{fill:url(#New_Gradient_Swatch_6-2);}</style><linearGradient id="New_Gradient_Swatch_5" x1="1470.69" y1="336.24" x2="1354.81" y2="336.24" gradientUnits="userSpaceOnUse"><stop offset="0.09" stop-color="#8621fe"/><stop offset="0.1" stop-color="#8521fd"/><stop offset="0.59" stop-color="#2b2f9f"/><stop offset="0.81" stop-color="#08357a"/></linearGradient><linearGradient id="New_Gradient_Swatch_5-2" x1="965.68" y1="336.24" x2="1083.06" y2="336.24" xlink:href="#New_Gradient_Swatch_5"/><linearGradient id="New_Gradient_Swatch_5-3" x1="1470.69" y1="278.73" x2="1354.81" y2="278.73" xlink:href="#New_Gradient_Swatch_5"/><linearGradient id="New_Gradient_Swatch_5-4" x1="965.68" y1="278.73" x2="1083.06" y2="278.73" xlink:href="#New_Gradient_Swatch_5"/><linearGradient id="New_Gradient_Swatch_5-5" x1="1470.69" y1="781.12" x2="1354.81" y2="781.12" xlink:href="#New_Gradient_Swatch_5"/><linearGradient id="New_Gradient_Swatch_5-6" x1="1470.69" y1="846.46" x2="1354.81" y2="846.46" xlink:href="#New_Gradient_Swatch_5"/><linearGradient id="New_Gradient_Swatch_6" x1="1003.89" y1="570.46" x2="1434.01" y2="570.46" gradientUnits="userSpaceOnUse"><stop offset="0" stop-color="#7d22f4"/><stop offset="0.43" stop-color="#08357a"/><stop offset="0.66" stop-color="#08357a"/><stop offset="1" stop-color="#8621fe"/></linearGradient><linearGradient id="New_Gradient_Swatch_6-2" x1="1003.89" y1="544.01" x2="1434.01" y2="544.01" xlink:href="#New_Gradient_Swatch_6"/></defs><g id="_4" data-name="4"><path class="cls-1" d="M1416.8,135.8,1364,154.16c-5.56,1.93-9.16,6.36-9.16,11.25V496.92c0,4.51,3,8.61,7.93,10.74,17.51,7.61,35.73,16.07,54.47,25.5q15.55,7.83,29.92,15.68c10.06,5.48,23.56-.3,23.56-10.13V133.79c0-9.1-11.82-15-21.86-10.95L1417.6,135.5C1417.34,135.6,1417.07,135.71,1416.8,135.8Z" transform="translate(-965.68 -73.55)"/><path class="cls-2" d="M1020.26,135.8l53.52,18.36c5.63,1.93,9.28,6.36,9.28,11.25V496.92c0,4.52-3.06,8.61-8,10.74-17.73,7.61-36.19,16.07-55.17,25.5q-15.76,7.83-30.31,15.68c-10.2,5.48-23.86-.3-23.86-10.13V133.79c0-9.1,12-15,22.13-10.95l31.64,12.66Q1019.86,135.67,1020.26,135.8Z" transform="translate(-965.68 -73.55)"/><path class="cls-3" d="M1417.21,95.29l-55.68,56.4a23.21,23.21,0,0,0-6.72,16.32V394.33a23.21,23.21,0,0,0,7.22,16.8l43,41,26.58,23.26c15.19,13.29,39.08,2.6,39.08-17.48V99.55c0-20.35-24.45-30.94-39.51-17.1Z" transform="translate(-965.68 -73.55)"/><path class="cls-4" d="M1019.85,92.91,1076.26,150a23.53,23.53,0,0,1,6.8,16.52V395.83a23.51,23.51,0,0,1-7.32,17l-43.55,41.53L1005.26,478c-15.38,13.46-39.58,2.63-39.58-17.71v-363c0-20.62,24.76-31.34,40-17.33Z" transform="translate(-965.68 -73.55)"/><path class="cls-5" d="M1416.8,981.56,1364,963.2c-5.56-1.92-9.16-6.35-9.16-11.25V620.44c0-4.51,3-8.6,7.93-10.74,17.51-7.6,35.73-16.07,54.47-25.5q15.55-7.83,29.92-15.67c10.06-5.48,23.56.3,23.56,10.13V983.58c0,9.1-11.82,15-21.86,10.95l-31.23-12.66Z" transform="translate(-965.68 -73.55)"/><path class="cls-6" d="M1417.21,1029.89l-55.68-56.4a23.19,23.19,0,0,1-6.72-16.31V730.86a23.24,23.24,0,0,1,7.22-16.81l43-41,26.58-23.27c15.19-13.28,39.08-2.59,39.08,17.49v358.35c0,20.36-24.45,30.94-39.51,17.11Q1424.21,1036.31,1417.21,1029.89Z" transform="translate(-965.68 -73.55)"/><path class="cls-7" d="M1419.2,550.73H1018.69c-13.37,0-19.86,8.31-10.14,13l50.89,24.43a24,24,0,0,0,10.14,2.05h298.73a24,24,0,0,0,10.15-2.05l50.89-24.43C1439.07,559,1432.58,550.73,1419.2,550.73Z" transform="translate(-965.68 -73.55)"/><path class="cls-8" d="M1419.2,563.74H1018.69c-13.37,0-19.86-8.3-10.14-13l50.89-24.44a24.18,24.18,0,0,1,10.14-2.05h298.73a24.2,24.2,0,0,1,10.15,2.05l50.89,24.44C1439.07,555.44,1432.58,563.74,1419.2,563.74Z" transform="translate(-965.68 -73.55)"/></g></svg>