<svg id="Layer_14" data-name="Layer 14" xmlns="http://www.w3.org/2000/svg" xmlns:xlink="http://www.w3.org/1999/xlink" viewBox="0 0 438.85 929.05"><defs><style>.cls-1{fill:url(#New_Gradient_Swatch_4);}.cls-2{fill:url(#New_Gradient_Swatch_5);}.cls-3{fill:url(#New_Gradient_Swatch_5-2);}.cls-4{fill:url(#New_Gradient_Swatch_5-3);}.cls-5{fill:url(#New_Gradient_Swatch_5-4);}.cls-6{fill:url(#New_Gradient_Swatch_4-2);}.cls-7{fill:url(#New_Gradient_Swatch_5-5);}.cls-8{fill:url(#New_Gradient_Swatch_5-6);}.cls-9{fill:url(#New_Gradient_Swatch_5-7);}.cls-10{fill:url(#New_Gradient_Swatch_5-8);}.cls-11{fill:url(#New_Gradient_Swatch_4-3);}</style><linearGradient id="New_Gradient_Swatch_4" x1="265.69" y1="45.95" x2="265.69" y2="147.89" gradientUnits="userSpaceOnUse"><stop offset="0.09" stop-color="#8621fe"/><stop offset="0.1" stop-color="#8521fd"/><stop offset="0.59" stop-color="#2b2f9f"/><stop offset="0.81" stop-color="#08357a"/></linearGradient><linearGradient id="New_Gradient_Swatch_5" x1="483.84" y1="314.08" x2="383.15" y2="314.08" xlink:href="#New_Gradient_Swatch_4"/><linearGradient id="New_Gradient_Swatch_5-2" x1="45" y1="314.08" x2="147" y2="314.08" xlink:href="#New_Gradient_Swatch_4"/><linearGradient id="New_Gradient_Swatch_5-3" x1="483.84" y1="264.1" x2="383.15" y2="264.1" xlink:href="#New_Gradient_Swatch_4"/><linearGradient id="New_Gradient_Swatch_5-4" x1="45" y1="264.1" x2="147" y2="264.1" xlink:href="#New_Gradient_Swatch_4"/><linearGradient id="New_Gradient_Swatch_4-2" x1="265.69" y1="45.95" x2="265.69" y2="147.89" xlink:href="#New_Gradient_Swatch_4"/><linearGradient id="New_Gradient_Swatch_5-5" x1="483.84" y1="700.68" x2="383.15" y2="700.68" xlink:href="#New_Gradient_Swatch_4"/><linearGradient id="New_Gradient_Swatch_5-6" x1="45" y1="700.68" x2="147" y2="700.68" xlink:href="#New_Gradient_Swatch_4"/><linearGradient id="New_Gradient_Swatch_5-7" x1="483.84" y1="757.45" x2="383.15" y2="757.45" xlink:href="#New_Gradient_Swatch_4"/><linearGradient id="New_Gradient_Swatch_5-8" x1="45" y1="757.45" x2="147" y2="757.45" xlink:href="#New_Gradient_Swatch_4"/><linearGradient id="New_Gradient_Swatch_4-3" x1="265.69" y1="975" x2="265.69" y2="873.06" xlink:href="#New_Gradient_Swatch_4"/></defs><g id="_0" data-name="0"><path class="cls-1" d="M436.73,93l-52.59,49a22.3,22.3,0,0,1-15.21,5.91h-211a22.32,22.32,0,0,1-15.67-6.35L104,103.71,82.32,80.32C69.94,67,79.9,46,98.63,46H432.76c19,0,28.85,21.51,15.95,34.75Z" transform="translate(-45 -45.95)"/><path class="cls-2" d="M437,139.9l-45.91,16c-4.83,1.67-8,5.52-8,9.78V453.71c0,3.92,2.63,7.48,6.89,9.33,15.22,6.61,31,14,47.33,22.16q13.53,6.81,26,13.63c8.74,4.76,20.46-.27,20.46-8.81V138.15c0-7.91-10.26-13.05-19-9.51l-27.13,11Z" transform="translate(-45 -45.95)"/><path class="cls-3" d="M92.43,139.9l46.51,16c4.89,1.67,8.06,5.52,8.06,9.78V453.71c0,3.92-2.66,7.48-7,9.33-15.41,6.61-31.45,14-47.94,22.17Q78.37,492,65.73,498.83C56.87,503.59,45,498.57,45,490V138.15c0-7.91,10.4-13.05,19.23-9.51l27.5,11Z" transform="translate(-45 -45.95)"/><path class="cls-4" d="M437.37,104.7q-24.19,24.51-48.38,49a20.19,20.19,0,0,0-5.84,14.18V364.56a20.17,20.17,0,0,0,6.28,14.6l37.36,35.63L449.89,435c13.19,11.55,33.95,2.26,33.95-15.19V108.4c0-17.68-21.24-26.88-34.32-14.86Z" transform="translate(-45 -45.95)"/><path class="cls-5" d="M92.07,102.63l49,49.64A20.45,20.45,0,0,1,147,166.63V365.86a20.43,20.43,0,0,1-6.35,14.8L102.8,416.75,79.39,437.23C66,448.92,45,439.51,45,421.83V106.37c0-17.91,21.52-27.23,34.77-15.05Z" transform="translate(-45 -45.95)"/><path class="cls-6" d="M94.66,93l52.59,49a22.3,22.3,0,0,0,15.21,5.91h211a22.32,22.32,0,0,0,15.67-6.35l38.22-37.83,21.69-23.39C461.45,67,451.48,46,432.76,46H98.63c-19,0-28.85,21.51-15.95,34.75Z" transform="translate(-45 -45.95)"/><path class="cls-7" d="M437,874.86l-45.91-16c-4.83-1.67-8-5.52-8-9.77V561.05c0-3.92,2.63-7.48,6.89-9.33,15.22-6.61,31-14,47.33-22.16q13.53-6.81,26-13.62c8.74-4.77,20.46.26,20.46,8.8V876.61c0,7.91-10.26,13-19,9.51l-27.13-11Z" transform="translate(-45 -45.95)"/><path class="cls-8" d="M92.43,874.86l46.51-16c4.89-1.67,8.06-5.52,8.06-9.77V561.05c0-3.92-2.66-7.48-7-9.33-15.41-6.61-31.45-14-47.94-22.16q-13.71-6.81-26.35-13.62c-8.86-4.77-20.73.26-20.73,8.8V876.61c0,7.91,10.4,13,19.23,9.51l27.5-11Z" transform="translate(-45 -45.95)"/><path class="cls-9" d="M437.37,916.85l-48.38-49a20.19,20.19,0,0,1-5.84-14.18V657a20.19,20.19,0,0,1,6.28-14.61l37.36-35.62,23.1-20.21c13.19-11.55,33.95-2.26,33.95,15.19V913.16c0,17.68-21.24,26.88-34.32,14.86Z" transform="translate(-45 -45.95)"/><path class="cls-10" d="M92.07,596l49,49.64A20.43,20.43,0,0,1,147,660V859.21a20.43,20.43,0,0,1-6.35,14.8L102.8,910.1,79.39,930.58C66,942.27,45,932.86,45,915.18V599.72c0-17.91,21.52-27.23,34.77-15.05Z" transform="translate(-45 -45.95)"/><path class="cls-11" d="M94.66,928l52.59-49a22.3,22.3,0,0,1,15.21-5.91h211a22.28,22.28,0,0,1,15.67,6.35l38.22,37.83,21.69,23.38C461.45,954,451.48,975,432.76,975H98.63c-19,0-28.85-21.51-15.95-34.75Z" transform="translate(-45 -45.95)"/></g></svg>