<svg id="Layer_14" data-name="Layer 14" xmlns="http://www.w3.org/2000/svg" xmlns:xlink="http://www.w3.org/1999/xlink" viewBox="0 0 411.6 871.36"><defs><style>.cls-1{fill:url(#New_Gradient_Swatch_4);}.cls-2{fill:url(#New_Gradient_Swatch_5);}.cls-3{fill:url(#New_Gradient_Swatch_5-2);}.cls-4{fill:url(#New_Gradient_Swatch_5-3);}.cls-5{fill:url(#New_Gradient_Swatch_5-4);}.cls-6{fill:url(#New_Gradient_Swatch_5-5);}.cls-7{fill:url(#New_Gradient_Swatch_5-6);}.cls-8{fill:url(#New_Gradient_Swatch_4-2);}.cls-10,.cls-9{fill-rule:evenodd;}.cls-9{fill:url(#New_Gradient_Swatch_6);}.cls-10{fill:url(#New_Gradient_Swatch_6-2);}</style><linearGradient id="New_Gradient_Swatch_4" x1="476.67" y1="49" x2="476.67" y2="144.61" gradientUnits="userSpaceOnUse"><stop offset="0.09" stop-color="#8621fe"/><stop offset="0.1" stop-color="#8521fd"/><stop offset="0.59" stop-color="#2b2f9f"/><stop offset="0.81" stop-color="#08357a"/></linearGradient><linearGradient id="New_Gradient_Swatch_5" x1="269.68" y1="300.49" x2="365.34" y2="300.49" xlink:href="#New_Gradient_Swatch_4"/><linearGradient id="New_Gradient_Swatch_5-2" x1="269.68" y1="253.61" x2="365.34" y2="253.61" xlink:href="#New_Gradient_Swatch_4"/><linearGradient id="New_Gradient_Swatch_5-3" x1="681.27" y1="663.08" x2="586.84" y2="663.08" xlink:href="#New_Gradient_Swatch_4"/><linearGradient id="New_Gradient_Swatch_5-4" x1="269.68" y1="663.08" x2="365.34" y2="663.08" xlink:href="#New_Gradient_Swatch_4"/><linearGradient id="New_Gradient_Swatch_5-5" x1="681.27" y1="716.33" x2="586.84" y2="716.33" xlink:href="#New_Gradient_Swatch_4"/><linearGradient id="New_Gradient_Swatch_5-6" x1="269.68" y1="716.33" x2="365.34" y2="716.33" xlink:href="#New_Gradient_Swatch_4"/><linearGradient id="New_Gradient_Swatch_4-2" x1="476.67" y1="920.36" x2="476.67" y2="824.76" xlink:href="#New_Gradient_Swatch_4"/><linearGradient id="New_Gradient_Swatch_6" x1="300.82" y1="491.38" x2="651.38" y2="491.38" gradientUnits="userSpaceOnUse"><stop offset="0" stop-color="#7d22f4"/><stop offset="0.43" stop-color="#08357a"/><stop offset="0.66" stop-color="#08357a"/><stop offset="1" stop-color="#8621fe"/></linearGradient><linearGradient id="New_Gradient_Swatch_6-2" x1="300.82" y1="469.82" x2="651.38" y2="469.82" xlink:href="#New_Gradient_Swatch_6"/></defs><g id="_6" data-name="6"><path class="cls-1" d="M637.08,93.13l-49.32,45.94a20.94,20.94,0,0,1-14.26,5.54H375.58a20.88,20.88,0,0,1-14.7-6L325,103.18q-10.17-11-20.35-21.94C293.07,68.71,302.41,49,320,49H633.36c17.8,0,27,20.17,15,32.59Z" transform="translate(-269.68 -49)"/><path class="cls-2" d="M314.17,137.12l43.62,15c4.58,1.58,7.55,5.18,7.55,9.18V431.44c0,3.68-2.49,7-6.54,8.76-14.46,6.2-29.5,13.1-45,20.78q-12.85,6.39-24.71,12.78c-8.31,4.46-19.44-.25-19.44-8.26v-330c0-7.42,9.75-12.24,18-8.93l25.78,10.32Z" transform="translate(-269.68 -49)"/><path class="cls-3" d="M313.83,102.16l46,46.56a19.19,19.19,0,0,1,5.54,13.47V349.05a19.19,19.19,0,0,1-5.95,13.88l-35.5,33.85L301.94,416c-12.54,11-32.26,2.15-32.26-14.43V105.67c0-16.8,20.18-25.54,32.61-14.12Z" transform="translate(-269.68 -49)"/><path class="cls-4" d="M637.35,826.44l-43.06-15c-4.52-1.57-7.45-5.18-7.45-9.17V532.12c0-3.68,2.46-7,6.46-8.76,14.26-6.19,29.12-13.1,44.39-20.78q12.67-6.39,24.39-12.78c8.2-4.46,19.19.25,19.19,8.26v330c0,7.42-9.62,12.25-17.81,8.93L638,826.69Z" transform="translate(-269.68 -49)"/><path class="cls-5" d="M314.17,826.44l43.62-15c4.58-1.58,7.55-5.18,7.55-9.17V532.12c0-3.68-2.49-7-6.54-8.76-14.46-6.19-29.5-13.1-45-20.78Q301,496.19,289.12,489.8c-8.31-4.46-19.44.25-19.44,8.26v330c0,7.42,9.75,12.24,18,8.93l25.78-10.32Z" transform="translate(-269.68 -49)"/><path class="cls-6" d="M637.69,865.83l-45.38-46a18.89,18.89,0,0,1-5.47-13.29V622.11a18.91,18.91,0,0,1,5.88-13.7l35-33.41,21.67-19c12.37-10.83,31.84-2.12,31.84,14.25V862.36c0,16.59-19.92,25.21-32.19,13.94Z" transform="translate(-269.68 -49)"/><path class="cls-7" d="M313.83,564.88l46,46.56a19.18,19.18,0,0,1,5.54,13.47V811.77a19.21,19.21,0,0,1-5.95,13.88l-35.5,33.84L301.94,878.7c-12.54,11-32.26,2.14-32.26-14.44V568.39c0-16.8,20.18-25.54,32.61-14.12Z" transform="translate(-269.68 -49)"/><path class="cls-8" d="M316.25,876.24l49.32-46a21,21,0,0,1,14.27-5.53H577.76a20.93,20.93,0,0,1,14.7,6l35.85,35.48,20.34,21.93c11.62,12.53,2.27,32.24-15.29,32.24H320c-17.8,0-27.06-20.17-15-32.59Q310.65,882,316.25,876.24Z" transform="translate(-269.68 -49)"/><path class="cls-9" d="M639.31,475.3H312.89c-10.9,0-16.2,6.77-8.27,10.58l41.47,19.91a19.73,19.73,0,0,0,8.27,1.67H597.84a19.73,19.73,0,0,0,8.27-1.67l41.47-19.91C655.51,482.07,650.21,475.3,639.31,475.3Z" transform="translate(-269.68 -49)"/><path class="cls-10" d="M639.31,485.91H312.89c-10.9,0-16.2-6.78-8.27-10.58l41.47-19.91a19.58,19.58,0,0,1,8.27-1.68H597.84a19.58,19.58,0,0,1,8.27,1.68l41.47,19.91C655.51,479.13,650.21,485.91,639.31,485.91Z" transform="translate(-269.68 -49)"/></g></svg>