<svg xmlns="http://www.w3.org/2000/svg" xmlns:xlink="http://www.w3.org/1999/xlink" viewBox="0 0 1944.51 1088.35"><defs><style>.cls-1{fill:#4b4a4c;}.cls-12,.cls-2{fill:#fff;}.cls-14,.cls-2,.cls-5,.cls-6{stroke:#000;}.cls-11,.cls-13,.cls-2,.cls-5,.cls-6,.cls-8{stroke-miterlimit:10;}.cls-3{fill:#6e6e6e;}.cls-4{fill:#5f5f5f;}.cls-11,.cls-13,.cls-5,.cls-6,.cls-8{fill:none;}.cls-5{stroke-width:11px;}.cls-11,.cls-6{stroke-width:3px;}.cls-7{fill:#9c9c9d;}.cls-8{stroke:#4b4a4c;stroke-width:5px;}.cls-9{fill:#3c3c3c;}.cls-10{fill:#404040;}.cls-11{stroke:#333;}.cls-13{stroke:#1a1a1a;stroke-width:15px;}.cls-14{stroke-linecap:round;stroke-linejoin:round;stroke-width:0.5px;}.cls-15,.cls-16{fill:#8621fe;}.cls-16,.cls-18{fill-rule:evenodd;}.cls-17,.cls-18{fill:#333;}.cls-19{fill:url(#New_Gradient_Swatch_3);}.cls-20{fill:url(#New_Gradient_Swatch_3-2);}.cls-21{fill:url(#New_Gradient_Swatch_3-3);}</style><linearGradient id="New_Gradient_Swatch_3" x1="355.81" y1="469.88" x2="355.81" y2="531.93" gradientTransform="translate(-9.48 40.03) rotate(-3.3)" gradientUnits="userSpaceOnUse"><stop offset="0.14" stop-color="#8621fe"/><stop offset="0.22" stop-color="#7f22f7"/><stop offset="0.35" stop-color="#6b25e2"/><stop offset="0.5" stop-color="#4b2ac0"/><stop offset="0.67" stop-color="#1f3192"/><stop offset="0.75" stop-color="#08357a"/></linearGradient><linearGradient id="New_Gradient_Swatch_3-2" x1="434.83" y1="466.34" x2="434.83" y2="528.4" xlink:href="#New_Gradient_Swatch_3"/><linearGradient id="New_Gradient_Swatch_3-3" x1="514.79" y1="464.08" x2="514.79" y2="526.13" xlink:href="#New_Gradient_Swatch_3"/></defs><g id="Layer_2" data-name="Layer 2"><path class="cls-1" d="M980,695" transform="translate(11.68 5.17)"/><path class="cls-2" d="M1915.59,578.39" transform="translate(11.68 5.17)"/><path class="cls-1" d="M1903.11,592.85l-356.8,57.8a9.73,9.73,0,0,1-1.43.11H1299a8.14,8.14,0,0,1-7.45-4.45l-27.16-57.8c-2.26-4.8,1.66-10.12,7.46-10.12h629.88C1911.55,578.39,1912.83,591.27,1903.11,592.85Z" transform="translate(11.68 5.17)"/><path class="cls-1" d="M1903,589.18l-360.4,58a8.66,8.66,0,0,1-1.44.12H1292.79a8.24,8.24,0,0,1-7.53-4.47l-27.43-58c-2.28-4.83,1.67-10.17,7.53-10.17H1901.6C1911.57,574.66,1912.86,587.6,1903,589.18Z" transform="translate(11.68 5.17)"/><path d="M1288.57,648a71.71,71.71,0,0,0,1.89,8.7,13.61,13.61,0,0,0,1.65,3.49c.55.8,2.2,2,2.21,3a1.5,1.5,0,0,0,2.94.4,25.17,25.17,0,0,1,9.12-11.76,1.52,1.52,0,0,0-.76-2.8c-1.93-.18-3.39.94-5.19,1.33s-3.17-1.45-4.55-2.44-3.43-1.78-5-.87c-2.11,1.2-.46,3.34.73,4.41s2.66,2.11,2.08,4.07c-.47,1.57-1.44,3.34-.79,5a2.25,2.25,0,0,0,4.13,0,10.57,10.57,0,0,0,.65-3l.64-3.91-2.94-.4-.3,3.38c-.15,1.7,2.53,2,3,.4a3.08,3.08,0,0,1,1.87-2.12c1.52-.7.44-3.34-1.16-2.74q-1.62.61-3.27,1.08l1.84,1a5.41,5.41,0,0,0-4.27-4.22,1.51,1.51,0,0,0-1.69,2.2,10.22,10.22,0,0,1,1.14,3.32,24.43,24.43,0,0,0,.53,3.81c.34,1.1.85,2.13,1.13,3.25a11.22,11.22,0,0,1,.23,3.92c-.17,1.75,2.44,1.92,3,.4,1-3.17-.42-6.25-2-9-.7-1.24-2.91-.76-2.79.75.28,3.59.75,7.11,3.12,10a1.51,1.51,0,0,0,2.51-1.46,77,77,0,0,1-3-9.47c-.69-3.22-.31-6.6-1.4-9.74l-1.84,1.84a54,54,0,0,0,9,1.58c2.91.25,6.13.54,9-.38a1.52,1.52,0,0,0,0-2.9c-3.32-.85-6.9-.14-10.3-.43a37.71,37.71,0,0,1-10.26-2.42,1.51,1.51,0,0,0-1.85,1.84,16,16,0,0,1,.72,3.73,11.2,11.2,0,0,0,.66,3.34,26.93,26.93,0,0,1,1.74,6.35c.25,2.09.42,4.07,1.59,5.88a18.59,18.59,0,0,1,1.81,3,24.76,24.76,0,0,1,1,3.34,1.51,1.51,0,0,0,2.9-.8,19.73,19.73,0,0,0-2.65-6.35A7.43,7.43,0,0,1,1294,663a32.34,32.34,0,0,1-.45-3.26,28.94,28.94,0,0,0-1.75-6.34,12.7,12.7,0,0,1-.61-3.46,17,17,0,0,0-.76-3.6l-1.85,1.84a41.2,41.2,0,0,0,10.15,2.44,38.42,38.42,0,0,0,5,.23,19.76,19.76,0,0,1,5.38.19v-2.9c-2.55.84-5.52.51-8.15.28a49.87,49.87,0,0,1-8.22-1.47,1.51,1.51,0,0,0-1.84,1.85c1.08,3.12.71,6.52,1.39,9.74a78.7,78.7,0,0,0,3,9.46l2.5-1.46c-1.79-2.16-2-5.15-2.24-7.84l-2.8.76c1.15,2,2.45,4.3,1.66,6.67l2.95.4a14.1,14.1,0,0,0-.19-4,36.6,36.6,0,0,0-1.28-3.92,33.82,33.82,0,0,1-.57-4,12.62,12.62,0,0,0-1.4-3.82l-1.7,2.2a2.54,2.54,0,0,1,2.18,2.13,1.52,1.52,0,0,0,1.84,1c1.11-.32,2.2-.68,3.28-1.09l-1.16-2.74a5.91,5.91,0,0,0-3.24,3.91l2.94.4.3-3.38c.14-1.66-2.67-2.07-2.95-.4l-.52,3.18a12,12,0,0,0-.48,2.87c-.17.56.26.78,1.27.68a2.76,2.76,0,0,1,.06-.7,8.2,8.2,0,0,1,.32-1.07,16.6,16.6,0,0,0,.68-2.14,5.07,5.07,0,0,0-.83-4,10.24,10.24,0,0,0-1.41-1.53c-.3-.28-.62-.54-.92-.82s-.54-.81-.69-.35l-.69.89c.84-.62,2.47,1,3,1.5a8.45,8.45,0,0,0,3.26,2,5.94,5.94,0,0,0,3.58-.29,8.14,8.14,0,0,1,3.54-1l-.75-2.79a28.64,28.64,0,0,0-10.5,13.55l3,.4a5,5,0,0,0-1.65-3.38,10.31,10.31,0,0,1-2.19-3.54,59.43,59.43,0,0,1-2-9.07c-.37-1.89-3.26-1.09-2.9.8Z" transform="translate(11.68 5.17)"/><polyline class="cls-3" points="1944.51 1086.71 1548.84 802.52 1554.33 652.39 1931.87 589.41"/><polyline class="cls-4" points="1484.8 1086.71 1353.43 803.45 1553.11 802.52 1944.51 1086.71"/><path class="cls-5" d="M1541.81,669.93l-3.89,106.37c-.43,11.76-10.47,21.1-22.74,21.15l-156.5.75a22.8,22.8,0,0,1-22-15.42l-34.71-107c-4.58-14.11,6.42-28.43,21.83-28.44l195.1-.09C1531.89,647.23,1542.27,657.52,1541.81,669.93Z" transform="translate(11.68 5.17)"/><polyline class="cls-6" points="1870.87 1087.17 1601.33 875.66 1412.18 875.66 1513.45 1087.17"/><line class="cls-6" x1="1937.22" y1="881.26" x2="1554.33" y2="745.94"/><line class="cls-6" x1="1931.87" y1="711.21" x2="1554.33" y2="703.12"/><line class="cls-6" x1="1848.84" y1="604.16" x2="1848.84" y2="709.43"/><line class="cls-6" x1="1666.17" y1="633.73" x2="1666.17" y2="705.52"/><line class="cls-6" x1="1756.51" y1="707.17" x2="1756.51" y2="817.39"/><line class="cls-6" x1="1595.16" y1="705.52" x2="1595.16" y2="760.37"/><line class="cls-6" x1="1662.49" y1="784.17" x2="1662.49" y2="881.94"/><line class="cls-6" x1="1882.95" y1="862.08" x2="1882.95" y2="1042.49"/><ellipse class="cls-1" cx="1836.6" cy="697.23" rx="6.81" ry="8.39"/><ellipse class="cls-1" cx="1767.09" cy="720.06" rx="5.35" ry="6.99"/><ellipse class="cls-1" cx="1767.09" cy="809.51" rx="5.35" ry="6.99"/><ellipse class="cls-1" cx="1836.6" cy="616.17" rx="6.81" ry="8.39"/><ellipse class="cls-1" cx="1673.76" cy="695.84" rx="4.37" ry="6.99"/><ellipse class="cls-1" cx="1866.73" cy="612.44" rx="6.81" ry="8.39"/><ellipse class="cls-1" cx="1863.82" cy="697.23" rx="6.81" ry="8.39"/><ellipse class="cls-1" cx="1673.76" cy="642.73" rx="4.37" ry="6.99"/><ellipse class="cls-1" cx="1870.62" cy="1015.89" rx="6.81" ry="8.39"/><ellipse class="cls-1" cx="1870.62" cy="875.2" rx="6.81" ry="8.39"/><ellipse class="cls-1" cx="1673.27" cy="872.87" rx="4.86" ry="8.85"/><ellipse class="cls-1" cx="1674.25" cy="805.32" rx="5.83" ry="8.39"/><ellipse class="cls-1" cx="1895.9" cy="883.58" rx="6.81" ry="8.39"/><ellipse class="cls-1" cx="1895.9" cy="1036.39" rx="6.81" ry="8.39"/><ellipse class="cls-1" cx="1649.94" cy="798.8" rx="5.83" ry="8.39"/><ellipse class="cls-1" cx="1649.46" cy="858.89" rx="4.37" ry="7.92"/><path d="M1539.16,651.2a1.09,1.09,0,0,0,0,.18,5.58,5.58,0,0,0,.08.57,2.42,2.42,0,0,0,.1.36,4.39,4.39,0,0,0,.31.66.91.91,0,0,0,.11.16c.11.15.22.3.34.44a1.24,1.24,0,0,0,.48.31,1.29,1.29,0,0,0,.58.13,1.27,1.27,0,0,0,.58-.13,1.11,1.11,0,0,0,.48-.31l.24-.31a1.5,1.5,0,0,0,.2-.75l-.05-.4a1.39,1.39,0,0,0-.39-.66l-.09-.12.23.3a2.13,2.13,0,0,1-.26-.44l.15.36a2.42,2.42,0,0,1-.14-.51l.06.39a1.64,1.64,0,0,1,0-.23,1.17,1.17,0,0,0-.13-.58,1.14,1.14,0,0,0-.31-.48,1.24,1.24,0,0,0-.48-.31,1.15,1.15,0,0,0-.58-.13l-.4.06a1.57,1.57,0,0,0-.66.38l-.24.3a1.57,1.57,0,0,0-.2.76Z" transform="translate(11.68 5.17)"/><path d="M1539.8,653.7a3.42,3.42,0,0,0,.12,1.35,1.52,1.52,0,0,0,1.25,1.08,1.49,1.49,0,0,0,1.49-.72l.6-1.16.3-.6a4.14,4.14,0,0,0,.41-.88,1.83,1.83,0,0,0-.9-2.11,2.56,2.56,0,0,0-.66-.22,2.73,2.73,0,0,1-.41-.1l.36.15a.7.7,0,0,1-.17-.09l.31.24-.08-.08.24.31a1.56,1.56,0,0,1-.16-.28l.15.36a2.88,2.88,0,0,0-.67-1.16,2.51,2.51,0,0,0-1.2-.64,3.57,3.57,0,0,0-1.08-.06,4.69,4.69,0,0,1-1,0l.4,0-.15,0a1.59,1.59,0,0,0-1.15.15,1.5,1.5,0,0,0,.36,2.74,3.54,3.54,0,0,0,1.3.07,3.46,3.46,0,0,1,.85,0l-.39-.05a1.35,1.35,0,0,1,.33.09l-.35-.15a.93.93,0,0,1,.19.11l-.3-.24a.75.75,0,0,1,.15.16l-.23-.3a1.36,1.36,0,0,1,.13.24l-.15-.36a2.55,2.55,0,0,0,1.12,1.49,2.9,2.9,0,0,0,.7.24,2.83,2.83,0,0,1,.4.08l-.36-.15a.33.33,0,0,1,.1.06l-.3-.24s0,0,.05,0l-.23-.3a.15.15,0,0,1,0,.06l-.15-.36a.19.19,0,0,1,0,.07l0-.4v.08l.06-.4a.74.74,0,0,1,0,.14l.15-.36c-.16.38-.37.75-.56,1.12l-.58,1.13,2.75.35a2.33,2.33,0,0,1-.08-.36l0,.4a2.33,2.33,0,0,1,0-.59,1.5,1.5,0,0,0-1.5-1.5,1.54,1.54,0,0,0-1.06.44l-.24.3a1.57,1.57,0,0,0-.2.76Z" transform="translate(11.68 5.17)"/><path d="M1536.66,795.35c-1.11-.13-2.21-.24-3.32-.32a4,4,0,0,0-3.1.82,1.51,1.51,0,0,0,1.46,2.51,11.81,11.81,0,0,0,2.19-1.1,9,9,0,0,0,2-1.53,12,12,0,0,0,1.2-1.72l.27-.41c.17-.25-.12.1.11-.13a3.83,3.83,0,0,1,.28-.29c-.21.19.21-.11.28-.14l-1.82-2.36a6.52,6.52,0,0,0-1.46,3.48c-.13,1.24.24,2.72,1.63,3.06a1.52,1.52,0,0,0,1.9-1.45c-.06-.93-.1-1.86-.1-2.79,0-.47,0-.93,0-1.4v-.13c0-.18,0-.19,0,0,0-.16,0-.17,0,0s-.11.13,0,0l-.66.38.13,0-1.16-.15.12.06-.54-.54c-.08-.13,0,0,0,.08.14.37,0,0,0,.17a2.3,2.3,0,0,1,0,.65c-.09.6-.21,1.2-.32,1.81s-.21,1.1-.3,1.66a5.45,5.45,0,0,0-.1,1,2.82,2.82,0,0,0,.08.65c0,.12,0,.4,0,.09l.44-1.07-.09.09.67-.39a5.07,5.07,0,0,1-1.79.25c-.71,0-1.42.07-2.13.14a27.62,27.62,0,0,0-4.41.82,1.51,1.51,0,0,0,.4,3c1.68-.15,3.36-.36,5-.66.81-.14,1.62-.31,2.42-.5a4.56,4.56,0,0,0,2.28-.9,3.7,3.7,0,0,0,.84-2.36c.1-.79.19-1.59.28-2.38q.26-2.49.42-5a1.5,1.5,0,0,0-3,0c-.09,1.43-.21,2.85-.35,4.28-.07.7-.15,1.39-.23,2.09,0,.36-.08.73-.13,1.09,0,.17,0,0,0,.18s-.05.19,0,.09a.56.56,0,0,1,.27-.28l.1,0-.21.06-.45.11-1.06.25c-.68.15-1.36.28-2,.4-1.37.25-2.72.42-4.12.54l.4,2.94a23,23,0,0,1,4.78-.8c.9-.06,1.79-.06,2.68-.2a3.43,3.43,0,0,0,1.22-.35,1.74,1.74,0,0,0,.79-1.9c0-.06-.1-.39-.08-.22,0-.06,0-.42,0-.28.06-.42.16-.85.24-1.27.16-.9.35-1.79.46-2.7a3.73,3.73,0,0,0-.55-2.78,1.8,1.8,0,0,0-3,.51,6.26,6.26,0,0,0-.38,2.82c0,1,0,2,.1,3l1.89-1.45a.77.77,0,0,1,.55.51c0,.11,0,.09,0-.06.06.16,0,.17,0,0a2.94,2.94,0,0,1,.06-.71,3.24,3.24,0,0,1,.55-1.25,1.5,1.5,0,0,0-1.82-2.35c-1.27.63-1.85,1.9-2.62,3-.06.08-.06.07,0,0,0,.06-.09.12-.15.18a4.22,4.22,0,0,1-.43.41,5.6,5.6,0,0,1-.68.47,11.36,11.36,0,0,1-1.77,1l1.46,2.51a.32.32,0,0,1-.18.1l.29-.08c-.28,0,.18,0,.2,0,.42,0,.83,0,1.24.08.92.07,1.83.16,2.74.27a1.51,1.51,0,0,0,1.5-1.5,1.54,1.54,0,0,0-1.5-1.5Z" transform="translate(11.68 5.17)"/><path class="cls-2" d="M5.52,578" transform="translate(11.68 5.17)"/><path class="cls-1" d="M18,592.45l356.36,57.61a8.53,8.53,0,0,0,1.43.11H621.4a8.13,8.13,0,0,0,7.44-4.43L656,588.13c2.25-4.79-1.66-10.1-7.45-10.1H19.42C9.56,578,8.29,590.88,18,592.45Z" transform="translate(11.68 5.17)"/><path class="cls-1" d="M18.06,588.79l360,57.85a8.78,8.78,0,0,0,1.45.12h248.1a8.25,8.25,0,0,0,7.52-4.45l27.39-57.85c2.28-4.81-1.67-10.14-7.52-10.14H19.5C9.54,574.32,8.26,587.22,18.06,588.79Z" transform="translate(11.68 5.17)"/><path d="M628.87,646.64a60.54,60.54,0,0,1-2,9,10.13,10.13,0,0,1-2.19,3.52,5,5,0,0,0-1.64,3.38l3-.4a28.64,28.64,0,0,0-10.49-13.51l-.75,2.79a7.57,7.57,0,0,1,3.36.88,6,6,0,0,0,3.75.36,8.26,8.26,0,0,0,3.12-1.88c.59-.52,2.3-2.26,3.18-1.62l-.69-.89c-.15-.46-.32,0-.56.23s-.61.54-.92.81a11.76,11.76,0,0,0-1.42,1.49,5.07,5.07,0,0,0-.95,4.19,17,17,0,0,0,.68,2.13,8.34,8.34,0,0,1,.32,1.08,2,2,0,0,1,.06.69l1.31-.5c.12-.18-.18-1.06-.23-1.33l-.24-1.46-.56-3.41c-.28-1.66-3.1-1.29-3,.4l.29,3.36,3-.4a5.9,5.9,0,0,0-3.24-3.9l-1.16,2.74q1.62.62,3.27,1.08a1.52,1.52,0,0,0,1.85-1,2.5,2.5,0,0,1,2.17-2.12l-1.69-2.21a13,13,0,0,0-1.37,3.6,39.89,39.89,0,0,1-.61,4.23c-.38,1.24-1,2.4-1.23,3.68a14.18,14.18,0,0,0-.24,4.26l3-.4c-.78-2.37.52-4.63,1.66-6.65l-2.8-.75c-.21,2.68-.44,5.65-2.24,7.81l2.51,1.46a80.18,80.18,0,0,0,3-9.44c.68-3.2.32-6.6,1.39-9.71a1.51,1.51,0,0,0-1.84-1.84,50.8,50.8,0,0,1-8.21,1.46c-2.62.23-5.6.56-8.14-.27v2.89a18.88,18.88,0,0,1,5.15-.2,38.35,38.35,0,0,0,5.25-.21,41.56,41.56,0,0,0,10.14-2.43L630,645.78a16.87,16.87,0,0,0-.76,3.59,12.63,12.63,0,0,1-.61,3.45,28.77,28.77,0,0,0-1.75,6.32c-.15,1.08-.19,2.19-.44,3.25a7.73,7.73,0,0,1-1.33,2.6,19.31,19.31,0,0,0-2.65,6.33,1.5,1.5,0,0,0,2.89.8,25.65,25.65,0,0,1,1-3.33,19.25,19.25,0,0,1,1.81-3c1.17-1.8,1.34-3.78,1.59-5.86a27.13,27.13,0,0,1,1.74-6.33,11.52,11.52,0,0,0,.66-3.33,16.22,16.22,0,0,1,.71-3.71,1.51,1.51,0,0,0-1.84-1.85,37.62,37.62,0,0,1-10.25,2.41c-3.39.3-7-.41-10.29.44a1.51,1.51,0,0,0,0,2.89c2.82.92,6,.64,8.94.38a55.16,55.16,0,0,0,9-1.57l-1.85-1.84c-1.09,3.13-.71,6.5-1.39,9.71a80.62,80.62,0,0,1-3,9.43,1.51,1.51,0,0,0,2.51,1.46c2.36-2.85,2.83-6.36,3.11-9.93.12-1.52-2.09-2-2.79-.76-1.54,2.72-3,5.79-2,8.95.5,1.52,3.12,1.38,2.94-.39a11.36,11.36,0,0,1,.18-3.68c.27-1.2.82-2.3,1.19-3.46a20.48,20.48,0,0,0,.5-3.56,9.72,9.72,0,0,1,1.17-3.55,1.52,1.52,0,0,0-1.7-2.2,5.41,5.41,0,0,0-4.27,4.21l1.85-1q-1.67-.47-3.27-1.08c-1.58-.6-2.7,2-1.16,2.74a3.09,3.09,0,0,1,1.87,2.11c.41,1.59,3.09,1.32,2.94-.4l-.29-3.36-3,.39.65,3.9a10.32,10.32,0,0,0,.65,3c.86,1.67,3.4,1.92,4.13,0,.63-1.66-.32-3.4-.79-5-.59-2,.75-2.86,2.07-4.05s2.83-3.22.73-4.41c-1.6-.91-3.66-.11-5,.87s-2.64,2.84-4.54,2.43-3.26-1.51-5.18-1.33a1.52,1.52,0,0,0-.76,2.8,25,25,0,0,1,9.1,11.72,1.51,1.51,0,0,0,2.95-.4c0-1,1.55-2.08,2.09-2.83a13.61,13.61,0,0,0,1.76-3.64,70.83,70.83,0,0,0,1.89-8.67c.36-1.89-2.53-2.69-2.9-.8Z" transform="translate(11.68 5.17)"/><polyline class="cls-3" points="0 1084.71 395.18 801.45 389.69 651.82 12.62 589.04"/><polyline class="cls-4" points="459.14 1084.71 590.34 802.38 390.91 801.45 0 1084.71"/><path class="cls-5" d="M378.84,669.27l3.88,106c.43,11.72,10.46,21,22.72,21.08l156.3.75a22.75,22.75,0,0,0,21.93-15.37l34.68-106.67c4.57-14.07-6.41-28.34-21.81-28.35l-194.86-.09C388.75,646.65,378.39,656.91,378.84,669.27Z" transform="translate(11.68 5.17)"/><polyline class="cls-6" points="73.54 1085.17 342.75 874.36 531.67 874.36 430.52 1085.17"/><line class="cls-6" x1="7.28" y1="879.93" x2="389.69" y2="745.06"/><line class="cls-6" x1="12.62" y1="710.44" x2="389.69" y2="702.38"/><line class="cls-6" x1="95.55" y1="603.74" x2="95.55" y2="708.67"/><line class="cls-6" x1="277.99" y1="633.22" x2="277.99" y2="704.77"/><line class="cls-6" x1="187.76" y1="706.41" x2="187.76" y2="816.28"/><line class="cls-6" x1="348.91" y1="704.77" x2="348.91" y2="759.44"/><line class="cls-6" x1="281.66" y1="783.16" x2="281.66" y2="880.61"/><line class="cls-6" x1="61.48" y1="860.81" x2="61.48" y2="1040.64"/><ellipse class="cls-1" cx="107.78" cy="696.51" rx="6.8" ry="8.36"/><ellipse class="cls-1" cx="177.2" cy="719.26" rx="5.34" ry="6.97"/><ellipse class="cls-1" cx="177.2" cy="808.42" rx="5.34" ry="6.97"/><ellipse class="cls-1" cx="107.78" cy="615.71" rx="6.8" ry="8.36"/><ellipse class="cls-1" cx="270.41" cy="695.12" rx="4.37" ry="6.97"/><ellipse class="cls-1" cx="77.68" cy="612" rx="6.8" ry="8.36"/><ellipse class="cls-1" cx="80.59" cy="696.51" rx="6.8" ry="8.36"/><ellipse class="cls-1" cx="270.41" cy="642.18" rx="4.37" ry="6.97"/><ellipse class="cls-1" cx="73.79" cy="1014.13" rx="6.8" ry="8.36"/><ellipse class="cls-1" cx="73.79" cy="873.89" rx="6.8" ry="8.36"/><ellipse class="cls-1" cx="270.89" cy="871.57" rx="4.85" ry="8.82"/><ellipse class="cls-1" cx="269.92" cy="804.24" rx="5.83" ry="8.36"/><ellipse class="cls-1" cx="48.55" cy="882.25" rx="6.8" ry="8.36"/><ellipse class="cls-1" cx="48.55" cy="1034.56" rx="6.8" ry="8.36"/><ellipse class="cls-1" cx="294.2" cy="797.74" rx="5.83" ry="8.36"/><ellipse class="cls-1" cx="294.68" cy="857.64" rx="4.37" ry="7.89"/><path d="M378.49,650.61a1.69,1.69,0,0,1,0,.23l0-.4a1.75,1.75,0,0,1-.14.51l.15-.35a2.21,2.21,0,0,1-.26.44l.24-.31-.1.12a1.14,1.14,0,0,0-.31.48,1.36,1.36,0,0,0,0,1.16,1.08,1.08,0,0,0,.31.48l.3.24a1.57,1.57,0,0,0,.76.2l.4,0a1.49,1.49,0,0,0,.66-.39,5,5,0,0,0,.34-.43l.11-.16a3.72,3.72,0,0,0,.31-.67,1.91,1.91,0,0,0,.1-.34,5.58,5.58,0,0,0,.08-.57,1.21,1.21,0,0,0,0-.19,1.06,1.06,0,0,0-.13-.58,1.14,1.14,0,0,0-.31-.48,1,1,0,0,0-.48-.31,1.15,1.15,0,0,0-.58-.13l-.4,0a1.59,1.59,0,0,0-.66.39l-.23.3a1.48,1.48,0,0,0-.21.76Z" transform="translate(11.68 5.17)"/><path d="M377.85,653.1a2.33,2.33,0,0,1,0,.59l.05-.4a2.29,2.29,0,0,1-.07.36l2.74-.36-.58-1.12c-.19-.37-.4-.73-.56-1.11l.15.36a.4.4,0,0,1,0-.15l.05.4v-.07l-.06.4,0-.08-.15.36,0-.06-.24.31.06,0-.31.23.1-.05-.35.15a2.21,2.21,0,0,1,.37-.08,2.8,2.8,0,0,0,.72-.25A2.49,2.49,0,0,0,381,651l-.15.36a1.36,1.36,0,0,1,.13-.24l-.23.3a.75.75,0,0,1,.15-.16l-.3.24a.78.78,0,0,1,.2-.11l-.36.15a1.35,1.35,0,0,1,.33-.09l-.39,0a3.46,3.46,0,0,1,.85,0,3.55,3.55,0,0,0,1.3-.07,1.51,1.51,0,0,0,1-1.84,1.53,1.53,0,0,0-1.84-1.05l-.15,0,.4-.05a3.79,3.79,0,0,1-.95,0,3.84,3.84,0,0,0-1.12.06,2.41,2.41,0,0,0-1.18.62,3,3,0,0,0-.69,1.17l.15-.35a1.07,1.07,0,0,1-.16.27l.24-.3a.27.27,0,0,1-.08.07l.31-.23a.65.65,0,0,1-.16.09l.35-.15c-.29.11-.6.12-.89.24a1.82,1.82,0,0,0-1.07,2.19,4.52,4.52,0,0,0,.38.84l.31.6.61,1.19a1.47,1.47,0,0,0,1.49.71,1.5,1.5,0,0,0,1.25-1.07,3.42,3.42,0,0,0,.12-1.35,1.67,1.67,0,0,0-.43-1.06,1.52,1.52,0,0,0-1.07-.44,1.56,1.56,0,0,0-1.06.44,1.47,1.47,0,0,0-.44,1.06Z" transform="translate(11.68 5.17)"/><path d="M384,797.28q1.36-.16,2.73-.27c.41,0,.82-.08,1.24-.08.06,0,.48,0,.2,0a1.53,1.53,0,0,1,.29.07.27.27,0,0,1-.18-.1l1.46-2.5a13.31,13.31,0,0,1-1.77-1c-.26-.17-.51-.33-.68-.47a4.12,4.12,0,0,1-.37-.35l-.21-.24q.12.15,0,0c-.78-1.1-1.36-2.37-2.62-3a1.51,1.51,0,0,0-1.94.38,1.53,1.53,0,0,0,.12,2,3.17,3.17,0,0,1,.54,1.25,1.4,1.4,0,0,1,.06.61v.26l0-.16,0,.13a.81.81,0,0,1,.57-.58l1.9,1.45c.05-.86.09-1.73.09-2.59a11.25,11.25,0,0,0-.12-2.53c-.23-1-1.21-2.09-2.36-1.78s-1.47,1.57-1.5,2.59a12,12,0,0,0,.38,2.66l.23,1.31a5.28,5.28,0,0,1,.15,1c0,.17,0,.06,0,0s-.07.19-.09.29a1.91,1.91,0,0,0,0,.92,1.83,1.83,0,0,0,1.34,1.2,11.3,11.3,0,0,0,2.66.3,23,23,0,0,1,5.45.83l.39-3c-1.36-.11-2.67-.28-4-.51-.68-.12-1.36-.25-2-.4l-1.06-.24-.48-.12-.21-.06h0l.26.24q.07.18,0,0s-.06-.32,0-.16c0-.36-.09-.72-.13-1.08-.08-.7-.16-1.39-.23-2.08-.15-1.46-.27-2.91-.36-4.37a1.53,1.53,0,0,0-1.5-1.5,1.51,1.51,0,0,0-1.5,1.5c.1,1.62.24,3.24.41,4.86.09.83.18,1.65.29,2.48a3.64,3.64,0,0,0,.84,2.36,4.74,4.74,0,0,0,2.28.89c.77.18,1.54.34,2.32.48,1.69.31,3.39.53,5.1.67a1.47,1.47,0,0,0,1.48-1.3,1.5,1.5,0,0,0-1.08-1.64,27.29,27.29,0,0,0-4.4-.82c-.71-.07-1.42-.11-2.13-.14a5.25,5.25,0,0,1-1.78-.24l.66.38-.08-.08.44,1.06c0,.16,0,.18,0,0a2.74,2.74,0,0,0,.09-.64,4.14,4.14,0,0,0-.08-1c-.09-.58-.21-1.16-.31-1.74s-.21-1.14-.31-1.71a2.85,2.85,0,0,1-.05-.66v-.16c0,.1,0,.1,0,0s.15-.32,0-.16l-.54.54.12-.06-1.16.15.13.06-.66-.39c.13.12.13.12,0,0s-.08-.15,0,0c0-.15,0-.17,0-.06a1.34,1.34,0,0,1,0,.2c0,.46,0,.93,0,1.39q0,1.4-.09,2.79a1.52,1.52,0,0,0,1.9,1.44c1.38-.33,1.76-1.81,1.63-3a6.56,6.56,0,0,0-1.46-3.47L382.59,792c.06,0,.42.25.32.17s.2.22.24.26c.27.27-.11-.2.1.13l.24.35a12,12,0,0,0,1.24,1.77,8.25,8.25,0,0,0,1.94,1.48,12.69,12.69,0,0,0,2.27,1.14,1.51,1.51,0,0,0,1.46-2.51,4.08,4.08,0,0,0-3.1-.81c-1.1.07-2.21.18-3.31.31a1.55,1.55,0,0,0-1.5,1.5,1.5,1.5,0,0,0,1.5,1.5Z" transform="translate(11.68 5.17)"/><path class="cls-3" d="M1920,458.27V570c0,6-3.74,10.89-8.35,10.89h-16.76a6.75,6.75,0,0,1-3.48-1l-3.32-2L1659,441.11a7.09,7.09,0,0,0-2.7-.94L1225,387.41c-3.33-.4-6.53,1.83-8.12,5.67L1139,580.67h-.22L960.18,317.56l2.93-4.29,437.2,2.85a7.58,7.58,0,0,0,6.21-3.54L1625.7.06a7.59,7.59,0,0,1,6.15-3.55h64c7.36,0,11.12,11.51,6,18.44L1490.36,302.29c-4.86,6.62-1.68,17.62,5.32,18.4l207,22.78a6.78,6.78,0,0,1,2.26.68l209.64,104C1917.85,449.69,1920,453.74,1920,458.27Z" transform="translate(11.68 5.17)"/><path class="cls-7" d="M1888.09,577.9l-1,3-748-.21,77.84-187.59c1.59-3.84,4.79-6.07,8.12-5.67l431.34,52.76a7.09,7.09,0,0,1,2.7.94Zm-155.54-13.66c17.79,0,24.89-30,10.18-43l-52.83-47a15.61,15.61,0,0,0-9.1-4.05l-38.09-3c-26.26-2.08-43.43,35.23-29.67,64.45l10,21.36c3.29,7,9.13,11.25,15.41,11.25ZM1574,559c19.61,0,31.84-27.68,22-49.79L1579,470.88c-4.21-9.46-11.73-15.61-20.09-16.43l-195.62-19.18c-10.63-1-20.61,6.64-25,19.26L1318,512.06c-7.73,22,4.59,47,23.12,47Z" transform="translate(11.68 5.17)"/><path d="M1742.73,521.19c14.71,13.06,7.61,43-10.18,43h-94c-6.28,0-12.12-4.26-15.41-11.25l-10-21.36c-13.76-29.22,3.41-66.53,29.67-64.45l38.09,3a15.61,15.61,0,0,1,9.1,4.05Z" transform="translate(11.68 5.17)"/><path d="M1596,509.24c9.84,22.11-2.39,49.79-22,49.79H1341.12c-18.53,0-30.85-25-23.12-47l20.22-57.53c4.44-12.62,14.42-20.3,25-19.26l195.62,19.18c8.36.82,15.88,7,20.09,16.43Z" transform="translate(11.68 5.17)"/><polygon class="cls-4" points="1150.72 585.84 1150.64 586.05 1150.5 585.84 1150.72 585.84"/><polygon class="cls-3" points="1150.5 585.84 792.82 585.75 792.82 585.54 971.86 322.74 1150.5 585.84"/><path class="cls-3" d="M25.8,580.37a3.08,3.08,0,0,1-.53,0l-16.06.3C4.54,580.8.72,575.9.72,569.83V457.76c0-4.53,2.15-8.58,5.39-10.19L215.75,343.63A6.9,6.9,0,0,1,218,343l207-22.78c7-.78,10.19-11.8,5.32-18.4L218.86,14.42C213.75,7.51,217.52-4,224.88-4h64A7.64,7.64,0,0,1,295-.45L514.2,312.07a7.6,7.6,0,0,0,6.21,3.54l443.07-2.89-.37.55-5.87,0,2.94,4.33-179,262.81-77.91-187.8c-1.59-3.84-4.79-6.07-8.13-5.66L263.76,439.66a6.94,6.94,0,0,0-2.7.95L28.63,579.41A6.58,6.58,0,0,1,25.8,580.37Z" transform="translate(11.68 5.17)"/><polygon class="cls-4" points="974.79 318.45 971.86 322.74 968.93 318.41 974.79 318.45"/><path class="cls-7" d="M781.14,580.37v.21L25.8,580.37a6.58,6.58,0,0,0,2.83-1l232.43-138.8a6.94,6.94,0,0,1,2.7-.95L695.1,386.91c3.34-.41,6.54,1.82,8.13,5.66ZM574,562.16c18.54,0,30.85-25,23.13-47l-20.23-57.53c-4.44-12.62-14.43-20.29-25-19.26L356.25,457.57c-8.36.81-15.88,7-20.1,16.42l-17.07,38.36c-9.83,22.11,2.4,49.81,22,49.81Zm-275.9-26.91c13.75-29.21-3.42-66.52-29.67-64.46l-38.1,3a15.61,15.61,0,0,0-9.1,4.05L168.41,524.8c-14.7,13.07-7.61,43.06,10.19,43.06h94c6.29,0,12.13-4.26,15.42-11.26Z" transform="translate(11.68 5.17)"/><path d="M597.14,515.17c7.72,22-4.59,47-23.13,47H341.1c-19.62,0-31.85-27.7-22-49.81L336.15,474c4.22-9.45,11.74-15.61,20.1-16.42l195.62-19.19c10.61-1,20.6,6.64,25,19.26Z" transform="translate(11.68 5.17)"/><path d="M268.44,470.79c26.25-2.06,43.42,35.25,29.67,64.46l-10,21.35c-3.29,7-9.13,11.26-15.42,11.26h-94c-17.8,0-24.89-30-10.19-43.06l52.83-46.95a15.61,15.61,0,0,1,9.1-4.05Z" transform="translate(11.68 5.17)"/><path class="cls-8" d="M948.72,558h118.36c2.51,0,4.85-1.59,6.29-4.27l109-203.46c1.56-2.91,4.2-4.53,6.92-4.23l498.05,53.81a6.16,6.16,0,0,1,2.56.88L1920,538.43" transform="translate(11.68 5.17)"/><path class="cls-8" d="M0,538.43l230.1-137.7a6.16,6.16,0,0,1,2.56-.88L730.71,346c2.72-.3,5.36,1.32,6.92,4.23l109,203.46c1.44,2.68,3.78,4.27,6.29,4.27H971.28" transform="translate(11.68 5.17)"/><polyline class="cls-9" points="714.7 397.22 814.67 585.76 792.82 585.54"/><polyline class="cls-9" points="1230.68 392.57 1128.92 586.05 1151.16 585.84"/><polygon class="cls-10" points="1413.29 324.59 1649.66 1.69 1628.15 1.69 1413.29 324.59"/><polygon class="cls-10" points="532.05 324.59 295.68 1.69 317.19 1.69 532.05 324.59"/><path class="cls-11" d="M1131.74,313.54,1055,512.45c-3.68,9.56-10.66,15.48-18.23,15.48H894.68c-7.36,0-14.18-5.6-17.95-14.76L794.61,313.54" transform="translate(11.68 5.17)"/><polygon class="cls-1" points="1144.53 319.36 1159.45 319.36 1063.2 527.22 1144.53 319.36"/><polygon class="cls-1" points="890.37 524.64 791.24 319.13 806.12 318.75 890.37 524.64"/><polyline class="cls-3" points="806.12 318.75 818.5 311.52 1133.97 311.52 1144.53 319.36"/><path class="cls-3" d="M804,315.41a31.77,31.77,0,0,1,5.16.18,1.5,1.5,0,0,0,1.5-1.5,1.54,1.54,0,0,0-.44-1.06,1.71,1.71,0,0,0-1.06-.44,31.77,31.77,0,0,0-5.16-.18,1.5,1.5,0,0,0,0,3Z" transform="translate(11.68 5.17)"/><path class="cls-3" d="M822.32,312.32c-1.15.14-2.13.69-3.25.92a9.74,9.74,0,0,1-3.61-.06,39.87,39.87,0,0,0-6.68-1.06,1.14,1.14,0,0,0-.57,2.1l.27.16.57-2.1a46.31,46.31,0,0,1-5.89-.07c-1.92-.09-3.92.34-5.81.12-1.43-.17-1.42,2.08,0,2.25,1.89.22,3.89-.21,5.81-.12a46.31,46.31,0,0,0,5.89.07,1.14,1.14,0,0,0,.57-2.1l-.27-.16-.57,2.1c2.35,0,4.58.78,6.9,1.1a11.8,11.8,0,0,0,3.25.06c1.19-.16,2.23-.82,3.39-1,1.42-.17,1.44-2.42,0-2.25Z" transform="translate(11.68 5.17)"/><path class="cls-3" d="M820.87,312.11l-.65.16a1.13,1.13,0,0,0-.27,2.05c2.2,1.26,5,1.34,7.44,1.14a23.64,23.64,0,0,0,7.7-2,1.13,1.13,0,0,0-.57-2.1l-1.57.11c-1.44.1-1.45,2.35,0,2.25l1.57-.11L834,311.5a20.51,20.51,0,0,1-6.57,1.71c-2,.16-4.46.22-6.3-.83l-.27,2.06.64-.16c1.41-.33.82-2.5-.59-2.17Z" transform="translate(11.68 5.17)"/><path class="cls-3" d="M1103.05,313.31c-2.25-.84-5.09-.35-7.45-.32a1.13,1.13,0,0,0,0,2.25c5.72.06,11.43.06,17.15.06,2.79,0,5.58,0,8.37-.05a32.13,32.13,0,0,0,8.19-.8,1.13,1.13,0,0,0-.6-2.17c-2.55.76-5.44.67-8.09.73s-5.58,0-8.37,0c-5.55,0-11.1,0-16.65-.06v2.25l3.45-.05a9.26,9.26,0,0,1,3.4.29c1.36.5,2-1.67.6-2.17Z" transform="translate(11.68 5.17)"/><path class="cls-3" d="M1100.63,314a55.57,55.57,0,0,1-22.36-.2L1078,316l13.17-1.44,6.47-.71a15.38,15.38,0,0,1,6.41.18l-.27-2.06c-7.7,3.76-16.39,2.41-24.63,2.16-8.91-.28-17.38,1.79-25.91,4.13a1.13,1.13,0,0,0,.6,2.17c4.46-1.22,8.93-2.45,13.49-3.25a60.84,60.84,0,0,1,13.14-.75c8.29.35,16.73,1.25,24.45-2.51a1.14,1.14,0,0,0-.27-2.06,15.55,15.55,0,0,0-6.3-.34c-2.23.23-4.45.49-6.68.73l-13.67,1.5c-1.15.13-1.64,1.93-.3,2.21a58.6,58.6,0,0,0,23.56.2c1.42-.28.82-2.45-.6-2.17Z" transform="translate(11.68 5.17)"/><path class="cls-3" d="M961.66,314.58a19.46,19.46,0,0,0-4.63.29l.6,2.17a30.15,30.15,0,0,1,6.79-1.82,1.12,1.12,0,0,0,.78-1.38,1.15,1.15,0,0,0-1.38-.79,13.67,13.67,0,0,0-4.4,1.42,4.74,4.74,0,0,0-1.84,1.34,1.85,1.85,0,0,0,.09,2.34c1.05,1.17,2.72,1,4.09.64a43.46,43.46,0,0,0,4.79-1.73,1.13,1.13,0,0,0-.27-2.05q-5.07-.7-10.09-1.68l-.3,2.21a36.18,36.18,0,0,0,7.19-.82l-.87-2.06a25.21,25.21,0,0,0-4.14,2.71,1.13,1.13,0,0,0,.5,1.88,7.19,7.19,0,0,0,3.74,0,1.13,1.13,0,0,0-.6-2.17,4.8,4.8,0,0,1-2.55,0l.5,1.88a21.55,21.55,0,0,1,3.69-2.35,1.13,1.13,0,0,0-.87-2.06,33.18,33.18,0,0,1-6.59.74c-1.22,0-1.58,2-.3,2.21q5,1,10.09,1.68l-.27-2.06c-1.09.46-2.21.87-3.34,1.22a14,14,0,0,1-1.6.45,2.24,2.24,0,0,1-1-.06s-.14-.08-.13-.09.09.38.1.4.15-.09.23-.14c.51-.28,1-.57,1.54-.8a12,12,0,0,1,3.21-.88l-.6-2.17a30.15,30.15,0,0,0-6.79,1.82,1.13,1.13,0,0,0,.6,2.17,17,17,0,0,1,4-.21,1.13,1.13,0,0,0,0-2.25Z" transform="translate(11.68 5.17)"/><line class="cls-8" x1="1680.39" y1="1.69" x2="1417.66" y2="374.62"/><line class="cls-8" x1="258.03" y1="1.44" x2="520.76" y2="374.38"/><path class="cls-12" d="M460.82,692" transform="translate(11.68 5.17)"/><path class="cls-13" d="M1923.49,579.37q-471.66,7.64-943.34,8.77Q489.55,589.32-1,583.48" transform="translate(11.68 5.17)"/></g><g id="Layer_4" data-name="Layer 4"><path class="cls-14" d="M1341.09,563.5c-18.54,0-30.85-24.08-23.13-45.23l20.23-55.38c4.44-12.14,14.43-19.54,25-18.54l195.62,18.47c8.37.79,15.89,6.71,20.1,15.82L1596,515.56c9.84,21.28-2.39,47.94-22,47.94Z" transform="translate(11.68 5.17)"/><polygon class="cls-15" points="1369.46 453.75 1368.52 452.64 1368.03 451.99 1369.38 452.04 1376.72 452.71 1376.59 452.93 1376.42 453.08 1374.97 454.23 1374.92 454.25 1369.46 453.75"/><path class="cls-15" d="M1357.38,447.34l.27,0,5.58.51.67.06-.19.14-.6.48-2.48-.23-2.63-.24-.38-.46-.24-.29m-1-1.09a.54.54,0,0,0-.44.87l.5.67.9,1.08a.52.52,0,0,0,.39.2l2.8.26,2.65.24h0a.55.55,0,0,0,.35-.12l1.48-1.16.34-.3a.54.54,0,0,0-.33-.95l-1.76-.16-5.58-.51-1.29-.12Z" transform="translate(11.68 5.17)"/><path class="cls-15" d="M1355.32,448.88l.5.27,1.08.49-.66,7.25c-.38.13-.78.27-1.19.43l-.52.22Z" transform="translate(11.68 5.17)"/><path class="cls-15" d="M1355.75,449.66l.62.29-.34,3.75-.26,2.82-.67.25,0-.16.6-6.6,0-.35m-.58-1.36a.32.32,0,0,0-.33.25l-.12,1.37-.6,6.6-.12,1.29a.33.33,0,0,0,.36.31.45.45,0,0,0,.16,0l.71-.3c.45-.18.88-.33,1.29-.47a.28.28,0,0,0,.2-.23l.3-3.3.39-4.27a.28.28,0,0,0-.18-.28l-1.17-.53h0l-.69-.35a.41.41,0,0,0-.19-.05Z" transform="translate(11.68 5.17)"/><path class="cls-15" d="M1354.7,456.1h0l.11-1.27.64-7.06.35.3,1.13,1.4-.22,2.58-.24,2.69-.55.47-.53.43-.64.47Z" transform="translate(11.68 5.17)"/><path class="cls-15" d="M1355.81,448.91l.13.16.46.56-.22,2.36-.22,2.51-.37.29-.33.27v-.2l.18-1.95.31-3.41,0-.59m-.35-1.69a.54.54,0,0,0-.54.5l-.15,1.69-.49,5.36-.11,1.24a.53.53,0,0,0,.53.59.55.55,0,0,0,.32-.1l.65-.49c.36-.28.71-.57,1.06-.86a.49.49,0,0,0,.2-.37l.25-2.7.23-2.54a.55.55,0,0,0-.12-.39l-1.15-1.42-.29-.33a.53.53,0,0,0-.39-.18Z" transform="translate(11.68 5.17)"/><polygon class="cls-15" points="1369.58 453.76 1368.91 453.03 1368.29 452.33 1368.03 451.99 1369.85 452.09 1376.72 452.71 1376.15 453.35 1375.11 454.22 1375.04 454.26 1369.58 453.76"/><path class="cls-15" d="M1357.45,447.35l.67.06,5.58.51.26,0-.34.29-.4.34-2.63-.24-2.48-.23-.66-.75m-1.06-1.1a.55.55,0,0,0-.44.88l.28.35,1.24,1.41a.58.58,0,0,0,.38.19l2.65.25,2.8.25h.06a.53.53,0,0,0,.36-.13l1.08-.9.62-.57a.54.54,0,0,0-.34-.94l-1.29-.12-5.58-.51-1.76-.16Z" transform="translate(11.68 5.17)"/><path class="cls-15" d="M1363.46,468.41l-1.07-.49.66-7.25c.38-.13.77-.28,1.18-.44l.5-.21-.79,8.64Z" transform="translate(11.68 5.17)"/><path class="cls-15" d="M1364.15,460.8v.14l-.6,6.61,0,.33-.43-.19-.16-.08.34-3.75.26-2.83.63-.23m.75-1.36a.4.4,0,0,0-.15,0l-.71.3c-.44.17-.86.33-1.27.47a.26.26,0,0,0-.2.23l-.3,3.3-.39,4.27a.3.3,0,0,0,.18.28l1.15.52h0l.68.36a.39.39,0,0,0,.18,0,.3.3,0,0,0,.33-.25l.13-1.36.6-6.61.11-1.28c0-.18-.16-.31-.35-.31Z" transform="translate(11.68 5.17)"/><path class="cls-15" d="M1363.79,470h0l-.29-.32-1.12-1.39.22-2.53.24-2.67.54-.45.53-.42.63-.46-.07,1.25-.63,7Z" transform="translate(11.68 5.17)"/><path class="cls-15" d="M1364,462.74l0,.17-.48,5.29,0,.55-.09-.11-.46-.57.21-2.33.23-2.47.66-.53m.56-1.55a.54.54,0,0,0-.31.1l-.65.48-1,.85a.52.52,0,0,0-.19.37l-.24,2.66-.23,2.51a.54.54,0,0,0,.11.39l1.14,1.4.28.32a.53.53,0,0,0,.39.18.54.54,0,0,0,.54-.49l.15-1.67L1365,463l.11-1.23a.53.53,0,0,0-.53-.58Z" transform="translate(11.68 5.17)"/><polygon class="cls-15" points="1365.96 475.36 1366.25 474.99 1367.71 473.84 1370.4 474.06 1373.21 474.32 1374.15 475.43 1374.65 476.08 1374.6 476.14 1365.96 475.36"/><path class="cls-15" d="M1356.2,469.16l2.48.23,2.62.24.34.4.29.35-.27,0-2.43-.22-3.15-.28-.67-.06.19-.15.6-.48m-.13-1a.58.58,0,0,0-.36.12l-1.47,1.17-.34.29a.54.54,0,0,0,.33.95l1.76.16,5.58.51,1.29.12h.05a.54.54,0,0,0,.45-.87l-.5-.66-.9-1.09a.59.59,0,0,0-.39-.2l-2.8-.26-2.65-.24Z" transform="translate(11.68 5.17)"/><path class="cls-16" d="M1364.13,459.3l-9-.81c-.3,0-.43-.23-.2-.32l1.19-.46a.58.58,0,0,1,.23,0h.12l6.59.6a.51.51,0,0,1,.22.06l1.09.67C1364.59,459.15,1364.43,459.33,1364.13,459.3Z" transform="translate(11.68 5.17)"/><path class="cls-15" d="M1356.31,457.68a.48.48,0,0,0-.18,0l-1.19.46c-.23.09-.1.29.2.32l9,.81h.06c.26,0,.39-.17.19-.28l-1.09-.67a.51.51,0,0,0-.22-.06l-6.59-.6h-.17Z" transform="translate(11.68 5.17)"/><path class="cls-16" d="M1364.16,459l-9-.82c-.3,0-.47.15-.26.27l1.09.67a.52.52,0,0,0,.23.06h.11l6.59.6a.55.55,0,0,0,.23,0l1.2-.46C1364.58,459.24,1364.46,459,1364.16,459Z" transform="translate(11.68 5.17)"/><path class="cls-15" d="M1355.11,458.19c-.26,0-.39.16-.2.27l1.09.67a.52.52,0,0,0,.23.06h.11l6.59.6h.06a.47.47,0,0,0,.17,0l1.2-.46c.22-.08.1-.29-.2-.31l-9-.82Z" transform="translate(11.68 5.17)"/><polygon class="cls-15" points="1413.37 457.86 1412.91 457.28 1412.47 456.71 1412 456.04 1412.04 455.92 1420.45 456.69 1420.47 456.81 1420.14 457.12 1418.71 458.33 1418.69 458.34 1413.37 457.86"/><path class="cls-15" d="M1401.26,451.33l.31,0,3.68.33,1.76.16.71.07-.87.73-2.38-.21-2.54-.23-.67-.88m-.91-1.08a.57.57,0,0,0-.44.91l.48.69.87,1.12a.54.54,0,0,0,.38.21l2.74.25,2.57.24h0a.56.56,0,0,0,.35-.13l1.45-1.23.33-.31a.57.57,0,0,0-.32-1l-1.71-.15-5.44-.5-1.26-.11Z" transform="translate(11.68 5.17)"/><path class="cls-15" d="M1408.11,462.67c-.36-.24-.71-.47-1-.67l.69-7.62,1.07-.3.53-.17-.83,9Z" transform="translate(11.68 5.17)"/><path class="cls-15" d="M1408.78,454.61l0,.39-.31,3.41-.32,3.48,0,.17-.51-.33.27-3,.36-4,.56-.16m.75-1.27a.23.23,0,0,0-.11,0l-.71.24h0l-1.2.34a.29.29,0,0,0-.22.25l-.41,4.46-.31,3.44a.3.3,0,0,0,.15.28c.37.21.75.45,1.14.71l.62.44a.4.4,0,0,0,.21.07.31.31,0,0,0,.32-.27l.12-1.34.63-6.89.13-1.43a.32.32,0,0,0-.34-.32Z" transform="translate(11.68 5.17)"/><path class="cls-15" d="M1399.3,453l.46.26,1,.51-.69,7.62c-.38.14-.77.29-1.17.46l-.48.21Z" transform="translate(11.68 5.17)"/><path class="cls-15" d="M1399.72,453.79l.32.15.24.11-.36,4-.27,3-.6.24v-.18l.3-3.28.33-3.62,0-.38m-.57-1.4a.33.33,0,0,0-.33.27l-.13,1.42c-.21,2.3-.41,4.6-.62,6.9l-.12,1.34a.32.32,0,0,0,.34.32l.16,0,.69-.32,1.26-.5a.28.28,0,0,0,.2-.24l.32-3.44.4-4.46a.3.3,0,0,0-.18-.29l-1.13-.55h0l-.67-.37a.41.41,0,0,0-.18-.05Z" transform="translate(11.68 5.17)"/><polygon class="cls-15" points="1419.81 465.97 1418.97 464.92 1419.2 462.09 1419.44 459.47 1420.14 458.8 1420.81 458.18 1421.12 457.92 1420.97 459.71 1420.35 466.52 1420.33 466.57 1419.81 465.97"/><path class="cls-15" d="M1408.84,453.94l0,.56-.5,5.52,0,.17-.49-.62L1408,457l.22-2.47.6-.55m.6-1.7a.51.51,0,0,0-.32.12l-.34.28-1.34,1.23a.65.65,0,0,0-.18.38l-.24,2.62-.25,2.78a.59.59,0,0,0,.12.41l.85,1.07.54.6a.47.47,0,0,0,.36.18.55.55,0,0,0,.53-.52l.11-1.28.51-5.52.16-1.75a.53.53,0,0,0-.51-.6Z" transform="translate(11.68 5.17)"/><polygon class="cls-15" points="1410.41 464.37 1411.08 457 1411.26 457.11 1411.4 457.28 1412.49 458.74 1412.26 461.46 1412.01 464.27 1410.94 465.23 1410.32 465.73 1410.41 464.37"/><path class="cls-15" d="M1399.79,453.05l.06.08.46.61-.23,2.5-.24,2.65-.42.37-.21.18,0-.2.26-2.92.25-2.68,0-.59m-.36-1.78a.55.55,0,0,0-.53.52l-.16,1.76-.51,5.6-.11,1.3a.54.54,0,0,0,.51.61.47.47,0,0,0,.31-.11l.64-.51,1.05-.91a.54.54,0,0,0,.19-.39l.26-2.81.24-2.66a.62.62,0,0,0-.11-.4l-1.11-1.48-.28-.34a.49.49,0,0,0-.39-.18Z" transform="translate(11.68 5.17)"/><polygon class="cls-15" points="1413.48 457.87 1412.26 456.39 1412 456.04 1412.04 455.92 1420.45 456.69 1420.47 456.81 1419.87 457.4 1418.83 458.34 1418.8 458.35 1413.48 457.87"/><path class="cls-15" d="M1401.32,451.34l.71.06,1.81.17,3.63.32.31,0-.82.74-2.54-.23-2.38-.21-.72-.88m-1-1.09a.57.57,0,0,0-.43.92l.27.36,1.2,1.47a.52.52,0,0,0,.37.19l2.57.24,2.74.25h0a.54.54,0,0,0,.36-.14c.35-.32.7-.64,1.06-1l.6-.6a.57.57,0,0,0-.33-1l-1.25-.11-5.44-.5-1.72-.15Z" transform="translate(11.68 5.17)"/><path class="cls-15" d="M1398.33,463.63l.43.3c.36.24.72.46,1.07.67l-.7,7.61-1.08.3-.55.18Z" transform="translate(11.68 5.17)"/><path class="cls-15" d="M1398.75,464.52l.55.35-.27,3-.36,4-.6.16,0-.38.3-3.31.32-3.59,0-.18m-.56-1.51a.3.3,0,0,0-.33.26l-.12,1.34-.63,6.9-.13,1.42a.32.32,0,0,0,.34.33l.12,0,.72-.24h0l1.21-.33a.29.29,0,0,0,.23-.25l.4-4.46.32-3.45a.28.28,0,0,0-.16-.27c-.37-.22-.75-.46-1.15-.72-.22-.14-.43-.29-.63-.43a.33.33,0,0,0-.21-.07Z" transform="translate(11.68 5.17)"/><polygon class="cls-15" points="1409.18 477.91 1409.85 470.55 1410.16 470.83 1411.26 472.28 1411.03 475 1410.78 477.81 1410.23 478.33 1409.71 478.78 1409.09 479.27 1409.18 477.91"/><path class="cls-15" d="M1398.56,466.59l.52.69-.23,2.5-.24,2.66,0,0-.59.51,0-.2.26-2.88.25-2.72,0-.59m-.36-1.78a.55.55,0,0,0-.53.52l-.16,1.76-.51,5.6-.12,1.3a.54.54,0,0,0,.52.61.47.47,0,0,0,.31-.11l.64-.51,1.05-.9a.58.58,0,0,0,.19-.39l.26-2.82.24-2.65a.64.64,0,0,0-.11-.41l-1.11-1.48-.29-.33a.47.47,0,0,0-.38-.19Z" transform="translate(11.68 5.17)"/><path class="cls-16" d="M1407.84,463.51l-8.76-.8c-.29,0-.45.16-.25.29l1.06.68a.38.38,0,0,0,.22.07h.11l6.42.59a.8.8,0,0,0,.23,0l1.16-.48C1408.26,463.74,1408.13,463.53,1407.84,463.51Z" transform="translate(11.68 5.17)"/><path class="cls-15" d="M1399,462.71c-.25,0-.38.17-.19.29l1.06.68a.38.38,0,0,0,.22.07h.11l6.42.59h0a.48.48,0,0,0,.18,0l1.16-.48c.23-.1.1-.31-.19-.33l-8.76-.8Z" transform="translate(11.68 5.17)"/><path class="cls-16" d="M1407.81,463.82l-8.76-.8c-.29,0-.42-.24-.19-.33l1.16-.48a.45.45,0,0,1,.23,0h.11l6.42.58a.57.57,0,0,1,.22.07l1.06.69C1408.27,463.66,1408.1,463.84,1407.81,463.82Z" transform="translate(11.68 5.17)"/><path class="cls-15" d="M1400.2,462.18a.48.48,0,0,0-.18,0l-1.16.48c-.23.09-.1.3.19.33l8.76.8h.06c.25,0,.38-.17.19-.29l-1.06-.69a.57.57,0,0,0-.22-.07l-6.42-.58h-.16Z" transform="translate(11.68 5.17)"/><polygon class="cls-16" points="1418.14 478.95 1413.16 471.63 1413.09 470.66 1413.08 470.44 1419.06 479.31 1418.14 478.95"/><path class="cls-15" d="M1401.08,464.29c-.13,0-.24.1-.23.3,0,.61.07,1.23.11,1.85a.53.53,0,0,0,.11.3l.08.12L1406,474a.62.62,0,0,0,.23.2l1.59.64.12,0c.22,0,.3-.31.11-.59l-6.67-9.8a.43.43,0,0,0-.34-.22Z" transform="translate(11.68 5.17)"/><polygon class="cls-16" points="1413.42 470.17 1414.34 470.54 1414.43 470.68 1419.32 477.86 1419.39 478.94 1413.42 470.17"/><path class="cls-15" d="M1401.13,464.24c-.22,0-.3.31-.11.6l6.67,9.79a.43.43,0,0,0,.34.22c.13,0,.24-.1.23-.29,0-.62-.07-1.24-.11-1.85a.5.5,0,0,0-.11-.3l-4.88-7.18-.09-.13a.62.62,0,0,0-.23-.2l-1.59-.63-.12,0Z" transform="translate(11.68 5.17)"/><path class="cls-15" d="M1372.73,449.93l-.83-.87-.23-.26-.53-.65s0,0,.08,0l9.27.84c.08,0,.1.05.1.06l-.37.3-1.56,1.14-.08,0Z" transform="translate(11.68 5.17)"/><path class="cls-15" d="M1372.24,448.69l.34,0,.18,0,5.8.53.76.07,0,0-.79.58-2.7-.25-2.87-.26-.34-.39-.33-.37m-1-1.09a.54.54,0,0,0-.47.87c.19.22.37.44.55.67l1,1.09a.62.62,0,0,0,.41.2l3,.28,2.83.25h.06a.71.71,0,0,0,.38-.12l1.57-1.16.36-.29a.55.55,0,0,0-.36-1l-1.88-.17-6-.54-1.38-.13Z" transform="translate(11.68 5.17)"/><path class="cls-15" d="M1370.06,450.2l.59.3,1.18.5-.66,7.23-1.29.44-.61.23Z" transform="translate(11.68 5.17)"/><path class="cls-15" d="M1370.49,451h0l.32.14.48.2-.34,3.74-.26,2.8-.86.29V458l.61-6.6,0-.38m-.56-1.33a.33.33,0,0,0-.35.25l-.12,1.37-.6,6.6-.12,1.28c0,.18.18.32.39.32l.17,0c.24-.1.49-.2.76-.29.47-.18.93-.33,1.38-.47a.26.26,0,0,0,.21-.22l.3-3.3.39-4.28a.3.3,0,0,0-.2-.28l-1.25-.53h0l-.73-.36a.54.54,0,0,0-.21-.05Z" transform="translate(11.68 5.17)"/><path class="cls-15" d="M1369.49,457.45a.12.12,0,0,1-.08,0l.13-1.49.62-6.83h.14l.31.33,1.22,1.41-.22,2.57-.25,2.69-1.14.87-.68.47Z" transform="translate(11.68 5.17)"/><path class="cls-15" d="M1370.57,450.14l.22.25.53.62-.21,2.34-.22,2.48-.07.05-.83.63,0-.31.49-5.36.07-.7m-.34-1.57a.55.55,0,0,0-.57.49l-.15,1.69-.49,5.36-.11,1.24a.56.56,0,0,0,.58.6.52.52,0,0,0,.33-.11l.7-.48,1.13-.85a.52.52,0,0,0,.21-.37l.25-2.7.23-2.54a.56.56,0,0,0-.13-.39l-1.24-1.43-.31-.33a.57.57,0,0,0-.43-.18Z" transform="translate(11.68 5.17)"/><path class="cls-15" d="M1372.86,450l-1.43-1.46-.29-.34.1,0,9.25.84c.08,0,.1.05.1.06l-.67.57-1.13.88-.08,0Z" transform="translate(11.68 5.17)"/><path class="cls-15" d="M1372.32,448.7l.76.07,6,.54.34,0-.8.63-2.86-.26-2.71-.25-.71-.76m-1.1-1.1a.54.54,0,0,0-.46.88l.31.35,1.33,1.42a.63.63,0,0,0,.41.19l2.84.26,3,.27h.06a.68.68,0,0,0,.39-.13l1.15-.9.65-.56a.55.55,0,0,0-.37-.95l-1.38-.12-6-.55-1.88-.17Z" transform="translate(11.68 5.17)"/><path class="cls-15" d="M1369.13,460.39l.57.34c.4.24.8.46,1.18.66l-.65,7.23-1.21.28-.68.19Z" transform="translate(11.68 5.17)"/><path class="cls-15" d="M1369.56,461.23l.79.45-.25,2.8-.34,3.73-.85.2h0l0-.37.6-6.61,0-.2m-.55-1.42a.32.32,0,0,0-.35.25l-.12,1.28-.6,6.61-.12,1.36c0,.17.17.32.38.32l.13,0,.79-.22h0l1.32-.3a.29.29,0,0,0,.25-.24l.39-4.27.3-3.3a.3.3,0,0,0-.18-.26c-.41-.22-.83-.45-1.27-.71l-.7-.42a.42.42,0,0,0-.24-.07Z" transform="translate(11.68 5.17)"/><path class="cls-15" d="M1368.31,470.42a.19.19,0,0,1-.08,0l.13-1.49.62-6.83h.14l.31.32,1.22,1.42-.22,2.56-.25,2.69-1.14.88-.68.46Z" transform="translate(11.68 5.17)"/><path class="cls-15" d="M1369.39,463.11l.75.87-.21,2.34-.22,2.49-.45.33-.45.34,0-.31.31-3.41.17-1.95.07-.7m-.34-1.57a.56.56,0,0,0-.57.49l-.15,1.69-.49,5.36-.11,1.24a.56.56,0,0,0,.58.6.58.58,0,0,0,.33-.1l.7-.48,1.13-.86a.51.51,0,0,0,.21-.37l.25-2.7.23-2.54a.52.52,0,0,0-.13-.39l-1.24-1.43-.31-.33a.61.61,0,0,0-.43-.18Z" transform="translate(11.68 5.17)"/><path class="cls-15" d="M1369.11,471.53c-.08,0-.1,0-.1-.06l.38-.3,1.55-1.14,2.93.24,3,.27.58.59.48.54.53.65-.08.06Z" transform="translate(11.68 5.17)"/><path class="cls-15" d="M1371.12,470.52l2.7.25,2.87.26.46.51.21.24-.34,0-3-.27-3-.27-.76-.07.84-.62m-.1-1a.64.64,0,0,0-.38.12l-1.57,1.15-.36.3a.54.54,0,0,0,.36.95l1.88.17,6,.55,1.38.12h.07a.53.53,0,0,0,.47-.86l-.55-.67-1-1.09a.68.68,0,0,0-.42-.21l-3-.27-2.83-.26Z" transform="translate(11.68 5.17)"/><polygon class="cls-15" points="1398.11 456.35 1397.61 455.79 1397.16 455.24 1396.67 454.59 1398.02 454.65 1405.36 455.31 1405.23 455.54 1405.07 455.68 1403.61 456.83 1403.56 456.85 1398.11 456.35"/><path class="cls-15" d="M1386,450l.27,0,5.58.51.67.06-.19.15-.6.47-2.48-.22-2.63-.24L1386,450m-1-1.1a.54.54,0,0,0-.44.87l.5.67.9,1.08a.58.58,0,0,0,.39.21l2.8.25,2.65.24h.05a.55.55,0,0,0,.35-.12l1.48-1.16.34-.3a.55.55,0,0,0-.33-.95l-1.76-.16-5.58-.51-1.29-.11Z" transform="translate(11.68 5.17)"/><path class="cls-15" d="M1393.06,460.78c-.37-.23-.73-.45-1.08-.64l.65-7.25,1.15-.3.51-.16-.78,8.64Z" transform="translate(11.68 5.17)"/><path class="cls-15" d="M1393.73,453.12l0,.34-.6,6.6v.15l-.59-.35.26-2.82.34-3.76.14,0,.49-.13m.74-1.25-.12,0-.73.23h0l-1.23.31a.3.3,0,0,0-.23.24l-.39,4.28-.3,3.3a.29.29,0,0,0,.16.26q.57.32,1.17.69l.64.42a.36.36,0,0,0,.22.07.32.32,0,0,0,.33-.25l.11-1.28.6-6.61.13-1.36a.33.33,0,0,0-.35-.32Z" transform="translate(11.68 5.17)"/><path class="cls-15" d="M1384,451.48l.5.27,1.08.49-.66,7.25c-.38.13-.78.27-1.19.44l-.52.21Z" transform="translate(11.68 5.17)"/><path class="cls-15" d="M1384.39,452.27l.48.22.14.06-.34,3.75-.26,2.82-.67.25,0-.15.6-6.61,0-.34m-.57-1.36a.3.3,0,0,0-.33.25l-.13,1.36-.6,6.61-.12,1.28a.34.34,0,0,0,.36.31.45.45,0,0,0,.16,0l.71-.3,1.29-.47a.28.28,0,0,0,.21-.23l.3-3.3.38-4.27a.3.3,0,0,0-.18-.28l-1.16-.53h0L1384,451a.39.39,0,0,0-.18,0Z" transform="translate(11.68 5.17)"/><path class="cls-15" d="M1393.61,459.58h0l-.55-.59-.87-1,.24-2.69.23-2.51.54-.48.83-.72.33-.25-.11,1.7-.59,6.52Z" transform="translate(11.68 5.17)"/><path class="cls-15" d="M1393.79,452.44l0,.54-.2,2.23-.28,3.07v.17l-.23-.27-.33-.38.23-2.47.21-2.32.59-.51.07-.06m.57-1.62a.5.5,0,0,0-.32.11l-.34.27-1.37,1.17a.54.54,0,0,0-.18.36l-.23,2.51-.24,2.66a.52.52,0,0,0,.12.4c.3.34.59.68.88,1,.19.19.37.39.55.58a.51.51,0,0,0,.38.17.54.54,0,0,0,.54-.49l.11-1.22.48-5.3.15-1.67a.53.53,0,0,0-.53-.58Z" transform="translate(11.68 5.17)"/><path class="cls-15" d="M1383.34,458.71l0,0,.11-1.27.64-7.05.17.09.18.2,1.13,1.41-.22,2.57-.24,2.7-1.08.89-.64.47Z" transform="translate(11.68 5.17)"/><path class="cls-15" d="M1384.46,451.52l.58.72-.22,2.36-.22,2.5-.09.07-.61.5,0-.21.24-2.68.24-2.68.06-.58m-.36-1.69a.54.54,0,0,0-.54.49l-.15,1.69-.49,5.36-.11,1.25a.54.54,0,0,0,.53.59.56.56,0,0,0,.32-.11l.65-.48,1.07-.86a.62.62,0,0,0,.2-.38l.24-2.69.23-2.55a.55.55,0,0,0-.12-.39l-1.14-1.42-.29-.32a.53.53,0,0,0-.4-.18Z" transform="translate(11.68 5.17)"/><polygon class="cls-15" points="1398.22 456.36 1397.55 455.63 1396.94 454.93 1396.67 454.6 1398.49 454.69 1405.36 455.31 1404.79 455.95 1403.73 456.84 1403.68 456.86 1398.22 456.36"/><path class="cls-15" d="M1386.09,450l.67.06,5.58.51.27,0-.35.29-.4.34-2.63-.24-2.48-.22-.66-.76m-1.06-1.1a.54.54,0,0,0-.43.88l.28.36,1.24,1.41a.58.58,0,0,0,.38.19l2.64.24,2.81.25h0a.59.59,0,0,0,.37-.14l1.07-.9.62-.57a.55.55,0,0,0-.34-.94l-1.29-.12-5.58-.5-1.76-.16Z" transform="translate(11.68 5.17)"/><path class="cls-15" d="M1392.1,471l-1.07-.49.66-7.25c.38-.13.77-.27,1.18-.44l.5-.21-.79,8.65Z" transform="translate(11.68 5.17)"/><path class="cls-15" d="M1392.8,463.4l0,.14-.28,3.16-.32,3.45,0,.34-.05,0-.54-.25.34-3.75.26-2.82.64-.24m.74-1.36-.15,0-.71.3c-.44.18-.86.33-1.27.47a.28.28,0,0,0-.2.23l-.3,3.3-.39,4.27a.29.29,0,0,0,.18.28l1.15.53h0l.67.35a.41.41,0,0,0,.19,0,.3.3,0,0,0,.32-.25l.13-1.36.6-6.61.12-1.28a.33.33,0,0,0-.36-.31Z" transform="translate(11.68 5.17)"/><path class="cls-15" d="M1383,461.67c.14.1.3.21.47.31.38.24.74.45,1.1.65l-.66,7.25-1.11.27-.58.18Z" transform="translate(11.68 5.17)"/><path class="cls-15" d="M1383.45,462.54l.62.37-.26,2.82-.34,3.75-.14,0-.52.13,0-.34.31-3.4.29-3.21v-.15m-.56-1.47a.32.32,0,0,0-.33.25l-.12,1.28-.6,6.61-.12,1.36c0,.18.16.32.36.32l.11,0,.74-.23h0l1.24-.31a.29.29,0,0,0,.23-.24l.39-4.27.3-3.3a.28.28,0,0,0-.16-.27c-.38-.21-.78-.44-1.18-.69-.23-.14-.45-.28-.65-.42a.39.39,0,0,0-.23-.07Z" transform="translate(11.68 5.17)"/><path class="cls-15" d="M1392.43,472.55h0l-.29-.32-1.11-1.38.22-2.54.24-2.66,1.06-.88.63-.46-.07,1.26-.63,7Z" transform="translate(11.68 5.17)"/><path class="cls-15" d="M1392.62,465.34l0,.17-.48,5.3,0,.54,0,0-.52-.64.21-2.33.23-2.46.37-.3.29-.24m.56-1.55a.49.49,0,0,0-.31.11l-.64.47-1,.85a.51.51,0,0,0-.2.37l-.24,2.66-.23,2.51a.55.55,0,0,0,.12.39c.37.47.75.93,1.13,1.4.09.11.19.22.29.32a.48.48,0,0,0,.38.18.53.53,0,0,0,.54-.49l.15-1.66.48-5.3.11-1.22a.54.54,0,0,0-.53-.59Z" transform="translate(11.68 5.17)"/><path class="cls-15" d="M1382.16,471.68l0,0,.11-1.27.64-7.05.15.07.21.23,1.12,1.4-.22,2.57-.24,2.7-1.06.88-.66.48Z" transform="translate(11.68 5.17)"/><path class="cls-15" d="M1383.28,464.49l.17.21.41.51-.21,2.36-.23,2.5-.7.57,0-.2.24-2.69.24-2.68.06-.58m-.36-1.69a.54.54,0,0,0-.54.49l-.15,1.69-.49,5.37-.11,1.24a.54.54,0,0,0,.53.59.5.5,0,0,0,.32-.11l.65-.48,1.07-.86a.59.59,0,0,0,.2-.37l.24-2.7.23-2.54a.5.5,0,0,0-.12-.39l-1.14-1.43-.29-.32a.51.51,0,0,0-.4-.18Z" transform="translate(11.68 5.17)"/><polygon class="cls-15" points="1394.6 477.96 1394.8 477.67 1394.89 477.59 1396.35 476.44 1399.05 476.67 1401.85 476.92 1402.35 477.49 1402.8 478.03 1403.29 478.68 1403.24 478.75 1394.6 477.96"/><path class="cls-15" d="M1384.84,471.77l2.48.22,2.63.24.33.4.29.35-.27,0-4.13-.38-1.45-.13-.67-.06.19-.15.6-.47m-.13-1a.56.56,0,0,0-.35.13c-.5.38-1,.77-1.48,1.16l-.34.29a.55.55,0,0,0,.33,1l1.76.16,5.58.5,1.29.12h.06a.54.54,0,0,0,.44-.87l-.5-.66-.9-1.09a.55.55,0,0,0-.39-.2l-2.8-.25-2.65-.24Z" transform="translate(11.68 5.17)"/><path class="cls-15" d="M1416.64,453.92l-.57-.58-.49-.55-.53-.65.1-.05,9.25.84c.08,0,.1.05.1.06l-.37.3-1.56,1.14-.07,0Z" transform="translate(11.68 5.17)"/><path class="cls-15" d="M1416.15,452.68l.34,0,6,.54.76.07-.21.16-.63.46-2.7-.25-2.87-.26-.39-.45-.28-.31m-1-1.09a.54.54,0,0,0-.47.87c.19.22.37.44.55.67l1,1.09a.62.62,0,0,0,.42.2l3,.28,2.83.25h.07a.71.71,0,0,0,.37-.12l1.57-1.16.36-.29a.55.55,0,0,0-.36-1l-1.88-.17-6-.54-1.38-.13Z" transform="translate(11.68 5.17)"/><path class="cls-15" d="M1414,454.19l.59.3,1.18.5-.66,7.23c-.41.13-.84.28-1.28.44-.22.07-.42.15-.62.23Z" transform="translate(11.68 5.17)"/><path class="cls-15" d="M1414.4,455h0l.59.25.21.09-.34,3.74-.26,2.8-.86.29,0-.2.6-6.6,0-.38m-.56-1.33a.33.33,0,0,0-.35.25l-.12,1.37-.6,6.6-.12,1.29c0,.17.18.31.39.31l.17,0c.24-.1.49-.2.76-.29.47-.18.93-.33,1.38-.47a.26.26,0,0,0,.21-.22l.3-3.3.39-4.28a.3.3,0,0,0-.2-.28l-1.25-.53h0l-.73-.36a.54.54,0,0,0-.21-.05Z" transform="translate(11.68 5.17)"/><path class="cls-15" d="M1413.4,461.44a.12.12,0,0,1-.08,0l.11-1.26.64-7.06h.14l.31.33,1.22,1.41-.22,2.57-.25,2.69-.58.45-.56.42-.68.47Z" transform="translate(11.68 5.17)"/><path class="cls-15" d="M1414.48,454.13l.39.45.36.42-.21,2.34-.22,2.48-.07.05-.83.63,0-.31.49-5.36.07-.7m-.34-1.57a.55.55,0,0,0-.57.49l-.15,1.69-.49,5.36-.11,1.24a.56.56,0,0,0,.58.6.52.52,0,0,0,.33-.11l.7-.48,1.13-.85a.52.52,0,0,0,.21-.37l.25-2.7.23-2.54a.56.56,0,0,0-.13-.39l-1.24-1.43-.31-.33a.57.57,0,0,0-.43-.18Z" transform="translate(11.68 5.17)"/><path class="cls-15" d="M1416.77,453.94l-1.43-1.46-.29-.34.1-.05,9.25.84c.08,0,.1.05.1.06l-.67.57-1.13.88-.08,0Z" transform="translate(11.68 5.17)"/><path class="cls-15" d="M1416.23,452.69l.76.07,6,.54.34,0-.34.27-.46.36-2.86-.26-2.71-.25-.57-.6-.14-.16m-1.1-1.1a.54.54,0,0,0-.46.88l.31.35,1.33,1.42a.63.63,0,0,0,.41.19l2.84.26,3,.28h.06a.68.68,0,0,0,.39-.13l1.15-.9.65-.56a.55.55,0,0,0-.37-.95l-1.38-.12-6-.55-1.88-.17Z" transform="translate(11.68 5.17)"/><path class="cls-15" d="M1413,464.38l.57.34c.4.24.8.46,1.18.66l-.65,7.23-1.21.28-.68.19Z" transform="translate(11.68 5.17)"/><path class="cls-15" d="M1413.47,465.22l.79.45-.25,2.8-.34,3.74-.18,0-.67.15h0l0-.37.6-6.61,0-.2m-.55-1.42a.32.32,0,0,0-.35.25l-.12,1.28-.6,6.61-.12,1.36c0,.17.17.32.38.32l.13,0,.79-.22h0l1.32-.3a.29.29,0,0,0,.25-.24l.39-4.27.3-3.3a.28.28,0,0,0-.17-.26c-.42-.22-.84-.45-1.28-.71l-.7-.42a.42.42,0,0,0-.24-.07Z" transform="translate(11.68 5.17)"/><path class="cls-15" d="M1412.22,474.41a.19.19,0,0,1-.08,0l.11-1.26.64-7.06h.14l.31.32,1.22,1.42-.22,2.56-.24,2.69-.59.45-.56.43-.68.46Z" transform="translate(11.68 5.17)"/><path class="cls-15" d="M1413.3,467.1l.76.87-.22,2.34-.22,2.49-.45.33-.45.35,0-.32.3-3.3.18-2.06.07-.7m-.34-1.57a.56.56,0,0,0-.57.49l-.15,1.69-.49,5.36-.11,1.24a.56.56,0,0,0,.58.6.58.58,0,0,0,.33-.1l.7-.48,1.13-.86a.51.51,0,0,0,.21-.37l.25-2.7.23-2.54a.52.52,0,0,0-.13-.39L1413.7,466l-.31-.33a.61.61,0,0,0-.43-.18Z" transform="translate(11.68 5.17)"/><path class="cls-15" d="M1413,475.52c-.08,0-.1,0-.1-.06l.38-.3,1.55-1.14,2.93.24,3,.27,1.06,1.13.53.65-.08.06Z" transform="translate(11.68 5.17)"/><path class="cls-15" d="M1415,474.51l2.7.25,2.87.26.4.44.27.31-.34,0-3-.27-3-.27-.76-.07.84-.62m-.1-1a.64.64,0,0,0-.38.12l-1.57,1.15-.36.3a.54.54,0,0,0,.36.95l1.88.17,6,.55,1.38.12h.07a.54.54,0,0,0,.47-.87c-.18-.22-.36-.45-.55-.67l-1-1.09a.68.68,0,0,0-.42-.21l-3-.27-2.83-.26Z" transform="translate(11.68 5.17)"/><path class="cls-16" d="M1423.53,464.4l-9.63-.87c-.32,0-.49.14-.27.27l1.17.67a.61.61,0,0,0,.24.07h.13l7.06.64a.67.67,0,0,0,.25,0l1.27-.45C1424,464.63,1423.86,464.43,1423.53,464.4Z" transform="translate(11.68 5.17)"/><path class="cls-15" d="M1413.83,463.52c-.27,0-.41.16-.2.28l1.17.67a.61.61,0,0,0,.24.07h.13l7.06.64h.06a.55.55,0,0,0,.19,0l1.27-.45c.24-.09.11-.29-.22-.32l-9.63-.87Z" transform="translate(11.68 5.17)"/><path class="cls-16" d="M1423.51,464.7l-9.63-.88c-.33,0-.46-.23-.22-.32l1.27-.44a.51.51,0,0,1,.25,0h.13l7.06.65a.61.61,0,0,1,.24.06l1.17.67C1424,464.55,1423.83,464.73,1423.51,464.7Z" transform="translate(11.68 5.17)"/><path class="cls-15" d="M1415.12,463a.58.58,0,0,0-.19,0l-1.27.44c-.24.09-.11.29.22.32l9.63.88h.07c.27,0,.41-.16.2-.28l-1.17-.67a.61.61,0,0,0-.24-.06l-7.06-.65h-.19Z" transform="translate(11.68 5.17)"/><path class="cls-17" d="M1427.58,487.73a1.19,1.19,0,0,1-.85-.37l-2.89-3-1.63-1.82a1,1,0,0,1-.18-1.13,1.17,1.17,0,0,1,1.08-.67l25.83.54a1.15,1.15,0,0,1,1.08.72,1,1,0,0,1-.25,1.13l-.94.93-4.12,3.68a1.2,1.2,0,0,1-.82.3Z" transform="translate(11.68 5.17)"/><path class="cls-17" d="M1423.11,480.26l0,1,3.87.08,16.68.35,5.25.11a.66.66,0,0,1,.63.4.52.52,0,0,1-.14.59l-.91.9-2.07,1.85-2.06,1.85a.78.78,0,0,1-.5.17h0l-7.91-.16-8.38-.17a.75.75,0,0,1-.5-.22l-.95-1-1.92-2-.71-.8-.92-1a.52.52,0,0,1-.1-.58.65.65,0,0,1,.62-.38v-1m0,0a1.59,1.59,0,0,0-1.27,2.63l1.64,1.84c1,1,1.92,2,2.89,3a1.72,1.72,0,0,0,1.2.52l8.38.17,7.91.16h0a1.7,1.7,0,0,0,1.14-.43l4.14-3.69.94-.93a1.59,1.59,0,0,0-1.17-2.71l-5.25-.11-16.68-.35-3.87-.08Z" transform="translate(11.68 5.17)"/><path class="cls-17" d="M1451.17,515.46a.69.69,0,0,1-.34-.09c-.63-.36-1.3-.73-2-1.1-1.18-.62-2.4-1.23-3.64-1.8-.14-.06-.23-.16-.23-.26l.47-22.24c0-.11.12-.23.28-.28l3.57-1.16,2.19-.83a.74.74,0,0,1,.25-.05.65.65,0,0,1,.45.17.23.23,0,0,1,.08.17l-.57,27.16c0,.17-.24.31-.51.31Z" transform="translate(11.68 5.17)"/><path class="cls-17" d="M1451.72,488.15h0l-.08,3.83-.2,9.72-.2,9.67-.08,3.59h0a.16.16,0,0,1-.09,0q-1-.57-2-1.11c-1.17-.62-2.38-1.22-3.6-1.78l.2-9.52.25-12.38,3.51-1.14.11,0,2.11-.8.07,0m0-1a1.35,1.35,0,0,0-.43.08l-2.11.81,0,0-3.57,1.15a.84.84,0,0,0-.63.75l-.26,12.55-.2,9.69a.81.81,0,0,0,.51.73c1.17.53,2.38,1.13,3.62,1.78.69.37,1.35.73,2,1.1a1.22,1.22,0,0,0,.58.15.93.93,0,0,0,1-.8l.08-3.76q.2-9.7.4-19.4l.09-4a.94.94,0,0,0-1-.85Z" transform="translate(11.68 5.17)"/><path class="cls-17" d="M1419.34,514.8a.68.68,0,0,1-.46-.17.22.22,0,0,1-.08-.16l.57-27.17c0-.16.25-.31.51-.31a.72.72,0,0,1,.29.06l2.11.89,3.64,1.34c.16.06.28.18.28.29l-.47,22.24c0,.09-.09.19-.24.25-1.27.52-2.53,1.07-3.76,1.65-.72.34-1.41.68-2.07,1A.72.72,0,0,1,1419.34,514.8Z" transform="translate(11.68 5.17)"/><path class="cls-17" d="M1419.88,487.49l.1,0,2.1.89.1,0,1.85.68,1.66.61-.25,12.38-.2,9.52c-1.26.51-2.51,1-3.72,1.63-.7.33-1.4.67-2.09,1a.16.16,0,0,1-.09,0h0l.07-3.59.2-9.7.2-9.69.08-3.83h0m0-1a.93.93,0,0,0-1,.8l-.09,4q-.19,9.69-.4,19.39l-.08,3.77a1,1,0,0,0,1,.84,1.23,1.23,0,0,0,.55-.13c.66-.34,1.34-.67,2-1,1.29-.61,2.54-1.15,3.74-1.63a.8.8,0,0,0,.55-.71l.21-9.69.26-12.55a.85.85,0,0,0-.61-.77l-3.56-1.31-.06,0-2.1-.89a1.23,1.23,0,0,0-.49-.1Z" transform="translate(11.68 5.17)"/><path class="cls-17" d="M1450.71,510.78a1.06,1.06,0,0,1-.73-.29l-1.75-1.6-2.81-2.79a1.09,1.09,0,0,1-.31-.78l.31-15.18a1.06,1.06,0,0,1,.33-.74l3.81-3.7.94-.83a1.05,1.05,0,0,1,.71-.27,1.13,1.13,0,0,1,.79.33,1,1,0,0,1,.29.76l-.5,24a1.07,1.07,0,0,1-1.08,1Z" transform="translate(11.68 5.17)"/><path class="cls-17" d="M1451.21,485.1a.62.62,0,0,1,.43.18.49.49,0,0,1,.15.4l-.1,4.9-.18,8.56-.14,7-.08,3.6a.58.58,0,0,1-.58.56.57.57,0,0,1-.39-.16l-.72-.66-1-.91-1.41-1.4-1.42-1.41a.6.6,0,0,1-.16-.41l.16-7.81.15-7.37a.63.63,0,0,1,.17-.39l1.53-1.48,2.25-2.19,1-.84a.55.55,0,0,1,.38-.15m0-1a1.53,1.53,0,0,0-1,.4l-1,.84-3.81,3.71a1.52,1.52,0,0,0-.48,1.08l-.15,7.37-.16,7.81a1.56,1.56,0,0,0,.46,1.14l2.83,2.81,1.75,1.6a1.54,1.54,0,0,0,1.06.42,1.57,1.57,0,0,0,1.58-1.54l.08-3.6.32-15.54.1-4.9a1.57,1.57,0,0,0-1.58-1.6Z" transform="translate(11.68 5.17)"/><path class="cls-17" d="M1420,510.31a1.13,1.13,0,0,1-.81-.34,1,1,0,0,1-.3-.77l.51-24.35a1.09,1.09,0,0,1,1.11-1.07,1.11,1.11,0,0,1,.75.31l.93.9,3.69,3.89a1.09,1.09,0,0,1,.3.76l-.32,15.38a1.1,1.1,0,0,1-.36.78l-3,2.72-1.82,1.53A1.08,1.08,0,0,1,1420,510.31Z" transform="translate(11.68 5.17)"/><path class="cls-17" d="M1420.53,484.28h0a.56.56,0,0,1,.4.17l.37.36.53.5,2.81,3,.9,1a.64.64,0,0,1,.16.41l-.16,7.47-.16,7.91a.65.65,0,0,1-.19.42l-1.23,1.12-1.72,1.58-.92.77-.92.77a.56.56,0,0,1-.38.14.62.62,0,0,1-.45-.19.54.54,0,0,1-.16-.41l.08-3.64.32-15.65v-.1l.11-5a.6.6,0,0,1,.61-.58m0-1a1.59,1.59,0,0,0-1.61,1.56l-.11,5q-.15,7.88-.32,15.75l-.08,3.64a1.59,1.59,0,0,0,1.61,1.62,1.57,1.57,0,0,0,1-.37l1.84-1.55,3-2.72a1.58,1.58,0,0,0,.52-1.13l.16-7.92.16-7.47a1.59,1.59,0,0,0-.44-1.11c-1.23-1.31-2.47-2.61-3.7-3.91l-.93-.9a1.59,1.59,0,0,0-1.1-.45Z" transform="translate(11.68 5.17)"/><path class="cls-17" d="M1427.93,487.73a1.16,1.16,0,0,1-.83-.34l-4-3.86-.87-.93a1,1,0,0,1-.22-1.15,1.14,1.14,0,0,1,1.09-.69l25.82.54a1.16,1.16,0,0,1,1.08.71,1,1,0,0,1-.23,1.12l-1.71,1.77-3,2.84a1.23,1.23,0,0,1-.84.33Z" transform="translate(11.68 5.17)"/><path class="cls-17" d="M1423.11,480.26l0,1,5.26.11,16.41.34h.27l3.86.08a.66.66,0,0,1,.63.4.52.52,0,0,1-.13.58l-1.68,1.74-1.5,1.43-1.51,1.43a.75.75,0,0,1-.51.19h0l-8.38-.17-7.91-.17a.68.68,0,0,1-.49-.2l-1.85-1.79-2.1-2-.9-1a.5.5,0,0,1-.11-.59.65.65,0,0,1,.62-.38v-1m0,0a1.59,1.59,0,0,0-1.24,2.66l.9,1,4,3.86a1.74,1.74,0,0,0,1.17.48l7.91.17,8.38.17h0a1.74,1.74,0,0,0,1.18-.46l3-2.86,1.71-1.77a1.59,1.59,0,0,0-1.2-2.68l-3.86-.08-16.68-.35-5.26-.11Z" transform="translate(11.68 5.17)"/><path class="cls-17" d="M1450.55,545.31a.63.63,0,0,1-.27-.06l-2.08-.89-3.6-1.34c-.16-.06-.27-.18-.27-.29l.46-22.24c0-.1.1-.2.24-.25,1.26-.52,2.51-1.07,3.72-1.65l2-1a.72.72,0,0,1,.76.09.21.21,0,0,1,.07.17l-.56,27.16C1451.06,545.16,1450.82,545.31,1450.55,545.31Z" transform="translate(11.68 5.17)"/><path class="cls-17" d="M1451.1,518h0l-.07,3.59-.2,9.34-.21,10.05-.08,3.83h0l-.08,0-2.07-.89-.1,0-3.47-1.29.26-12.38.2-9.52c1.24-.51,2.47-1.06,3.67-1.63.69-.33,1.38-.67,2.06-1a.13.13,0,0,1,.08,0m0-1a1.16,1.16,0,0,0-.54.13c-.65.34-1.33.67-2,1-1.27.6-2.51,1.15-3.69,1.63a.83.83,0,0,0-.55.71l-.2,9.69-.26,12.55a.84.84,0,0,0,.6.77l3.52,1.3,0,0,2.08.89a1.14,1.14,0,0,0,.47.1.93.93,0,0,0,1-.8l.08-4q.21-9.69.41-19.39l.07-3.77a.93.93,0,0,0-1-.84Z" transform="translate(11.68 5.17)"/><path class="cls-17" d="M1418.72,544.64a.64.64,0,0,1-.46-.17.22.22,0,0,1-.08-.16l.57-27.16c0-.17.24-.31.51-.31a.68.68,0,0,1,.35.09l2,1.1c1.21.63,2.45,1.23,3.69,1.8.15.06.23.16.23.26l-.46,22.24c0,.11-.12.22-.29.28l-3.62,1.15-2.22.84a.69.69,0,0,1-.25,0Z" transform="translate(11.68 5.17)"/><path class="cls-17" d="M1419.26,517.34a.23.23,0,0,1,.11,0q1,.57,2,1.11c1.18.62,2.41,1.22,3.65,1.78l-.2,9.52-.26,12.38-1.75.56-1.81.58-.1,0-2.14.81h-.12l.08-3.82,0-1.14.38-18.26.07-3.58h0m0-1a.93.93,0,0,0-1,.8l-.08,3.76q-.21,9.71-.41,19.4l-.08,4a1,1,0,0,0,1,.84,1.29,1.29,0,0,0,.43-.07l2.14-.81.06,0,3.61-1.16a.84.84,0,0,0,.64-.74l.26-12.55.2-9.69a.8.8,0,0,0-.52-.73c-1.18-.53-2.41-1.13-3.67-1.79-.7-.36-1.37-.73-2-1.09a1.16,1.16,0,0,0-.6-.15Z" transform="translate(11.68 5.17)"/><path class="cls-17" d="M1449.91,548.86a1.05,1.05,0,0,1-.74-.3l-.92-.88-3.64-3.85a1.08,1.08,0,0,1-.29-.75l.32-15.18a1.05,1.05,0,0,1,.34-.76l3-2.69,1.8-1.51a1,1,0,0,1,.68-.25,1.14,1.14,0,0,1,.8.33,1,1,0,0,1,.29.76l-.5,24A1.07,1.07,0,0,1,1449.91,548.86Z" transform="translate(11.68 5.17)"/><path class="cls-17" d="M1450.41,523.19a.6.6,0,0,1,.44.18.55.55,0,0,1,.15.4l-.07,3.59-.33,15.55-.1,4.9a.57.57,0,0,1-.59.55.54.54,0,0,1-.39-.16l-.34-.33-.55-.52-.54-.58-3.11-3.28a.55.55,0,0,1-.16-.4l.16-7.37.16-7.81a.55.55,0,0,1,.18-.4l2.91-2.66,1.82-1.53a.55.55,0,0,1,.36-.13m0-1a1.56,1.56,0,0,0-1,.37l-1.81,1.52-2.94,2.69a1.55,1.55,0,0,0-.51,1.12l-.16,7.81-.16,7.37a1.58,1.58,0,0,0,.43,1.11l3.66,3.86.92.88a1.58,1.58,0,0,0,2.67-1.09l.1-4.9.33-15.54.07-3.6a1.57,1.57,0,0,0-1.59-1.6Z" transform="translate(11.68 5.17)"/><path class="cls-17" d="M1419.23,548.4a1.11,1.11,0,0,1-.81-.34,1,1,0,0,1-.3-.77l.5-24.35a1.1,1.1,0,0,1,1.11-1.07,1.07,1.07,0,0,1,.76.31l.93.89,3.69,3.9a1.08,1.08,0,0,1,.29.76l-.32,15.38a1.07,1.07,0,0,1-.35.78l-3,2.72-1.82,1.53A1.1,1.1,0,0,1,1419.23,548.4Z" transform="translate(11.68 5.17)"/><path class="cls-17" d="M1419.73,522.37h0a.58.58,0,0,1,.41.17l.9.86,1.85,2,1.85,2a.53.53,0,0,1,.16.41l-.15,7.47-.17,7.91a.57.57,0,0,1-.19.42l-2.94,2.69-.92.77-.92.78a.64.64,0,0,1-.38.14.62.62,0,0,1-.45-.19.56.56,0,0,1-.16-.41l.07-3.65.33-15.74.11-5a.58.58,0,0,1,.6-.58m0-1a1.58,1.58,0,0,0-1.6,1.56l-.11,5-.33,15.75-.07,3.65a1.6,1.6,0,0,0,2.63,1.24l1.84-1.54,3-2.73a1.57,1.57,0,0,0,.51-1.13l.17-7.91.15-7.47a1.58,1.58,0,0,0-.43-1.12c-1.23-1.3-2.47-2.6-3.7-3.91l-.94-.89a1.56,1.56,0,0,0-1.1-.45Z" transform="translate(11.68 5.17)"/><path class="cls-17" d="M1421.67,551.48a1.16,1.16,0,0,1-1.08-.72,1,1,0,0,1,.25-1.13l.94-.93,4.12-3.68a1.21,1.21,0,0,1,.82-.31l16.31.34a1.24,1.24,0,0,1,.86.37l2.89,3,1.62,1.82a1,1,0,0,1,.18,1.13,1.17,1.17,0,0,1-1.08.67Z" transform="translate(11.68 5.17)"/><path class="cls-17" d="M1426.72,544.21v1l7.91.17,8.38.17a.73.73,0,0,1,.51.22l1.72,1.78,1.14,1.17,1,1.1.65.74a.5.5,0,0,1,.1.58.66.66,0,0,1-.64.38h0l-3.86-.08-8.51-.18-8.17-.17-5.26-.11a.68.68,0,0,1-.63-.4.54.54,0,0,1,.14-.59l.37-.36.54-.54,2.55-2.28,1.59-1.42a.73.73,0,0,1,.48-.18v-1m0,0a1.72,1.72,0,0,0-1.15.44l-4.14,3.69-.94.93a1.59,1.59,0,0,0,1.17,2.71l5.26.11,16.68.35,3.86.08h0a1.59,1.59,0,0,0,1.27-2.63l-1.64-1.84c-1-1-1.92-2-2.89-3a1.72,1.72,0,0,0-1.2-.52l-8.38-.17-7.91-.16Z" transform="translate(11.68 5.17)"/><path class="cls-18" d="M1421.83,515.71l-.24,0,1.5-.69,1.73-.79a1.06,1.06,0,0,1,.43-.08l20.07.42a1.09,1.09,0,0,1,.47.1l3.17,1.6-.22,0Z" transform="translate(11.68 5.17)"/><path class="cls-17" d="M1425.25,513.63l0,1h.35l19.69.41a.66.66,0,0,1,.25,0l1.25.64-23.07-.48,1.28-.58a.61.61,0,0,1,.23,0v-1m0,0a1.55,1.55,0,0,0-.64.13l-3.45,1.57c-.66.29-.23.86.66.88l26.87.56h0c.86,0,1.29-.54.65-.86L1446,514.2a1.71,1.71,0,0,0-.68-.15l-19.69-.41h-.39Z" transform="translate(11.68 5.17)"/><path class="cls-18" d="M1425.21,517.56a1.43,1.43,0,0,1-.46-.1l-3.17-1.61h.22l26.9.56.24,0-1,.44-2.26,1a1.12,1.12,0,0,1-.44.08Z" transform="translate(11.68 5.17)"/><path class="cls-17" d="M1423.72,516.38l23.07.48-1.28.58a.72.72,0,0,1-.25,0h0l-19.69-.41h-.35a.91.91,0,0,1-.25,0l-1.25-.63m-1.92-1c-.87,0-1.29.53-.66.85l3.38,1.71a1.58,1.58,0,0,0,.68.16h.35l19.69.41h0a1.56,1.56,0,0,0,.64-.12l3.45-1.57c.66-.3.24-.87-.66-.88l-26.87-.56Z" transform="translate(11.68 5.17)"/><path class="cls-17" d="M1385.59,486.85a1.19,1.19,0,0,1-.85-.36l-2.89-3-1.59-1.79a1,1,0,0,1-.22-1.16,1.16,1.16,0,0,1,1.08-.67l25.83.53a1.16,1.16,0,0,1,1.08.72,1,1,0,0,1-.25,1.14l-.94.93-4.12,3.68a1.25,1.25,0,0,1-.82.3Z" transform="translate(11.68 5.17)"/><path class="cls-17" d="M1381.12,479.39l0,1,3.87.08,1.19,0,15.48.32,5.26.11a.67.67,0,0,1,.63.41.52.52,0,0,1-.14.59l-.91.9-2.07,1.84-2.06,1.85a.73.73,0,0,1-.5.18h0l-7.91-.16-8.38-.18a.72.72,0,0,1-.51-.21l-1-1-1.9-2-.71-.81-.92-1a.52.52,0,0,1-.1-.58.65.65,0,0,1,.62-.38v-1m0,0a1.58,1.58,0,0,0-1.27,2.62l1.64,1.84,2.89,3a1.71,1.71,0,0,0,1.2.51l8.38.18,7.91.16h0a1.71,1.71,0,0,0,1.15-.43l4.14-3.7.94-.93a1.59,1.59,0,0,0-1.17-2.71l-5.25-.11-16.68-.34-3.87-.08Z" transform="translate(11.68 5.17)"/><path class="cls-17" d="M1409.18,514.59a.67.67,0,0,1-.34-.09c-.64-.37-1.3-.73-2-1.1-1.19-.63-2.41-1.24-3.64-1.8a.34.34,0,0,1-.23-.27l.47-22.24c0-.11.12-.22.28-.27l3.57-1.16,2.19-.83a.56.56,0,0,1,.25-.05.61.61,0,0,1,.45.17.19.19,0,0,1,.07.16l-.56,27.17c0,.16-.24.31-.51.31Z" transform="translate(11.68 5.17)"/><path class="cls-17" d="M1409.73,487.28h0l-.08,3.83-.2,9.69-.2,9.7-.08,3.59h0l-.09,0c-.66-.38-1.34-.75-2-1.11-1.17-.62-2.38-1.22-3.6-1.78l.2-9.53.25-12.38,3.52-1.14.1,0,2.11-.81h.07m0-1a1.09,1.09,0,0,0-.43.08l-2.11.8,0,0-3.57,1.16a.82.82,0,0,0-.63.74l-.26,12.55-.21,9.69a.82.82,0,0,0,.52.73c1.17.54,2.38,1.13,3.62,1.79l2,1.09a1.13,1.13,0,0,0,.58.16.93.93,0,0,0,1-.8l.08-3.77q.2-9.69.4-19.39l.08-4a.94.94,0,0,0-1-.84Z" transform="translate(11.68 5.17)"/><path class="cls-17" d="M1377.35,513.93a.73.73,0,0,1-.47-.17.25.25,0,0,1-.07-.17l.57-27.16c0-.16.25-.31.51-.31a.72.72,0,0,1,.29.06l2.11.89,3.64,1.34c.16.06.28.18.28.28l-.47,22.24c0,.1-.09.2-.24.26-1.26.51-2.53,1.06-3.76,1.64q-1.08.51-2.07,1A.72.72,0,0,1,1377.35,513.93Z" transform="translate(11.68 5.17)"/><path class="cls-17" d="M1377.89,486.62a.16.16,0,0,1,.1,0l2.1.89.1,0,2.18.8,1.33.49-.25,12.37-.2,9.52c-1.26.51-2.51,1.06-3.72,1.63-.7.33-1.41.68-2.09,1l-.09,0h0l.08-3.58.4-19.4.08-3.82h0m0-1a.93.93,0,0,0-1,.8l-.09,4q-.19,9.7-.4,19.4l-.08,3.76a1,1,0,0,0,1,.85,1.23,1.23,0,0,0,.55-.13c.66-.34,1.34-.68,2-1,1.29-.61,2.54-1.15,3.74-1.64a.78.78,0,0,0,.55-.71l.2-9.69.27-12.55a.85.85,0,0,0-.61-.76l-3.57-1.31,0,0-2.1-.89a1.23,1.23,0,0,0-.49-.1Z" transform="translate(11.68 5.17)"/><path class="cls-17" d="M1408.72,509.9a1.09,1.09,0,0,1-.73-.28l-1.75-1.6-2.81-2.8a1,1,0,0,1-.31-.77l.31-15.18a1.09,1.09,0,0,1,.32-.74l3.82-3.7.94-.83a1,1,0,0,1,.7-.27,1.14,1.14,0,0,1,.8.33,1,1,0,0,1,.29.76l-.5,24A1.06,1.06,0,0,1,1408.72,509.9Z" transform="translate(11.68 5.17)"/><path class="cls-17" d="M1409.21,484.23a.59.59,0,0,1,.44.18.53.53,0,0,1,.15.4l-.1,4.89-.17,8.28-.15,7.27-.08,3.6a.57.57,0,0,1-.58.55.56.56,0,0,1-.39-.15l-.37-.34-1.35-1.23-1.16-1.16-1.67-1.65a.53.53,0,0,1-.16-.41l.16-7.81.15-7.37a.61.61,0,0,1,.17-.39l3.78-3.67.46-.41.5-.44a.59.59,0,0,1,.37-.14m0-1a1.56,1.56,0,0,0-1,.39l-1,.85-3.81,3.7a1.57,1.57,0,0,0-.48,1.09l-.15,7.37-.16,7.81a1.56,1.56,0,0,0,.46,1.14l2.83,2.81,1.75,1.6a1.58,1.58,0,0,0,2.64-1.12l.08-3.6.32-15.55.1-4.89a1.57,1.57,0,0,0-1.59-1.6Z" transform="translate(11.68 5.17)"/><path class="cls-17" d="M1378,509.44a1.13,1.13,0,0,1-.81-.34,1,1,0,0,1-.3-.77l.51-24.35a1.09,1.09,0,0,1,1.11-1.07,1.06,1.06,0,0,1,.75.31l.93.89,3.69,3.9a1,1,0,0,1,.29.76l-.32,15.38a1,1,0,0,1-.35.77l-2.92,2.68-1.88,1.58A1.08,1.08,0,0,1,1378,509.44Z" transform="translate(11.68 5.17)"/><path class="cls-17" d="M1378.53,483.41h0a.57.57,0,0,1,.41.17l.48.46.42.4,1.85,2,1.86,2a.56.56,0,0,1,.15.41l-.15,7.47-.17,7.91a.6.6,0,0,1-.18.42l-1.56,1.42-1.39,1.27-.26.22-1.58,1.33a.61.61,0,0,1-.83-.05.56.56,0,0,1-.16-.41l.08-3.65.32-15.74.11-5a.59.59,0,0,1,.6-.58m0-1a1.59,1.59,0,0,0-1.6,1.56l-.11,5q-.16,7.86-.32,15.74l-.08,3.65a1.6,1.6,0,0,0,2.63,1.24l1.84-1.54,3-2.73a1.53,1.53,0,0,0,.51-1.13l.17-7.91.15-7.47a1.58,1.58,0,0,0-.43-1.12c-1.23-1.3-2.47-2.6-3.7-3.91l-.93-.89a1.6,1.6,0,0,0-1.11-.45Z" transform="translate(11.68 5.17)"/><path class="cls-17" d="M1385.94,486.86a1.24,1.24,0,0,1-.83-.34l-4-3.87-.89-.95a1,1,0,0,1-.2-1.13,1.14,1.14,0,0,1,1.08-.68l25.83.53a1.19,1.19,0,0,1,1.08.71,1,1,0,0,1-.23,1.13l-1.71,1.77-3,2.84a1.19,1.19,0,0,1-.83.33Z" transform="translate(11.68 5.17)"/><path class="cls-17" d="M1381.12,479.39l0,1,5.26.11,16.41.34h.27l3.86.08a.64.64,0,0,1,.62.4.53.53,0,0,1-.12.59l-.89.92-.79.82-1.5,1.43-1.51,1.43a.75.75,0,0,1-.51.19h0l-8.38-.18-7.91-.16a.72.72,0,0,1-.49-.2l-1.92-1.87-2-2-.9-1a.5.5,0,0,1-.11-.59.64.64,0,0,1,.62-.38v-1m0,0a1.58,1.58,0,0,0-1.24,2.65l.9,1,4,3.87a1.74,1.74,0,0,0,1.17.48l7.91.16,8.38.18h0a1.72,1.72,0,0,0,1.18-.47l3-2.86,1.71-1.77a1.59,1.59,0,0,0-1.2-2.68l-3.86-.08-16.68-.34-5.26-.11Z" transform="translate(11.68 5.17)"/><path class="cls-17" d="M1408.56,544.43a.92.92,0,0,1-.28,0l-2.1-.91-3.57-1.32c-.16-.06-.27-.18-.27-.29l.46-22.24c0-.1.09-.2.24-.26,1.25-.51,2.5-1.07,3.71-1.64.71-.34,1.39-.68,2-1a.66.66,0,0,1,.76.09.21.21,0,0,1,.07.17l-.56,27.16C1409.07,544.29,1408.82,544.43,1408.56,544.43Z" transform="translate(11.68 5.17)"/><path class="cls-17" d="M1409.11,517.12h0l-.07,3.58-.2,9.34-.21,10.06-.08,3.82h-.09l-2.07-.9-.11,0-3.24-1.2-.22-.08.26-12.38.2-9.52c1.24-.51,2.47-1.06,3.67-1.63.69-.33,1.38-.68,2.06-1l.08,0m0-1a1.17,1.17,0,0,0-.54.14c-.65.33-1.33.67-2,1-1.27.61-2.51,1.15-3.69,1.64a.83.83,0,0,0-.55.71l-.2,9.69-.26,12.55a.84.84,0,0,0,.6.77l3.52,1.3,0,0,2.08.9a1.31,1.31,0,0,0,.47.09.93.93,0,0,0,1-.8l.08-4q.21-9.71.41-19.4l.07-3.76a.94.94,0,0,0-1-.85Z" transform="translate(11.68 5.17)"/><path class="cls-17" d="M1376.73,543.77a.66.66,0,0,1-.47-.17.23.23,0,0,1-.07-.16l.56-27.17c0-.16.25-.31.52-.31a.68.68,0,0,1,.35.09c.65.37,1.33.74,2,1.1,1.2.63,2.44,1.24,3.69,1.8.14.07.23.17.23.27l-.46,22.24c0,.11-.12.22-.29.27l-3.62,1.16-2.22.83a.7.7,0,0,1-.25,0Z" transform="translate(11.68 5.17)"/><path class="cls-17" d="M1377.27,516.46l.11,0c.67.37,1.35.75,2,1.11,1.18.62,2.41,1.21,3.65,1.78l-.2,9.52-.26,12.38-.13,0-3.43,1.1-.1,0-2.14.81h-.12l.08-3.83.21-9.74.2-9.65.07-3.59h0m0-1a.94.94,0,0,0-1,.8l-.07,3.77q-.21,9.69-.41,19.39l-.08,4a1,1,0,0,0,1,.84,1.09,1.09,0,0,0,.43-.08l2.14-.8,0,0,3.62-1.16a.84.84,0,0,0,.64-.74l.26-12.55.2-9.69a.8.8,0,0,0-.52-.73c-1.18-.54-2.41-1.13-3.67-1.79-.7-.36-1.37-.73-2-1.09a1.2,1.2,0,0,0-.6-.16Z" transform="translate(11.68 5.17)"/><path class="cls-17" d="M1407.92,548a1.07,1.07,0,0,1-.74-.31l-.91-.87-3.65-3.85a1.1,1.1,0,0,1-.29-.75l.32-15.18a1,1,0,0,1,.34-.76l2.94-2.69,1.77-1.48a1.07,1.07,0,0,1,.72-.29,1.1,1.1,0,0,1,.8.34,1,1,0,0,1,.29.75l-.5,24A1.07,1.07,0,0,1,1407.92,548Z" transform="translate(11.68 5.17)"/><path class="cls-17" d="M1408.42,522.31a.61.61,0,0,1,.44.19.53.53,0,0,1,.15.39l-.07,3.6-.16,7.32-.17,8.23-.1,4.89a.57.57,0,0,1-.59.56.54.54,0,0,1-.39-.17l-.61-.58-.28-.26-1.83-1.93-1.82-1.93a.55.55,0,0,1-.16-.4l.16-7.37.16-7.81a.55.55,0,0,1,.18-.4l2.91-2.67.67-.56,1.15-1a.56.56,0,0,1,.36-.14m0-1a1.57,1.57,0,0,0-1,.38l-1.81,1.52-2.94,2.69a1.55,1.55,0,0,0-.51,1.12l-.16,7.81-.16,7.37a1.56,1.56,0,0,0,.43,1.1l3.66,3.86.92.89a1.55,1.55,0,0,0,1.08.44,1.58,1.58,0,0,0,1.59-1.54l.1-4.89.33-15.55.07-3.6a1.57,1.57,0,0,0-1.59-1.6Z" transform="translate(11.68 5.17)"/><path class="cls-17" d="M1377.24,547.53a1.15,1.15,0,0,1-.81-.34,1.06,1.06,0,0,1-.3-.77l.5-24.36a1.1,1.1,0,0,1,1.11-1.06,1.07,1.07,0,0,1,.76.31l.93.89,3.69,3.89a1.09,1.09,0,0,1,.29.77l-.32,15.38a1,1,0,0,1-.35.77l-3,2.7-1.85,1.56A1.1,1.1,0,0,1,1377.24,547.53Z" transform="translate(11.68 5.17)"/><path class="cls-17" d="M1377.74,521.5h0a.54.54,0,0,1,.41.17l.9.86,1.85,2,1.85,2a.52.52,0,0,1,.16.41l-.15,7.46-.17,7.92a.55.55,0,0,1-.19.41l-1,.91-2,1.79-1.59,1.33-.25.21a.59.59,0,0,1-.38.15.62.62,0,0,1-.45-.19.52.52,0,0,1-.16-.41l.07-3.65L1377,527l.1-5a.59.59,0,0,1,.61-.57m0-1a1.59,1.59,0,0,0-1.61,1.55l-.1,5-.33,15.75-.07,3.65a1.6,1.6,0,0,0,2.63,1.24l1.84-1.54,3-2.73a1.57,1.57,0,0,0,.51-1.13l.17-7.92.15-7.46a1.55,1.55,0,0,0-.43-1.12l-3.71-3.91-.93-.89a1.56,1.56,0,0,0-1.1-.45Z" transform="translate(11.68 5.17)"/><path class="cls-17" d="M1379.68,550.61a1.15,1.15,0,0,1-1.08-.72,1,1,0,0,1,.25-1.13l.94-.93,4.12-3.68a1.21,1.21,0,0,1,.82-.31l16.31.34a1.23,1.23,0,0,1,.85.36l2.89,3,1.63,1.82a1,1,0,0,1,.18,1.12,1.16,1.16,0,0,1-1.08.68Z" transform="translate(11.68 5.17)"/><path class="cls-17" d="M1384.73,543.34v1l7.91.17,8.38.17a.72.72,0,0,1,.51.21l1.34,1.39,1.52,1.56.49.56,1.14,1.28a.51.51,0,0,1,.1.59.66.66,0,0,1-.64.38h0l-3.86-.08-8.51-.18-8.17-.17-5.26-.11a.67.67,0,0,1-.63-.41.54.54,0,0,1,.14-.59l.51-.5.4-.39,2.07-1.85,2.07-1.85a.73.73,0,0,1,.48-.18v-1m0,0a1.76,1.76,0,0,0-1.15.43l-4.14,3.7-.94.93a1.59,1.59,0,0,0,1.17,2.71l5.26.11,16.67.35,3.87.08h0a1.59,1.59,0,0,0,1.27-2.63c-.54-.62-1.09-1.23-1.64-1.84-1-1-1.92-2-2.89-3a1.72,1.72,0,0,0-1.2-.52l-8.38-.17-7.91-.17Z" transform="translate(11.68 5.17)"/><path class="cls-18" d="M1379.84,514.84a1.57,1.57,0,0,1-.24,0l1.5-.69,1.73-.78a1.06,1.06,0,0,1,.43-.08l20.07.42a1.17,1.17,0,0,1,.46.09l3.17,1.61-.21,0Z" transform="translate(11.68 5.17)"/><path class="cls-17" d="M1383.26,512.76l0,1h.35l19.69.41a.66.66,0,0,1,.25,0l1.25.64-23.07-.48.38-.17.9-.42a.66.66,0,0,1,.23,0v-1m0,0a1.56,1.56,0,0,0-.64.12l-3.45,1.57c-.66.3-.23.87.66.89l26.87.56h0c.86,0,1.28-.54.65-.86l-3.38-1.71a1.58,1.58,0,0,0-.68-.15l-19.69-.41h-.39Z" transform="translate(11.68 5.17)"/><path class="cls-18" d="M1383.22,516.68a1,1,0,0,1-.46-.1l-3.17-1.6.22,0,26.9.56a.88.88,0,0,1,.24,0l-1.51.69-1.71.78a1.12,1.12,0,0,1-.44.08Z" transform="translate(11.68 5.17)"/><path class="cls-17" d="M1381.73,515.5l23.07.48-.22.1-1.06.48a.61.61,0,0,1-.25,0h0l-19.69-.41h-.35a.71.71,0,0,1-.25,0l-1.25-.64m-1.92-1c-.87,0-1.29.54-.66.86l3.38,1.71a1.58,1.58,0,0,0,.68.15h.35l19.69.41h0a1.56,1.56,0,0,0,.64-.12l3.45-1.57c.66-.3.24-.87-.66-.89l-26.87-.56Z" transform="translate(11.68 5.17)"/><path class="cls-17" d="M1554.45,490.36a1.22,1.22,0,0,1-.85-.36l-2.89-3-1.62-1.83a1,1,0,0,1-.18-1.12,1.16,1.16,0,0,1,1.08-.67l25.82.54a1.16,1.16,0,0,1,1.09.72,1,1,0,0,1-.25,1.13l-1,.93-4.12,3.68a1.25,1.25,0,0,1-.81.3Z" transform="translate(11.68 5.17)"/><path class="cls-17" d="M1550,482.9l0,1,3.86.08,16.68.35,5.25.11a.64.64,0,0,1,.63.4.52.52,0,0,1-.13.59l-.91.9-2.07,1.85-2.07,1.85a.76.76,0,0,1-.5.17h0l-7.9-.16-8.39-.18a.71.71,0,0,1-.5-.21l-.48-.49-2.38-2.46-.66-.74-1-1.1a.52.52,0,0,1-.1-.58.67.67,0,0,1,.63-.38v-1m0,0a1.59,1.59,0,0,0-1.27,2.63c.54.61,1.09,1.22,1.63,1.84,1,1,1.93,2,2.89,3a1.73,1.73,0,0,0,1.2.51l8.39.18,7.9.16h0a1.71,1.71,0,0,0,1.15-.43l4.13-3.7,1-.93a1.58,1.58,0,0,0-1.18-2.7l-5.25-.11-16.68-.35-3.86-.08Z" transform="translate(11.68 5.17)"/><path class="cls-17" d="M1578.05,518.1a.67.67,0,0,1-.34-.09l-2-1.1c-1.18-.62-2.41-1.23-3.64-1.8a.32.32,0,0,1-.23-.27l.46-22.23c0-.12.12-.23.29-.28l3.57-1.16,2.19-.83a.7.7,0,0,1,.25,0,.65.65,0,0,1,.44.17.22.22,0,0,1,.08.17l-.57,27.16c0,.17-.23.31-.5.31Z" transform="translate(11.68 5.17)"/><path class="cls-17" d="M1578.6,490.79h0l-.08,3.83-.21,10.05-.2,9.34-.07,3.59h0a.16.16,0,0,1-.09,0c-.66-.38-1.34-.75-2-1.11-1.17-.62-2.37-1.22-3.6-1.78l.2-9.52.26-12.38.81-.27,2.7-.87.1,0,2.12-.81h.07m0-1a1.31,1.31,0,0,0-.43.08l-2.11.81-.06,0-3.57,1.15a.86.86,0,0,0-.63.75l-.26,12.54-.2,9.69a.8.8,0,0,0,.52.74c1.16.53,2.37,1.12,3.61,1.78.69.37,1.36.73,2,1.1a1.26,1.26,0,0,0,.59.15.92.92,0,0,0,1-.8l.08-3.77q.21-9.69.41-19.39l.08-4a.94.94,0,0,0-1-.85Z" transform="translate(11.68 5.17)"/><path class="cls-17" d="M1546.21,517.44a.68.68,0,0,1-.46-.17c-.08-.08-.08-.14-.07-.16l.56-27.17c0-.16.25-.31.52-.31a.72.72,0,0,1,.29.06l2.1.89,3.64,1.34c.17.06.28.18.28.29l-.46,22.24c0,.09-.1.19-.24.25-1.27.51-2.54,1.07-3.76,1.65-.72.33-1.41.67-2.07,1A.73.73,0,0,1,1546.21,517.44Z" transform="translate(11.68 5.17)"/><path class="cls-17" d="M1546.76,490.13l.09,0,2.11.89.1,0,1.78.65,1.73.64-.26,12.38-.2,9.52c-1.25.5-2.51,1.05-3.72,1.62-.7.33-1.4.68-2.08,1l-.1,0h0l.07-3.59.21-10.05.2-9.34.08-3.83h0m0-1a.94.94,0,0,0-1,.8l-.08,4q-.21,9.69-.41,19.39l-.07,3.77a.94.94,0,0,0,1,.84,1.17,1.17,0,0,0,.55-.13c.66-.34,1.35-.68,2.06-1,1.28-.61,2.53-1.15,3.74-1.64a.81.81,0,0,0,.55-.7l.2-9.69.26-12.55a.84.84,0,0,0-.6-.77l-3.57-1.31-.05,0-2.11-.89a1.18,1.18,0,0,0-.48-.1Z" transform="translate(11.68 5.17)"/><path class="cls-17" d="M1577.58,513.41a1.07,1.07,0,0,1-.72-.28l-1.75-1.6-2.81-2.79a1.1,1.1,0,0,1-.32-.78l.32-15.18a1,1,0,0,1,.32-.74l3.81-3.7.94-.83a1.07,1.07,0,0,1,.71-.27,1.1,1.1,0,0,1,.79.33,1,1,0,0,1,.3.76l-.5,24a1.08,1.08,0,0,1-1.09,1Z" transform="translate(11.68 5.17)"/><path class="cls-17" d="M1578.08,487.74a.67.67,0,0,1,.44.18.57.57,0,0,1,.15.4l-.1,4.89-.33,15.55-.07,3.6a.57.57,0,0,1-.59.55.55.55,0,0,1-.38-.15l-1-.94-.68-.63-1.7-1.69-1.13-1.12a.58.58,0,0,1-.17-.41l.17-7.81.15-7.37a.54.54,0,0,1,.17-.39l1.52-1.48,2.26-2.19.47-.42.48-.42a.55.55,0,0,1,.38-.15m0-1a1.53,1.53,0,0,0-1,.4l-1,.84-3.82,3.7a1.6,1.6,0,0,0-.47,1.09l-.15,7.37-.17,7.81a1.56,1.56,0,0,0,.46,1.14l2.83,2.81,1.75,1.6a1.59,1.59,0,0,0,1.06.41,1.57,1.57,0,0,0,1.59-1.53l.07-3.6.33-15.54.1-4.9a1.58,1.58,0,0,0-1.59-1.6Z" transform="translate(11.68 5.17)"/><path class="cls-17" d="M1546.89,513a1.14,1.14,0,0,1-.81-.34,1,1,0,0,1-.29-.77l.5-24.35a1.1,1.1,0,0,1,1.87-.76l.93.89,3.68,3.9a1,1,0,0,1,.3.76l-.32,15.38a1.09,1.09,0,0,1-.35.78l-3,2.72-1.83,1.53A1.06,1.06,0,0,1,1546.89,513Z" transform="translate(11.68 5.17)"/><path class="cls-17" d="M1547.4,486.92h0a.6.6,0,0,1,.41.17l.9.86,1.85,2,1.85,1.95a.57.57,0,0,1,.16.41l-.16,7.47-.16,7.91a.57.57,0,0,1-.19.42l-1.49,1.36-1.46,1.34-1.58,1.32-.26.22a.59.59,0,0,1-.38.14.65.65,0,0,1-.45-.19.51.51,0,0,1-.15-.41l.07-3.64.33-15.75.1-5a.6.6,0,0,1,.61-.58m0-1a1.6,1.6,0,0,0-1.61,1.56l-.1,5-.33,15.74-.07,3.65a1.59,1.59,0,0,0,1.6,1.62,1.53,1.53,0,0,0,1-.38l1.84-1.54c1-.91,2-1.82,3-2.72a1.59,1.59,0,0,0,.51-1.14l.16-7.91.16-7.47a1.58,1.58,0,0,0-.43-1.11l-3.71-3.92-.93-.89a1.56,1.56,0,0,0-1.1-.45Z" transform="translate(11.68 5.17)"/><path class="cls-17" d="M1554.8,490.37a1.24,1.24,0,0,1-.82-.34l-4-3.86-.89-1a1,1,0,0,1-.21-1.13,1.17,1.17,0,0,1,1.09-.68l25.82.54a1.16,1.16,0,0,1,1.08.7,1,1,0,0,1-.22,1.13l-1.71,1.77-3,2.84a1.23,1.23,0,0,1-.84.33Z" transform="translate(11.68 5.17)"/><path class="cls-17" d="M1550,482.9l0,1,5.25.11,16.41.34h.27l3.86.08a.64.64,0,0,1,.63.39.53.53,0,0,1-.12.59l-.89.92-.79.82-1.51,1.43-1.5,1.43a.75.75,0,0,1-.51.19h0l-8.38-.17-7.91-.17a.66.66,0,0,1-.48-.2l-2.09-2-1.86-1.8-.45-.48-.46-.49a.52.52,0,0,1-.11-.59.65.65,0,0,1,.63-.38v-1m0,0a1.59,1.59,0,0,0-1.25,2.66l.91,1,4,3.87a1.71,1.71,0,0,0,1.16.48l7.91.17,8.38.17h0a1.71,1.71,0,0,0,1.18-.47l3-2.85,1.71-1.77a1.59,1.59,0,0,0-1.21-2.68l-3.86-.08-16.68-.35-5.25-.11Z" transform="translate(11.68 5.17)"/><path class="cls-17" d="M1577.43,548a.67.67,0,0,1-.28-.06l-2.08-.89-3.59-1.34c-.17-.06-.28-.18-.27-.29l.46-22.24a.3.3,0,0,1,.23-.25c1.26-.52,2.51-1.07,3.72-1.65q1.07-.51,2-1a.71.71,0,0,1,.32-.07.64.64,0,0,1,.44.16.23.23,0,0,1,.08.17l-.57,27.16C1577.93,547.8,1577.7,548,1577.43,548Z" transform="translate(11.68 5.17)"/><path class="cls-17" d="M1578,520.64h0l-.08,3.58-.2,9.7-.2,9.7-.08,3.83h0l-.08,0-2.08-.89-.1,0-3.46-1.29.26-12.38.19-9.52c1.24-.51,2.48-1.06,3.67-1.63.69-.33,1.39-.67,2.06-1a.16.16,0,0,1,.09,0m0-1a1.2,1.2,0,0,0-.55.13c-.65.33-1.32.67-2,1-1.27.6-2.5,1.15-3.69,1.63a.8.8,0,0,0-.54.71l-.2,9.69-.26,12.55a.83.83,0,0,0,.59.77l3.52,1.3.06,0,2.07.89a1.37,1.37,0,0,0,.48.1.93.93,0,0,0,1-.81l.09-4q.2-9.71.4-19.39l.08-3.77a.94.94,0,0,0-1-.84Z" transform="translate(11.68 5.17)"/><path class="cls-17" d="M1545.59,547.28a.64.64,0,0,1-.46-.17c-.08-.08-.08-.14-.07-.16l.56-27.16c0-.17.25-.32.52-.32a.82.82,0,0,1,.35.09c.65.37,1.32.74,2,1.11,1.2.62,2.44,1.23,3.69,1.8.14.06.23.16.23.26L1552,545c0,.11-.12.22-.29.28l-3.61,1.15-2.22.84a.75.75,0,0,1-.26,0Z" transform="translate(11.68 5.17)"/><path class="cls-17" d="M1546.14,520a.19.19,0,0,1,.1,0c.67.38,1.36.75,2,1.11,1.19.62,2.41,1.22,3.65,1.78l-.19,9.52-.26,12.38-3.57,1.14-.1,0-2.14.81h-.11l.08-3.82.2-9.75.2-9.65.08-3.58h0m0-1a.94.94,0,0,0-1,.81l-.08,3.76q-.19,9.71-.4,19.39l-.08,4a.94.94,0,0,0,1,.84,1.17,1.17,0,0,0,.44-.08l2.14-.8,0,0,3.62-1.16a.82.82,0,0,0,.63-.74l.27-12.55.2-9.69a.83.83,0,0,0-.53-.73c-1.18-.53-2.4-1.13-3.66-1.79-.7-.36-1.37-.73-2-1.09a1.2,1.2,0,0,0-.6-.16Z" transform="translate(11.68 5.17)"/><path class="cls-17" d="M1576.79,551.5a1,1,0,0,1-.74-.3l-.92-.89-3.64-3.84a1,1,0,0,1-.29-.75l.31-15.18a1.11,1.11,0,0,1,.35-.76l2.94-2.69,1.8-1.51a1.06,1.06,0,0,1,.69-.26,1.14,1.14,0,0,1,.79.34,1,1,0,0,1,.3.75l-.5,24A1.08,1.08,0,0,1,1576.79,551.5Z" transform="translate(11.68 5.17)"/><path class="cls-17" d="M1577.29,525.82a.59.59,0,0,1,.43.19.51.51,0,0,1,.16.39l-.08,3.6-.15,7.32-.17,8.23-.1,4.89a.58.58,0,0,1-.59.56.61.61,0,0,1-.4-.16l-.46-.45-.42-.4-1.83-1.93-1.83-1.93a.54.54,0,0,1-.15-.4l.15-7.37.16-7.81a.56.56,0,0,1,.19-.4l1.47-1.35,1.44-1.31.71-.6,1.1-.93a.59.59,0,0,1,.37-.14m0-1a1.55,1.55,0,0,0-1,.38l-1.82,1.52-2.94,2.69a1.59,1.59,0,0,0-.51,1.12l-.16,7.81-.15,7.37a1.54,1.54,0,0,0,.43,1.11l3.65,3.86.92.88a1.58,1.58,0,0,0,2.68-1.09l.1-4.9.32-15.55.08-3.6a1.58,1.58,0,0,0-1.59-1.6Z" transform="translate(11.68 5.17)"/><path class="cls-17" d="M1546.1,551a1.13,1.13,0,0,1-.81-.34,1.1,1.1,0,0,1-.3-.77l.51-24.36a1.09,1.09,0,0,1,1.11-1.06,1,1,0,0,1,.75.31l.93.89,3.69,3.9a1.06,1.06,0,0,1,.3.76l-.32,15.38a1.13,1.13,0,0,1-.35.77l-3,2.73-1.83,1.53A1.06,1.06,0,0,1,1546.1,551Z" transform="translate(11.68 5.17)"/><path class="cls-17" d="M1546.61,525h0a.6.6,0,0,1,.41.17l.89.86,1.86,2,1.85,2a.62.62,0,0,1,.16.41l-.16,7.46-.16,7.92a.57.57,0,0,1-.19.41l-1.13,1-1.85,1.68-1.81,1.52a.55.55,0,0,1-.38.15.65.65,0,0,1-.45-.19.56.56,0,0,1-.16-.41l.08-3.65.33-15.75.1-5a.6.6,0,0,1,.61-.57m0-1a1.59,1.59,0,0,0-1.61,1.55l-.1,5-.33,15.75-.08,3.65a1.6,1.6,0,0,0,2.63,1.24l1.84-1.54,3-2.73a1.58,1.58,0,0,0,.52-1.13l.16-7.91.16-7.47a1.57,1.57,0,0,0-.44-1.12c-1.23-1.3-2.46-2.61-3.7-3.91l-.93-.89a1.58,1.58,0,0,0-1.1-.45Z" transform="translate(11.68 5.17)"/><path class="cls-17" d="M1548.55,554.12a1.17,1.17,0,0,1-1.09-.72,1,1,0,0,1,.25-1.13l1-.93,4.12-3.68a1.2,1.2,0,0,1,.81-.31l16.32.34a1.23,1.23,0,0,1,.85.37l2.89,3,1.62,1.82a1,1,0,0,1,.19,1.12,1.17,1.17,0,0,1-1.09.68Z" transform="translate(11.68 5.17)"/><path class="cls-17" d="M1553.59,546.85l0,1,7.91.17,8.38.17a.76.76,0,0,1,.5.21l.57.59,2.29,2.36.59.66,1.05,1.18a.53.53,0,0,1,.1.59.66.66,0,0,1-.65.38h0l-3.86-.08-8.52-.18-8.16-.17-5.25-.11a.66.66,0,0,1-.63-.4.51.51,0,0,1,.13-.59l.51-.51.4-.39,2.07-1.85,2.07-1.85a.75.75,0,0,1,.48-.18v-1m0,0a1.71,1.71,0,0,0-1.14.44l-4.14,3.69-1,.93a1.59,1.59,0,0,0,1.18,2.71l5.25.11,16.68.35,3.86.08h0a1.59,1.59,0,0,0,1.28-2.63l-1.64-1.84-2.89-3a1.72,1.72,0,0,0-1.2-.52l-8.38-.17-7.91-.17Z" transform="translate(11.68 5.17)"/><path class="cls-18" d="M1548.71,518.35a.83.83,0,0,1-.24,0l1.49-.68,1.73-.79a1.12,1.12,0,0,1,.44-.08l20.07.42a1,1,0,0,1,.46.1l3.17,1.6-.22,0Z" transform="translate(11.68 5.17)"/><path class="cls-17" d="M1552.13,516.27l0,1h.34l19.7.41a.64.64,0,0,1,.24,0l1.26.64-23.07-.48,1.28-.58a.57.57,0,0,1,.23,0v-1m0,0a1.64,1.64,0,0,0-.65.13L1548,518c-.66.3-.24.87.66.89l26.87.56h0c.87,0,1.29-.54.66-.86l-3.38-1.71a1.62,1.62,0,0,0-.68-.15l-19.7-.41h-.38Z" transform="translate(11.68 5.17)"/><path class="cls-18" d="M1552.09,520.19a1.27,1.27,0,0,1-.47-.09l-3.17-1.61h.22l26.9.55.25,0-1.51.69-1.72.78a1.1,1.1,0,0,1-.43.08Z" transform="translate(11.68 5.17)"/><path class="cls-17" d="M1550.59,519l23.08.47-1.28.59a.83.83,0,0,1-.25,0h0l-19.7-.41h-.34a.66.66,0,0,1-.25,0l-1.26-.63m-1.92-1c-.87,0-1.29.53-.65.85l3.38,1.71a1.55,1.55,0,0,0,.68.15h.34l19.7.41h0a1.62,1.62,0,0,0,.64-.12l3.45-1.57c.66-.3.23-.87-.67-.89l-26.86-.55Z" transform="translate(11.68 5.17)"/><path class="cls-17" d="M1513.46,489.51a1.27,1.27,0,0,1-.85-.36l-2.89-3-1.62-1.83a1,1,0,0,1-.18-1.12,1.13,1.13,0,0,1,1.08-.67l25.82.53a1.18,1.18,0,0,1,1.09.72,1.06,1.06,0,0,1-.25,1.14l-1,.93-4.12,3.68a1.25,1.25,0,0,1-.81.3Z" transform="translate(11.68 5.17)"/><path class="cls-17" d="M1509,482.05l0,1,3.86.08,16.68.34,5.25.11a.67.67,0,0,1,.63.41.52.52,0,0,1-.13.59l-.64.63-.27.27-1.42,1.26-2.72,2.43a.71.71,0,0,1-.5.18h0l-7.9-.16-8.39-.18a.71.71,0,0,1-.5-.21l-1.94-2-.92-.95-.77-.87-.87-1a.53.53,0,0,1-.1-.59.68.68,0,0,1,.63-.37v-1m0,0a1.59,1.59,0,0,0-1.28,2.62l1.64,1.84,2.89,3a1.71,1.71,0,0,0,1.2.51l8.38.18,7.91.16h0a1.75,1.75,0,0,0,1.15-.43l4.13-3.7,1-.93a1.59,1.59,0,0,0-1.18-2.71l-5.25-.11-16.68-.34-3.86-.08Z" transform="translate(11.68 5.17)"/><path class="cls-17" d="M1537.06,517.25a.67.67,0,0,1-.34-.09c-.64-.37-1.31-.73-2-1.1-1.18-.63-2.41-1.23-3.64-1.8-.15-.07-.23-.17-.23-.27l.46-22.24c0-.11.12-.22.29-.27l3.57-1.16,2.19-.83a.53.53,0,0,1,.25-.05.6.6,0,0,1,.44.17.22.22,0,0,1,.08.16l-.57,27.17c0,.16-.24.31-.5.31Z" transform="translate(11.68 5.17)"/><path class="cls-17" d="M1537.61,489.94h0l-.08,3.83-.41,19.39-.07,3.59h0l-.09,0c-.66-.38-1.34-.75-2-1.11-1.17-.62-2.37-1.22-3.6-1.78l.2-9.53.26-12.38,3.51-1.14.1,0,2.11-.81h.08m0-1a1.06,1.06,0,0,0-.43.08l-2.11.8-.06,0-3.57,1.16a.84.84,0,0,0-.63.74l-.26,12.55-.2,9.69a.79.79,0,0,0,.52.73c1.16.54,2.37,1.13,3.61,1.79l2,1.09a1.14,1.14,0,0,0,.59.16.93.93,0,0,0,1-.8l.08-3.77q.21-9.69.41-19.39l.08-4a.94.94,0,0,0-1-.84Z" transform="translate(11.68 5.17)"/><path class="cls-17" d="M1505.22,516.59a.68.68,0,0,1-.46-.17.23.23,0,0,1-.08-.17l.57-27.16c0-.16.25-.31.52-.31a.87.87,0,0,1,.28.05l2.11.9,3.64,1.34c.17.06.28.17.28.28l-.46,22.24c0,.1-.1.2-.24.26-1.27.51-2.53,1.06-3.77,1.64l-2.07,1A.66.66,0,0,1,1505.22,516.59Z" transform="translate(11.68 5.17)"/><path class="cls-17" d="M1505.77,489.28a.15.15,0,0,1,.09,0l2.1.89.11,0,1.82.67,1.69.62-.26,12.37-.2,9.52c-1.26.51-2.51,1.06-3.72,1.63-.7.33-1.4.68-2.08,1l-.1,0h0l.07-3.58.41-19.4.08-3.82h0m0-1a.94.94,0,0,0-1,.8l-.08,4q-.21,9.71-.41,19.4l-.07,3.76a.94.94,0,0,0,1,.85,1.17,1.17,0,0,0,.55-.13c.66-.34,1.34-.68,2.06-1,1.28-.61,2.53-1.15,3.73-1.64a.8.8,0,0,0,.56-.71l.2-9.69.26-12.55a.82.82,0,0,0-.61-.76l-3.56-1.31-.05,0-2.11-.9a1.36,1.36,0,0,0-.48-.09Z" transform="translate(11.68 5.17)"/><path class="cls-17" d="M1536.59,512.56a1.07,1.07,0,0,1-.72-.28l-1.75-1.6-2.81-2.8a1.06,1.06,0,0,1-.32-.77l.32-15.18a1,1,0,0,1,.32-.74l3.81-3.71.94-.82a1.05,1.05,0,0,1,.71-.27,1.11,1.11,0,0,1,.79.33,1.06,1.06,0,0,1,.3.76l-.5,24a1.08,1.08,0,0,1-1.09,1Z" transform="translate(11.68 5.17)"/><path class="cls-17" d="M1537.09,486.89a.62.62,0,0,1,.44.18.55.55,0,0,1,.15.4l-.11,4.89-.17,8.23-.15,7.32-.07,3.6a.57.57,0,0,1-.59.55.6.6,0,0,1-.39-.15l-.87-.8-.85-.77-.8-.8-2-2a.58.58,0,0,1-.17-.41l.16-7.81.16-7.37a.52.52,0,0,1,.17-.39l3.78-3.67.47-.42.48-.43a.59.59,0,0,1,.38-.14m0-1a1.57,1.57,0,0,0-1,.39l-1,.85-3.81,3.7a1.6,1.6,0,0,0-.47,1.09l-.16,7.37-.16,7.81a1.56,1.56,0,0,0,.46,1.14c1,.93,1.89,1.87,2.83,2.81l1.75,1.6a1.59,1.59,0,0,0,1.06.41,1.57,1.57,0,0,0,1.59-1.53l.07-3.6.32-15.55.11-4.89a1.58,1.58,0,0,0-1.59-1.6Z" transform="translate(11.68 5.17)"/><path class="cls-17" d="M1505.9,512.1a1.14,1.14,0,0,1-.81-.34,1.06,1.06,0,0,1-.3-.77l.51-24.35a1.1,1.1,0,0,1,1.11-1.07,1,1,0,0,1,.75.31l.94.89,3.68,3.9a1.07,1.07,0,0,1,.3.76l-.32,15.38a1.11,1.11,0,0,1-.35.77l-3,2.73-1.83,1.53A1.06,1.06,0,0,1,1505.9,512.1Z" transform="translate(11.68 5.17)"/><path class="cls-17" d="M1506.41,486.07h0a.6.6,0,0,1,.41.17l.65.62.25.24.9.95,2.8,3a.57.57,0,0,1,.16.41l-.16,7.47-.16,7.91a.57.57,0,0,1-.19.42l-2.17,2-.78.71-1.07.9-.77.65a.59.59,0,0,1-.38.14.65.65,0,0,1-.45-.19.56.56,0,0,1-.16-.41l.08-3.65.32-15.5v-.24l.1-5a.6.6,0,0,1,.61-.58m0-1a1.6,1.6,0,0,0-1.61,1.56l-.1,5-.33,15.74-.08,3.65a1.6,1.6,0,0,0,1.61,1.62,1.62,1.62,0,0,0,1-.38l1.83-1.54,3-2.73a1.58,1.58,0,0,0,.52-1.13l.16-7.91.16-7.47a1.62,1.62,0,0,0-.43-1.12l-3.71-3.91-.93-.89a1.58,1.58,0,0,0-1.1-.45Z" transform="translate(11.68 5.17)"/><path class="cls-17" d="M1513.81,489.52a1.22,1.22,0,0,1-.82-.34l-4-3.87-.88-.95a1,1,0,0,1-.21-1.13,1.17,1.17,0,0,1,1.09-.68l25.82.53a1.18,1.18,0,0,1,1.08.71,1,1,0,0,1-.22,1.13l-1.72,1.77-3,2.84a1.23,1.23,0,0,1-.84.33Z" transform="translate(11.68 5.17)"/><path class="cls-17" d="M1509,482.05l0,1,5.25.11,4.94.1,11.74.24,3.86.08a.68.68,0,0,1,.63.4.53.53,0,0,1-.12.59l-.79.82-.89.92-1.5,1.42-1.52,1.44a.71.71,0,0,1-.51.19h0l-8.38-.18-7.91-.16a.8.8,0,0,1-.49-.2l-1.85-1.8-2.09-2-.91-1a.52.52,0,0,1-.11-.59.65.65,0,0,1,.63-.38v-1m0,0a1.59,1.59,0,0,0-1.25,2.65c.3.33.6.65.91,1l4,3.87a1.69,1.69,0,0,0,1.16.48l7.91.16,8.38.18h0a1.71,1.71,0,0,0,1.18-.47l3-2.86,1.72-1.77a1.59,1.59,0,0,0-1.21-2.68l-3.86-.08-16.68-.34-5.25-.11Z" transform="translate(11.68 5.17)"/><path class="cls-17" d="M1536.44,547.09a.87.87,0,0,1-.28-.05l-2.08-.9-3.59-1.33c-.17-.06-.28-.18-.28-.29l.47-22.24c0-.1.09-.2.23-.26,1.26-.51,2.5-1.06,3.72-1.64q1.06-.51,2-1a.72.72,0,0,1,.32-.08.65.65,0,0,1,.44.17.22.22,0,0,1,.08.17l-.57,27.16C1536.94,547,1536.7,547.09,1536.44,547.09Z" transform="translate(11.68 5.17)"/><path class="cls-17" d="M1537,519.78h0l-.07,3.59-.4,19.4-.08,3.82h-.09l-2.08-.9-.1,0-3.46-1.28L1531,532l.2-9.52c1.24-.51,2.48-1.06,3.67-1.63.7-.33,1.39-.68,2.06-1l.09,0m0-1a1.2,1.2,0,0,0-.55.13c-.65.34-1.32.68-2,1-1.27.61-2.5,1.15-3.69,1.64a.8.8,0,0,0-.54.71L1530,532l-.26,12.55a.85.85,0,0,0,.6.77l3.52,1.3.05,0,2.08.9a1.36,1.36,0,0,0,.48.09.92.92,0,0,0,1-.8l.09-4q.2-9.7.4-19.4l.08-3.76a1,1,0,0,0-1-.85Z" transform="translate(11.68 5.17)"/><path class="cls-17" d="M1504.6,546.43a.64.64,0,0,1-.46-.17.22.22,0,0,1-.08-.16l.57-27.17c0-.16.25-.31.52-.31a.73.73,0,0,1,.35.09c.65.37,1.32.74,2,1.1,1.21.63,2.45,1.24,3.7,1.8.14.07.23.17.23.27l-.47,22.24c0,.11-.12.22-.29.28l-3.61,1.15-2.22.83a.58.58,0,0,1-.26,0Z" transform="translate(11.68 5.17)"/><path class="cls-17" d="M1505.15,519.12a.22.22,0,0,1,.1,0l2,1.11c1.19.62,2.41,1.21,3.65,1.78l-.2,9.52-.25,12.38-1.76.56-1.81.58-.1,0-2.14.81h-.11l.08-3.83.2-9.69.2-9.7.08-3.59h0m0-1a.94.94,0,0,0-1,.8l-.08,3.77q-.19,9.69-.4,19.39l-.09,4a1,1,0,0,0,1,.84,1.09,1.09,0,0,0,.43-.08l2.14-.8.06,0,3.62-1.16a.82.82,0,0,0,.63-.74l.26-12.55.21-9.69a.83.83,0,0,0-.53-.73c-1.18-.54-2.4-1.13-3.66-1.79-.7-.36-1.37-.73-2-1.09a1.14,1.14,0,0,0-.59-.16Z" transform="translate(11.68 5.17)"/><path class="cls-17" d="M1535.8,550.65a1.05,1.05,0,0,1-.74-.31l-.92-.88-3.64-3.84a1,1,0,0,1-.29-.75l.31-15.18a1,1,0,0,1,.35-.76l2.94-2.69,1.8-1.51a1.06,1.06,0,0,1,.69-.26,1.1,1.1,0,0,1,.79.34,1,1,0,0,1,.29.75l-.5,24A1.07,1.07,0,0,1,1535.8,550.65Z" transform="translate(11.68 5.17)"/><path class="cls-17" d="M1536.3,525a.62.62,0,0,1,.43.18.49.49,0,0,1,.15.4l-.07,3.6-.16,7.74-.16,7.81-.11,4.89a.56.56,0,0,1-.58.56.58.58,0,0,1-.4-.17l-.34-.33-.54-.51-.55-.58-3.11-3.29a.51.51,0,0,1-.15-.39l.15-7.37.16-7.81a.6.6,0,0,1,.18-.4l2.91-2.67.91-.76.91-.76a.57.57,0,0,1,.37-.14m0-1a1.58,1.58,0,0,0-1,.37l-1.82,1.53-2.94,2.69a1.55,1.55,0,0,0-.51,1.12l-.16,7.81-.15,7.37a1.55,1.55,0,0,0,.42,1.1l3.66,3.86.92.88a1.57,1.57,0,0,0,2.67-1.09l.11-4.89q.15-7.79.32-15.55l.07-3.6a1.57,1.57,0,0,0-1.58-1.6Z" transform="translate(11.68 5.17)"/><path class="cls-17" d="M1505.11,550.19a1.17,1.17,0,0,1-.81-.34,1.06,1.06,0,0,1-.3-.77l.51-24.36a1.09,1.09,0,0,1,1.11-1.06,1.06,1.06,0,0,1,.75.31l.93.89,3.69,3.89a1.1,1.1,0,0,1,.3.77L1511,544.9a1.1,1.1,0,0,1-.36.77l-3,2.73-1.82,1.53A1.06,1.06,0,0,1,1505.11,550.19Z" transform="translate(11.68 5.17)"/><path class="cls-17" d="M1505.62,524.16h0a.56.56,0,0,1,.41.17l.89.86,1.86,1.95,1.85,2a.6.6,0,0,1,.16.41l-.16,7.46-.16,7.92a.65.65,0,0,1-.19.41l-1,.94-1.92,1.76-1.84,1.54a.55.55,0,0,1-.38.15.64.64,0,0,1-.45-.19.56.56,0,0,1-.16-.41l.08-3.65.16-7.87.17-7.88.1-5a.59.59,0,0,1,.61-.57m0-1a1.59,1.59,0,0,0-1.61,1.55l-.1,5-.33,15.75-.08,3.64a1.6,1.6,0,0,0,2.63,1.25l1.84-1.55c1-.9,2-1.81,3-2.72a1.58,1.58,0,0,0,.52-1.13l.16-7.92.16-7.46a1.55,1.55,0,0,0-.44-1.12l-3.7-3.91-.93-.9a1.63,1.63,0,0,0-1.1-.44Z" transform="translate(11.68 5.17)"/><path class="cls-17" d="M1507.56,553.27a1.16,1.16,0,0,1-1.09-.72,1,1,0,0,1,.25-1.13l1-.93,4.12-3.68a1.2,1.2,0,0,1,.81-.31l16.32.34a1.27,1.27,0,0,1,.85.36l2.89,3,1.62,1.83a1,1,0,0,1,.18,1.12,1.13,1.13,0,0,1-1.08.67Z" transform="translate(11.68 5.17)"/><path class="cls-17" d="M1512.6,546l0,1,7.9.17,8.39.17a.71.71,0,0,1,.5.21l1.45,1.49,1.41,1.46.85,1,.79.88a.53.53,0,0,1,.1.59.68.68,0,0,1-.65.38h0l-3.86-.09-8.5-.17-8.18-.17-5.25-.11a.65.65,0,0,1-.63-.41.52.52,0,0,1,.13-.59l.48-.47.43-.42,2.07-1.85,2.07-1.85a.75.75,0,0,1,.48-.18v-1m0,0a1.78,1.78,0,0,0-1.15.43l-4.13,3.7-1,.93a1.59,1.59,0,0,0,1.18,2.71l5.25.11,16.68.34,3.86.08h0a1.59,1.59,0,0,0,1.28-2.63l-1.64-1.84-2.89-3a1.72,1.72,0,0,0-1.2-.52l-8.38-.17-7.91-.17Z" transform="translate(11.68 5.17)"/><path class="cls-18" d="M1507.72,517.5l-.24,0,1.5-.69,1.72-.78a1.1,1.1,0,0,1,.43-.08l20.08.42a1.25,1.25,0,0,1,.46.09l3.17,1.61-.22,0Z" transform="translate(11.68 5.17)"/><path class="cls-17" d="M1511.14,515.42l0,1h.34l19.7.41a.64.64,0,0,1,.24,0l1.26.64-23.07-.48.54-.25.74-.34a.66.66,0,0,1,.23,0v-1m0,0a1.64,1.64,0,0,0-.65.12l-3.45,1.57c-.65.3-.23.87.67.89l26.87.55h0c.87,0,1.29-.54.65-.86l-3.38-1.71a1.54,1.54,0,0,0-.67-.15l-19.7-.41h-.38Z" transform="translate(11.68 5.17)"/><path class="cls-18" d="M1511.09,519.34a1.08,1.08,0,0,1-.46-.1l-3.17-1.6.22,0,26.9.56a.78.78,0,0,1,.24,0l-1.49.69-1.73.78a1.1,1.1,0,0,1-.43.08Z" transform="translate(11.68 5.17)"/><path class="cls-17" d="M1509.6,518.16l23.07.48-1.28.58a.59.59,0,0,1-.24,0h0l-19.7-.41h-.35a.64.64,0,0,1-.24,0l-1.26-.64m-1.92-1c-.87,0-1.29.54-.65.86l3.38,1.71a1.54,1.54,0,0,0,.67.15h.35l19.69.41h0a1.64,1.64,0,0,0,.65-.13l3.45-1.56c.65-.3.23-.87-.67-.89l-26.86-.56Z" transform="translate(11.68 5.17)"/><path class="cls-17" d="M1470.47,488.62a1.23,1.23,0,0,1-.85-.37l-2.89-3-1.62-1.82a1,1,0,0,1-.18-1.12,1.14,1.14,0,0,1,1.08-.68l25.82.54a1.17,1.17,0,0,1,1.09.72,1,1,0,0,1-.25,1.13l-1,.93-4.12,3.68a1.2,1.2,0,0,1-.81.31Z" transform="translate(11.68 5.17)"/><path class="cls-17" d="M1466,481.15l0,1,3.86.08,16.68.35,5.25.11a.66.66,0,0,1,.63.4.51.51,0,0,1-.13.59l-.38.38-.53.52-2.07,1.85-2.07,1.85a.76.76,0,0,1-.5.18h0l-7.91-.17-8.38-.17a.76.76,0,0,1-.5-.21l-1.94-2-.92-1-.92-1-.72-.8a.53.53,0,0,1-.1-.59.65.65,0,0,1,.63-.38v-1m0,0a1.59,1.59,0,0,0-1.28,2.63l1.64,1.84,2.89,3a1.72,1.72,0,0,0,1.2.52l8.38.17,7.91.17h0a1.71,1.71,0,0,0,1.14-.44l4.14-3.69,1-.93a1.59,1.59,0,0,0-1.18-2.71l-5.25-.11-16.68-.35-3.86-.08Z" transform="translate(11.68 5.17)"/><path class="cls-17" d="M1494.07,516.35a.77.77,0,0,1-.34-.08c-.64-.37-1.31-.74-2-1.11-1.19-.62-2.42-1.23-3.65-1.79a.34.34,0,0,1-.22-.27l.46-22.24c0-.11.12-.22.28-.28l3.57-1.16,2.2-.83a.69.69,0,0,1,.25,0,.64.64,0,0,1,.44.16.23.23,0,0,1,.08.17l-.57,27.16c0,.17-.24.31-.5.31Z" transform="translate(11.68 5.17)"/><path class="cls-17" d="M1494.62,489.05h0l-.08,3.82-.2,9.7-.2,9.7-.07,3.58h0a.15.15,0,0,1-.09,0c-.67-.38-1.34-.75-2-1.11-1.17-.62-2.37-1.21-3.6-1.78l.2-9.52.26-12.38,1.47-.48,2-.66.1,0,2.11-.8h.08m0-1a1.25,1.25,0,0,0-.43.07l-2.12.81,0,0-3.57,1.16a.84.84,0,0,0-.63.74l-.26,12.55-.2,9.69a.8.8,0,0,0,.52.73c1.16.53,2.37,1.13,3.61,1.79.69.36,1.35.73,2,1.09a1.13,1.13,0,0,0,.59.15.92.92,0,0,0,1-.8l.08-3.76q.21-9.7.4-19.4l.09-4a.94.94,0,0,0-1-.84Z" transform="translate(11.68 5.17)"/><path class="cls-17" d="M1462.23,515.69a.64.64,0,0,1-.46-.17.22.22,0,0,1-.08-.16l.57-27.17c0-.16.25-.31.52-.31a.67.67,0,0,1,.28.06l2.11.89,3.64,1.34c.17.06.28.18.28.29l-.46,22.24a.36.36,0,0,1-.24.26c-1.28.51-2.54,1.06-3.77,1.64l-2.07,1A.66.66,0,0,1,1462.23,515.69Z" transform="translate(11.68 5.17)"/><path class="cls-17" d="M1462.78,488.38l.09,0,2.1.89.1,0,1.85.68,1.67.61-.26,12.38-.2,9.52c-1.26.51-2.51,1.06-3.72,1.63-.7.33-1.4.67-2.08,1a.2.2,0,0,1-.1,0h0l.07-3.59.2-9.67.21-9.72.08-3.83h0m0-1a1,1,0,0,0-1,.8l-.08,4q-.21,9.69-.41,19.39l-.08,3.77a1,1,0,0,0,1,.84,1.17,1.17,0,0,0,.55-.13c.66-.34,1.34-.67,2.06-1,1.28-.6,2.53-1.15,3.73-1.63a.83.83,0,0,0,.56-.71l.2-9.69.26-12.55a.84.84,0,0,0-.61-.77l-3.56-1.3-.06,0-2.1-.89a1.18,1.18,0,0,0-.48-.1Z" transform="translate(11.68 5.17)"/><path class="cls-17" d="M1493.6,511.67a1,1,0,0,1-.72-.29l-1.75-1.6-2.82-2.79a1.12,1.12,0,0,1-.31-.77l.32-15.19a1,1,0,0,1,.32-.73l3.81-3.71.94-.83a1.1,1.1,0,0,1,.71-.27,1.13,1.13,0,0,1,.79.33,1.07,1.07,0,0,1,.3.76l-.5,24a1.08,1.08,0,0,1-1.09,1.05Z" transform="translate(11.68 5.17)"/><path class="cls-17" d="M1494.1,486a.62.62,0,0,1,.43.18.54.54,0,0,1,.16.4l-.11,4.9-.17,8.23-.15,7.31-.07,3.6a.58.58,0,0,1-.59.56.56.56,0,0,1-.39-.16l-1-.94-.69-.63-1.41-1.4-1.41-1.41a.54.54,0,0,1-.17-.4l.16-7.82.16-7.37a.56.56,0,0,1,.17-.39l1.9-1.85,1.88-1.82,1-.84a.55.55,0,0,1,.38-.15m0-1a1.53,1.53,0,0,0-1,.4l-1,.84-3.81,3.71a1.56,1.56,0,0,0-.47,1.08l-.16,7.37-.16,7.82a1.56,1.56,0,0,0,.46,1.13l2.83,2.81,1.75,1.6a1.54,1.54,0,0,0,1.06.42,1.58,1.58,0,0,0,1.59-1.54l.07-3.6.32-15.54.11-4.9a1.58,1.58,0,0,0-1.59-1.6Z" transform="translate(11.68 5.17)"/><path class="cls-17" d="M1462.91,511.21a1.19,1.19,0,0,1-.81-.34,1.11,1.11,0,0,1-.3-.78l.51-24.35a1.08,1.08,0,0,1,1.11-1.06,1,1,0,0,1,.75.31l.94.89,3.68,3.89a1.1,1.1,0,0,1,.3.77l-.32,15.38a1.13,1.13,0,0,1-.35.77l-3,2.73-1.83,1.52A1,1,0,0,1,1462.91,511.21Z" transform="translate(11.68 5.17)"/><path class="cls-17" d="M1463.42,485.18h0a.56.56,0,0,1,.41.17l.49.47.4.39,2.81,3,.9.95a.6.6,0,0,1,.16.41l-.16,7.46-.16,7.92a.56.56,0,0,1-.19.41l-2,1.81-1,.91-1.82,1.52a.55.55,0,0,1-.38.15.65.65,0,0,1-.45-.19.56.56,0,0,1-.16-.41l.08-3.65.32-15.5v-.25l.1-5a.59.59,0,0,1,.61-.57m0-1a1.59,1.59,0,0,0-1.61,1.55l-.1,5-.33,15.75-.08,3.64a1.6,1.6,0,0,0,1.61,1.63,1.58,1.58,0,0,0,1-.38l1.84-1.55c1-.9,2-1.81,3-2.72a1.58,1.58,0,0,0,.52-1.13l.16-7.92.16-7.46a1.59,1.59,0,0,0-.43-1.12l-3.71-3.91-.93-.9a1.61,1.61,0,0,0-1.1-.44Z" transform="translate(11.68 5.17)"/><path class="cls-17" d="M1470.82,488.62a1.17,1.17,0,0,1-.82-.33l-4-3.87-.87-.93a1,1,0,0,1-.22-1.15,1.16,1.16,0,0,1,1.09-.69l25.82.54a1.15,1.15,0,0,1,1.08.71,1,1,0,0,1-.22,1.12l-1.72,1.77-3,2.85a1.27,1.27,0,0,1-.84.32Z" transform="translate(11.68 5.17)"/><path class="cls-17" d="M1466,481.15l0,1,5.25.11,16.41.34h.27l3.86.08a.68.68,0,0,1,.63.4.51.51,0,0,1-.12.58l-1.68,1.74-1.51,1.43-1.51,1.43a.71.71,0,0,1-.51.19h0l-8.38-.17-7.91-.17a.73.73,0,0,1-.49-.19l-2.16-2.1-1.78-1.73-.91-1a.52.52,0,0,1-.11-.59.66.66,0,0,1,.63-.39v-1m0,0a1.59,1.59,0,0,0-1.25,2.66c.3.32.6.65.91,1l4,3.86a1.65,1.65,0,0,0,1.16.48l7.91.17,8.38.17h0a1.7,1.7,0,0,0,1.18-.46l3-2.86,1.72-1.77a1.59,1.59,0,0,0-1.21-2.68l-3.86-.08-16.68-.35-5.25-.11Z" transform="translate(11.68 5.17)"/><path class="cls-17" d="M1493.45,546.2a.67.67,0,0,1-.28-.06l-2.08-.89-3.59-1.34c-.17-.06-.28-.18-.28-.29l.47-22.24c0-.09.09-.19.23-.25,1.26-.52,2.51-1.07,3.72-1.65q1.06-.51,2-1a.82.82,0,0,1,.31-.07.61.61,0,0,1,.45.17.2.2,0,0,1,.08.16l-.57,27.17C1494,546.05,1493.71,546.2,1493.45,546.2Z" transform="translate(11.68 5.17)"/><path class="cls-17" d="M1494,518.89h0l-.07,3.59-.2,9.34-.2,10-.08,3.83h0l-.08,0-2.08-.89-.1,0-3.46-1.29.25-12.37.2-9.53c1.24-.51,2.48-1.06,3.67-1.63.7-.33,1.39-.67,2.06-1a.15.15,0,0,1,.09,0m0-1a1.16,1.16,0,0,0-.54.13c-.65.34-1.32.67-2,1-1.27.61-2.5,1.15-3.69,1.64a.78.78,0,0,0-.54.7l-.21,9.69-.26,12.55a.85.85,0,0,0,.6.77l3.52,1.31.05,0,2.08.89a1.18,1.18,0,0,0,.48.1.92.92,0,0,0,1-.8l.09-4q.2-9.69.4-19.39l.08-3.77a.94.94,0,0,0-1-.84Z" transform="translate(11.68 5.17)"/><path class="cls-17" d="M1461.61,545.54a.68.68,0,0,1-.46-.17.23.23,0,0,1-.08-.17l.57-27.16c0-.17.24-.31.52-.31a.73.73,0,0,1,.35.09c.65.36,1.32.73,2,1.1,1.21.63,2.45,1.24,3.69,1.8a.33.33,0,0,1,.24.27l-.47,22.23c0,.11-.12.23-.29.28l-3.61,1.16-2.22.83a.75.75,0,0,1-.26,0Z" transform="translate(11.68 5.17)"/><path class="cls-17" d="M1462.16,518.23a.22.22,0,0,1,.1,0c.67.38,1.36.75,2,1.11,1.19.62,2.41,1.22,3.65,1.79l-.2,9.51L1467.5,543l-1.56.5-2,.64-.1,0-2.14.8-.08,0h0l.08-3.82,0-1.15.38-18.24.07-3.59h0m0-1a.93.93,0,0,0-1,.8l-.08,3.76q-.19,9.71-.4,19.4l-.09,4a1,1,0,0,0,1,.85,1.31,1.31,0,0,0,.43-.08l2.14-.81.06,0,3.61-1.15a.84.84,0,0,0,.64-.75l.26-12.54.2-9.69a.8.8,0,0,0-.52-.74c-1.18-.53-2.4-1.12-3.66-1.78-.7-.37-1.37-.73-2-1.1a1.23,1.23,0,0,0-.59-.15Z" transform="translate(11.68 5.17)"/><path class="cls-17" d="M1492.81,549.75a1,1,0,0,1-.74-.3l-.92-.88-3.64-3.85a1,1,0,0,1-.29-.74l.31-15.19a1.06,1.06,0,0,1,.35-.76l2.94-2.69,1.8-1.51a1.1,1.1,0,0,1,.69-.25,1.13,1.13,0,0,1,.79.33,1,1,0,0,1,.29.76l-.5,24A1.06,1.06,0,0,1,1492.81,549.75Z" transform="translate(11.68 5.17)"/><path class="cls-17" d="M1493.31,524.08a.62.62,0,0,1,.43.18.49.49,0,0,1,.15.4l-.07,3.6-.32,15.54-.11,4.9a.56.56,0,0,1-.58.55.57.57,0,0,1-.4-.16l-.69-.67-.19-.18-1.91-2-1.75-1.85a.53.53,0,0,1-.15-.39l.15-7.37.16-7.82a.57.57,0,0,1,.18-.4l2.91-2.66,1.36-1.14.46-.38a.52.52,0,0,1,.37-.14m0-1a1.52,1.52,0,0,0-1,.37l-1.82,1.52-2.94,2.69a1.57,1.57,0,0,0-.51,1.12l-.16,7.81-.15,7.37a1.57,1.57,0,0,0,.42,1.11l3.66,3.86.92.88a1.54,1.54,0,0,0,1.09.44,1.56,1.56,0,0,0,1.58-1.53l.11-4.9q.15-7.77.32-15.54l.07-3.6a1.57,1.57,0,0,0-1.58-1.6Z" transform="translate(11.68 5.17)"/><path class="cls-17" d="M1462.12,549.29a1.13,1.13,0,0,1-.81-.34,1,1,0,0,1-.3-.77l.51-24.35a1.09,1.09,0,0,1,1.11-1.07,1.11,1.11,0,0,1,.75.31l.93.89,3.69,3.9a1.09,1.09,0,0,1,.3.76L1468,544a1.1,1.1,0,0,1-.36.78l-3,2.72-1.82,1.53A1.06,1.06,0,0,1,1462.12,549.29Z" transform="translate(11.68 5.17)"/><path class="cls-17" d="M1462.63,523.26h0a.56.56,0,0,1,.4.17l.64.61.26.25.9,1,2.81,3a.62.62,0,0,1,.16.41l-.16,7.47-.16,7.91a.65.65,0,0,1-.19.42l-3,2.69-.92.78-.92.77a.59.59,0,0,1-.38.14.64.64,0,0,1-.45-.19.56.56,0,0,1-.16-.41l.08-3.64.32-15.75.11-5a.6.6,0,0,1,.61-.58m0-1a1.6,1.6,0,0,0-1.61,1.56l-.1,5-.33,15.74-.08,3.65a1.59,1.59,0,0,0,1.61,1.62,1.53,1.53,0,0,0,1-.38l1.84-1.54,3-2.72a1.62,1.62,0,0,0,.52-1.14l.16-7.91.16-7.47a1.63,1.63,0,0,0-.44-1.12c-1.23-1.3-2.47-2.6-3.7-3.91l-.93-.89a1.59,1.59,0,0,0-1.1-.45Z" transform="translate(11.68 5.17)"/><path class="cls-17" d="M1464.57,552.37a1.16,1.16,0,0,1-1.09-.72,1,1,0,0,1,.25-1.13l1-.93,4.12-3.68a1.25,1.25,0,0,1,.81-.3l16.32.34a1.22,1.22,0,0,1,.85.36l2.89,3,1.62,1.83a1,1,0,0,1,.18,1.12,1.15,1.15,0,0,1-1.08.67Z" transform="translate(11.68 5.17)"/><path class="cls-17" d="M1469.61,545.11l0,1,7.9.16,8.39.18a.71.71,0,0,1,.5.21l1.44,1.49,1.42,1.46.71.79.93,1.05a.52.52,0,0,1,.1.58.68.68,0,0,1-.65.38h0l-3.86-.08-16.68-.35-5.25-.11a.64.64,0,0,1-.63-.4.52.52,0,0,1,.13-.59l.51-.5.4-.4,2.07-1.85,2.07-1.85a.74.74,0,0,1,.48-.17v-1m0,0a1.71,1.71,0,0,0-1.15.43q-2.07,1.85-4.13,3.7l-.95.93a1.58,1.58,0,0,0,1.18,2.7l5.25.11,16.68.35,3.86.08h0a1.59,1.59,0,0,0,1.27-2.63c-.54-.61-1.09-1.22-1.63-1.84-1-1-1.93-2-2.89-3a1.73,1.73,0,0,0-1.2-.51l-8.39-.18-7.9-.16Z" transform="translate(11.68 5.17)"/><path class="cls-18" d="M1464.73,516.6l-.24,0,3.22-1.48a1.11,1.11,0,0,1,.43-.07l20.07.41a1.26,1.26,0,0,1,.47.1l3.17,1.6-.22,0Z" transform="translate(11.68 5.17)"/><path class="cls-17" d="M1468.14,514.53l0,1h.35l19.69.41a.82.82,0,0,1,.25,0l1.26.63-23.07-.48.84-.38.44-.2a.63.63,0,0,1,.22,0v-1m0,0a1.62,1.62,0,0,0-.64.12l-3.45,1.57c-.65.3-.23.86.67.88l26.86.56h.05c.87,0,1.29-.53.65-.86l-3.38-1.71a1.7,1.7,0,0,0-.67-.15l-19.7-.41h-.39Z" transform="translate(11.68 5.17)"/><path class="cls-18" d="M1468.1,518.45a1.2,1.2,0,0,1-.46-.1l-3.17-1.6a.75.75,0,0,1,.22,0l26.9.56.24,0-1.5.69-1.72.79a1.13,1.13,0,0,1-.44.07Z" transform="translate(11.68 5.17)"/><path class="cls-17" d="M1466.61,517.27l23.07.48-1.28.58a.69.69,0,0,1-.24,0h0l-19.69-.41h-.35a.8.8,0,0,1-.24-.05l-1.26-.63m-1.92-1c-.87,0-1.29.53-.65.86l3.38,1.71a1.7,1.7,0,0,0,.67.15h.35l19.69.41h0a1.64,1.64,0,0,0,.65-.12l3.45-1.57c.65-.3.23-.86-.67-.88l-26.87-.56Z" transform="translate(11.68 5.17)"/><path class="cls-14" d="M573.52,566.5c18.53,0,30.85-24.08,23.13-45.23l-20.23-55.38c-4.44-12.14-14.43-19.54-25-18.54L355.76,465.82c-8.37.79-15.89,6.71-20.1,15.82l-17.07,36.92c-9.83,21.28,2.4,47.94,22,47.94Z" transform="translate(11.68 5.17)"/><path class="cls-19" d="M373.63,507c-5.15-11.82-17.83-16.52-26.24-12.66C336.6,499.27,336,516.89,342,524.39c3.86,4.8,9,3.73,18.14,7.46,10.88,4.47,18.26,12.07,23,18.35,1.28-7.07,4.16-16.26,11.38-23.88,6.53-6.87,11.78-7.37,14.1-13.57,3.07-8.18-.51-22.23-10.65-24.9-6.66-1.75-14.56,1.83-19.33,8.92" transform="translate(11.68 5.17)"/><path class="cls-20" d="M452.32,498.91c-5.15-11.82-17.83-16.53-26.24-12.67-10.8,5-11.42,22.57-5.36,30.08,3.87,4.79,9.06,3.72,18.15,7.46,10.88,4.46,18.25,12.06,23,18.34,1.27-7.06,4.15-16.26,11.38-23.87,6.53-6.88,11.78-7.38,14.1-13.57,3.07-8.18-.52-22.23-10.65-24.9-6.66-1.75-14.56,1.83-19.33,8.91" transform="translate(11.68 5.17)"/><path class="cls-21" d="M532,492c-5.15-11.81-17.83-16.52-26.24-12.66-10.8,5-11.42,22.57-5.36,30.08,3.87,4.79,9.06,3.72,18.15,7.46,10.88,4.46,18.25,12.06,23,18.34,1.27-7.07,4.15-16.26,11.38-23.87,6.53-6.88,11.78-7.38,14.1-13.57,3.07-8.19-.52-22.23-10.65-24.9-6.66-1.75-14.56,1.83-19.33,8.91" transform="translate(11.68 5.17)"/><path class="cls-17" d="M373.63,507c-5.15-11.82-17.83-16.52-26.24-12.66C336.6,499.27,336,516.89,342,524.39c3.86,4.8,9,3.73,18.14,7.46,10.88,4.47,18.26,12.07,23,18.35,1.28-7.07,4.16-16.26,11.38-23.88,6.53-6.87,11.78-7.37,14.1-13.57,3.07-8.18-.51-22.23-10.65-24.9-6.66-1.75-14.56,1.83-19.33,8.92" transform="translate(11.68 5.17)"/><path class="cls-17" d="M452.32,498.91c-5.15-11.82-17.83-16.53-26.24-12.67-10.8,5-11.42,22.57-5.36,30.08,3.87,4.79,9.06,3.72,18.15,7.46,10.88,4.46,18.25,12.06,23,18.34,1.27-7.06,4.15-16.26,11.38-23.87,6.53-6.88,11.78-7.38,14.1-13.57,3.07-8.18-.52-22.23-10.65-24.9-6.66-1.75-14.56,1.83-19.33,8.91" transform="translate(11.68 5.17)"/><path class="cls-17" d="M532,492c-5.15-11.81-17.83-16.52-26.24-12.66-10.8,5-11.42,22.57-5.36,30.08,3.87,4.79,9.06,3.72,18.15,7.46,10.88,4.46,18.25,12.06,23,18.34,1.27-7.07,4.15-16.26,11.38-23.87,6.53-6.88,11.78-7.38,14.1-13.57,3.07-8.19-.52-22.23-10.65-24.9-6.66-1.75-14.56,1.83-19.33,8.91" transform="translate(11.68 5.17)"/></g></svg>