<svg id="Layer_1" data-name="Layer 1" xmlns="http://www.w3.org/2000/svg" viewBox="0 0 1685.81 279.96"><defs><style>.cls-1{fill:#fff;stroke:#000;stroke-miterlimit:10;}.cls-2{fill:#504b6a;}</style></defs><path class="cls-1" d="M1705.5,640.5" transform="translate(-117.71 -801.15)"/><path class="cls-2" d="M1040,1080.61q-362.43,0-724.86,0c-58.27,0-116.53.34-174.8.47a109.73,109.73,0,0,1-13.52-.65c-7.7-.94-10.74-3.56-8.27-7.31a102.87,102.87,0,0,1,8.42-10.28q54.25-62.52,108.54-125,51.14-59,102.11-118c3.84-4.43,7.65-8.88,11.55-13.3a15.42,15.42,0,0,1,3.31-2.93c5.52-3.48,14-3.21,18.32.64a24.12,24.12,0,0,1,3.92,4.92q30.58,44.82,61.09,89.63c3.81,5.61,2.49,4.89,14.23,5q64.44.53,128.87,1.06,53.69.45,107.38.95,57.6.5,115.19,1c15.93.15,31.86.64,47.78.61,8.79,0,15,1.71,19.63,5.18q18.58,13.88,37.15,27.77c16.15,12.07,32.27,24.16,48.52,36.21,4.42,3.27,5.8,3.26,10.08-.08q35.21-27.54,70.24-55.12c4.16-3.27,8.59-6.45,12.56-9.77,4.4-3.67,10.32-5.23,19.23-5.25q133.8-.3,267.59-.92,78.12-.33,156.23-.79c8.63,0,8.68-.07,11-4.38q22.41-42,44.79-83.92a30,30,0,0,1,2.16-3.71c2.41-3.33,5.55-4.61,10.91-4.68,5.82-.07,8.84,1.67,11,4q4.18,4.63,8.32,9.26,25.25,28.24,50.47,56.5c18.11,20.31,36.11,40.65,54.25,60.95,13.94,15.59,28.09,31.14,42,46.74q27.84,31.11,55.51,62.25c6,6.78,12.15,13.53,18.23,20.29.66.74,1.43,1.45,2,2.2,5,6.16,2.3,8.62-11.09,9.37-9.66.54-19.41,1-29.12,1q-360.46.07-720.95,0Z" transform="translate(-117.71 -801.15)"/></svg>