<svg id="Layer_5" data-name="Layer 5" xmlns="http://www.w3.org/2000/svg" viewBox="0 0 1919 481.17"><defs><style>.cls-1{fill:#fff;stroke:#000;stroke-miterlimit:10;stroke-width:6px;}</style></defs><path class="cls-1" d="M1425.69,635.8l-6.1-8.22a11.11,11.11,0,0,1,5.3-17.12c22.24-7.67,66.41-17.88,97,7.73a11.31,11.31,0,0,0,7.36,2.7c18.83-.2,96,2,131.79,50.11,0,0,60,73,170,105,0,0,55.19,19.2,81.93,36.45a11.08,11.08,0,0,1,5.07,9.32v244.12a11.1,11.1,0,0,1-11.11,11.11h-104a11.1,11.1,0,0,1-8.13-3.54l-249.57-268.2c-.16-.17-.31-.35-.46-.53L1487,734.16a11.06,11.06,0,0,0-11.74-3.62c-12.35,3.72-39.71,7.47-64.3-20.28-25.18-28.44-4.36-49.15,11.37-58.25A11.1,11.1,0,0,0,1425.69,635.8Z" transform="translate(-2 -598.83)"/><path class="cls-1" d="M1490,659s-15.75-19-63-12" transform="translate(-2 -598.83)"/><path class="cls-1" d="M497.31,635.8l6.1-8.22a11.11,11.11,0,0,0-5.3-17.12c-22.24-7.67-66.41-17.88-97,7.73a11.31,11.31,0,0,1-7.36,2.7c-18.83-.2-96,2-131.79,50.11,0,0-60,73-170,105,0,0-55.19,19.2-81.93,36.45A11.08,11.08,0,0,0,5,821.77v244.12A11.1,11.1,0,0,0,16.11,1077h104a11.1,11.1,0,0,0,8.13-3.54l249.57-268.2c.16-.17.31-.35.46-.53L436,734.16a11.06,11.06,0,0,1,11.74-3.62c12.35,3.72,39.71,7.47,64.3-20.28,25.18-28.44,4.36-49.15-11.37-58.25A11.1,11.1,0,0,1,497.31,635.8Z" transform="translate(-2 -598.83)"/><path class="cls-1" d="M433,659s15.75-19,63-12" transform="translate(-2 -598.83)"/></svg>