<svg id="Layer_8" data-name="Layer 8" xmlns="http://www.w3.org/2000/svg" viewBox="0 0 151.52 106.06"><defs><style>.cls-1{fill:#964e52;stroke:#964e52;}.cls-1,.cls-2,.cls-3,.cls-4,.cls-6,.cls-7,.cls-8{stroke-miterlimit:10;}.cls-2{fill:#bf6368;stroke:#bf6368;}.cls-3,.cls-5,.cls-8{fill:#a15c5f;}.cls-3,.cls-4,.cls-6,.cls-7,.cls-8{stroke:#a15c5f;}.cls-4,.cls-6,.cls-7{fill:none;}.cls-4,.cls-8{stroke-width:3px;}.cls-7{stroke-width:9px;}</style></defs><g id="Battle_Cat" data-name="Battle Cat"><path class="cls-1" d="M649.23,358.66c-17.45,14.91-42,16.14-56.53,16.87s-48.39,2.42-67-15.52a37.08,37.08,0,0,1-10.85-32.37c2.09-14,11.79-23.35,15.74-26.8a38,38,0,0,1-.63-12c.55-5.29,1.31-12.54,5.37-13.48s7.32,5.49,18.53,10.38a56.89,56.89,0,0,0,15.51,4.17,126.14,126.14,0,0,1,53.33-2,91.17,91.17,0,0,0,12.83-5.34c11.54-5.89,15.38-11.15,18.69-10.21s3,7.48,2.62,13.37a52.28,52.28,0,0,1-3,14.36c3.32,3.66,11,13.13,11.08,26.53C665,329.41,664.82,345.34,649.23,358.66Z" transform="translate(-513.98 -270.38)"/><path class="cls-2" d="M647.28,354.54c-16.91,14.45-40.7,15.64-54.77,16.34s-46.88,2.35-64.87-15a36,36,0,0,1-10.52-31.36c2-13.54,11.43-22.64,15.25-26a37.26,37.26,0,0,1-.61-11.6c.53-5.13,1.27-12.15,5.21-13.06s7.09,5.32,17.95,10.06a55.65,55.65,0,0,0,15,4,122.29,122.29,0,0,1,51.68-1.91,88.71,88.71,0,0,0,12.43-5.18c11.18-5.7,14.89-10.8,18.1-9.89s2.89,7.25,2.54,12.95a50.54,50.54,0,0,1-2.87,13.92c3.23,3.54,10.64,12.72,10.74,25.7C662.58,326.2,662.39,341.64,647.28,354.54Z" transform="translate(-513.98 -270.38)"/><ellipse class="cls-3" cx="558.05" cy="320.25" rx="4.72" ry="4.04" transform="translate(-536.66 -227.14) rotate(-4.35)"/><ellipse class="cls-3" cx="622.06" cy="317.41" rx="4.72" ry="4.04" transform="translate(-536.26 -222.29) rotate(-4.35)"/><path class="cls-4" d="M572.8,329.07c.08,5.17,1.7,9.75,4.38,10.59,3.33,1,9.24-3.41,12.05-12.36-.11,9.33,6.28,15.13,10.76,14.6,3.62-.43,7.23-5.16,7.89-11.41" transform="translate(-513.98 -270.38)"/><ellipse class="cls-5" cx="589.71" cy="322.98" rx="4.72" ry="3.03" transform="translate(-536.77 -224.73) rotate(-4.35)"/><ellipse class="cls-6" cx="589.71" cy="322.98" rx="4.72" ry="3.03" transform="translate(-536.77 -224.73) rotate(-4.35)"/><path class="cls-7" d="M556.68,305.78,589.14,314l39-10.86" transform="translate(-513.98 -270.38)"/><path class="cls-8" d="M576.9,339.48c-.85,6.5,2.26,12.38,6.74,14.16,5.88,2.33,14.89-2.11,16.85-11.46a11,11,0,0,1-8.76-2.7,10.48,10.48,0,0,1-2.7-4.71c-.38-1.47-.32-2.65-.67-2.7s-.76,2.19-2.7,4.72a9.55,9.55,0,0,1-2,2,6.68,6.68,0,0,1-3.37,1.35A6.32,6.32,0,0,1,576.9,339.48Z" transform="translate(-513.98 -270.38)"/></g></svg>