<svg id="Layer_9" data-name="Layer 9" xmlns="http://www.w3.org/2000/svg" viewBox="0 0 151.52 106.06"><defs><style>.cls-1,.cls-5,.cls-7{fill:none;}.cls-1,.cls-4,.cls-5,.cls-7,.cls-8{stroke:#898fa7;}.cls-1,.cls-2,.cls-3,.cls-4,.cls-5,.cls-7,.cls-8{stroke-miterlimit:10;}.cls-1{stroke-width:9px;}.cls-2{fill:#716d87;stroke:#716d87;}.cls-3{fill:#9399b1;stroke:#9399b1;}.cls-4,.cls-6,.cls-8{fill:#898fa7;}.cls-5,.cls-8{stroke-width:3px;}</style></defs><path class="cls-1" d="M555.68,301.06l32.46,8.17,39-10.86" transform="translate(-512.98 -270.38)"/><g id="Battle_Cat" data-name="Battle Cat"><path class="cls-2" d="M648.23,358.66c-17.45,14.91-42,16.14-56.53,16.87s-48.39,2.42-67-15.52a37.08,37.08,0,0,1-10.85-32.37c2.09-14,11.79-23.35,15.74-26.8a38,38,0,0,1-.63-12c.55-5.29,1.31-12.54,5.37-13.48s7.32,5.49,18.53,10.38a56.89,56.89,0,0,0,15.51,4.17,126.14,126.14,0,0,1,53.33-2,91.17,91.17,0,0,0,12.83-5.34c11.54-5.89,15.38-11.15,18.69-10.21s3,7.48,2.62,13.37a52.28,52.28,0,0,1-3,14.36c3.32,3.66,11,13.13,11.08,26.53C664,329.41,663.82,345.34,648.23,358.66Z" transform="translate(-512.98 -270.38)"/><path class="cls-3" d="M646.28,354.54c-16.91,14.45-40.7,15.64-54.77,16.34s-46.88,2.35-64.87-15a36,36,0,0,1-10.52-31.36c2-13.54,11.43-22.64,15.25-26a37.26,37.26,0,0,1-.61-11.6c.53-5.13,1.27-12.15,5.21-13.06s7.09,5.32,17.95,10.06a55.65,55.65,0,0,0,15,4,122.29,122.29,0,0,1,51.68-1.91,88.71,88.71,0,0,0,12.43-5.18c11.18-5.7,14.89-10.8,18.1-9.89s2.89,7.25,2.54,12.95a50.54,50.54,0,0,1-2.87,13.92c3.23,3.54,10.64,12.72,10.74,25.7C661.58,326.2,661.39,341.64,646.28,354.54Z" transform="translate(-512.98 -270.38)"/><ellipse class="cls-4" cx="557.05" cy="315.54" rx="4.72" ry="4.04" transform="translate(-535.3 -227.23) rotate(-4.35)"/><ellipse class="cls-4" cx="621.06" cy="312.7" rx="4.72" ry="4.04" transform="translate(-534.9 -222.38) rotate(-4.35)"/><path class="cls-5" d="M571.13,329.07c.07,5.17,1.69,9.75,4.37,10.59,3.33,1,9.25-3.41,12.06-12.36-.12,9.33,6.28,15.13,10.75,14.6,3.63-.43,7.24-5.16,7.9-11.41" transform="translate(-512.98 -270.38)"/><ellipse class="cls-6" cx="588.04" cy="322.98" rx="4.72" ry="3.03" transform="translate(-535.78 -224.85) rotate(-4.35)"/><ellipse class="cls-7" cx="588.04" cy="322.98" rx="4.72" ry="3.03" transform="translate(-535.78 -224.85) rotate(-4.35)"/><path class="cls-8" d="M575.23,339.48c-.85,6.5,2.26,12.38,6.74,14.16,5.87,2.33,14.88-2.11,16.85-11.46a11,11,0,0,1-8.77-2.7,10.52,10.52,0,0,1-2.69-4.71c-.38-1.47-.32-2.65-.68-2.7s-.76,2.19-2.69,4.72a9.55,9.55,0,0,1-2,2,6.68,6.68,0,0,1-3.37,1.35A6.32,6.32,0,0,1,575.23,339.48Z" transform="translate(-512.98 -270.38)"/></g></svg>