<svg id="Layer_6" data-name="Layer 6" xmlns="http://www.w3.org/2000/svg" viewBox="0 0 113 37.53"><defs><style>.cls-1,.cls-2{fill:#8621fe;}.cls-2{fill-rule:evenodd;}</style></defs><path class="cls-1" d="M406,457.16h0l-1.05-.55c-.66-.32-1.29-.61-1.91-.87l0-5-.09-6.53,1.79-.59,1.11-.48.09,2,.17,12.06Z" transform="translate(-389 -438.53)"/><path class="cls-1" d="M405.36,443.89l0,1.28.07,5.05.07,5v1.08c-.12-.07-.25-.13-.38-.19-.52-.26-1.06-.51-1.61-.75l-.06-4.65-.08-6.11.65-.24.8-.3,0,0h0l.43-.19m.48-1.24a.64.64,0,0,0-.24.05l-1.07.46h0l-1.8.67a.43.43,0,0,0-.31.39l.09,6.54.07,5.05a.42.42,0,0,0,.28.37c.6.25,1.23.54,1.88.86l1,.54a.72.72,0,0,0,.28.07.49.49,0,0,0,.53-.44l0-2-.14-10.1,0-2.09a.48.48,0,0,0-.51-.42Z" transform="translate(-389 -438.53)"/><path class="cls-1" d="M389.74,457.38h-.06v-1.88l-.17-12.18.07.07,1.1.43,1.89.64.08,6.45.06,5.05a13.15,13.15,0,0,0-1.88.85l-1,.57Z" transform="translate(-389 -438.53)"/><path class="cls-1" d="M390,444.09l.48.19.05,0h0l1.49.49.09,6.11.06,4.65c-.54.25-1.08.52-1.61.79l-.41.22v-1.09l-.11-8.09,0-2,0-1.29m-.48-1.21a.49.49,0,0,0-.53.43l0,2.09c.05,3.36.09,6.73.14,10.1l0,2a.48.48,0,0,0,.52.42.54.54,0,0,0,.3-.08l1-.56c.65-.34,1.28-.64,1.88-.92a.4.4,0,0,0,.27-.38l-.06-5-.09-6.54a.45.45,0,0,0-.33-.39l-1.84-.61h0l-1.09-.43a.62.62,0,0,0-.23,0Z" transform="translate(-389 -438.53)"/><path class="cls-1" d="M405.7,454.73a.32.32,0,0,1-.2-.08l-.92-.8-1.48-1.4a.33.33,0,0,1-.1-.23l-.11-7.9a.32.32,0,0,1,.09-.23l1.88-2,.46-.44a.28.28,0,0,1,.2-.09.33.33,0,0,1,.32.32l.17,12.52a.29.29,0,0,1-.09.22A.32.32,0,0,1,405.7,454.73Z" transform="translate(-389 -438.53)"/><path class="cls-1" d="M405.34,442.33l0,2.11.11,8.1,0,1.45-.56-.49-1.44-1.36-.06-4-.05-3.77,1.1-1.15.7-.75.15-.15m.18-1.26a.77.77,0,0,0-.55.23l-.47.45-1.89,2a.87.87,0,0,0-.22.57l.05,3.84.06,4.07a.84.84,0,0,0,.26.59l1.49,1.41.92.8a.85.85,0,0,0,.53.2.82.82,0,0,0,.81-.83l0-1.88-.11-8.09,0-2.55a.82.82,0,0,0-.82-.81Z" transform="translate(-389 -438.53)"/><path class="cls-1" d="M390,455a.32.32,0,0,1-.32-.32L389.5,442a.32.32,0,0,1,.09-.23.31.31,0,0,1,.24-.1.27.27,0,0,1,.2.08l.49.45,2,1.95a.37.37,0,0,1,.1.23l.11,8a.37.37,0,0,1-.1.24l-1.47,1.47-.9.82A.28.28,0,0,1,390,455Z" transform="translate(-389 -438.53)"/><path class="cls-1" d="M390,442.44l.14.12,1.92,1.92.05,3.82.05,4.05-1.39,1.39-.61.56,0-1.49L390,444.6l0-2.16m-.18-1.24a.83.83,0,0,0-.83.83l0,2.59.11,8.2,0,1.9a.82.82,0,0,0,1.37.6l.91-.84,1.47-1.47a.84.84,0,0,0,.25-.6l-.06-4.12-.05-3.89a.83.83,0,0,0-.25-.57l-2-2-.49-.45a.79.79,0,0,0-.54-.21Z" transform="translate(-389 -438.53)"/><path class="cls-1" d="M406.24,472.7h0l-1.08-.43-1.87-.63-.07-6.46-.07-5.05a12.86,12.86,0,0,0,1.86-.84l1-.57.07-.09.19,14.15Z" transform="translate(-389 -438.53)"/><path class="cls-1" d="M405.58,459.52v1.07l.07,5.05.07,5.05,0,1.29-.44-.18-.06,0h0l-.78-.26-.69-.24-.08-6.11-.07-4.65c.54-.25,1.07-.52,1.59-.79l.38-.2m.47-1.32a.66.66,0,0,0-.3.07q-.48.28-1,.57c-.64.33-1.26.64-1.85.91a.43.43,0,0,0-.27.38l.07,5.05.09,6.53a.43.43,0,0,0,.32.39l1.82.62h0l1.08.43a.54.54,0,0,0,.22,0,.49.49,0,0,0,.52-.44l0-2.08-.14-10.1,0-2a.48.48,0,0,0-.52-.42Z" transform="translate(-389 -438.53)"/><path class="cls-1" d="M390,472.92h-.05v-2l-.16-12.06.08.08,1.06.54c.66.33,1.31.62,1.93.88l0,5,.09,6.54-1.69.54-.12.05-1.13.47Z" transform="translate(-389 -438.53)"/><path class="cls-1" d="M390.25,459.72l.41.2c.53.26,1.08.51,1.63.75l.06,4.65.09,6.11L391,472l0,0h0l-.46.19,0-1.29-.14-10.1v-1.08m-.49-1.3a.48.48,0,0,0-.52.44l0,2q.08,5,.14,10.1l0,2.08a.48.48,0,0,0,.52.42.49.49,0,0,0,.24-.05l1.08-.45h0l1.83-.67a.43.43,0,0,0,.31-.4l-.09-6.53-.07-5.05a.41.41,0,0,0-.28-.37c-.61-.26-1.25-.55-1.9-.87-.37-.17-.72-.35-1.05-.53a.59.59,0,0,0-.29-.07Z" transform="translate(-389 -438.53)"/><path class="cls-1" d="M406,474.56a.32.32,0,0,1-.2-.08l-.49-.44-1.92-1.93a.36.36,0,0,1-.09-.22l-.11-7.91a.33.33,0,0,1,.09-.23l1.46-1.45.89-.81a.3.3,0,0,1,.2-.08.31.31,0,0,1,.31.31l.17,12.52a.32.32,0,0,1-.09.23A.36.36,0,0,1,406,474.56Z" transform="translate(-389 -438.53)"/><path class="cls-1" d="M405.61,462.15l0,1.45.11,8v.08l0,2.11-.11-.11-1.3-1.3-.59-.59,0-3.77-.06-4,.43-.43.94-.94.45-.41.13-.12m.19-1.24a.77.77,0,0,0-.54.21l-.9.83-1.46,1.45a.85.85,0,0,0-.24.59l.06,4.07,0,3.84a.8.8,0,0,0,.24.56l1.94,2,.48.44a.77.77,0,0,0,.54.21.8.8,0,0,0,.81-.83l0-2.55c0-2.7-.07-5.39-.11-8.09l0-1.88a.81.81,0,0,0-.81-.8Z" transform="translate(-389 -438.53)"/><path class="cls-1" d="M390.27,474.87a.32.32,0,0,1-.32-.32l-.17-12.69a.32.32,0,0,1,.09-.23.3.3,0,0,1,.44,0l.49.44,1.94,2a.32.32,0,0,1,.1.22l.11,8a.35.35,0,0,1-.1.24L391.38,474l-.9.82A.29.29,0,0,1,390.27,474.87Z" transform="translate(-389 -438.53)"/><path class="cls-1" d="M390.28,462.27l.15.13.78.79,1.13,1.13.05,3.82.06,4.05-.79.79-.6.6-.61.56,0-1.5-.12-8.2,0-2.17M390.1,461a.82.82,0,0,0-.82.84l0,2.58.12,8.2,0,1.9a.83.83,0,0,0,.82.82.8.8,0,0,0,.55-.22l.91-.83,1.48-1.47a.89.89,0,0,0,.24-.6l-.06-4.12-.05-3.89a.84.84,0,0,0-.24-.58l-2-2-.49-.44a.78.78,0,0,0-.54-.22Z" transform="translate(-389 -438.53)"/><path class="cls-2" d="M392.92,458.76h-.1l-.82-.42,11.82-.16-.8.43s0,0-.1,0Z" transform="translate(-389 -438.53)"/><path class="cls-1" d="M404.62,457.66h0l-13.4.19c-.45,0-.66.31-.33.47l1.71.87a.7.7,0,0,0,.33.07h.18l9.82-.14a.71.71,0,0,0,.34-.08l1.69-.91c.32-.17.11-.47-.33-.47Z" transform="translate(-389 -438.53)"/><path class="cls-2" d="M392.8,457.38a.2.2,0,0,1,.11,0l10-.14c.06,0,.1,0,.1,0l.82.41-11.82.16Z" transform="translate(-389 -438.53)"/><path class="cls-1" d="M402.9,456.72h0l-9.82.14h-.17a.71.71,0,0,0-.34.08l-1.69.91c-.32.17-.11.47.33.47h0l13.39-.18c.45,0,.66-.32.34-.48l-1.72-.87a.84.84,0,0,0-.33-.07Z" transform="translate(-389 -438.53)"/><path class="cls-1" d="M414.25,442.28a.35.35,0,0,1-.26-.11l-1.54-1.5-.85-.91a.31.31,0,0,1-.06-.34.34.34,0,0,1,.33-.21l13.19-.18a.35.35,0,0,1,.34.21.31.31,0,0,1-.06.34l-.47.5-2,2a.4.4,0,0,1-.26.1Z" transform="translate(-389 -438.53)"/><path class="cls-1" d="M424.69,439.53l-.15.17-2,1.95h0l-4,.06-4.24,0-.56-.55-.9-.87-.6-.65,1.62,0,8.36-.11h.17l2.31,0m.38-1h0l-2.68,0-8.53.12-2,0a.83.83,0,0,0-.62,1.39l.86.93,1.53,1.5a.9.9,0,0,0,.62.25h0l4.29-.06,4-.06a.89.89,0,0,0,.6-.24l2.05-2,.46-.5a.83.83,0,0,0-.63-1.39Z" transform="translate(-389 -438.53)"/><path class="cls-1" d="M410.51,456.51h-.06v-1.88l-.17-12.18.08.08,1.09.43,1.89.63.08,6.46.07,5a14.46,14.46,0,0,0-1.89.85l-1.05.57Z" transform="translate(-389 -438.53)"/><path class="cls-1" d="M410.8,443.23l.48.18.05,0h0l1.49.5.09,6.1.06,4.65c-.54.26-1.08.52-1.61.8l-.4.21,0-1.08-.07-5.11-.07-5,0-1.29m-.48-1.22a.49.49,0,0,0-.53.44l0,2.08c.05,3.37.09,6.73.14,10.1l0,2a.48.48,0,0,0,.52.42.54.54,0,0,0,.3-.08l1-.56c.65-.34,1.28-.64,1.88-.91a.45.45,0,0,0,.28-.38l-.07-5.05-.09-6.54a.43.43,0,0,0-.33-.38l-1.84-.62h0l-1.09-.43a.62.62,0,0,0-.23,0Z" transform="translate(-389 -438.53)"/><path class="cls-1" d="M410.77,454.17a.32.32,0,0,1-.32-.33l-.17-12.68a.27.27,0,0,1,.08-.23.37.37,0,0,1,.24-.1.32.32,0,0,1,.2.08l.5.45,1.94,1.95a.34.34,0,0,1,.1.23l.11,8a.35.35,0,0,1-.1.24l-1.47,1.47-.9.82A.29.29,0,0,1,410.77,454.17Z" transform="translate(-389 -438.53)"/><path class="cls-1" d="M410.78,441.57l.14.13.85.84,1.07,1.08.05,3.82.06,4.05-.75.74-.65.65-.52.48-.09.08,0-1.5-.08-6.15,0-2.05,0-2.17m-.18-1.24a.82.82,0,0,0-.82.84l0,2.58c0,2.73.08,5.47.11,8.2l0,1.9a.81.81,0,0,0,1.37.6l.91-.84,1.47-1.47a.82.82,0,0,0,.25-.6l-.06-4.12-.05-3.89a.87.87,0,0,0-.24-.57l-2-2-.49-.45a.82.82,0,0,0-.54-.21Z" transform="translate(-389 -438.53)"/><path class="cls-1" d="M414.42,442.27a.38.38,0,0,1-.25-.09l-2.1-1.95-.46-.47a.3.3,0,0,1-.07-.34.34.34,0,0,1,.33-.21l13.19-.18a.35.35,0,0,1,.34.2.31.31,0,0,1-.06.34l-.84.95L423,442.05a.39.39,0,0,1-.27.11Z" transform="translate(-389 -438.53)"/><path class="cls-1" d="M424.71,439.53l-.56.63-.74.77-.7.73-4.24.06-4,0-2-1.87-.19-.2,2.31,0,3.71-.05,4.82-.07,1.62,0m.36-1h0l-2,0-8.53.12-2.69,0a.82.82,0,0,0-.61,1.4l.48.49,2.1,1.94a.86.86,0,0,0,.59.23h0l4,0,4.29-.06a.86.86,0,0,0,.62-.27c.49-.51,1-1,1.48-1.54l.85-1a.83.83,0,0,0-.65-1.37Z" transform="translate(-389 -438.53)"/><path class="cls-1" d="M410.72,472.06s-.05,0-.05,0v-2L410.51,458l.08.08c.34.18.69.37,1.06.54.66.33,1.31.62,1.93.88l0,5,.09,6.53-1.81.59-1.13.48Z" transform="translate(-389 -438.53)"/><path class="cls-1" d="M411,458.85l.41.2c.53.26,1.08.52,1.63.75l.06,4.65.09,6.11-1.48.54-.05,0h0l-.47.2,0-1.29-.07-5-.07-5.12v-1.09m-.49-1.3a.48.48,0,0,0-.52.44l0,2c.05,3.37.1,6.73.14,10.1l0,2.08a.48.48,0,0,0,.52.43.74.74,0,0,0,.25-.05l1.08-.46h0l1.83-.67a.42.42,0,0,0,.31-.4l-.09-6.53-.07-5.05a.4.4,0,0,0-.28-.37c-.61-.26-1.25-.54-1.9-.86l-1.05-.54a.59.59,0,0,0-.29-.07Z" transform="translate(-389 -438.53)"/><path class="cls-1" d="M411,474a.33.33,0,0,1-.32-.32L410.55,461a.32.32,0,0,1,.09-.24.34.34,0,0,1,.23-.1.3.3,0,0,1,.21.09l.48.44,1.95,2a.33.33,0,0,1,.1.23l.11,8a.29.29,0,0,1-.1.23l-1.47,1.48-.9.82A.32.32,0,0,1,411,474Z" transform="translate(-389 -438.53)"/><path class="cls-1" d="M411.05,461.4l.15.13,1.05,1.06.86.86.05,3.82.06,4.05-1.39,1.39-.61.56,0-1.5v-.32l-.11-7.88,0-2.17m-.18-1.24a.82.82,0,0,0-.82.84l0,2.59.12,8.2,0,1.9a.83.83,0,0,0,.82.81.84.84,0,0,0,.55-.21l.91-.84L414,472a.89.89,0,0,0,.24-.6l-.06-4.12-.05-3.89a.8.8,0,0,0-.24-.57l-2-2-.49-.45a.78.78,0,0,0-.54-.22Z" transform="translate(-389 -438.53)"/><path class="cls-1" d="M412.36,475.56a.35.35,0,0,1-.33-.21.31.31,0,0,1,.06-.34l.47-.5,2-2a.39.39,0,0,1,.25-.1l8.34-.12a.35.35,0,0,1,.26.11l1.53,1.5.86.91a.31.31,0,0,1,.06.34.35.35,0,0,1-.33.21Z" transform="translate(-389 -438.53)"/><path class="cls-1" d="M423.13,472.81l1,1,.5.49.58.62-1.61,0-3.44,0-5.09.07-2.32,0,.16-.17,2-1.95h0l4-.06,4.23-.06m.05-1h0l-4.29.06-4,.06a.87.87,0,0,0-.6.24l-2.05,2-.47.5a.83.83,0,0,0,.64,1.39h0l2.69,0,8.53-.11,2,0a.83.83,0,0,0,.62-1.39l-.87-.93-1.53-1.5a.86.86,0,0,0-.61-.25Z" transform="translate(-389 -438.53)"/><path class="cls-2" d="M413.69,457.89h-.1l-.81-.41,11.81-.16-.8.43a.24.24,0,0,1-.1,0Z" transform="translate(-389 -438.53)"/><path class="cls-1" d="M425.39,456.79h0L412,457c-.45,0-.66.31-.33.48l1.71.86a.7.7,0,0,0,.33.07h.18l9.82-.13a.71.71,0,0,0,.34-.08l1.69-.92c.32-.17.11-.47-.33-.47Z" transform="translate(-389 -438.53)"/><path class="cls-2" d="M413.57,456.51l.1,0,10-.14c.06,0,.1,0,.1,0l.82.41-11.82.16Z" transform="translate(-389 -438.53)"/><path class="cls-1" d="M423.67,455.85h0l-9.82.14h-.17a.71.71,0,0,0-.34.08l-1.69.91c-.32.18-.11.47.33.47h0l13.39-.18c.45,0,.66-.31.34-.48l-1.72-.87a.81.81,0,0,0-.33-.07Z" transform="translate(-389 -438.53)"/><path class="cls-1" d="M451,455.32h-.06v-1.88l-.17-12.18.07.08,1.09.43,1.89.63.15,11.5a13.79,13.79,0,0,0-1.88.85q-.56.28-1.05.57Z" transform="translate(-389 -438.53)"/><path class="cls-1" d="M451.25,442l.47.18,0,0h0l1.08.36.41.14.08,6.1.07,4.65c-.55.26-1.09.52-1.61.8l-.41.21v-1.08l-.11-8,0-2.07,0-1.29m-.48-1.22a.49.49,0,0,0-.53.44l0,2.08c0,3.37.09,6.73.14,10.1l0,2a.49.49,0,0,0,.53.42.66.66,0,0,0,.3-.07l1-.57c.65-.34,1.28-.64,1.88-.91a.44.44,0,0,0,.27-.38l-.07-5.05-.09-6.53a.42.42,0,0,0-.32-.39l-1.85-.62h0l-1.09-.43a.57.57,0,0,0-.22,0Z" transform="translate(-389 -438.53)"/><path class="cls-1" d="M451.22,453a.32.32,0,0,1-.32-.33L450.72,440a.32.32,0,0,1,.09-.23.34.34,0,0,1,.23-.1.32.32,0,0,1,.21.08l.49.45,1.95,1.95a.33.33,0,0,1,.09.23l.11,8a.34.34,0,0,1-.09.24l-1.48,1.47-.9.82A.28.28,0,0,1,451.22,453Z" transform="translate(-389 -438.53)"/><path class="cls-1" d="M451.23,440.38l.14.13,1.37,1.38.54.54.06,3.82.05,4.05-.79.79-.6.6-.61.56,0-1.5-.11-8.2,0-2.17m-.19-1.24a.82.82,0,0,0-.82.84l0,2.58.11,8.2,0,1.9a.83.83,0,0,0,.83.82.78.78,0,0,0,.54-.22l.91-.83,1.48-1.48a.77.77,0,0,0,.24-.59l-.05-4.13-.06-3.88a.83.83,0,0,0-.24-.58l-2-2-.49-.45a.86.86,0,0,0-.55-.21Z" transform="translate(-389 -438.53)"/><path class="cls-1" d="M451.17,470.87l-.06,0v-2L451,456.79l.08.09,1.06.54c.67.32,1.31.61,1.94.87l0,5,.09,6.53-.11,0-1.7.62-1.13.48Z" transform="translate(-389 -438.53)"/><path class="cls-1" d="M451.46,457.66l.41.2c.54.27,1.08.52,1.64.75l.06,4.65.08,6.11-1,.36-.48.18-.06,0h0l-.46.2,0-1.29-.07-5.05-.07-5.05,0-1.09m-.48-1.3a.49.49,0,0,0-.53.44l0,2,.14,10.1,0,2.08a.48.48,0,0,0,.52.43.69.69,0,0,0,.24-.05l1.08-.46h0l1.83-.67a.43.43,0,0,0,.31-.4l-.09-6.53-.07-5.05a.41.41,0,0,0-.28-.37c-.61-.26-1.25-.54-1.91-.86l-1-.54a.62.62,0,0,0-.29-.07Z" transform="translate(-389 -438.53)"/><path class="cls-1" d="M451.49,472.81a.32.32,0,0,1-.32-.32L451,459.81a.32.32,0,0,1,.09-.24.35.35,0,0,1,.24-.1.28.28,0,0,1,.2.09l.49.45L454,462a.32.32,0,0,1,.09.23l.11,8a.28.28,0,0,1-.09.23l-1.48,1.48-.89.82A.32.32,0,0,1,451.49,472.81Z" transform="translate(-389 -438.53)"/><path class="cls-1" d="M451.5,460.21l.14.13.79.79,1.13,1.13.05,3.82.05,4.05-.59.59-.8.8-.61.56,0-1.5-.11-8.2,0-2.17m-.18-1.24a.83.83,0,0,0-.83.84l0,2.59c0,2.73.07,5.46.11,8.2l0,1.9a.81.81,0,0,0,.82.81.82.82,0,0,0,.54-.21l.92-.84,1.47-1.47a.81.81,0,0,0,.24-.6l-.05-4.12-.06-3.89a.8.8,0,0,0-.24-.57l-2-2-.49-.45a.8.8,0,0,0-.54-.22Z" transform="translate(-389 -438.53)"/><path class="cls-1" d="M452.81,474.37a.37.37,0,0,1-.34-.21.3.3,0,0,1,.07-.34l.46-.5,2-2a.4.4,0,0,1,.26-.1l8.33-.12a.37.37,0,0,1,.27.11l1.53,1.5.85.91a.3.3,0,0,1,.07.34.36.36,0,0,1-.33.21Z" transform="translate(-389 -438.53)"/><path class="cls-1" d="M463.58,471.62l.57.56.89.87.48.52.12.13-1.62,0-8.53.11-2.31,0h0l.15-.17,1-1,1-1,4-.06,4.24-.06m.05-1h0l-4.29.06-4.05.06a.85.85,0,0,0-.59.24l-2.05,2-.47.5a.83.83,0,0,0,.64,1.39h0l2.69,0,8.53-.11,2,0a.83.83,0,0,0,.63-1.39l-.87-.93-1.53-1.5a.86.86,0,0,0-.61-.25Z" transform="translate(-389 -438.53)"/><path class="cls-1" d="M433.28,442.28a.36.36,0,0,1-.26-.11l-1.53-1.5-.86-.91a.31.31,0,0,1-.06-.34.35.35,0,0,1,.33-.21l13.19-.18a.35.35,0,0,1,.34.21.31.31,0,0,1-.06.34l-.47.5-2,2a.37.37,0,0,1-.25.1Z" transform="translate(-389 -438.53)"/><path class="cls-1" d="M443.73,439.53h0l-.16.17-1,1-1,1-4,.06-4.23,0-.57-.55-.89-.87-.6-.65,1.61,0,8.36-.11h.17l2.32,0m.37-1h0l-2.69,0-8.53.12-2,0a.83.83,0,0,0-.62,1.39l.87.93,1.53,1.5a.86.86,0,0,0,.61.25h0l4.29-.06,4-.06a.87.87,0,0,0,.6-.24l2-2,.47-.5a.83.83,0,0,0-.64-1.39Z" transform="translate(-389 -438.53)"/><path class="cls-1" d="M445.83,456.29h-.05q-.5-.27-1-.54c-.65-.33-1.29-.62-1.9-.88l-.05-5-.09-6.54.91-.26.88-.33,1.12-.48.08,2,.17,12.06Z" transform="translate(-389 -438.53)"/><path class="cls-1" d="M445.17,443v1.29l0,2,.11,8.1,0,1.07-.38-.19c-.53-.26-1.07-.51-1.61-.75l-.07-4.65-.08-6.11,1.45-.54.06,0h0l.44-.19m.47-1.23a.67.67,0,0,0-.24,0l-1.06.46h0l-1.81.67a.44.44,0,0,0-.31.4l.09,6.53.07,5.05a.43.43,0,0,0,.28.37c.61.26,1.23.54,1.88.87.36.17.71.35,1,.53a.55.55,0,0,0,.28.07.48.48,0,0,0,.52-.44l0-2q-.06-5-.14-10.1l0-2.08a.48.48,0,0,0-.52-.42Z" transform="translate(-389 -438.53)"/><path class="cls-1" d="M429.54,456.51h-.05v-1.88l-.16-12.18.07.08,1.09.43,1.9.63.07,6.46.07,5a13.79,13.79,0,0,0-1.88.85q-.56.29-1,.57Z" transform="translate(-389 -438.53)"/><path class="cls-1" d="M429.84,443.23l.47.18.05,0h0l1.5.5L432,450l.06,4.65c-.54.26-1.08.52-1.61.8l-.4.21,0-1.08,0-2-.12-8.09v-1.29m-.49-1.22a.48.48,0,0,0-.52.44l0,2.08c0,3.37.1,6.73.14,10.1l0,2a.48.48,0,0,0,.52.42.54.54,0,0,0,.3-.08l1-.56c.64-.34,1.27-.64,1.88-.91a.44.44,0,0,0,.27-.38L433,450l-.09-6.54a.42.42,0,0,0-.32-.38l-1.85-.62h0l-1.09-.43a.59.59,0,0,0-.23,0Z" transform="translate(-389 -438.53)"/><path class="cls-1" d="M445.5,453.86a.27.27,0,0,1-.19-.08l-.93-.8-1.48-1.4a.35.35,0,0,1-.1-.22l-.1-7.91a.3.3,0,0,1,.08-.22l1.89-2,.45-.44a.28.28,0,0,1,.21-.08.3.3,0,0,1,.31.31l.17,12.52a.29.29,0,0,1-.09.22A.3.3,0,0,1,445.5,453.86Z" transform="translate(-389 -438.53)"/><path class="cls-1" d="M445.15,441.46l0,2.11.12,8.1,0,1.45-.57-.49-.54-.51-.9-.85-.05-4-.05-3.76,1.38-1.47.42-.44.15-.15m.18-1.25a.79.79,0,0,0-.55.22l-.48.46-1.88,2a.78.78,0,0,0-.22.58l.05,3.84.05,4.06a.85.85,0,0,0,.26.59l1.5,1.41.92.8a.78.78,0,0,0,.52.2.81.81,0,0,0,.81-.83l0-1.87-.12-8.1,0-2.55a.81.81,0,0,0-.81-.8Z" transform="translate(-389 -438.53)"/><path class="cls-1" d="M429.81,454.17a.33.33,0,0,1-.33-.33l-.17-12.68a.32.32,0,0,1,.09-.23.34.34,0,0,1,.23-.1.32.32,0,0,1,.21.08l.49.45,1.94,1.95a.34.34,0,0,1,.1.23l.11,8a.31.31,0,0,1-.1.24l-1.47,1.47-.9.82A.28.28,0,0,1,429.81,454.17Z" transform="translate(-389 -438.53)"/><path class="cls-1" d="M429.81,441.57l.15.13.84.84,1.07,1.08.05,3.82.06,4.05-.74.74-.65.65-.53.48-.08.08,0-1.5-.07-4.91-.05-3.29,0-2.17m-.18-1.24a.82.82,0,0,0-.82.84l0,2.58L429,452l0,1.9a.83.83,0,0,0,.83.82.8.8,0,0,0,.54-.22l.91-.84,1.48-1.47a.81.81,0,0,0,.24-.6l-.06-4.12-.05-3.89a.82.82,0,0,0-.24-.57l-2-2-.5-.45a.82.82,0,0,0-.54-.21Z" transform="translate(-389 -438.53)"/><path class="cls-1" d="M433.46,442.27a.39.39,0,0,1-.26-.09l-2.1-1.95-.46-.47a.29.29,0,0,1-.07-.34.34.34,0,0,1,.33-.21l13.19-.18a.35.35,0,0,1,.34.2.3.3,0,0,1-.05.34l-.85.95-1.47,1.53a.36.36,0,0,1-.26.11Z" transform="translate(-389 -438.53)"/><path class="cls-1" d="M443.74,439.53l-.16.18-.39.45-.75.77-.7.73-4.24.06-4,0-2-1.87-.2-.2,2.31,0,3.71-.05,4.83-.07,1.61,0m.36-1h0l-2,0-8.53.12-2.69,0a.83.83,0,0,0-.61,1.4l.48.49c.7.65,1.4,1.3,2.11,1.94a.86.86,0,0,0,.59.23h0l4,0,4.29-.06a.85.85,0,0,0,.62-.27l1.49-1.54.84-1a.83.83,0,0,0-.65-1.37Z" transform="translate(-389 -438.53)"/><path class="cls-1" d="M446,471.83h0l-1.07-.42-1.88-.64L443,464.3l-.07-5a14.18,14.18,0,0,0,1.86-.85l1-.57.07-.08.19,14.14Z" transform="translate(-389 -438.53)"/><path class="cls-1" d="M445.38,458.65l0,1.07.07,5,.07,5.05v1.29l-.44-.18-.05,0h0l-.91-.3-.55-.19-.09-6.11-.06-4.66c.54-.25,1.07-.51,1.59-.79l.37-.2m.47-1.32a.51.51,0,0,0-.29.08l-1,.56c-.64.34-1.26.64-1.86.92a.41.41,0,0,0-.27.37l.07,5.05.09,6.54a.42.42,0,0,0,.32.38l1.82.62h0l1.08.43a.57.57,0,0,0,.22,0,.47.47,0,0,0,.52-.43l0-2.09-.14-10.1,0-2a.48.48,0,0,0-.52-.42Z" transform="translate(-389 -438.53)"/><path class="cls-1" d="M429.76,472.06l-.06,0v-2L429.54,458l.08.08c.34.18.69.37,1.06.54.67.33,1.31.62,1.93.88l.05,5,.09,6.53-1.82.59-1.13.48Z" transform="translate(-389 -438.53)"/><path class="cls-1" d="M430.05,458.85l.41.2c.53.26,1.08.52,1.63.75l.07,4.65.08,6.11-1.48.54-.05,0h0l-.47.2V470l-.06-4.29-.08-5.81,0-1.09m-.48-1.3a.49.49,0,0,0-.53.44l0,2c0,3.37.09,6.73.14,10.1l0,2.08a.49.49,0,0,0,.53.43.69.69,0,0,0,.24-.05l1.08-.46h0l1.82-.67a.43.43,0,0,0,.32-.4l-.09-6.53-.07-5.05a.41.41,0,0,0-.28-.37c-.62-.26-1.25-.54-1.91-.86l-1-.54a.58.58,0,0,0-.28-.07Z" transform="translate(-389 -438.53)"/><path class="cls-1" d="M445.77,473.69a.27.27,0,0,1-.2-.08l-.48-.44-1.92-1.93a.35.35,0,0,1-.1-.22l-.1-7.91a.33.33,0,0,1,.09-.23l1.45-1.45.89-.81a.32.32,0,0,1,.2-.08.31.31,0,0,1,.31.31l.17,12.52a.27.27,0,0,1-.08.23A.33.33,0,0,1,445.77,473.69Z" transform="translate(-389 -438.53)"/><path class="cls-1" d="M445.42,461.28l0,1.45.11,8.1,0,2.11-.12-.11-1-1-.92-.92-.05-3.76,0-4,.43-.42.94-.94.34-.32.24-.22m.18-1.24a.82.82,0,0,0-.54.21l-.9.83-1.45,1.45a.78.78,0,0,0-.24.59l0,4.07.05,3.84a.87.87,0,0,0,.24.57l1.94,1.94.49.44a.76.76,0,0,0,.53.21.8.8,0,0,0,.81-.82l0-2.55-.11-8.1,0-1.87a.81.81,0,0,0-.81-.81Z" transform="translate(-389 -438.53)"/><path class="cls-1" d="M430.08,474a.32.32,0,0,1-.32-.32L429.58,461a.32.32,0,0,1,.09-.24.34.34,0,0,1,.23-.1.29.29,0,0,1,.21.09l.48.44,2,2a.32.32,0,0,1,.09.23l.11,8a.32.32,0,0,1-.09.23l-1.48,1.48-.9.82A.32.32,0,0,1,430.08,474Z" transform="translate(-389 -438.53)"/><path class="cls-1" d="M430.09,461.4l.14.13,1.06,1.06.85.86.06,3.82.05,4.05-1.39,1.39-.61.56,0-1.5v-.32l-.1-7.88,0-2.17m-.19-1.24a.82.82,0,0,0-.82.84l0,2.59.11,8.2,0,1.9a.81.81,0,0,0,1.36.6l.91-.84L433,472a.81.81,0,0,0,.24-.6l-.05-4.12-.06-3.89a.8.8,0,0,0-.24-.57l-2-2-.49-.45a.82.82,0,0,0-.55-.22Z" transform="translate(-389 -438.53)"/><path class="cls-2" d="M432.72,457.89h-.1l-.81-.41,11.82-.16-.8.43a.42.42,0,0,1-.11,0Z" transform="translate(-389 -438.53)"/><path class="cls-1" d="M444.42,456.79h0L431,457c-.44,0-.66.31-.33.48l1.71.86a.7.7,0,0,0,.33.07h.19l9.82-.13a.77.77,0,0,0,.34-.08l1.69-.92c.32-.17.1-.47-.34-.47Z" transform="translate(-389 -438.53)"/><path class="cls-2" d="M432.6,456.51a.2.2,0,0,1,.11,0l10-.14a.2.2,0,0,1,.11,0l.81.41-11.82.16Z" transform="translate(-389 -438.53)"/><path class="cls-1" d="M442.71,455.85h0l-9.82.14h-.17a.74.74,0,0,0-.34.08l-1.69.91c-.32.18-.1.47.34.47h0l13.4-.18c.44,0,.66-.31.33-.48l-1.72-.87a.76.76,0,0,0-.32-.07Z" transform="translate(-389 -438.53)"/><path class="cls-1" d="M474,443.07a.16.16,0,0,1-.1-.05l-1.18-1.32-.65-.8a.28.28,0,0,1,0-.3.15.15,0,0,1,.13-.1l10.17-.14a.16.16,0,0,1,.13.1.28.28,0,0,1,0,.3l-.35.44-1.56,1.73a.16.16,0,0,1-.1.05Z" transform="translate(-389 -438.53)"/><path class="cls-1" d="M481.67,440.86l-.78.88-.67.74-3,0-3.13.05-.81-.91-.24-.26-.33-.41.9,0,6.57-.09,1.44,0m.63-1h0l-2.07,0-6.57.09-1.52,0a.74.74,0,0,0-.48,1.22l.67.82,1.18,1.32a.63.63,0,0,0,.47.22h0l3.3-.05,3.12,0a.61.61,0,0,0,.46-.22l1.57-1.75.36-.43a.74.74,0,0,0-.49-1.22Z" transform="translate(-389 -438.53)"/><path class="cls-1" d="M462,443.1a.2.2,0,0,1-.14-.06l-1.74-1.67-.37-.4a.24.24,0,0,1-.05-.24.19.19,0,0,1,.19-.13l10.86-.15a.2.2,0,0,1,.19.12.22.22,0,0,1,0,.24l-.69.82L469,442.91a.21.21,0,0,1-.17.09Z" transform="translate(-389 -438.53)"/><path class="cls-1" d="M470.12,441l-.26.31-.62.67-.52.57-3.41,0-3.2.05-.6-.58-1-.93,1.61,0,7-.1h1m.63-1h0l-1.63,0-7,.1-2.22,0a.72.72,0,0,0-.5,1.21l.4.42,1.73,1.67a.7.7,0,0,0,.49.2h0l3.33-.05,3.53-.05a.72.72,0,0,0,.51-.22l1.22-1.33.69-.82a.71.71,0,0,0-.53-1.18Z" transform="translate(-389 -438.53)"/><path class="cls-2" d="M471.7,459.77l.78,1.37a.37.37,0,0,1,0,.14v11.57a.3.3,0,0,1,0,.14l-.78,1.38Z" transform="translate(-389 -438.53)"/><path class="cls-1" d="M471.54,458.74c-.17,0-.34.23-.34.57v15.51c0,.35.17.57.34.57a.29.29,0,0,0,.25-.18l1.12-2a.78.78,0,0,0,.09-.39V461.28a.83.83,0,0,0-.09-.39l-1.12-2a.31.31,0,0,0-.25-.18Z" transform="translate(-389 -438.53)"/><path class="cls-2" d="M470.51,473a.4.4,0,0,1,0-.15V461.28a.33.33,0,0,1,0-.14l.78-1.37v14.6Z" transform="translate(-389 -438.53)"/><path class="cls-1" d="M471.45,458.74a.31.31,0,0,0-.25.18l-1.12,2a.83.83,0,0,0-.09.39v11.57a.78.78,0,0,0,.09.39l1.12,2a.29.29,0,0,0,.25.18c.17,0,.34-.22.34-.57V459.31c0-.34-.17-.57-.34-.57Z" transform="translate(-389 -438.53)"/><path class="cls-2" d="M471.7,442.58l.78,1.37a.37.37,0,0,1,0,.14v11.52a.4.4,0,0,1,0,.15l-.78,1.36Z" transform="translate(-389 -438.53)"/><path class="cls-1" d="M471.54,441.56c-.17,0-.34.23-.34.57v15.44c0,.35.17.57.34.57a.29.29,0,0,0,.25-.17l1.12-2a.78.78,0,0,0,.09-.39V444.09a.83.83,0,0,0-.09-.39c-.37-.65-.75-1.3-1.12-2a.31.31,0,0,0-.25-.18Z" transform="translate(-389 -438.53)"/><path class="cls-2" d="M470.51,455.76a.4.4,0,0,1,0-.15V444.09a.37.37,0,0,1,0-.14l.78-1.36v14.53Z" transform="translate(-389 -438.53)"/><path class="cls-1" d="M471.45,441.56a.31.31,0,0,0-.25.18c-.37.66-.75,1.31-1.12,2a.83.83,0,0,0-.09.39v11.52a.78.78,0,0,0,.09.39l1.12,2a.29.29,0,0,0,.25.17c.17,0,.34-.22.34-.57V442.13c0-.34-.17-.57-.34-.57Z" transform="translate(-389 -438.53)"/><path class="cls-1" d="M501.24,455.3h0l-1.05-.54c-.66-.33-1.29-.62-1.91-.88l0-5-.09-6.53.38-.07,1.41-.52,1.11-.48.09,2,.17,12.06Z" transform="translate(-389 -438.53)"/><path class="cls-1" d="M500.58,442l0,1.28.07,5.11.07,5v1.08l-.38-.19c-.52-.26-1.06-.51-1.61-.75l-.06-4.65-.08-6.11,1.45-.54.05,0h0l.43-.19m.48-1.24a.64.64,0,0,0-.24,0l-1.07.46h0l-1.8.67a.43.43,0,0,0-.31.4l.09,6.53.07,5a.42.42,0,0,0,.28.37c.6.26,1.23.54,1.88.86l1,.54a.58.58,0,0,0,.28.07.49.49,0,0,0,.53-.44l0-2c-.05-3.37-.09-6.73-.14-10.1l0-2.08a.48.48,0,0,0-.51-.43Z" transform="translate(-389 -438.53)"/><path class="cls-1" d="M485,455.52h-.06v-1.88l-.17-12.18.07.08,1.1.42,1.89.64.08,6.46.06,5a14.36,14.36,0,0,0-1.88.85l-1.05.57Z" transform="translate(-389 -438.53)"/><path class="cls-1" d="M485.25,442.23l.48.19,0,0h0l1.49.49.09,6.11.06,4.65c-.55.25-1.09.52-1.61.8l-.41.21v-1.08l-.07-4.95-.07-5.15,0-1.3m-.48-1.21a.49.49,0,0,0-.53.43l0,2.09.14,10.1,0,2a.48.48,0,0,0,.52.42.56.56,0,0,0,.3-.08l1-.56c.65-.34,1.28-.64,1.88-.92a.4.4,0,0,0,.27-.37l-.07-5-.08-6.54a.45.45,0,0,0-.33-.39l-1.84-.61h0l-1.09-.43a.62.62,0,0,0-.23,0Z" transform="translate(-389 -438.53)"/><path class="cls-1" d="M500.92,452.87a.32.32,0,0,1-.2-.08l-.9-.78-1.5-1.42a.32.32,0,0,1-.1-.22l-.11-7.91a.31.31,0,0,1,.09-.22l1.88-2,.46-.44a.28.28,0,0,1,.2-.09.33.33,0,0,1,.32.32l.17,12.52a.29.29,0,0,1-.09.22A.32.32,0,0,1,500.92,452.87Z" transform="translate(-389 -438.53)"/><path class="cls-1" d="M500.56,440.47l0,2.11.11,8.1,0,1.45-.56-.49-.54-.51-.9-.85-.06-4-.05-3.77.19-.19,1.61-1.71.15-.15m.18-1.26a.77.77,0,0,0-.55.23l-.47.46-1.89,2a.87.87,0,0,0-.22.58l.05,3.83.06,4.07a.83.83,0,0,0,.26.59l1.49,1.41.92.8a.8.8,0,0,0,.53.2.82.82,0,0,0,.81-.83l0-1.88-.11-8.09,0-2.55a.82.82,0,0,0-.82-.81Z" transform="translate(-389 -438.53)"/><path class="cls-1" d="M485.22,453.17a.32.32,0,0,1-.32-.32l-.18-12.68a.32.32,0,0,1,.09-.23.31.31,0,0,1,.24-.1.32.32,0,0,1,.2.08l.5.45,1.94,1.95a.37.37,0,0,1,.1.23l.11,8a.35.35,0,0,1-.1.24l-1.47,1.47-.9.82A.28.28,0,0,1,485.22,453.17Z" transform="translate(-389 -438.53)"/><path class="cls-1" d="M485.23,440.58l.14.13.79.78,1.13,1.14,0,3.82.05,4.05-.86.86-.53.53-.61.55,0-1.49v-.09l-.11-8.11,0-2.17m-.18-1.24a.83.83,0,0,0-.83.84l0,2.58c0,2.73.08,5.47.11,8.2l0,1.9a.82.82,0,0,0,1.37.6l.91-.84,1.47-1.47a.84.84,0,0,0,.25-.6l-.06-4.12,0-3.89A.83.83,0,0,0,488,442l-2-2-.49-.45a.79.79,0,0,0-.54-.21Z" transform="translate(-389 -438.53)"/><path class="cls-1" d="M501.46,470.84h0l-1.08-.42-1.87-.64-.07-6.46-.07-5a14.18,14.18,0,0,0,1.86-.85l1-.57.07-.09.19,14.15Z" transform="translate(-389 -438.53)"/><path class="cls-1" d="M500.8,457.66v1.07l.07,5,.07,5.05,0,1.29-.44-.18,0,0h0l-.91-.31-.56-.18-.08-6.11-.07-4.66c.54-.25,1.07-.52,1.59-.79l.38-.2m.47-1.32a.56.56,0,0,0-.3.08l-1,.56c-.64.34-1.26.64-1.85.91a.43.43,0,0,0-.27.38l.07,5.05.09,6.53a.42.42,0,0,0,.32.39l1.82.62h0l1.08.43a.54.54,0,0,0,.22,0,.48.48,0,0,0,.52-.44l0-2.08-.14-10.1,0-2a.48.48,0,0,0-.52-.42Z" transform="translate(-389 -438.53)"/><path class="cls-1" d="M485.17,471.06h-.05v-2L485,457l.08.08,1.06.54c.66.33,1.31.62,1.93.88l0,5,.09,6.54-.1,0-1.71.62-1.13.47Z" transform="translate(-389 -438.53)"/><path class="cls-1" d="M485.47,457.86l.41.2c.53.26,1.08.51,1.63.75l.06,4.65.09,6.11-.48.17-1,.37-.05,0h0l-.46.19,0-1.29,0-2.07-.11-8v-1.08m-.49-1.3a.48.48,0,0,0-.52.44l0,2q.07,5,.14,10.1l0,2.08a.48.48,0,0,0,.52.42.64.64,0,0,0,.24,0l1.08-.46h0l1.83-.67a.43.43,0,0,0,.31-.4l-.09-6.53-.07-5.05a.41.41,0,0,0-.28-.37c-.61-.26-1.25-.55-1.9-.87-.37-.17-.72-.35-1.05-.53a.59.59,0,0,0-.29-.07Z" transform="translate(-389 -438.53)"/><path class="cls-1" d="M501.19,472.7a.32.32,0,0,1-.2-.08l-.49-.44-1.92-1.93a.31.31,0,0,1-.09-.22l-.11-7.91a.34.34,0,0,1,.1-.23l1.45-1.45.89-.81a.3.3,0,0,1,.2-.08.32.32,0,0,1,.31.31l.17,12.52a.32.32,0,0,1-.09.23A.31.31,0,0,1,501.19,472.7Z" transform="translate(-389 -438.53)"/><path class="cls-1" d="M500.83,460.29l0,1.45.11,8.1,0,2.11-.11-.11-1.56-1.55L499,470l-.05-3.76-.06-4,1.37-1.37.45-.41.13-.12m.19-1.24a.77.77,0,0,0-.54.21l-.9.83-1.46,1.45a.87.87,0,0,0-.24.59l.06,4.07L498,470a.8.8,0,0,0,.24.56l1.94,1.95.48.44a.77.77,0,0,0,.54.21.8.8,0,0,0,.81-.83l0-2.55-.11-8.09,0-1.88a.81.81,0,0,0-.81-.8Z" transform="translate(-389 -438.53)"/><path class="cls-1" d="M485.49,473a.32.32,0,0,1-.32-.32L485,460a.32.32,0,0,1,.09-.23.33.33,0,0,1,.23-.1.3.3,0,0,1,.21.09l.49.44,1.94,2a.33.33,0,0,1,.1.23l.11,8a.34.34,0,0,1-.1.23l-1.47,1.47-.9.83A.32.32,0,0,1,485.49,473Z" transform="translate(-389 -438.53)"/><path class="cls-1" d="M485.5,460.41l.15.13,1.37,1.38.54.54.05,3.82.06,4.05-1.39,1.39-.61.56,0-1.5v-.32l-.11-7.88,0-2.17m-.18-1.24a.82.82,0,0,0-.82.84l0,2.58.12,8.2,0,1.9a.83.83,0,0,0,.82.82.8.8,0,0,0,.55-.22l.91-.83,1.48-1.47a.89.89,0,0,0,.24-.6l-.06-4.12-.05-3.89a.84.84,0,0,0-.24-.58l-2-2-.49-.44a.78.78,0,0,0-.54-.22Z" transform="translate(-389 -438.53)"/><path class="cls-2" d="M488.14,456.9H488l-.82-.41,11.82-.17-.8.44-.1,0Z" transform="translate(-389 -438.53)"/><path class="cls-1" d="M499.84,455.8h0l-13.4.19c-.45,0-.66.31-.33.47l1.71.87a.7.7,0,0,0,.33.07h.18l9.82-.13a.85.85,0,0,0,.34-.08l1.69-.92c.32-.17.11-.47-.33-.47Z" transform="translate(-389 -438.53)"/><path class="cls-2" d="M488,455.52a.2.2,0,0,1,.11,0l10-.14a.2.2,0,0,1,.11,0l.81.41-11.82.16Z" transform="translate(-389 -438.53)"/><path class="cls-1" d="M498.12,454.86h0l-9.82.14h-.17a.71.71,0,0,0-.34.08l-1.69.91c-.32.18-.11.47.33.47h0l13.39-.18c.45,0,.66-.31.34-.48l-1.72-.87a.84.84,0,0,0-.33-.07Z" transform="translate(-389 -438.53)"/></svg>