<?xml version="1.0" encoding="utf-8"?>
<!-- Generator: Adobe Illustrator 27.0.1, SVG Export Plug-In . SVG Version: 6.00 Build 0)  -->
<svg version="1.1" xmlns="http://www.w3.org/2000/svg" xmlns:xlink="http://www.w3.org/1999/xlink" x="0px" y="0px"
	 viewBox="0 0 1600 900" style="enable-background:new 0 0 1600 900;" xml:space="preserve">
<style type="text/css">
	.st0{fill:#606060;}
	.st1{fill:#6E6E6E;}
	.st2{fill:#9C9C9D;}
	.st3{fill:#3C3C3C;}
	.st4{fill:none;stroke:#4B4A4C;stroke-width:4;stroke-miterlimit:10;}
	.st5{fill:#454756;}
	.st6{fill:#5CD01B;}
	.st7{fill:none;stroke:#4B4A4C;stroke-width:2;stroke-miterlimit:10;}
	.st8{fill:none;stroke:#848484;stroke-miterlimit:10;}
	.st9{opacity:0.54;fill:#727272;enable-background:new    ;}
	.st10{opacity:0.69;fill:#494949;enable-background:new    ;}
	.st11{opacity:0.9;fill:#FFFFFF;enable-background:new    ;}
	.st12{fill:none;stroke:#000000;stroke-miterlimit:10;}
	.st13{fill:#FF8B00;}
	.st14{fill:#DD4400;}
	.st15{fill:#4066F2;}
	.st16{opacity:0.57;fill:#494949;enable-background:new    ;}
	.st17{fill:#858586;}
	.st18{fill:#FFFFFF;}
	.st19{opacity:0.86;fill:#FF2A09;enable-background:new    ;}
	.st20{opacity:0.86;fill:#5CD01B;enable-background:new    ;}
	.st21{fill:none;stroke:#000000;stroke-width:0.75;stroke-miterlimit:10;}
	.st22{fill:none;stroke:#000000;stroke-width:0.5;stroke-miterlimit:10;}
	.st23{fill:#E6B812;}
	.st24{display:none;}
	.st25{display:inline;}
	.st26{fill:#ADADAD;}
	.st27{fill:#4B4B4C;}
	.st28{fill:#4B4B4F;}
	.st29{fill:none;stroke:#4B4A4C;stroke-width:3;stroke-miterlimit:10;}
	.st30{fill:#2F46B7;}
	.st31{fill:#808080;}
	.st32{fill:none;stroke:#000000;stroke-width:3;stroke-miterlimit:10;}
	.st33{fill:#FFFFFF;stroke:#000000;stroke-width:3;stroke-miterlimit:10;}
	.st34{fill:none;stroke:#51356B;stroke-miterlimit:10;}
	.st35{fill:#51356B;}
	.st36{fill:#303135;}
	.st37{fill:#FF2A09;}
</style>
<g id="Layer_1">
	<g>
		<g id="Layer_2_00000171717503044112699970000004139894966241305784_">
			<polyline class="st0" points="800,250.8 492.2,250.8 318.6,0.6 250.5,0.6 420.7,248.1 237.7,248.1 0,344.6 0,501.1 475.4,501.1 
				1124.6,500.5 1600,500.5 1600,344 1362.3,247.6 1179.3,247.6 1349.5,0 1281.4,0 1107.8,250.2 800,250.2 			"/>
			<polygon class="st1" points="652,250.2 722.1,414.5 876.7,414.5 959.7,250.8 947.9,236.5 662.9,236.5 			"/>
			<path class="st2" d="M1567,466.3l-44.4-106.8c-3.8-9.2-12.2-14.4-20.7-12.8l-370.3,69.8c-14.2,2.7-21.3,22.1-13.3,36.5l20.5,37
				c3.7,6.6,9.8,10.5,16.4,10.5h394.2C1564,500.5,1573.5,482,1567,466.3L1567,466.3z"/>
			<path class="st2" d="M41.1,463.2l42.6-102.4c4.2-10,13.3-15.7,22.5-13.9L472.5,416c15.5,2.9,23.2,24.1,14.5,39.7L468.5,489
				c-4,7.2-10.7,11.5-17.9,11.5H60.3C44.3,500.5,33.9,480.4,41.1,463.2L41.1,463.2z"/>
			<path class="st2" d="M1067.9,404.5l386-64c11-1.8,12.7-20.1,2.3-24.8l-98.9-44.4c-1.2-0.5-2.5-0.8-3.8-0.8H996.4
				c-3.8,0-7.2,2.4-9.2,6.2L923.6,403c-4.3,8.6,0.8,19.5,9.2,19.5h44c0.6,0,1.2-0.1,1.8-0.2L1067.9,404.5L1067.9,404.5z"/>
			<path class="st2" d="M536.8,401.5l-387.4-64.3c-10.7-1.8-12.3-19.4-2.2-24l100.3-45c1.2-0.5,2.4-0.8,3.6-0.8h357.4
				c3.6,0,7,2.3,8.9,6l64.1,127.1c4.2,8.3-0.8,18.9-8.9,18.9h-44.6c-0.6,0-1.1-0.1-1.7-0.2L536.8,401.5L536.8,401.5z"/>
			<polygon class="st3" points="947.9,236.5 876.7,414.5 959.7,250.8 			"/>
			<polyline class="st3" points="650.7,250.9 663,236.9 725,424 			"/>
			<polyline class="st3" points="1295,0.6 1112,250.8 1101.2,250.8 1281.4,0 			"/>
			<polyline class="st3" points="308.9,0.8 491.8,251 502.6,251 322.5,0.2 			"/>
			<polygon class="st3" points="611.8,268.2 659,414.5 696.1,414.5 615.7,271 			"/>
			<polygon class="st3" points="992.8,267.7 945.6,414 908.6,414 988.9,270.5 			"/>
			<path class="st3" d="M1112.7,441l28.2,59h2.5l25.7,0.6c0,0-49.9-63.9-45.4-78.9s-17.2,21.7-9.8,19.6"/>
			<path class="st3" d="M493.3,443.1l-29.3,58l-2.5-0.1l-25.2-0.4c0,0,50.7-62.1,46.6-77.4s16.2,22.4,9,20.1"/>
			<path class="st4" d="M1319.7,0.2l-171.9,241c-3.8,5.3-3,13.3,1.7,17.4l13.6,11.9"/>
			<path class="st2" d="M1161.9,273.7c1.6,0,1.6-3,0-3C1160.3,270.7,1160.3,273.7,1161.9,273.7L1161.9,273.7z"/>
			<path class="st2" d="M1162.3,273.5c1.6,0,1.6-3,0-3S1160.7,273.5,1162.3,273.5L1162.3,273.5z"/>
			<path class="st2" d="M1160,270.7C1160,270.7,1160,270.7,1160,270.7l0.2-0.1h0c0.1,0,0.2,0,0.3,0c0,0,0,0-0.1,0l0.3,0h0
				c0.1,0,0.2,0.1,0.3,0.1l0,0l0.2,0.2l0,0c-0.4,0.8-0.8,1.7-1.2,2.5c0.2,0.1,0.5,0.2,0.8,0.2c0.3,0,0.5-0.1,0.8-0.1l-0.3,0
				c0.3,0,0.6,0,0.8,0c0.1,0,0.3,0,0.4,0c0.2,0,0.3,0,0.5-0.1c0.1,0,0.1,0,0.2-0.1c0.2,0,0.3-0.1,0.4-0.3c0.1-0.1,0.2-0.2,0.3-0.4
				c0.2-0.3,0.2-0.8,0.1-1.2s-0.3-0.7-0.6-0.9c-0.3-0.2-0.7-0.3-1-0.1c-0.1,0-0.1,0-0.2,0.1l0.3,0c-0.3,0-0.6,0-0.8,0
				c-0.4,0-0.8,0.1-1.2,0.1l0.3,0c-0.1,0-0.1,0-0.2,0l0.3,0c-0.1,0-0.2-0.1-0.3-0.1l-0.3,0c-0.2,0-0.3,0-0.5,0.1
				c-0.2,0.1-0.5,0.3-0.6,0.6c-0.1,0.2-0.2,0.5-0.2,0.8c0,0.3,0.1,0.8,0.4,1.1c0.3,0.3,0.6,0.5,1,0.5c0.2,0,0.6-0.1,0.8-0.2
				c0.3-0.2,0.5-0.5,0.6-0.9c0.1-0.4,0-0.8-0.1-1.2s-0.4-0.6-0.8-0.7C1160.7,270.4,1160.3,270.4,1160,270.7L1160,270.7L1160,270.7z"
				/>
			<line class="st4" x1="1254.3" y1="373.6" x2="1272.4" y2="390"/>
			<polyline class="st4" points="631.7,250.8 708,414.5 743.3,500.5 848,501.1 892.5,412 981.8,250.8 			"/>
			<path class="st4" d="M283.5,0.1l171.9,241c3.8,5.3,3,13.3-1.7,17.4l-13.6,11.9"/>
			<path class="st2" d="M441.3,270.8C441.6,270.9,441.1,270.7,441.3,270.8c0,0,0,0-0.1-0.1c-0.1,0-0.1-0.1-0.2-0.2l-0.3,2.7
				c0.1,0,0.1-0.1,0.2-0.1c0.1,0,0.1,0,0,0c0.2,0,0.4,0,0.5,0c0.4,0,0.7,0,1.1,0c0.7,0,1.3-0.7,1.3-1.5c0-0.8-0.5-1.5-1.3-1.5
				c-0.8,0-1.6-0.1-2.5-0.1l0.6,2.8l0.7-0.5c1-0.6,0.7-2.4-0.3-2.7c-0.1,0-0.2-0.1-0.3-0.1c0.2,0.1-0.1-0.1-0.2-0.1
				c-0.1-0.1-0.2-0.1-0.3-0.2c-0.2-0.2,0.1,0.1-0.1-0.1l0.3,0.7c0,0.5-0.1,0.9-0.3,1.1c-0.2,0.1-0.2,0.1,0,0c0.1,0,0.2-0.1,0.4-0.1
				c0.4-0.1-0.2,0,0.2,0C440.9,270.8,441.1,270.8,441.3,270.8c0.5,0,1.1,0,1.7,0.1s1.1,0.1,1.7,0.1c0.3,0,0.5,0,0.8,0
				c0.4,0,0.9,0,1.2-0.3c0.5-0.4,0.8-1.3,0.5-2c-0.2-0.6-0.7-1-1.3-1s-1.2,0-1.7,0c-0.6,0-1.2,0-1.8,0.1c-0.3,0-0.6,0-1,0
				c-0.1,0-0.2,0-0.4,0c-0.1,0-0.2,0,0,0c-0.1,0-0.1,0,0,0l-0.6,2.8c1,0,1.9,0,2.9,0c0.5,0,0.9,0,1.4,0c0.2,0,0.5,0,0.8,0
				c0.1,0,0.2,0,0.3,0c0.2,0-0.1,0-0.2-0.1c0.5,0.4,1.4,0.2,1.7-0.5c0.3-0.8,0.1-1.6-0.5-2c-0.5-0.4-1.1-0.4-1.7-0.4
				c-0.5,0-1.1,0-1.6,0c-1.1,0-2.1,0-3.1,0c-0.5,0-1.1,0.5-1.2,1.1c-0.1,0.6,0.1,1.4,0.6,1.7c1,0.6,2.1,0.4,3.2,0.3c0.5,0,1,0,1.5,0
				c0.2,0,0.5,0,0.7,0c0.1,0,0.3,0,0.4,0h0.1c0.2,0,0.2,0,0,0l-0.8-0.7l0,0.1l-0.1-1.2l0,0.1l0.9-1c0.3-0.1,0,0-0.1,0
				c-0.1,0-0.2,0-0.3,0c-0.2,0-0.4,0-0.7,0c-0.5,0-0.9,0-1.4-0.1c-0.9-0.1-1.8-0.2-2.6-0.1c-1.1,0.1-2.5,0.5-2.6,2.2
				c0,1.5,1.4,2.2,2.4,2.6l-0.3-2.7l-0.7,0.5c-0.5,0.3-0.7,1.1-0.6,1.7c0.2,0.6,0.6,1.1,1.2,1.1c0.8,0,1.6,0.1,2.5,0.1v-3
				c-0.8,0-1.8-0.1-2.5,0.3c-0.5,0.2-0.8,0.6-0.9,1.2s0.2,1.1,0.6,1.5c0.5,0.4,1,0.6,1.6,0.7c0.7,0.1,1.3-0.8,1.3-1.5
				C442.5,271.4,442,270.9,441.3,270.8L441.3,270.8L441.3,270.8z"/>
			<line class="st4" x1="340.3" y1="368.9" x2="319.1" y2="387.1"/>
			<path d="M1181.5,487.1l-18.9-34.9c-4.1-7.5-0.3-17.4,7.3-19.1l189.7-42.9c0.7-0.1,1.3-0.2,2-0.2l141.2-2.7
				c4.3-0.1,8.2,2.6,10.1,7l32.4,73.9c3.7,8.4-1.6,18.2-9.8,18.4l-344.4,6.6C1187.2,493.1,1183.5,490.9,1181.5,487.1L1181.5,487.1z"
				/>
			<path d="M426,486.6l18.9-34.9c4.1-7.5,0.3-17.4-7.3-19.1l-189.7-42.9c-0.7-0.1-1.3-0.2-2-0.2l-141.2-2.7c-4.3-0.1-8.2,2.6-10.1,7
				l-32.4,73.9c-3.7,8.4,1.6,18.2,9.8,18.4l344.4,6.6C420.3,492.7,423.9,490.4,426,486.6L426,486.6z"/>
			<g>
				<path class="st5" d="M112.7,369h4.5c2.4,0,4.4,2.4,4.4,5.3v2.4c0,2.9-2,5.3-4.4,5.3h-4.5c-2.4,0-4.4-2.4-4.4-5.3v-2.4
					C108.3,371.4,110.3,369,112.7,369z"/>
				<path class="st5" d="M133.5,369h4.5c2.4,0,4.4,2.4,4.4,5.3v2.4c0,2.9-2,5.3-4.4,5.3h-4.5c-2.4,0-4.4-2.4-4.4-5.3v-2.4
					C129.1,371.4,131.1,369,133.5,369z"/>
				<path class="st5" d="M153.5,369h4.5c2.4,0,4.4,2.4,4.4,5.3v2.4c0,2.9-2,5.3-4.4,5.3h-4.5c-2.4,0-4.4-2.4-4.4-5.3v-2.4
					C149.1,371.4,151.1,369,153.5,369z"/>
			</g>
			<g>
				<path class="st5" d="M1449.7,369h3.9c2.6,0,4.7,2.5,4.7,5.7v1.6c0,3.1-2.1,5.7-4.7,5.7h-3.9c-2.6,0-4.7-2.5-4.7-5.7v-1.6
					C1445,371.5,1447.1,369,1449.7,369z"/>
				<path class="st5" d="M1470.6,369h3.9c2.6,0,4.7,2.5,4.7,5.7v1.6c0,3.1-2.1,5.7-4.7,5.7h-3.9c-2.6,0-4.7-2.5-4.7-5.7v-1.6
					C1465.8,371.5,1467.9,369,1470.6,369z"/>
				<path class="st5" d="M1490.6,369h3.9c2.6,0,4.7,2.5,4.7,5.7v1.6c0,3.1-2.1,5.7-4.7,5.7h-3.9c-2.6,0-4.7-2.5-4.7-5.7v-1.6
					C1485.8,371.5,1487.9,369,1490.6,369z"/>
			</g>
			<ellipse class="st6" cx="186.6" cy="376.5" rx="5" ry="5.5"/>
			<ellipse class="st6" cx="1419.2" cy="376.5" rx="5" ry="5.5"/>
			<path class="st3" d="M1072,403.8l395.9-66.2c1.8-0.3,2.7-2.8,1.7-4.6l-8.5-14.6c-0.5-0.9-1.5-1.4-2.4-1.2l-387.4,80.7
				c-1.9,0.4-2.7,3.2-1.3,4.9l0,0C1070.4,403.6,1071.2,404,1072,403.8L1072,403.8z"/>
			<path class="st3" d="M1072,404.8l395.9-66.2c1.8-0.3,2.7-2.8,1.7-4.6l-8.5-14.6c-0.5-0.9-1.5-1.4-2.4-1.2l-387.4,80.7
				c-1.9,0.4-2.7,3.2-1.3,4.9l0,0C1070.4,404.6,1071.2,405,1072,404.8L1072,404.8z"/>
			<path class="st3" d="M531.5,403l-395.9-66.2c-1.8-0.3-2.7-2.8-1.7-4.6l8.5-14.6c0.5-0.9,1.5-1.4,2.4-1.2l387.4,80.7
				c1.9,0.4,2.7,3.2,1.3,4.9l0,0C533.1,402.8,532.3,403.1,531.5,403L531.5,403z"/>
			<polyline class="st3" points="659,414.5 536.8,401.5 650.7,427.5 696.1,414.5 532.3,397.2 533.6,402.1 			"/>
			<polyline class="st3" points="945.8,415.8 1068.1,402.8 954.1,428.8 908.8,415.8 1072.6,398.5 1071.2,403.4 			"/>
			<polyline class="st7" points="868.9,459.3 975,475 1063.3,403.9 1108.4,500.5 			"/>
			<polyline class="st7" points="725,459.4 617,475.1 527.1,403.9 481.2,500.6 			"/>
			<polyline class="st7" points="0,439.7 61,340.8 239.1,260 453.7,258.5 635.3,258.5 			"/>
			<polyline class="st7" points="1600,428.8 1561,340.8 1356.7,258 1149.5,258.6 975.1,263 			"/>
			<path d="M181.6,314.7l69.2-37.7h155l-64.6,56.7c-6.1,5.3-13.7,7.6-21.1,6.2L181.6,314.7L181.6,314.7z"/>
			<path d="M1422.3,313.7l-69.2-37.7h-155l64.6,56.7c6.1,5.3,13.7,7.6,21.1,6.2L1422.3,313.7L1422.3,313.7z"/>
		</g>
		<g id="Layer_3">
			<g>
				<polygon class="st8" points="997.3,276 1187.6,276 1255.9,341.3 1108.4,369 997.3,371 				"/>
				<polygon class="st9" points="992.8,289.8 990.7,381.8 1101.2,378.3 958.3,403.9 				"/>
				<g>
					<path d="M1010.3,284h38.7c3.8,0,6.9,3.7,6.9,8.3v3.7c0,4.6-3.1,8.3-6.9,8.3h-38.7c-3.8,0-6.9-3.7-6.9-8.3v-3.7
						C1003.3,287.7,1006.4,284,1010.3,284z"/>
					<path class="st10" d="M1013,307.6h34.3c1.2,0,2.2,1.2,2.2,2.7v1.2c0,1.5-1,2.7-2.2,2.7H1013c-1.2,0-2.2-1.2-2.2-2.7v-1.2
						C1010.7,308.8,1011.7,307.6,1013,307.6z"/>
					<path class="st11" d="M1015.8,302h9.9c0.6,0,1.2-0.3,1.6-0.8c0.4-0.4,1-0.9,1.9-0.9s1.4,0.5,1.8,0.9c0.4,0.5,1,0.8,1.6,0.8
						h11.7c1.9,0,3-2.6,1.8-4.4c-2.8-4-8.2-9.3-17-8.5c0,0-8.5-1.1-15,8.5C1012.8,299.3,1013.9,302,1015.8,302L1015.8,302z"/>
					<line class="st12" x1="1015.8" y1="297" x2="1017.5" y2="299"/>
					<line class="st12" x1="1019" y1="293.5" x2="1020.4" y2="295.8"/>
					<line class="st12" x1="1022.7" y1="291" x2="1023.7" y2="293.6"/>
					<line class="st12" x1="1029.1" y1="289.8" x2="1029.1" y2="292.4"/>
					<line class="st12" x1="1043.3" y1="297.5" x2="1041.6" y2="299.5"/>
					<line class="st12" x1="1040.2" y1="294" x2="1038.7" y2="296.3"/>
					<line class="st12" x1="1036.4" y1="291.4" x2="1035.4" y2="294"/>
					<ellipse class="st13" cx="1029.4" cy="302.2" rx="1" ry="1.2"/>
					<ellipse class="st13" cx="1029.4" cy="302.2" rx="1" ry="1.2"/>
					<ellipse class="st14" cx="1029.4" cy="302.2" rx="1" ry="1.2"/>
					<path class="st14" d="M1030.1,300l6.5-5.8l1.8-1.2l-1.2,1.6c0,0-0.1,0.1-0.1,0.1l-6.7,5.6"/>
				</g>
				<g>
					<path d="M1011.2,319h37.4c3.7,0,6.7,3.6,6.7,8.1v3.6c0,4.5-3,8.1-6.7,8.1h-37.4c-3.7,0-6.7-3.6-6.7-8.1v-3.6
						C1004.4,322.6,1007.4,319,1011.2,319z"/>
					<path class="st10" d="M1013.8,341.9h33.2c1.2,0,2.2,1.2,2.2,2.6v1.1c0,1.4-1,2.6-2.2,2.6h-33.2c-1.2,0-2.2-1.2-2.2-2.6v-1.1
						C1011.6,343.1,1012.6,341.9,1013.8,341.9z"/>
					<path class="st11" d="M1016.5,336.4h9.6c0.6,0,1.1-0.3,1.5-0.8c0.4-0.4,0.9-0.9,1.8-0.9c0.8,0,1.4,0.4,1.8,0.9
						c0.4,0.5,1,0.8,1.6,0.8h11.3c1.8,0,2.9-2.6,1.7-4.2c-2.7-3.9-7.9-9-16.4-8.3c0,0-8.2-1-14.5,8.2
						C1013.7,333.9,1014.6,336.4,1016.5,336.4L1016.5,336.4z"/>
					<line class="st12" x1="1016.5" y1="331.6" x2="1018.2" y2="333.5"/>
					<line class="st12" x1="1019.6" y1="328.2" x2="1020.9" y2="330.4"/>
					<line class="st12" x1="1023.2" y1="325.8" x2="1024.2" y2="328.3"/>
					<line class="st12" x1="1029.4" y1="324.6" x2="1029.4" y2="327.1"/>
					<line class="st12" x1="1043.2" y1="332" x2="1041.5" y2="334"/>
					<line class="st12" x1="1040.1" y1="328.7" x2="1038.7" y2="330.9"/>
					<line class="st12" x1="1036.5" y1="326.2" x2="1035.5" y2="328.7"/>
					<ellipse class="st13" cx="1029.7" cy="336.7" rx="1" ry="1.2"/>
					<ellipse class="st13" cx="1029.7" cy="336.7" rx="1" ry="1.2"/>
					<ellipse class="st14" cx="1029.7" cy="336.7" rx="1" ry="1.2"/>
					<path class="st14" d="M1030.4,334.5l6.3-5.6l1.7-1.2l-1.2,1.6c0,0,0,0.1-0.1,0.1l-6.4,5.5"/>
				</g>
				<path d="M1067.5,286.3v34.9c0,1.3,0.5,2.3,1.1,2.3h0.4c0.6,0,1.1-1,1.1-2.3v-34.9c0-1.3-0.5-2.3-1.1-2.3h-0.4
					C1068,284,1067.5,285,1067.5,286.3z"/>
				<path class="st15" d="M1066.9,308.9h3.6c0.8,0,1.4,0.8,1.4,1.7v6c0,0.9-0.6,1.7-1.4,1.7h-3.6c-0.8,0-1.4-0.8-1.4-1.7v-6
					C1065.5,309.7,1066.1,308.9,1066.9,308.9z"/>
				<path d="M1080.6,286.4v34.9c0,1.3,0.5,2.3,1.1,2.3h0.4c0.6,0,1.1-1,1.1-2.3v-34.9c0-1.3-0.5-2.3-1.1-2.3h-0.4
					C1081,284.1,1080.6,285.1,1080.6,286.4z"/>
				<path class="st15" d="M1080,299h3.6c0.8,0,1.4,0.8,1.4,1.7v6c0,0.9-0.6,1.7-1.4,1.7h-3.6c-0.8,0-1.4-0.8-1.4-1.7v-6
					C1078.6,299.8,1079.2,299,1080,299z"/>
				<path d="M1067.5,286.3v34.9c0,1.3,0.5,2.3,1.1,2.3h0.4c0.6,0,1.1-1,1.1-2.3v-34.9c0-1.3-0.5-2.3-1.1-2.3h-0.4
					C1068,284,1067.5,285,1067.5,286.3z"/>
				<path class="st15" d="M1066.9,308.9h3.6c0.8,0,1.4,0.8,1.4,1.7v6c0,0.9-0.6,1.7-1.4,1.7h-3.6c-0.8,0-1.4-0.8-1.4-1.7v-6
					C1065.5,309.7,1066.1,308.9,1066.9,308.9z"/>
				<path d="M1092,286.7v34.9c0,1.3,0.5,2.3,1.1,2.3h0.4c0.6,0,1.1-1,1.1-2.3v-34.9c0-1.3-0.5-2.3-1.1-2.3h-0.4
					C1092.5,284.4,1092,285.5,1092,286.7z"/>
				<path class="st15" d="M1091.5,309.4h3.6c0.8,0,1.4,0.8,1.4,1.7v6c0,0.9-0.6,1.7-1.4,1.7h-3.6c-0.8,0-1.4-0.8-1.4-1.7v-6
					C1090.1,310.1,1090.7,309.4,1091.5,309.4z"/>
				<path class="st5" d="M1065.7,330h5.3c0.8,0,1.5,0.8,1.5,1.8v3.4c0,1-0.7,1.8-1.5,1.8h-5.3c-0.8,0-1.5-0.8-1.5-1.8v-3.4
					C1064.2,330.8,1064.8,330,1065.7,330z"/>
				<path class="st5" d="M1078.2,330h5.3c0.8,0,1.5,0.8,1.5,1.8v3.4c0,1-0.7,1.8-1.5,1.8h-5.3c-0.8,0-1.5-0.8-1.5-1.8v-3.4
					C1076.7,330.8,1077.3,330,1078.2,330z"/>
				<path class="st5" d="M1090.7,330h5.3c0.8,0,1.5,0.8,1.5,1.8v3.4c0,1-0.7,1.8-1.5,1.8h-5.3c-0.8,0-1.5-0.8-1.5-1.8v-3.4
					C1089.2,330.8,1089.8,330,1090.7,330z"/>
				<path d="M1118.6,284.4l62.7-0.4c3.4,0,6.2,3.3,6.2,7.4l-0.1,32.1c0,4.1-2.8,7.4-6.2,7.4h-62.7c-3.4,0-6.2-3.3-6.2-7.4v-31.8
					C1112.5,287.7,1115.2,284.4,1118.6,284.4L1118.6,284.4z"/>
				<g>
					<path class="st16" d="M1127.5,333.5h46.2c0.6,0,1.1,0.6,1.1,1.3v0c0,0.7-0.5,1.3-1.1,1.3h-46.2c-0.6,0-1.1-0.6-1.1-1.3v0
						C1126.4,334.1,1126.9,333.5,1127.5,333.5z"/>
					<path class="st16" d="M1127.3,337.5h46.2c0.6,0,1.1,0.6,1.1,1.3v0c0,0.7-0.5,1.3-1.1,1.3h-46.2c-0.6,0-1.1-0.6-1.1-1.3v0
						C1126.2,338.1,1126.7,337.5,1127.3,337.5z"/>
					<path class="st16" d="M1127.3,341.3h46.2c0.6,0,1.1,0.6,1.1,1.3v0c0,0.7-0.5,1.3-1.1,1.3h-46.2c-0.6,0-1.1-0.6-1.1-1.3v0
						C1126.2,341.9,1126.7,341.3,1127.3,341.3z"/>
				</g>
				<path class="st17" d="M1203.7,298.5l34.4,36c1.7,1.8,0.9,5.1-1.3,5.6l-43.1,8.5c-1.8,0.4-3.4-1.6-3.1-3.8l6.8-43.7
					C1198.1,297.6,1201.6,296.2,1203.7,298.5L1203.7,298.5z"/>
				<path class="st17" d="M1191.7,293l-0.8,47.7c0,0.7,0.8,0.9,1,0.2l12-41.8c0.1-0.2,0-0.5-0.2-0.7l-11.2-10.6
					c-0.3-0.3-0.8,0-0.8,0.5L1191.7,293L1191.7,293z"/>
				<polyline class="st17" points="1191,337 1190.7,344.7 1191.8,337.9 				"/>
				<g>
					<g>
						<path d="M1063,343h36.8c1.2,0,2.2,1.2,2.2,2.6v3.7c0,1.5-1,2.6-2.2,2.6H1063c-1.2,0-2.2-1.2-2.2-2.6v-3.7
							C1060.8,344.2,1061.8,343,1063,343z"/>
						<path class="st18" d="M1063.8,344.3h35.4c1,0,1.9,1,1.9,2.2l0,0c0,1.2-0.8,2.2-1.9,2.2h-35.4c-1,0-1.9-1-1.9-2.2l0,0
							C1061.9,345.3,1062.7,344.3,1063.8,344.3z"/>
						<ellipse class="st19" cx="1062.7" cy="350.4" rx="0.8" ry="1"/>
						<ellipse class="st20" cx="1065.4" cy="350.4" rx="0.8" ry="1"/>
						<line class="st21" x1="1061.9" y1="347.2" x2="1101" y2="347.2"/>
						<g>
							<line class="st22" x1="1063" y1="344.1" x2="1063" y2="345.3"/>
							<line class="st22" x1="1064.3" y1="344.1" x2="1064.3" y2="345.6"/>
							<line class="st22" x1="1065.8" y1="344.1" x2="1065.8" y2="345.3"/>
							<line class="st22" x1="1068.2" y1="344.1" x2="1068.2" y2="345.3"/>
							<line class="st22" x1="1069.7" y1="344.1" x2="1069.7" y2="345.9"/>
							<line class="st22" x1="1066.9" y1="344.1" x2="1066.9" y2="345.9"/>
							<line class="st22" x1="1071" y1="344.1" x2="1071" y2="345.6"/>
							<line class="st22" x1="1072.3" y1="344.1" x2="1072.3" y2="345.3"/>
							<line class="st22" x1="1073.5" y1="344.1" x2="1073.5" y2="345.6"/>
							<line class="st22" x1="1074.6" y1="344.1" x2="1074.6" y2="345"/>
							<line class="st22" x1="1075.9" y1="344.1" x2="1075.9" y2="345.9"/>
							<line class="st22" x1="1077.1" y1="344.1" x2="1077.1" y2="345"/>
							<line class="st22" x1="1078.2" y1="344.1" x2="1078.2" y2="346.2"/>
							<line class="st22" x1="1079.3" y1="344.1" x2="1079.3" y2="345.2"/>
							<line class="st22" x1="1080.1" y1="344.1" x2="1080.1" y2="344.9"/>
							<line class="st22" x1="1081.2" y1="344.1" x2="1081.2" y2="345.9"/>
							<line class="st22" x1="1082.3" y1="344.1" x2="1082.3" y2="345.3"/>
							<line class="st22" x1="1083.3" y1="344.1" x2="1083.3" y2="345.9"/>
						</g>
						<g>
							<line class="st22" x1="1084.1" y1="344" x2="1084.1" y2="345.2"/>
							<line class="st22" x1="1085.2" y1="344" x2="1085.2" y2="345.5"/>
							<line class="st22" x1="1086.4" y1="344" x2="1086.4" y2="345.2"/>
							<line class="st22" x1="1088.3" y1="344" x2="1088.3" y2="345.2"/>
							<line class="st22" x1="1089.5" y1="344" x2="1089.5" y2="345.8"/>
							<line class="st22" x1="1087.3" y1="344" x2="1087.3" y2="345.8"/>
							<line class="st22" x1="1090.6" y1="344" x2="1090.6" y2="345.5"/>
							<line class="st22" x1="1091.6" y1="344" x2="1091.6" y2="345.2"/>
							<line class="st22" x1="1092.6" y1="344" x2="1092.6" y2="345.5"/>
							<line class="st22" x1="1093.5" y1="344" x2="1093.5" y2="344.9"/>
							<line class="st22" x1="1094.5" y1="344" x2="1094.5" y2="345.8"/>
							<line class="st22" x1="1095.5" y1="344" x2="1095.5" y2="344.9"/>
							<line class="st22" x1="1096.3" y1="344" x2="1096.3" y2="346.1"/>
							<line class="st22" x1="1097.2" y1="344" x2="1097.2" y2="345"/>
							<line class="st22" x1="1097.9" y1="344" x2="1097.9" y2="344.7"/>
							<line class="st22" x1="1098.8" y1="344" x2="1098.8" y2="345.8"/>
							<line class="st22" x1="1099.6" y1="344" x2="1099.6" y2="345.2"/>
							<line class="st22" x1="1100.5" y1="344" x2="1100.5" y2="345.8"/>
						</g>
					</g>
					<rect x="1086.7" y="344.3" class="st14" width="1" height="4.5"/>
				</g>
				<g>
					<g>
						<path d="M1063,356.5h36.8c1.2,0,2.2,1.2,2.2,2.6v3.7c0,1.5-1,2.6-2.2,2.6H1063c-1.2,0-2.2-1.2-2.2-2.6v-3.7
							C1060.8,357.7,1061.8,356.5,1063,356.5z"/>
						<path class="st18" d="M1063.7,357.8h35.4c1,0,1.9,1,1.9,2.2l0,0c0,1.2-0.8,2.2-1.9,2.2h-35.4c-1,0-1.9-1-1.9-2.2l0,0
							C1061.9,358.8,1062.7,357.8,1063.7,357.8z"/>
						<ellipse class="st19" cx="1062.7" cy="363.9" rx="0.8" ry="1"/>
						<ellipse class="st20" cx="1065.4" cy="363.9" rx="0.8" ry="1"/>
						<line class="st21" x1="1061.9" y1="360.7" x2="1101" y2="360.7"/>
						<g>
							<line class="st22" x1="1062.9" y1="357.7" x2="1062.9" y2="358.9"/>
							<line class="st22" x1="1064.2" y1="357.7" x2="1064.2" y2="359.1"/>
							<line class="st22" x1="1065.8" y1="357.7" x2="1065.8" y2="358.9"/>
							<line class="st22" x1="1068.2" y1="357.7" x2="1068.2" y2="358.9"/>
							<line class="st22" x1="1069.7" y1="357.7" x2="1069.7" y2="359.5"/>
							<line class="st22" x1="1066.9" y1="357.7" x2="1066.9" y2="359.5"/>
							<line class="st22" x1="1071" y1="357.7" x2="1071" y2="359.1"/>
							<line class="st22" x1="1072.3" y1="357.7" x2="1072.3" y2="358.9"/>
							<line class="st22" x1="1073.5" y1="357.7" x2="1073.5" y2="359.1"/>
							<line class="st22" x1="1074.6" y1="357.7" x2="1074.6" y2="358.6"/>
							<line class="st22" x1="1075.8" y1="357.7" x2="1075.8" y2="359.5"/>
							<line class="st22" x1="1077.1" y1="357.7" x2="1077.1" y2="358.6"/>
							<line class="st22" x1="1078.2" y1="357.7" x2="1078.2" y2="359.8"/>
							<line class="st22" x1="1079.3" y1="357.7" x2="1079.3" y2="358.7"/>
							<line class="st22" x1="1080.1" y1="357.7" x2="1080.1" y2="358.4"/>
							<line class="st22" x1="1081.2" y1="357.7" x2="1081.2" y2="359.5"/>
							<line class="st22" x1="1082.2" y1="357.7" x2="1082.2" y2="358.9"/>
							<line class="st22" x1="1083.3" y1="357.7" x2="1083.3" y2="359.5"/>
						</g>
						<g>
							<line class="st22" x1="1084.1" y1="357.5" x2="1084.1" y2="358.7"/>
							<line class="st22" x1="1085.2" y1="357.5" x2="1085.2" y2="359"/>
							<line class="st22" x1="1086.4" y1="357.5" x2="1086.4" y2="358.7"/>
							<line class="st22" x1="1088.3" y1="357.5" x2="1088.3" y2="358.7"/>
							<line class="st22" x1="1089.5" y1="357.5" x2="1089.5" y2="359.3"/>
							<line class="st22" x1="1087.3" y1="357.5" x2="1087.3" y2="359.3"/>
							<line class="st22" x1="1090.6" y1="357.5" x2="1090.6" y2="359"/>
							<line class="st22" x1="1091.6" y1="357.5" x2="1091.6" y2="358.7"/>
							<line class="st22" x1="1092.6" y1="357.5" x2="1092.6" y2="359"/>
							<line class="st22" x1="1093.5" y1="357.5" x2="1093.5" y2="358.4"/>
							<line class="st22" x1="1094.5" y1="357.5" x2="1094.5" y2="359.3"/>
							<line class="st22" x1="1095.5" y1="357.5" x2="1095.5" y2="358.4"/>
							<line class="st22" x1="1096.3" y1="357.5" x2="1096.3" y2="359.6"/>
							<line class="st22" x1="1097.2" y1="357.5" x2="1097.2" y2="358.6"/>
							<line class="st22" x1="1097.9" y1="357.5" x2="1097.9" y2="358.3"/>
							<line class="st22" x1="1098.7" y1="357.5" x2="1098.7" y2="359.3"/>
							<line class="st22" x1="1099.6" y1="357.5" x2="1099.6" y2="358.7"/>
							<line class="st22" x1="1100.4" y1="357.5" x2="1100.4" y2="359.3"/>
						</g>
					</g>
					<rect x="1073.4" y="357.8" class="st14" width="1" height="4.5"/>
				</g>
				<path class="st5" d="M1134.8,347h5.3c0.8,0,1.5,0.8,1.5,1.8v3.4c0,1-0.7,1.8-1.5,1.8h-5.3c-0.8,0-1.5-0.8-1.5-1.8v-3.4
					C1133.3,347.8,1134,347,1134.8,347z"/>
				<path class="st5" d="M1147.3,347h5.3c0.8,0,1.5,0.8,1.5,1.8v3.4c0,1-0.7,1.8-1.5,1.8h-5.3c-0.8,0-1.5-0.8-1.5-1.8v-3.4
					C1145.8,347.8,1146.5,347,1147.3,347z"/>
				<path class="st5" d="M1159.8,347h5.3c0.8,0,1.5,0.8,1.5,1.8v3.4c0,1-0.7,1.8-1.5,1.8h-5.3c-0.8,0-1.5-0.8-1.5-1.8v-3.4
					C1158.3,347.8,1159,347,1159.8,347z"/>
				<path d="M1107.3,338.7v25.7c0,0.9,0.4,1.7,0.8,1.7h0.3c0.4,0,0.8-0.8,0.8-1.7v-25.7c0-0.9-0.3-1.7-0.8-1.7h-0.3
					C1107.7,337,1107.3,337.7,1107.3,338.7z"/>
				<path class="st23" d="M1106.9,355h2.2c0.5,0,0.9,0.5,0.9,1v3.7c0,0.6-0.4,1-0.9,1h-2.2c-0.5,0-0.9-0.5-0.9-1V356
					C1106,355.5,1106.4,355,1106.9,355z"/>
				<line class="st8" x1="1105" y1="284" x2="1105" y2="327.7"/>
				<line class="st8" x1="1118.6" y1="336.2" x2="1118.6" y2="361"/>
				<line class="st8" x1="1185.4" y1="281.5" x2="1110" y2="281.5"/>
				<polyline class="st8" points="1055,342.7 1055,365.5 1004.4,366.1 1004.4,343.4 				"/>
				<polygon class="st8" points="600,276.8 409.8,276.8 341.5,342.1 488.9,369.8 600,371.8 				"/>
				<polygon class="st9" points="604.6,290.6 606.7,382.6 496.1,379.1 639.1,404.7 				"/>
				<g>
					<path d="M548.4,284.8h38.7c3.8,0,6.9,3.7,6.9,8.3v3.7c0,4.6-3.1,8.3-6.9,8.3h-38.7c-3.8,0-6.9-3.7-6.9-8.3v-3.7
						C541.5,288.5,544.6,284.8,548.4,284.8z"/>
					<path class="st10" d="M550.1,308.5h34.3c1.2,0,2.2,1.2,2.2,2.7v1.2c0,1.5-1,2.7-2.2,2.7h-34.3c-1.2,0-2.2-1.2-2.2-2.7v-1.2
						C547.9,309.6,548.9,308.5,550.1,308.5z"/>
					<path class="st11" d="M581.6,302.8h-9.9c-0.6,0-1.2-0.3-1.6-0.8c-0.4-0.4-1-0.9-1.9-0.9s-1.4,0.5-1.8,0.9
						c-0.4,0.5-1,0.8-1.6,0.8h-11.7c-1.9,0-3-2.6-1.8-4.4c2.8-4,8.2-9.3,17-8.5c0,0,8.5-1.1,15,8.5
						C584.5,300.2,583.5,302.8,581.6,302.8L581.6,302.8z"/>
					<line class="st12" x1="581.5" y1="297.8" x2="579.9" y2="299.8"/>
					<line class="st12" x1="578.4" y1="294.4" x2="577" y2="296.6"/>
					<line class="st12" x1="574.6" y1="291.8" x2="573.7" y2="294.4"/>
					<line class="st12" x1="568.3" y1="290.6" x2="568.3" y2="293.2"/>
					<line class="st12" x1="554.1" y1="298.3" x2="555.7" y2="300.3"/>
					<line class="st12" x1="557.2" y1="294.8" x2="558.6" y2="297.1"/>
					<line class="st12" x1="561" y1="292.2" x2="561.9" y2="294.8"/>
					<ellipse class="st13" cx="568" cy="303.1" rx="1" ry="1.2"/>
					<ellipse class="st13" cx="568" cy="303.1" rx="1" ry="1.2"/>
					<ellipse class="st14" cx="568" cy="303.1" rx="1" ry="1.2"/>
					<path class="st14" d="M569.9,300.8l6.5-5.8l1.8-1.2l-1.2,1.6c0,0,0,0.1-0.1,0.1l-6.7,5.6"/>
				</g>
				<g>
					<path d="M548.8,319.8h37.4c3.7,0,6.7,3.6,6.7,8.1v3.6c0,4.5-3,8.1-6.7,8.1h-37.4c-3.7,0-6.7-3.6-6.7-8.1v-3.6
						C542,323.4,545.1,319.8,548.8,319.8z"/>
					<path class="st10" d="M550.4,342.7h33.2c1.2,0,2.2,1.2,2.2,2.6v1.1c0,1.4-1,2.6-2.2,2.6h-33.2c-1.2,0-2.2-1.2-2.2-2.6v-1.1
						C548.2,343.9,549.2,342.7,550.4,342.7z"/>
					<path class="st11" d="M580.9,337.2h-9.6c-0.6,0-1.1-0.3-1.5-0.8c-0.4-0.4-1-0.9-1.8-0.9c-0.8,0-1.4,0.4-1.8,0.9
						c-0.4,0.5-1,0.8-1.6,0.8h-11.3c-1.8,0-2.9-2.6-1.7-4.2c2.7-3.9,7.9-9,16.4-8.3c0,0,8.2-1,14.5,8.2
						C583.7,334.7,582.7,337.2,580.9,337.2L580.9,337.2z"/>
					<line class="st12" x1="580.8" y1="332.4" x2="579.2" y2="334.4"/>
					<line class="st12" x1="577.8" y1="329.1" x2="576.4" y2="331.3"/>
					<line class="st12" x1="574.1" y1="326.6" x2="573.2" y2="329.1"/>
					<line class="st12" x1="568" y1="325.4" x2="568" y2="328"/>
					<line class="st12" x1="554.2" y1="332.9" x2="555.8" y2="334.8"/>
					<line class="st12" x1="557.2" y1="329.5" x2="558.6" y2="331.7"/>
					<line class="st12" x1="560.9" y1="327" x2="561.8" y2="329.5"/>
					<ellipse class="st13" cx="567.7" cy="337.5" rx="1" ry="1.2"/>
					<ellipse class="st13" cx="567.7" cy="337.5" rx="1" ry="1.2"/>
					<ellipse class="st14" cx="567.7" cy="337.5" rx="1" ry="1.2"/>
					<path class="st14" d="M567,335.3l-6.3-5.6l-1.7-1.2l1.2,1.6c0,0,0,0.1,0.1,0.1l6.4,5.5"/>
				</g>
				<path d="M529.9,287.1V322c0,1.3-0.5,2.3-1.1,2.3h-0.4c-0.6,0-1.1-1-1.1-2.3v-34.9c0-1.3,0.5-2.3,1.1-2.3h0.4
					C529.4,284.8,529.9,285.9,529.9,287.1L529.9,287.1z"/>
				<path class="st15" d="M526.9,309.7h3.6c0.8,0,1.4,0.8,1.4,1.7v6c0,0.9-0.6,1.7-1.4,1.7h-3.6c-0.8,0-1.4-0.8-1.4-1.7v-6
					C525.5,310.5,526.1,309.7,526.9,309.7z"/>
				<path d="M516.8,287.2v34.9c0,1.3-0.5,2.3-1.1,2.3h-0.4c-0.6,0-1-1-1-2.3v-34.9c0-1.3,0.5-2.3,1-2.3h0.4
					C516.3,284.9,516.8,286,516.8,287.2z"/>
				<path class="st15" d="M513.8,299.8h3.6c0.8,0,1.4,0.8,1.4,1.7v6c0,0.9-0.6,1.7-1.4,1.7h-3.6c-0.8,0-1.4-0.8-1.4-1.7v-6
					C512.4,300.6,513,299.8,513.8,299.8z"/>
				<path d="M529.9,287.1V322c0,1.3-0.5,2.3-1.1,2.3h-0.4c-0.6,0-1.1-1-1.1-2.3v-34.9c0-1.3,0.5-2.3,1.1-2.3h0.4
					C529.4,284.8,529.9,285.9,529.9,287.1L529.9,287.1z"/>
				<path class="st15" d="M526.9,309.7h3.6c0.8,0,1.4,0.8,1.4,1.7v6c0,0.9-0.6,1.7-1.4,1.7h-3.6c-0.8,0-1.4-0.8-1.4-1.7v-6
					C525.5,310.5,526.1,309.7,526.9,309.7z"/>
				<path d="M505.3,287.5v34.9c0,1.3-0.5,2.3-1.1,2.3h-0.4c-0.6,0-1.1-1-1.1-2.3v-34.9c0-1.3,0.5-2.3,1.1-2.3h0.4
					C504.8,285.3,505.3,286.3,505.3,287.5L505.3,287.5z"/>
				<path class="st15" d="M502.3,310.2h3.6c0.8,0,1.4,0.8,1.4,1.7v6c0,0.9-0.6,1.7-1.4,1.7h-3.6c-0.8,0-1.4-0.8-1.4-1.7v-6
					C500.9,310.9,501.5,310.2,502.3,310.2z"/>
				<path class="st5" d="M531.7,337.8h-5.3c-0.8,0-1.5-0.8-1.5-1.8v-3.4c0-1,0.7-1.8,1.5-1.8h5.3c0.8,0,1.5,0.8,1.5,1.8v3.4
					C533.2,337,532.5,337.8,531.7,337.8z"/>
				<path class="st5" d="M519.2,337.8h-5.3c-0.8,0-1.5-0.8-1.5-1.8v-3.4c0-1,0.7-1.8,1.5-1.8h5.3c0.8,0,1.5,0.8,1.5,1.8v3.4
					C520.7,337,520,337.8,519.2,337.8z"/>
				<path class="st5" d="M506.7,337.8h-5.3c-0.8,0-1.5-0.8-1.5-1.8v-3.4c0-1,0.7-1.8,1.5-1.8h5.3c0.8,0,1.5,0.8,1.5,1.8v3.4
					C508.2,337,507.5,337.8,506.7,337.8z"/>
				<path d="M478.7,285.2l-62.7-0.4c-3.4,0-6.2,3.3-6.2,7.4l0,32.1c0,4.1,2.8,7.4,6.2,7.4h62.7c3.4,0,6.2-3.3,6.2-7.4v-31.8
					C484.9,288.6,482.1,285.2,478.7,285.2L478.7,285.2z"/>
				<g>
					<path class="st16" d="M423.7,334.3h46.2c0.6,0,1.1,0.6,1.1,1.3v0c0,0.7-0.5,1.3-1.1,1.3h-46.2c-0.6,0-1.1-0.6-1.1-1.3v0
						C422.6,334.9,423.1,334.3,423.7,334.3z"/>
					<path class="st16" d="M423.9,338.4H470c0.6,0,1.1,0.6,1.1,1.3v0c0,0.7-0.5,1.3-1.1,1.3h-46.2c-0.6,0-1.1-0.6-1.1-1.3v0
						C422.7,339,423.2,338.4,423.9,338.4z"/>
					<path class="st16" d="M423.9,342.2H470c0.6,0,1.1,0.6,1.1,1.3v0c0,0.7-0.5,1.3-1.1,1.3h-46.2c-0.6,0-1.1-0.6-1.1-1.3v0
						C422.7,342.8,423.2,342.2,423.9,342.2z"/>
				</g>
				<path class="st17" d="M393.6,299.3l-34.4,36c-1.7,1.8-0.9,5.1,1.3,5.6l43.1,8.5c1.8,0.4,3.4-1.6,3.1-3.8l-6.8-43.7
					C399.2,298.4,395.8,297,393.6,299.3L393.6,299.3z"/>
				<path class="st17" d="M405.7,293.8l0.8,47.7c0,0.7-0.8,0.9-1,0.2l-12-41.8c-0.1-0.2,0-0.5,0.2-0.7l11.2-10.6
					c0.3-0.3,0.8,0,0.8,0.5L405.7,293.8L405.7,293.8z"/>
				<polyline class="st17" points="406.4,337.9 406.6,345.6 405.5,338.7 				"/>
				<g>
					<path d="M534.3,352.8h-36.8c-1.2,0-2.2-1.2-2.2-2.6v-3.7c0-1.5,1-2.6,2.2-2.6h36.8c1.2,0,2.2,1.2,2.2,2.6v3.7
						C536.5,351.6,535.6,352.8,534.3,352.8z"/>
					<path class="st18" d="M533.6,349.6h-35.4c-1,0-1.9-1-1.9-2.2l0,0c0-1.2,0.8-2.2,1.9-2.2h35.4c1,0,1.9,1,1.9,2.2l0,0
						C535.5,348.6,534.6,349.6,533.6,349.6z"/>
					<ellipse class="st19" cx="498" cy="351.2" rx="0.8" ry="1"/>
					<ellipse class="st20" cx="500.3" cy="351.2" rx="0.8" ry="1"/>
					<line class="st21" x1="535.5" y1="348" x2="496.4" y2="348"/>
					<g>
						<line class="st22" x1="534.4" y1="345" x2="534.4" y2="346.1"/>
						<line class="st22" x1="533.1" y1="345" x2="533.1" y2="346.4"/>
						<line class="st22" x1="531.5" y1="345" x2="531.5" y2="346.1"/>
						<line class="st22" x1="529.2" y1="345" x2="529.2" y2="346.1"/>
						<line class="st22" x1="527.7" y1="345" x2="527.7" y2="346.8"/>
						<line class="st22" x1="530.4" y1="345" x2="530.4" y2="346.8"/>
						<line class="st22" x1="526.4" y1="345" x2="526.4" y2="346.4"/>
						<line class="st22" x1="525" y1="345" x2="525" y2="346.1"/>
						<line class="st22" x1="523.8" y1="345" x2="523.8" y2="346.4"/>
						<line class="st22" x1="522.7" y1="345" x2="522.7" y2="345.9"/>
						<line class="st22" x1="521.5" y1="345" x2="521.5" y2="346.8"/>
						<line class="st22" x1="520.3" y1="345" x2="520.3" y2="345.9"/>
						<line class="st22" x1="519.2" y1="345" x2="519.2" y2="347"/>
						<line class="st22" x1="518.1" y1="345" x2="518.1" y2="346"/>
						<line class="st22" x1="517.2" y1="345" x2="517.2" y2="345.7"/>
						<line class="st22" x1="516.2" y1="345" x2="516.2" y2="346.8"/>
						<line class="st22" x1="515.1" y1="345" x2="515.1" y2="346.1"/>
						<line class="st22" x1="514" y1="345" x2="514" y2="346.8"/>
					</g>
					<g>
						<line class="st22" x1="513.2" y1="344.8" x2="513.2" y2="346"/>
						<line class="st22" x1="512.2" y1="344.8" x2="512.2" y2="346.3"/>
						<line class="st22" x1="510.9" y1="344.8" x2="510.9" y2="346"/>
						<line class="st22" x1="509" y1="344.8" x2="509" y2="346"/>
						<line class="st22" x1="507.8" y1="344.8" x2="507.8" y2="346.6"/>
						<line class="st22" x1="510" y1="344.8" x2="510" y2="346.6"/>
						<line class="st22" x1="506.8" y1="344.8" x2="506.8" y2="346.3"/>
						<line class="st22" x1="505.7" y1="344.8" x2="505.7" y2="346"/>
						<line class="st22" x1="504.7" y1="344.8" x2="504.7" y2="346.3"/>
						<line class="st22" x1="503.8" y1="344.8" x2="503.8" y2="345.7"/>
						<line class="st22" x1="502.9" y1="344.8" x2="502.9" y2="346.6"/>
						<line class="st22" x1="501.9" y1="344.8" x2="501.9" y2="345.7"/>
						<line class="st22" x1="501" y1="344.8" x2="501" y2="346.9"/>
						<line class="st22" x1="500.1" y1="344.8" x2="500.1" y2="345.8"/>
						<line class="st22" x1="499.5" y1="344.8" x2="499.5" y2="345.5"/>
						<line class="st22" x1="498.6" y1="344.8" x2="498.6" y2="346.6"/>
						<line class="st22" x1="497.7" y1="344.8" x2="497.7" y2="346"/>
						<line class="st22" x1="496.9" y1="344.8" x2="496.9" y2="346.6"/>
					</g>
					<rect x="518" y="345.1" class="st14" width="1" height="4.5"/>
				</g>
				<path class="st5" d="M462.5,354.8h-5.3c-0.8,0-1.5-0.8-1.5-1.8v-3.4c0-1,0.7-1.8,1.5-1.8h5.3c0.8,0,1.5,0.8,1.5,1.8v3.4
					C464,354,463.4,354.8,462.5,354.8z"/>
				<path class="st5" d="M450,354.8h-5.3c-0.8,0-1.5-0.8-1.5-1.8v-3.4c0-1,0.7-1.8,1.5-1.8h5.3c0.8,0,1.5,0.8,1.5,1.8v3.4
					C451.5,354,450.9,354.8,450,354.8z"/>
				<path class="st5" d="M437.5,354.8h-5.3c-0.8,0-1.5-0.8-1.5-1.8v-3.4c0-1,0.7-1.8,1.5-1.8h5.3c0.8,0,1.5,0.8,1.5,1.8v3.4
					C439,354,438.4,354.8,437.5,354.8z"/>
				<path d="M490.1,339.5v25.7c0,0.9-0.4,1.7-0.8,1.7H489c-0.4,0-0.8-0.8-0.8-1.7v-25.7c0-0.9,0.3-1.7,0.8-1.7h0.3
					C489.7,337.8,490.1,338.6,490.1,339.5z"/>
				<path class="st23" d="M488.2,355.8h2.2c0.5,0,0.9,0.5,0.9,1v3.7c0,0.6-0.4,1-0.9,1h-2.2c-0.5,0-0.9-0.5-0.9-1v-3.7
					C487.4,356.3,487.8,355.8,488.2,355.8z"/>
				<line class="st8" x1="492.4" y1="284.9" x2="492.4" y2="328.5"/>
				<line class="st8" x1="478.7" y1="337" x2="478.7" y2="361.9"/>
				<line class="st8" x1="412" y1="282.3" x2="487.4" y2="282.3"/>
				<polyline class="st8" points="542.4,343.5 542.4,366.4 592.9,366.9 592.9,344.2 				"/>
				<g>
					<path d="M534.4,366.4h-36.8c-1.2,0-2.2-1.2-2.2-2.6V360c0-1.5,1-2.6,2.2-2.6h36.8c1.2,0,2.2,1.2,2.2,2.6v3.7
						C536.6,365.2,535.6,366.4,534.4,366.4z"/>
					<path class="st18" d="M533.6,363.1h-35.4c-1,0-1.9-1-1.9-2.2l0,0c0-1.2,0.8-2.2,1.9-2.2h35.4c1,0,1.9,1,1.9,2.2l0,0
						C535.5,362.1,534.6,363.1,533.6,363.1z"/>
					<ellipse class="st19" cx="498" cy="364.8" rx="0.8" ry="1"/>
					<ellipse class="st20" cx="500.3" cy="364.8" rx="0.8" ry="1"/>
					<line class="st21" x1="535.5" y1="361.5" x2="496.4" y2="361.5"/>
					<g>
						<line class="st22" x1="534.4" y1="358.5" x2="534.4" y2="359.7"/>
						<line class="st22" x1="533.1" y1="358.5" x2="533.1" y2="360"/>
						<line class="st22" x1="531.5" y1="358.5" x2="531.5" y2="359.7"/>
						<line class="st22" x1="529.2" y1="358.5" x2="529.2" y2="359.7"/>
						<line class="st22" x1="527.7" y1="358.5" x2="527.7" y2="360.3"/>
						<line class="st22" x1="530.4" y1="358.5" x2="530.4" y2="360.3"/>
						<line class="st22" x1="526.4" y1="358.5" x2="526.4" y2="360"/>
						<line class="st22" x1="525.1" y1="358.5" x2="525.1" y2="359.7"/>
						<line class="st22" x1="523.8" y1="358.5" x2="523.8" y2="360"/>
						<line class="st22" x1="522.7" y1="358.5" x2="522.7" y2="359.4"/>
						<line class="st22" x1="521.5" y1="358.5" x2="521.5" y2="360.3"/>
						<line class="st22" x1="520.3" y1="358.5" x2="520.3" y2="359.4"/>
						<line class="st22" x1="519.2" y1="358.5" x2="519.2" y2="360.6"/>
						<line class="st22" x1="518.1" y1="358.5" x2="518.1" y2="359.5"/>
						<line class="st22" x1="517.3" y1="358.5" x2="517.3" y2="359.2"/>
						<line class="st22" x1="516.2" y1="358.5" x2="516.2" y2="360.3"/>
						<line class="st22" x1="515.1" y1="358.5" x2="515.1" y2="359.7"/>
						<line class="st22" x1="514.1" y1="358.5" x2="514.1" y2="360.3"/>
					</g>
					<g>
						<line class="st22" x1="513.2" y1="358.3" x2="513.2" y2="359.5"/>
						<line class="st22" x1="512.2" y1="358.3" x2="512.2" y2="359.8"/>
						<line class="st22" x1="510.9" y1="358.3" x2="510.9" y2="359.5"/>
						<line class="st22" x1="509.1" y1="358.3" x2="509.1" y2="359.5"/>
						<line class="st22" x1="507.8" y1="358.3" x2="507.8" y2="360.1"/>
						<line class="st22" x1="510" y1="358.3" x2="510" y2="360.1"/>
						<line class="st22" x1="506.8" y1="358.3" x2="506.8" y2="359.8"/>
						<line class="st22" x1="505.7" y1="358.3" x2="505.7" y2="359.5"/>
						<line class="st22" x1="504.8" y1="358.3" x2="504.8" y2="359.8"/>
						<line class="st22" x1="503.9" y1="358.3" x2="503.9" y2="359.2"/>
						<line class="st22" x1="502.9" y1="358.3" x2="502.9" y2="360.1"/>
						<line class="st22" x1="501.9" y1="358.3" x2="501.9" y2="359.2"/>
						<line class="st22" x1="501" y1="358.3" x2="501" y2="360.4"/>
						<line class="st22" x1="500.1" y1="358.3" x2="500.1" y2="359.4"/>
						<line class="st22" x1="499.5" y1="358.3" x2="499.5" y2="359.1"/>
						<line class="st22" x1="498.6" y1="358.3" x2="498.6" y2="360.1"/>
						<line class="st22" x1="497.8" y1="358.3" x2="497.8" y2="359.5"/>
						<line class="st22" x1="496.9" y1="358.3" x2="496.9" y2="360.1"/>
					</g>
					<rect x="527.2" y="358.6" class="st14" width="1" height="4.5"/>
				</g>
			</g>
		</g>
	</g>
</g>
<g id="Layer_2" class="st24">
	<g class="st25">
		<g>
			<polygon points="1123.9,501.1 1600.5,501.1 1600.5,568.6 1168.6,565.2 			"/>
			<polygon points="473.2,501.1 -3.4,501.1 -3.4,568.6 428.5,565.2 			"/>
			<polygon class="st26" points="1142.9,509.4 1186.2,555.2 1600.5,557.3 1600.5,509.9 			"/>
			<polygon class="st26" points="454.1,509.4 410.8,555.3 -3.5,557.3 -3.5,510 			"/>
			<polygon class="st27" points="1600.5,567.3 1409.4,621.7 1231.2,621.8 1197.9,605.4 1168.6,565.2 			"/>
			<polygon class="st27" points="-12.3,567.5 187.1,621.7 365.5,621.7 398.8,605.4 428.5,565.2 			"/>
			<polygon class="st1" points="-3.4,567.3 187.7,621.7 365.5,621.7 428.5,900.2 -3.4,900.2 -3.4,715.7 152,643.2 -3.4,597.4 			"/>
			<polygon class="st3" points="-3.4,592.8 162,642.1 149.2,646.9 -3.4,602.3 			"/>
			<polyline class="st1" points="369.7,640.3 398.8,605.4 365.5,621.7 			"/>
			<polygon class="st28" points="-3,816.2 183.2,746.5 325.3,746.5 428.8,900.1 -3,900.1 			"/>
			<polyline class="st29" points="-3,765.7 186.7,684.1 183.2,746.5 			"/>
			<line class="st29" x1="-3.4" y1="746.5" x2="207.1" y2="643.1"/>
			<polyline class="st4" points="-3.5,579.3 207.1,643.1 370.3,643.1 			"/>
			<polyline class="st29" points="207.1,643.1 186.7,681.7 306.3,692.5 386.3,713.7 			"/>
			<polygon class="st1" points="1600,567.4 1409,621.8 1231.2,621.8 1168.2,900.2 1600,900.2 1600,715.7 1444.7,643.2 1600,597.5 
							"/>
			<polygon class="st3" points="1600,592.9 1434.6,642.1 1447.5,647 1600,602.4 			"/>
			<polyline class="st1" points="1227,640.4 1197.9,605.4 1231.2,621.8 			"/>
			<polygon class="st28" points="1599.7,816.3 1413.4,746.6 1271.4,746.6 1167.8,900.1 1599.7,900.1 			"/>
			<polyline class="st29" points="1599.7,765.7 1410,684.2 1413.4,746.6 			"/>
			<line class="st29" x1="1600" y1="746.5" x2="1389.5" y2="643.1"/>
			<polyline class="st4" points="1600.2,579.3 1389.5,643.1 1226.4,643.1 			"/>
			<polyline class="st29" points="1389.5,643.1 1410,681.8 1290.4,692.6 1210.4,713.7 			"/>
		</g>
		<path d="M20.8,519.9l-21.3,24.6c-0.2,0.3-0.6,0.4-1,0.4h-2.2c-1,0-1.5-0.9-1-1.6l22-24.6c0.2-0.2,0.6-0.4,1-0.4h1.5
			C20.8,518.3,21.4,519.2,20.8,519.9L20.8,519.9z"/>
		<polygon class="st15" points="3.4,541.3 -4.4,541.3 -4.4,539.6 1.8,533.7 8.8,533.7 3.4,539.3 		"/>
		<polygon class="st30" points="8.8,533.7 8.8,535.4 3.4,541.3 -4.4,541.3 -4.4,539.6 2.6,539.9 		"/>
		<polygon class="st15" points="29.5,530.3 21.7,530.3 21.7,528.6 27.8,522.7 34.8,522.7 29.5,528.3 		"/>
		<polygon class="st30" points="34.8,522.7 34.8,524.4 29.5,530.3 21.7,530.3 21.7,528.6 28.6,528.9 		"/>
		<g>
			<polygon class="st31" points="73.3,516.4 335.4,516.4 311.6,548.2 41.9,548.2 			"/>
			<g>
				<polygon class="st32" points="332.9,519.6 311.6,548.2 41.9,548.2 73.3,516.4 335.4,516.4 				"/>
				<path class="st33" d="M240.7,543.3l-3.6,4.3c-0.3,0.4-0.9,0.6-1.5,0.6H133c-1.6,0-2.4-1.6-1.2-2.6c0,0,6.4-4.7,6.9-4.7h100.5
					C240.6,541,241.5,542.3,240.7,543.3L240.7,543.3z"/>
				<line class="st32" x1="138.2" y1="541" x2="49" y2="541"/>
				<line class="st32" x1="241" y1="541" x2="317" y2="541"/>
				<polyline class="st32" points="55.9,534.1 96.2,534.1 102.6,526.9 63,526.9 				"/>
				<polyline class="st32" points="327.5,526.9 288.9,526.9 284.4,534.1 323.4,534.1 				"/>
				<line class="st32" x1="102.6" y1="526.9" x2="288.9" y2="526.9"/>
				<polyline class="st32" points="284.4,534.1 120.1,534.1 96.2,534.1 				"/>
				<line class="st32" x1="126.1" y1="526.9" x2="120.1" y2="534.1"/>
				<line class="st32" x1="147.5" y1="526.9" x2="142.4" y2="534.1"/>
				<line class="st32" x1="168.2" y1="526.9" x2="162.6" y2="534.1"/>
				<line class="st32" x1="188.6" y1="526.9" x2="183.1" y2="534.1"/>
				<line class="st32" x1="207.8" y1="526.9" x2="203.3" y2="534.1"/>
				<line class="st32" x1="226.6" y1="526.9" x2="222.3" y2="534.1"/>
				<line class="st32" x1="248.8" y1="526.9" x2="244" y2="533.8"/>
				<line class="st32" x1="268.4" y1="526.9" x2="264.7" y2="534.1"/>
				<line class="st32" x1="102.6" y1="541" x2="107.9" y2="534.1"/>
				<line class="st32" x1="131.2" y1="533.8" x2="126.1" y2="541"/>
				<line class="st32" x1="155.2" y1="534.1" x2="150.9" y2="541"/>
				<line class="st32" x1="175.9" y1="534.1" x2="171.4" y2="541"/>
				<line class="st32" x1="195.7" y1="533.8" x2="191.9" y2="541"/>
				<line class="st32" x1="214.6" y1="533.8" x2="210.4" y2="541"/>
				<line class="st32" x1="233.7" y1="534.1" x2="230.9" y2="541"/>
				<line class="st32" x1="254.8" y1="533.8" x2="251.6" y2="541"/>
				<line class="st32" x1="277.5" y1="534.1" x2="274.7" y2="541"/>
				<line class="st32" x1="294.6" y1="541" x2="291.2" y2="548.2"/>
				<line class="st32" x1="262.4" y1="541" x2="258.8" y2="548.2"/>
				<line class="st32" x1="115" y1="541" x2="109.4" y2="548.2"/>
				<line class="st32" x1="74" y1="541" x2="69.1" y2="548.2"/>
				<line class="st32" x1="93.6" y1="541.9" x2="90.3" y2="548.2"/>
			</g>
		</g>
		<ellipse transform="matrix(0.979 -0.2037 0.2037 0.979 -100.368 89.0828)" cx="382.5" cy="532.1" rx="31" ry="18"/>
		
			<ellipse transform="matrix(0.979 -0.2037 0.2037 0.979 -100.3405 89.0256)" class="st34" cx="382.3" cy="532" rx="23.9" ry="13.9"/>
		<ellipse transform="matrix(0.979 -0.2036 0.2036 0.979 -100.2731 88.9246)" class="st34" cx="382" cy="531.7" rx="17.3" ry="10"/>
		
			<ellipse transform="matrix(0.979 -0.2037 0.2037 0.979 -100.255 89.0249)" class="st34" cx="382.3" cy="531.5" rx="11.4" ry="6.6"/>
		
			<ellipse transform="matrix(0.9658 -0.2594 0.2594 0.9658 -124.6997 117.3886)" class="st35" cx="382.5" cy="531.3" rx="2.1" ry="1.6"/>
		<path class="st5" d="M437.2,512.4h-11.6c-0.3,0-0.6,0.1-0.8,0.3l-3,3.2c-0.5,0.5,0,1.3,0.8,1.3h12.6c0.3,0,0.6-0.1,0.8-0.3
			l2.3-2.7C439,513.4,438.3,512.4,437.2,512.4L437.2,512.4z"/>
		<path class="st36" d="M438,512.6l-3.2,3.9l-13.2-0.1c0,0-0.2,0.8,1.5,0.8h12c0,0,1-0.2,1.2-0.8l1.9-2.2
			C438.3,514.2,438.7,512.9,438,512.6L438,512.6z"/>
		<path class="st5" d="M344.4,534.6h-10.7c-0.3,0-0.5,0.1-0.7,0.3l-2.7,3c-0.5,0.5,0,1.2,0.7,1.2h11.6c0.3,0,0.6-0.1,0.7-0.3
			l2.1-2.5C346.1,535.6,345.4,534.6,344.4,534.6L344.4,534.6z"/>
		<path class="st36" d="M345.2,534.8l-2.9,3.6l-12.2-0.1c0,0-0.1,0.8,1.4,0.8h11.1c0,0,0.9-0.2,1.1-0.7l1.8-2
			C345.4,536.3,345.8,535,345.2,534.8L345.2,534.8z"/>
		<path class="st5" d="M338.8,542.2h-10.7c-0.3,0-0.5,0.1-0.7,0.3l-2.7,3c-0.5,0.5,0,1.2,0.7,1.2H337c0.3,0,0.6-0.1,0.7-0.3l2.1-2.5
			C340.5,543.2,339.9,542.2,338.8,542.2L338.8,542.2z"/>
		<path class="st36" d="M339.7,542.4l-2.9,3.6l-12.2-0.1c0,0-0.1,0.8,1.4,0.8c1.5,0,11.1,0,11.1,0s0.9-0.2,1.1-0.7l1.8-2
			C339.9,543.9,340.2,542.7,339.7,542.4L339.7,542.4z"/>
		<path class="st5" d="M355.2,518.6h-10.7c-0.3,0-0.5,0.1-0.7,0.3l-2.7,3c-0.5,0.5,0,1.2,0.7,1.2h11.6c0.3,0,0.6-0.1,0.7-0.3
			l2.1-2.5C356.9,519.6,356.3,518.6,355.2,518.6L355.2,518.6z"/>
		<path class="st36" d="M356,518.9l-2.9,3.6l-12.2-0.1c0,0-0.1,0.8,1.4,0.8s11.1,0,11.1,0s0.9-0.2,1.1-0.7l1.8-2
			C356.3,520.3,356.6,519.1,356,518.9L356,518.9z"/>
		<path class="st5" d="M349.6,526.3h-10.7c-0.3,0-0.5,0.1-0.7,0.3l-2.7,3c-0.5,0.5,0,1.2,0.7,1.2h11.6c0.3,0,0.6-0.1,0.7-0.3
			l2.1-2.5C351.3,527.3,350.7,526.3,349.6,526.3L349.6,526.3z"/>
		<path class="st36" d="M350.5,526.5l-2.9,3.6l-12.2-0.1c0,0-0.1,0.8,1.4,0.8s11.1,0,11.1,0s0.9-0.2,1.1-0.7l1.8-2
			C350.7,528,351.1,526.8,350.5,526.5L350.5,526.5z"/>
		
			<ellipse transform="matrix(0.9996 -2.943048e-02 2.943048e-02 0.9996 -16.0609 12.0747)" class="st37" cx="402.2" cy="551.6" rx="4.2" ry="2.1"/>
		<path d="M52.7,520l-21.2,24.6c-0.2,0.3-0.6,0.4-1,0.4h-2.2c-1,0-1.5-0.9-1-1.6l21.9-24.6c0.2-0.2,0.6-0.4,1-0.4h1.5
			C52.7,518.5,53.3,519.4,52.7,520L52.7,520z"/>
		<path d="M36.7,519.9l-21.3,24.6c-0.2,0.3-0.6,0.4-1,0.4h-2.2c-1,0-1.5-0.9-1-1.6l22-24.6c0.2-0.2,0.6-0.4,1-0.4h1.5
			C36.7,518.3,37.3,519.2,36.7,519.9L36.7,519.9z"/>
		<polygon class="st15" points="37.8,538.6 30,538.6 30,536.9 36.1,531 43.2,531 37.8,536.5 		"/>
		<polygon class="st30" points="43.2,531 43.2,532.7 37.8,538.6 30,538.6 30,536.9 37,537.2 		"/>
		<g>
			<polygon class="st31" points="1519.8,515.8 1257.7,515.8 1281.5,547.7 1551.2,547.7 			"/>
			<g>
				<polygon class="st32" points="1260.2,519 1281.5,547.7 1551.2,547.7 1519.8,515.8 1257.7,515.8 				"/>
				<path class="st33" d="M1352.4,542.7l3.6,4.3c0.3,0.4,0.9,0.6,1.5,0.6h102.6c1.6,0,2.4-1.6,1.2-2.6c0,0-6.4-4.7-6.9-4.7h-100.5
					C1352.4,540.4,1351.6,541.8,1352.4,542.7L1352.4,542.7z"/>
				<line class="st32" x1="1454.8" y1="540.4" x2="1544" y2="540.4"/>
				<line class="st32" x1="1352.1" y1="540.4" x2="1276.1" y2="540.4"/>
				<polyline class="st32" points="1537.2,533.5 1496.8,533.5 1490.5,526.3 1530.1,526.3 				"/>
				<polyline class="st32" points="1265.6,526.3 1304.1,526.3 1308.7,533.5 1269.7,533.5 				"/>
				<line class="st32" x1="1490.5" y1="526.3" x2="1304.1" y2="526.3"/>
				<polyline class="st32" points="1308.7,533.5 1472.9,533.5 1496.8,533.5 				"/>
				<line class="st32" x1="1466.9" y1="526.3" x2="1472.9" y2="533.5"/>
				<line class="st32" x1="1445.6" y1="526.3" x2="1450.7" y2="533.5"/>
				<line class="st32" x1="1424.8" y1="526.3" x2="1430.5" y2="533.5"/>
				<line class="st32" x1="1404.4" y1="526.3" x2="1410" y2="533.5"/>
				<line class="st32" x1="1385.3" y1="526.3" x2="1389.8" y2="533.5"/>
				<line class="st32" x1="1366.5" y1="526.3" x2="1370.7" y2="533.5"/>
				<line class="st32" x1="1344.3" y1="526.3" x2="1349" y2="533.2"/>
				<line class="st32" x1="1324.6" y1="526.3" x2="1328.3" y2="533.5"/>
				<line class="st32" x1="1490.5" y1="540.4" x2="1485.2" y2="533.5"/>
				<line class="st32" x1="1461.9" y1="533.2" x2="1466.9" y2="540.4"/>
				<line class="st32" x1="1437.9" y1="533.5" x2="1442.2" y2="540.4"/>
				<line class="st32" x1="1417.1" y1="533.5" x2="1421.7" y2="540.4"/>
				<line class="st32" x1="1397.3" y1="533.2" x2="1401.2" y2="540.4"/>
				<line class="st32" x1="1378.4" y1="533.2" x2="1382.7" y2="540.4"/>
				<line class="st32" x1="1359.4" y1="533.5" x2="1362.1" y2="540.4"/>
				<line class="st32" x1="1338.3" y1="533.2" x2="1341.4" y2="540.4"/>
				<line class="st32" x1="1315.5" y1="533.5" x2="1318.4" y2="540.4"/>
				<line class="st32" x1="1298.4" y1="540.4" x2="1301.9" y2="547.7"/>
				<line class="st32" x1="1330.6" y1="540.4" x2="1334.3" y2="547.7"/>
				<line class="st32" x1="1478" y1="540.4" x2="1483.6" y2="547.7"/>
				<line class="st32" x1="1519" y1="540.4" x2="1524" y2="547.7"/>
				<line class="st32" x1="1499.4" y1="541.3" x2="1502.8" y2="547.7"/>
			</g>
		</g>
		<ellipse transform="matrix(0.2037 -0.979 0.979 0.2037 443.5614 1608.4008)" cx="1210.5" cy="531.5" rx="18" ry="31"/>
		
			<ellipse transform="matrix(0.2037 -0.979 0.979 0.2037 443.8416 1608.551)" class="st34" cx="1210.7" cy="531.4" rx="13.9" ry="23.9"/>
		
			<ellipse transform="matrix(0.2036 -0.979 0.979 0.2036 444.4648 1608.7224)" class="st34" cx="1211.1" cy="531.1" rx="10" ry="17.3"/>
		
			<ellipse transform="matrix(0.2037 -0.979 0.979 0.2037 444.2824 1608.1661)" class="st34" cx="1210.7" cy="531" rx="6.6" ry="11.4"/>
		
			<ellipse transform="matrix(0.2594 -0.9658 0.9658 0.2594 384.012 1562.182)" class="st35" cx="1210.6" cy="530.7" rx="1.6" ry="2.1"/>
		<path class="st5" d="M1155.9,511.8h11.6c0.3,0,0.6,0.1,0.8,0.3l3,3.2c0.5,0.5,0,1.3-0.8,1.3h-12.6c-0.3,0-0.6-0.1-0.8-0.3
			l-2.3-2.7C1154.1,512.9,1154.8,511.8,1155.9,511.8L1155.9,511.8z"/>
		<path class="st36" d="M1155,512.1l3.2,3.9l13.2-0.1c0,0,0.2,0.8-1.5,0.8h-12c0,0-1-0.2-1.2-0.8l-1.9-2.2
			C1154.8,513.6,1154.4,512.3,1155,512.1L1155,512.1z"/>
		<path class="st5" d="M1248.7,534h10.7c0.3,0,0.5,0.1,0.7,0.3l2.7,3c0.5,0.5,0,1.2-0.7,1.2h-11.6c-0.3,0-0.6-0.1-0.7-0.3l-2.1-2.5
			C1247,535,1247.6,534,1248.7,534L1248.7,534z"/>
		<path class="st36" d="M1247.9,534.2l2.9,3.6l12.2-0.1c0,0,0.1,0.8-1.4,0.8h-11.1c0,0-0.9-0.2-1.1-0.7l-1.8-2
			C1247.6,535.7,1247.3,534.5,1247.9,534.2L1247.9,534.2z"/>
		<path class="st5" d="M1254.2,541.6h10.7c0.3,0,0.5,0.1,0.7,0.3l2.7,3c0.5,0.5,0,1.2-0.7,1.2H1256c-0.3,0-0.6-0.1-0.7-0.3l-2.1-2.5
			C1252.6,542.6,1253.2,541.6,1254.2,541.6L1254.2,541.6z"/>
		<path class="st36" d="M1253.4,541.9l2.9,3.6l12.2-0.1c0,0,0.1,0.8-1.4,0.8H1256c0,0-0.9-0.2-1.1-0.7l-1.8-2
			C1253.2,543.3,1252.8,542.1,1253.4,541.9L1253.4,541.9z"/>
		<path class="st5" d="M1237.9,518.1h10.7c0.3,0,0.5,0.1,0.7,0.3l2.7,3c0.5,0.5,0,1.2-0.7,1.2h-11.6c-0.3,0-0.6-0.1-0.7-0.3
			l-2.1-2.5C1236.2,519.1,1236.8,518.1,1237.9,518.1L1237.9,518.1z"/>
		<path class="st36" d="M1237,518.3l2.9,3.6l12.2-0.1c0,0,0.1,0.8-1.4,0.8h-11.1c0,0-0.9-0.2-1.1-0.7l-1.8-2
			C1236.8,519.8,1236.5,518.6,1237,518.3L1237,518.3z"/>
		<path class="st5" d="M1243.4,525.7h10.7c0.3,0,0.5,0.1,0.7,0.3l2.7,3c0.5,0.5,0,1.2-0.7,1.2h-11.6c-0.3,0-0.6-0.1-0.7-0.3
			l-2.1-2.5C1241.7,526.7,1242.4,525.7,1243.4,525.7L1243.4,525.7z"/>
		<path class="st36" d="M1242.6,526l2.9,3.6l12.2-0.1c0,0,0.1,0.8-1.4,0.8h-11.1c0,0-0.9-0.2-1.1-0.7l-1.8-2
			C1242.4,527.4,1242,526.2,1242.6,526L1242.6,526z"/>
		
			<ellipse transform="matrix(2.943052e-02 -0.9996 0.9996 2.943052e-02 605.0911 1725.4585)" class="st37" cx="1191.1" cy="551.1" rx="2.1" ry="4.2"/>
		<path d="M1540.3,519.5l21.2,24.6c0.2,0.3,0.6,0.4,1,0.4h2.2c1,0,1.5-0.9,1-1.6l-21.9-24.6c-0.2-0.2-0.6-0.4-1-0.4h-1.5
			C1540.3,517.9,1539.8,518.8,1540.3,519.5L1540.3,519.5z"/>
		<path d="M1556.4,519.3l21.3,24.6c0.2,0.3,0.6,0.4,1,0.4h2.2c1,0,1.5-0.9,1-1.6l-22-24.6c-0.2-0.2-0.6-0.4-1-0.4h-1.5
			C1556.4,517.8,1555.8,518.7,1556.4,519.3L1556.4,519.3z"/>
		<path d="M1572.3,519.3l21.3,24.6c0.2,0.3,0.6,0.4,1,0.4h2.2c1,0,1.5-0.9,1-1.6l-22-24.6c-0.2-0.2-0.6-0.4-1-0.4h-1.5
			C1572.3,517.8,1571.7,518.7,1572.3,519.3L1572.3,519.3z"/>
		<polygon class="st15" points="1589.6,540.8 1597.4,540.8 1597.4,539 1591.3,533.2 1584.3,533.2 1589.6,538.7 		"/>
		<polygon class="st30" points="1584.3,533.2 1584.3,534.9 1589.6,540.8 1597.4,540.8 1597.4,539 1590.5,539.4 		"/>
		<polygon class="st15" points="1563.6,529.8 1571.4,529.8 1571.4,528 1565.3,522.2 1558.2,522.2 1563.6,527.7 		"/>
		<polygon class="st30" points="1558.2,522.2 1558.2,523.9 1563.6,529.8 1571.4,529.8 1571.4,528 1564.4,528.4 		"/>
		<polygon class="st15" points="1555.2,538 1563,538 1563,536.3 1556.9,530.4 1549.9,530.4 1555.2,536 		"/>
		<polygon class="st30" points="1549.9,530.4 1549.9,532.1 1555.2,538 1563,538 1563,536.3 1556.1,536.6 		"/>
	</g>
</g>
</svg>
