<?xml version="1.0" encoding="UTF-8"?>
<svg id="Layer_4" data-name="Layer 4" xmlns="http://www.w3.org/2000/svg" viewBox="0 0 1929.88 1343.58">
  <defs>
    <style>
      .cls-1 {
        fill: #4b4a4c;
      }

      .cls-2 {
        fill: #4b4b4f;
      }

      .cls-3 {
        fill: #454756;
      }

      .cls-4 {
        stroke: #51356b;
      }

      .cls-4, .cls-5, .cls-6, .cls-7, .cls-8 {
        stroke-miterlimit: 10;
      }

      .cls-4, .cls-5, .cls-6, .cls-8 {
        fill: none;
      }

      .cls-5, .cls-6, .cls-7 {
        stroke-width: 3px;
      }

      .cls-5, .cls-8 {
        stroke: #4b4a4c;
      }

      .cls-9 {
        fill: #ff2a09;
      }

      .cls-6, .cls-7 {
        stroke: #000;
      }

      .cls-10 {
        fill: gray;
      }

      .cls-11 {
        fill: #2f46b7;
      }

      .cls-12 {
        fill: #51356b;
      }

      .cls-13 {
        fill: #4066f2;
      }

      .cls-14 {
        fill: #4b4b4c;
      }

      .cls-15 {
        fill: #303135;
      }

      .cls-16 {
        fill: #adadad;
      }

      .cls-7 {
        fill: #fff;
      }

      .cls-17 {
        fill: #6e6e6e;
      }

      .cls-18 {
        fill: #3c3c3c;
      }

      .cls-8 {
        stroke-width: 4px;
      }
    </style>
  </defs>
  <g>
    <path class="cls-1" d="M836.85,622.45c1.93,0,1.93-3,0-3s-1.93,3,0,3h0Z"/>
    <path class="cls-1" d="M604.21,887.98c1.93,0,1.93-3,0-3s-1.93,3,0,3h0Z"/>
    <polygon points="1359.01 502.65 1929 502.65 1929 600.65 1412.46 595.69 1359.01 502.65"/>
    <polygon points="580.71 502.65 10.72 502.65 10.72 600.65 527.26 595.69 580.71 502.65"/>
    <polygon class="cls-16" points="1381.64 514.65 1433.45 581.21 1929 584.19 1929 515.5 1381.64 514.65"/>
    <polygon class="cls-16" points="557.9 514.72 506.1 581.27 10.54 584.25 10.54 515.56 557.9 514.72"/>
    <polygon class="cls-14" points="1929 598.72 1700.45 677.65 1487.86 677.65 1384.49 595.69 1929 598.72"/>
    <polygon class="cls-14" points="0 599.06 238.5 677.65 460.36 677.65 568.22 596.05 0 599.06"/>
    <polygon class="cls-17" points="10.72 598.72 239.27 677.65 451.87 677.65 527.26 1081.65 10.72 1081.65 10.72 813.97 196.56 708.78 10.72 642.4 10.72 598.72"/>
    <polygon class="cls-18" points="10.72 635.72 208.55 707.19 193.18 714.23 10.72 649.51 10.72 635.72"/>
    <polyline class="cls-17" points="456.91 704.65 491.69 653.95 451.87 677.65"/>
    <polygon class="cls-2" points="11.12 959.83 233.92 858.73 403.82 858.73 527.65 1081.47 11.12 1081.47 11.12 959.83"/>
    <polyline class="cls-5" points="11.12 886.48 238.02 768.15 233.92 858.73"/>
    <line class="cls-5" x1="10.72" y1="858.65" x2="262.5" y2="708.65"/>
    <polyline class="cls-8" points="10.54 616.1 262.5 708.65 457.65 708.65"/>
    <polyline class="cls-5" points="262.5 708.65 238.02 764.7 381.06 780.4 476.77 811.08"/>
    <path class="cls-1" d="M1334.97,888.07c1.93,0,1.93-3,0-3s-1.93,3,0,3h0Z"/>
    <polygon class="cls-17" points="1928.46 598.8 1699.91 677.74 1487.31 677.74 1411.92 1081.74 1928.46 1081.74 1928.46 814.06 1742.62 708.87 1928.46 642.49 1928.46 598.8"/>
    <polygon class="cls-18" points="1928.46 635.81 1730.63 707.28 1746 714.32 1928.46 649.6 1928.46 635.81"/>
    <polyline class="cls-17" points="1482.27 704.74 1447.49 654.04 1487.31 677.74"/>
    <polygon class="cls-2" points="1928.06 959.92 1705.26 858.82 1535.36 858.82 1411.53 1081.56 1928.06 1081.56 1928.06 959.92"/>
    <polyline class="cls-5" points="1928.06 886.57 1701.16 768.24 1705.26 858.82"/>
    <line class="cls-5" x1="1928.46" y1="858.74" x2="1676.68" y2="708.74"/>
    <polyline class="cls-8" points="1928.64 616.19 1676.68 708.74 1481.53 708.74"/>
    <polyline class="cls-5" points="1676.68 708.74 1701.16 764.78 1558.12 780.49 1462.41 811.17"/>
  </g>
  <path d="M39.64,529.93l-25.45,35.72c-.27,.37-.7,.59-1.15,.59h-2.6c-1.16,0-1.83-1.32-1.14-2.25l26.26-35.72c.27-.36,.69-.58,1.14-.58h1.8c1.15,0,1.82,1.3,1.15,2.24Z"/>
  <polygon class="cls-13" points="18.88 561.04 9.56 561.04 9.56 558.53 16.88 550.04 25.31 550.04 18.88 558.04 18.88 561.04"/>
  <polygon class="cls-11" points="25.31 550.04 25.31 552.47 18.88 561.04 9.56 561.04 9.56 558.53 17.88 559.04 25.31 550.04"/>
  <polygon class="cls-13" points="50 545.07 40.68 545.07 40.68 542.56 48 534.07 56.43 534.07 50 542.07 50 545.07"/>
  <polygon class="cls-11" points="56.43 534.07 56.43 536.5 50 545.07 40.68 545.07 40.68 542.56 49 543.07 56.43 534.07"/>
  <g>
    <polygon class="cls-10" points="102.42 524.89 415.91 524.89 387.42 571.06 64.88 571.06 102.42 524.89"/>
    <g>
      <polygon class="cls-6" points="412.89 529.48 387.42 571.06 64.88 571.06 102.42 524.89 415.91 524.89 412.89 529.48"/>
      <path class="cls-7" d="M302.62,563.9l-4.29,6.23c-.4,.58-1.06,.93-1.76,.93h-122.75c-1.95,0-2.88-2.39-1.44-3.71,0,0,7.7-6.79,8.24-6.79h120.24c1.72,0,2.73,1.93,1.76,3.35Z"/>
      <line class="cls-6" x1="180.08" y1="560.56" x2="73.41" y2="560.56"/>
      <line class="cls-6" x1="303" y1="560.56" x2="393.85" y2="560.56"/>
      <polyline class="cls-6" points="81.6 550.49 129.87 550.49 137.42 540.06 90.08 540.06"/>
      <polyline class="cls-6" points="406.41 540.06 360.33 540.06 354.89 550.49 401.53 550.49"/>
      <line class="cls-6" x1="137.42" y1="540.06" x2="360.33" y2="540.06"/>
      <polyline class="cls-6" points="354.89 550.49 158.46 550.49 129.87 550.49"/>
      <line class="cls-6" x1="165.61" y1="540.06" x2="158.46" y2="550.49"/>
      <line class="cls-6" x1="191.14" y1="540.06" x2="185.02" y2="550.49"/>
      <line class="cls-6" x1="215.99" y1="540.06" x2="209.26" y2="550.49"/>
      <line class="cls-6" x1="240.39" y1="540.06" x2="233.74" y2="550.49"/>
      <line class="cls-6" x1="263.31" y1="540.06" x2="257.87" y2="550.49"/>
      <line class="cls-6" x1="285.78" y1="540.06" x2="280.68" y2="550.49"/>
      <line class="cls-6" x1="312.33" y1="540.06" x2="306.64" y2="550.06"/>
      <line class="cls-6" x1="335.82" y1="540.06" x2="331.4" y2="550.49"/>
      <line class="cls-6" x1="137.42" y1="560.56" x2="143.82" y2="550.49"/>
      <line class="cls-6" x1="171.68" y1="550.06" x2="165.61" y2="560.56"/>
      <line class="cls-6" x1="200.33" y1="550.49" x2="195.23" y2="560.56"/>
      <line class="cls-6" x1="225.19" y1="550.49" x2="219.74" y2="560.56"/>
      <line class="cls-6" x1="248.88" y1="550.06" x2="244.25" y2="560.56"/>
      <line class="cls-6" x1="271.48" y1="550.06" x2="266.41" y2="560.56"/>
      <line class="cls-6" x1="294.29" y1="550.49" x2="290.97" y2="560.56"/>
      <line class="cls-6" x1="319.48" y1="550.06" x2="315.74" y2="560.56"/>
      <line class="cls-6" x1="346.72" y1="550.49" x2="343.31" y2="560.56"/>
      <line class="cls-6" x1="367.14" y1="560.56" x2="363.06" y2="571.06"/>
      <line class="cls-6" x1="328.63" y1="560.56" x2="324.25" y2="571.06"/>
      <line class="cls-6" x1="152.33" y1="560.56" x2="145.66" y2="571.06"/>
      <line class="cls-6" x1="103.31" y1="560.56" x2="97.42" y2="571.06"/>
      <line class="cls-6" x1="126.75" y1="561.82" x2="122.72" y2="571.06"/>
    </g>
  </g>
  <ellipse cx="472.29" cy="547.63" rx="37.59" ry="25.76" transform="translate(-146.96 174.15) rotate(-18.13)"/>
  <ellipse class="cls-4" cx="472.05" cy="547.5" rx="28.99" ry="19.87" transform="translate(-146.93 174.07) rotate(-18.13)"/>
  <ellipse class="cls-4" cx="471.6" cy="547.09" rx="20.99" ry="14.39" transform="translate(-146.82 173.91) rotate(-18.13)"/>
  <ellipse class="cls-4" cx="472.04" cy="546.82" rx="13.76" ry="9.43" transform="translate(-146.72 174.03) rotate(-18.13)"/>
  <ellipse class="cls-12" cx="472.26" cy="546.45" rx="2.59" ry="2.27" transform="translate(-238.82 419.97) rotate(-39.08)"/>
  <path class="cls-3" d="M537.61,519.04h-13.85c-.36,0-.71,.17-.93,.46l-3.54,4.68c-.58,.77-.03,1.86,.93,1.86h15.07c.38,0,.73-.18,.95-.49l2.75-3.85c.8-1.11,0-2.66-1.37-2.66Z"/>
  <path class="cls-15" d="M538.66,519.41l-3.78,5.63-15.82-.21s-.18,1.21,1.82,1.21h14.4s1.23-.28,1.41-1.14l2.29-3.2s.47-1.92-.31-2.29Z"/>
  <path class="cls-3" d="M426.67,551.23h-12.8c-.34,0-.65,.16-.86,.43l-3.27,4.32c-.54,.71-.03,1.72,.86,1.72h13.92c.35,0,.67-.17,.87-.45l2.54-3.56c.74-1.03,0-2.46-1.27-2.46Z"/>
  <path class="cls-15" d="M427.64,551.57l-3.5,5.2-14.62-.19s-.16,1.12,1.68,1.12h13.31s1.13-.26,1.3-1.05l2.11-2.96s.43-1.77-.29-2.12Z"/>
  <path class="cls-3" d="M420.02,562.31h-12.8c-.34,0-.65,.16-.86,.43l-3.27,4.32c-.54,.71-.03,1.72,.86,1.72h13.92c.35,0,.67-.17,.87-.45l2.54-3.56c.74-1.03,0-2.46-1.27-2.46Z"/>
  <path class="cls-15" d="M421,562.66l-3.5,5.2-14.62-.19s-.16,1.12,1.68,1.12,13.31,0,13.31,0c0,0,1.13-.26,1.3-1.05l2.11-2.96s.43-1.77-.29-2.12Z"/>
  <path class="cls-3" d="M439.6,528.13h-12.8c-.34,0-.65,.16-.86,.43l-3.27,4.32c-.54,.71-.03,1.72,.86,1.72h13.92c.35,0,.67-.17,.87-.45l2.54-3.56c.74-1.03,0-2.46-1.27-2.46Z"/>
  <path class="cls-15" d="M440.57,528.47l-3.5,5.2-14.62-.19s-.16,1.12,1.68,1.12,13.31,0,13.31,0c0,0,1.13-.26,1.3-1.05l2.11-2.96s.43-1.77-.29-2.12Z"/>
  <path class="cls-3" d="M432.95,539.22h-12.8c-.34,0-.65,.16-.86,.43l-3.27,4.32c-.54,.71-.03,1.72,.86,1.72h13.92c.35,0,.67-.17,.87-.45l2.54-3.56c.74-1.03,0-2.46-1.27-2.46Z"/>
  <path class="cls-15" d="M433.93,539.56l-3.5,5.2-14.62-.19s-.16,1.12,1.68,1.12,13.31,0,13.31,0c0,0,1.13-.26,1.3-1.05l2.11-2.96s.43-1.77-.29-2.12Z"/>
  <ellipse class="cls-9" cx="495.71" cy="576.05" rx="5" ry="2.99" transform="translate(-23.74 21.31) rotate(-2.41)"/>
  <path d="M77.82,530.13l-25.41,35.72c-.27,.37-.7,.6-1.15,.6h-2.59c-1.16,0-1.83-1.32-1.14-2.25l26.21-35.72c.27-.36,.69-.58,1.14-.58h1.79c1.15,0,1.82,1.3,1.15,2.24Z"/>
  <path d="M58.64,529.93l-25.45,35.72c-.27,.37-.7,.59-1.15,.59h-2.6c-1.16,0-1.83-1.32-1.14-2.25l26.26-35.72c.27-.36,.69-.58,1.14-.58h1.8c1.15,0,1.82,1.3,1.15,2.24Z"/>
  <polygon class="cls-13" points="60 557.07 50.68 557.07 50.68 554.56 58 546.07 66.43 546.07 60 554.07 60 557.07"/>
  <polygon class="cls-11" points="66.43 546.07 66.43 548.5 60 557.07 50.68 557.07 50.68 554.56 59 555.07 66.43 546.07"/>
  <g>
    <polygon class="cls-10" points="1832.46 524.07 1518.97 524.07 1547.46 570.24 1870 570.24 1832.46 524.07"/>
    <g>
      <polygon class="cls-6" points="1521.98 528.67 1547.46 570.24 1870 570.24 1832.46 524.07 1518.97 524.07 1521.98 528.67"/>
      <path class="cls-7" d="M1632.26,563.09l4.29,6.23c.4,.58,1.06,.93,1.76,.93h122.75c1.95,0,2.88-2.39,1.44-3.71,0,0-7.7-6.79-8.24-6.79h-120.24c-1.72,0-2.73,1.93-1.76,3.35Z"/>
      <line class="cls-6" x1="1754.79" y1="559.74" x2="1861.46" y2="559.74"/>
      <line class="cls-6" x1="1631.88" y1="559.74" x2="1541.02" y2="559.74"/>
      <polyline class="cls-6" points="1853.28 549.68 1805.01 549.68 1797.46 539.24 1844.79 539.24"/>
      <polyline class="cls-6" points="1528.46 539.24 1574.54 539.24 1579.99 549.68 1533.35 549.68"/>
      <line class="cls-6" x1="1797.46" y1="539.24" x2="1574.54" y2="539.24"/>
      <polyline class="cls-6" points="1579.99 549.68 1776.42 549.68 1805.01 549.68"/>
      <line class="cls-6" x1="1769.27" y1="539.24" x2="1776.42" y2="549.68"/>
      <line class="cls-6" x1="1743.73" y1="539.24" x2="1749.86" y2="549.68"/>
      <line class="cls-6" x1="1718.88" y1="539.24" x2="1725.62" y2="549.68"/>
      <line class="cls-6" x1="1694.49" y1="539.24" x2="1701.14" y2="549.68"/>
      <line class="cls-6" x1="1671.56" y1="539.24" x2="1677.01" y2="549.68"/>
      <line class="cls-6" x1="1649.1" y1="539.24" x2="1654.2" y2="549.68"/>
      <line class="cls-6" x1="1622.54" y1="539.24" x2="1628.24" y2="549.24"/>
      <line class="cls-6" x1="1599.05" y1="539.24" x2="1603.48" y2="549.68"/>
      <line class="cls-6" x1="1797.46" y1="559.74" x2="1791.05" y2="549.68"/>
      <line class="cls-6" x1="1763.19" y1="549.24" x2="1769.27" y2="559.74"/>
      <line class="cls-6" x1="1734.54" y1="549.68" x2="1739.65" y2="559.74"/>
      <line class="cls-6" x1="1709.69" y1="549.68" x2="1715.14" y2="559.74"/>
      <line class="cls-6" x1="1686" y1="549.24" x2="1690.63" y2="559.74"/>
      <line class="cls-6" x1="1663.39" y1="549.24" x2="1668.46" y2="559.74"/>
      <line class="cls-6" x1="1640.59" y1="549.68" x2="1643.9" y2="559.74"/>
      <line class="cls-6" x1="1615.39" y1="549.24" x2="1619.14" y2="559.74"/>
      <line class="cls-6" x1="1588.16" y1="549.68" x2="1591.56" y2="559.74"/>
      <line class="cls-6" x1="1567.73" y1="559.74" x2="1571.82" y2="570.24"/>
      <line class="cls-6" x1="1606.24" y1="559.74" x2="1610.63" y2="570.24"/>
      <line class="cls-6" x1="1782.54" y1="559.74" x2="1789.22" y2="570.24"/>
      <line class="cls-6" x1="1831.56" y1="559.74" x2="1837.46" y2="570.24"/>
      <line class="cls-6" x1="1808.13" y1="561.01" x2="1812.16" y2="570.24"/>
    </g>
  </g>
  <ellipse cx="1462.59" cy="546.81" rx="25.76" ry="37.59" transform="translate(487.81 1766.64) rotate(-71.87)"/>
  <ellipse class="cls-4" cx="1462.83" cy="546.68" rx="19.87" ry="28.99" transform="translate(488.1 1766.78) rotate(-71.87)"/>
  <ellipse class="cls-4" cx="1463.28" cy="546.27" rx="14.39" ry="20.99" transform="translate(488.8 1766.92) rotate(-71.87)"/>
  <ellipse class="cls-4" cx="1462.84" cy="546" rx="9.43" ry="13.76" transform="translate(488.75 1766.32) rotate(-71.87)"/>
  <ellipse class="cls-12" cx="1462.61" cy="545.63" rx="2.27" ry="2.59" transform="translate(117.02 1337.05) rotate(-50.92)"/>
  <path class="cls-3" d="M1397.27,518.22h13.85c.36,0,.71,.17,.93,.46l3.54,4.68c.58,.77,.03,1.86-.93,1.86h-15.07c-.38,0-.73-.18-.95-.49l-2.75-3.85c-.8-1.11,0-2.66,1.37-2.66Z"/>
  <path class="cls-15" d="M1396.22,518.59l3.78,5.63,15.82-.21s.18,1.21-1.82,1.21h-14.4s-1.23-.28-1.41-1.14l-2.29-3.2s-.47-1.92,.31-2.29Z"/>
  <path class="cls-3" d="M1508.21,550.41h12.8c.34,0,.65,.16,.86,.43l3.27,4.32c.54,.71,.03,1.72-.86,1.72h-13.92c-.35,0-.67-.17-.87-.45l-2.54-3.56c-.74-1.03,0-2.46,1.27-2.46Z"/>
  <path class="cls-15" d="M1507.24,550.75l3.5,5.2,14.62-.19s.16,1.12-1.68,1.12h-13.31s-1.13-.26-1.3-1.05l-2.11-2.96s-.43-1.77,.29-2.12Z"/>
  <path class="cls-3" d="M1514.86,561.49h12.8c.34,0,.65,.16,.86,.43l3.27,4.32c.54,.71,.03,1.72-.86,1.72h-13.92c-.35,0-.67-.17-.87-.45l-2.54-3.56c-.74-1.03,0-2.46,1.27-2.46Z"/>
  <path class="cls-15" d="M1513.88,561.84l3.5,5.2,14.62-.19s.16,1.12-1.68,1.12h-13.31s-1.13-.26-1.3-1.05l-2.11-2.96s-.43-1.77,.29-2.12Z"/>
  <path class="cls-3" d="M1495.28,527.31h12.8c.34,0,.65,.16,.86,.43l3.27,4.32c.54,.71,.03,1.72-.86,1.72h-13.92c-.35,0-.67-.17-.87-.45l-2.54-3.56c-.74-1.03,0-2.46,1.27-2.46Z"/>
  <path class="cls-15" d="M1494.3,527.66l3.5,5.2,14.62-.19s.16,1.12-1.68,1.12h-13.31s-1.13-.26-1.3-1.05l-2.11-2.96s-.43-1.77,.29-2.12Z"/>
  <path class="cls-3" d="M1501.92,538.4h12.8c.34,0,.65,.16,.86,.43l3.27,4.32c.54,.71,.03,1.72-.86,1.72h-13.92c-.35,0-.67-.17-.87-.45l-2.54-3.56c-.74-1.03,0-2.46,1.27-2.46Z"/>
  <path class="cls-15" d="M1500.95,538.74l3.5,5.2,14.62-.19s.16,1.12-1.68,1.12h-13.31s-1.13-.26-1.3-1.05l-2.11-2.96s-.43-1.77,.29-2.12Z"/>
  <ellipse class="cls-9" cx="1439.17" cy="575.23" rx="2.99" ry="5" transform="translate(804.05 1988.99) rotate(-87.59)"/>
  <path d="M1857.05,529.31l25.41,35.72c.27,.37,.7,.6,1.15,.6h2.59c1.16,0,1.83-1.32,1.14-2.25l-26.21-35.72c-.27-.36-.69-.58-1.14-.58h-1.79c-1.15,0-1.82,1.3-1.15,2.24Z"/>
  <path d="M1876.24,529.12l25.45,35.72c.27,.37,.7,.59,1.15,.59h2.6c1.16,0,1.83-1.32,1.14-2.25l-26.26-35.72c-.27-.36-.69-.58-1.14-.58h-1.8c-1.15,0-1.82,1.3-1.15,2.24Z"/>
  <path d="M1895.24,529.12l25.45,35.72c.27,.37,.7,.59,1.15,.59h2.6c1.16,0,1.83-1.32,1.14-2.25l-26.26-35.72c-.27-.36-.69-.58-1.14-.58h-1.8c-1.15,0-1.82,1.3-1.15,2.24Z"/>
  <polygon class="cls-13" points="1916 560.22 1925.32 560.22 1925.32 557.71 1918 549.22 1909.57 549.22 1916 557.22 1916 560.22"/>
  <polygon class="cls-11" points="1909.57 549.22 1909.57 551.65 1916 560.22 1925.32 560.22 1925.32 557.71 1917 558.22 1909.57 549.22"/>
  <polygon class="cls-13" points="1884.88 544.25 1894.2 544.25 1894.2 541.74 1886.88 533.25 1878.44 533.25 1884.88 541.25 1884.88 544.25"/>
  <polygon class="cls-11" points="1878.44 533.25 1878.44 535.69 1884.88 544.25 1894.2 544.25 1894.2 541.74 1885.88 542.25 1878.44 533.25"/>
  <polygon class="cls-13" points="1874.88 556.25 1884.2 556.25 1884.2 553.74 1876.88 545.25 1868.44 545.25 1874.88 553.25 1874.88 556.25"/>
  <polygon class="cls-11" points="1868.44 545.25 1868.44 547.69 1874.88 556.25 1884.2 556.25 1884.2 553.74 1875.88 554.25 1868.44 545.25"/>
</svg>