<?xml version="1.0" encoding="UTF-8"?>
<svg xmlns="http://www.w3.org/2000/svg" viewBox="0 0 1929.88 1343.58" style="max-width:100%;">
  <defs>
    <style>
      .cls-1 {
        fill: #9c9c9d;
      }

      .cls-2, .cls-3 {
        fill: #fff;
      }

      .cls-4 {
        opacity: .69;
      }

      .cls-4, .cls-5 {
        fill: #494949;
      }

      .cls-3 {
        opacity: .9;
      }

      .cls-6 {
        stroke-width: .5px;
      }

      .cls-6, .cls-7, .cls-8 {
        stroke: #000;
      }

      .cls-6, .cls-7, .cls-8, .cls-9, .cls-10, .cls-11 {
        stroke-miterlimit: 10;
      }

      .cls-12, .cls-13 {
        fill: #5cd01b;
      }

      .cls-14 {
        fill: #727272;
        opacity: .54;
      }

      .cls-15 {
        fill: #e6b812;
      }

      .cls-16 {
        fill: #454756;
      }

      .cls-17 {
        fill: #ff2a09;
      }

      .cls-17, .cls-13 {
        opacity: .86;
      }

      .cls-8 {
        stroke-width: .75px;
      }

      .cls-18 {
        fill: #4066f2;
      }

      .cls-9 {
        stroke: #848484;
      }

      .cls-9, .cls-10, .cls-11 {
        fill: none;
      }

      .cls-5 {
        opacity: .57;
      }

      .cls-19 {
        fill: #ff8b00;
      }

      .cls-20 {
        fill: #606060;
      }

      .cls-21 {
        fill: #858586;
      }

      .cls-22 {
        fill: #6e6e6e;
      }

      .cls-23 {
        fill: #d40;
      }

      .cls-24 {
        fill: #3c3c3c;
      }

      .cls-10 {
        stroke-width: 4px;
      }

      .cls-10, .cls-11 {
        stroke: #4b4a4c;
      }

      .cls-11 {
        stroke-width: 2px;
      }
    </style>
  </defs>
  <g id="Layer_2" data-name="Layer 2">
    <polyline class="cls-20" points="969.05 252.05 599.71 252.05 391.37 1.8 309.66 1.8 513.92 249.35 294.3 249.35 9.05 345.8 9.05 502.3 579.55 502.3 1358.5 501.72 1929 501.72 1929 345.22 1643.75 248.77 1424.13 248.77 1628.38 1.22 1546.68 1.22 1338.34 251.47 969 251.47"/>
    <polygon class="cls-22" points="791.45 251.47 875.5 415.72 1061.06 415.72 1160.64 252.05 1146.5 237.72 804.47 237.72 791.45 251.47"/>
    <path class="cls-1" d="M1889.41,467.51l-53.32-106.81c-4.6-9.22-14.65-14.4-24.83-12.8l-444.31,69.83c-17.04,2.68-25.57,22.11-16.01,36.46l24.61,36.97c4.38,6.59,11.77,10.54,19.68,10.54h473.01c17.57,0,29.01-18.49,21.16-34.21Z"/>
    <path class="cls-1" d="M58.32,464.47l51.11-102.39c5.01-10.04,15.95-15.68,27.04-13.94l439.54,69.08c18.55,2.92,27.84,24.07,17.44,39.71l-22.17,33.3c-4.77,7.17-12.82,11.48-21.44,11.48H81.36c-19.14,0-31.59-20.13-23.04-37.25Z"/>
    <path class="cls-1" d="M1290.5,405.72l463.16-64.03c13.22-1.83,15.24-20.1,2.74-24.77l-118.72-44.38c-1.44-.54-2.96-.81-4.5-.81h-428.52c-4.5,0-8.67,2.35-11,6.2l-76.37,126.29c-5.18,8.57,.99,19.51,11,19.51h52.74c.71,0,1.41-.06,2.11-.17l107.37-17.83Z"/>
    <path class="cls-1" d="M653.14,402.72l-464.85-64.27c-12.78-1.77-14.73-19.43-2.65-23.95l120.39-45c1.39-.52,2.86-.79,4.35-.79h428.84c4.35,0,8.38,2.27,10.63,6l76.89,127.15c5.01,8.28-.96,18.85-10.63,18.85h-53.54c-.68,0-1.36-.06-2.03-.17l-107.4-17.83Z"/>
    <polygon class="cls-24" points="1146.5 237.72 1061.06 415.72 1160.64 252.05 1146.5 237.72"/>
    <polyline class="cls-24" points="789.9 252.08 804.59 238.11 879 425.22"/>
    <polyline class="cls-24" points="1563.02 1.8 1343.45 252.05 1330.49 252.05 1546.68 1.22"/>
    <polyline class="cls-24" points="379.67 1.97 599.24 252.22 612.2 252.22 396.01 1.39"/>
    <polygon class="cls-24" points="743.22 269.38 799.87 415.72 844.3 415.72 747.85 272.19 743.22 269.38"/>
    <polygon class="cls-24" points="1200.37 268.88 1143.72 415.22 1099.29 415.22 1195.74 271.69 1200.37 268.88"/>
    <path class="cls-24" d="M1344.25,442.24l33.87,58.98h3.02l30.85,.56s-59.86-63.94-54.42-78.94c5.44-15-20.61,21.66-11.72,19.65"/>
    <path class="cls-24" d="M600.99,444.28l-35.16,58.01-2.96-.1-30.25-.44s60.78-62.14,55.95-77.35c-4.83-15.21,19.47,22.38,10.82,20.08"/>
    <path class="cls-10" d="M1592.64,1.39l-206.25,241.03c-4.52,5.28-3.59,13.3,2.03,17.4l16.3,11.9"/>
    <path class="cls-1" d="M1403.28,274.91c1.93,0,1.93-3,0-3s-1.93,3,0,3h0Z"/>
    <path class="cls-1" d="M1403.83,274.68c1.93,0,1.93-3,0-3s-1.93,3,0,3h0Z"/>
    <path class="cls-1" d="M1401.03,271.9s-.04,.03-.06,.03l.36-.15h-.03c.13,0,.27-.03,.4-.05-.02,0-.05,0-.07,0l.4,.05h-.03c.12,.04,.24,.09,.36,.14l-.03-.02,.3,.23-.03-.02c-.49,.84-.97,1.67-1.46,2.51,.29,.1,.59,.16,.9,.17s.6-.08,.9-.12l-.4,.05c.34-.04,.68-.02,1.02,0,.15,.01,.31,.03,.46,.02,.19,0,.38-.03,.57-.07,.08-.01,.16-.03,.23-.06,.2-.05,.37-.14,.51-.27,.16-.11,.29-.25,.39-.42,.19-.32,.27-.8,.15-1.16s-.34-.71-.69-.9-.79-.3-1.16-.15c-.08,.03-.15,.05-.23,.06l.4-.05c-.34,.04-.68-.02-1.02-.03-.47-.02-.92,.07-1.38,.13l.4-.05c-.09,0-.17,0-.25,0l.4,.05c-.14-.02-.27-.07-.4-.11l-.4-.05c-.21,0-.4,.04-.58,.13-.29,.12-.57,.33-.72,.61-.12,.24-.19,.49-.2,.76-.02,.34,.17,.84,.44,1.06,.35,.29,.7,.49,1.17,.49,.3,0,.66-.07,.91-.25,.33-.23,.58-.5,.69-.9,.1-.36,.05-.84-.15-1.16s-.51-.6-.9-.69-.83-.08-1.16,.15h0Z"/>
    <line class="cls-10" x1="1514.14" y1="374.8" x2="1535.95" y2="391.18"/>
    <polyline class="cls-10" points="767.11 252.05 858.68 415.72 900.98 501.72 1026.6 502.3 1080 413.22 1187.19 252.05"/>
    <path class="cls-10" d="M349.28,1.3l206.25,241.03c4.52,5.28,3.59,13.3-2.03,17.4l-16.3,11.9"/>
    <path class="cls-1" d="M538.58,272.05c.39,.05-.26-.13-.09-.05,.09,.04,.07,.02-.07-.05-.08-.05-.15-.1-.23-.16l-.36,2.74c.09-.03,.17-.06,.26-.08,.14-.04,.15-.01,0,0,.21,0,.43-.02,.64-.03,.44-.01,.89-.02,1.33-.04,.78-.02,1.54-.67,1.5-1.5s-.66-1.47-1.5-1.5c-.98-.03-1.96-.06-2.95-.09l.76,2.8,.85-.46c1.17-.63,.84-2.38-.36-2.74-.14-.04-.28-.09-.42-.14,.24,.09-.17-.09-.19-.09-.13-.07-.26-.15-.39-.22-.29-.16,.1,.14-.07-.08l.39,.66c.05,.48-.08,.85-.4,1.11-.2,.08-.2,.09,0,.02,.15-.03,.3-.07,.45-.1,.45-.08-.25,0,.21-.02,.18,0,.36-.02,.54-.02,.7,0,1.4,.08,2.09,.15s1.36,.11,2.05,.1c.32,0,.64-.03,.96-.05,.48-.04,1.04-.05,1.46-.3,.66-.39,.93-1.26,.64-1.95-.27-.63-.83-1-1.51-1.03s-1.38,.03-2.07,.05-1.42,.04-2.14,.06c-.38,.01-.77,.02-1.15,.03-.14,0-.29,0-.43,0-.18-.01-.19-.01-.02,0-.17-.05-.18-.05-.04,0l-.76,2.8c1.15,.02,2.3,.03,3.44,.05,.55,0,1.09,.02,1.64,.02,.3,0,.6,0,.9,.01,.14,0,.27,.01,.41,0,.28-.01-.1,0-.19-.06,.66,.43,1.69,.16,2.05-.54,.39-.75,.17-1.6-.54-2.05-.61-.4-1.36-.35-2.06-.36-.63,0-1.26-.02-1.89-.03-1.26-.02-2.52-.04-3.77-.05-.63,0-1.3,.47-1.45,1.1s.08,1.4,.69,1.69c1.18,.58,2.53,.38,3.81,.34,.6-.02,1.21-.03,1.81-.05,.27,0,.55-.02,.82-.02,.16,0,.33,0,.49-.01h.16c.24,0,.22-.01-.05-.03l-.9-.69,.05,.08-.15-1.16-.03,.08,1.05-1.05c.32-.1,.05,0-.07,.02-.13,.01-.26,.03-.4,.04-.27,.02-.53,.03-.8,.04-.55,.01-1.11-.01-1.66-.06-1.05-.09-2.11-.25-3.17-.15-1.31,.12-3.03,.55-3.09,2.18-.05,1.47,1.7,2.21,2.88,2.56l-.36-2.74-.85,.46c-.56,.3-.89,1.08-.69,1.69,.21,.64,.76,1.08,1.45,1.1,.98,.03,1.96,.06,2.95,.09v-3c-.98,.03-2.1-.08-3.03,.26-.57,.21-.99,.62-1.07,1.25s.22,1.12,.72,1.49c.56,.43,1.21,.58,1.89,.66,.78,.09,1.53-.76,1.5-1.5-.04-.89-.66-1.4-1.5-1.5h0Z"/>
    <line class="cls-10" x1="417.39" y1="370.12" x2="391.95" y2="388.3"/>
    <path d="M1426.79,488.28l-22.67-34.94c-4.89-7.53-.36-17.41,8.76-19.13l227.62-42.91c.78-.15,1.57-.23,2.36-.24l169.43-2.71c5.11-.08,9.81,2.63,12.1,6.99l38.89,73.95c4.39,8.36-1.89,18.23-11.7,18.39l-413.28,6.6c-4.68,.07-9.06-2.2-11.52-6Z"/>
    <path d="M520.21,487.84l22.67-34.94c4.89-7.53,.36-17.41-8.76-19.13l-227.62-42.91c-.78-.15-1.57-.23-2.36-.24l-169.43-2.71c-5.11-.08-9.81,2.63-12.1,6.99l-38.89,73.95c-4.39,8.36,1.89,18.23,11.7,18.39l413.28,6.6c4.68,.07,9.06-2.2,11.52-6Z"/>
    <g>
      <rect class="cls-16" x="139" y="370.22" width="16" height="13" rx="5.3" ry="5.3"/>
      <rect class="cls-16" x="164" y="370.22" width="16" height="13" rx="5.3" ry="5.3"/>
      <rect class="cls-16" x="188" y="370.22" width="16" height="13" rx="5.3" ry="5.3"/>
    </g>
    <g>
      <rect class="cls-16" x="1743" y="370.22" width="16" height="13" rx="5.68" ry="5.68"/>
      <rect class="cls-16" x="1768" y="370.22" width="16" height="13" rx="5.68" ry="5.68"/>
      <rect class="cls-16" x="1792" y="370.22" width="16" height="13" rx="5.68" ry="5.68"/>
    </g>
    <ellipse class="cls-12" cx="233" cy="377.72" rx="6" ry="5.5"/>
    <ellipse class="cls-12" cx="1712" cy="377.72" rx="6" ry="5.5"/>
    <path class="cls-24" d="M1295.36,405.05l475.1-66.17c2.17-.3,3.26-2.78,2-4.57l-10.24-14.57c-.65-.93-1.79-1.4-2.91-1.2l-464.86,80.74c-2.32,.4-3.25,3.23-1.61,4.92h0c.65,.67,1.59,.99,2.52,.86Z"/>
    <path class="cls-24" d="M1295.36,406.05l475.1-66.17c2.17-.3,3.26-2.78,2-4.57l-10.24-14.57c-.65-.93-1.79-1.4-2.91-1.2l-464.86,80.74c-2.32,.4-3.25,3.23-1.61,4.92h0c.65,.67,1.59,.99,2.52,.86Z"/>
    <path class="cls-24" d="M646.83,404.23l-475.1-66.17c-2.17-.3-3.26-2.78-2-4.57l10.24-14.57c.65-.93,1.79-1.4,2.91-1.2l464.86,80.74c2.32,.4,3.25,3.23,1.61,4.92h0c-.65,.67-1.59,.99-2.52,.86Z"/>
    <polyline class="cls-24" points="799.87 415.72 653.14 402.72 789.9 428.77 844.3 415.72 647.74 398.46 649.34 403.37"/>
    <polyline class="cls-24" points="1143.95 416.98 1290.68 403.98 1153.93 430.04 1099.53 416.98 1296.09 399.72 1294.48 404.63"/>
    <polyline class="cls-11" points="1051.66 460.5 1179 476.22 1284.96 405.07 1339.11 501.72"/>
    <polyline class="cls-11" points="879 460.58 749.4 476.3 641.56 405.16 586.45 501.8"/>
    <polyline class="cls-11" points="9.05 440.88 82.28 342.05 296 261.22 553.5 259.73 771.41 259.73"/>
    <polyline class="cls-11" points="1929 430.04 1882.17 342.05 1637 259.22 1388.42 259.82 1179.13 264.17"/>
    <path d="M227,315.93l83-37.71h185.94l-77.55,56.68c-7.29,5.33-16.4,7.56-25.33,6.21l-166.05-25.17Z"/>
    <path d="M1715.72,314.93l-83-37.71h-185.94s77.55,56.68,77.55,56.68c7.29,5.33,16.4,7.56,25.33,6.21l166.05-25.17Z"/>
  </g>
  <g id="Layer_3" data-name="Layer 3">
    <g>
      <polygon class="cls-9" points="1205.83 277.22 1434.09 277.22 1516.09 342.55 1339.11 370.22 1205.83 372.22 1205.83 277.22"/>
      <polygon class="cls-14" points="1200.37 290.98 1197.81 382.99 1330.49 379.5 1158.94 405.07 1200.37 290.98"/>
      <g>
        <rect x="1213" y="285.22" width="63.04" height="20.4" rx="8.33" ry="8.33"/>
        <rect class="cls-4" x="1221.89" y="308.85" width="46.47" height="6.56" rx="2.68" ry="2.68"/>
        <path class="cls-3" d="M1227.95,303.22h11.92c.72,0,1.39-.29,1.91-.79,.45-.44,1.18-.91,2.23-.91s1.73,.45,2.18,.89c.52,.51,1.2,.82,1.93,.82h13.98c2.27,0,3.55-2.64,2.1-4.39-3.34-4.05-9.79-9.32-20.35-8.55,0,0-10.16-1.06-17.98,8.5-1.45,1.77-.22,4.44,2.07,4.44Z"/>
        <line class="cls-7" x1="1228" y1="298.22" x2="1230" y2="300.22"/>
        <line class="cls-7" x1="1231.77" y1="294.77" x2="1233.47" y2="297.03"/>
        <line class="cls-7" x1="1236.27" y1="292.2" x2="1237.44" y2="294.78"/>
        <line class="cls-7" x1="1243.9" y1="290.98" x2="1243.9" y2="293.61"/>
        <line class="cls-7" x1="1260.97" y1="298.67" x2="1258.97" y2="300.67"/>
        <line class="cls-7" x1="1257.2" y1="295.22" x2="1255.51" y2="297.48"/>
        <line class="cls-7" x1="1252.7" y1="292.65" x2="1251.53" y2="295.23"/>
        <circle class="cls-19" cx="1244.25" cy="303.47" r="1.25"/>
        <circle class="cls-19" cx="1244.25" cy="303.47" r="1.25"/>
        <circle class="cls-23" cx="1244.25" cy="303.47" r="1.25"/>
        <path class="cls-23" d="M1245.13,301.2l7.77-5.78,2.11-1.2-1.43,1.64s-.06,.06-.09,.08l-7.98,5.65"/>
      </g>
      <g>
        <rect x="1214.33" y="320.22" width="61.07" height="19.76" rx="8.07" ry="8.07"/>
        <rect class="cls-4" x="1222.94" y="343.11" width="45.01" height="6.35" rx="2.6" ry="2.6"/>
        <path class="cls-3" d="M1228.81,337.65h11.54c.69,0,1.35-.28,1.85-.77,.44-.43,1.14-.88,2.16-.88s1.68,.44,2.11,.86c.5,.49,1.17,.79,1.87,.79h13.54c2.2,0,3.44-2.56,2.04-4.25-3.24-3.92-9.49-9.03-19.71-8.28,0,0-9.84-1.03-17.41,8.23-1.4,1.72-.21,4.3,2.01,4.3Z"/>
        <line class="cls-7" x1="1228.86" y1="332.81" x2="1230.8" y2="334.75"/>
        <line class="cls-7" x1="1232.51" y1="329.47" x2="1234.15" y2="331.66"/>
        <line class="cls-7" x1="1236.87" y1="326.98" x2="1238.01" y2="329.48"/>
        <line class="cls-7" x1="1244.26" y1="325.8" x2="1244.26" y2="328.35"/>
        <line class="cls-7" x1="1260.8" y1="333.25" x2="1258.86" y2="335.19"/>
        <line class="cls-7" x1="1257.15" y1="329.91" x2="1255.5" y2="332.1"/>
        <line class="cls-7" x1="1252.78" y1="327.42" x2="1251.65" y2="329.91"/>
        <circle class="cls-19" cx="1244.6" cy="337.9" r="1.21"/>
        <circle class="cls-19" cx="1244.6" cy="337.9" r="1.21"/>
        <circle class="cls-23" cx="1244.6" cy="337.9" r="1.21"/>
        <path class="cls-23" d="M1245.45,335.7l7.52-5.6,2.04-1.16-1.38,1.58s-.05,.06-.09,.08l-7.73,5.47"/>
      </g>
      <path d="M1290,287.51v34.92c0,1.26,.56,2.29,1.26,2.29h.48c.7,0,1.26-1.03,1.26-2.29v-34.92c0-1.26-.56-2.29-1.26-2.29h-.48c-.7,0-1.26,1.03-1.26,2.29Z"/>
      <rect class="cls-18" x="1287.62" y="310.13" width="7.66" height="9.36" rx="1.68" ry="1.68"/>
      <path d="M1305.71,287.62v34.92c0,1.26,.56,2.29,1.26,2.29h.48c.7,0,1.26-1.03,1.26-2.29v-34.92c0-1.26-.56-2.29-1.26-2.29h-.48c-.7,0-1.26,1.03-1.26,2.29Z"/>
      <rect class="cls-18" x="1303.33" y="300.25" width="7.66" height="9.36" rx="1.68" ry="1.68"/>
      <path d="M1290,287.51v34.92c0,1.26,.56,2.29,1.26,2.29h.48c.7,0,1.26-1.03,1.26-2.29v-34.92c0-1.26-.56-2.29-1.26-2.29h-.48c-.7,0-1.26,1.03-1.26,2.29Z"/>
      <rect class="cls-18" x="1287.62" y="310.13" width="7.66" height="9.36" rx="1.68" ry="1.68"/>
      <path d="M1319.47,287.95v34.92c0,1.26,.56,2.29,1.26,2.29h.48c.7,0,1.26-1.03,1.26-2.29v-34.92c0-1.26-.56-2.29-1.26-2.29h-.48c-.7,0-1.26,1.03-1.26,2.29Z"/>
      <rect class="cls-18" x="1317.09" y="310.57" width="7.66" height="9.36" rx="1.68" ry="1.68"/>
      <rect class="cls-16" x="1286" y="331.22" width="10" height="7" rx="1.8" ry="1.8"/>
      <rect class="cls-16" x="1301" y="331.22" width="10" height="7" rx="1.8" ry="1.8"/>
      <rect class="cls-16" x="1316" y="331.22" width="10" height="7" rx="1.8" ry="1.8"/>
      <path d="M1351.37,285.62l75.25-.37c4.11-.02,7.45,3.31,7.45,7.42l-.06,32.15c0,4.09-3.32,7.4-7.41,7.4h-75.19c-4.09,0-7.41-3.32-7.41-7.41v-31.78c0-4.08,3.3-7.39,7.37-7.41Z"/>
      <g>
        <rect class="cls-5" x="1360.65" y="334.72" width="58.08" height="2.66" rx="1.33" ry="1.33"/>
        <rect class="cls-5" x="1360.47" y="338.76" width="58.08" height="2.66" rx="1.33" ry="1.33"/>
        <rect class="cls-5" x="1360.47" y="342.56" width="58.08" height="2.66" rx="1.33" ry="1.33"/>
      </g>
      <path class="cls-21" d="M1453.51,299.67l41.32,35.96c2.05,1.78,1.09,5.15-1.58,5.59l-51.66,8.5c-2.2,.36-4.08-1.57-3.67-3.76l8.19-43.71c.64-3.43,4.77-4.87,7.41-2.58Z"/>
      <path class="cls-21" d="M1439,294.22l-.97,47.66c-.01,.69,.95,.86,1.18,.21l14.36-41.84c.08-.24,0-.51-.2-.67l-13.39-10.59c-.4-.31-.98-.03-.98,.47v4.75Z"/>
      <polyline class="cls-21" points="1438.17 338.26 1437.91 345.96 1439.2 339.12"/>
      <g>
        <g>
          <rect x="1282" y="344.22" width="49.5" height="9" rx="2.65" ry="2.65"/>
          <rect class="cls-2" x="1283.29" y="345.5" width="46.93" height="4.5" rx="2.25" ry="2.25"/>
          <circle class="cls-17" cx="1284.25" cy="351.61" r=".96"/>
          <circle class="cls-13" cx="1287.46" cy="351.61" r=".96"/>
          <line class="cls-8" x1="1283.29" y1="348.4" x2="1330.21" y2="348.4"/>
          <g>
            <line class="cls-6" x1="1284.57" y1="345.35" x2="1284.57" y2="346.54"/>
            <line class="cls-6" x1="1286.13" y1="345.35" x2="1286.13" y2="346.82"/>
            <line class="cls-6" x1="1288.02" y1="345.35" x2="1288.02" y2="346.54"/>
            <line class="cls-6" x1="1290.82" y1="345.35" x2="1290.82" y2="346.54"/>
            <line class="cls-6" x1="1292.65" y1="345.35" x2="1292.65" y2="347.16"/>
            <line class="cls-6" x1="1289.34" y1="345.35" x2="1289.34" y2="347.16"/>
            <line class="cls-6" x1="1294.2" y1="345.35" x2="1294.2" y2="346.82"/>
            <line class="cls-6" x1="1295.8" y1="345.35" x2="1295.8" y2="346.54"/>
            <line class="cls-6" x1="1297.25" y1="345.35" x2="1297.25" y2="346.82"/>
            <line class="cls-6" x1="1298.59" y1="345.35" x2="1298.59" y2="346.26"/>
            <line class="cls-6" x1="1300.05" y1="345.35" x2="1300.05" y2="347.16"/>
            <line class="cls-6" x1="1301.53" y1="345.35" x2="1301.53" y2="346.26"/>
            <line class="cls-6" x1="1302.83" y1="345.35" x2="1302.83" y2="347.43"/>
            <line class="cls-6" x1="1304.17" y1="345.35" x2="1304.17" y2="346.39"/>
            <line class="cls-6" x1="1305.16" y1="345.35" x2="1305.16" y2="346.09"/>
            <line class="cls-6" x1="1306.46" y1="345.35" x2="1306.46" y2="347.16"/>
            <line class="cls-6" x1="1307.73" y1="345.35" x2="1307.73" y2="346.54"/>
            <line class="cls-6" x1="1309" y1="345.35" x2="1309" y2="347.16"/>
          </g>
          <g>
            <line class="cls-6" x1="1309.98" y1="345.2" x2="1309.98" y2="346.39"/>
            <line class="cls-6" x1="1311.23" y1="345.2" x2="1311.23" y2="346.67"/>
            <line class="cls-6" x1="1312.75" y1="345.2" x2="1312.75" y2="346.39"/>
            <line class="cls-6" x1="1315" y1="345.2" x2="1315" y2="346.39"/>
            <line class="cls-6" x1="1316.46" y1="345.2" x2="1316.46" y2="347.01"/>
            <line class="cls-6" x1="1313.81" y1="345.2" x2="1313.81" y2="347.01"/>
            <line class="cls-6" x1="1317.7" y1="345.2" x2="1317.7" y2="346.67"/>
            <line class="cls-6" x1="1318.99" y1="345.2" x2="1318.99" y2="346.39"/>
            <line class="cls-6" x1="1320.15" y1="345.2" x2="1320.15" y2="346.67"/>
            <line class="cls-6" x1="1321.23" y1="345.2" x2="1321.23" y2="346.11"/>
            <line class="cls-6" x1="1322.4" y1="345.2" x2="1322.4" y2="347.01"/>
            <line class="cls-6" x1="1323.58" y1="345.2" x2="1323.58" y2="346.11"/>
            <line class="cls-6" x1="1324.62" y1="345.2" x2="1324.62" y2="347.28"/>
            <line class="cls-6" x1="1325.7" y1="345.2" x2="1325.7" y2="346.24"/>
            <line class="cls-6" x1="1326.49" y1="345.2" x2="1326.49" y2="345.94"/>
            <line class="cls-6" x1="1327.53" y1="345.2" x2="1327.53" y2="347.01"/>
            <line class="cls-6" x1="1328.55" y1="345.2" x2="1328.55" y2="346.39"/>
            <line class="cls-6" x1="1329.57" y1="345.2" x2="1329.57" y2="347.01"/>
          </g>
        </g>
        <rect class="cls-23" x="1313.11" y="345.5" width="1.15" height="4.5"/>
      </g>
      <g>
        <g>
          <rect x="1281.97" y="357.76" width="49.5" height="9" rx="2.65" ry="2.65"/>
          <rect class="cls-2" x="1283.26" y="359.05" width="46.93" height="4.5" rx="2.25" ry="2.25"/>
          <circle class="cls-17" cx="1284.22" cy="365.15" r=".96"/>
          <circle class="cls-13" cx="1287.44" cy="365.15" r=".96"/>
          <line class="cls-8" x1="1283.26" y1="361.95" x2="1330.19" y2="361.95"/>
          <g>
            <line class="cls-6" x1="1284.54" y1="358.89" x2="1284.54" y2="360.08"/>
            <line class="cls-6" x1="1286.1" y1="358.89" x2="1286.1" y2="360.36"/>
            <line class="cls-6" x1="1288" y1="358.89" x2="1288" y2="360.08"/>
            <line class="cls-6" x1="1290.8" y1="358.89" x2="1290.8" y2="360.08"/>
            <line class="cls-6" x1="1292.62" y1="358.89" x2="1292.62" y2="360.7"/>
            <line class="cls-6" x1="1289.32" y1="358.89" x2="1289.32" y2="360.7"/>
            <line class="cls-6" x1="1294.17" y1="358.89" x2="1294.17" y2="360.36"/>
            <line class="cls-6" x1="1295.78" y1="358.89" x2="1295.78" y2="360.08"/>
            <line class="cls-6" x1="1297.23" y1="358.89" x2="1297.23" y2="360.36"/>
            <line class="cls-6" x1="1298.57" y1="358.89" x2="1298.57" y2="359.8"/>
            <line class="cls-6" x1="1300.02" y1="358.89" x2="1300.02" y2="360.7"/>
            <line class="cls-6" x1="1301.5" y1="358.89" x2="1301.5" y2="359.8"/>
            <line class="cls-6" x1="1302.8" y1="358.89" x2="1302.8" y2="360.98"/>
            <line class="cls-6" x1="1304.14" y1="358.89" x2="1304.14" y2="359.94"/>
            <line class="cls-6" x1="1305.13" y1="358.89" x2="1305.13" y2="359.63"/>
            <line class="cls-6" x1="1306.43" y1="358.89" x2="1306.43" y2="360.7"/>
            <line class="cls-6" x1="1307.7" y1="358.89" x2="1307.7" y2="360.08"/>
            <line class="cls-6" x1="1308.97" y1="358.89" x2="1308.97" y2="360.7"/>
          </g>
          <g>
            <line class="cls-6" x1="1309.96" y1="358.75" x2="1309.96" y2="359.93"/>
            <line class="cls-6" x1="1311.21" y1="358.75" x2="1311.21" y2="360.21"/>
            <line class="cls-6" x1="1312.73" y1="358.75" x2="1312.73" y2="359.93"/>
            <line class="cls-6" x1="1314.97" y1="358.75" x2="1314.97" y2="359.93"/>
            <line class="cls-6" x1="1316.44" y1="358.75" x2="1316.44" y2="360.55"/>
            <line class="cls-6" x1="1313.78" y1="358.75" x2="1313.78" y2="360.55"/>
            <line class="cls-6" x1="1317.68" y1="358.75" x2="1317.68" y2="360.21"/>
            <line class="cls-6" x1="1318.96" y1="358.75" x2="1318.96" y2="359.93"/>
            <line class="cls-6" x1="1320.13" y1="358.75" x2="1320.13" y2="360.21"/>
            <line class="cls-6" x1="1321.2" y1="358.75" x2="1321.2" y2="359.65"/>
            <line class="cls-6" x1="1322.37" y1="358.75" x2="1322.37" y2="360.55"/>
            <line class="cls-6" x1="1323.56" y1="358.75" x2="1323.56" y2="359.65"/>
            <line class="cls-6" x1="1324.59" y1="358.75" x2="1324.59" y2="360.83"/>
            <line class="cls-6" x1="1325.67" y1="358.75" x2="1325.67" y2="359.79"/>
            <line class="cls-6" x1="1326.47" y1="358.75" x2="1326.47" y2="359.48"/>
            <line class="cls-6" x1="1327.51" y1="358.75" x2="1327.51" y2="360.55"/>
            <line class="cls-6" x1="1328.53" y1="358.75" x2="1328.53" y2="359.93"/>
            <line class="cls-6" x1="1329.54" y1="358.75" x2="1329.54" y2="360.55"/>
          </g>
        </g>
        <rect class="cls-23" x="1297.08" y="359.05" width="1.15" height="4.5"/>
      </g>
      <rect class="cls-16" x="1369" y="348.22" width="10" height="7" rx="1.8" ry="1.8"/>
      <rect class="cls-16" x="1384" y="348.22" width="10" height="7" rx="1.8" ry="1.8"/>
      <rect class="cls-16" x="1399" y="348.22" width="10" height="7" rx="1.8" ry="1.8"/>
      <path d="M1337.78,339.9v25.7c0,.93,.42,1.69,.93,1.69h.35c.51,0,.93-.75,.93-1.69v-25.7c0-.93-.42-1.69-.93-1.69h-.35c-.51,0-.93,.75-.93,1.69Z"/>
      <rect class="cls-15" x="1336.22" y="356.22" width="4.78" height="5.84" rx="1.05" ry="1.05"/>
      <line class="cls-9" x1="1335.02" y1="285.26" x2="1335.02" y2="328.94"/>
      <line class="cls-9" x1="1351.36" y1="337.38" x2="1351.36" y2="362.26"/>
      <line class="cls-9" x1="1431.5" y1="282.72" x2="1341" y2="282.72"/>
      <polyline class="cls-9" points="1275 343.89 1275 366.76 1214.33 367.29 1214.33 344.63"/>
      <polygon class="cls-9" points="729.05 278.04 500.79 278.04 418.79 343.37 595.77 371.04 729.05 373.04 729.05 278.04"/>
      <polygon class="cls-14" points="734.51 291.8 737.07 383.81 604.39 380.31 775.94 405.89 734.51 291.8"/>
      <g>
        <rect x="658.84" y="286.04" width="63.04" height="20.4" rx="8.33" ry="8.33"/>
        <rect class="cls-4" x="666.52" y="309.67" width="46.47" height="6.56" rx="2.68" ry="2.68"/>
        <path class="cls-3" d="M706.93,304.04h-11.92c-.72,0-1.39-.29-1.91-.79-.45-.44-1.18-.91-2.23-.91s-1.73,.45-2.18,.89c-.52,.51-1.2,.82-1.93,.82h-13.98c-2.27,0-3.55-2.64-2.1-4.39,3.34-4.05,9.79-9.32,20.35-8.55,0,0,10.16-1.06,17.98,8.5,1.45,1.77,.22,4.44-2.07,4.44Z"/>
        <line class="cls-7" x1="706.88" y1="299.04" x2="704.88" y2="301.04"/>
        <line class="cls-7" x1="703.11" y1="295.59" x2="701.41" y2="297.85"/>
        <line class="cls-7" x1="698.6" y1="293.02" x2="697.44" y2="295.6"/>
        <line class="cls-7" x1="690.97" y1="291.8" x2="690.97" y2="294.43"/>
        <line class="cls-7" x1="673.9" y1="299.49" x2="675.9" y2="301.49"/>
        <line class="cls-7" x1="677.67" y1="296.04" x2="679.37" y2="298.3"/>
        <line class="cls-7" x1="682.18" y1="293.47" x2="683.35" y2="296.05"/>
        <circle class="cls-19" cx="690.63" cy="304.29" r="1.25"/>
        <circle class="cls-19" cx="690.63" cy="304.29" r="1.25"/>
        <circle class="cls-23" cx="690.63" cy="304.29" r="1.25"/>
        <path class="cls-23" d="M692.88,302.02l7.77-5.78,2.11-1.2-1.43,1.64s-.06,.06-.09,.08l-7.98,5.65"/>
      </g>
      <g>
        <rect x="659.48" y="321.04" width="61.07" height="19.76" rx="8.07" ry="8.07"/>
        <rect class="cls-4" x="666.92" y="343.93" width="45.01" height="6.35" rx="2.6" ry="2.6"/>
        <path class="cls-3" d="M706.07,338.47h-11.54c-.69,0-1.35-.28-1.85-.77-.44-.43-1.14-.88-2.16-.88s-1.68,.44-2.11,.86c-.5,.49-1.17,.79-1.87,.79h-13.54c-2.2,0-3.44-2.56-2.04-4.25,3.24-3.92,9.49-9.03,19.71-8.28,0,0,9.84-1.03,17.41,8.23,1.4,1.72,.21,4.3-2.01,4.3Z"/>
        <line class="cls-7" x1="706.02" y1="333.63" x2="704.08" y2="335.57"/>
        <line class="cls-7" x1="702.37" y1="330.29" x2="700.72" y2="332.48"/>
        <line class="cls-7" x1="698" y1="327.8" x2="696.87" y2="330.3"/>
        <line class="cls-7" x1="690.61" y1="326.62" x2="690.61" y2="329.17"/>
        <line class="cls-7" x1="674.08" y1="334.07" x2="676.02" y2="336"/>
        <line class="cls-7" x1="677.73" y1="330.72" x2="679.37" y2="332.92"/>
        <line class="cls-7" x1="682.09" y1="328.24" x2="683.22" y2="330.73"/>
        <circle class="cls-19" cx="690.28" cy="338.72" r="1.21"/>
        <circle class="cls-19" cx="690.28" cy="338.72" r="1.21"/>
        <circle class="cls-23" cx="690.28" cy="338.72" r="1.21"/>
        <path class="cls-23" d="M689.43,336.52l-7.52-5.6-2.04-1.16,1.38,1.58s.05,.06,.09,.08l7.73,5.47"/>
      </g>
      <path d="M644.88,288.33v34.92c0,1.26-.56,2.29-1.26,2.29h-.48c-.7,0-1.26-1.03-1.26-2.29v-34.92c0-1.26,.56-2.29,1.26-2.29h.48c.7,0,1.26,1.03,1.26,2.29Z"/>
      <rect class="cls-18" x="639.6" y="310.95" width="7.66" height="9.36" rx="1.68" ry="1.68"/>
      <path d="M629.16,288.44v34.92c0,1.26-.56,2.29-1.26,2.29h-.48c-.7,0-1.26-1.03-1.26-2.29v-34.92c0-1.26,.56-2.29,1.26-2.29h.48c.7,0,1.26,1.03,1.26,2.29Z"/>
      <rect class="cls-18" x="623.89" y="301.06" width="7.66" height="9.36" rx="1.68" ry="1.68"/>
      <path d="M644.88,288.33v34.92c0,1.26-.56,2.29-1.26,2.29h-.48c-.7,0-1.26-1.03-1.26-2.29v-34.92c0-1.26,.56-2.29,1.26-2.29h.48c.7,0,1.26,1.03,1.26,2.29Z"/>
      <rect class="cls-18" x="639.6" y="310.95" width="7.66" height="9.36" rx="1.68" ry="1.68"/>
      <path d="M615.41,288.77v34.92c0,1.26-.56,2.29-1.26,2.29h-.48c-.7,0-1.26-1.03-1.26-2.29v-34.92c0-1.26,.56-2.29,1.26-2.29h.48c.7,0,1.26,1.03,1.26,2.29Z"/>
      <rect class="cls-18" x="610.13" y="311.39" width="7.66" height="9.36" rx="1.68" ry="1.68"/>
      <rect class="cls-16" x="638.88" y="332.04" width="10" height="7" rx="1.8" ry="1.8" transform="translate(1287.76 671.08) rotate(-180)"/>
      <rect class="cls-16" x="623.88" y="332.04" width="10" height="7" rx="1.8" ry="1.8" transform="translate(1257.76 671.08) rotate(-180)"/>
      <rect class="cls-16" x="608.88" y="332.04" width="10" height="7" rx="1.8" ry="1.8" transform="translate(1227.76 671.08) rotate(-180)"/>
      <path d="M583.5,286.44l-75.25-.37c-4.11-.02-7.45,3.31-7.45,7.42l.06,32.15c0,4.09,3.32,7.4,7.41,7.4h75.19c4.09,0,7.41-3.32,7.41-7.41v-31.78c0-4.08-3.3-7.39-7.37-7.41Z"/>
      <g>
        <rect class="cls-5" x="516.15" y="335.54" width="58.08" height="2.66" rx="1.33" ry="1.33"/>
        <rect class="cls-5" x="516.33" y="339.58" width="58.08" height="2.66" rx="1.33" ry="1.33"/>
        <rect class="cls-5" x="516.33" y="343.38" width="58.08" height="2.66" rx="1.33" ry="1.33"/>
      </g>
      <path class="cls-21" d="M481.37,300.49l-41.32,35.96c-2.05,1.78-1.09,5.15,1.58,5.59l51.66,8.5c2.2,.36,4.08-1.57,3.67-3.76l-8.19-43.71c-.64-3.43-4.77-4.87-7.41-2.58Z"/>
      <path class="cls-21" d="M495.88,295.04l.97,47.66c.01,.69-.95,.86-1.18,.21l-14.36-41.84c-.08-.24,0-.51,.2-.67l13.39-10.59c.4-.31,.98-.03,.98,.47v4.75Z"/>
      <polyline class="cls-21" points="496.71 339.08 496.96 346.78 495.68 339.94"/>
      <g>
        <rect x="603.38" y="345.04" width="49.5" height="9" rx="2.65" ry="2.65" transform="translate(1256.26 699.08) rotate(-180)"/>
        <rect class="cls-2" x="604.66" y="346.32" width="46.93" height="4.5" rx="2.25" ry="2.25" transform="translate(1256.26 697.15) rotate(-180)"/>
        <circle class="cls-17" cx="606.63" cy="352.43" r=".96"/>
        <circle class="cls-13" cx="609.41" cy="352.43" r=".96"/>
        <line class="cls-8" x1="651.59" y1="349.22" x2="604.66" y2="349.22"/>
        <g>
          <line class="cls-6" x1="650.31" y1="346.17" x2="650.31" y2="347.36"/>
          <line class="cls-6" x1="648.75" y1="346.17" x2="648.75" y2="347.64"/>
          <line class="cls-6" x1="646.85" y1="346.17" x2="646.85" y2="347.36"/>
          <line class="cls-6" x1="644.05" y1="346.17" x2="644.05" y2="347.36"/>
          <line class="cls-6" x1="642.23" y1="346.17" x2="642.23" y2="347.98"/>
          <line class="cls-6" x1="645.53" y1="346.17" x2="645.53" y2="347.98"/>
          <line class="cls-6" x1="640.68" y1="346.17" x2="640.68" y2="347.64"/>
          <line class="cls-6" x1="639.07" y1="346.17" x2="639.07" y2="347.36"/>
          <line class="cls-6" x1="637.63" y1="346.17" x2="637.63" y2="347.64"/>
          <line class="cls-6" x1="636.28" y1="346.17" x2="636.28" y2="347.08"/>
          <line class="cls-6" x1="634.83" y1="346.17" x2="634.83" y2="347.98"/>
          <line class="cls-6" x1="633.35" y1="346.17" x2="633.35" y2="347.08"/>
          <line class="cls-6" x1="632.05" y1="346.17" x2="632.05" y2="348.25"/>
          <line class="cls-6" x1="630.71" y1="346.17" x2="630.71" y2="347.21"/>
          <line class="cls-6" x1="629.72" y1="346.17" x2="629.72" y2="346.9"/>
          <line class="cls-6" x1="628.42" y1="346.17" x2="628.42" y2="347.98"/>
          <line class="cls-6" x1="627.15" y1="346.17" x2="627.15" y2="347.36"/>
          <line class="cls-6" x1="625.88" y1="346.17" x2="625.88" y2="347.98"/>
        </g>
        <g>
          <line class="cls-6" x1="624.89" y1="346.02" x2="624.89" y2="347.21"/>
          <line class="cls-6" x1="623.64" y1="346.02" x2="623.64" y2="347.49"/>
          <line class="cls-6" x1="622.12" y1="346.02" x2="622.12" y2="347.21"/>
          <line class="cls-6" x1="619.88" y1="346.02" x2="619.88" y2="347.21"/>
          <line class="cls-6" x1="618.42" y1="346.02" x2="618.42" y2="347.83"/>
          <line class="cls-6" x1="621.07" y1="346.02" x2="621.07" y2="347.83"/>
          <line class="cls-6" x1="617.17" y1="346.02" x2="617.17" y2="347.49"/>
          <line class="cls-6" x1="615.89" y1="346.02" x2="615.89" y2="347.21"/>
          <line class="cls-6" x1="614.73" y1="346.02" x2="614.73" y2="347.49"/>
          <line class="cls-6" x1="613.65" y1="346.02" x2="613.65" y2="346.93"/>
          <line class="cls-6" x1="612.48" y1="346.02" x2="612.48" y2="347.83"/>
          <line class="cls-6" x1="611.3" y1="346.02" x2="611.3" y2="346.93"/>
          <line class="cls-6" x1="610.26" y1="346.02" x2="610.26" y2="348.1"/>
          <line class="cls-6" x1="609.18" y1="346.02" x2="609.18" y2="347.06"/>
          <line class="cls-6" x1="608.38" y1="346.02" x2="608.38" y2="346.76"/>
          <line class="cls-6" x1="607.35" y1="346.02" x2="607.35" y2="347.83"/>
          <line class="cls-6" x1="606.33" y1="346.02" x2="606.33" y2="347.21"/>
          <line class="cls-6" x1="605.31" y1="346.02" x2="605.31" y2="347.83"/>
        </g>
        <rect class="cls-23" x="630.62" y="346.32" width="1.15" height="4.5"/>
      </g>
      <rect class="cls-16" x="555.88" y="349.04" width="10" height="7" rx="1.8" ry="1.8" transform="translate(1121.76 705.08) rotate(-180)"/>
      <rect class="cls-16" x="540.88" y="349.04" width="10" height="7" rx="1.8" ry="1.8" transform="translate(1091.76 705.08) rotate(-180)"/>
      <rect class="cls-16" x="525.88" y="349.04" width="10" height="7" rx="1.8" ry="1.8" transform="translate(1061.76 705.08) rotate(-180)"/>
      <path d="M597.1,340.72v25.7c0,.93-.42,1.69-.93,1.69h-.35c-.51,0-.93-.75-.93-1.69v-25.7c0-.93,.42-1.69,.93-1.69h.35c.51,0,.93,.75,.93,1.69Z"/>
      <rect class="cls-15" x="593.88" y="357.04" width="4.78" height="5.84" rx="1.05" ry="1.05"/>
      <line class="cls-9" x1="599.86" y1="286.07" x2="599.86" y2="329.76"/>
      <line class="cls-9" x1="583.52" y1="338.2" x2="583.52" y2="363.08"/>
      <line class="cls-9" x1="503.38" y1="283.54" x2="593.88" y2="283.54"/>
      <polyline class="cls-9" points="659.88 344.71 659.88 367.58 720.55 368.11 720.55 345.45"/>
      <g>
        <rect x="603.4" y="358.58" width="49.5" height="9" rx="2.65" ry="2.65" transform="translate(1256.31 726.16) rotate(-180)"/>
        <rect class="cls-2" x="604.69" y="359.87" width="46.93" height="4.5" rx="2.25" ry="2.25" transform="translate(1256.31 724.23) rotate(180)"/>
        <circle class="cls-17" cx="606.65" cy="365.97" r=".96"/>
        <circle class="cls-13" cx="609.44" cy="365.97" r=".96"/>
        <line class="cls-8" x1="651.62" y1="362.77" x2="604.69" y2="362.77"/>
        <g>
          <line class="cls-6" x1="650.33" y1="359.71" x2="650.33" y2="360.9"/>
          <line class="cls-6" x1="648.78" y1="359.71" x2="648.78" y2="361.18"/>
          <line class="cls-6" x1="646.88" y1="359.71" x2="646.88" y2="360.9"/>
          <line class="cls-6" x1="644.08" y1="359.71" x2="644.08" y2="360.9"/>
          <line class="cls-6" x1="642.25" y1="359.71" x2="642.25" y2="361.52"/>
          <line class="cls-6" x1="645.56" y1="359.71" x2="645.56" y2="361.52"/>
          <line class="cls-6" x1="640.7" y1="359.71" x2="640.7" y2="361.18"/>
          <line class="cls-6" x1="639.1" y1="359.71" x2="639.1" y2="360.9"/>
          <line class="cls-6" x1="637.65" y1="359.71" x2="637.65" y2="361.18"/>
          <line class="cls-6" x1="636.31" y1="359.71" x2="636.31" y2="360.62"/>
          <line class="cls-6" x1="634.85" y1="359.71" x2="634.85" y2="361.52"/>
          <line class="cls-6" x1="633.37" y1="359.71" x2="633.37" y2="360.62"/>
          <line class="cls-6" x1="632.08" y1="359.71" x2="632.08" y2="361.79"/>
          <line class="cls-6" x1="630.74" y1="359.71" x2="630.74" y2="360.75"/>
          <line class="cls-6" x1="629.74" y1="359.71" x2="629.74" y2="360.45"/>
          <line class="cls-6" x1="628.45" y1="359.71" x2="628.45" y2="361.52"/>
          <line class="cls-6" x1="627.18" y1="359.71" x2="627.18" y2="360.9"/>
          <line class="cls-6" x1="625.9" y1="359.71" x2="625.9" y2="361.52"/>
        </g>
        <g>
          <line class="cls-6" x1="624.92" y1="359.56" x2="624.92" y2="360.75"/>
          <line class="cls-6" x1="623.67" y1="359.56" x2="623.67" y2="361.03"/>
          <line class="cls-6" x1="622.15" y1="359.56" x2="622.15" y2="360.75"/>
          <line class="cls-6" x1="619.91" y1="359.56" x2="619.91" y2="360.75"/>
          <line class="cls-6" x1="618.44" y1="359.56" x2="618.44" y2="361.37"/>
          <line class="cls-6" x1="621.09" y1="359.56" x2="621.09" y2="361.37"/>
          <line class="cls-6" x1="617.2" y1="359.56" x2="617.2" y2="361.03"/>
          <line class="cls-6" x1="615.91" y1="359.56" x2="615.91" y2="360.75"/>
          <line class="cls-6" x1="614.75" y1="359.56" x2="614.75" y2="361.03"/>
          <line class="cls-6" x1="613.68" y1="359.56" x2="613.68" y2="360.47"/>
          <line class="cls-6" x1="612.51" y1="359.56" x2="612.51" y2="361.37"/>
          <line class="cls-6" x1="611.32" y1="359.56" x2="611.32" y2="360.47"/>
          <line class="cls-6" x1="610.28" y1="359.56" x2="610.28" y2="361.64"/>
          <line class="cls-6" x1="609.21" y1="359.56" x2="609.21" y2="360.6"/>
          <line class="cls-6" x1="608.41" y1="359.56" x2="608.41" y2="360.3"/>
          <line class="cls-6" x1="607.37" y1="359.56" x2="607.37" y2="361.37"/>
          <line class="cls-6" x1="606.35" y1="359.56" x2="606.35" y2="360.75"/>
          <line class="cls-6" x1="605.33" y1="359.56" x2="605.33" y2="361.37"/>
        </g>
        <rect class="cls-23" x="641.65" y="359.87" width="1.15" height="4.5"/>
      </g>
    </g>
  </g>
</svg>
