<svg id="Layer_13" data-name="Layer 13" xmlns="http://www.w3.org/2000/svg" xmlns:xlink="http://www.w3.org/1999/xlink" viewBox="0 0 977 844"><defs><style>.cls-1{fill:url(#New_Gradient_Swatch_3);}.cls-2{fill:#e7e9ff;}.cls-3{fill:url(#linear-gradient);}</style><linearGradient id="New_Gradient_Swatch_3" x1="905.5" y1="117" x2="905.5" y2="961" gradientUnits="userSpaceOnUse"><stop offset="0.14" stop-color="#8621fe"/><stop offset="0.22" stop-color="#7f22f7"/><stop offset="0.35" stop-color="#6b25e2"/><stop offset="0.5" stop-color="#4b2ac0"/><stop offset="0.67" stop-color="#1f3192"/><stop offset="0.75" stop-color="#08357a"/></linearGradient><linearGradient id="linear-gradient" x1="946.95" y1="378.26" x2="946.95" y2="936.66" gradientUnits="userSpaceOnUse"><stop offset="0" stop-color="#8621fe"/><stop offset="0.17" stop-color="#6027d7"/><stop offset="0.37" stop-color="#3a2daf"/><stop offset="0.56" stop-color="#1f3192"/><stop offset="0.72" stop-color="#0e3480"/><stop offset="0.84" stop-color="#08357a"/></linearGradient></defs><path class="cls-1" d="M902.49,366.62C841.81,202.12,673.28,128.29,556,174.14,405.61,233,383.42,471.68,459.8,578.34c48.77,68.11,120,57.66,240.59,115.49C844.57,763,938.81,872,998.73,961c22.82-95,69.17-217.61,173.23-315.29,94-88.3,165.74-91,202.1-173.23,48-108.73,10.38-302.31-125.11-346.45-89.06-29-199.18,13.42-269.47,105.86" transform="translate(-417 -117)"/><path class="cls-2" d="M908.52,421.12C834.44,234.28,651.76,167,552.44,219c-109.82,57.5-128.53,266.47-50.3,359.49,46.83,55.68,106.1,43.3,204.28,83.21,82.66,33.59,189.17,102.74,288.71,259.84,36.93-148.5,101.59-232.46,154.27-281.82,88.68-83.1,185.9-108,211.44-209,13.79-54.59,2.27-114,0-125.11-7-34-15-73.27-48.12-105.86,0,0-26.89-26.47-67.37-38.5-73.24-21.76-170.52,21.19-250.22,105.86" transform="translate(-417 -117)"/><path class="cls-3" d="M913.18,512.13,858,590.61l52.74,47.72-46.09,74.38,94.21,60.35-19.25,38.5q28.88,62.55,57.74,125.1-9.61-52.92-19.24-105.86l57.74-57.74-48.12-67.37,48.12-77-91.7-60,57.3-78.75A956.15,956.15,0,0,1,930,417c-19.36-22.06-34.17-41.05-38.5-38.49-3.95,2.33,3.12,21.29,9.63,38.49a513.42,513.42,0,0,0,30.19,65.58Z" transform="translate(-417 -117)"/></svg>