<svg id="Layer_1" data-name="Layer 1" xmlns="http://www.w3.org/2000/svg" viewBox="0 0 1625.02 597.62"><defs><style>.cls-1{fill:#fff;stroke:#000;}.cls-1,.cls-2,.cls-3{stroke-miterlimit:10;}.cls-2,.cls-3{fill:none;}.cls-2{stroke:#51356b;stroke-width:6px;}.cls-3{stroke:#46256b;stroke-width:19px;}</style></defs><path class="cls-1" d="M1705.5,640.5" transform="translate(-152.97 -485.76)"/><path d="M770.69,504c28.74,0,57.49,0,86.23,0,10,0,20-.5,29.89.56a57.23,57.23,0,0,0,6,0q77.2,0,154.41-.06c10.68,0,21.36.37,32,.27,32.37-.32,64.75-.77,97.14-.6,7,0,14,.08,21,0,23-.35,46,1,69,1,8.73,0,14,2,16.94,5.9a196.18,196.18,0,0,0,14.52,17.28c5.43,5.65,10.13,11.42,15,17.17a68.38,68.38,0,0,0,6.86,7.71,56.88,56.88,0,0,1,7.5,8.58c2.87,3.79,5.45,7.64,8.81,11.33,7.66,8.39,13.86,17.06,21.75,25.4,7.1,7.5,12.55,15.32,19.82,22.75s13,15.22,19.85,22.74c7.29,7.95,14.24,16,21.67,23.9,10.63,11.33,19.45,23,29.92,34.35,2,2.13,3.57,4.33,5.42,6.48a231.91,231.91,0,0,0,16.74,17.79,16.74,16.74,0,0,1,1.26,1.27c8.27,9.6,16.31,19.25,24.9,28.79,3.58,4,8.09,7.78,11.25,11.86,2.15,2.76,4.36,5.52,6.74,8.24,5.75,6.58,12.05,13.06,17.5,19.7,8.17,10,16.07,20,25.37,29.72,6.48,6.78,12,13.74,18.58,20.5,8.24,8.42,14.63,17.23,22.48,25.74,7.33,7.95,14.3,16,20.65,24.1,6.23,4.81,9.72,10.17,13.86,15.38,7.84,9.85,17.62,19.34,25.11,29.26a12.9,12.9,0,0,0,5.42,4.85c1.54.71,2.12,1.89,3,2.89,3.39,4,6.41,8.14,10.14,12.1,7.73,8.2,14.13,16.67,21.81,24.87,7.31,7.8,13.34,15.83,20.59,23.62,3.82,4.12,7.87,8.18,11.13,12.41,1.69,2.17,3.18,4.39,5.1,6.53,2.3,2.54,4.21,5.13,7.61,7.5,2.9,2,4.26,4.51,6.11,6.83a200.15,200.15,0,0,0,15.24,17.62c4.63,4.62,8.14,9.48,12.13,14.23a4.26,4.26,0,0,1,.56.89c1,1.95-.56,3.41-4.52,4.07a42.13,42.13,0,0,1-6.76.75c-6.31,0-12.65.47-18.93-.33a49,49,0,0,0-6-.15c-23.4,0-46.81-.17-70.19.11-28.06.33-56.14.51-84.17.13-22.68-.31-45.35-.36-68-.42-4.67,0-9.43-.25-14,0-15.28,1-30.62.5-45.93.6-15,.1-30.08.07-45.12,0-5,0-10,.31-14.88-.54a39.31,39.31,0,0,0-6-.06l-147.4.15c-2.66,0-5.32.12-8,.17a56.28,56.28,0,0,1-7,.06c-7.94-.87-16-.49-23.94-.49q-52.14,0-104.28.11c-7.29,0-14.57.47-21.86.58s-14.81.39-22,0c-14-.82-28-.36-42-.43-13.69-.08-27.4-.16-41.08.06-29.06.48-58.17.68-87.17.19-29.38-.49-58.71-.27-88.06-.35s-58.83.06-88.24.06c-7.33,0-14.68-.39-22-.26-49.42.86-98.85.54-148.28.66a96.87,96.87,0,0,1-11.92-.43,78.45,78.45,0,0,0-9-.15q-75.69,0-151.4.1c-24.38,0-48.76-.24-73.14-.22-25.39,0-50.77.23-76.15.38-8.67.06-17.35.3-26,.25-10-.07-19.94-.38-29.9-.59a26.4,26.4,0,0,1-3-.16c-7.11-1-10.85-2.57-6.92-6.13,6.55-5.94,10.05-12.44,16.64-18.36,2.44-2.19,4-4.58,6-6.88,2.21-2.57,3.65-5.28,7.35-7.57a6.17,6.17,0,0,0,2.46-3c1.62-3.82,5.07-7.32,8.54-10.83,1.93-2,3.18-4.07,4.87-6.08,5.94-7,12.57-14,18.52-21,3.75-4.45,7.24-9,11.7-13.27,6.83-6.56,10.81-13.64,18.26-20.06a26.17,26.17,0,0,0,2.89-3.45c3.09-3.58,5.81-7.21,9.48-10.7,3-2.87,5.68-5.88,6.88-9.14.71-1.93,3-3.75,4.69-5.6.78-.85,2.19-1.6,2.74-2.47,4.89-7.73,13.53-14.79,18.61-22.49,1.45-2.19,3.94-4.24,5.91-6.36.92-1,1.78-2,2.64-3,6.82-7.87,13.31-15.81,20.56-23.6,4.1-4.4,7.52-8.92,11.71-13.29,5.43-5.65,10.15-11.42,15-17.17,2.56-3,5-6,7.65-9,5.36-6.15,10.58-12.33,16.24-18.42,9.35-10.08,18-20.27,26.36-30.53,7.2-5.78,9.87-12.46,17-18.27a16.25,16.25,0,0,0,2.11-2.6c6.66-7.74,12.93-15.57,20.14-23.2,4.55-4.82,8.62-9.71,12.77-14.6.61-.71,1.53-1.36,2.18-2.07,2.18-2.4,4.68-4.7,5.87-7.32a25.84,25.84,0,0,1,6.18-7.82c3.34-3.05,5.66-6.26,8.41-9.4,5.5-6.29,11.05-12.56,16.34-18.88q6.48-7.77,13.51-15.45c2.87-3.12,6.39-6.14,8.5-9.38C517,656.07,522.67,650.67,527,645c1.64-2.15,3-4.44,6.2-6.3a5,5,0,0,0,1.3-1.24c6.2-7.17,12-14.41,18.7-21.48s11.5-14.16,19-20.89a18.39,18.39,0,0,0,1.76-2.17c5.95-7,11.89-14.1,17.89-21.14a64.75,64.75,0,0,1,6.3-6.81c2.13-1.89,3.26-4,4.73-6.08,2.1-2.93,3.64-5.95,7.19-8.63a12.52,12.52,0,0,0,2.08-2.11c6.68-7.73,13.07-15.52,20.09-23.19q7.39-8.1,14.31-16.27c2-2.32,5.61-3.79,11.06-4.19,1.64-.11,3.26-.39,4.9-.4,14.35-.15,28.72-.51,43-.3,11.69.18,23.37.13,35.05.19,10,.06,20,0,30.08,0Z" transform="translate(-152.97 -485.76)"/><path class="cls-2" d="M591.84,583.41c63.65-23.12,193.56-62.68,366.17-62.3,181.11.4,315.79,44.56,379,68.95" transform="translate(-152.97 -485.76)"/><path class="cls-2" d="M530,661.5c62.67-27.27,216.11-85.8,428-85.57,219.39.25,376.75,63.39,438.46,91.38" transform="translate(-152.97 -485.76)"/><path class="cls-2" d="M467.61,734.41c85.92-31,260.58-83.81,492.73-83.71,230.74.09,404.45,52.41,490.34,83.31" transform="translate(-152.97 -485.76)"/><path class="cls-2" d="M372.61,839.26c90.81-36.63,301.35-110.12,587.73-108,287,2.14,495.74,79.09,585.39,117.13" transform="translate(-152.97 -485.76)"/><path class="cls-2" d="M406.43,940.61c73.09-36,270.75-123.26,551.58-126.27,302.48-3.24,515.36,93.22,586.56,128.76" transform="translate(-152.97 -485.76)"/><path class="cls-3" d="M957.42,485.93l7.08,587.57" transform="translate(-152.97 -485.76)"/><path class="cls-3" d="M810.49,491.57,618.64,1080.44" transform="translate(-152.97 -485.76)"/><path class="cls-3" d="M1109,489q105.81,291,211.61,582.07" transform="translate(-152.97 -485.76)"/></svg>