<svg xmlns="http://www.w3.org/2000/svg" viewBox="0 0 1288.87 560.6"><defs><style>.cls-1{fill:#fff;stroke:#000;stroke-miterlimit:10;}.cls-2{fill:#9399b1;}.cls-3{fill:#454756;}.cls-4{fill:#404250;}.cls-5{fill:#e6b812;}.cls-6{fill:#5cd01b;}.cls-7{fill:#ff2a09;}</style></defs><g id="Layer_1" data-name="Layer 1"><path class="cls-1" d="M1705.5,640.5" transform="translate(-318.8 -346.78)"/><path class="cls-2" d="M1051,415c27.57-.35,67.73-.26,119.23,2,5.23-5.84,13.62-15.28,23.85-27,32.12-36.8,35.83-42.75,43.54-43,13.9-.45,21.92,19.61,48.73,61,13.31,20.54,28.85,39.68,42.51,60,29.31,43.59,70.44,103.17,94.66,136.64,63.09,87.17,120.28,178.17,180.66,267.1,3.88,5.72,5,11,1,16.75-3,4.27-4.67,8.76-7.06,13.13-1.52,2.79-3.66,5.39-10.53,5.73-5.55.27-9.59-1.34-12.59-5.28-12.27-16.13-24.42-32.29-36.6-48.45l-210-278.53c-13.91-18.44-27.76-36.89-41.78-55.3-4.58-6-1.79-5.47-16.38-5.46q-225.79.12-451.59.29-80.86.07-161.73.28c-11.95,0-10.56-.36-15,5.14Q545.57,640,449.2,759.85,398.08,823.45,346.84,887a24.82,24.82,0,0,1-3.45,3.81c-2.32,2-5.83,3-10.54,2.67s-7.74-1.78-8.67-4c-1.59-3.75-2.27-7.6-4-11.33-2.85-6.16-1-11.87,3.14-17.84Q436.78,697.49,549.84,534.58c41.58-59.86,49-70.53,49-70.53,6.67-9.64,11.41-16.43,12.73-18.31,3-4.27,7.42-10.87,13.31-20.74a87.13,87.13,0,0,0,7.25-12c1.22-2.43,2.24-4.77,3.11-7,1-1.37,2.51-3.53,4.25-6.24,4.68-7.31,7.3-13.23,8.2-14.76C661,362.27,665,348.89,673.6,347c7.81-1.71,14.84,5.88,46.66,40l28,30h39.4c49.36-.81,79.56-1,98.32-1,4.62,0,17.45,0,34,0,12.33,0,24.66.07,43.68,0C1001.65,415.8,1031.61,415.25,1051,415Z" transform="translate(-318.8 -346.78)"/><path class="cls-3" d="M1280.12,506a26.93,26.93,0,0,1,1.44,3,15.27,15.27,0,0,1,.64,2.69c-.32.91-.64,1.82-1,2.73-2.32,1.91-6.29,1.15-9.56,1.16q-54.37.2-108.74.25-203.07.14-406.16.2-51.18,0-102.34.1c-2.84,0-5.71.06-8.52-.1-3.76-.22-6-1.37-5.07-3.11,1.55-3,1.44-6.28,6.65-8.67,1.42,0,2.83.08,4.25.08h615.38c3.81,0,6-.75,10.59-.3a2.55,2.55,0,0,1,1.14.35A3.36,3.36,0,0,1,1280.12,506Z" transform="translate(-318.8 -346.78)"/><path class="cls-3" d="M1279.09,504.21c-3.54.13-7.08.36-10.62.36q-308.31,0-616.62,0c-1.42,0-2.84-.06-4.26-.09,3.83-2.14,8.72-1.17,13.1-1.17q154.72-.09,309.44,0,148.32,0,296.64,0C1270.87,503.33,1275.33,502.51,1279.09,504.21Z" transform="translate(-318.8 -346.78)"/><path class="cls-4" d="M1266.71,515.07l8.59-11.17c1.38.34,3.58.51,4,1.05,15.88,20.35,31.74,40.7,47.28,61.11Q1447,724.19,1567.14,882.38c2.17,2.87,2.36,6.14,3.47,9.22-3.16-2.59-7.15-5-9.37-7.79Q1424,712,1287,540.07c-5.67-7.11-11.73-14.13-17.57-21.2C1268.52,517.82,1267.86,516.71,1266.71,515.07Z" transform="translate(-318.8 -346.78)"/><path class="cls-4" d="M659.28,517.12c-.88,1.22-1.55,2.3-2.43,3.34q-94.3,111.15-188.63,222.31c-34.64,40.85-69.11,81.74-103.79,122.59-1.22,1.43-3.91,2.55-5.92,3.81.11-1.78-.77-3.76.46-5.31Q406,805,453.49,746.22,549.43,627,645.39,507.82a38.46,38.46,0,0,1,3.5-3.31c1.13,1.16,2.4,2.29,3.35,3.48C654.66,511,657,514.08,659.28,517.12Z" transform="translate(-318.8 -346.78)"/></g><g id="Layer_3" data-name="Layer 3"><path class="cls-5" d="M1081,469.85c2-1.08,3.77-2.44,5.94-3.12a8,8,0,0,1,4.66.54c.41.17.06,2.12-.55,3-1.16,1.72-5,3.09-2.58,5.22,1.72,1.52,5,2.5,7.78,2.7,8.25.58,15.07-1.69,19.64-7.27,4.14-5.06,2.94-9.12-3.91-11.86a65.36,65.36,0,0,0-9.08-2.42c-2.13-.5-4.42-.64-6.45-1.29-3.91-1.27-5.07-3.26-4.22-6.41,2.26-8.3,14.93-16.83,25.93-17.36,4.33-.2,8.61.14,11.06,3.4s1.07,6.31-1,9.24a7,7,0,0,1-3,2.42,6.47,6.47,0,0,1-4.09.24c-.8-.38-1.13-2-.85-2.93.58-1.85,2.24-4.19-.52-5.08a15.45,15.45,0,0,0-8.35.28c-4.16,1.27-7.61,3.53-9.49,6.89-1.11,2-.47,3.34,2.34,3.86,2.65.49,5.36.78,8,1.36,15.32,3.39,19.31,12.23,10.17,22.38-7.65,8.49-18.31,12.16-31.45,10.82-10.66-1.08-13.31-4.35-11.5-12.37.06-.29-.35-.64-.91-1.58-1.44,1.12-2.81,2-3.91,3.05-8.4,8.1-19.45,12.83-32.43,15.06-7.78,1.33-10.25-.46-8.88-6.44q4.94-21.4,10.09-42.77c1-4.24,2.52-5.29,8.06-4.48a72.5,72.5,0,0,1,15.51,3.64c12.91,5,18.09,14.87,14.14,25.53-.64,1.74-1.37,3.45-2.05,5.18Zm-39.55,12.69c13.25-2.82,23.28-7.41,29.45-15.83,10.38-14.16-4.64-25.47-19.78-24.94C1048,455,1044.85,468.36,1041.49,482.54Z" transform="translate(-318.8 -346.78)"/><path class="cls-5" d="M877.51,440.78l-20.38-1a18.16,18.16,0,0,1-2.49,4,12.79,12.79,0,0,1-4.8,3.28c-2.12.75-3.9,0-3.77-2.16a3,3,0,0,1,.34-1.11c.94-1.81,2.16-4.11-.61-5.06a12.67,12.67,0,0,0-7.66.21,29.05,29.05,0,0,0-9,5.72c-3.13,3-2,4.5,2.84,5.5,4,.83,8.26,1.46,12,2.82,8.49,3.09,11.13,8.31,8.31,15.15-4.34,10.49-20.44,18.25-34.53,16.41a33.58,33.58,0,0,1-9-2.52c-4.32-1.9-5.74-4.88-3.46-8.27,1.75-2.61,4.59-4.87,7.39-6.93.83-.62,3.16,0,4.8,0a11.43,11.43,0,0,1-.43,3.57c-.74,1.69-3.22,4.34-2.72,4.69a17.78,17.78,0,0,0,7.54,3.05c8.55,1.11,17.23-2.53,21-8.35,2.83-4.36,1.81-7.85-3.68-10.22-3.17-1.38-6.85-2.07-10.36-3-2.1-.54-4.41-.67-6.42-1.34-3.25-1.09-4.91-3-4.24-5.92,2-8.77,16.24-18.25,27.72-17.71,3.9.18,7.67,2,12,3.2,3-.24,6.85-.78,10.69-.79,13.13,0,26.26.11,39.39.2a24.83,24.83,0,0,1,5.89.27c1.36.36,3.12,1.62,3.19,2.54s-1.35,2.42-2.63,3a13.71,13.71,0,0,1-5,.54c-5.7,0-11.42.11-17.09-.21-4.28-.24-6.15,1.1-7.39,4.12-4.64,11.25-9.53,22.44-14.4,33.64a12.35,12.35,0,0,1-2.83,4.56,6,6,0,0,1-4.49.87c-1.06-.37-1.86-2.11-1.82-3.22.06-1.47,1-2.92,1.64-4.37,4.26-9.94,8.55-19.88,12.78-29.84C876.5,444.59,876.85,442.94,877.51,440.78Z" transform="translate(-318.8 -346.78)"/><path class="cls-5" d="M928.85,448.62c-5.63.22-11.27.63-16.91.62-11.35,0-11.36-.11-14.81,8.11-.36.87-.59,1.77-1.11,3.37,4.85.37,9.19.67,13.52,1,2,.17,4.59.38,3.87,2.43-.36,1-2.81,2.13-4.39,2.21-3.69.19-7.42-.39-11.13-.34-1.79,0-4.52.34-5.17,1.24-2.2,3.08-4.23,6.35-4.45,10.89,7.35,0,14.21-.07,21.07,0,2.71,0,7-.81,6.89,2.43-.07,2.65-4,2.22-6.68,2.22-8.43,0-16.87,0-25.3-.08-6.8-.07-7.67-1-5.43-5.68,4.5-9.49,9.17-18.94,13.68-28.43,1.41-3,3.56-4.92,8.08-4.76,8.18.29,16.37.4,24.54.76,2.1.09,4.15.84,6.94,1.43.86-2.67,1.74-5.17,2.47-7.71,2.1-7.28,2.58-7.66,12.45-7a51.85,51.85,0,0,1,10.85,1.75c13.77,4,17.4,15.11,7.59,23.58-3.22,2.78-7.49,4.85-11.62,7.47,1,1.23,2.23,2.61,3.34,4,3.31,4.3,4.41,8.93,2.71,13.75a8.46,8.46,0,0,1-3.53,4.08c-2.07,1.24-4.6.14-4.72-1.9-.11-1.89.42-3.81.3-5.7-.44-6.65-6.6-11.38-16.21-12.15-1.32,4.54-2.63,9.14-4,13.73-.44,1.48-.54,3.26-1.7,4.31a8.54,8.54,0,0,1-5.36,2.13c-3.08-.21-2.46-2.37-2-4.08,2.43-9,4.91-17.91,7.29-26.88a56.66,56.66,0,0,0,.93-5.64c0-.59.08-1.19.13-1.79Zm14.26-10.51c-2,7.15-3.85,14.08-5.77,21.1,9.85.67,17.11-1.2,21.92-5.33,5.2-4.46,4.52-9.88-1.84-13.31A22.43,22.43,0,0,0,943.11,438.11Z" transform="translate(-318.8 -346.78)"/><path class="cls-5" d="M793,466.69c-6.94.61-12.32.89-17.58,1.66-1.67.24-3.21,1.64-4.49,2.74-5.3,4.53-10.47,9.14-15.71,13.72-1,.86-2,1.72-3,2.51-1.75,1.31-4.06,2.19-5.74.49-.82-.83-.58-3.07.34-4,4.24-4.21,8.83-8.21,13.39-12.23q22.47-19.8,45-39.53c2-1.77,3.83-4.72,7.71-3.24,4.32,1.65,1.25,4.44.49,6.55C808.1,450.23,802.53,465,797,479.86c-.55,1.45-1,3.12-2.28,4.14a8.26,8.26,0,0,1-5,1.33c-.68,0-1.84-2.21-1.61-3.26a91.69,91.69,0,0,1,3-8.84C791.69,471.43,792.17,469.61,793,466.69Zm-10.39-6.15c13.2.41,13.28.37,16.32-7.9.86-2.35,1.76-4.69,2.64-7l-1.26-.59Z" transform="translate(-318.8 -346.78)"/><path class="cls-5" d="M969.19,468.7a32.54,32.54,0,0,1,8.87-21.56,37.37,37.37,0,0,1,9.79-7.64c9.22-4.88,19.12-2.69,24.21,5,3.75,5.65,4,11.67,2.87,17.81a33,33,0,0,1-10.52,19.17,35.76,35.76,0,0,1-10.18,6.42c-7.54,3.11-15.18,1.31-20.12-4.1C970.09,479.37,969.18,474.34,969.19,468.7Zm38.07-12.91a21,21,0,0,0-.72-4.83c-1.08-3.14-2.34-6.45-7.19-7.35-4.68-.87-8.18,1.06-11.06,3.57-8.12,7.08-11.42,15.49-10.85,24.8a15.51,15.51,0,0,0,1.85,6.09c2.74,5.21,8.48,6.43,14.3,3a25.41,25.41,0,0,0,6-5A29.56,29.56,0,0,0,1007.26,455.79Z" transform="translate(-318.8 -346.78)"/><path class="cls-5" d="M1035.72,440.78c-.54,2-.85,3.08-1.16,4.2q-5.38,19.78-10.79,39.57c-.4,1.47-.65,3.12-1.71,4.29a5.75,5.75,0,0,1-4.17,1.46,4.75,4.75,0,0,1-2.85-2.8c-.39-1,.23-2.23.53-3.34q5.53-20.64,11.11-41.27c.25-.93.29-2.08,1-2.69,1.2-1,3.18-2.44,4.33-2.21C1033.65,438.31,1034.78,440,1035.72,440.78Z" transform="translate(-318.8 -346.78)"/><path class="cls-6" d="M1156.43,485c-5-.07-8.14-1.59-10.31-4.07a3.79,3.79,0,0,1,0-5.28c3.55-4.27,12-3.82,16-1.18,3,1.95,3.6,4.59,2,6.87C1162.36,484,1159.11,484.84,1156.43,485Z" transform="translate(-318.8 -346.78)"/><path class="cls-7" d="M1153.21,463.38c-4.82-.05-9.65-3.6-9.66-7.1s4.37-6.44,9.78-6.29,10.78,3.61,10.33,7.24C1163.17,461.21,1158.33,463.87,1153.21,463.38Z" transform="translate(-318.8 -346.78)"/></g></svg>