<svg id="Layer_7" data-name="Layer 7" xmlns="http://www.w3.org/2000/svg" viewBox="0 0 224.57 156.2"><defs><style>.cls-1{fill:#9d4bfe;stroke:#9d4bfe;}.cls-1,.cls-2,.cls-3,.cls-4,.cls-6{stroke-miterlimit:10;}.cls-2{fill:#bc85fe;stroke:#bc85fe;}.cls-3,.cls-5{fill:#a356fe;}.cls-3,.cls-4,.cls-6{stroke:#a356fe;}.cls-4,.cls-6{fill:none;}.cls-4{stroke-width:3px;}</style></defs><path class="cls-1" d="M1361.11,1044.85c26.65,21.39,63.12,21.94,84.69,22.26s71.87,1.09,98.47-26.72c18.58-19.44,15.63-42.34,14.41-49-3.83-20.79-18.7-34.33-24.72-39.27a58.58,58.58,0,0,0,.31-18c-1.1-7.88-2.6-18.68-8.67-19.87s-10.57,8.59-26.94,16.5a84.41,84.41,0,0,1-22.77,7,185.94,185.94,0,0,0-79.19-.15,134.66,134.66,0,0,1-19.29-7.31c-17.42-8.2-23.38-15.88-28.24-14.29s-4,11.34-3.19,20.13a78.6,78.6,0,0,0,5.14,21.33c-4.75,5.64-15.6,20.22-15.06,40.26C1336.18,1001.91,1337.3,1025.74,1361.11,1044.85Z" transform="translate(-1335.54 -911.5)"/><path class="cls-2" d="M1363.78,1038.58c25.83,20.72,61.16,21.25,82.06,21.57s69.63,1,95.4-25.9c18-18.82,15.15-41,14-47.46-3.7-20.14-18.11-33.26-24-38a55.9,55.9,0,0,0,.3-17.38c-1.06-7.64-2.51-18.11-8.4-19.26s-10.24,8.32-26.1,16a81.55,81.55,0,0,1-22.06,6.82,179.8,179.8,0,0,0-76.72-.14,132,132,0,0,1-18.69-7.09c-16.88-7.95-22.65-15.38-27.36-13.85s-3.91,11-3.1,19.51a76.64,76.64,0,0,0,5,20.67c-4.59,5.46-15.11,19.59-14.58,39C1339.63,997,1340.71,1020.07,1363.78,1038.58Z" transform="translate(-1335.54 -911.5)"/><ellipse class="cls-3" cx="1494.05" cy="975.55" rx="6.05" ry="7" transform="translate(-880.92 1514.38) rotate(-87.51)"/><ellipse class="cls-3" cx="1399.01" cy="974.66" rx="6.05" ry="7" transform="translate(-970.95 1418.58) rotate(-87.51)"/><path class="cls-4" d="M1473.89,996.53c.15,7.74-2,14.68-5.94,16.07-4.88,1.73-13.88-4.61-18.51-17.86.65,14-8.53,23-15.19,22.41-5.4-.45-11-7.34-12.3-16.66" transform="translate(-1335.54 -911.5)"/><ellipse class="cls-5" cx="1448.5" cy="988.31" rx="4.54" ry="7" transform="translate(-934.96 1482.79) rotate(-87.61)"/><ellipse class="cls-6" cx="1448.5" cy="988.31" rx="4.54" ry="7" transform="translate(-934.96 1482.79) rotate(-87.61)"/></svg>