<svg id="Layer_7" data-name="Layer 7" xmlns="http://www.w3.org/2000/svg" viewBox="0 0 224.67 156.58"><defs><style>.cls-1{fill:#9d4bfe;stroke:#9d4bfe;}.cls-1,.cls-2,.cls-3,.cls-4,.cls-6{stroke-miterlimit:10;}.cls-2{fill:#bc85fe;stroke:#bc85fe;}.cls-3,.cls-5{fill:#a356fe;}.cls-3,.cls-4,.cls-6{stroke:#a356fe;}.cls-4,.cls-6{fill:none;}.cls-4{stroke-width:3px;}</style></defs><path class="cls-1" d="M863.51,1052.13c-27.15,20.55-63.62,20.22-85.2,20s-71.87-.66-97.79-28.86c-18.12-19.7-14.62-42.33-13.24-48.89,4.33-20.51,19.52-33.56,25.66-38.31a57.42,57.42,0,0,1,.11-17.79c1.29-7.79,3.05-18.45,9.15-19.48s10.36,8.77,26.53,17a85.2,85.2,0,0,0,22.6,7.53,187.24,187.24,0,0,1,79.16,1.76A135.53,135.53,0,0,0,850,938.33c17.6-7.71,23.75-15.17,28.57-13.48s3.76,11.34,2.71,20a77.62,77.62,0,0,1-5.65,21c4.61,5.7,15.11,20.41,14.09,40.25C889.47,1010.19,887.77,1033.78,863.51,1052.13Z" transform="translate(-665.57 -916.11)"/><path class="cls-2" d="M861,1045.86c-26.31,19.91-61.65,19.58-82.55,19.39s-69.64-.64-94.76-28c-17.54-19.09-14.16-41-12.82-47.37,4.19-19.87,18.91-32.51,24.86-37.12a55.39,55.39,0,0,1,.11-17.23c1.25-7.55,2.95-17.88,8.86-18.88s10,8.49,25.71,16.47a82.47,82.47,0,0,0,21.89,7.3,181.43,181.43,0,0,1,76.71,1.7,131.92,131.92,0,0,0,18.86-6.57c17-7.46,23-14.69,27.68-13.05s3.64,11,2.63,19.39a75,75,0,0,1-5.48,20.36c4.47,5.53,14.64,19.78,13.65,39C886.14,1005.22,884.5,1028.07,861,1045.86Z" transform="translate(-665.57 -916.11)"/><ellipse class="cls-3" cx="732.27" cy="980.26" rx="7" ry="6" transform="translate(-681.85 -903.74) rotate(-0.96)"/><ellipse class="cls-3" cx="827.3" cy="981.67" rx="7" ry="6" transform="translate(-681.86 -902.15) rotate(-0.96)"/><path class="cls-4" d="M751.92,1001.54c-.34,7.66,1.66,14.59,5.56,16.07,4.83,1.82,14-4.24,18.93-17.25-1,13.81,8,23,14.65,22.57,5.4-.32,11.17-7,12.69-16.22" transform="translate(-665.57 -916.11)"/><ellipse class="cls-5" cx="777.5" cy="994" rx="7" ry="4.5" transform="translate(-682.07 -902.98) rotate(-0.96)"/><ellipse class="cls-6" cx="777.5" cy="994" rx="7" ry="4.5" transform="translate(-682.07 -902.98) rotate(-0.96)"/></svg>