<svg id="Layer_7" data-name="Layer 7" xmlns="http://www.w3.org/2000/svg" viewBox="0 0 224.71 157.94"><defs><style>.cls-1{fill:#9d4bfe;stroke:#9d4bfe;}.cls-1,.cls-2,.cls-3,.cls-4,.cls-6{stroke-miterlimit:10;}.cls-2{fill:#bc85fe;stroke:#bc85fe;}.cls-3,.cls-5{fill:#a356fe;}.cls-3,.cls-4,.cls-6{stroke:#a356fe;}.cls-4,.cls-6{fill:none;}.cls-4{stroke-width:3px;}</style></defs><path class="cls-1" d="M601.53,1050.56c-27.5,20.09-64,19.15-85.53,18.59s-71.85-1.87-97.3-30.49c-17.78-20-13.9-42.57-12.41-49.1,4.67-20.44,20.07-33.23,26.29-37.88A57.29,57.29,0,0,1,433,933.9c1.42-7.77,3.35-18.4,9.47-19.34s10.22,9,26.25,17.45a85,85,0,0,0,22.47,7.9A187.43,187.43,0,0,1,570.3,943a135.76,135.76,0,0,0,19.58-6.46c17.73-7.41,24-14.76,28.79-13s3.57,11.39,2.38,20.06a77.73,77.73,0,0,1-6,20.92c4.52,5.78,14.77,20.66,13.42,40.48C628.18,1009.06,626.09,1032.61,601.53,1050.56Z" transform="translate(-404.37 -911.92)"/><path class="cls-2" d="M599.11,1044.24c-26.64,19.47-62,18.55-82.87,18s-69.61-1.8-94.27-29.54c-17.23-19.38-13.47-41.24-12-47.57,4.52-19.8,19.44-32.2,25.47-36.7a55.27,55.27,0,0,1,.4-17.23c1.37-7.53,3.24-17.83,9.17-18.73s9.9,8.66,25.43,16.9A82.78,82.78,0,0,0,492.19,937a181.56,181.56,0,0,1,76.66,3,131.59,131.59,0,0,0,19-6.26c17.18-7.18,23.25-14.3,27.9-12.59s3.46,11,2.3,19.44a75.28,75.28,0,0,1-5.82,20.27c4.38,5.6,14.31,20,13,39.22C624.93,1004,622.91,1026.85,599.11,1044.24Z" transform="translate(-404.37 -911.92)"/><ellipse class="cls-3" cx="67.13" cy="64.58" rx="7" ry="6"/><ellipse class="cls-3" cx="162.13" cy="67.58" rx="7" ry="6"/><path class="cls-4" d="M490.8,998.11c-.47,7.65,1.41,14.61,5.28,16.15,4.81,1.91,14.06-4,19.22-16.93-1.21,13.79,7.59,23.09,14.27,22.82,5.41-.23,11.29-6.83,13-16" transform="translate(-404.37 -911.92)"/><ellipse class="cls-5" cx="112.13" cy="79.08" rx="7" ry="4.5"/><ellipse class="cls-6" cx="112.13" cy="79.08" rx="7" ry="4.5"/></svg>