<svg id="Layer_7" data-name="Layer 7" xmlns="http://www.w3.org/2000/svg" viewBox="0 0 224.71 157.94"><defs><style>.cls-1{fill:#9d4bfe;stroke:#9d4bfe;}.cls-1,.cls-2,.cls-3,.cls-4,.cls-6{stroke-miterlimit:10;}.cls-2{fill:#bc85fe;stroke:#bc85fe;}.cls-3,.cls-5{fill:#a356fe;}.cls-3,.cls-4,.cls-6{stroke:#a356fe;}.cls-4,.cls-6{fill:none;}.cls-4{stroke-width:3px;}</style></defs><path class="cls-1" d="M1061.47,1052.56c27.5,20.09,64,19.15,85.53,18.59s71.85-1.87,97.3-30.49c17.78-20,13.9-42.57,12.41-49.1-4.67-20.44-20.07-33.23-26.29-37.88a57.29,57.29,0,0,0-.41-17.78c-1.42-7.77-3.35-18.4-9.47-19.34s-10.22,9-26.25,17.45a85,85,0,0,1-22.47,7.9A187.43,187.43,0,0,0,1092.7,945a135.76,135.76,0,0,1-19.58-6.46c-17.73-7.41-24-14.76-28.79-13s-3.57,11.39-2.38,20.06a77.73,77.73,0,0,0,6,20.92c-4.52,5.78-14.77,20.66-13.42,40.48C1034.82,1011.06,1036.91,1034.61,1061.47,1052.56Z" transform="translate(-1033.92 -913.92)"/><path class="cls-2" d="M1063.89,1046.24c26.64,19.47,62,18.55,82.87,18s69.61-1.8,94.27-29.54c17.23-19.38,13.47-41.24,12-47.57-4.52-19.8-19.44-32.2-25.47-36.7a55.27,55.27,0,0,0-.4-17.23c-1.37-7.53-3.24-17.83-9.17-18.73s-9.9,8.66-25.43,16.9a82.78,82.78,0,0,1-21.77,7.66,181.56,181.56,0,0,0-76.66,3,131.59,131.59,0,0,1-19-6.26c-17.18-7.18-23.25-14.3-27.9-12.59s-3.46,11-2.3,19.44a75.28,75.28,0,0,0,5.82,20.27c-4.38,5.6-14.31,20-13,39.22C1038.07,1006,1040.09,1028.85,1063.89,1046.24Z" transform="translate(-1033.92 -913.92)"/><ellipse class="cls-3" cx="157.58" cy="64.58" rx="7" ry="6"/><ellipse class="cls-3" cx="62.58" cy="67.58" rx="7" ry="6"/><path class="cls-4" d="M1172.2,1000.11c.47,7.65-1.41,14.61-5.28,16.15-4.81,1.91-14.06-4-19.22-16.93,1.21,13.79-7.59,23.09-14.27,22.82-5.41-.23-11.29-6.83-13-16" transform="translate(-1033.92 -913.92)"/><ellipse class="cls-5" cx="112.58" cy="79.08" rx="7" ry="4.5"/><ellipse class="cls-6" cx="112.58" cy="79.08" rx="7" ry="4.5"/></svg>