<svg id="Layer_5" data-name="Layer 5" xmlns="http://www.w3.org/2000/svg" viewBox="0 0 1155.57 161"><defs><style>.cls-1{fill:#716d87;stroke:#716d87;}.cls-1,.cls-2,.cls-3,.cls-4,.cls-6{stroke-miterlimit:10;}.cls-2{fill:#9399b1;stroke:#9399b1;}.cls-3,.cls-5{fill:#898fa7;}.cls-3,.cls-4,.cls-6{stroke:#898fa7;}.cls-4,.cls-6{fill:none;}.cls-4{stroke-width:3px;}</style></defs><path class="cls-1" d="M601.53,1050.56c-27.5,20.09-64,19.15-85.53,18.59s-71.85-1.87-97.3-30.49c-17.78-20-13.9-42.57-12.41-49.1,4.67-20.44,20.07-33.23,26.29-37.88A57.29,57.29,0,0,1,433,933.9c1.42-7.77,3.35-18.4,9.47-19.34s10.22,9,26.25,17.45a85,85,0,0,0,22.47,7.9A187.43,187.43,0,0,1,570.3,943a135.76,135.76,0,0,0,19.58-6.46c17.73-7.41,24-14.76,28.79-13s3.57,11.39,2.38,20.06a77.73,77.73,0,0,1-6,20.92c4.52,5.78,14.77,20.66,13.42,40.48C628.18,1009.06,626.09,1032.61,601.53,1050.56Z" transform="translate(-404.37 -911.92)"/><path class="cls-2" d="M599.11,1044.24c-26.64,19.47-62,18.55-82.87,18s-69.61-1.8-94.27-29.54c-17.23-19.38-13.47-41.24-12-47.57,4.52-19.8,19.44-32.2,25.47-36.7a55.27,55.27,0,0,1,.4-17.23c1.37-7.53,3.24-17.83,9.17-18.73s9.9,8.66,25.43,16.9A82.78,82.78,0,0,0,492.19,937a181.56,181.56,0,0,1,76.66,3,131.59,131.59,0,0,0,19-6.26c17.18-7.18,23.25-14.3,27.9-12.59s3.46,11,2.3,19.44a75.28,75.28,0,0,1-5.82,20.27c4.38,5.6,14.31,20,13,39.22C624.93,1004,622.91,1026.85,599.11,1044.24Z" transform="translate(-404.37 -911.92)"/><ellipse class="cls-3" cx="67.13" cy="64.58" rx="7" ry="6"/><ellipse class="cls-3" cx="162.13" cy="67.58" rx="7" ry="6"/><path class="cls-4" d="M490.8,998.11c-.47,7.65,1.41,14.61,5.28,16.15,4.81,1.91,14.06-4,19.22-16.93-1.21,13.79,7.59,23.09,14.27,22.82,5.41-.23,11.29-6.83,13-16" transform="translate(-404.37 -911.92)"/><ellipse class="cls-5" cx="112.13" cy="79.08" rx="7" ry="4.5"/><ellipse class="cls-6" cx="112.13" cy="79.08" rx="7" ry="4.5"/><path class="cls-1" d="M864.38,1051.88c-27,20.71-63.5,20.59-85.08,20.53s-71.87-.23-98-28.27c-18.23-19.59-14.87-42.24-13.52-48.81,4.2-20.53,19.31-33.67,25.42-38.46a56.94,56.94,0,0,1,0-17.79c1.23-7.8,2.93-18.47,9-19.54s10.42,8.7,26.64,16.84a84.81,84.81,0,0,0,22.64,7.39,187.23,187.23,0,0,1,79.18,1.29,137.66,137.66,0,0,0,19.42-6.9c17.56-7.82,23.66-15.31,28.49-13.65s3.83,11.31,2.83,20a77.89,77.89,0,0,1-5.52,21c4.64,5.68,15.23,20.32,14.33,40.17C890.08,1009.78,888.53,1033.37,864.38,1051.88Z" transform="translate(-404.37 -911.92)"/><path class="cls-2" d="M861.71,1045.9c-26.19,20.06-61.53,19.95-82.43,19.88s-69.64-.21-94.92-27.38c-17.67-19-14.41-40.93-13.11-47.29,4.07-19.9,18.71-32.63,24.63-37.27a55.21,55.21,0,0,1,0-17.23c1.2-7.56,2.84-17.9,8.75-18.94s10.09,8.44,25.8,16.32a82.39,82.39,0,0,0,21.94,7.16,181.75,181.75,0,0,1,76.71,1.25,132.8,132.8,0,0,0,18.82-6.69c17-7.57,22.92-14.83,27.6-13.22s3.71,11,2.75,19.38a75,75,0,0,1-5.36,20.39c4.5,5.5,14.76,19.69,13.89,38.92C886.61,1005.11,885.11,1028,861.71,1045.9Z" transform="translate(-404.37 -911.92)"/><ellipse class="cls-3" cx="329.13" cy="69.58" rx="7" ry="6"/><ellipse class="cls-3" cx="424.13" cy="72.58" rx="7" ry="6"/><path class="cls-4" d="M752.8,1003.11c-.47,7.65,1.41,14.61,5.28,16.15,4.81,1.91,14.06-4,19.22-16.93-1.21,13.79,7.59,23.09,14.27,22.82,5.41-.23,11.29-6.83,13-16" transform="translate(-404.37 -911.92)"/><ellipse class="cls-5" cx="374.13" cy="84.08" rx="7" ry="4.5"/><ellipse class="cls-6" cx="374.13" cy="84.08" rx="7" ry="4.5"/><path class="cls-1" d="M1061.46,1052.52c27.48,20.12,63.94,19.21,85.51,18.67s71.85-1.8,97.33-30.4c17.8-20,13.94-42.56,12.46-49.09-4.65-20.44-20-33.25-26.26-37.91a56.93,56.93,0,0,0-.4-17.78c-1.4-7.77-3.33-18.4-9.45-19.34s-10.22,8.93-26.26,17.42a85.21,85.21,0,0,1-22.47,7.89,187.49,187.49,0,0,0-79.13,3,137.7,137.7,0,0,1-19.57-6.47c-17.73-7.43-24-14.79-28.78-13s-3.58,11.4-2.4,20.06a77.66,77.66,0,0,0,6,20.93c-4.52,5.77-14.79,20.64-13.45,40.47C1034.85,1011,1036.91,1034.55,1061.46,1052.52Z" transform="translate(-404.37 -911.92)"/><path class="cls-2" d="M1063.79,1046.93c26.62,19.49,62,18.61,82.85,18.09s69.61-1.74,94.3-29.46c17.24-19.36,13.51-41.23,12.07-47.56-4.51-19.8-19.42-32.21-25.44-36.72a55.53,55.53,0,0,0-.39-17.23c-1.36-7.53-3.23-17.83-9.16-18.74s-9.9,8.65-25.44,16.88a82.53,82.53,0,0,1-21.78,7.64,181.37,181.37,0,0,0-76.66,2.92,131.73,131.73,0,0,1-19-6.28c-17.18-7.19-23.24-14.32-27.89-12.62s-3.47,11-2.32,19.44a75.15,75.15,0,0,0,5.8,20.27c-4.38,5.6-14.33,20-13,39.22C1038,1006.7,1040,1029.52,1063.79,1046.93Z" transform="translate(-404.37 -911.92)"/><ellipse class="cls-3" cx="794.13" cy="67.58" rx="7" ry="6"/><ellipse class="cls-3" cx="699.13" cy="70.58" rx="7" ry="6"/><path class="cls-4" d="M1179.2,1001.11c.47,7.65-1.41,14.61-5.28,16.15-4.81,1.91-14.06-4-19.22-16.93,1.21,13.79-7.59,23.09-14.27,22.82-5.41-.23-11.29-6.83-13-16" transform="translate(-404.37 -911.92)"/><ellipse class="cls-5" cx="749.13" cy="82.08" rx="7" ry="4.5"/><ellipse class="cls-6" cx="749.13" cy="82.08" rx="7" ry="4.5"/><path class="cls-1" d="M1360.91,1044.34c26.65,21.2,63.12,21.76,84.69,22.1s71.87,1.1,98.47-26.45c18.59-19.25,15.65-42,14.43-48.55-3.82-20.61-18.68-34-24.7-38.93a57.2,57.2,0,0,0,.32-17.79c-1.1-7.81-2.59-18.52-8.67-19.7s-10.57,8.51-26.94,16.34a85,85,0,0,1-22.77,7,187.45,187.45,0,0,0-79.19-.18,136.91,136.91,0,0,1-19.29-7.26c-17.41-8.14-23.37-15.74-28.23-14.18s-4,11.24-3.21,19.95a77.79,77.79,0,0,0,5.14,21.15c-4.75,5.59-15.61,20-15.07,39.9C1336,1001.77,1337.11,1025.39,1360.91,1044.34Z" transform="translate(-404.37 -911.92)"/><path class="cls-2" d="M1363.64,1037.88c25.81,20.55,61.15,21.1,82,21.42s69.63,1.07,95.41-25.63c18-18.65,15.16-40.65,14-47-3.7-20-18.1-33-23.94-37.72a55.19,55.19,0,0,0,.31-17.23c-1.06-7.57-2.51-17.94-8.39-19.09s-10.25,8.25-26.11,15.84a82.06,82.06,0,0,1-22.06,6.75,181.74,181.74,0,0,0-76.72-.17,133.19,133.19,0,0,1-18.7-7c-16.86-7.89-22.64-15.26-27.35-13.74s-3.91,10.89-3.1,19.33a74.94,74.94,0,0,0,5,20.49c-4.6,5.41-15.12,19.41-14.6,38.65C1339.5,996.64,1340.57,1019.52,1363.64,1037.88Z" transform="translate(-404.37 -911.92)"/><ellipse class="cls-3" cx="1090.13" cy="65.58" rx="7" ry="6"/><ellipse class="cls-3" cx="995.13" cy="68.58" rx="7" ry="6"/><path class="cls-4" d="M1475.2,999.11c.47,7.65-1.41,14.61-5.28,16.15-4.81,1.91-14.06-4-19.22-16.93,1.21,13.79-7.59,23.09-14.27,22.82-5.41-.23-11.29-6.83-13-16" transform="translate(-404.37 -911.92)"/><ellipse class="cls-5" cx="1045.13" cy="80.08" rx="7" ry="4.5"/><ellipse class="cls-6" cx="1045.13" cy="80.08" rx="7" ry="4.5"/></svg>