<?xml version="1.0" encoding="UTF-8"?><svg id="Layer_2" xmlns="http://www.w3.org/2000/svg" viewBox="0 0 224.63 155.83"><defs><style>.cls-1{fill:#9399b1;stroke:#9399b1;}.cls-1,.cls-2,.cls-3,.cls-4,.cls-5{stroke-miterlimit:10;}.cls-2{stroke-width:3px;}.cls-2,.cls-3,.cls-4{stroke:#898fa7;}.cls-2,.cls-4{fill:none;}.cls-6,.cls-3{fill:#898fa7;}.cls-5{fill:#716d87;stroke:#716d87;}</style></defs><g id="Layer_5"><path class="cls-5" d="M198.25,134.79c-27,20.71-63.5,20.59-85.08,20.53s-71.87-.23-98-28.27C-3.06,107.46,.3,84.81,1.65,78.24c4.2-20.53,19.31-33.67,25.42-38.46-.93-5.89-.93-11.9,0-17.79,1.23-7.8,2.93-18.47,9-19.54s10.42,8.7,26.64,16.84c7.16,3.52,14.78,6,22.64,7.39,26.18-5.22,53.18-4.78,79.18,1.29,6.64-1.81,13.13-4.12,19.42-6.9,17.56-7.82,23.66-15.31,28.49-13.65s3.83,11.31,2.83,20c-.85,7.22-2.71,14.29-5.52,21,4.64,5.68,15.23,20.32,14.33,40.17-.13,4.1-1.68,27.69-25.83,46.2Z"/><path class="cls-1" d="M195.58,128.81c-26.19,20.06-61.53,19.95-82.43,19.88s-69.64-.21-94.92-27.38C.56,102.31,3.82,80.38,5.12,74.02c4.07-19.9,18.71-32.63,24.63-37.27-.9-5.71-.9-11.52,0-17.23,1.2-7.56,2.84-17.9,8.75-18.94s10.09,8.44,25.8,16.32c6.94,3.4,14.33,5.81,21.94,7.16,25.37-5.05,51.52-4.62,76.71,1.25,6.43-1.75,12.72-3.99,18.82-6.69,17-7.57,22.92-14.83,27.6-13.22s3.71,11,2.75,19.38c-.82,7.02-2.62,13.88-5.36,20.39,4.5,5.5,14.76,19.69,13.89,38.92-.17,3.93-1.67,26.82-25.07,44.72Z"/><ellipse class="cls-3" cx="67.37" cy="64.41" rx="7" ry="6"/><ellipse class="cls-3" cx="162.37" cy="67.41" rx="7" ry="6"/><path class="cls-2" d="M86.67,86.02c-.47,7.65,1.41,14.61,5.28,16.15,4.81,1.91,14.06-4,19.22-16.93-1.21,13.79,7.59,23.09,14.27,22.82,5.41-.23,11.29-6.83,13-16"/><ellipse class="cls-6" cx="112.37" cy="78.91" rx="7" ry="4.5"/><ellipse class="cls-4" cx="112.37" cy="78.91" rx="7" ry="4.5"/></g></svg>