<?xml version="1.0" encoding="UTF-8"?><svg id="Layer_2" xmlns="http://www.w3.org/2000/svg" viewBox="0 0 224.72 157.95"><defs><style>.cls-1{fill:#9399b1;stroke:#9399b1;}.cls-1,.cls-2,.cls-3,.cls-4,.cls-5{stroke-miterlimit:10;}.cls-2{stroke-width:3px;}.cls-2,.cls-3,.cls-4{stroke:#898fa7;}.cls-2,.cls-4{fill:none;}.cls-6,.cls-3{fill:#898fa7;}.cls-5{fill:#716d87;stroke:#716d87;}</style></defs><g id="Layer_5"><path class="cls-5" d="M197.16,138.65c-27.5,20.09-64,19.15-85.53,18.59s-71.85-1.87-97.3-30.49C-3.45,106.75,.43,84.18,1.92,77.65c4.67-20.44,20.07-33.23,26.29-37.88-.79-5.91-.64-11.91,.42-17.78,1.42-7.77,3.35-18.4,9.47-19.34s10.22,9,26.25,17.45c7.08,3.67,14.65,6.33,22.47,7.9,26.29-4.61,53.26-3.56,79.11,3.09,6.68-1.65,13.23-3.81,19.58-6.46,17.73-7.41,24-14.76,28.79-13s3.57,11.39,2.38,20.06c-1.01,7.22-3.03,14.26-6,20.92,4.52,5.78,14.77,20.66,13.42,40.48-.29,4.06-2.38,27.61-26.94,45.56Z"/><path class="cls-1" d="M194.74,132.33c-26.64,19.47-62,18.55-82.87,18s-69.61-1.8-94.27-29.54C.37,101.41,4.13,79.55,5.6,73.22c4.52-19.8,19.44-32.2,25.47-36.7-.77-5.73-.63-11.54,.4-17.23,1.37-7.53,3.24-17.83,9.17-18.73s9.9,8.66,25.43,16.9c6.86,3.55,14.18,6.11,21.75,7.63,25.48-4.47,51.61-3.45,76.66,3,6.48-1.6,12.83-3.69,19-6.26,17.18-7.18,23.25-14.3,27.9-12.59s3.46,11,2.3,19.44c-.98,7-2.94,13.82-5.82,20.27,4.38,5.6,14.31,20,13,39.22-.3,3.92-2.32,26.77-26.12,44.16Z"/><ellipse class="cls-3" cx="67.13" cy="64.59" rx="7" ry="6"/><ellipse class="cls-3" cx="162.13" cy="67.59" rx="7" ry="6"/><path class="cls-2" d="M86.43,86.2c-.47,7.65,1.41,14.61,5.28,16.15,4.81,1.91,14.06-4,19.22-16.93-1.21,13.79,7.59,23.09,14.27,22.82,5.41-.23,11.29-6.83,13-16"/><ellipse class="cls-6" cx="112.13" cy="79.09" rx="7" ry="4.5"/><ellipse class="cls-4" cx="112.13" cy="79.09" rx="7" ry="4.5"/></g></svg>