<?xml version="1.0" encoding="UTF-8"?><svg id="Layer_2" xmlns="http://www.w3.org/2000/svg" viewBox="0 0 224.69 157.14"><defs><style>.cls-1{fill:#9399b1;stroke:#9399b1;}.cls-1,.cls-2,.cls-3,.cls-4,.cls-5{stroke-miterlimit:10;}.cls-2{stroke-width:3px;}.cls-2,.cls-3,.cls-4{stroke:#898fa7;}.cls-2,.cls-4{fill:none;}.cls-6,.cls-3{fill:#898fa7;}.cls-5{fill:#716d87;stroke:#716d87;}</style></defs><g id="Layer_5"><path class="cls-5" d="M27.49,137.77c27.48,20.12,63.94,19.21,85.51,18.67s71.85-1.8,97.33-30.4c17.8-20,13.94-42.56,12.46-49.09-4.65-20.44-20-33.25-26.26-37.91,.8-5.91,.66-11.91-.4-17.78-1.4-7.77-3.33-18.4-9.45-19.34s-10.22,8.93-26.26,17.42c-7.08,3.67-14.65,6.32-22.47,7.89-26.29-4.65-53.27-3.62-79.13,3-6.68-1.66-13.22-3.83-19.57-6.47C21.52,16.33,15.25,8.97,10.47,10.76s-3.58,11.4-2.4,20.06c1.01,7.22,3.03,14.27,6,20.93C9.55,57.52-.72,72.39,.62,92.22c.26,4.03,2.32,27.58,26.87,45.55Z"/><path class="cls-1" d="M29.82,132.18c26.62,19.49,62,18.61,82.85,18.09s69.61-1.74,94.3-29.46c17.24-19.36,13.51-41.23,12.07-47.56-4.51-19.8-19.42-32.21-25.44-36.72,.77-5.73,.64-11.54-.39-17.23-1.36-7.53-3.23-17.83-9.16-18.74s-9.9,8.65-25.44,16.88c-6.87,3.55-14.2,6.13-21.78,7.64-25.47-4.5-51.61-3.51-76.66,2.92-6.48-1.61-12.84-3.71-19-6.28C23.99,14.53,17.93,7.4,13.28,9.1s-3.47,11-2.32,19.44c.97,7,2.92,13.82,5.8,20.27-4.38,5.6-14.33,20-13,39.22,.27,3.92,2.27,26.74,26.06,44.15Z"/><ellipse class="cls-3" cx="164.53" cy="64.75" rx="7" ry="6"/><ellipse class="cls-3" cx="69.53" cy="67.75" rx="7" ry="6"/><path class="cls-2" d="M145.23,86.36c.47,7.65-1.41,14.61-5.28,16.15-4.81,1.91-14.06-4-19.22-16.93,1.21,13.79-7.59,23.09-14.27,22.82-5.41-.23-11.29-6.83-13-16"/><ellipse class="cls-6" cx="119.53" cy="79.25" rx="7" ry="4.5"/><ellipse class="cls-4" cx="119.53" cy="79.25" rx="7" ry="4.5"/></g></svg>