<?xml version="1.0" encoding="UTF-8"?><svg id="Layer_2" xmlns="http://www.w3.org/2000/svg" viewBox="0 0 224.57 155"><defs><style>.cls-1{fill:#9399b1;stroke:#9399b1;}.cls-1,.cls-2,.cls-3,.cls-4,.cls-5{stroke-miterlimit:10;}.cls-2{stroke-width:3px;}.cls-2,.cls-3,.cls-4{stroke:#898fa7;}.cls-2,.cls-4{fill:none;}.cls-6,.cls-3{fill:#898fa7;}.cls-5{fill:#716d87;stroke:#716d87;}</style></defs><g id="Layer_5"><path class="cls-5" d="M25.54,132.31c26.65,21.2,63.12,21.76,84.69,22.1s71.87,1.1,98.47-26.45c18.59-19.25,15.65-42,14.43-48.55-3.82-20.61-18.68-34-24.7-38.93,1.03-5.88,1.14-11.88,.32-17.79-1.1-7.81-2.59-18.52-8.67-19.7s-10.57,8.51-26.94,16.34c-7.22,3.39-14.89,5.75-22.77,7-26.08-5.7-53.08-5.76-79.19-.18-6.6-1.93-13.05-4.36-19.29-7.26C24.48,10.75,18.52,3.15,13.66,4.71s-4,11.24-3.21,19.95c.71,7.26,2.44,14.38,5.14,21.15C10.84,51.4-.02,65.81,.52,85.71c.11,4.03,1.22,27.65,25.02,46.6Z"/><path class="cls-1" d="M28.27,125.85c25.81,20.55,61.15,21.1,82,21.42s69.63,1.07,95.41-25.63c18-18.65,15.16-40.65,14-47-3.7-20-18.1-33-23.94-37.72,1-5.69,1.11-11.51,.31-17.23-1.06-7.57-2.51-17.94-8.39-19.09s-10.25,8.25-26.11,15.84c-7,3.28-14.43,5.55-22.06,6.75-25.27-5.52-51.43-5.57-76.72-.17-6.4-1.86-12.65-4.2-18.7-7C27.21,8.13,21.43,.76,16.72,2.28s-3.91,10.89-3.1,19.33c.69,7.03,2.38,13.93,5,20.49-4.6,5.41-15.12,19.41-14.6,38.65,.11,3.86,1.18,26.74,24.25,45.1Z"/><ellipse class="cls-3" cx="159.13" cy="65.47" rx="7" ry="6"/><ellipse class="cls-3" cx="64.13" cy="68.47" rx="7" ry="6"/><path class="cls-2" d="M139.83,87.08c.47,7.65-1.41,14.61-5.28,16.15-4.81,1.91-14.06-4-19.22-16.93,1.21,13.79-7.59,23.09-14.27,22.82-5.41-.23-11.29-6.83-13-16"/><ellipse class="cls-6" cx="114.13" cy="79.97" rx="7" ry="4.5"/><ellipse class="cls-4" cx="114.13" cy="79.97" rx="7" ry="4.5"/></g></svg>