<?xml version="1.0" encoding="UTF-8"?><svg xmlns="http://www.w3.org/2000/svg" viewBox="0 0 231.25 505.46"><defs><style>.d,.e{fill:#8f709c;}.f{fill:#daadae;}.g{fill:#e1e1e1;}.h{fill:#2f233f;}.i{stroke:#000;}.i,.j{fill:none;stroke-miterlimit:10;}.j{stroke:#bdbdbd;}.e{opacity:.25;}</style></defs><g id="a"/><g id="b"><g id="c"><g><path class="g" d="M228.65,428.46c-9.28,36.61-13.56,52.14-45.73,65.79-8.89,3.05-11.6,1.96-15.97,1.5,0,0-12.76,22.19-38.2-.81,0,0-13.02,3.72-18.47-.28,0,0-20.31,23.28-36.31,1.45,0,0-11.76,1.78-21.76,.63-14.38-.99-34.24-26.21-43.39-56.83s-15.86-54.12,4.57-127.36c20.43-73.24,29.3-98.69,33.92-112.56s5.94-18.68,.54-30.84c0,0-12.99-36.28-1.98-62.57-.33-8.71-2.11-30.77,.28-40.94s7.48-20.05,9.57-23.04c2.09-2.99,5.68-11.07,13.46-3.29,7.78,7.78,21.69,27.17,27.4,45.82,12.85-7.27,33.58-5.4,40.78,0,0,0,8.6-21.95,22.25-38.74,10.69-13.56,17.61-10.37,22.18-.75,6.49,12.34,11.4,42.73,6.54,60.48,0,0,8.56,39.93-6.3,67.16-1.8,3.3-4.8,9.3-2.1,17.99s26.2,89.7,32.06,107.09c0,0,27.66,77.96,16.64,130.1"/><path class="j" d="M53.08,341.49c-1.08,8.02-4.08,42.44,6.76,69.77s24.85,61.65,24.85,61.65c0,0-18.14,13.14-10.89,23.84"/><path class="j" d="M188.35,341.49c1.08,8.02,2.57,43.91-5.72,70.92-8.63,28.1-24.47,63.18-24.47,63.18,0,0,12.28,7.38,9.12,20.2"/><path class="j" d="M110.09,495.54c2.48-2.97,5.93-9.21,5.53-13.9s-7.11-67.76-6.89-76.04-1.7-30.86,9.44-35.33,13.15,17,12.03,34.66-3.73,62.75-4.42,75.82c-.65,12.32,3.12,15.05,3.12,15.05"/><ellipse class="d" cx="85.53" cy="118.09" rx="15.48" ry="11.82"/><ellipse class="h" cx="85.53" cy="118.09" rx="3.79" ry="11.82"/><ellipse class="d" cx="147.24" cy="118.09" rx="15.48" ry="11.82"/><ellipse class="h" cx="147.24" cy="118.09" rx="3.79" ry="11.82"/><path class="f" d="M52.21,100.81c-1.62-8.41-4.39-34.09,2-46.34s6.79-17.71,16.91-6.52,16.64,32.91,17.49,36.16c.84,3.25,2.48,9.99-2.85,6.02s-9.9-2.05-14.47,2.89c-4.57,4.93-15.86,14.7-19.07,7.8Z"/><path class="f" d="M143.45,85.62c3.79-14.21,14.61-30.51,18.18-35.23s9.7-15.83,16.98,0c7.28,15.83,5.87,38.93,3.32,43.53s-1.91,5.74-6,6.64-7.4-5.23-10.47-7.79-6.89-1.79-11.36-1.53-11.34-2.57-10.65-5.62Z"/><path class="f" d="M117.16,144.65l7.53-6.98c.35-.32,.12-.9-.35-.9h-15.06c-.47,0-.7,.58-.35,.9l7.53,6.98c.2,.18,.51,.18,.7,0Z"/><path class="j" d="M87.91,150.8c7.09,8.71,12.31,9.09,18.62,8.04s10.64-8.01,10.64-14.2"/><path class="j" d="M145.92,150.8c-7.09,8.71-12.31,9.09-18.62,8.04s-10.64-8.01-10.64-14.2"/><line class="j" x1="135.09" y1="144.65" x2="183.99" y2="136.77"/><line class="j" x1="138.29" y1="146.63" x2="199.56" y2="143.27"/><line class="j" x1="136.95" y1="148.99" x2="194.51" y2="156.23"/><line class="j" x1="99.41" y1="148.32" x2="32.75" y2="154.04"/><line class="j" x1="96.38" y1="146.63" x2="28.88" y2="139.5"/><line class="j" x1="98.74" y1="144.65" x2="42.94" y2="133.84"/><path class="e" d="M219.58,105.49c0,30.7-8,52.43-36.86,79.21-17.89,12.02-41.07,10.06-68.63,10.06s-52.76,3.28-71.14-10.73c-19.43-17.76-34.35-47.49-34.35-78.55C8.6,47.23,55.83,0,114.09,0s105.49,47.23,105.49,105.49Z"/><path class="i" d="M182.72,184.7c-17.89,12.02-41.07,9.85-68.63,10.06-32.08,.24-52.76,3.28-71.14-10.73"/><path class="h" d="M46.37,198.09c-14.91-7.01-31.2-56.43-31.2-56.43,0,0,17.15,35.25,32.16,45.37,15.86,6.47,90.2,12.89,128.96,1.3,27.58-18.14,39.3-51.56,39.3-51.56,0,0-10.7,41.09-28.81,61.2-2.46,2.55-4.06,3.43-8.01,5.09-39.95,11.31-102.85,10.82-132.4-4.97Z"/><path class="e" d="M131.29,185.39c41.59,0,47.04-6.06,57.8-18.65,8.32-10.34,14.95-22.75,17.72-28.83,0,0-16.8,23.28-33.33,33.99-16.8,10.45-42.19,13.49-42.19,13.49Z"/><path class="e" d="M85.76,13.55c-21.67,4.71-34.07,12.25-43.68,25.73-7.39,11.03-10.65,18.17-12.88,24.47,0,0,12.44-18.86,27.98-30.98,15.82-11.88,28.59-19.23,28.59-19.23Z"/></g></g></g></svg>