<svg id="Layer_12" data-name="Layer 12" xmlns="http://www.w3.org/2000/svg" viewBox="0 0 1855.96 659.74"><defs><style>.cls-1,.cls-3{fill:#5f5f5f;}.cls-2{fill:#4b4a4c;}.cls-3,.cls-8{stroke:#333;}.cls-3,.cls-4,.cls-8,.cls-9{stroke-miterlimit:10;}.cls-3{stroke-width:2px;}.cls-4,.cls-8{fill:#333;}.cls-4{stroke:#5f5f5f;stroke-width:0.8px;}.cls-5{fill:#373638;}.cls-6{fill:#8723fe;}.cls-7{fill:#3c3c3c;}.cls-9{fill:#535496;stroke:#1b1464;}</style></defs><path class="cls-1" d="M1667.2,779l-1641.81,3L53.8,163.63,1869,196Z" transform="translate(-13.04 -143.93)"/><path class="cls-2" d="M29.14,803.63h0c9.6.79,18-9.71,18.69-23.46L80.05,170.3c.73-13.75-6.46-25.54-16-26.33h0c-9.59-.79-18,9.72-18.68,23.46L13.09,777.3C12.37,791.05,19.55,802.84,29.14,803.63Z" transform="translate(-13.04 -143.93)"/><path class="cls-3" d="M1658.67,760.94,71.45,758.5Q81.21,469.59,91,180.67l1760.32,29.26Q1755,485.44,1658.67,760.94Z" transform="translate(-13.04 -143.93)"/><ellipse class="cls-4" cx="333.12" cy="40.83" rx="9.05" ry="8.96"/><ellipse class="cls-4" cx="357.88" cy="40.27" rx="9.05" ry="8.96"/><ellipse class="cls-4" cx="679.58" cy="47.86" rx="9.05" ry="8.96"/><ellipse class="cls-4" cx="703.96" cy="47.86" rx="9.05" ry="8.96"/><ellipse class="cls-4" cx="978.55" cy="52.31" rx="9.05" ry="8.96"/><ellipse class="cls-4" cx="1002.93" cy="52.31" rx="9.05" ry="8.96"/><ellipse class="cls-4" cx="1359.1" cy="56.86" rx="9.05" ry="8.96"/><ellipse class="cls-4" cx="1383.49" cy="56.86" rx="9.05" ry="8.96"/><ellipse class="cls-4" cx="273.82" cy="613.19" rx="9.05" ry="8.96"/><ellipse class="cls-4" cx="296.15" cy="612.64" rx="9.05" ry="8.96"/><ellipse class="cls-4" cx="620.29" cy="612.91" rx="9.05" ry="8.96"/><ellipse class="cls-4" cx="644.67" cy="612.91" rx="9.05" ry="8.96"/><ellipse class="cls-4" cx="919.25" cy="614.92" rx="9.05" ry="8.96"/><ellipse class="cls-4" cx="943.64" cy="614.92" rx="9.05" ry="8.96"/><ellipse class="cls-4" cx="1299.81" cy="614.6" rx="9.05" ry="8.96"/><ellipse class="cls-4" cx="1324.19" cy="614.6" rx="9.05" ry="8.96"/><ellipse class="cls-4" cx="79.89" cy="38.75" rx="9.05" ry="8.96"/><ellipse class="cls-4" cx="59.58" cy="613.99" rx="9.05" ry="8.96"/><ellipse class="cls-4" cx="1833.79" cy="69.32" rx="9.05" ry="8.96"/><ellipse class="cls-4" cx="1643.62" cy="615.61" rx="9.05" ry="8.96"/><ellipse class="cls-5" cx="550.06" cy="537.54" rx="41.94" ry="45.34"/><ellipse class="cls-5" cx="341.48" cy="537.54" rx="41.94" ry="45.34"/><ellipse class="cls-5" cx="1386.69" cy="537.54" rx="41.94" ry="45.34"/><ellipse class="cls-5" cx="1254.48" cy="537.54" rx="41.94" ry="45.34"/><ellipse class="cls-5" cx="857.77" cy="537.54" rx="41.94" ry="45.34"/><ellipse class="cls-5" cx="745.82" cy="537.54" rx="41.94" ry="45.34"/><ellipse class="cls-5" cx="186.39" cy="537.54" rx="41.94" ry="45.34"/><circle class="cls-6" cx="551.73" cy="529.18" r="41.11"/><circle class="cls-6" cx="342.46" cy="529.18" r="41.11"/><circle class="cls-6" cx="1386.34" cy="529.18" r="41.11"/><circle class="cls-6" cx="1254.3" cy="529.18" r="41.11"/><circle class="cls-6" cx="858.17" cy="529.18" r="41.11"/><circle class="cls-6" cx="746.06" cy="529.18" r="41.11"/><circle class="cls-6" cx="187.99" cy="529.18" r="41.11"/><rect x="131.94" y="146.75" width="1312.95" height="313.91"/><path class="cls-7" d="M145,604.6c-2.87,0-6.18-104.55-10-321.39h17.44C150.35,500,147.85,604.59,145,604.6Z" transform="translate(-13.04 -143.93)"/><path class="cls-7" d="M1457.15,604.6c2.74,0,6-104.79,10-321.39h-16.66C1452.16,499.78,1454.4,604.58,1457.15,604.6Z" transform="translate(-13.04 -143.93)"/><path class="cls-2" d="M1450.45,300.65h-1298L135,283.21H1467.89Z" transform="translate(-13.04 -143.93)"/><path class="cls-8" d="M403.92,400.31c-15.71-42.59-59.34-61.7-89.69-49.83-38.94,15.23-44.68,77-24.91,104.64C301.94,472.75,320.39,470,351.6,485c37.33,17.9,61.72,46.12,77.23,69.17,5.91-24.6,17.91-56.34,44.85-81.63C498,449.7,516.59,449,526,427.71c12.44-28.15,2.69-78.26-32.39-89.69-23.05-7.51-51.56,3.48-69.76,27.41" transform="translate(-13.04 -143.93)"/><path class="cls-8" d="M784.77,402.41c-15.71-42.59-59.34-61.7-89.69-49.83-39,15.23-44.69,77-24.92,104.64,12.63,17.63,31.07,14.93,62.29,29.9,37.32,17.9,61.72,46.11,77.23,69.16,5.91-24.59,17.9-56.33,44.84-81.62,24.35-22.86,42.91-23.55,52.32-44.84,12.44-28.15,2.69-78.26-32.39-89.69-23.05-7.52-51.56,3.47-69.75,27.4" transform="translate(-13.04 -143.93)"/><path class="cls-8" d="M1132.05,393.64c-15.71-42.59-59.34-61.7-89.69-49.83-38.94,15.23-44.68,77-24.91,104.64,12.62,17.63,31.07,14.92,62.28,29.89,37.33,17.9,61.72,46.12,77.23,69.17,5.91-24.6,17.91-56.34,44.85-81.62,24.35-22.86,42.91-23.56,52.32-44.85,12.44-28.15,2.69-78.26-32.39-89.69-23.06-7.51-51.56,3.48-69.76,27.41" transform="translate(-13.04 -143.93)"/><rect class="cls-3" x="1519.89" y="149.16" width="83.73" height="428.74"/><ellipse class="cls-4" cx="1520.18" cy="577.76" rx="5.54" ry="6.23"/><ellipse class="cls-4" cx="1604.08" cy="578.05" rx="5.54" ry="6.23"/><ellipse class="cls-4" cx="1519.4" cy="149.97" rx="5.54" ry="6.23"/><ellipse class="cls-4" cx="1604.11" cy="147.48" rx="5.54" ry="6.23"/><rect x="1544.54" y="164.19" width="34.88" height="383.67"/><path class="cls-2" d="M1592.46,315.6h-34.88l-5-7.47h44.84Z" transform="translate(-13.04 -143.93)"/><path class="cls-7" d="M1557.57,691.79q-1.24,0-5-383.66l5,7.47Q1558.8,691.76,1557.57,691.79Z" transform="translate(-13.04 -143.93)"/><path class="cls-7" d="M1592.46,691.79q1.24,0,5-383.66l-5,7.47Q1591.23,691.76,1592.46,691.79Z" transform="translate(-13.04 -143.93)"/><rect class="cls-9" x="1477.27" y="336.1" width="171.9" height="38.89" rx="7.81"/></svg>