<svg id="Rhythm_Radar" data-name="Rhythm Radar" xmlns="http://www.w3.org/2000/svg" viewBox="0 0 959.85 805.1"><defs><style>.cls-1{fill:#51356b;}.cls-2{fill:#46256b;}.cls-3{fill:#2a094c;}.cls-4{fill:#6e6e6e;}.cls-5{fill:#4b4a4c;}.cls-6{fill:#747375;}.cls-7{fill:#404040;}.cls-8{fill:#3c3c3c;}.cls-9{fill:#e6b812;}.cls-10{fill:#5cd01b;}.cls-11{fill:#ff2a09;}.cls-12{fill:#9c9c9d;}</style></defs><path d="M855.82,251.4c16,0,32.09-.06,48.14,0,5.56,0,11.16-.61,16.69.67a15,15,0,0,0,3.35,0q43.1,0,86.2-.06c6,0,11.93.44,17.88.32,18.08-.39,36.15-.93,54.23-.73,3.92,0,7.84.1,11.76,0,12.86-.42,25.67,1.17,38.52,1.16,4.87,0,7.82,2.46,9.46,7.11,2.47,7,5.08,14,8.1,20.79s5.66,13.75,8.36,20.68a91.78,91.78,0,0,0,3.82,9.28,76.77,76.77,0,0,1,4.19,10.33c1.6,4.56,3,9.2,4.92,13.64,4.27,10.1,7.74,20.54,12.14,30.57,4,9,7,18.44,11.07,27.4s7.22,18.31,11.08,27.37c4.07,9.57,8,19.23,12.09,28.77,5.94,13.64,10.86,27.68,16.71,41.35,1.09,2.56,2,5.21,3,7.8,2.88,7.24,5.92,14.42,9.35,21.42.25.5.5,1,.7,1.52,4.62,11.56,9.11,23.18,13.9,34.67,2,4.79,4.52,9.36,6.29,14.27,1.19,3.33,2.43,6.64,3.75,9.92,3.22,7.92,6.73,15.72,9.77,23.72,4.56,12,9,24.06,14.17,35.78,3.61,8.16,6.68,16.54,10.37,24.68,4.6,10.13,8.17,20.73,12.55,31,4.09,9.58,8,19.23,11.53,29,3.48,5.79,5.43,12.24,7.74,18.51,4.37,11.87,9.83,23.29,14,35.23.72,2.06,1.35,4.17,3,5.84.86.85,1.18,2.28,1.65,3.48,1.9,4.85,3.58,9.79,5.66,14.56,4.32,9.88,7.89,20.07,12.18,29.94,4.08,9.39,7.44,19.05,11.49,28.44,2.14,4.95,4.39,9.85,6.22,14.93.94,2.63,1.77,5.29,2.85,7.86,1.28,3.07,2.34,6.19,4.24,9,1.62,2.42,2.38,5.44,3.41,8.22,2.65,7.15,5.28,14.29,8.51,21.22,2.59,5.56,4.54,11.41,6.77,17.13a6.56,6.56,0,0,1,.31,1.07c.54,2.35-.31,4.11-2.52,4.91a12,12,0,0,1-3.78.9c-3.52,0-7.06.57-10.56-.4a12.76,12.76,0,0,0-3.34-.19c-13.06,0-26.12-.2-39.18.13-15.66.4-31.34.63-47,.16-12.67-.37-25.32-.43-38-.5a53.8,53.8,0,0,0-7.83.06c-8.53,1.21-17.09.6-25.64.73s-16.79.08-25.19,0c-2.77,0-5.56.37-8.31-.64-1-.37-2.21-.08-3.33-.08l-82.29.18c-1.48,0-3,.15-4.45.21a15,15,0,0,1-3.9.07c-4.43-1-8.91-.59-13.36-.6q-29.11,0-58.22.14c-4.07,0-8.13.57-12.2.7s-8.27.46-12.31,0c-7.81-1-15.61-.44-23.41-.53s-15.3-.19-22.94.09c-16.22.57-32.47.82-48.66.23-16.4-.6-32.78-.34-49.16-.43s-32.84.08-49.26.08c-4.1,0-8.2-.47-12.28-.32-27.59,1-55.19.66-82.79.8a25.79,25.79,0,0,1-6.65-.52,20.34,20.34,0,0,0-5-.19c-28.17,0-56.35.14-84.52.13-13.61,0-27.22-.3-40.84-.27-14.16,0-28.33.28-42.5.46-4.84.07-9.69.37-14.53.29-5.56-.08-11.12-.45-16.69-.7a7.61,7.61,0,0,1-1.66-.19c-4-1.15-6.06-3.09-3.87-7.38,3.66-7.15,5.61-15,9.3-22.11,1.36-2.63,2.23-5.51,3.33-8.28,1.23-3.1,2-6.36,4.1-9.11A9.08,9.08,0,0,0,530,893.5c.9-4.61,2.83-8.81,4.76-13,1.08-2.37,1.78-4.9,2.72-7.33,3.32-8.48,7-16.81,10.34-25.29,2.09-5.36,4-10.83,6.53-16,3.82-7.89,6-16.42,10.2-24.15a37.72,37.72,0,0,0,1.61-4.16c1.72-4.3,3.24-8.67,5.29-12.87a40.75,40.75,0,0,0,3.84-11c.4-2.33,1.67-4.51,2.62-6.74a28.8,28.8,0,0,0,1.53-3c2.73-9.31,7.55-17.8,10.39-27.07a76.85,76.85,0,0,1,3.3-7.66c.51-1.19,1-2.4,1.47-3.6,3.81-9.48,7.43-19,11.48-28.41,2.29-5.3,4.2-10.74,6.54-16,3-6.8,5.66-13.75,8.38-20.67,1.43-3.63,2.81-7.27,4.27-10.88,3-7.41,5.91-14.85,9.07-22.18,5.22-12.13,10.06-24.4,14.72-36.75,4-7,5.5-15,9.47-22a24.88,24.88,0,0,0,1.17-3.13c3.72-9.33,7.22-18.74,11.24-27.94,2.54-5.8,4.81-11.69,7.14-17.56.33-.86.85-1.65,1.21-2.5a48.53,48.53,0,0,0,3.28-8.82,38.9,38.9,0,0,1,3.45-9.4c1.86-3.67,3.16-7.54,4.69-11.32,3.07-7.57,6.17-15.12,9.12-22.74,2.42-6.22,4.92-12.44,7.55-18.59,1.6-3.75,3.56-7.39,4.74-11.29,2.09-6.94,5.27-13.45,7.69-20.26.92-2.59,1.67-5.34,3.46-7.58a6.14,6.14,0,0,0,.73-1.5c3.46-8.63,6.71-17.35,10.44-25.86,3.65-8.33,6.41-17,10.6-25.14a26.37,26.37,0,0,0,1-2.61c3.33-8.49,6.64-17,10-25.45a83.25,83.25,0,0,1,3.52-8.2,49.13,49.13,0,0,0,2.64-7.33c1.17-3.52,2-7.16,4-10.38a16.73,16.73,0,0,0,1.16-2.54c3.72-9.31,7.29-18.69,11.21-27.92q4.13-9.74,8-19.59a7.56,7.56,0,0,1,6.17-5,21.93,21.93,0,0,1,2.74-.5c8-.17,16-.6,24-.35,6.53.21,13,.16,19.57.23,5.6.06,11.19,0,16.79,0Z" transform="translate(-482.71 -141.9)"/><path class="cls-1" d="M919.66,538.77c78-.75,152,12.58,224.2,36.93a794.44,794.44,0,0,1,150.76,69.4,43.55,43.55,0,0,1,3.7,2.42,1.65,1.65,0,0,1,.56,2,2,2,0,0,1-2.22,1.28c-1.93-.16-3.36-1.48-4.92-2.4a801.49,801.49,0,0,0-100-50.18,725.87,725.87,0,0,0-168.51-48,597.46,597.46,0,0,0-122.73-6.67c-64,3.31-125.45,17-183.3,45.25a375.84,375.84,0,0,0-80.05,52.37c-1.25,1.07-2.32,2.44-4,2.91a2.28,2.28,0,0,1-2.48-.83,1.83,1.83,0,0,1,.09-2.53,30.89,30.89,0,0,1,2.88-2.59c42-35.81,89.76-60.83,142.28-77.15a491,491,0,0,1,106-20.22C895,539.67,908.12,539.12,919.66,538.77Z" transform="translate(-482.71 -141.9)"/><path class="cls-1" d="M939.45,337.45c-56.79,0-107,14.3-152.52,44-25.31,16.48-47.18,36.81-66.28,60.15-.47.57-.85,1.22-1.35,1.76-.95,1-1.82,2.89-3.51,1.78-2.12-1.38-1.13-3.28,0-4.8,1.92-2.48,3.95-4.89,6-7.28,43.86-51,98.17-84.12,164.76-96.08a293.55,293.55,0,0,1,88.91-1.9c53.66,6.73,103.11,25.53,149.85,52.13,28.85,16.42,55.7,35.69,81.16,56.94,1.28,1.06,2.55,2.15,3.75,3.3s2.86,2.43,1.46,4.17-3,.44-4.28-.65l-6.38-5.34c-34.53-28.8-71.81-53.3-112.61-72.32-37-17.22-75.52-29-116.09-33.84C960.59,338.05,948.77,337.68,939.45,337.45Z" transform="translate(-482.71 -141.9)"/><path class="cls-1" d="M1271.57,748.93c-.3,1.44-1.27,2.15-2.43,1.67a28.38,28.38,0,0,1-4.79-2.72A690.23,690.23,0,0,0,1151.93,688c-48.69-20.32-99.09-34.49-151.49-41.23A472.81,472.81,0,0,0,913,643.47c-64.56,3.69-125.32,20.3-180.89,54.11A338.21,338.21,0,0,0,675.35,741c-1.55,1.47-3.23,4.87-5.69,2.12-2.09-2.34,1.17-3.79,2.62-5.16,46-43.65,100.45-71.82,161.78-87,41.22-10.21,83.13-13.81,125.49-11.82,72.39,3.39,141.18,21.62,207.26,50.78a695.31,695.31,0,0,1,100.63,55C1269.07,746,1271.23,746.61,1271.57,748.93Z" transform="translate(-482.71 -141.9)"/><path class="cls-1" d="M1252.14,541.56c-.36,1.25-1.32,2-2.49,1.45a26.13,26.13,0,0,1-4.23-2.6,645.93,645.93,0,0,0-118.49-64.73c-45.33-18.79-92.21-31.84-141-37.43-62.24-7.13-123.28-2.27-182.49,19.38a325.11,325.11,0,0,0-119,75.35,40.07,40.07,0,0,1-3.23,3,1.92,1.92,0,0,1-2.55,0,2.05,2.05,0,0,1-.26-3,30.66,30.66,0,0,1,3.06-3.19,332.2,332.2,0,0,1,128.87-79A377.39,377.39,0,0,1,907.51,432c67.31-4.23,132.2,7.38,195.37,30,52,18.63,100.33,44.35,145.78,75.59C1251.9,539.83,1252.28,540.3,1252.14,541.56Z" transform="translate(-482.71 -141.9)"/><path class="cls-1" d="M939.28,255.66c38.16.25,73.38,8.56,107.29,22.91,38.48,16.29,73,39,104.91,65.7,11.78,9.86,23,20.29,34,31.05,1.3,1.28,2.92,2.36,3.23,4.37a2,2,0,0,1-.74,2,1.45,1.45,0,0,1-2-.15c-1.25-1.09-2.45-2.25-3.63-3.42-27.53-27.35-57.5-51.62-90.83-71.6-33.74-20.23-69.49-35.39-108.44-42.18q-105.95-18.47-188.29,50.82c-19.07,16.07-35.28,34.76-49.55,55.15-.63.91-1.18,1.89-1.86,2.76s-1.44,2-2.68,1.08a2.35,2.35,0,0,1-.6-3,15.72,15.72,0,0,1,1.37-2.39c23.52-33.83,51.85-62.59,87.78-83.35A219.87,219.87,0,0,1,939.28,255.66Z" transform="translate(-482.71 -141.9)"/><path class="cls-2" d="M957.89,862.72c-.91-2.15-.55-4.42-.57-6.63q-.95-79.71-1.83-159.41-1.71-141-3.53-281.91-1-78.58-2.05-157.17a18.92,18.92,0,0,1,.27-5,5.58,5.58,0,0,1,5.35-4.35,5.8,5.8,0,0,1,6,4.3,19.3,19.3,0,0,1,.32,4.44q2.39,193.26,4.77,386.51,1.35,106.28,2.83,212.55c0,3.34.42,6.7-.23,10-2.05.14-3.65-1-5.35-1.8C962,863.37,960.13,862.37,957.89,862.72Z" transform="translate(-482.71 -141.9)"/><path class="cls-2" d="M750.11,782.66c.14-.87.31-2.17.58-3.46q26.71-126.75,53.43-253.51,28.39-134.76,56.74-269.54c.23-1.1.36-2.23.68-3.31.78-2.61,2.46-4.26,5.39-4.21a6.11,6.11,0,0,1,5.58,4.92,10.17,10.17,0,0,1-.36,4.45q-42.57,203.6-85.09,407.19-12.12,58-24.25,116a35.79,35.79,0,0,1-.93,3.84c-1.12,3.5-3.28,5.18-6.1,4.86C752.6,789.55,750.2,786.66,750.11,782.66Z" transform="translate(-482.71 -141.9)"/><path class="cls-2" d="M1164.1,780.86c-3.58-16.74-7.22-33.46-10.73-50.21q-29.17-139.56-58.32-279.12-20.28-97-40.61-194a8.07,8.07,0,0,1,.31-5.5,5.73,5.73,0,0,1,5.52-3.41,4.81,4.81,0,0,1,4.67,3.59c.45,1.43.71,2.92,1,4.39q41.52,197.25,83,394.5,12.91,61.33,25.86,122.65c.35,1.64.46,3.33.68,5-2.43,0-4.88.08-7.3-.14C1166.23,778.45,1165.15,779.53,1164.1,780.86Z" transform="translate(-482.71 -141.9)"/><path class="cls-3" d="M957.89,862.72c2.24-.35,4.08.65,6,1.56,1.7.82,3.3,1.94,5.35,1.8a89.6,89.6,0,0,1,.26,14.56,11.55,11.55,0,0,0,.1,10c.35,9.7.65,19.41.11,29.12-1.6,1.74-3.25,3.46-4.81,5.25s-3.69,3-6.38,2.55l-.12-11.2a7.32,7.32,0,0,0-.09-7.74C957.86,893.3,957.62,878,957.89,862.72Z" transform="translate(-482.71 -141.9)"/><path class="cls-2" d="M958.5,927.52c2.69.47,4.69-.62,6.38-2.55s3.21-3.51,4.81-5.25q.25,7.44.5,14.88a8.09,8.09,0,0,1,0,1.1c-.39,3.61-2.45,5.9-5.44,6.08-3.15.19-5.74-2.18-6.12-6C958.33,933,958.52,930.27,958.5,927.52Z" transform="translate(-482.71 -141.9)"/><path class="cls-2" d="M1176,781a3.83,3.83,0,0,1,.3,3.18c-.68,3.09-2.93,5.31-5.48,5.55s-4.44-1.48-5.68-5.49C1168.92,783.71,1172.67,783,1176,781Z" transform="translate(-482.71 -141.9)"/><path class="cls-3" d="M1176,781c-3.33,2-7.08,2.68-10.86,3.24a4.65,4.65,0,0,1-1-3.41c1.05-1.33,2.13-2.41,4.15-2.23,2.42.22,4.87.11,7.3.14A2.25,2.25,0,0,1,1176,781Z" transform="translate(-482.71 -141.9)"/><path class="cls-2" d="M969.58,890.6a11.55,11.55,0,0,1-.1-10A31.39,31.39,0,0,1,969.58,890.6Z" transform="translate(-482.71 -141.9)"/><path class="cls-2" d="M958.29,908.58a7.32,7.32,0,0,1,.09,7.74A19.4,19.4,0,0,1,958.29,908.58Z" transform="translate(-482.71 -141.9)"/><path class="cls-4" d="M1075.6,142.87c20-.28,39.9-.68,59.86-1,7.69-.11,8.66.64,11.14,8q34.14,101.42,68.25,202.85,49.45,147,99,293.87c2.13,6.3,2.73,12.12.56,18.43-1.61,4.7-2.56,9.63-3.87,14.44-.83,3.07-2,5.94-5.77,6.31-3,.3-5.25-1.47-6.9-5.81q-10.1-26.62-20.06-53.31-57.57-153.23-115.12-306.45-11.43-30.44-22.9-60.85c-2.51-6.63-1-6-9-6q-123.76.13-247.52.32-44.32.07-88.65.3c-6.55,0-5.79-.39-8.22,5.67Q733.63,391.59,680.8,523.53q-28,70-56.11,139.89a30.94,30.94,0,0,1-1.88,4.19,5.51,5.51,0,0,1-5.78,2.94,5.29,5.29,0,0,1-4.75-4.39c-.87-4.12-1.25-8.35-2.2-12.45-1.56-6.78-.56-13.06,1.72-19.64q75.66-218,151-436,7.44-21.47,14.92-42.93c2.51-7.18,3.69-8,11.23-8.12q65.63-.92,131.23-1.79c14.2-.17,28.39,0,42.59,0C962.79,144.93,1038,143.41,1075.6,142.87Z" transform="translate(-482.71 -141.9)"/><path class="cls-5" d="M1134.69,252.94c.24,2.14.47,4.27.7,6.41-.18,1.08-.35,2.16-.52,3.24-1.27,2.27-3.43,1.37-5.21,1.38q-29.64.22-59.26.3-110.69.15-221.36.23-27.9,0-55.78.12a34.16,34.16,0,0,1-4.64-.12c-2-.26-3.26-1.63-2.77-3.69.85-3.55.79-7.48,3.63-10.32.77,0,1.54.09,2.32.09h335.38c1.92,0,3.85-.24,5.77-.37a.66.66,0,0,1,.62.42A2.46,2.46,0,0,0,1134.69,252.94Z" transform="translate(-482.71 -141.9)"/><path class="cls-6" d="M1138.88,250.21c-2,.13-3.92.37-5.87.37H791.9c-.79,0-1.57-.06-2.36-.09,2.12-2.15,4.83-1.18,7.25-1.18q85.59-.08,171.18,0,82,0,164.09,0C1134.33,249.32,1136.8,248.49,1138.88,250.21Z" transform="translate(-482.71 -141.9)"/><path class="cls-6" d="M1140.65,252.94a2.43,2.43,0,0,1-1.14-2.31C1141,250.87,1141.09,251.77,1140.65,252.94Z" transform="translate(-482.71 -141.9)"/><path class="cls-6" d="M1140.83,262.59c.17-1.08.35-2.16.52-3.24C1142.17,260.59,1142.7,261.79,1140.83,262.59Z" transform="translate(-482.71 -141.9)"/><path class="cls-7" d="M1128.9,263.36l5.24-13.33c.83.4,2.17.61,2.42,1.25q14.45,36.35,28.67,72.78,73,188.35,145.82,376.77c1.32,3.41,1.43,7.31,2.11,11-1.93-3.08-4.34-5.95-5.69-9.27q-83.23-204.67-166.29-409.41c-3.43-8.46-7.11-16.82-10.65-25.24C1130,266.62,1129.6,265.31,1128.9,263.36Z" transform="translate(-482.71 -141.9)"/><path class="cls-8" d="M796,266c-.53,1.47-.93,2.78-1.46,4Q737.71,404.15,680.94,538.28q-31.28,74-62.47,147.93c-.73,1.74-2.35,3.08-3.56,4.6.06-2.14-.47-4.54.27-6.4q28.32-71,56.89-142,57.73-143.85,115.5-287.69a42.46,42.46,0,0,1,2.11-4c.68,1.4,1.45,2.77,2,4.21C793.16,258.62,794.54,262.32,796,266Z" transform="translate(-482.71 -141.9)"/><path class="cls-9" d="M1046.19,212.42a23.41,23.41,0,0,1,4.36-3,4.63,4.63,0,0,1,3.42.52c.3.16,0,2-.4,2.87-.86,1.64-3.68,2.95-1.9,5a9.21,9.21,0,0,0,5.71,2.57c6.06.56,11.06-1.61,14.42-6.93,3-4.83,2.16-8.71-2.87-11.32a38.94,38.94,0,0,0-6.67-2.31c-1.56-.48-3.24-.61-4.73-1.24-2.87-1.21-3.73-3.1-3.1-6.11,1.66-7.92,11-16.06,19-16.56,3.17-.2,6.32.12,8.12,3.23s.78,6-.74,8.83a5.54,5.54,0,0,1-2.22,2.3,3.64,3.64,0,0,1-3,.23c-.58-.36-.83-1.91-.62-2.79.43-1.77,1.64-4-.39-4.86a8.93,8.93,0,0,0-6.12.27,12.29,12.29,0,0,0-7,6.58c-.82,1.92-.35,3.19,1.72,3.69s3.94.74,5.85,1.3c11.25,3.23,14.18,11.66,7.47,21.35-5.61,8.1-13.44,11.61-23.09,10.33-7.82-1-9.77-4.15-8.44-11.81,0-.27-.26-.61-.66-1.5a37.09,37.09,0,0,0-2.87,2.91c-6.17,7.72-14.29,12.25-23.81,14.37-5.71,1.27-7.53-.44-6.51-6.15q3.6-20.43,7.4-40.82c.74-4,1.85-5.05,5.91-4.27a42.84,42.84,0,0,1,11.39,3.47c9.47,4.78,13.28,14.19,10.38,24.37-.47,1.66-1,3.29-1.51,4.94Zm-29,12.11c9.72-2.7,17.08-7.07,21.61-15.11,7.62-13.51-3.4-24.31-14.52-23.8C1022,198.25,1019.62,211,1017.16,224.53Z" transform="translate(-482.71 -141.9)"/><path class="cls-9" d="M896.79,184.68l-15-1a19.44,19.44,0,0,1-1.83,3.86,9.72,9.72,0,0,1-3.52,3.12c-1.56.72-2.87,0-2.77-2.06a3.28,3.28,0,0,1,.25-1.06c.69-1.72,1.59-3.92-.45-4.82a7.22,7.22,0,0,0-5.62.2,21.6,21.6,0,0,0-6.6,5.45c-2.3,2.91-1.5,4.3,2.08,5.25a52,52,0,0,1,8.81,2.7c6.23,2.94,8.17,7.92,6.1,14.45-3.18,10-15,17.42-25.34,15.67a20.42,20.42,0,0,1-6.59-2.41c-3.18-1.81-4.22-4.65-2.55-7.9a26.76,26.76,0,0,1,5.43-6.61c.61-.58,2.31,0,3.52,0a14.68,14.68,0,0,1-.31,3.41c-.55,1.61-2.37,4.14-2,4.48a11.6,11.6,0,0,0,5.54,2.9,14.82,14.82,0,0,0,15.42-8c2.08-4.15,1.33-7.49-2.69-9.75a42.75,42.75,0,0,0-7.61-2.82c-1.54-.52-3.24-.64-4.72-1.28a4.74,4.74,0,0,1-3.11-5.65c1.45-8.37,11.92-17.42,20.35-16.91,2.86.18,5.63,1.91,8.82,3.06a77.21,77.21,0,0,1,7.84-.75c9.64,0,19.28.1,28.92.19a14,14,0,0,1,4.32.26c1,.34,2.29,1.54,2.34,2.42a3.93,3.93,0,0,1-1.93,2.84,7.79,7.79,0,0,1-3.71.52c-4.18,0-8.37.11-12.54-.2-3.14-.23-4.51,1.05-5.43,3.93-3.4,10.74-7,21.42-10.57,32.11a12.69,12.69,0,0,1-2.07,4.35,3.6,3.6,0,0,1-3.29.83c-.79-.35-1.37-2-1.34-3.07a15.41,15.41,0,0,1,1.2-4.17c3.13-9.49,6.28-19,9.38-28.48C896.05,188.31,896.3,186.74,896.79,184.68Z" transform="translate(-482.71 -141.9)"/><path class="cls-9" d="M934.48,192.15c-4.14.21-8.28.61-12.42.6-8.33,0-8.34-.11-10.87,7.74-.27.83-.43,1.69-.81,3.22,3.56.35,6.74.64,9.92,1,1.44.16,3.37.37,2.84,2.32-.27,1-2.06,2-3.23,2.12-2.7.17-5.44-.38-8.16-.33-1.31,0-3.32.33-3.79,1.18a21.89,21.89,0,0,0-3.27,10.4c5.39,0,10.43-.07,15.46,0,2,0,5.12-.77,5.06,2.32-.05,2.53-3,2.12-4.9,2.12-6.19,0-12.38,0-18.57-.07-5-.07-5.63-.92-4-5.42,3.3-9.06,6.73-18.08,10-27.14,1-2.84,2.61-4.7,5.93-4.54,6,.28,12,.38,18,.72,1.55.09,3,.8,5.1,1.37.63-2.55,1.28-4.94,1.81-7.36,1.55-6.95,1.89-7.31,9.14-6.67a30.17,30.17,0,0,1,8,1.66c10.11,3.84,12.78,14.43,5.58,22.51-2.37,2.66-5.5,4.63-8.53,7.13.74,1.18,1.64,2.5,2.45,3.87a16.53,16.53,0,0,1,2,13.13,7.87,7.87,0,0,1-2.59,3.89c-1.53,1.18-3.38.13-3.46-1.82s.3-3.64.21-5.44c-.32-6.34-4.84-10.86-11.9-11.59-1,4.33-1.93,8.72-2.93,13.1-.33,1.41-.4,3.11-1.25,4.11a5.57,5.57,0,0,1-3.93,2c-2.27-.21-1.81-2.26-1.47-3.9,1.79-8.55,3.61-17.1,5.36-25.66.36-1.76.46-3.58.68-5.37l.09-1.71Zm10.46-10c-1.43,6.82-2.83,13.44-4.24,20.14,7.24.64,12.57-1.14,16.1-5.08,3.82-4.26,3.31-9.43-1.36-12.71A13.27,13.27,0,0,0,944.94,182.12Z" transform="translate(-482.71 -141.9)"/><path class="cls-9" d="M834.78,209.4c-5.09.58-9,.85-12.9,1.59-1.23.23-2.36,1.56-3.3,2.61-3.89,4.32-7.69,8.72-11.53,13.09-.72.82-1.43,1.65-2.22,2.4-1.28,1.25-3,2.09-4.21.47a4.05,4.05,0,0,1,.25-3.81c3.11-4,6.48-7.83,9.83-11.67q16.49-18.9,33-37.73c1.48-1.69,2.82-4.51,5.66-3.09,3.17,1.58.92,4.24.36,6.25-3.93,14.18-8,28.32-12.1,42.46-.4,1.38-.74,3-1.67,3.95a5,5,0,0,1-3.65,1.27c-.5,0-1.35-2.11-1.18-3.11.49-2.85,1.45-5.62,2.18-8.44C833.79,213.93,834.14,212.19,834.78,209.4Zm-7.62-5.87c9.68.4,9.74.35,12-7.54.64-2.24,1.29-4.47,1.94-6.71l-.92-.56Z" transform="translate(-482.71 -141.9)"/><path class="cls-9" d="M964.08,211.32a36.58,36.58,0,0,1,6.51-20.58,30.18,30.18,0,0,1,7.19-7.29c6.77-4.65,14-2.57,17.78,4.76,2.74,5.38,2.91,11.13,2.1,17a35,35,0,0,1-7.72,18.29,26.46,26.46,0,0,1-7.48,6.13c-5.53,3-11.14,1.26-14.76-3.91C964.74,221.5,964.08,216.7,964.08,211.32ZM992,199a25.63,25.63,0,0,0-.53-4.61c-.79-3-1.71-6.16-5.27-7s-6,1-8.13,3.41c-6,6.76-8.38,14.78-8,23.67a18,18,0,0,0,1.36,5.81c2,5,6.22,6.14,10.5,2.85a20.91,20.91,0,0,0,4.39-4.8C990.16,212.75,992,206.53,992,199Z" transform="translate(-482.71 -141.9)"/><path class="cls-9" d="M1012.92,184.67c-.4,1.88-.63,2.94-.85,4q-4,18.88-7.92,37.77a11.51,11.51,0,0,1-1.25,4.09,3.66,3.66,0,0,1-3.07,1.39c-.89-.22-1.78-1.62-2.09-2.67s.17-2.13.39-3.18q4.07-19.71,8.15-39.39c.19-.89.21-2,.76-2.57.88-1,2.34-2.33,3.18-2.11C1011.4,182.32,1012.23,183.93,1012.92,184.67Z" transform="translate(-482.71 -141.9)"/><path class="cls-10" d="M1101.53,226.88A8.53,8.53,0,0,1,1094,223a4.42,4.42,0,0,1,0-5c2.61-4.07,8.79-3.64,11.76-1.13a5.16,5.16,0,0,1,1.5,6.56A6.65,6.65,0,0,1,1101.53,226.88Z" transform="translate(-482.71 -141.9)"/><path class="cls-11" d="M1099.16,206.24c-3.53-.05-7.08-3.43-7.09-6.77s3.21-6.15,7.18-6,7.92,3.45,7.59,6.91A6.74,6.74,0,0,1,1099.16,206.24Z" transform="translate(-482.71 -141.9)"/><path class="cls-12" d="M1007.83,946.43q-206.36,0-412.71,0c-33.18,0-66.35.39-99.53.54a31.5,31.5,0,0,1-7.7-.75c-4.38-1.08-6.11-4.1-4.71-8.42,1.32-4,3.12-7.92,4.8-11.84q30.88-72,61.8-144,29.12-67.92,58.14-135.88c2.18-5.1,4.35-10.22,6.58-15.31a15.07,15.07,0,0,1,1.88-3.38c3.14-4,8-3.7,10.43.73a33.68,33.68,0,0,1,2.23,5.68q17.41,51.6,34.78,103.21c2.17,6.45,1.42,5.62,8.11,5.74q36.69.62,73.37,1.22,30.57.53,61.14,1.09c21.86.39,43.72.73,65.58,1.16,9.07.17,18.14.73,27.21.71a12.37,12.37,0,0,1,11.18,5.95q10.58,16,21.15,32,13.8,20.86,27.62,41.7c2.52,3.77,3.31,3.75,5.74-.1q20-31.69,40-63.46c2.37-3.76,4.9-7.43,7.16-11.26,2.5-4.22,5.87-6,10.94-6q76.18-.35,152.36-1.06,44.49-.37,89-.91c4.91-.06,4.94-.07,6.25-5l25.5-96.64c.38-1.43.73-2.88,1.23-4.27,1.37-3.84,3.16-5.31,6.21-5.39,3.32-.08,5,1.92,6.24,4.63q2.38,5.33,4.75,10.66,14.37,32.53,28.73,65.07,15.46,35.07,30.89,70.18c7.94,18,16,35.86,23.94,53.82q15.84,35.84,31.6,71.69c3.44,7.8,6.92,15.58,10.38,23.36.38.85.81,1.67,1.16,2.53,2.87,7.1,1.31,9.94-6.31,10.8a150.82,150.82,0,0,1-16.58,1.09q-205.24.09-410.49,0Z" transform="translate(-482.71 -141.9)"/></svg>