<?xml version="1.0" encoding="utf-8"?>
<!-- Generator: Adobe Illustrator 26.0.3, SVG Export Plug-In . SVG Version: 6.00 Build 0)  -->
<svg version="1.1" id="Layer_1" xmlns="http://www.w3.org/2000/svg" xmlns:xlink="http://www.w3.org/1999/xlink" x="0px" y="0px"
	 viewBox="0 0 934.9 1033.5" style="enable-background:new 0 0 934.9 1033.5;" xml:space="preserve">
<style type="text/css">
	.st0{fill:#C0A6FE;}
	.st1{fill:#D6C3FD;}
	.st2{fill:#B691FE;}
	.st3{fill:#FFFFFF;}
</style>
<g>
	<path class="st0" d="M894.8,440.4c0.4,11.2-0.6,22.4-1.3,33.6c-1.1,15.4-3,30.7-5.8,45.8c-2.2,12.6-4.8,25.1-8.2,37.4
		c-5.3,19-11,37.9-18.4,56.2c-3.8,9.4-7.4,18.9-11.5,28.2c-1,2.2-3,4.7-0.6,7.4s5.1,0.6,7.3-0.2c9.5-3.6,18.2-8.9,25.8-15.7
		c13.4-11.8,21.9-26.4,27.9-42.8c4.4-12.2,8.5-24.5,12.7-36.8c0.9-2.5,1.2-5.2,2-7.7c0.7-2.4,1.5-5.3,4.4-5.2c2.7,0.1,3,3,3.5,5.3
		c1.4,6.4,1.1,12.8,0.4,19.1c-0.7,6-1.9,11.9-1.8,18c0.4,11.4,0,22.8-1,34.1c-0.8,7.2-2.5,14.4-4.8,21.2
		c-3.3,10.1-7.2,20.1-11.5,29.8c-3.2,7.1-6.2,14.3-10.1,21.1c-8.1,14.4-13.4,29.8-17.3,45.8c-3.7,15.4-9.3,30.2-15.2,44.9
		c-6.5,15.8-14.2,31.1-23.2,45.6c-5.8,9.3-11.2,18.7-17.8,27.3c-6.1,7.9-12,15.8-18.4,23.5c-9.3,11-19.2,21.5-29.7,31.5
		c-5.8,5.5-12,10.5-18.1,15.7c-13.7,11.6-28.5,21.9-43.4,31.8c-7.3,4.9-14.5,10.3-23.3,12.7c-4.7,1.2-8.6,4.2-12.6,6.7
		c-5.1,3.3-10.5,5.9-16.3,7.8c-1.4,0.4-2.7,0.9-4,1.6c-3,1.8-3.2,3.2-1.2,6.2c2.1,3.2-0.4,8.3-5,9.8c-2.8,1-5.8,1.8-8.7,2.4
		c-4.1,0.7-7.7,3-10,6.5c-3.3,4.7-7,8.9-12.1,11.6c-2.8,1.6-5.1,4-6.5,6.9c-2.6,4.8-7.3,6.7-12.6,5.8c-15-2.3-29.5-6.3-43.9-10.9
		c-12-3.8-23.7-8.7-35.5-13.3c-6.6-2.6-13.1-5.6-19.7-8.2c-10.3-4.1-19.7-9.8-29.3-15.4c-4.6-2.7-7-1.3-7.3,3.9
		c-0.7,11.1,1.8,21.1,9.3,29.7c1.6,1.9,2.8,4.1,3.8,6.4c1.9,4.2,0.1,6.8-4.6,7c-4.1,0.2-6.9-2.5-10-4.6c-2.7-2-5.3-4.2-7.7-6.5
		c-1.1-0.9-2.3-1.6-3.7-1.9c-8.3-2.1-15.2-6.6-21.4-12.5c-10.7-10.3-18.3-22.6-24.4-36c-2-4.5-4.2-9-5.9-13.7
		c-0.6-1.3-1.4-2.5-2.4-3.5c-1.8-1.9-3.3-1.9-5.5-0.3c-3.2,2.5-6.3,5.3-9.1,8.2c-11.1,10.5-23.6,19.6-37,26.9
		c-22.5,12.5-46.8,19.5-71.9,24.2c-11,2.1-22.1,2.9-33.3,3.8c-10.8,0.9-21.6,2.1-32.4,1.8c-7-0.2-13.7-2.2-20.2-4.6
		c-1.6-0.7-3.1-1.7-4.4-2.9c-2.1-1.8-2.1-3.6,0.1-5.3c3.5-2.8,5.5-6.3,7.2-10.4c2-4.7,5.5-8.7,8.7-12.7c6.8-8.8,15.1-16.1,22.9-23.9
		c2.6-2.6,5.9-4.6,8.4-7.4c2.3-2.7,2-4.5-1.3-5.6c-2.9-0.9-5.8-1.5-8.8-1.8c-10.3-1.8-20.6-3.5-30.9-5.1c-4.6-0.7-9.2-1.2-13.8-1.3
		c-15.8-0.5-31.5-1.6-47.1-4.5c-1.4-0.3-2.8-0.7-4.1-1.2c-7.5-3-9.1-10.4-3.7-16.3c6.7-7.2,14.3-13.3,22-19.4
		c11.6-9.3,23.8-17.9,35-27.8c4.7-4.1,9.6-7.9,14.1-12.2c1.2-1.1,2.2-2.3,2.9-3.8c0.9-1.9,0.8-3.4-1-4.6c-1.4-1.1-3-2-4.6-2.8
		c-12.7-5.1-23.8-12.8-35-20.3s-22.5-15.6-33.2-24c-6.5-5-13-10-18.7-15.9c-3.4-3.5-7.5-6-10.7-9.6c-5.8-6.5-11.8-12.8-17.3-19.6
		c-7.9-9.8-15.2-20.1-21.7-30.9c-7.1-11.9-13.3-24.3-18.4-37.2c-6.9-17.1-12.6-34.7-16.8-52.7c-3-12.4-4.8-25.1-7.2-37.6
		c-1.9-10-2.7-20-3.9-30c-1.7-15.4-2.1-30.9-1.1-46.4c0.6-10.7,1.4-21.7,5.7-31.8c1.7-4.2,1.8-8.8,0.2-13c-3.3-9.5-5.1-19.2-7-29
		c-1.3-6.8-3.8-13-9-17.8c-2.4-2.2-2-5.6-3.5-8.2c-0.8-1.4,0.9-2.6,3.1-2.3c6.5,1.1,12.7,3.8,17.8,8c7.6,5.9,14.8,12.3,21.6,19.1
		c6.8,6.8,12,15,15.2,24.1c1,2.9,1.3,5.9-1,8.6c-1.8,2.1-1.6,4.1,0.6,6c3.7,3.1,6,7.5,9.7,10.7c1.1,1.1,2.4,2.1,3.8,2.9
		c1.2,0.5,2.3,1,3.5,0.1s0.8-2.1,0.4-3.4c-1.6-5.1-3-10.3-4.7-15.3c-5.8-16.7-9.3-33.9-12.7-51.1c-2-10.3-3.3-20.6-4.4-31
		c-0.9-8.7-1.4-17.3-2.2-26c-1.8-20.5-1.1-41-0.6-61.4c0.2-10.8,1-21.6,2.6-32.3c1.1-7,1.5-14.1,2.5-21.1
		c2.4-17.7,4.8-35.5,9.9-52.7c2-6.7,5-12.9,7.2-19.5c0.1-0.2,0.5-1.5,1.2-4.1c6-19.9,5.8-19.5,6.2-20.4c1.5-4.4,2.4-7.4,4.3-13.3
		c0.6-1.9,0.9-3.8,1-5.8c0-0.9,0-1.9-0.1-2.8c-0.3-2-0.8-3.9-1.7-5.7c-1.9-4.4-3.4-5.9-3-6.3c0.6-0.6,4.2,1.9,6.9,4.1
		c5.1,4.2,8.2,8.3,8.6,9.2c2,4.6,3.8,9.2,6.5,13.4c3.4,5.2,4.7,11.2,5.4,17.2c2.6,21.7,9.3,42.2,18.1,62.1
		c5.1,11.3,10.5,22.5,16.3,33.6c10.7,19.9,22.6,39.1,35.8,57.5c1.8,2.6,4.4,4.6,6.2,7.4c0.4,1,1.6,1.4,2.5,0.9
		c0.1,0,0.1-0.1,0.2-0.1c1-0.5,1.4-1.7,1.1-2.8c-0.4-1.9-1-3.8-1.6-5.6c-6.9-16.4-12.5-33.3-16.7-50.6c-3.1-13.2-5.1-26.5-7.2-39.8
		c-1.8-11.4-2.3-22.9-4-34.3c0-0.4,0-0.7-0.1-1.1c-2.2-38-3.1-57.3-0.9-80.2c0,0,3.1-31.4,11.4-51.6c0.4-1,1.5-3.7,3.3-8.1
		c2.4-5.8,5.8-11.3,7.2-17.4c0.2-1.2,0.8-2.4,1.6-3.3c2.5-2.8,3.7-2.9,6.6-0.4c2.5,2.3,4.2,5.3,4.9,8.6c2.3,9.1,3.4,18.5,6.6,27.4
		c2.9,8.2,6.8,16,10.7,23.7c5,9.9,11.8,18.6,18.2,27.5c2.1,2.9,5.2,5,8.7,5.9c8.4,2.2,15.1,7.1,20.9,13.3
		c6.2,6.5,13.8,11.1,20.7,16.8c12.3,10.2,24.5,20.6,34.7,33.1c1.7,2.1,3,4.4,3.7,7c0.9,3.3,2.7,6.2,5.2,8.5c4.6,4.2,9,8.6,13.7,12.7
		c6.8,6,12.5,13.1,18.3,20.1c1.6,1.9,3.4,3.7,5.3,5.3c2.7,2.2,5.5,1,5.6-2.4c0-6.2,0.5-12.4-0.6-18.6c-0.9-5.2-0.8-10.6-1.4-15.9
		c-1.4-13.6-2.6-27.1-5.1-40.6c-1.7-9.4-2.9-18.9-4.7-28.3c-2.3-12.4-4.8-24.7-7.7-37c-11.5-49.2-11.9-53.8-13.4-61.8
		c-5.5-27.9-5.6-36-6.8-38.7c-0.1-0.2-0.6-1.3-0.2-1.5c0.5-0.4,2.4,1.4,4.3,2.8c2.3,1.6,4.8,3,7.4,4.2c6.1,3.2,11.9,7,17.3,11.4
		c7.5,6.1,16,10.6,24.4,15.2c6.3,3.3,12.4,7,18.3,10.9c5.7,4,12.1,6.8,18,10.3c9.7,5.8,18.2,13,26.6,20.4
		c14.5,12.8,27.7,26.8,41.2,40.5c6.7,6.8,13.5,13.7,19.9,20.9c10.1,11.4,20,23,29.3,35.2c3.1,4.1,7.2,7.5,10.8,11.1
		c10.3,10.3,19.4,21.7,29.1,32.7c3.1,3.6,7,6.5,9.8,10.5c0.7,1,1.8,1.9,3.2,1.2c1.2-0.6,1-1.8,1-2.8c0.3-3.6-0.8-7.1-1.6-10.5
		c-4.3-17.6-10.5-34.7-17.2-51.5c-4.3-10.9-10.4-21-16.6-30.9c-9.3-14.7-19.6-28.8-30.8-42.1c-8.1-9.7-15.9-19.6-24.2-29
		c-3.7-4.2-6.8-9.1-10.1-13.7c-2.5-3.5-5.6-6.6-9-9.1c-4.6-3.6-8.7-7.9-12.2-12.6c-1.4-1.5-1.7-3.6-0.9-5.5c0.8-2,2.6-2.6,4.8-2.7
		c9.6-0.5,18.7,1.7,27.8,4.1c15,3.9,29.4,9.4,44.3,13.8c10,3.1,19.7,7.2,29,12c11.3,5.7,21.7,12.9,32.1,19.9
		c11.8,7.9,22.8,17,33.8,25.8c14.8,11.8,28,25.4,41.1,38.9c7.8,8.1,16.9,14.7,25.2,22.2c8.4,7.7,16.7,15.6,24,24.4
		c2.6,3.2,5.2,6.3,8,9.3c9.7,10.4,18.8,21.3,27.5,32.6c0.9,1.2,1.9,3,3.8,1.9c1.7-1,1.3-2.7,0.9-4.3c-2.7-10.1-5.3-20.2-8-30.4
		c-0.4-1.7-0.9-3.4-1.3-5.2c-2.6-10.4-9.2-18.7-14.9-27.4c-0.6-1-2-1.5-2.9-2.3c-3.8-3.1-5.9-7-5.6-12.1c0.2-3,0.7-3.4,3.6-3
		c7.8,1.1,14.9,3.3,19.6,10.3c11.1,7,18.3,18.4,29.7,25.1c5.3,3.1,10.1,7.3,14.9,11.2c5.4,4.4,9.3,10.3,13.4,15.9
		c9.9,13.3,19,27.1,27.5,41.3c7.2,12.4,13.5,25.4,19,38.6c4.8,11.7,9.7,23.3,14.2,35.1c3.7,10,6.6,20.3,8.8,30.7
		c2.2,9.9,4,19.8,5.7,29.8c2,10.6,3.4,21.3,4.3,32.1C893.6,418.8,894.9,429.6,894.8,440.4z"/>
	<path class="st1" d="M27,581.3c2.7-4.6,5.9-11.8,5.7-20.5c-0.3-10.4-5.3-13.5-8.8-27c-2.4-9.5-3-19.4-1.8-29.2
		c1.8-14.4,6.6-17.3,5.9-30.3c-0.1-2.7-1.1-7.5-3.1-16.9c-3.2-15.7-5.1-19.7-6.3-21.8c-1.7-3-3.3-4.9-2.7-5.6
		c1.5-1.9,15.3,5.4,24.5,13.3c10.8,9.4,19.9,20.7,26.7,33.3c9,16.6,28,51.8,17.6,86.1c-3.8,12.5-8,28.7-10.8,42.9
		c-1.2,6,1,12.6,1.4,18.9c0.2,3.8,1.4,8.6-0.3,11.4c-8.8,14.9,3.1,24,8.6,35.2c9.1,18.7,17.5,37.7,26,56.7c0.7,1.6-0.2,3.9-0.3,5.9
		c-1.8-0.4-4.1-0.3-5.2-1.4c-8.5-8.7-17.5-17-25-26.5c-11.9-15.2-22.8-31.3-34.1-47c-12.4-17.3-13.4-37.9-16.2-57.8
		C27.9,594.9,27.6,588.8,27,581.3z"/>
	<path class="st1" d="M246.6,247.3c-8.1,38.5,3.1,73.2,16.1,107.5c2.8,7.3,9.5,12.8,13.7,25.2c5.4,16.1,3.7,28.6,14.2,38.6
		c3,2.9,5.4,4,5.1,5.5c-1,4-21,5.8-37.1-2.5c-7.7-4-12-8.9-18.5-16.3c-8-9.1-14.4-19.4-19-30.6c-5.2-12.8-6.5-23.1-7.8-34.3
		c-5.5-46.7-6.1-60.1-9.4-96.9c-1.4-15.1-2.4-25.3-1-39.8c1.1-12.7,3.9-25.1,8.4-37.1c2.2-5.9,4.8-11.6,7.8-17.1
		c-0.3,3.9,0,7.8,0.8,11.7c0.2,1.2,0.5,2.3,0.9,3.5c3,9.8,15.2,39.1,20.7,55.7C244.3,229.3,245,238.9,246.6,247.3z"/>
	<path class="st1" d="M781.9,251.7c1.7,14-1.6,25.5-10.7,36.7c-9.3,11.4-9.5,25.6-6.2,39.7c4.5,19.5,2.3,36.7-14.9,50.3
		c-5.7,4.5-7.3,14.1-13,18.4c-9.9,7.5-21.4,13-32.5,18.8c-1.7,0.9-7-1-7.4-2.4c-1-4-1.6-9,0-12.6c4.9-11,10.6-21.7,17-31.9
		c8-12.5,12.3-25.6,10.6-40.4c-2.6-22.1,6.5-40.4,21.9-54.3c8.6-7.8,14.5-15.6,16.8-25c2.6-10.3,1-15.9,0.2-18.9
		c0,0-1.7-5.9,0.4-7.6c0.2-0.1,0.4-0.3,0.5-0.5c0.9-1.2,0.6-2.9,0.4-3.8c-0.5-2.2-2.5-10.1-5.5-20.8
		C772.4,212.6,780.2,231.7,781.9,251.7L781.9,251.7z"/>
	<path class="st1" d="M625.9,311.7c-2.6,12.3-7.9,19.3-18.9,18.3c-13.4-1.1-19.2,7.8-26.4,15.6c-7,7.4-12.9,17.2-25.1,15.3
		c-12.7-2-16.9-14-10.6-25.9c10.7-20.4,19.1-41.5,18.4-65.4c-0.5-15.7-7.5-15-18.5-53.4c-3.3-11.4-5.3-20.9-6.6-27.1
		c6.4,5.8,12.3,12.1,17.8,18.8c5.6,6.9,7.4,10.2,13.3,16.5c4.7,5,11,8.7,15.2,14c7.8,9.6,15.6,19.5,21.6,30.3
		C613.6,282.4,619.4,297.2,625.9,311.7z"/>
	<path class="st1" d="M463.9,288.3c5.2,9.4,11.7,23.5,10.6,33.7c-0.1,1-0.5,4.8-1.6,4.9c-1.3,0.1-2-5.1-5-10.3
		c-4.1-7.1-8.3-6.7-14.4-13.4c-2.3-2.6-3-4-9.4-17c-10.5-21.4-4.7-9.2-10-20.1c-10.6-22-11.1-23.5-14.8-31
		c-9.3-18.8-10.4-18.8-14.7-28.1c-17.7-38.5-15-75.3-14-85.3c0.6-5.5,1.4-11,2.5-16.4c2.1,2.5,5.4,4.8,6.1,7.6
		c5,20.3,7,41.8,14.7,61c9.3,23.3,22.5,45.1,35.4,66.8C458.2,255.5,463.3,270.8,463.9,288.3z"/>
	<path class="st1" d="M874.1,712.1c-4.7,9.8-8.2,19.9-13.8,28.6c-12.5,19.5-25.7,38.5-39.3,57.3c-2.7,3.8-7.8,6.4-12.3,8
		c-6.7,2.5-11-2.3-9.6-7.9c3.3-12.8,6.7-26.1,13.3-37.3c11.2-19.2,24.9-37,37.5-55.4c0.5-0.9,1.3-1.7,2.2-2.3
		c4.6-2.3,10.4-7.2,13.6-5.8C869.4,699,870.9,706,874.1,712.1z"/>
	<path class="st2" d="M-106.4-113.1"/>
	<path class="st3" d="M894.8,440.4c0,0-2.2,107-50.1,169.7c-9.8,12.7-22,23.3-36,31.2c-3.7,1.9-7.6,3.6-11.6,5
		c-0.8-3.1-1.6-6.3-2.6-9.3c-0.3-1-1.5-2.5-2.1-2.4c-7.4,1.1-13.4,1.3-11.9-9.5c0.8-6-2.5-13.2-0.4-18.4
		c10.8-27,23.6-53.3,34.2-80.5c25.2-64.7,39.4-131,27.3-201c-4-22.9-2.7-47.3-10-68.9c-11.8-34.7-32.3-65.4-59.1-91.1
		c0,0-6.9-7.4-23.3-20.2c-4.6-3.7-10.1-6.1-15.9-7.1c6.4-0.6,12.8-0.3,19.1,1c14.7,3,25.1,10.7,35.7,20.2
		c32.9,29.7,48.9,55.1,48.9,55.1c6.4,10.1,35.9,58.2,50.3,138.8C890.5,371.7,895.6,401.1,894.8,440.4z"/>
	<path class="st3" d="M248.8,453.5c-11.7-8.4-20.1-15.6-29.6-20.8c-4-2.2-10.3-0.7-15.5-0.2c-4.1,0.4-8.2,3.1-12,2.7
		c-33.4-3.7-87.7-52.2-92.9-85.2c-3.2-19.8,2.3-12.8-1.4-54.9c-3.2-35.6-13-90.8-11.4-113.7c0.2-3.3,1.8-8.7,1.5-16.8
		c-0.1-2-0.4-5.8-0.3-11.4c0-3.8,0.9-7.5,2.4-10.9c0.8-2.4,1.3-3.3,1.3-5c0-3.3-2-5.9-3.7-7.7c1.5,1,2.6,1.9,3.5,2.6
		c2.1,1.6,3.8,3.5,5.2,5.7c0.3,0.6,0.6,1.3,0.6,1.3c0.5,1.7,1.1,3.4,1.7,5.1c0.3,0.8,0.7,1.5,4.1,7.9l2.2,4.1
		c3.5,6.5,4.2,15.1,4.2,16.1c1,12,15.5,52.7,20.6,66.9c11.7,32.8,20.8,28,53,84.2c33.6,58.6,38.1,71,49.7,92.3
		c5.4,10,12.1,19.3,17.9,29C250.7,445.9,249.6,448.2,248.8,453.5z"/>
	<path class="st3" d="M400.4,326c-4.8,13-8,21.9-11.4,30.8c-0.4,1-1.7,1.8-2.5,2.6c-0.6-1-1.3-2-1.8-3c-5.5-11.3-11-22.7-16.6-34.1
		c-0.5-1-1.7-2.5-2.5-2.6c-21.3-0.6-25-18.1-29.9-32.8c-6.7-20.3-9.6-41.9-16.8-62c-13.8-38.9-42.5-64.8-76.7-87
		c0,0-46.7-38.9-60.3-65.5c-2.4-4.7-8.4-16.3-5.1-25.6c1.4-3.1,2.3-6.3,2.9-9.6c0.9-5.7,0.2-10.4,1.1-10.5c0.3,0,0.4,0.5,2.3,3.6
		c0.8,1.6,1.8,3,3.1,4.2c0.6,0.5,0.7,0.5,1.4,1.1c0.9,0.9,1.8,1.8,2.5,2.8c1.1,1.8,1.9,3.7,2.4,5.8c0.1,0.5,1.4,3.5,4,9.6
		c2.5,5.4,5.4,10.5,8.8,15.3c15.4,22.2,87.7,75.1,87.7,75.1c7.2,5.2,54,30,72.7,76.6C379.7,255.9,389.4,292.4,400.4,326z"/>
	<path class="st3" d="M338.2,371c-3.7-2.2-8.9-5.2-15.2-8.6c-12.5-6.7-14.7-6.8-16.8-6.1c-4,1.3-6.9,6.2-10.2,15.4
		c-0.1,0.5-0.3,1-0.6,1.5c-8.8,10.3-8.5,15-9.1,21.2c-0.2,2.1,0.2,4,0.9,7.7c2.6,13.3,9.1,21.6,8.3,22.1s-4.6-6.2-12.4-12.8
		c-3.3-2.7-6.9-5.2-10.6-7.2c-14-8.1-24.9-30.8-27.1-35.8c-10.7-23.4-8.5-40.9-16.1-87.7c-7-43.2-14.4-61.3-11-97.6
		c0.7-7.7,1.7-14.1,2.5-18.4c1.3,3.8,2.7,7.5,4.4,11.1c4.4,9.6,10.1,18.5,16.8,26.5c22.5,27.2,36,28.6,44.8,47.9
		c4.8,10.7,7.6,22.3,8.3,34c2.3,34,31.3,50.3,48.9,76.7c2.3,3.6,4.9,7,7.8,10.2c5.9,6.4,10.6,9.2,10.2,9.9
		C361.6,381.8,357.1,380.3,338.2,371z"/>
	<path class="st3" d="M788.7,419.2c-1.8,31.4-15.7,59.4-29.1,87.5c-5.5,11.5-10.7,23.3-16.5,34.7c-1.1,2.2-4.3,3.3-6.6,4.9
		c-1.1-2.6-3.7-5.7-3.1-7.7c5.6-16.7-5.6-27.2-13.4-39.1c-1-1.5-3-3-2.9-4.3c2.2-21.8-11.9-38.6-17.4-58c-2.1-7.5-3.8-15.2-5.4-22.9
		c-0.1-0.6,1.7-1.9,2.8-2.3c9.6-3.6,19.1-7.9,29-10.3c14.9-3.6,18.4-14.2,18.9-27.1c1-24.6,1-57.6,13.9-78.4c3-4.8,8.5-11.9,19-18.6
		c-0.7,0.9-1.2,1.9-1.8,2.9c-1.4,2.7-2.3,5.5-2.7,8.5c-0.6,4.9,0.9,8.9,1.1,10.2c4.4,36.3,8.8,72.5,13.3,108.8
		C788.4,411.5,788.4,415.1,788.7,419.2z"/>
	<path class="st3" d="M639.4,338.5l-2.8,12.9c-2.8-3.5-6.3-6.6-8.3-10.4c-15.1-28.5-28.1-58.3-45.2-85.6
		c-30.1-48.1-88-136.8-161-172.4c-15.7-7.7-56.6-25.4-87.7-67.7c-4.6-6.3-8-11.7-10.1-15.3c5,2.5,12.5,6.3,21.7,11
		c41.9,21.6,73.4,40,79.5,43.6c126,74.9,189.1,208,189.1,208c11.5,23.8,18.6,49.7,27.7,74.6L639.4,338.5z"/>
	<path class="st3" d="M399.9,126.7c-0.2-6.2-1.4-12.2-3.6-18c2.5,3.5,6.3,8.7,10.8,15c13.4,18.8,22.4,31.8,25,35.9
		c14.8,22.6,30.8,43.7,53.4,59.7s28.7,42.2,35.4,67.2c3.5,13,9.1,26.8,10,45.8c1.8,34.1-9.6,60.7-12.1,60.3
		c-2.5-0.4,6.2-29.5-7.6-45.8c-5.8-6.9-13.9-10.9-21.7-17c-1.3-1-3.2-2.4-4.4-2.1s-1.8,2.6-2.7,4c-2.6,4-5.3,7.9-8,11.8
		c-2.3-24.1-7.6-47.8-15.6-70.7c-6.4-18-15.4-43.7-32.2-68.7c-2-3-8.8-15.8-22.5-41.5c-2.1-3.9-4.6-8.7-5.4-15.4
		C398,139.1,400.1,135.5,399.9,126.7z"/>
	<path class="st3" d="M933,565c-4.4,14.9-23.7,78.1-50.2,130.8c0,0-23.4,46.5-47.6,53.5c-3.4,1-6.7,2.3-9.8,3.9
		c-5.5,2.8-10.4,6.5-14.7,11c7.1-16.3,16.6-31.4,28.1-45c2.8-3.4,22.3-27,35.9-49.1c8.6-14,16.5-33.3,32.3-72
		c6.3-15.4,8.2-20.9,10.1-27.3c4.9-17.1,7.3-34.8,7.3-52.5c3,4.4,5.4,9.3,7.1,14.3c0.9,2.8,1.6,5.6,2.1,8.4
		c0.9,3.9,1.4,7.9,1.4,11.9C934.8,557,934.2,561.1,933,565z"/>
	<path class="st3" d="M489.1,17c24.2,5.3,47.7,13,70.3,23.2c63.8,28.8,103.2,69.5,130.2,97.6c1.4,1.5,28.9,30,27.1,32
		c-0.9,1-9.3-5.3-16.3-10.9c-11.6-9.9-27.3-22.7-46.6-36.9c-15.3-11.3-33-22.9-68.4-46c0,0-38.8-25.3-79.7-46.3
		c-6.7-3.5-13.7-6.3-20.9-8.4c-5.7-1.7-11.4-2.9-17.3-3.6L489.1,17z"/>
	<path class="st3" d="M78.6,578.4c2.9-5.1,4.4-10.8,4.3-16.7c-0.4-12.7-9.3-18.2-15.3-31.5c-6.7-14.9,1-15.4-4.7-34.4
		c-7.1-23.6-24.4-40.8-27.8-51.7c-0.7-2.4-1.9-4.6-3.5-6.5c-1.8-2-4-3.6-6.4-4.6c2.3,0.2,4.6,1,6.7,2.1c2,1.1,3.1,2.3,6.5,5.6
		c4.8,4.8,3.2,3,6.2,6.1c4.8,4.9,9.6,10.2,12,13.2c19.1,22.7,31.6,54.8,31.6,54.8c4.7,11.9,7,17.9,7,25
		C95.4,558,84.4,572,78.6,578.4z"/>
	<path class="st3" d="M718.1,134.4"/>
	<path class="st1" d="M300.4,426.1"/>
</g>
</svg>
